<svg width="456" height="379" viewBox="0 0 456 379" fill="none" xmlns="http://www.w3.org/2000/svg">
<g clip-path="url(#clip0_60_966)">
<path d="M271.221 332.91C271.194 337.062 271.221 341.186 271.295 345.117C271.79 340.708 272.341 336.115 272.892 331.541C275.241 312.097 277.553 293.029 275.149 291.504C275.131 291.495 275.103 291.504 275.076 291.541C273.965 292.579 273.048 298.016 272.368 305.603C271.68 313.318 271.286 323.174 271.212 332.91M310.965 262.7C310.534 263.021 310.121 263.416 309.772 263.885C310.947 264.335 311.993 264.491 312.855 264.445C313.507 264.408 314.039 264.252 314.434 264.032C314.773 263.839 314.993 263.6 315.085 263.352C315.186 263.067 315.085 262.727 314.727 262.397C314.287 261.983 313.718 261.818 313.121 261.846C312.424 261.882 311.672 262.195 310.974 262.709M309.35 269.827C309.056 269.295 308.735 268.78 308.405 268.275C308.432 268.891 308.533 269.524 308.735 270.186C309.387 272.307 310.176 273.547 310.763 273.988C310.855 274.062 310.855 274.117 310.873 274.108C310.91 274.089 310.818 274.089 310.827 273.997C310.901 273.299 310.506 271.903 309.341 269.827M265.716 255.214C266.395 254.516 266.404 253.579 266.083 252.468C265.486 253.359 265.073 254.58 265 255.425C264.991 255.581 264.991 255.719 265 255.82C265.156 255.738 265.385 255.545 265.706 255.205M253.447 228.302C253.676 228.164 253.777 227.944 253.768 227.687C253.63 228.027 253.272 228.403 253.447 228.302ZM261.549 266.172C261.65 266.64 261.797 267.136 262.017 267.669C262.137 267.651 262.247 267.623 262.348 267.586C262.761 267.439 263.008 267.155 263.137 266.815C263.284 266.411 263.293 265.915 263.21 265.419C263.045 264.445 262.559 263.536 262.1 263.435C262.008 263.416 261.935 263.435 261.871 263.481C261.696 263.609 261.559 263.894 261.485 264.307C261.393 264.803 261.403 265.437 261.559 266.172M345.138 192.141C345.019 188.972 344.936 186.042 344.891 183.397C344.606 183.112 344.312 182.836 344.019 182.57C336.026 175.158 327.978 173.762 320.738 176.352C315.994 178.051 311.58 181.459 307.735 186.014C303.862 190.598 300.577 196.338 298.118 202.685C291.07 220.826 290.786 243.806 302.972 258.512C304.973 260.927 306.9 262.452 308.625 263.352C309.093 262.691 309.644 262.14 310.231 261.699C311.121 261.037 312.103 260.652 313.048 260.596C313.975 260.541 314.856 260.817 315.562 261.469C316.315 262.167 316.508 262.975 316.251 263.729C316.067 264.261 315.654 264.73 315.049 265.079C314.498 265.391 313.773 265.602 312.929 265.657C311.855 265.722 310.561 265.52 309.111 264.932C308.891 265.373 308.708 265.85 308.588 266.365C309.258 267.274 309.873 268.229 310.424 269.212C311.727 271.527 312.149 273.198 312.057 274.098C312.002 274.695 311.736 275.072 311.332 275.237C310.947 275.393 310.497 275.302 310.038 274.962C309.276 274.392 308.304 272.932 307.57 270.525C307.148 269.157 307.093 267.853 307.276 266.668C305.863 264.84 304.156 263.187 302.036 261.735C298.751 259.494 294.466 257.758 288.776 256.684C284.014 255.784 279.627 254.516 275.984 253.46C271.68 252.211 268.459 251.283 267.101 251.577C267.716 253.304 267.826 254.801 266.596 256.059C265.881 256.794 265.303 257.097 264.862 257.097C264.376 257.097 264.064 256.84 263.889 256.399C263.779 256.114 263.743 255.747 263.779 255.333C263.88 254.094 264.605 252.183 265.587 251.108C265.348 250.557 265.082 249.979 264.798 249.382C263.706 247.076 262.467 244.458 262.531 241.62C262.568 239.985 262.357 232.178 261.21 225.923C260.806 223.71 260.283 221.698 259.622 220.247C259.035 218.961 258.374 218.162 257.622 218.143C257.548 218.143 257.466 218.143 257.383 218.162C256.3 218.364 255.924 219.834 255.511 221.487C255.383 221.992 255.254 222.516 255.08 223.067C254.795 223.994 254.511 224.913 254.272 225.749C254.594 226.171 254.823 226.64 254.942 227.09C255.172 227.999 254.961 228.862 254.08 229.377C252.529 230.277 252.254 229.285 252.621 227.319C252.694 226.943 252.795 226.52 252.914 226.061C252.538 225.694 252.079 225.409 251.611 225.289C250.987 225.124 250.308 225.308 249.785 226.098C248.95 227.365 248.785 228.954 248.886 230.277C249.647 231.177 250.115 232.187 250.005 232.922C249.95 233.28 249.813 233.528 249.611 233.666C249.17 233.96 248.757 233.786 248.427 233.253C248.28 233.014 248.124 232.647 247.996 232.206C247.876 231.811 247.775 231.333 247.711 230.819C247.289 230.378 246.784 229.983 246.261 229.717C245.757 229.459 245.234 229.312 244.766 229.377C244.343 229.432 243.949 229.661 243.609 230.139C242.921 231.122 242.838 232.252 243.077 233.262C243.187 233.73 243.38 234.18 243.609 234.575H243.646C245.068 234.989 246.326 235.687 246.454 236.201C246.564 236.679 246.362 237.019 245.757 237.166C245.142 237.313 244.499 237.129 243.903 236.716C243.527 236.449 243.16 236.082 242.848 235.65C241.847 235.411 240.838 235.292 240.297 235.512C240.122 235.586 240.058 235.779 240.214 236.146C240.462 236.771 240.801 237.9 241.233 239.388C243.224 246.176 247.418 260.532 256.007 265.602C258.053 266.815 259.576 267.43 260.696 267.641C260.549 267.228 260.439 266.824 260.356 266.447C260.164 265.538 260.155 264.739 260.274 264.096C260.411 263.37 260.714 262.819 261.136 262.507C261.494 262.241 261.916 262.14 262.366 262.241C263.293 262.443 264.183 263.802 264.431 265.226C264.55 265.915 264.532 266.631 264.293 267.256C264.036 267.935 263.55 268.486 262.761 268.762C262.696 268.78 262.632 268.808 262.568 268.826C263.458 270.443 264.936 272.243 267.202 273.997C268.221 274.778 269.074 275.531 269.955 276.303C273.222 279.169 276.782 282.282 290.189 288.436C291.814 289.18 293.814 290.209 296.099 291.385C301.632 294.232 308.854 297.952 316.168 300.45C328.823 304.767 341.807 305.41 346.625 291.265C348.589 285.479 349.36 277.837 349.369 268.119C349.369 258.374 348.616 246.525 347.524 232.38C346.405 217.923 345.56 203.539 345.138 192.168M358.6 130.298C358.71 130.188 358.811 130.069 358.903 129.94C358.582 129.435 358.242 129.04 357.903 128.746C357.215 128.158 356.508 128.002 355.866 128.094C355.205 128.195 354.599 128.544 354.15 128.985C353.617 129.499 353.305 130.059 353.443 130.317C353.673 130.767 354.333 131.088 355.141 131.217C355.737 131.309 356.389 131.29 357.013 131.134C357.618 130.987 358.178 130.712 358.61 130.289M279.077 59.3994C280.783 57.1399 281.618 54.862 280.93 52.8413C280.269 50.9033 278.865 49.8378 277.351 49.4612C276.59 49.2684 275.801 49.25 275.057 49.3786C274.323 49.5072 273.653 49.7735 273.112 50.1593C272.286 50.7471 271.772 51.6289 271.855 52.7127C271.91 53.42 272.277 54.2007 272.864 54.9906C273.929 56.4235 275.709 57.8288 277.792 58.8299C278.214 59.032 278.636 59.2157 279.077 59.381M239.471 21.7593C239.085 23.33 239.535 24.919 240.462 26.5447C241.912 26.756 243.508 27.2244 245.105 27.9316C248.188 29.3186 251.308 31.6332 253.401 34.8296C254.263 36.143 254.951 37.6218 255.392 39.2384C255.548 39.7986 255.722 40.3222 255.915 40.8365C257.282 44.3176 259.631 46.2649 262.329 47.1466C265.073 48.0468 268.184 47.8631 271.02 47.0915C271.717 46.8986 272.396 46.669 273.066 46.4118C277.168 44.8044 280.077 46.2006 282.967 47.5875C284.83 48.4876 286.684 49.3786 288.813 49.3235C291.492 49.2592 294.319 47.9733 296.429 46.0169C298.411 44.1891 299.76 41.7734 299.76 39.2659C299.76 32.1292 298.411 25.0475 295.842 18.9671C293.658 13.8051 290.602 9.35959 286.757 6.20914C282.931 3.08625 278.315 1.23088 272.992 1.23088C269.533 1.23088 265.761 2.0116 261.715 3.72001C256.3 6.00707 250.556 9.01975 246.206 12.5743C242.811 15.3482 240.278 18.4435 239.471 21.7593ZM275.727 62.9081C272.69 60.3087 269.57 58.2605 266.45 56.2214C263.008 53.9711 259.567 51.7207 256.218 48.7081C254.337 47.018 252.786 44.6024 251.162 42.0857C249.822 40.0099 248.445 37.8606 246.803 36.0236C246.05 35.1786 245.408 34.4805 244.775 33.7917C242.838 31.6975 240.976 29.686 239.718 27.6836C238.746 27.5918 237.865 27.6377 237.158 27.8306C236.819 27.9224 236.525 28.051 236.268 28.2164C233.836 29.8146 238.012 43.142 240.691 51.684C241.563 54.4671 242.279 56.7541 242.563 58.0308C243.169 60.722 244.408 61.6405 246.142 62.9172C247.574 63.9735 249.317 65.2502 251.308 67.8128C253.456 70.5775 254.906 72.0471 256.732 72.341C258.604 72.635 261.008 71.7624 265.073 69.8243C268.716 68.0884 272.653 65.6268 275.727 62.9264M280.297 65.5993C282.775 68.2537 285.124 71.9644 287.317 76.4743C287.216 75.8773 287.179 75.1608 287.216 74.3709C287.409 70.4397 289.437 64.3776 294.796 60.8874C297.301 59.2524 301.045 58.0492 305.294 57.3971C309.515 56.7449 314.241 56.6255 318.737 57.1491C326.281 58.0308 334.962 63.2755 339.981 66.3065C341.293 67.0964 342.34 67.7302 342.991 68.0792C342 65.783 337.237 61.3191 331.282 57.1491C324.666 52.5198 316.618 48.3407 310.607 47.9733C309.891 47.9273 309.203 47.9365 308.552 48.0192C300.283 48.9469 297.457 51.9136 294.282 55.257C292.896 56.7174 291.447 58.2421 289.464 59.7209C287.996 60.8139 286.326 61.365 284.61 61.5119C282.912 61.6497 281.169 61.4017 279.508 60.869C279.288 61.1262 279.067 61.3925 278.829 61.6497C278.434 62.0814 278.021 62.5039 277.581 62.9264C278.498 63.7623 279.407 64.6532 280.306 65.6176M273.626 166.395C273.396 166.074 273.011 165.872 272.451 165.927C271.662 167.791 271.377 169.077 271.873 169.426C271.91 169.454 271.946 169.472 271.992 169.491C272.644 169.729 273.139 169.527 273.461 169.132C273.754 168.774 273.919 168.269 273.947 167.755C273.984 167.249 273.873 166.744 273.635 166.395M269.166 175.957C268.716 176.545 268.212 177.509 267.762 178.63C268.358 178.226 268.845 177.775 269.184 177.325C269.414 177.031 269.57 176.738 269.652 176.462C269.716 176.242 269.726 176.03 269.671 175.865C269.625 175.727 269.533 175.599 269.377 175.488C269.313 175.442 269.34 175.709 269.157 175.957M272.203 182.322C271.882 182.533 271.524 182.947 271.166 183.479C271.644 183.048 271.983 182.653 272.203 182.322ZM274.874 187.824C274.773 188.118 274.699 188.439 274.653 188.77C274.791 188.651 274.92 188.522 275.039 188.393C275.342 188.063 275.562 187.732 275.681 187.429C275.773 187.199 275.81 187.006 275.764 186.878C275.745 186.832 275.709 186.795 275.645 186.777C275.544 186.74 275.415 186.832 275.277 187.006C275.121 187.208 274.984 187.484 274.874 187.815M284.482 178.363C284.702 178.088 284.922 177.739 285.142 177.344C284.518 176.995 283.848 176.839 283.243 176.839C282.784 176.839 282.38 176.93 282.086 177.096C281.875 177.206 281.747 177.353 281.719 177.5C281.683 177.757 281.903 178.125 282.472 178.593C283.325 179.273 283.94 179.043 284.482 178.363ZM325.794 77.0897C325.794 79.2941 326.161 82.5731 326.859 84.9796C326.923 84.7959 326.978 84.6214 327.042 84.456C328.529 80.4973 328.235 77.852 327.464 76.511C327.226 76.0977 326.96 75.8405 326.703 75.7211C326.528 75.6384 326.363 75.6384 326.244 75.7211C325.987 75.8864 325.803 76.3365 325.803 77.0897M331.741 80.8555C331.172 81.5995 330.759 83.5835 330.428 86.1736C330.63 85.9532 330.823 85.7144 331.007 85.4756C331.64 84.6489 332.144 83.7488 332.392 82.9313C332.603 82.2057 332.612 81.5444 332.291 81.0851C332.218 80.9841 332.117 80.8831 331.998 80.7912C331.906 80.7177 331.823 80.7545 331.731 80.8555M346.184 162.648C342.404 163.135 340.321 164.255 338.247 165.587C340.89 169.188 343.487 170.033 345.515 169.537C346.129 168.159 347.524 167.167 349.268 166.065C349.488 165.468 349.58 164.871 349.506 164.347C349.36 163.199 348.359 162.372 346.184 162.648ZM337.549 164.567C339.752 163.153 341.954 161.95 346.028 161.426C349.075 161.04 350.488 162.372 350.727 164.191C350.764 164.494 350.764 164.815 350.727 165.146C355.526 162.106 361.876 157.403 361.473 143.038C361.307 137.132 360.546 133.394 359.536 131.125C359.518 131.143 359.49 131.171 359.472 131.189C358.876 131.768 358.114 132.144 357.316 132.347C356.536 132.539 355.71 132.567 354.966 132.448C353.792 132.264 352.792 131.713 352.369 130.905C351.984 130.161 352.415 129.003 353.315 128.131C353.929 127.534 354.774 127.038 355.719 126.9C356.682 126.762 357.729 126.983 358.729 127.837C358.967 128.039 359.197 128.278 359.426 128.562C359.445 128.36 359.445 128.14 359.426 127.901C358.398 112.626 356.407 95.3127 349.387 82.1047C342.422 68.9885 330.447 59.8954 309.405 60.8782C295.301 61.5303 293.153 69.3284 291.804 74.224C291.309 76.0058 290.914 77.4387 290.079 78.1919C289.538 78.6787 289.015 78.7889 288.519 78.5868C288.409 78.5409 288.308 78.4858 288.216 78.4031C290.621 83.6845 292.832 89.9119 294.814 96.7088C297.017 104.25 298.632 112.773 298.632 120.039C298.632 126.082 297.512 131.299 294.677 134.432C291.612 137.821 282.738 148.953 276.92 157.963C275.314 160.443 273.947 162.758 273.002 164.696C273.717 164.788 274.25 165.164 274.617 165.688C275.03 166.276 275.204 167.057 275.158 167.819C275.112 168.572 274.846 169.334 274.397 169.895C273.763 170.675 272.8 171.08 271.561 170.63C271.405 170.574 271.267 170.501 271.148 170.418C270.24 169.766 270.249 168.352 270.928 166.423C267.927 167.957 265.899 172.228 265.165 175.617C264.954 176.6 264.853 177.491 264.862 178.226C264.871 178.878 264.972 179.374 265.165 179.631C265.238 179.732 265.358 179.759 265.523 179.704C265.725 179.64 265.917 179.567 266.101 179.484C266.697 177.73 267.477 176.085 268.166 175.185C268.817 174.34 269.496 174.019 270.111 174.496C270.46 174.763 270.689 175.093 270.818 175.461C270.955 175.883 270.946 176.333 270.818 176.793C270.689 177.206 270.46 177.638 270.139 178.051C269.478 178.905 268.413 179.75 267.11 180.375C267.055 180.559 267 180.742 266.945 180.926C266.385 182.882 266.101 184.802 266.514 185.656C266.661 185.959 267.028 186.024 267.698 185.702C268.175 185.473 268.606 185.234 269.001 185.004C269.726 183.231 270.818 181.624 271.726 181.146C272.286 180.852 272.745 180.788 273.075 180.908C273.479 181.055 273.681 181.376 273.662 181.826C273.662 182.092 273.561 182.405 273.36 182.754C272.91 183.553 271.818 184.701 269.992 185.84C269.909 186.079 269.827 186.327 269.753 186.566C269.533 187.319 269.404 188.053 269.432 188.678C269.45 189.211 269.57 189.652 269.845 189.909C270.056 190.111 270.377 190.221 270.845 190.203C271.809 190.175 272.671 189.936 273.396 189.578C273.387 189.33 273.396 189.082 273.415 188.834C273.461 188.329 273.561 187.842 273.708 187.411C273.864 186.951 274.066 186.547 274.314 186.235C274.791 185.629 275.397 185.353 276.085 185.619C276.525 185.785 276.801 186.088 276.929 186.483C277.067 186.887 277.021 187.374 276.819 187.87C276.645 188.301 276.342 188.761 275.938 189.202C275.599 189.569 275.177 189.927 274.69 190.24C274.819 190.855 275.112 191.36 275.608 191.599C275.892 191.737 276.535 191.535 277.379 191.103C278.829 190.359 280.664 188.944 282.353 187.291C284.032 185.638 285.555 183.755 286.363 182.056C286.932 180.852 287.134 179.778 286.739 179.015C286.555 178.666 286.344 178.363 286.106 178.106C285.886 178.483 285.665 178.823 285.427 179.116C284.426 180.366 283.279 180.807 281.692 179.539C280.728 178.767 280.398 177.996 280.481 177.335C280.554 176.765 280.921 176.306 281.472 176.003C281.94 175.746 282.545 175.599 283.215 175.599C283.995 175.599 284.867 175.792 285.684 176.232C285.785 176.03 285.886 175.828 285.986 175.617C286.812 173.918 287.712 172.062 289.061 170.933C291.098 169.215 299.559 161.766 307.065 153.031C311.304 148.099 315.241 142.771 317.535 137.858C321.252 129.903 322.665 116.19 323.895 104.342C324.61 97.462 325.253 91.1978 326.262 87.0003C326.051 86.5318 325.858 86.0083 325.684 85.4296C324.932 82.8946 324.537 79.4135 324.537 77.0805C324.537 75.8681 324.95 75.0598 325.546 74.6832C326.033 74.3709 326.611 74.3434 327.18 74.6005C327.657 74.821 328.134 75.2527 328.501 75.8956C329.419 77.4846 329.804 80.5157 328.171 84.8877C327.951 85.4664 327.749 86.1277 327.565 86.8717C327.639 87.0186 327.721 87.1472 327.804 87.2666C328.052 87.6157 328.29 87.8085 328.51 87.7718C328.593 87.7534 328.685 87.7167 328.777 87.6432C328.85 87.5881 328.933 87.533 329.006 87.4779C329.401 83.9968 329.915 81.177 330.731 80.1207C331.291 79.3859 331.952 79.2298 332.713 79.8176C332.934 79.9829 333.117 80.1758 333.264 80.3871C333.824 81.1862 333.851 82.2057 333.53 83.2804C333.246 84.254 332.658 85.2919 331.943 86.2287C331.41 86.9268 330.786 87.5789 330.162 88.1117C329.924 90.4079 329.722 92.9981 329.529 95.5423L329.483 96.1485C329.079 101.412 328.318 120.011 330.162 137.261C331.236 147.291 333.191 156.852 336.604 163.024C336.907 163.576 337.219 164.09 337.531 164.567M284.105 245.147C284.004 245.092 283.894 245.037 283.784 244.982C282.94 244.578 281.995 244.394 281.141 244.514C280.609 244.587 280.315 244.743 280.233 244.899C280.233 244.909 280.233 244.936 280.242 244.954C280.297 245.055 280.425 245.157 280.627 245.248C281.288 245.551 282.463 245.634 284.114 245.138M268.092 242.833C268.202 242.851 268.322 242.869 268.432 242.879C268.927 242.915 269.349 242.851 269.542 242.667C269.478 242.64 269.386 242.612 269.267 242.594C269.001 242.548 268.68 242.566 268.368 242.686C268.267 242.722 268.175 242.768 268.083 242.833M272.8 141.669C273.011 141.605 273.222 141.541 273.424 141.467C275.305 140.769 277.149 139.419 278.664 137.72C280.187 136.011 281.38 133.954 281.958 131.869C282.454 130.069 282.499 128.241 281.894 126.606C281.261 124.879 280.095 123.887 278.746 123.547C277.865 123.327 276.902 123.373 275.957 123.685C274.984 123.997 274.02 124.576 273.158 125.403C271.102 127.387 269.68 130.776 270.166 135.359C270.533 138.831 271.432 140.852 272.791 141.678M260.21 129.297C262.146 135.387 264.88 140.576 269.203 141.78C269.817 141.954 270.451 142.009 271.102 141.982C270.001 140.732 269.276 138.62 268.946 135.497C268.413 130.482 270.01 126.735 272.304 124.521C273.305 123.557 274.433 122.886 275.58 122.519C276.755 122.142 277.948 122.078 279.049 122.362C280.783 122.803 282.27 124.053 283.05 126.193C283.747 128.085 283.711 130.17 283.142 132.209C282.509 134.477 281.224 136.709 279.581 138.546C278.278 140.007 276.755 141.228 275.14 142.064C275.323 142.037 275.516 141.991 275.718 141.945C279.104 141.045 283.839 137.242 289.666 131.658C291.437 129.958 293.887 120.902 293.713 111.019C293.621 105.921 292.823 100.64 290.859 96.0567C288.914 91.5285 285.812 87.6983 281.105 85.4572C275.562 82.8211 267.78 82.3619 256.998 85.5215C253.768 86.4675 251.584 88.6076 250.629 90.6467C250.29 91.3723 250.106 92.0612 250.088 92.6766C250.07 93.2369 250.189 93.7237 250.455 94.0727C250.767 94.486 251.299 94.7248 252.079 94.7248C253.933 94.7248 255.621 95.0188 256.879 95.5607C257.723 95.9281 258.393 96.4149 258.806 97.0119C259.255 97.664 259.411 98.4264 259.182 99.2806C259.026 99.896 258.659 100.566 258.062 101.265C256.199 103.451 256.952 106.169 258.466 111.69C259.145 114.142 259.962 117.118 260.76 120.783C261.375 123.612 261.081 126.477 260.191 129.306M245.408 145.297C245.362 145.297 245.316 145.297 245.261 145.297C245.087 146.014 244.967 146.657 244.949 147.144C244.94 147.502 244.949 147.731 245.022 147.731C245.243 147.731 245.463 147.336 245.61 146.859C245.738 146.436 245.775 145.986 245.692 145.637C245.646 145.435 245.555 145.297 245.408 145.288M232.955 191.222C232.836 192.15 232.708 193.114 232.542 194.106C232.882 194.189 233.267 194.235 233.671 194.263C235.589 194.382 237.131 192.545 237.929 190.405C238.25 189.551 238.443 188.651 238.498 187.796C238.553 186.97 238.47 186.198 238.232 185.592C237.901 184.729 237.213 184.168 236.121 184.251C233.864 184.416 233.46 187.401 232.955 191.231M239.168 152.526C239.159 152.26 239.149 152.002 239.14 151.745C239.003 147.933 238.902 145.261 237.709 145.316C236.149 145.389 233.001 147.043 229.321 148.981C227.156 150.119 224.807 151.359 222.43 152.443C219.686 153.702 216.942 154.785 214.547 155.667C210.721 157.063 207.72 157.927 206.922 158.092C205.389 158.414 206.114 162.639 206.729 166.258C206.821 166.809 206.912 167.341 207.013 168.003C207.445 170.758 204.71 173.247 201.627 176.049C199.608 177.886 197.433 179.86 196.011 182.056C194.432 184.49 195.809 186.621 197.589 189.358C199.525 192.352 201.893 196.008 201.764 201.528C201.728 203.034 202.15 204.293 202.902 205.312C204.132 206.965 206.27 208.031 208.803 208.573C211.4 209.124 214.41 209.115 217.309 208.6C221.457 207.875 225.366 206.13 227.514 203.567C229.615 201.05 230.579 197.964 231.138 194.979C229.679 194.336 228.853 193.124 228.642 191.277C228.367 188.816 229.294 185.188 231.395 180.2C233.157 176.012 234.699 169.766 236.185 163.732C237.186 159.69 238.158 155.741 239.168 152.535M197.13 219.98C197.314 217.381 196.993 215.443 196.249 213.744C194.561 215.673 194.313 217.62 194.68 219.09C194.891 219.925 195.304 220.596 195.754 220.991C196.093 221.294 196.424 221.423 196.644 221.312C196.892 221.184 197.075 220.761 197.13 219.98ZM167.04 142.643C167.435 147.199 167.912 152.59 168.38 157.844C169.27 167.837 170.142 177.509 170.426 180.448C170.683 183.048 175.217 188.559 180.392 193.721C186.329 199.645 193.01 205.046 194.983 205.018C195.166 205.018 195.322 204.954 195.451 204.844C196.075 204.283 196.258 202.676 196.084 200.416C195.9 198.01 195.304 194.942 194.405 191.617C191.679 181.541 186.238 169.188 181.411 165.844C177.034 162.813 175.795 153.729 174.794 146.455C174.207 142.193 173.721 138.583 172.803 137.444C172.51 137.086 172.198 136.875 171.876 136.792C171.408 136.682 170.876 136.838 170.326 137.205C169.711 137.628 169.096 138.298 168.554 139.153C167.93 140.135 167.389 141.329 167.04 142.634M179.979 100.337C179.741 100.052 179.511 99.8684 179.3 99.8225C179.3 99.8225 179.273 99.8225 179.254 99.8225H179.236C179.263 99.8868 179.309 99.9511 179.374 100.025C179.511 100.172 179.722 100.291 179.988 100.346M178.97 104.149C178.97 104.149 178.97 104.13 178.961 104.13C178.933 104.13 178.942 104.13 178.97 104.149ZM175.29 106.445C175.29 106.445 175.318 106.381 175.327 106.353C175.409 106.068 175.4 105.756 175.327 105.49C175.262 105.26 175.162 105.076 175.042 104.994C175.006 104.966 174.95 104.975 174.868 105.03C174.776 105.104 174.721 105.177 174.712 105.269C174.684 105.444 174.758 105.673 174.895 105.921C174.996 106.096 175.134 106.27 175.29 106.445ZM171.096 102.587C171.372 102.56 171.638 102.495 171.886 102.403C172.198 102.293 172.473 102.155 172.693 102.009C172.354 102.054 171.876 102.165 171.243 102.358C171.179 102.376 171.133 102.459 171.096 102.587ZM150.578 71.8726C154 83.5926 165.581 97.6181 168.398 101.026C168.674 101.366 168.866 101.595 168.986 101.751C169.243 102.082 169.546 102.302 169.867 102.431C170.004 101.806 170.335 101.347 170.885 101.182C172.308 100.741 173.189 100.686 173.647 100.833C174.611 101.136 174.602 101.816 173.959 102.532C173.62 102.909 173.005 103.313 172.289 103.57C171.913 103.708 171.5 103.8 171.078 103.836C171.096 103.974 171.124 104.103 171.161 104.24C171.289 104.746 171.491 105.269 171.766 105.747C172.289 106.647 173.069 107.345 173.996 107.272C174.115 107.262 174.226 107.244 174.326 107.226C174.134 107.014 173.969 106.785 173.831 106.555C173.546 106.059 173.409 105.545 173.491 105.067C173.556 104.672 173.767 104.323 174.134 104.048C174.703 103.625 175.253 103.662 175.721 103.965C176.088 104.213 176.373 104.654 176.511 105.159C176.639 105.627 176.648 106.179 176.501 106.693C176.446 106.877 176.373 107.051 176.281 107.216C176.804 107.51 177.373 107.694 177.887 107.648C178.3 107.611 178.603 107.272 178.805 106.821C178.759 106.748 178.704 106.675 178.658 106.592C178.19 105.829 177.859 104.92 177.832 104.259C177.804 103.469 178.116 102.918 178.906 102.881C179.557 102.854 179.988 103.34 180.199 104.075C180.291 104.387 180.337 104.764 180.346 105.168C180.346 105.554 180.319 105.958 180.236 106.353C180.218 106.436 180.199 106.509 180.181 106.592C180.392 106.831 180.612 106.996 180.805 107.042C181.025 107.088 181.273 106.794 181.484 105.875C181.558 105.572 181.585 105.232 181.585 104.883C181.585 103.763 181.246 102.55 180.759 101.577C179.731 101.705 178.942 101.347 178.483 100.87C178.263 100.64 178.107 100.383 178.034 100.126C177.942 99.8133 177.96 99.501 178.089 99.2347C178.272 98.8489 178.658 98.5825 179.254 98.5825C179.364 98.5825 179.475 98.5917 179.585 98.6193C180.135 98.7479 180.713 99.2439 181.227 99.9419C181.356 99.6113 181.42 99.0785 181.411 98.3805C181.392 97.1772 181.126 95.5882 180.64 93.7604C179.722 90.3252 178.025 86.1277 175.657 82.2333C173.886 79.3033 172.941 75.4364 172.005 71.597C170.234 64.3225 168.481 57.1031 161.048 57.342C155.432 57.5257 152.734 61.714 151.459 66.6188C151.018 68.3272 150.743 70.1275 150.587 71.8726M179.704 43.739L179.722 43.7023C179.585 43.3624 179.438 43.0317 179.282 42.7103C177.997 40.0191 176.309 37.8514 175.308 37.9341C174.712 37.9892 174.382 39.2659 174.675 42.4715C174.914 45.1443 175.363 46.568 176.006 47.0731C176.511 47.4681 177.3 47.165 178.318 46.4026C178.759 46.072 179.172 45.0616 179.704 43.739ZM185.99 32.5333C186.963 32.4139 187.926 32.2853 188.88 32.1475C191.753 30.4667 195.543 29.144 200.626 28.547C214.272 26.9488 221.769 28.9971 226.183 30.2003C228.119 30.7239 229.422 31.0821 230.285 30.88C230.881 30.7331 231.203 30.5585 231.267 30.3473C231.46 29.7043 230.239 28.4919 228.018 26.9672C225.596 25.2955 222.044 23.3851 217.842 21.4562C201.397 13.9337 175.006 6.30099 166.811 13.1897C162.241 17.0291 160.167 26.4345 160.167 33.4702C160.167 35.2796 160.305 36.9146 160.571 38.2556C160.828 39.5415 161.195 40.5242 161.663 41.0845C161.901 41.3693 162.158 41.5254 162.434 41.5254C164.085 41.5254 165.948 40.4232 168.362 38.9904C172.253 36.6849 177.529 33.562 185.981 32.5333M186.586 33.6998C186.43 33.7182 186.284 33.7365 186.128 33.7549C181.714 34.2876 178.181 35.4266 175.262 36.7125C176.777 36.6574 178.896 39.0914 180.355 42.1408C181.475 39.5598 183.182 36.3818 186.586 33.709M181.493 57.9114C181.016 57.2685 180.493 56.7909 179.998 56.4694C179.851 56.3683 179.713 56.2857 179.575 56.2214C179.722 56.3775 179.897 56.5429 180.08 56.7082C180.475 57.0756 180.952 57.4797 181.484 57.9114M193.496 103.974C193.23 103.901 193.001 103.855 192.79 103.827H192.716C192.716 103.827 192.808 103.873 192.872 103.891C193.019 103.947 193.203 103.974 193.404 103.974C193.432 103.974 193.469 103.974 193.496 103.974ZM196.754 111.212C196.754 110.909 196.754 110.606 196.726 110.312C196.681 109.77 196.58 109.283 196.424 108.916C196.323 108.686 196.24 108.53 196.167 108.502C196.148 108.557 196.148 108.704 196.157 108.906C196.176 109.301 196.286 109.816 196.46 110.367C196.543 110.642 196.644 110.927 196.754 111.212ZM192.514 108.649C192.514 108.649 192.551 108.594 192.533 108.622C192.533 108.622 192.524 108.64 192.514 108.649ZM192.854 110.422C192.909 110.192 192.936 109.963 192.946 109.751C192.964 109.237 192.836 108.824 192.496 108.704C192.478 108.842 192.505 109.118 192.569 109.458C192.634 109.751 192.725 110.073 192.845 110.422M187.412 108.245C187.476 108.245 187.531 108.236 187.596 108.227C187.834 108.19 188.045 108.107 188.22 108.006C188.321 107.951 188.403 107.887 188.458 107.832C188.403 107.804 188.348 107.786 188.284 107.777C188.174 107.777 188.055 107.795 187.935 107.841C187.798 107.896 187.669 107.979 187.55 108.089C187.504 108.135 187.458 108.181 187.421 108.236M159.038 51.2156C160.369 51.188 161.571 51.2982 162.562 51.4452C172.06 52.8505 177.915 69.7509 181.227 79.3032C182.108 81.8383 182.796 83.8406 183.319 84.851C186.614 91.2621 186.265 98.6468 186.036 103.386C185.935 105.517 185.861 107.088 186.128 107.575C186.164 107.648 186.21 107.712 186.256 107.768C186.375 107.556 186.531 107.363 186.706 107.198C186.935 106.978 187.201 106.812 187.476 106.693C187.77 106.573 188.082 106.518 188.376 106.546C188.761 106.573 189.128 106.73 189.422 107.042C189.816 107.455 189.826 107.924 189.578 108.365C189.422 108.64 189.156 108.879 188.825 109.072C188.532 109.237 188.174 109.375 187.788 109.43C187.614 109.458 187.44 109.476 187.256 109.476C187.412 110.101 187.807 110.826 188.321 111.497C189.009 112.397 189.881 113.15 190.688 113.361C191.138 113.481 191.734 112.865 192.202 112.048C192.184 112.002 192.156 111.956 192.138 111.91C191.78 111.157 191.505 110.367 191.367 109.706C191.202 108.916 191.248 108.236 191.569 107.841C191.863 107.483 192.276 107.354 192.826 107.52C193.827 107.823 194.203 108.714 194.166 109.788C194.148 110.247 194.056 110.734 193.909 111.212C193.827 111.487 193.716 111.772 193.597 112.039C194.249 113.223 195.047 114.197 195.634 114.059C195.946 113.986 196.185 113.692 196.369 113.269C195.956 112.498 195.552 111.57 195.295 110.725C195.093 110.082 194.965 109.467 194.946 108.962C194.919 108.3 195.075 107.768 195.497 107.474C195.671 107.354 195.873 107.281 196.112 107.272C196.772 107.244 197.259 107.703 197.571 108.429C197.773 108.916 197.91 109.531 197.974 110.202C198.029 110.844 198.011 111.543 197.919 112.213C197.873 112.544 197.8 112.865 197.717 113.168C197.929 113.517 198.14 113.793 198.323 113.958C198.369 113.995 198.424 114.013 198.479 114.004C198.626 113.977 198.791 113.857 198.965 113.664C199.177 113.425 199.378 113.095 199.525 112.691C199.929 111.607 199.975 110.036 199.131 108.365C198.296 106.711 196.736 105.462 195.277 104.7C194.662 105.058 194.001 105.214 193.423 105.214C193.083 105.214 192.762 105.159 192.468 105.058C192.156 104.948 191.89 104.764 191.688 104.534C191.459 104.268 191.321 103.937 191.321 103.552C191.321 103.276 191.422 103.056 191.624 102.881C191.9 102.633 192.368 102.541 192.946 102.606C193.395 102.651 193.955 102.798 194.561 103.028C194.753 103.102 194.946 103.184 195.148 103.267C195.488 102.835 194.717 101.595 193.322 99.3357C192.056 97.2875 190.34 94.5044 188.596 90.7386C185.806 84.6948 188.458 82.0128 190.798 79.6339C191.881 78.5409 192.891 77.5122 193.074 76.2998C193.359 74.4536 190.881 71.8542 188.339 69.1814C185.843 66.5637 183.292 63.8908 182.897 61.3925C182.833 61.0068 182.751 60.6394 182.659 60.2903C181.301 59.3351 180.117 58.389 179.273 57.6083C178.768 57.1399 178.383 56.7357 178.135 56.4051C177.722 55.8632 177.63 55.3947 177.905 55.0365C177.97 54.9539 178.043 54.8896 178.144 54.8345C178.245 54.7793 178.364 54.7426 178.493 54.715C178.979 54.6416 179.823 54.8436 180.704 55.4223C181.512 55.955 182.402 56.8184 183.09 58.0768C183.329 58.5084 183.54 58.9861 183.714 59.5188C184.898 60.3271 186.201 61.1353 187.522 61.8334C189.78 63.0183 191.211 64.644 192.551 66.1595C194.111 67.9231 195.524 69.5304 197.993 69.9254C198.25 69.9713 198.534 69.9438 198.828 69.8795C200.893 69.3835 203.572 66.582 205.848 63.3122C208.151 60.0056 210.005 56.2489 210.381 53.8884C210.464 53.374 210.473 52.9423 210.399 52.6209C209.959 50.7839 211.023 48.9561 212.29 46.8068C214.006 43.8768 216.107 40.3038 214.648 35.6287C212.758 29.5666 204.38 30.9168 194.276 32.5425C192.68 32.7997 191.046 33.066 189.385 33.3048C184.237 36.4002 182.292 40.6896 181.062 43.6931C182.081 46.3659 182.549 49.2684 181.695 51.2523C180.576 53.87 177.391 54.9447 170.683 52.0698C167.05 50.5175 163.572 49.6541 160.277 50.7196C159.873 50.8482 159.47 51.0135 159.066 51.1972M146.623 84.9153C146.467 83.2712 144.87 81.6454 143.236 80.8371C143.512 81.6546 143.833 82.371 144.172 82.9681C144.732 83.9417 145.338 84.6122 145.861 84.9796C146.237 85.2368 146.494 85.347 146.595 85.2827C146.632 85.2551 146.641 85.1357 146.623 84.9153ZM142.383 212.697C141.548 211.604 140.841 211.071 140.245 211.08C140.346 211.246 140.511 211.448 140.74 211.659C141.098 211.999 141.557 212.32 142.034 212.55C142.144 212.605 142.264 212.651 142.383 212.697ZM130.169 203.282C130.252 204.715 130.426 205.652 130.738 205.891C130.738 205.891 130.885 205.725 131.188 205.33C131.481 204.954 131.408 204.247 131.133 203.705C131.022 203.493 130.894 203.31 130.747 203.209C130.655 203.144 130.554 203.108 130.454 203.126C130.362 203.144 130.27 203.19 130.169 203.273M134.831 172.77C133.427 151.249 137.841 130.078 141.392 120.746C143.649 114.812 143.879 108.842 143.145 103.542C141.988 95.1933 138.446 88.5066 136.602 86.1185C136.547 86.045 136.492 85.9991 136.437 85.9899C135.969 85.8521 135.124 86.5686 134.023 87.8912C132.784 89.3884 131.353 91.6111 129.866 94.2656C124.296 104.195 117.928 120.121 117.671 127.405C117.441 133.945 118.441 140.778 120.268 147.024C122.176 153.545 124.993 159.415 128.26 163.631C131.27 167.516 130.775 180.494 130.371 191.195C130.206 195.392 130.068 199.232 130.114 201.932C130.132 201.932 130.151 201.923 130.178 201.914C130.646 201.813 131.078 201.923 131.454 202.189C131.775 202.419 132.041 202.759 132.234 203.144C132.683 204.054 132.748 205.303 132.151 206.074C131.325 207.131 130.61 207.342 129.976 206.846C129.618 206.561 129.361 205.9 129.196 204.935C127.48 209.409 128.517 215.333 130.857 220.853C133.702 227.54 138.437 233.593 142.557 235.76C143.503 236.256 144.292 236.449 144.934 236.385C145.769 236.311 146.402 235.769 146.852 234.924C147.357 233.988 147.65 232.674 147.77 231.195C148.082 227.338 147.219 222.405 145.953 219.448C144.989 217.197 144.108 215.406 143.291 214.056C142.732 214.102 142.108 213.937 141.502 213.652C140.915 213.367 140.337 212.963 139.887 212.541C139.401 212.081 139.043 211.567 138.96 211.145C138.822 210.52 139.061 210.052 139.804 209.886C140.961 209.638 142.135 210.318 143.383 211.971C143.493 212.118 143.603 212.265 143.714 212.43C143.961 211.898 143.218 210.685 142.172 208.968C141.328 207.59 140.3 205.927 139.419 203.907C138.813 202.52 138.455 200.949 138.07 199.296C137.538 196.963 136.969 194.465 135.592 192.205C133.61 188.944 133.693 181.633 134.831 172.751M201.021 263.71C201.104 264.169 201.195 264.629 201.315 265.06C201.773 264.105 202.012 262.727 202.085 261.359C202.15 260.146 202.085 258.952 201.902 258.025C201.783 257.409 201.663 256.95 201.535 256.766C201.287 257.06 201.085 257.63 200.948 258.365C200.672 259.816 200.681 261.818 201.012 263.71M246.014 267.889C244.564 268.147 243.05 268.496 241.554 268.835L241.315 268.891C240.361 269.111 239.406 269.24 238.48 269.377C236.488 269.662 234.653 269.919 233.616 270.92C233.12 271.407 232.909 271.922 232.919 272.454C232.937 273.263 233.432 274.144 234.212 275.017C235.048 275.954 236.195 276.863 237.433 277.653C240.241 279.453 243.453 280.666 244.619 280.298C244.655 280.289 244.71 280.243 244.775 280.179C245.555 279.343 246.133 276.542 246.215 272.831C246.243 271.306 246.188 269.635 246.014 267.889ZM245.646 370.688C245.371 369.439 244.665 367.73 243.692 365.608C243.71 368.07 243.765 369.98 244.041 371.211C244.261 372.194 244.619 372.653 245.261 372.506C245.793 372.387 245.885 371.762 245.646 370.697M145.659 375.519C145.255 375.308 142.869 375.133 138.923 374.995C140.474 377.218 142.557 377.88 144.182 377.751C144.907 377.696 145.531 377.485 145.971 377.182C146.32 376.943 146.531 376.676 146.522 376.428C146.522 376.153 146.265 375.84 145.659 375.519ZM0.578121 375.087H0.00917653L0 373.866H0.614827C29.0896 373.609 64.7312 373.361 93.6098 373.361C112.091 373.361 127.82 373.471 137.171 373.756C136.62 369.191 140.493 357.673 144.907 344.556C151.257 325.681 158.736 303.435 155.753 294.912C152.872 286.663 151.66 274.833 152.523 264.371C153.294 255.003 155.753 246.7 160.176 242.952C160.562 242.631 160.975 242.364 161.406 242.171C165.581 240.279 171.849 244.376 178.961 251.816C185.916 259.09 193.762 269.607 201.26 280.803C216.034 302.866 229.468 327.629 232.038 335.509C235.194 345.218 239.305 353.631 242.416 359.996L242.471 360.107C242.37 354.623 241.994 347.661 240.361 339.679C238.672 331.449 238.617 321.475 239.315 312.179C240.388 297.933 243.242 285.203 244.674 282.824C246.069 280.5 252.327 281.318 258.016 282.071C261.476 282.53 264.715 282.953 266.294 282.631C266.734 282.539 266.973 282.42 266.936 282.227C266.606 280.565 264.724 278.02 262.366 275.495C259.576 272.509 256.126 269.607 253.694 268.183C252.18 267.292 249.886 267.311 247.298 267.687C247.482 269.515 247.546 271.26 247.518 272.849C247.436 276.863 246.72 279.968 245.757 281.015C245.546 281.244 245.316 281.391 245.068 281.474C243.6 281.933 239.929 280.647 236.855 278.682C235.525 277.828 234.286 276.854 233.377 275.825C232.414 274.741 231.79 273.593 231.772 272.473C231.753 271.609 232.074 270.773 232.836 270.039C234.157 268.753 236.185 268.468 238.388 268.156C239.287 268.027 240.223 267.899 241.122 267.687L241.361 267.632C242.893 267.283 244.454 266.925 245.958 266.659C245.674 264.417 245.197 262.084 244.481 259.797C243.169 255.572 241.058 251.522 237.865 248.555C231.092 242.263 220.273 254.231 212.694 262.617C208.748 266.98 205.637 270.424 203.948 270.103C203.242 269.974 202.636 269.616 202.113 269.093C201.645 268.624 201.241 268.009 200.911 267.311C200.681 267.421 200.434 267.504 200.158 267.54C198.543 267.752 195.414 264.068 190.624 258.401C187.275 254.443 183.09 249.501 178.126 244.266C174.96 240.922 171.317 237.57 167.545 234.107C160.736 227.843 153.523 221.202 147.834 213.45C140.639 203.64 136.96 191.36 135.464 178.841C135.033 184.664 135.317 189.248 136.721 191.562C138.199 193.987 138.795 196.596 139.346 199.02C139.713 200.609 140.052 202.125 140.621 203.411C141.456 205.321 142.466 206.965 143.301 208.316C144.558 210.364 145.448 211.806 144.907 212.936C144.796 213.174 144.659 213.376 144.503 213.533C145.329 214.92 146.21 216.729 147.173 218.961C148.504 222.084 149.412 227.255 149.082 231.287C148.944 232.931 148.614 234.401 148.017 235.503C147.375 236.706 146.43 237.478 145.127 237.606C144.255 237.689 143.246 237.459 142.071 236.844C137.712 234.557 132.748 228.256 129.802 221.331C127.288 215.425 126.232 209.023 128.242 204.182C128.49 203.576 128.765 203.108 129.04 202.759C128.875 199.847 129.04 195.695 129.215 191.14C129.618 180.641 130.105 167.902 127.361 164.375C124.002 160.048 121.112 154.023 119.157 147.346C117.294 140.98 116.276 134.018 116.514 127.341C116.771 119.873 123.222 103.689 128.866 93.641C130.398 90.9223 131.867 88.6352 133.151 87.0829C134.574 85.3653 135.849 84.4836 136.859 84.7867C137.162 84.8785 137.428 85.0622 137.648 85.347C139.566 87.8269 143.246 94.7524 144.439 103.35C145.2 108.833 144.952 114.996 142.612 121.15C139.465 129.444 135.62 147.189 135.877 166.175C138.171 152.379 142.181 136.48 144.815 126.009C145.375 123.795 145.87 121.811 146.255 120.277C149.008 109.072 144.383 97.4436 141.337 89.7649C140.015 86.44 138.979 83.8406 138.923 82.2057C138.868 80.7545 139.364 79.8635 140.153 79.4135C140.575 79.1747 141.071 79.0644 141.603 79.0828C140.841 75.0047 141.199 69.1814 144.429 61.5762C146.714 56.1938 150.137 53.4751 153.569 52.1892C154.514 51.831 155.46 51.5922 156.386 51.4268C157.561 50.5267 158.763 49.9021 159.974 49.5072C163.617 48.3315 167.362 49.2408 171.234 50.9033C177.098 53.4108 179.787 52.7219 180.631 50.738C181.218 49.3602 181.025 47.3762 180.42 45.3739C180.025 46.2741 179.64 46.9537 179.135 47.3395C177.648 48.4509 176.382 48.8091 175.336 47.9916C174.418 47.2752 173.813 45.576 173.537 42.5358C173.271 39.569 173.629 37.879 174.345 37.135C172.308 38.0994 170.592 39.1189 169.087 40.0099C166.499 41.5438 164.517 42.7195 162.525 42.7195C161.865 42.7195 161.287 42.4072 160.809 41.8377C160.204 41.1121 159.745 39.9364 159.451 38.4576C159.167 37.034 159.02 35.3164 159.02 33.4243C159.02 26.1222 161.232 16.2943 166.113 12.1978C174.73 4.95998 201.709 12.6294 218.447 20.2897C222.714 22.2461 226.33 24.2025 228.808 25.9017C231.487 27.7479 232.9 29.4196 232.524 30.6504C232.331 31.2933 231.726 31.7618 230.652 32.019C229.477 32.3037 228.055 31.9087 225.944 31.3393C221.613 30.1636 214.254 28.1521 200.856 29.7227C197.947 30.0626 195.488 30.6504 193.386 31.4127L194.139 31.2933C204.82 29.5666 213.666 28.1429 215.878 35.2245C217.502 40.414 215.245 44.2534 213.4 47.3946C212.281 49.3051 211.317 50.94 211.647 52.2902C211.767 52.777 211.758 53.3649 211.647 54.0354C211.244 56.5704 209.307 60.5291 206.912 63.9643C204.49 67.4454 201.553 70.4489 199.167 71.0276C198.709 71.1378 198.268 71.1654 197.846 71.1011C194.946 70.6418 193.386 68.8691 191.679 66.9311C190.413 65.4982 189.064 63.9643 186.999 62.8805C186.036 62.3753 185.091 61.815 184.182 61.2272C184.567 63.3214 186.963 65.8289 189.293 68.2813C192.056 71.1745 194.735 73.9851 194.35 76.4375C194.102 78.0449 192.955 79.2022 191.734 80.4422C189.67 82.5364 187.339 84.8969 189.771 90.1599C191.487 93.8798 193.184 96.6169 194.423 98.6285C196.011 101.2 196.956 102.725 196.323 103.781C197.846 104.663 199.406 106.004 200.296 107.758C201.315 109.788 201.241 111.717 200.737 113.067C200.535 113.618 200.25 114.087 199.938 114.436C199.589 114.831 199.177 115.079 198.773 115.161C198.341 115.244 197.929 115.143 197.571 114.831C197.451 114.721 197.314 114.574 197.185 114.399C196.882 114.812 196.488 115.116 196.001 115.226C194.965 115.474 193.854 114.509 192.982 113.205C192.285 114.151 191.367 114.748 190.468 114.518C189.385 114.234 188.266 113.306 187.431 112.213C186.669 111.212 186.128 110.055 186.045 109.109C185.687 108.897 185.375 108.585 185.127 108.144C184.687 107.345 184.769 105.637 184.88 103.304C185.1 98.6928 185.439 91.5009 182.292 85.3929C181.741 84.3183 181.035 82.27 180.135 79.6798C176.914 70.3846 171.216 53.9343 162.452 52.6392C160.975 52.4188 158.993 52.281 156.854 52.6209C154.762 54.3017 152.716 56.9929 150.706 61.0251C149.66 63.1285 149.458 65.6452 149.853 68.3731C149.981 67.6659 150.128 66.9678 150.312 66.2789C151.706 60.8965 154.716 56.2857 161.048 56.0836C169.481 55.8081 171.353 63.5143 173.234 71.2756C174.143 75.0322 175.061 78.8073 176.74 81.5719C179.163 85.5766 180.915 89.8935 181.86 93.4206C182.374 95.3311 182.65 97.0303 182.668 98.3437C182.686 99.6113 182.448 100.566 181.943 101.081C182.484 102.201 182.861 103.579 182.861 104.865C182.861 105.297 182.815 105.719 182.723 106.133C182.301 107.933 181.475 108.438 180.567 108.227C180.273 108.162 179.988 107.997 179.713 107.777C179.328 108.365 178.777 108.787 178.034 108.861C177.162 108.943 176.226 108.613 175.437 108.107C175.088 108.3 174.666 108.438 174.152 108.484C172.666 108.613 171.5 107.63 170.757 106.353C170.426 105.784 170.17 105.141 170.014 104.516C169.949 104.24 169.894 103.974 169.867 103.717C169.206 103.542 168.573 103.166 168.05 102.495C167.986 102.413 167.784 102.165 167.49 101.806C164.856 98.6193 154.762 86.3757 150.44 75.0139C150.376 77.2183 150.44 79.1838 150.504 80.5983C150.596 82.8487 152.431 85.8981 154.881 88.9934C158.937 94.1278 164.664 99.3265 167.114 101.421C169.812 103.726 168.582 112.13 167.407 120.14C166.692 125.054 165.994 129.811 166.233 132.751C166.361 134.312 166.572 136.783 166.838 139.786C167.068 139.318 167.306 138.877 167.563 138.473C168.197 137.481 168.922 136.691 169.683 136.177C170.509 135.616 171.381 135.378 172.207 135.58C172.785 135.717 173.326 136.066 173.803 136.654C174.932 138.05 175.446 141.825 176.052 146.271C177.015 153.307 178.217 162.088 182.145 164.806C187.22 168.324 192.845 180.981 195.625 191.268C196.543 194.667 197.158 197.817 197.35 200.297C197.552 202.924 197.249 204.88 196.304 205.725C195.956 206.038 195.533 206.212 195.038 206.212C192.753 206.24 185.687 200.674 179.566 194.556C174.226 189.229 169.536 183.433 169.252 180.522C168.967 177.647 168.096 167.957 167.206 157.908C167.013 155.713 166.811 153.509 166.627 151.359C166.6 152.526 166.572 153.784 166.536 155.107C166.334 162.556 166.077 172.237 167.206 179.53C168.435 187.502 181.044 197.56 188.449 203.475C190.817 205.367 192.67 206.846 193.496 207.737C194.763 209.105 195.818 210.355 196.625 211.677C198.296 210.272 203.104 210.143 208.922 211.126C214.244 212.026 220.484 213.845 225.935 216.444C230.661 218.695 234.524 221.321 237.259 223.177C238.773 224.206 239.939 225.005 240.673 225.335C244.132 226.897 248.794 223.535 252.767 218.006C254.612 215.434 256.3 212.403 257.64 209.151C258.989 205.909 259.989 202.465 260.467 199.094C261.678 190.607 259.567 182.497 251.226 179.052C248.289 177.84 245.876 175.323 244.022 172.163C241.902 168.572 240.489 164.136 239.829 159.874C239.636 158.616 239.498 157.376 239.416 156.182C238.755 158.597 238.094 161.27 237.424 163.989C235.929 170.06 234.378 176.352 232.579 180.641C230.569 185.427 229.67 188.862 229.918 191.112C230.056 192.297 230.551 193.133 231.414 193.647C231.551 192.756 231.671 191.884 231.781 191.057C232.359 186.676 232.818 183.25 236.075 183.011C237.81 182.882 238.893 183.764 239.425 185.142C239.728 185.932 239.838 186.878 239.773 187.87C239.709 188.834 239.489 189.863 239.131 190.837C238.168 193.427 236.195 195.64 233.653 195.493C233.194 195.466 232.772 195.411 232.377 195.328C231.781 198.423 230.762 201.647 228.514 204.329C226.165 207.131 221.98 209.014 217.575 209.785C214.529 210.318 211.363 210.327 208.61 209.748C205.793 209.151 203.398 207.93 201.975 206.019C201.058 204.789 200.553 203.273 200.59 201.473C200.709 196.329 198.461 192.848 196.616 190.001C194.597 186.887 193.028 184.453 195.038 181.358C196.552 179.025 198.791 176.995 200.865 175.112C203.691 172.549 206.197 170.262 205.866 168.168C205.802 167.727 205.692 167.093 205.582 166.441C204.875 162.29 204.04 157.44 206.738 156.87C207.509 156.705 210.427 155.86 214.199 154.492C216.575 153.628 219.282 152.554 221.989 151.314C224.302 150.248 226.651 149.017 228.817 147.878C232.625 145.876 235.883 144.158 237.718 144.076C239.718 143.984 240.15 146.124 240.333 149.412C240.985 147.805 241.664 146.565 242.38 145.858C243.105 145.141 243.738 144.664 244.279 144.388C244.444 143.754 244.637 143.093 244.83 142.441C245.133 141.394 245.435 140.374 245.61 139.548C245.94 137.959 244.582 137.04 242.857 135.864C241.774 135.13 240.572 134.303 239.48 133.164C237.663 131.263 239.691 128.204 241.866 124.925C243.811 121.995 245.876 118.881 245.068 116.833C243.27 112.305 243.949 106.693 245.702 103.414C246.335 102.229 247.124 101.32 248.005 100.842C248.968 100.319 250.014 100.291 251.07 100.925C252.795 101.953 254.539 104.893 255.906 110.615C256.291 112.222 256.667 114.087 257.08 116.098C257.778 119.506 258.558 123.354 259.576 127.019C259.989 125.017 260.044 123.005 259.613 121.04C258.806 117.366 257.998 114.427 257.337 112.011C255.695 106.059 254.896 103.147 257.181 100.456C257.649 99.9052 257.934 99.4092 258.044 98.9683C258.172 98.4815 258.09 98.0682 257.842 97.71C257.567 97.3058 257.08 96.9568 256.438 96.6812C255.337 96.2036 253.823 95.9464 252.125 95.9464C250.923 95.9464 250.051 95.5147 249.519 94.7983C249.078 94.2197 248.877 93.4665 248.904 92.6307C248.932 91.8499 249.152 90.9774 249.565 90.1048C250.657 87.7994 253.098 85.3837 256.704 84.3274C267.808 81.0668 275.883 81.5628 281.674 84.3274C286.684 86.7155 289.969 90.7661 292.034 95.5515C294.071 100.282 294.897 105.738 294.989 110.982C295.163 121.187 292.493 130.675 290.556 132.53C284.573 138.252 279.682 142.165 276.067 143.13C274.709 143.488 273.525 143.479 272.534 143.029C271.313 143.295 270.084 143.295 268.909 142.964C264.477 141.734 261.604 136.93 259.586 131.162C257.356 136.709 253.116 142.073 249.418 146.749C247.032 149.761 244.876 152.489 243.683 154.749C243.618 154.868 243.554 154.997 243.49 155.144C241.902 158.643 243.545 162.767 246.417 166.478C249.363 170.281 253.593 173.615 257.016 175.442C257.392 175.645 257.778 175.837 258.154 176.003C270.194 181.477 266.752 225.124 265.697 238.451C265.651 239.058 265.605 239.618 265.578 239.967C265.504 240.95 265.927 241.675 266.532 242.153C266.624 242.227 266.725 242.291 266.826 242.355C267.147 241.969 267.542 241.712 267.955 241.556C268.487 241.354 269.047 241.317 269.505 241.4C270.047 241.492 270.496 241.758 270.717 242.125C270.946 242.511 270.937 242.952 270.588 243.393C270.148 243.944 269.304 244.192 268.368 244.119C268.056 244.091 267.725 244.036 267.404 243.944C267.358 244.146 267.321 244.376 267.321 244.624C267.312 245.34 268.514 246.231 270.304 247.085C272.029 247.912 274.259 248.665 276.516 249.216C278.774 249.767 281.04 250.116 282.839 250.153C284.518 250.181 285.73 249.969 285.986 249.428C286.243 248.886 286.317 248.353 286.243 247.848C286.161 247.26 285.867 246.7 285.454 246.213C285.408 246.158 285.353 246.103 285.307 246.047C282.894 246.938 281.123 246.828 280.141 246.369C279.691 246.158 279.37 245.873 279.196 245.551C278.976 245.157 278.966 244.734 279.168 244.339C279.416 243.852 280.031 243.439 281.004 243.301C282.105 243.136 283.298 243.375 284.353 243.88C284.784 244.082 285.188 244.339 285.555 244.624C288.253 243.209 288.363 235.127 288.482 225.427C288.482 224.849 288.501 224.261 288.501 223.664C288.528 221.386 288.666 219.117 288.804 216.821C289.107 211.778 289.409 206.616 288.629 201.464C288.629 201.418 288.611 201.317 288.583 201.142C287.244 191.626 291.144 184.627 297.448 179.686C303.679 174.809 312.268 171.971 320.435 170.721C320.619 170.694 320.876 170.657 321.188 170.611C330.006 169.371 333.548 167.176 336.531 165.229C336.21 164.724 335.879 164.191 335.567 163.612C332.062 157.275 330.071 147.548 328.979 137.38C327.125 120.029 327.896 101.338 328.299 96.0475L328.345 95.4321C328.51 93.2277 328.685 90.9957 328.887 88.9291C328.85 88.9383 328.813 88.9475 328.786 88.9567C328.198 89.0761 327.685 88.874 327.235 88.4331C326.391 92.5021 325.803 98.2243 325.152 104.47C323.913 116.411 322.482 130.234 318.682 138.381C316.333 143.414 312.332 148.843 308.029 153.839C300.458 162.639 291.942 170.152 289.887 171.879C288.749 172.834 287.904 174.57 287.134 176.159C286.996 176.434 286.867 176.701 286.739 176.967C287.17 177.362 287.546 177.858 287.858 178.455C288.446 179.603 288.226 181.045 287.501 182.588C286.629 184.425 285.023 186.437 283.243 188.182C281.472 189.918 279.517 191.415 277.966 192.214C276.792 192.82 275.773 193.05 275.103 192.729C274.323 192.361 273.837 191.663 273.598 190.846C272.8 191.186 271.891 191.406 270.891 191.434C270.065 191.461 269.45 191.222 269.01 190.8C268.487 190.295 268.248 189.56 268.221 188.715C268.202 188.099 268.294 187.411 268.459 186.712C268.395 186.749 268.322 186.777 268.257 186.814C266.798 187.521 265.908 187.181 265.431 186.198C264.899 185.105 265.119 183.029 265.688 180.926C265.055 181.055 264.559 180.834 264.192 180.347C263.843 179.879 263.669 179.144 263.66 178.235C263.642 177.408 263.752 176.407 263.981 175.351C264.871 171.263 267.551 166 271.598 164.834C272.561 162.712 274.094 160.104 275.911 157.284C281.765 148.237 290.703 137.022 293.787 133.605C296.393 130.721 297.42 125.798 297.42 120.039C297.42 112.884 295.824 104.488 293.649 97.0486C291.593 90.0038 289.29 83.5926 286.794 78.2286C284.491 73.2871 282.022 69.2549 279.407 66.4535C278.508 65.489 277.59 64.5981 276.672 63.7623C273.479 66.5912 269.386 69.1538 265.615 70.9541C261.329 73.0024 258.732 73.9208 256.557 73.5718C254.327 73.2136 252.703 71.6062 250.354 68.5844C248.464 66.1504 246.803 64.9287 245.435 63.9276C243.49 62.4947 242.086 61.466 241.379 58.3156C241.104 57.1031 240.397 54.8345 239.526 52.0698C236.736 43.1879 232.396 29.3186 235.607 27.206C235.956 26.9764 236.378 26.7927 236.846 26.6641C237.479 26.4896 238.213 26.4161 239.021 26.4345C238.223 24.8087 237.892 23.1738 238.296 21.4838C239.168 17.8833 241.857 14.5675 245.445 11.6283C249.895 8.00021 255.75 4.92324 261.256 2.59944C265.468 0.817556 269.395 0.00927734 273.011 0.00927734C278.636 0.00927734 283.518 1.96568 287.556 5.26309C291.566 8.54213 294.741 13.153 296.998 18.4987C299.632 24.7444 301.018 31.9822 301.018 39.2751C301.018 42.15 299.503 44.8779 297.283 46.9262C294.961 49.0663 291.841 50.49 288.859 50.5543C286.445 50.6094 284.454 49.6541 282.463 48.6989C279.811 47.4222 277.149 46.1455 273.534 47.5599C272.846 47.8263 272.121 48.0743 271.359 48.2764C268.322 49.103 264.954 49.2959 261.971 48.3131C258.943 47.3211 256.31 45.1535 254.795 41.2866C254.584 40.7539 254.401 40.1844 254.227 39.569C253.823 38.0902 253.19 36.7309 252.391 35.5092C250.437 32.5241 247.518 30.3565 244.628 29.0614C243.527 28.5654 242.435 28.198 241.407 27.9592C242.563 29.5757 244.105 31.2382 245.692 32.9558C246.417 33.7365 247.142 34.5265 247.739 35.197C249.436 37.0982 250.85 39.2935 252.208 41.4152C253.786 43.8584 255.291 46.2006 257.053 47.7896C260.329 50.738 263.733 52.9607 267.138 55.1927C270.331 57.2868 273.534 59.381 276.663 62.0722C277.113 61.6497 277.535 61.218 277.929 60.7771C278.049 60.6485 278.168 60.5108 278.278 60.3822C277.939 60.2444 277.599 60.0974 277.278 59.9321C275.021 58.8391 273.075 57.296 271.891 55.7162C271.166 54.7426 270.726 53.7506 270.643 52.8046C270.515 51.2431 271.249 49.9848 272.414 49.1489C273.112 48.653 273.956 48.3131 274.874 48.1478C275.773 47.9916 276.737 48.0192 277.663 48.2488C279.554 48.7173 281.306 50.0399 282.114 52.428C282.912 54.7793 282.105 57.3144 280.325 59.7852C281.701 60.1709 283.133 60.3546 284.509 60.2352C286.014 60.1066 287.464 59.629 288.739 58.683C290.639 57.2685 292.052 55.7805 293.401 54.3568C296.741 50.8482 299.705 47.7161 308.423 46.7425C309.139 46.6598 309.901 46.6506 310.69 46.6966C316.957 47.0731 325.234 51.3533 331.998 56.0928C338.816 60.869 344.147 66.1871 344.404 68.5293C344.413 68.6395 344.423 68.7497 344.413 68.8599C344.386 69.3651 344.101 69.5855 343.597 69.5488C342.973 69.5121 341.486 68.6119 339.348 67.326C334.411 64.3501 325.877 59.1973 318.6 58.3431C314.204 57.8288 309.589 57.939 305.477 58.5727C301.394 59.2065 297.824 60.3454 295.466 61.8885C290.51 65.1216 288.629 70.752 288.446 74.3985C288.4 75.3078 288.464 76.0793 288.611 76.6488C288.721 77.0805 288.859 77.356 288.987 77.4111C289.024 77.4295 289.106 77.3744 289.253 77.2366C289.822 76.7131 290.18 75.4364 290.621 73.8474C292.061 68.6119 294.355 60.2903 309.35 59.6015C330.979 58.6003 343.294 67.969 350.47 81.4801C357.591 94.8902 359.601 112.369 360.647 127.772C360.702 128.608 360.573 129.315 360.316 129.922C361.564 132.319 362.51 136.379 362.702 142.964C363.152 158.79 355.728 163.429 350.635 166.616L350.25 166.864C350.158 167.066 350.066 167.259 349.956 167.452C349.36 168.508 348.433 169.481 347.295 170.115C347.029 170.262 346.763 170.391 346.478 170.492C346.478 170.529 346.46 170.556 346.46 170.593C346.12 172.457 346.028 176.829 346.129 182.882C357.205 193.959 363.858 211.65 367.098 230.653C371.264 255.012 369.842 281.557 364.996 299.045C363.4 304.813 365.997 318.407 368.584 331.945C371.732 348.414 374.87 364.809 370.337 367.831C366.153 370.623 359.252 368.153 350.562 365.039C342.404 362.118 332.622 358.609 322.215 358.426C308.524 358.178 295.2 364.148 285.886 368.318C280.655 370.66 276.663 372.451 274.415 372.304C272.855 372.203 271.735 367.556 271.001 360.52C270.414 368.538 270.515 374.04 272.011 374.371C274.011 374.812 300.017 374.995 335.439 375.023C370.888 375.06 415.743 374.94 455.385 374.793H456V376.024H455.385C415.743 376.171 370.897 376.291 335.439 376.254C299.944 376.226 273.846 376.033 271.754 375.574C269.111 374.986 269.285 365.627 270.441 353.301C270.084 347.147 269.937 340.056 269.992 332.901C270.065 323.128 270.46 313.236 271.148 305.493C271.845 297.621 272.892 291.899 274.241 290.641C274.727 290.181 275.259 290.108 275.819 290.466C278.875 292.413 276.516 311.858 274.121 331.688C273.185 339.394 272.249 347.156 271.589 353.907C272.066 363.863 273.02 370.991 274.497 371.083C276.443 371.211 280.315 369.475 285.39 367.207C294.796 362.991 308.276 356.956 322.234 357.204C332.851 357.397 342.734 360.933 350.975 363.891C359.344 366.885 365.978 369.264 369.649 366.821C373.503 364.249 370.447 348.258 367.373 332.193C364.758 318.517 362.133 304.785 363.803 298.733C368.603 281.4 370.007 255.058 365.877 230.874C362.757 212.623 356.49 195.613 346.157 184.692C346.203 186.97 346.285 189.459 346.386 192.113C346.809 203.42 347.653 217.785 348.772 232.27C349.864 246.406 350.626 258.273 350.617 268.101C350.617 277.956 349.818 285.727 347.809 291.642C342.67 306.733 329.052 306.126 315.792 301.598C308.386 299.072 301.119 295.334 295.548 292.459C293.263 291.284 291.263 290.255 289.694 289.529C276.122 283.302 272.497 280.124 269.157 277.203C268.294 276.45 267.459 275.715 266.468 274.943C263.834 272.904 262.192 270.792 261.256 268.909C259.879 268.808 257.971 268.156 255.392 266.631C246.39 261.313 242.095 246.644 240.067 239.701C239.645 238.268 239.333 237.175 239.085 236.587C238.599 235.393 238.984 234.695 239.847 234.346C240.416 234.116 241.242 234.107 242.113 234.226C242.031 233.997 241.957 233.767 241.902 233.528C241.581 232.206 241.701 230.718 242.618 229.413C243.169 228.624 243.866 228.238 244.619 228.137C245.353 228.036 246.124 228.238 246.839 228.605C247.124 228.752 247.399 228.927 247.665 229.12C247.72 227.88 248.032 226.548 248.776 225.418C249.647 224.095 250.822 223.811 251.932 224.095C252.41 224.215 252.878 224.454 253.29 224.766C253.483 224.105 253.694 223.406 253.915 222.718C254.061 222.231 254.199 221.707 254.327 221.202C254.851 219.145 255.309 217.308 257.172 216.968C257.337 216.94 257.503 216.922 257.659 216.931C258.952 216.959 259.962 218.033 260.751 219.751C261.458 221.303 262.008 223.406 262.43 225.712C263.596 232.059 263.807 239.985 263.77 241.648C263.715 244.192 264.89 246.672 265.927 248.858C266.193 249.409 266.44 249.951 266.67 250.475C268.478 250.015 271.873 250.998 276.342 252.293C279.948 253.34 284.298 254.599 289.015 255.49C294.879 256.601 299.311 258.401 302.743 260.734C304.688 262.057 306.312 263.563 307.68 265.198C307.781 264.932 307.891 264.665 308.019 264.417C306.166 263.435 304.119 261.818 302.045 259.311C289.556 244.229 289.813 220.743 296.989 202.253C299.504 195.787 302.862 189.918 306.817 185.234C310.8 180.513 315.388 176.986 320.343 175.204C328.006 172.457 336.494 173.909 344.872 181.679H344.881C344.817 176.6 344.909 172.806 345.175 170.832C342.826 171.144 340 170.042 337.219 166.23C334.117 168.251 330.465 170.529 321.344 171.814C321.16 171.842 320.912 171.879 320.61 171.925C312.626 173.137 304.239 175.902 298.191 180.632C292.217 185.307 288.519 191.939 289.786 200.949C289.786 200.986 289.804 201.087 289.831 201.252C290.63 206.524 290.318 211.751 290.015 216.858C289.877 219.163 289.74 221.441 289.712 223.645C289.712 224.242 289.694 224.83 289.694 225.409C289.565 235.136 289.464 243.31 286.445 245.478C286.968 246.112 287.335 246.856 287.455 247.655C287.565 248.38 287.455 249.152 287.088 249.933C286.583 250.98 284.959 251.402 282.811 251.356C280.912 251.32 278.553 250.961 276.223 250.392C273.892 249.822 271.579 249.042 269.772 248.178C267.56 247.113 266.064 245.864 266.092 244.587C266.092 244.155 266.156 243.77 266.257 243.43C266.092 243.329 265.927 243.218 265.78 243.099C264.88 242.383 264.247 241.308 264.357 239.857C264.403 239.315 264.431 238.846 264.477 238.332C265.514 225.207 268.909 182.221 257.659 177.105C257.282 176.93 256.879 176.728 256.447 176.508C252.887 174.616 248.51 171.153 245.454 167.213C242.325 163.181 240.563 158.616 242.37 154.62C242.435 154.473 242.508 154.317 242.6 154.152C243.848 151.8 246.041 149.036 248.464 145.968C252.428 140.953 257.025 135.139 258.971 129.26C257.64 124.989 256.704 120.36 255.878 116.319C255.475 114.316 255.098 112.461 254.713 110.881C253.437 105.526 251.905 102.835 250.446 101.963C249.803 101.577 249.17 101.595 248.592 101.907C247.931 102.266 247.317 103.001 246.784 103.974C245.169 106.996 244.545 112.176 246.206 116.365C247.252 119.01 245.004 122.399 242.894 125.586C241.003 128.443 239.232 131.107 240.37 132.291C241.379 133.339 242.526 134.128 243.554 134.826C245.656 136.259 247.317 137.389 246.812 139.777C246.628 140.65 246.326 141.697 246.014 142.762C245.885 143.185 245.766 143.617 245.646 144.039C246.371 144.131 246.775 144.636 246.94 145.325C247.078 145.885 247.032 146.574 246.849 147.189C246.555 148.163 245.903 148.971 245.041 148.935C244.077 148.898 243.738 148.181 243.784 147.07C243.793 146.776 243.83 146.455 243.894 146.106C243.701 146.271 243.481 146.473 243.251 146.703C242.288 147.658 241.37 149.807 240.471 152.627C240.553 154.776 240.682 157.201 241.067 159.663C241.701 163.778 243.068 168.049 245.105 171.511C246.839 174.451 249.051 176.784 251.721 177.886C260.714 181.606 262.999 190.23 261.715 199.241C261.219 202.731 260.182 206.267 258.806 209.601C257.429 212.926 255.695 216.049 253.786 218.704C249.473 224.711 244.261 228.284 240.186 226.438C239.37 226.07 238.158 225.243 236.589 224.178C233.891 222.341 230.083 219.751 225.431 217.537C220.081 214.993 213.969 213.211 208.738 212.32C203.251 211.393 198.828 211.429 197.433 212.596C197.369 212.651 197.305 212.706 197.24 212.761C197.286 212.862 197.341 212.972 197.387 213.073C198.25 214.984 198.617 217.133 198.415 219.999C198.323 221.266 197.883 222.01 197.277 222.332C196.57 222.708 195.726 222.497 194.992 221.845C194.377 221.294 193.817 220.412 193.542 219.328C193.056 217.427 193.395 214.901 195.708 212.504C194.937 211.181 193.891 209.932 192.597 208.545C191.835 207.719 190.009 206.267 187.678 204.412C180.126 198.387 167.297 188.145 165.985 179.686C164.838 172.283 165.104 162.547 165.306 155.043C165.398 151.552 165.48 148.549 165.398 146.519C165.343 145.141 165.517 143.754 165.847 142.468C165.471 138.124 165.168 134.615 165.012 132.797C164.755 129.72 165.462 124.888 166.196 119.91C167.325 112.231 168.499 104.176 166.315 102.302C163.838 100.181 158.047 94.9177 153.918 89.7007C151.321 86.4216 149.376 83.1334 149.275 80.5891C149.192 78.5133 149.082 75.2619 149.385 71.7991C148.192 67.574 148.017 63.5969 149.596 60.4373C151.156 57.296 152.762 54.9171 154.413 53.1628C154.257 53.2179 154.101 53.273 153.955 53.3281C150.798 54.513 147.641 57.0297 145.512 62.0447C142.264 69.7141 142.007 75.4364 142.86 79.3032C143.126 79.3859 143.402 79.4961 143.677 79.6247C145.677 80.5616 147.669 82.619 147.88 84.7499C147.953 85.4664 147.733 85.9624 147.329 86.2471C146.806 86.6145 146.017 86.5226 145.2 85.944C144.53 85.4756 143.796 84.6765 143.145 83.5375C142.649 82.6741 142.199 81.6087 141.86 80.3228C141.814 80.3228 141.777 80.3136 141.731 80.3044C141.337 80.2677 140.997 80.3044 140.731 80.4606C140.327 80.6902 140.08 81.2229 140.116 82.1414C140.171 83.5651 141.172 86.0726 142.447 89.2873C145.558 97.1129 150.266 108.962 147.421 120.544C146.999 122.271 146.522 124.163 145.98 126.284C142.934 138.372 138.043 157.752 136.097 172.549C136.097 172.696 136.115 172.834 136.125 172.981C137.097 187.227 140.658 201.601 148.797 212.697C154.413 220.348 161.58 226.952 168.343 233.17C172.124 236.651 175.776 240.013 178.979 243.393C183.971 248.665 188.174 253.625 191.523 257.584C196.057 262.939 199.011 266.429 199.966 266.3C200.122 266.282 200.278 266.227 200.415 266.153C200.177 265.437 199.984 264.675 199.846 263.885C199.498 261.855 199.489 259.687 199.782 258.098C199.975 257.079 200.305 256.261 200.755 255.802C201.14 255.416 201.544 255.333 201.948 255.499C202.517 255.728 202.93 256.592 203.15 257.768C203.343 258.787 203.425 260.082 203.352 261.386C203.242 263.334 202.792 265.308 201.847 266.475C202.15 267.164 202.508 267.761 202.939 268.192C203.297 268.541 203.691 268.78 204.132 268.872C205.15 269.065 208.059 265.841 211.739 261.763C219.659 253 230.973 240.481 238.654 247.627C242.022 250.759 244.242 254.994 245.61 259.402C246.335 261.745 246.83 264.133 247.124 266.429C249.932 266.025 252.474 266.025 254.272 267.072C256.805 268.551 260.366 271.545 263.229 274.604C265.734 277.276 267.734 280.041 268.12 281.942C268.331 282.989 267.707 283.559 266.514 283.798C264.752 284.156 261.403 283.715 257.833 283.247C252.52 282.549 246.674 281.786 245.702 283.412C244.334 285.69 241.572 298.154 240.517 312.234C239.829 321.438 239.874 331.303 241.535 339.394C243.472 348.8 243.664 356.809 243.71 362.66C245.307 365.967 246.482 368.584 246.885 370.385C247.298 372.231 246.959 373.351 245.564 373.664C244.059 374.003 243.279 373.204 242.884 371.432C242.526 369.834 242.517 367.335 242.49 364.056C242.49 363.698 242.49 363.321 242.49 362.945C242.113 362.164 241.719 361.356 241.297 360.502C238.168 354.09 234.029 345.631 230.854 335.858C228.312 328.051 214.942 303.435 200.232 281.456C192.771 270.314 184.962 259.852 178.061 252.633C171.317 245.57 165.517 241.629 161.911 243.255C161.58 243.402 161.259 243.604 160.965 243.852C156.818 247.361 154.496 255.361 153.744 264.427C152.89 274.732 154.083 286.37 156.909 294.462C160.029 303.389 152.477 325.837 146.072 344.905C141.548 358.343 137.611 370.072 138.382 373.746C142.97 373.902 145.778 374.114 146.283 374.38C147.338 374.94 147.788 375.648 147.797 376.364C147.797 377.053 147.393 377.687 146.705 378.155C146.109 378.559 145.274 378.853 144.328 378.927C142.19 379.101 139.447 378.183 137.574 375.041C137.547 374.995 137.519 374.95 137.501 374.894C128.37 374.628 112.44 374.527 93.6189 374.527C64.7496 374.527 29.1171 374.775 0.642357 375.023" fill="white"/>
</g>
<defs>
<clipPath id="clip0_60_966">
<rect width="456" height="379" fill="white"/>
</clipPath>
</defs>
</svg>
