<?xml version="1.0" encoding="UTF-8"?>
<svg id="Ebene_2" data-name="Ebene 2" xmlns="http://www.w3.org/2000/svg" viewBox="0 0 232.2 266.23">
  <defs>
    <style>
      .cls-1 {
        fill: #394454;
      }

      .cls-2 {
        fill: #e9e9e9;
      }

      .cls-3 {
        fill: #f04e5a;
      }
    </style>
  </defs>
  <g id="Ebene_1-2" data-name="Ebene 1">
    <g>
      <path class="cls-1" d="M4.99,209.42c.45-1.01,1.12-1.83,2-2.47s1.93-.96,3.16-.96c.32,0,.67.04,1.04.11l.44-2.92-1.25-.38.18-.73,3.15-.37.48.24-1.8,12.25c-.01.12-.02.19-.02.23,0,.29.09.44.27.44.09,0,.19-.03.31-.08.12-.06.28-.16.48-.31l.25.54c-.2.26-.49.52-.87.79s-.83.4-1.36.4c-.46,0-.79-.12-1.01-.35-.22-.23-.33-.6-.33-1.09-.31.41-.71.75-1.19,1.03-.48.27-1.03.41-1.64.41-.67,0-1.23-.16-1.68-.48-.45-.32-.77-.75-.98-1.31s-.31-1.18-.31-1.9c0-1.07.23-2.1.68-3.11ZM11,207.36c-.28-.14-.64-.22-1.09-.22-.71,0-1.31.27-1.78.82-.47.55-.81,1.23-1.03,2.04-.21.81-.32,1.63-.32,2.45,0,.77.12,1.36.35,1.79s.56.63.97.63c.38,0,.73-.11,1.07-.34s.63-.51.87-.85l.96-6.32Z"/>
      <path class="cls-1" d="M21.69,206.26c.41.19.71.45.9.78s.29.71.29,1.13c0,.83-.31,1.53-.94,2.1s-1.37,1-2.25,1.28-1.68.42-2.43.42c-.02.52.03,1,.15,1.43.12.43.31.77.58,1.02.27.25.6.38,1.01.38,1,0,1.93-.45,2.79-1.36l.49.81c-.19.29-.47.58-.83.88s-.81.56-1.34.77-1.11.32-1.73.32c-.84,0-1.53-.18-2.09-.54s-.96-.83-1.22-1.42c-.26-.58-.39-1.22-.39-1.91,0-1.15.24-2.22.72-3.19.48-.97,1.14-1.75,1.98-2.32s1.76-.86,2.78-.86c.61,0,1.12.09,1.53.28ZM20.28,207.43c-.16-.21-.37-.31-.66-.31-.48,0-.89.2-1.22.61-.33.41-.59.9-.77,1.48s-.29,1.16-.35,1.73c.43,0,.9-.11,1.41-.32.51-.21.94-.52,1.29-.91.35-.39.53-.84.53-1.34,0-.41-.08-.72-.23-.93Z"/>
      <path class="cls-1" d="M24.2,207.22l.15-.78,2.57-.46.45.26-.15,2.17c.13-.39.34-.77.63-1.14s.63-.68,1.05-.93.86-.36,1.34-.36c.12,0,.23.01.34.04s.19.06.24.11l-.51,2.57c-.08-.06-.21-.11-.37-.16s-.36-.07-.59-.07c-.43,0-.84.09-1.22.27s-.68.47-.91.87l-.87,6.59h-2.35l1.12-8.46-.91-.53Z"/>
      <path class="cls-1" d="M35.39,215.09l1.42-11.11-1.22-.22.11-.93h9.33l-.29,3.08h-1.56l-.26-1.97h-3.59l-.63,4.65h4.18l-.19,1.5h-4.13l-.68,4.98,2.41.26-.07.86h-6.18l.09-.86,1.26-.25Z"/>
      <path class="cls-1" d="M51.6,206.08c.35.07.67.15.97.24l1.2-.34-1.14,8.24s0,.1,0,.17c0,.16.03.28.09.36.06.08.13.12.23.12.19,0,.46-.13.8-.39l.26.55c-.08.13-.23.29-.44.47s-.47.35-.79.5-.66.22-1.02.22c-.42,0-.75-.1-.99-.3s-.35-.5-.33-.88l-.07-.11c-.35.38-.75.69-1.21.94s-.94.37-1.47.37c-1,0-1.73-.34-2.21-1.02-.48-.68-.72-1.57-.72-2.67s.23-2.09.7-3.1,1.14-1.84,2.04-2.48c.89-.65,1.94-.97,3.15-.97.3,0,.62.03.98.1ZM51.24,207.26c-.24-.08-.52-.12-.85-.12-.72,0-1.32.27-1.79.81-.47.54-.82,1.21-1.03,2.02-.22.81-.33,1.62-.33,2.44s.11,1.38.33,1.81.53.64.95.64c.32,0,.63-.1.95-.31s.62-.47.89-.79l.88-6.5Z"/>
      <path class="cls-1" d="M61.81,208.96c0-.4-.03-.71-.09-.91s-.15-.33-.28-.4-.29-.1-.51-.1c-.36,0-.77.19-1.24.58s-.88.86-1.24,1.43l-.91,6.64h-2.35l1.15-8.46-.91-.53.16-.78,2.77-.46.44.21-.15,1.85c.44-.62.95-1.11,1.53-1.49s1.19-.57,1.82-.57,1.14.17,1.52.5.6.88.67,1.64c.43-.66.94-1.18,1.55-1.56s1.25-.58,1.94-.58,1.2.21,1.59.64.58,1.1.58,2.02c0,.29-.04.69-.11,1.19s-.17,1.15-.31,1.94l-.08.47c-.1.57-.17,1.02-.22,1.37s-.07.66-.07.95c0,.33.09.49.26.49.1,0,.21-.03.34-.1s.3-.19.53-.38l.25.56c-.11.12-.26.26-.47.43s-.48.32-.82.46c-.34.14-.71.21-1.12.21-.54,0-.92-.11-1.13-.34-.22-.22-.33-.53-.33-.92,0-.28.03-.63.1-1.06.06-.42.16-.99.29-1.71l.04-.21c.12-.67.21-1.25.27-1.74s.1-.94.1-1.35c0-.36-.03-.63-.09-.82s-.15-.32-.26-.39c-.11-.07-.25-.1-.43-.1-.37,0-.78.18-1.22.53s-.84.81-1.19,1.37c-.05.69-.13,1.46-.25,2.29l-.54,4.44h-2.41l.5-3.89c.21-1.41.31-2.53.31-3.35Z"/>
      <path class="cls-1" d="M71.89,207.02l.14-.75,3.14-.46.47.21-1.17,8.17c-.01.12-.02.2-.02.25,0,.28.09.42.27.42.1,0,.21-.04.35-.11s.31-.2.52-.38l.25.57c-.1.14-.26.31-.47.5s-.49.37-.83.53-.7.24-1.1.24c-.47,0-.84-.09-1.09-.28s-.38-.45-.38-.8c0-.07,0-.13,0-.17.08-.67.25-1.88.5-3.62l.54-3.81-1.13-.51ZM73.57,202.22c.13-.24.32-.43.55-.57s.49-.21.77-.21c.26,0,.49.06.69.17s.35.26.46.44.16.38.16.59c0,.29-.06.56-.19.8s-.31.44-.55.58-.53.22-.86.22c-.22,0-.42-.06-.61-.18s-.34-.27-.46-.47-.17-.4-.17-.61c0-.28.07-.54.2-.78Z"/>
      <path class="cls-1" d="M78.82,203.01l-1.12-.38.18-.73,3.01-.37.44.24-1.69,12.43c-.01.06-.02.14-.02.25,0,.28.09.42.27.42.09,0,.21-.03.33-.1s.31-.19.54-.38l.25.56c-.09.13-.25.3-.45.49s-.47.37-.8.53-.68.24-1.06.24c-.45,0-.81-.1-1.09-.29s-.41-.49-.42-.9c0-.18.02-.4.06-.68l1.56-11.34Z"/>
      <path class="cls-1" d="M82.38,207.02l.14-.75,3.14-.46.47.21-1.17,8.17c-.01.12-.02.2-.02.25,0,.28.09.42.27.42.1,0,.21-.04.35-.11s.31-.2.52-.38l.25.57c-.1.14-.26.31-.47.5s-.49.37-.83.53-.7.24-1.1.24c-.47,0-.84-.09-1.09-.28s-.38-.45-.38-.8c0-.07,0-.13,0-.17.08-.67.25-1.88.5-3.62l.54-3.81-1.13-.51ZM84.06,202.22c.13-.24.32-.43.55-.57s.49-.21.77-.21c.26,0,.49.06.69.17s.35.26.46.44.16.38.16.59c0,.29-.06.56-.19.8s-.31.44-.55.58-.53.22-.86.22c-.22,0-.42-.06-.61-.18s-.34-.27-.46-.47-.17-.4-.17-.61c0-.28.07-.54.2-.78Z"/>
      <path class="cls-1" d="M94.35,206.26c.41.19.71.45.9.78s.29.71.29,1.13c0,.83-.31,1.53-.94,2.1s-1.37,1-2.25,1.28-1.68.42-2.43.42c-.02.52.03,1,.15,1.43.12.43.31.77.58,1.02.27.25.61.38,1.02.38,1,0,1.93-.45,2.79-1.36l.49.81c-.19.29-.47.58-.83.88s-.81.56-1.34.77-1.11.32-1.73.32c-.84,0-1.53-.18-2.09-.54s-.96-.83-1.22-1.42c-.26-.58-.39-1.22-.39-1.91,0-1.15.24-2.22.72-3.19.48-.97,1.14-1.75,1.98-2.32s1.76-.86,2.78-.86c.61,0,1.12.09,1.52.28ZM92.93,207.43c-.16-.21-.37-.31-.65-.31-.48,0-.89.2-1.22.61-.33.41-.59.9-.77,1.48s-.29,1.16-.35,1.73c.43,0,.9-.11,1.41-.32.51-.21.94-.52,1.29-.91.35-.39.53-.84.53-1.34,0-.41-.08-.72-.23-.93Z"/>
      <path class="cls-1" d="M96.88,207.22l.15-.78,2.78-.46.44.21-.15,1.82c.45-.62.97-1.11,1.56-1.48s1.21-.55,1.86-.55c.69,0,1.23.21,1.61.62s.57,1.09.57,2.04c0,.3-.04.71-.12,1.22s-.19,1.15-.32,1.91c-.05.28-.08.5-.11.64-.01.08-.04.28-.1.6s-.09.61-.12.86-.04.47-.04.65c0,.35.09.52.27.52.09,0,.19-.03.3-.09s.27-.16.48-.32l.25.56c-.09.11-.24.24-.45.4-.21.15-.48.3-.81.43s-.69.2-1.09.2c-.54,0-.92-.11-1.14-.33-.22-.22-.33-.52-.33-.91,0-.21.02-.48.07-.79.05-.32.1-.63.15-.94.06-.31.09-.52.11-.62l.08-.41c.13-.73.24-1.36.32-1.88s.12-1.01.12-1.46c0-.36-.03-.64-.09-.83s-.15-.32-.26-.39c-.11-.07-.27-.1-.47-.1-.38,0-.8.2-1.27.6s-.88.9-1.24,1.49l-.9,6.55h-2.35l1.14-8.46-.91-.52Z"/>
      <path class="cls-1" d="M119.15,216.2l-.45-3.21-.29-2.74-.1-1.28-.4,1.3-1.12,2.63-1.45,3.3h-1.97l-.64-3.24-.96-5.09c-.04-.17-.09-.29-.15-.37-.06-.07-.13-.11-.23-.11-.09,0-.17.02-.23.05-.07.03-.15.08-.25.15l-.25-.65c.07-.09.21-.22.41-.37.2-.16.45-.3.74-.42s.6-.18.91-.18c.47,0,.82.1,1.04.29s.36.5.41.9l.6,5.49.17,1.73,3.02-8.41h2.23l.69,6.83.13,1.53.66-1.03c.43-.67.81-1.41,1.14-2.22.33-.81.5-1.6.52-2.35,0-.14,0-.27-.03-.4s-.06-.3-.11-.52c-.09-.33-.13-.58-.13-.76,0-.34.1-.6.3-.8s.48-.29.85-.29c.47,0,.82.17,1.04.51.22.34.33.79.33,1.37,0,.53-.18,1.19-.53,1.97-.35.78-.77,1.56-1.27,2.33-.49.77-.97,1.46-1.42,2.07l-1.41,1.97h-1.81Z"/>
      <path class="cls-1" d="M127.4,207.7l-.99-.62.14-.81,2.93-.37.44.26-.61,4.76c-.04.35-.08.62-.11.81-.06.46-.11.82-.14,1.09-.03.27-.04.52-.04.74,0,.48.08.81.25,1.01s.42.29.77.29.7-.11,1.05-.32c.35-.21.65-.48.92-.8l1.05-7.77h2.36l-1.12,8.22c-.01.12-.02.19-.02.23,0,.29.1.44.3.44.1,0,.21-.03.33-.1s.3-.19.54-.39l.25.56c-.07.12-.22.29-.44.49s-.5.38-.83.54-.68.24-1.06.24c-.45,0-.78-.1-1.01-.29s-.34-.45-.34-.79c0-.06.01-.17.04-.32l-.04-.05c-.37.42-.79.77-1.27,1.04s-1.05.41-1.71.41-1.25-.18-1.72-.55-.7-.94-.71-1.74c0-.31.03-.67.08-1.09s.12-.93.21-1.52l.06-.45.46-3.16ZM128.65,202.22c.12-.24.29-.43.51-.57s.47-.21.74-.21c.23,0,.44.06.63.17s.33.26.43.44.15.38.15.58c0,.29-.06.56-.18.81s-.29.44-.51.59-.49.22-.8.22c-.21,0-.4-.06-.57-.18s-.32-.27-.42-.47-.16-.4-.16-.61c0-.28.06-.54.18-.78ZM132.5,202.22c.12-.24.29-.43.51-.57s.47-.21.74-.21c.24,0,.45.06.63.17s.32.26.42.44.15.38.15.59c0,.29-.06.56-.18.8s-.29.44-.51.58-.49.22-.8.22c-.21,0-.4-.06-.57-.18s-.32-.27-.42-.47-.16-.4-.16-.61c0-.28.06-.54.18-.78Z"/>
      <path class="cls-1" d="M137.15,207.22l.15-.78,2.78-.46.44.21-.15,1.82c.45-.62.97-1.11,1.56-1.48s1.21-.55,1.86-.55c.69,0,1.23.21,1.61.62s.57,1.09.57,2.04c0,.3-.04.71-.12,1.22s-.19,1.15-.32,1.91c-.05.28-.08.5-.11.64-.01.08-.04.28-.1.6s-.09.61-.12.86-.04.47-.04.65c0,.35.09.52.27.52.09,0,.19-.03.3-.09s.27-.16.48-.32l.25.56c-.09.11-.24.24-.45.4-.21.15-.48.3-.81.43s-.69.2-1.09.2c-.54,0-.92-.11-1.14-.33-.22-.22-.33-.52-.33-.91,0-.21.02-.48.07-.79.05-.32.1-.63.15-.94.06-.31.09-.52.11-.62l.08-.41c.13-.73.24-1.36.32-1.88s.12-1.01.12-1.46c0-.36-.03-.64-.09-.83s-.15-.32-.26-.39c-.11-.07-.27-.1-.47-.1-.38,0-.8.2-1.27.6s-.88.9-1.24,1.49l-.9,6.55h-2.35l1.14-8.46-.91-.52Z"/>
      <path class="cls-1" d="M148.44,214.66c.42.18.87.26,1.34.26.42,0,.79-.09,1.09-.26.3-.17.46-.48.46-.9,0-.26-.07-.5-.2-.72s-.31-.42-.52-.61c-.22-.19-.5-.41-.86-.66-1.17-.82-1.76-1.79-1.76-2.91,0-.56.16-1.07.49-1.5.33-.44.78-.78,1.35-1.02s1.22-.36,1.95-.36c.44,0,.88.04,1.34.11s.76.14.93.22l-.36,1.72c-.07-.1-.19-.21-.37-.34s-.4-.24-.66-.34-.55-.15-.85-.15c-.43,0-.79.09-1.07.28-.29.19-.43.49-.43.89,0,.34.12.66.37.95.24.29.62.62,1.13.99.4.29.73.57.98.82.25.25.47.55.63.9.17.35.25.75.25,1.2,0,.64-.18,1.18-.53,1.63-.35.45-.83.79-1.42,1.01-.59.23-1.24.34-1.94.34-.35,0-.72-.03-1.1-.09s-.72-.13-1.01-.22-.5-.18-.61-.26l.38-1.55c.25.21.58.39,1.01.57Z"/>
      <path class="cls-1" d="M155.4,209.26c.42-.95,1.04-1.74,1.87-2.35.83-.62,1.81-.92,2.96-.92.35,0,.72.03,1.12.1s.72.16.99.27l-.63,2.37s-.1-.02-.25-.04c-.12-.01-.18-.02-.18-.03-.33-.4-.63-.72-.88-.96s-.49-.36-.69-.36c-.43,0-.84.19-1.21.56-.37.38-.67.91-.89,1.6s-.33,1.5-.33,2.41c0,.99.14,1.71.41,2.17.28.45.69.68,1.24.68.47,0,.87-.08,1.2-.25.33-.17.69-.43,1.08-.78l.47.79c-.18.26-.44.51-.76.77-.33.26-.74.48-1.22.66s-1.02.27-1.61.27c-.69,0-1.27-.16-1.77-.47-.49-.31-.87-.77-1.13-1.38-.26-.61-.4-1.34-.4-2.21,0-.99.21-1.95.63-2.91Z"/>
      <path class="cls-1" d="M169.21,210.4c.08-.56.12-1.07.12-1.52,0-.36-.03-.64-.1-.83-.06-.19-.16-.32-.28-.39-.12-.07-.27-.1-.45-.1-.39,0-.82.21-1.3.62s-.9.93-1.26,1.56l-.82,6.46h-2.39l1.63-13.03-1.08-.38.15-.73,3.04-.37.47.24-.79,6.22c.45-.66.97-1.19,1.57-1.59s1.24-.59,1.91-.59,1.23.21,1.61.62.57,1.09.57,2.04c0,.52-.15,1.56-.44,3.13l-.08.48c-.1.6-.17,1.05-.22,1.35s-.07.59-.08.87c0,.2.01.34.06.43s.12.13.21.13c.1,0,.21-.03.33-.09s.3-.18.52-.35l.26.55c-.08.11-.23.25-.45.42-.22.17-.5.32-.84.45-.34.13-.72.2-1.13.2-.54,0-.93-.11-1.15-.32-.22-.21-.33-.53-.33-.94,0-.24.03-.54.08-.9.06-.36.14-.82.25-1.39l.08-.44c.13-.65.23-1.25.32-1.81Z"/>
      <path class="cls-1" d="M180.36,206.26c.41.19.71.45.9.78s.29.71.29,1.13c0,.83-.31,1.53-.94,2.1-.62.57-1.37,1-2.25,1.28s-1.68.42-2.43.42c-.02.52.03,1,.15,1.43.12.43.31.77.58,1.02.27.25.61.38,1.02.38,1,0,1.93-.45,2.79-1.36l.49.81c-.19.29-.47.58-.83.88s-.81.56-1.34.77c-.53.21-1.11.32-1.73.32-.84,0-1.53-.18-2.09-.54-.55-.36-.96-.83-1.22-1.42-.26-.58-.39-1.22-.39-1.91,0-1.15.24-2.22.72-3.19.48-.97,1.14-1.75,1.98-2.32s1.76-.86,2.78-.86c.61,0,1.12.09,1.52.28ZM178.94,207.43c-.16-.21-.37-.31-.66-.31-.48,0-.89.2-1.22.61-.33.41-.59.9-.77,1.48s-.29,1.16-.35,1.73c.43,0,.9-.11,1.41-.32.51-.21.94-.52,1.29-.91.35-.39.53-.84.53-1.34,0-.41-.08-.72-.23-.93Z"/>
      <path class="cls-1" d="M182.89,207.22l.15-.78,2.78-.46.44.21-.15,1.82c.45-.62.96-1.11,1.56-1.48s1.21-.55,1.86-.55c.69,0,1.23.21,1.61.62s.57,1.09.57,2.04c0,.3-.04.71-.12,1.22-.08.52-.19,1.15-.32,1.91-.05.28-.08.5-.11.64-.01.08-.04.28-.1.6s-.09.61-.12.86-.04.47-.04.65c0,.35.09.52.27.52.09,0,.19-.03.3-.09.12-.06.27-.16.48-.32l.25.56c-.09.11-.24.24-.45.4-.21.15-.48.3-.81.43s-.69.2-1.09.2c-.54,0-.92-.11-1.14-.33-.22-.22-.33-.52-.33-.91,0-.21.02-.48.07-.79.05-.32.1-.63.15-.94.06-.31.09-.52.11-.62l.08-.41c.13-.73.24-1.36.32-1.88.08-.52.12-1.01.12-1.46,0-.36-.03-.64-.09-.83-.06-.19-.15-.32-.26-.39-.12-.07-.27-.1-.47-.1-.38,0-.8.2-1.27.6-.47.4-.88.9-1.24,1.49l-.9,6.55h-2.35l1.14-8.46-.91-.52Z"/>
      <path class="cls-1" d="M198.07,214.66c.42.18.87.26,1.34.26.42,0,.79-.09,1.09-.26.3-.17.46-.48.46-.9,0-.26-.07-.5-.2-.72-.13-.22-.31-.42-.52-.61-.22-.19-.5-.41-.86-.66-1.17-.82-1.76-1.79-1.76-2.91,0-.56.16-1.07.49-1.5.33-.44.78-.78,1.35-1.02s1.22-.36,1.95-.36c.44,0,.88.04,1.34.11s.76.14.93.22l-.36,1.72c-.07-.1-.19-.21-.37-.34s-.4-.24-.66-.34-.55-.15-.85-.15c-.43,0-.79.09-1.07.28-.29.19-.43.49-.43.89,0,.34.12.66.36.95.24.29.62.62,1.13.99.4.29.73.57.98.82.26.25.47.55.63.9.17.35.25.75.25,1.2,0,.64-.18,1.18-.53,1.63-.35.45-.83.79-1.42,1.01-.59.23-1.24.34-1.94.34-.35,0-.72-.03-1.1-.09s-.72-.13-1.01-.22-.5-.18-.61-.26l.38-1.55c.25.21.58.39,1.01.57Z"/>
      <path class="cls-1" d="M204.88,207.02l.14-.75,3.14-.46.47.21-1.17,8.17c-.01.12-.02.2-.02.25,0,.28.09.42.27.42.1,0,.21-.04.35-.11.13-.07.31-.2.52-.38l.25.57c-.1.14-.26.31-.47.5s-.49.37-.83.53-.7.24-1.1.24c-.47,0-.84-.09-1.09-.28s-.38-.45-.38-.8c0-.07,0-.13,0-.17.08-.67.25-1.88.5-3.62l.54-3.81-1.13-.51ZM206.56,202.22c.13-.24.32-.43.55-.57s.49-.21.77-.21c.26,0,.49.06.69.17s.35.26.46.44.16.38.16.59c0,.29-.06.56-.19.8-.13.24-.31.44-.55.58s-.53.22-.86.22c-.22,0-.42-.06-.61-.18-.19-.12-.34-.27-.46-.47-.12-.19-.17-.4-.17-.61,0-.28.07-.54.2-.78Z"/>
      <path class="cls-1" d="M210.43,209.26c.42-.95,1.04-1.74,1.87-2.35.83-.62,1.81-.92,2.96-.92.35,0,.72.03,1.12.1s.72.16.99.27l-.63,2.37s-.1-.02-.25-.04c-.12-.01-.18-.02-.18-.03-.33-.4-.63-.72-.88-.96-.26-.24-.49-.36-.69-.36-.43,0-.84.19-1.21.56-.37.38-.67.91-.89,1.6s-.33,1.5-.33,2.41c0,.99.14,1.71.41,2.17.28.45.69.68,1.24.68.47,0,.87-.08,1.2-.25.33-.17.69-.43,1.08-.78l.47.79c-.18.26-.44.51-.76.77-.33.26-.74.48-1.22.66s-1.02.27-1.61.27c-.69,0-1.27-.16-1.77-.47-.49-.31-.87-.77-1.13-1.38-.26-.61-.4-1.34-.4-2.21,0-.99.21-1.95.63-2.91Z"/>
      <path class="cls-1" d="M224.25,210.4c.08-.56.12-1.07.12-1.52,0-.36-.03-.64-.1-.83-.06-.19-.16-.32-.28-.39-.12-.07-.27-.1-.45-.1-.39,0-.82.21-1.3.62s-.9.93-1.26,1.56l-.82,6.46h-2.39l1.63-13.03-1.08-.38.15-.73,3.04-.37.47.24-.79,6.22c.45-.66.97-1.19,1.57-1.59s1.24-.59,1.91-.59,1.23.21,1.61.62.57,1.09.57,2.04c0,.52-.15,1.56-.44,3.13l-.08.48c-.1.6-.17,1.05-.22,1.35s-.07.59-.08.87c0,.2.01.34.06.43s.12.13.21.13c.1,0,.21-.03.33-.09s.3-.18.52-.35l.26.55c-.08.11-.23.25-.45.42-.22.17-.5.32-.84.45-.34.13-.72.2-1.13.2-.54,0-.93-.11-1.15-.32-.22-.21-.33-.53-.33-.94,0-.24.03-.54.08-.9.06-.36.14-.82.25-1.39l.08-.44c.13-.65.23-1.25.32-1.81Z"/>
      <path class="cls-1" d="M6.61,233.96c0-.4-.03-.71-.09-.91s-.15-.33-.28-.4-.29-.1-.51-.1c-.36,0-.77.19-1.24.58s-.88.86-1.24,1.43l-.91,6.64H0l1.15-8.46-.91-.53.16-.78,2.77-.46.44.21-.15,1.85c.44-.62.95-1.11,1.53-1.49s1.19-.57,1.82-.57,1.14.17,1.52.5.6.88.67,1.64c.43-.66.94-1.18,1.55-1.56s1.25-.58,1.94-.58,1.2.21,1.59.64.58,1.1.58,2.02c0,.29-.04.69-.11,1.19s-.17,1.15-.31,1.94l-.08.47c-.1.57-.17,1.02-.22,1.37s-.07.66-.07.95c0,.33.09.49.26.49.1,0,.21-.03.34-.1s.3-.19.53-.38l.25.56c-.11.12-.26.26-.47.43s-.48.32-.82.46c-.34.14-.71.21-1.12.21-.54,0-.92-.11-1.13-.34-.22-.22-.33-.53-.33-.92,0-.28.03-.63.1-1.06.06-.42.16-.99.29-1.71l.04-.21c.12-.67.21-1.25.27-1.74s.1-.94.1-1.35c0-.36-.03-.63-.09-.82s-.15-.32-.26-.39c-.11-.07-.25-.1-.43-.1-.37,0-.78.18-1.22.53s-.84.81-1.19,1.37c-.05.69-.13,1.46-.25,2.29l-.54,4.44h-2.41l.5-3.89c.21-1.41.31-2.53.31-3.35Z"/>
      <path class="cls-1" d="M23.25,231.26c.41.19.71.45.9.78s.29.71.29,1.13c0,.83-.31,1.53-.94,2.1s-1.37,1-2.25,1.28-1.68.42-2.43.42c-.02.52.03,1,.15,1.43.12.43.31.77.58,1.02.27.25.61.38,1.02.38,1,0,1.93-.45,2.79-1.36l.49.81c-.19.29-.47.58-.83.88s-.81.56-1.34.77-1.11.32-1.73.32c-.84,0-1.53-.18-2.09-.54s-.96-.83-1.22-1.42c-.26-.58-.39-1.22-.39-1.91,0-1.15.24-2.22.72-3.19.48-.97,1.14-1.75,1.98-2.32s1.76-.86,2.78-.86c.61,0,1.12.09,1.52.28ZM21.84,232.43c-.16-.21-.37-.31-.65-.31-.48,0-.89.2-1.22.61-.33.41-.59.9-.77,1.48s-.29,1.16-.35,1.73c.43,0,.9-.11,1.41-.32.51-.21.94-.52,1.29-.91.35-.39.53-.84.53-1.34,0-.41-.08-.72-.23-.93Z"/>
      <path class="cls-1" d="M31.9,235.4c.08-.56.12-1.07.12-1.52,0-.36-.03-.64-.1-.83-.06-.19-.16-.32-.28-.39-.12-.07-.27-.1-.45-.1-.39,0-.82.21-1.3.62s-.9.93-1.26,1.56l-.82,6.46h-2.39l1.63-13.03-1.08-.38.15-.73,3.04-.37.47.24-.79,6.22c.45-.66.97-1.19,1.57-1.59s1.24-.59,1.91-.59,1.23.21,1.61.62.57,1.09.57,2.04c0,.52-.15,1.56-.44,3.13l-.08.48c-.1.6-.17,1.05-.22,1.35s-.07.59-.08.87c0,.2.01.34.06.43s.12.13.21.13c.1,0,.21-.03.33-.09s.3-.18.52-.35l.26.55c-.08.11-.23.25-.45.42-.22.17-.5.32-.84.45-.34.13-.72.2-1.13.2-.54,0-.93-.11-1.15-.32-.22-.21-.33-.53-.33-.94,0-.24.03-.54.08-.9.06-.36.14-.82.25-1.39l.08-.44c.13-.65.23-1.25.32-1.81Z"/>
      <path class="cls-1" d="M36.55,232.22l.15-.78,2.57-.46.45.26-.15,2.17c.13-.39.34-.77.63-1.14s.63-.68,1.05-.93.86-.36,1.34-.36c.12,0,.23.01.34.04s.19.06.24.11l-.51,2.57c-.08-.06-.21-.11-.37-.16s-.36-.07-.59-.07c-.43,0-.84.09-1.22.27s-.68.47-.91.87l-.87,6.59h-2.35l1.12-8.46-.91-.53Z"/>
      <path class="cls-1" d="M53.89,231.09c.37.08.7.17,1,.27l1.27-.39-1.56,10.92c-.13.93-.46,1.68-.99,2.25s-1.16.98-1.89,1.23-1.48.37-2.25.37c-.39,0-.8-.04-1.23-.11s-.75-.16-.94-.25l.45-1.82c.25.16.61.33,1.08.51s.91.27,1.34.27c.46,0,.82-.05,1.08-.16s.46-.29.6-.57c.14-.27.25-.68.32-1.21l.29-2.21c-.32.3-.69.55-1.11.73s-.87.28-1.37.28c-.67,0-1.24-.16-1.69-.48-.45-.32-.79-.76-1-1.31-.22-.55-.33-1.18-.33-1.89,0-1.05.23-2.09.7-3.1s1.14-1.84,2.03-2.48c.89-.65,1.94-.97,3.15-.97.33,0,.69.04,1.05.11ZM53.61,232.32c-.28-.12-.62-.18-1.01-.18-.72,0-1.32.27-1.79.81s-.82,1.22-1.03,2.03-.33,1.62-.33,2.43c0,.76.12,1.35.36,1.77.24.42.57.63.98.63.35,0,.68-.1,1-.29.32-.19.61-.44.86-.74l.96-6.45Z"/>
      <path class="cls-1" d="M58.43,232.7l-.99-.62.14-.81,2.93-.37.44.26-.61,4.76c-.04.35-.08.62-.11.81-.06.46-.11.82-.14,1.09-.03.27-.04.52-.04.74,0,.48.08.81.25,1.01s.42.29.77.29.7-.11,1.05-.32c.35-.21.65-.48.92-.8l1.05-7.77h2.36l-1.12,8.22c-.01.12-.02.19-.02.23,0,.29.1.44.3.44.1,0,.21-.03.33-.1s.3-.19.54-.39l.25.56c-.07.12-.22.29-.44.49s-.5.38-.83.54-.68.24-1.06.24c-.45,0-.78-.1-1.01-.29s-.34-.45-.34-.79c0-.06.01-.17.04-.32l-.04-.05c-.37.42-.79.77-1.27,1.04s-1.05.41-1.71.41-1.25-.18-1.72-.55-.7-.94-.71-1.74c0-.31.03-.67.08-1.09s.12-.93.21-1.52l.06-.45.46-3.16Z"/>
      <path class="cls-1" d="M69.02,232.31h-1.05l.2-.89,1.07-.42c.21-.21.43-.53.66-.97s.45-.92.65-1.43h1.29l-.29,2.39h2.04l-.19,1.33h-2.01l-.73,5.34c-.09.65-.14,1.1-.14,1.36,0,.28.05.47.15.58s.28.17.54.17c.23,0,.5-.06.8-.17s.56-.25.77-.42l.19.69c-.17.2-.42.41-.74.62-.32.21-.7.39-1.13.53-.43.14-.88.21-1.35.21s-.88-.12-1.2-.37-.47-.64-.47-1.19c0-.21.06-.76.18-1.67l.75-5.68Z"/>
      <path class="cls-1" d="M80.67,231.26c.41.19.71.45.9.78s.29.71.29,1.13c0,.83-.31,1.53-.94,2.1s-1.37,1-2.25,1.28-1.68.42-2.43.42c-.02.52.03,1,.15,1.43.12.43.31.77.58,1.02.27.25.6.38,1.01.38,1,0,1.93-.45,2.79-1.36l.49.81c-.19.29-.47.58-.83.88s-.81.56-1.34.77-1.11.32-1.73.32c-.84,0-1.53-.18-2.09-.54s-.96-.83-1.22-1.42c-.26-.58-.39-1.22-.39-1.91,0-1.15.24-2.22.72-3.19.48-.97,1.14-1.75,1.98-2.32s1.76-.86,2.78-.86c.61,0,1.12.09,1.53.28ZM79.25,232.43c-.16-.21-.37-.31-.66-.31-.48,0-.89.2-1.22.61-.33.41-.59.9-.77,1.48s-.29,1.16-.35,1.73c.43,0,.9-.11,1.41-.32.51-.21.94-.52,1.29-.91.35-.39.53-.84.53-1.34,0-.41-.08-.72-.23-.93Z"/>
      <path class="cls-1" d="M87.31,240.09l1.45-11.1-1.23-.23.11-.93h5.46c1.48,0,2.53.27,3.15.8.62.54.92,1.22.92,2.05s-.25,1.56-.76,2.1-1.25.95-2.24,1.21c.58,0,1.09.12,1.54.37.45.25.79.58,1.03,1s.36.87.36,1.36c0,1.56-.54,2.69-1.63,3.41s-2.61,1.08-4.57,1.08c-.33,0-.77,0-1.32,0-.6,0-1.01,0-1.24,0h-2.37l.08-.85,1.26-.26ZM89.72,239.94c.2.05.46.1.78.13s.58.05.79.05c2.13,0,3.19-1,3.19-2.99,0-.84-.2-1.45-.6-1.84s-1.06-.58-1.98-.58c-.57,0-1.07.02-1.49.05l-.68,5.18ZM90.55,233.55h1.29c.56,0,1.06-.1,1.5-.29s.79-.49,1.05-.9c.26-.41.39-.93.39-1.55,0-.69-.18-1.2-.54-1.55-.36-.34-.93-.51-1.71-.51-.16,0-.38,0-.66.03-.28.02-.51.05-.69.08l-.63,4.69Z"/>
      <path class="cls-1" d="M98.52,232.02l.14-.75,3.14-.46.47.21-1.17,8.17c-.01.12-.02.2-.02.25,0,.28.09.42.27.42.1,0,.21-.04.35-.11s.31-.2.52-.38l.25.57c-.1.14-.26.31-.47.5s-.49.37-.83.53-.7.24-1.1.24c-.47,0-.84-.09-1.09-.28s-.38-.45-.38-.8c0-.07,0-.13,0-.17.08-.67.25-1.88.5-3.62l.54-3.81-1.13-.51ZM100.19,227.22c.13-.24.32-.43.55-.57s.49-.21.77-.21c.26,0,.49.06.69.17s.35.26.46.44.16.38.16.59c0,.29-.06.56-.19.8s-.31.44-.55.58-.53.22-.86.22c-.22,0-.42-.06-.61-.18s-.34-.27-.46-.47-.17-.4-.17-.61c0-.28.07-.54.2-.78Z"/>
      <path class="cls-1" d="M105.44,228.01l-1.12-.38.18-.73,3.01-.37.44.24-1.69,12.43c-.01.06-.02.14-.02.25,0,.28.09.42.27.42.09,0,.21-.03.33-.1s.31-.19.54-.38l.25.56c-.09.13-.25.3-.45.49s-.47.37-.8.53-.68.24-1.06.24c-.45,0-.81-.1-1.09-.29s-.41-.49-.42-.9c0-.18.02-.4.06-.68l1.56-11.34Z"/>
      <path class="cls-1" d="M109.23,234.42c.45-1.01,1.12-1.83,2-2.47s1.94-.96,3.16-.96c.32,0,.67.04,1.04.11l.44-2.92-1.25-.38.18-.73,3.15-.37.48.24-1.8,12.25c-.01.12-.02.19-.02.23,0,.29.09.44.27.44.09,0,.19-.03.31-.08.12-.06.28-.16.48-.31l.25.54c-.2.26-.49.52-.87.79s-.83.4-1.36.4c-.46,0-.79-.12-1.01-.35-.22-.23-.33-.6-.33-1.09-.31.41-.71.75-1.19,1.03-.48.27-1.03.41-1.64.41-.67,0-1.23-.16-1.68-.48-.45-.32-.77-.75-.98-1.31s-.31-1.18-.31-1.9c0-1.07.23-2.1.68-3.11ZM115.24,232.36c-.28-.14-.64-.22-1.09-.22-.71,0-1.31.27-1.78.82-.47.55-.81,1.23-1.03,2.04-.21.81-.32,1.63-.32,2.45,0,.77.12,1.36.35,1.79s.56.63.97.63c.38,0,.73-.11,1.07-.34s.63-.51.88-.85l.96-6.32Z"/>
      <path class="cls-1" d="M120.31,232.7l-.99-.62.14-.81,2.93-.37.44.26-.61,4.76c-.04.35-.08.62-.11.81-.06.46-.11.82-.14,1.09-.03.27-.04.52-.04.74,0,.48.08.81.25,1.01s.42.29.77.29.7-.11,1.05-.32c.35-.21.66-.48.92-.8l1.05-7.77h2.36l-1.12,8.22c-.01.12-.02.19-.02.23,0,.29.1.44.3.44.1,0,.21-.03.33-.1s.3-.19.54-.39l.25.56c-.07.12-.22.29-.44.49s-.5.38-.83.54-.68.24-1.06.24c-.45,0-.78-.1-1.01-.29s-.34-.45-.34-.79c0-.06.01-.17.04-.32l-.04-.05c-.37.42-.79.77-1.27,1.04s-1.05.41-1.71.41-1.25-.18-1.72-.55-.7-.94-.71-1.74c0-.31.02-.67.07-1.09s.12-.93.21-1.52l.06-.45.46-3.16Z"/>
      <path class="cls-1" d="M130.06,232.22l.15-.78,2.78-.46.44.21-.15,1.82c.45-.62.96-1.11,1.56-1.48s1.21-.55,1.86-.55c.69,0,1.23.21,1.61.62s.57,1.09.57,2.04c0,.3-.04.71-.12,1.22s-.19,1.15-.32,1.91c-.05.28-.08.5-.11.64-.01.08-.04.28-.1.6s-.09.61-.12.86-.04.47-.04.65c0,.35.09.52.27.52.09,0,.19-.03.3-.09s.27-.16.48-.32l.25.56c-.09.11-.24.24-.45.4-.21.15-.48.3-.81.43s-.69.2-1.09.2c-.54,0-.92-.11-1.14-.33-.22-.22-.33-.52-.33-.91,0-.21.02-.48.07-.79.05-.32.1-.63.15-.94.06-.31.09-.52.11-.62l.08-.41c.13-.73.24-1.36.32-1.88s.12-1.01.12-1.46c0-.36-.03-.64-.09-.83s-.15-.32-.26-.39c-.11-.07-.27-.1-.47-.1-.38,0-.8.2-1.27.6s-.88.9-1.23,1.49l-.9,6.55h-2.35l1.14-8.46-.91-.52Z"/>
      <path class="cls-1" d="M147.35,231.09c.37.08.7.17,1,.27l1.27-.39-1.56,10.92c-.13.93-.46,1.68-.99,2.25s-1.16.98-1.88,1.23-1.48.37-2.25.37c-.39,0-.8-.04-1.23-.11s-.75-.16-.94-.25l.45-1.82c.25.16.61.33,1.08.51s.91.27,1.34.27c.46,0,.82-.05,1.08-.16s.46-.29.6-.57c.14-.27.25-.68.32-1.21l.29-2.21c-.32.3-.69.55-1.11.73s-.87.28-1.37.28c-.67,0-1.24-.16-1.69-.48-.45-.32-.79-.76-1-1.31-.22-.55-.33-1.18-.33-1.89,0-1.05.23-2.09.7-3.1s1.14-1.84,2.04-2.48c.89-.65,1.94-.97,3.15-.97.33,0,.69.04,1.05.11ZM147.07,232.32c-.28-.12-.62-.18-1.01-.18-.72,0-1.32.27-1.79.81s-.82,1.22-1.03,2.03-.33,1.62-.33,2.43c0,.76.12,1.35.36,1.77.24.42.57.63.98.63.35,0,.68-.1,1-.29.32-.19.61-.44.86-.74l.96-6.45Z"/>
      <path class="cls-1" d="M151.42,239.66c.42.18.87.26,1.34.26.42,0,.79-.09,1.09-.26.3-.17.46-.48.46-.9,0-.26-.07-.5-.2-.72s-.31-.42-.52-.61c-.22-.19-.5-.41-.86-.66-1.17-.82-1.76-1.79-1.76-2.91,0-.56.16-1.07.49-1.5.33-.44.78-.78,1.35-1.02s1.22-.36,1.95-.36c.44,0,.88.04,1.34.11s.76.14.93.22l-.36,1.72c-.07-.1-.19-.21-.37-.34s-.4-.24-.66-.34-.55-.15-.85-.15c-.43,0-.79.09-1.07.28-.29.19-.43.49-.43.89,0,.34.12.66.36.95.24.29.62.62,1.13.99.4.29.72.57.98.82.25.25.47.55.63.9.17.35.25.75.25,1.2,0,.64-.18,1.18-.53,1.63-.35.45-.83.79-1.42,1.01-.59.23-1.24.34-1.94.34-.35,0-.72-.03-1.1-.09s-.72-.13-1.01-.22-.5-.18-.61-.26l.38-1.55c.25.21.58.39,1.01.57Z"/>
      <path class="cls-1" d="M164.63,231.08c.35.07.67.15.97.24l1.2-.34-1.14,8.24s0,.1,0,.17c0,.16.03.28.09.36.06.08.13.12.23.12.19,0,.46-.13.8-.39l.26.55c-.08.13-.23.29-.43.47s-.47.35-.79.5-.66.22-1.02.22c-.42,0-.75-.1-.99-.3s-.35-.5-.33-.88l-.07-.11c-.35.38-.75.69-1.21.94s-.95.37-1.47.37c-1,0-1.73-.34-2.21-1.02-.48-.68-.72-1.57-.72-2.67s.23-2.09.7-3.1,1.14-1.84,2.03-2.48c.89-.65,1.94-.97,3.15-.97.3,0,.62.03.98.1ZM164.27,232.26c-.24-.08-.52-.12-.85-.12-.72,0-1.32.27-1.79.81-.47.54-.82,1.21-1.03,2.02-.22.81-.33,1.62-.33,2.44s.11,1.38.33,1.81.53.64.95.64c.32,0,.63-.1.95-.31s.62-.47.89-.79l.88-6.5Z"/>
      <path class="cls-1" d="M168.48,232.22l.15-.78,2.78-.46.44.21-.15,1.82c.45-.62.96-1.11,1.56-1.48.59-.37,1.21-.55,1.86-.55.69,0,1.23.21,1.61.62s.57,1.09.57,2.04c0,.3-.04.71-.12,1.22-.08.52-.19,1.15-.32,1.91-.05.28-.09.5-.12.64-.01.08-.04.28-.1.6s-.09.61-.12.86-.04.47-.04.65c0,.35.09.52.27.52.09,0,.19-.03.3-.09.12-.06.27-.16.48-.32l.26.56c-.09.11-.24.24-.45.4-.21.15-.48.3-.81.43s-.69.2-1.09.2c-.54,0-.92-.11-1.14-.33-.22-.22-.33-.52-.33-.91,0-.21.02-.48.07-.79.05-.32.1-.63.15-.94.05-.31.09-.52.11-.62l.08-.41c.13-.73.24-1.36.32-1.88.08-.52.12-1.01.12-1.46,0-.36-.03-.64-.09-.83-.06-.19-.15-.32-.26-.39-.12-.07-.27-.1-.47-.1-.38,0-.8.2-1.27.6-.47.4-.88.9-1.24,1.49l-.9,6.55h-2.35l1.14-8.46-.91-.52Z"/>
      <path class="cls-1" d="M185.76,231.09c.37.08.7.17,1,.27l1.27-.39-1.56,10.92c-.13.93-.46,1.68-.99,2.25s-1.16.98-1.88,1.23-1.48.37-2.25.37c-.39,0-.8-.04-1.23-.11s-.75-.16-.94-.25l.45-1.82c.25.16.61.33,1.08.51.47.18.91.27,1.34.27.46,0,.82-.05,1.08-.16s.46-.29.6-.57c.14-.27.25-.68.32-1.21l.29-2.21c-.32.3-.69.55-1.11.73s-.87.28-1.37.28c-.67,0-1.24-.16-1.69-.48-.45-.32-.79-.76-1-1.31-.22-.55-.33-1.18-.33-1.89,0-1.05.23-2.09.7-3.1.46-1.01,1.14-1.84,2.03-2.48.89-.65,1.94-.97,3.15-.97.33,0,.69.04,1.05.11ZM185.48,232.32c-.28-.12-.62-.18-1.01-.18-.72,0-1.32.27-1.79.81s-.82,1.22-1.03,2.03-.33,1.62-.33,2.43c0,.76.12,1.35.36,1.77.24.42.57.63.98.63.35,0,.68-.1,1-.29.32-.19.61-.44.86-.74l.96-6.45Z"/>
      <path class="cls-1" d="M195.92,231.26c.41.19.71.45.9.78s.29.71.29,1.13c0,.83-.31,1.53-.94,2.1-.62.57-1.37,1-2.25,1.28s-1.68.42-2.43.42c-.02.52.03,1,.15,1.43.12.43.31.77.58,1.02.27.25.61.38,1.02.38,1,0,1.93-.45,2.79-1.36l.49.81c-.19.29-.47.58-.83.88s-.81.56-1.34.77c-.53.21-1.11.32-1.73.32-.84,0-1.53-.18-2.09-.54-.55-.36-.96-.83-1.22-1.42-.26-.58-.39-1.22-.39-1.91,0-1.15.24-2.22.72-3.19.48-.97,1.14-1.75,1.98-2.32s1.76-.86,2.78-.86c.61,0,1.12.09,1.52.28ZM194.5,232.43c-.16-.21-.37-.31-.66-.31-.48,0-.89.2-1.22.61-.33.41-.59.9-.77,1.48s-.29,1.16-.35,1.73c.43,0,.9-.11,1.41-.32.51-.21.94-.52,1.29-.91.35-.39.53-.84.53-1.34,0-.41-.08-.72-.23-.93Z"/>
      <path class="cls-1" d="M198.9,227.78l.18-.74,2.71-.34.47.24-.69,5.16c.32-.33.7-.6,1.12-.8s.9-.31,1.42-.31c.99,0,1.74.33,2.25.99s.76,1.58.76,2.75c0,1.09-.24,2.13-.71,3.13s-1.15,1.81-2.04,2.43-1.91.93-3.08.93c-.33,0-.69-.04-1.07-.11-.38-.07-.73-.16-1.06-.27l-1.09.38,1.69-13.05-.88-.38ZM200.52,239.89c.26.11.6.17,1.04.17.7,0,1.28-.26,1.74-.78.47-.52.81-1.19,1.03-1.99s.33-1.64.33-2.49c0-.72-.12-1.3-.36-1.74-.24-.44-.57-.66-1.01-.66-.36,0-.71.11-1.04.33-.33.22-.62.49-.88.82l-.86,6.35Z"/>
      <path class="cls-1" d="M216.16,232.05c.64.71.97,1.74.97,3.08,0,1.08-.23,2.09-.68,3.02-.45.93-1.08,1.67-1.9,2.23s-1.74.83-2.79.83c-1.24,0-2.17-.36-2.82-1.08-.64-.72-.96-1.75-.96-3.09,0-1.08.22-2.09.67-3.02.45-.93,1.08-1.66,1.89-2.21s1.74-.83,2.79-.83c1.24,0,2.18.36,2.82,1.07ZM214.17,232.88c-.25-.48-.63-.73-1.14-.73-.54,0-1,.24-1.37.72s-.65,1.09-.83,1.83c-.18.74-.27,1.5-.27,2.28v.26c.02.97.16,1.69.41,2.16.25.47.64.7,1.15.7.54,0,1-.25,1.36-.74.36-.49.63-1.12.8-1.87.17-.75.25-1.53.25-2.33,0-1.04-.12-1.81-.37-2.29Z"/>
      <path class="cls-1" d="M219.36,232.31h-1.05l.2-.89,1.07-.42c.21-.21.43-.53.66-.97s.45-.92.65-1.43h1.29l-.29,2.39h2.04l-.19,1.33h-2.01l-.73,5.34c-.09.65-.14,1.1-.14,1.36,0,.28.05.47.15.58s.28.17.54.17c.23,0,.5-.06.8-.17.31-.12.56-.25.77-.42l.19.69c-.17.2-.42.41-.74.62-.32.21-.7.39-1.13.53-.43.14-.88.21-1.35.21s-.88-.12-1.2-.37-.47-.64-.47-1.19c0-.21.06-.76.18-1.67l.75-5.68Z"/>
      <path class="cls-1" d="M231.01,231.26c.41.19.71.45.9.78s.29.71.29,1.13c0,.83-.31,1.53-.94,2.1-.62.57-1.37,1-2.25,1.28s-1.68.42-2.43.42c-.02.52.03,1,.15,1.43.12.43.31.77.58,1.02.27.25.61.38,1.02.38,1,0,1.93-.45,2.79-1.36l.49.81c-.19.29-.47.58-.83.88s-.81.56-1.34.77c-.53.21-1.11.32-1.73.32-.84,0-1.53-.18-2.09-.54-.55-.36-.96-.83-1.22-1.42-.26-.58-.39-1.22-.39-1.91,0-1.15.24-2.22.72-3.19.48-.97,1.14-1.75,1.98-2.32s1.76-.86,2.78-.86c.61,0,1.12.09,1.52.28ZM229.6,232.43c-.16-.21-.37-.31-.66-.31-.48,0-.89.2-1.22.61-.33.41-.59.9-.77,1.48s-.29,1.16-.35,1.73c.43,0,.9-.11,1.41-.32.51-.21.94-.52,1.29-.91.35-.39.53-.84.53-1.34,0-.41-.08-.72-.23-.93Z"/>
      <path class="cls-1" d="M45.53,255.97h2.82c1.14.14,1.91.21,2.3.21.19,0,.36-.02.49-.05s.26-.1.38-.2l.02-.02.48.54-5.7,6.95-.9.75h3.25c.44,0,.8-.13,1.08-.4.28-.26.45-.6.51-1h.73c.01.17.02.33.02.48,0,.59-.06,1.17-.17,1.72s-.29.91-.54,1.08c-.16.12-.47.17-.91.17-.52,0-1.48,0-2.9,0-1.18,0-1.97,0-2.36,0-.15,0-.31,0-.48,0s-.3,0-.41,0l-.04.04-.57-.34,5.67-7.05,1.05-.89h-3.14c-.4,0-.72.13-.96.39-.24.26-.39.58-.43.98h-.76c-.02-.17-.03-.38-.03-.64,0-.57.05-1.11.16-1.61.11-.5.28-.8.51-.92.23-.12.5-.19.81-.19Z"/>
      <path class="cls-1" d="M53.42,257.7l-.99-.62.14-.81,2.93-.37.44.26-.61,4.76c-.04.35-.08.62-.11.81-.06.46-.11.82-.14,1.09s-.04.52-.04.74c0,.48.08.81.25,1.01s.42.29.77.29.7-.11,1.05-.32.66-.48.92-.8l1.05-7.77h2.36l-1.12,8.22c-.01.12-.02.19-.02.23,0,.29.1.44.3.44.1,0,.21-.03.33-.09s.3-.19.54-.39l.25.56c-.07.12-.22.29-.44.49s-.5.38-.83.54-.68.24-1.06.24c-.45,0-.78-.09-1.01-.29s-.34-.45-.34-.79c0-.06.01-.17.04-.32l-.04-.05c-.37.42-.79.77-1.27,1.04s-1.05.41-1.71.41-1.25-.18-1.72-.55c-.47-.36-.7-.94-.71-1.74,0-.31.02-.67.07-1.09s.12-.93.21-1.52l.06-.45.46-3.16Z"/>
      <path class="cls-1" d="M67.28,265.08l1.42-11.11-1.22-.22.11-.93h9.33l-.29,3.08h-1.56l-.26-1.97h-3.59l-.63,4.65h4.18l-.19,1.5h-4.13l-.68,4.98,2.41.26-.07.86h-6.18l.09-.86,1.26-.25Z"/>
      <path class="cls-1" d="M77.1,257.02l.14-.75,3.14-.46.47.21-1.17,8.17c-.01.12-.02.2-.02.25,0,.28.09.42.27.42.1,0,.22-.04.35-.11s.31-.2.52-.38l.25.57c-.1.14-.26.31-.47.5s-.49.37-.83.53-.71.24-1.1.24c-.47,0-.84-.09-1.09-.28-.25-.19-.38-.45-.38-.8,0-.07,0-.13,0-.17.08-.67.25-1.88.5-3.62l.54-3.81-1.13-.51ZM78.78,252.22c.13-.24.32-.43.55-.57s.49-.21.77-.21c.26,0,.49.06.69.17s.35.26.46.44c.11.19.16.38.16.59,0,.29-.06.56-.19.8s-.31.44-.55.58-.53.21-.86.21c-.22,0-.42-.06-.61-.18s-.34-.27-.46-.47-.17-.4-.17-.61c0-.28.07-.54.2-.78Z"/>
      <path class="cls-1" d="M82.6,257.22l.15-.78,2.78-.46.44.21-.15,1.82c.45-.62.97-1.11,1.56-1.48s1.21-.55,1.86-.55c.69,0,1.23.21,1.61.62.38.41.57,1.09.57,2.03,0,.3-.04.71-.12,1.22s-.19,1.15-.32,1.91c-.05.28-.08.5-.11.64-.01.08-.04.28-.1.6-.05.32-.09.61-.12.86s-.04.47-.04.65c0,.35.09.52.27.52.09,0,.19-.03.3-.09s.27-.16.48-.32l.25.56c-.09.11-.24.24-.45.4-.21.15-.48.3-.81.43s-.69.2-1.09.2c-.54,0-.92-.11-1.14-.33-.22-.22-.33-.52-.33-.91,0-.21.02-.48.07-.79.05-.32.1-.63.15-.94.06-.31.09-.52.11-.62l.08-.41c.13-.73.24-1.36.32-1.88s.12-1.01.12-1.46c0-.36-.03-.64-.09-.83s-.15-.32-.26-.39c-.11-.07-.27-.1-.47-.1-.38,0-.8.2-1.27.6s-.88.9-1.24,1.49l-.9,6.55h-2.35l1.14-8.46-.91-.52Z"/>
      <path class="cls-1" d="M99.81,256.08c.35.07.67.15.97.24l1.2-.34-1.14,8.24s0,.1,0,.17c0,.16.03.28.09.36s.13.12.23.12c.19,0,.46-.13.8-.39l.26.55c-.08.13-.23.29-.43.47s-.47.35-.79.5-.66.22-1.02.22c-.42,0-.75-.1-.99-.3s-.35-.5-.33-.88l-.07-.11c-.35.38-.75.69-1.21.94s-.95.36-1.47.36c-1,0-1.73-.34-2.21-1.02-.48-.68-.72-1.57-.72-2.67s.23-2.09.7-3.1c.47-1.01,1.14-1.84,2.03-2.48s1.94-.97,3.15-.97c.3,0,.62.03.98.1ZM99.45,257.26c-.24-.08-.52-.12-.85-.12-.72,0-1.32.27-1.79.81-.47.54-.82,1.21-1.03,2.02s-.33,1.62-.33,2.44.11,1.38.33,1.81.53.64.95.64c.32,0,.63-.1.95-.31.32-.21.62-.47.89-.79l.88-6.5Z"/>
      <path class="cls-1" d="M103.65,257.22l.15-.78,2.78-.46.44.21-.15,1.82c.45-.62.97-1.11,1.56-1.48s1.21-.55,1.86-.55c.69,0,1.23.21,1.61.62.38.41.57,1.09.57,2.03,0,.3-.04.71-.12,1.22s-.19,1.15-.32,1.91c-.05.28-.08.5-.11.64-.01.08-.04.28-.1.6-.05.32-.09.61-.12.86s-.04.47-.04.65c0,.35.09.52.27.52.09,0,.19-.03.3-.09s.27-.16.48-.32l.25.56c-.09.11-.24.24-.45.4-.21.15-.48.3-.81.43s-.69.2-1.09.2c-.54,0-.92-.11-1.14-.33-.22-.22-.33-.52-.33-.91,0-.21.02-.48.07-.79.05-.32.1-.63.15-.94.06-.31.09-.52.11-.62l.08-.41c.13-.73.24-1.36.32-1.88s.12-1.01.12-1.46c0-.36-.03-.64-.09-.83s-.15-.32-.26-.39c-.11-.07-.27-.1-.47-.1-.38,0-.8.2-1.27.6s-.88.9-1.24,1.49l-.9,6.55h-2.35l1.14-8.46-.91-.52Z"/>
      <path class="cls-1" d="M116.07,255.97h2.82c1.14.14,1.91.21,2.3.21.19,0,.36-.02.49-.05s.26-.1.38-.2l.02-.02.48.54-5.7,6.95-.9.75h3.25c.44,0,.8-.13,1.09-.4.28-.26.45-.6.5-1h.73c.01.17.02.33.02.48,0,.59-.06,1.17-.17,1.72s-.29.91-.54,1.08c-.16.12-.47.17-.91.17-.52,0-1.48,0-2.9,0-1.18,0-1.97,0-2.36,0-.15,0-.31,0-.48,0s-.3,0-.41,0l-.04.04-.57-.34,5.67-7.05,1.05-.89h-3.14c-.4,0-.72.13-.96.39-.24.26-.39.58-.44.98h-.76c-.02-.17-.03-.38-.03-.64,0-.57.05-1.11.16-1.61.11-.5.28-.8.51-.92.23-.12.5-.19.81-.19Z"/>
      <path class="cls-1" d="M123.96,257.31h-1.05l.2-.89,1.07-.42c.21-.21.43-.53.66-.97.23-.44.45-.92.65-1.43h1.29l-.29,2.39h2.04l-.19,1.33h-2.01l-.73,5.34c-.09.65-.14,1.1-.14,1.36,0,.28.05.47.15.58s.28.17.54.17c.23,0,.5-.06.8-.17s.56-.25.77-.42l.19.69c-.17.2-.42.41-.74.62-.32.21-.7.39-1.13.53s-.88.21-1.35.21-.88-.12-1.2-.37-.47-.64-.47-1.19c0-.21.06-.76.18-1.67l.75-5.68Z"/>
      <path class="cls-1" d="M135.25,260.4c.08-.56.12-1.07.12-1.52,0-.36-.03-.64-.1-.83s-.16-.32-.28-.39c-.12-.07-.27-.1-.45-.1-.39,0-.82.21-1.3.62s-.9.93-1.26,1.56l-.82,6.46h-2.39l1.63-13.03-1.08-.38.15-.73,3.04-.37.47.24-.79,6.22c.45-.66.97-1.19,1.57-1.59.6-.39,1.24-.59,1.91-.59s1.23.21,1.61.62c.38.41.57,1.09.57,2.03,0,.52-.15,1.56-.44,3.13l-.08.48c-.1.6-.17,1.05-.22,1.35s-.07.59-.08.87c0,.2.01.34.06.43s.12.13.21.13c.1,0,.21-.03.33-.09.12-.06.3-.18.52-.35l.26.55c-.08.11-.23.25-.45.42s-.5.32-.84.45c-.34.13-.72.2-1.13.2-.54,0-.93-.11-1.15-.32-.22-.21-.33-.53-.33-.94,0-.24.03-.54.08-.9.06-.36.14-.82.25-1.39l.08-.44c.13-.65.23-1.25.32-1.81Z"/>
      <path class="cls-1" d="M146.4,256.26c.41.19.71.45.9.78.19.33.29.71.29,1.13,0,.83-.31,1.53-.94,2.1s-1.37,1-2.25,1.28-1.68.42-2.43.42c-.02.52.03,1,.15,1.43.12.43.31.77.58,1.02s.61.38,1.02.38c1,0,1.93-.45,2.79-1.36l.49.81c-.19.29-.47.58-.83.88-.36.3-.81.56-1.34.77-.53.21-1.11.32-1.73.32-.84,0-1.53-.18-2.09-.54s-.96-.83-1.22-1.42c-.26-.58-.39-1.22-.39-1.91,0-1.15.24-2.22.72-3.19.48-.97,1.14-1.75,1.98-2.32.84-.57,1.76-.86,2.78-.86.61,0,1.12.09,1.52.29ZM144.99,257.43c-.16-.21-.37-.31-.65-.31-.48,0-.89.2-1.22.61s-.59.9-.77,1.48-.29,1.16-.35,1.73c.43,0,.9-.11,1.41-.32s.94-.52,1.29-.91c.35-.39.53-.84.53-1.34,0-.41-.08-.72-.23-.93Z"/>
      <path class="cls-1" d="M155.3,258.96c0-.4-.03-.71-.09-.91s-.15-.33-.28-.4-.29-.1-.51-.1c-.36,0-.77.19-1.24.58-.47.38-.88.86-1.24,1.43l-.91,6.64h-2.35l1.15-8.46-.91-.53.16-.78,2.77-.46.44.21-.15,1.85c.44-.62.95-1.11,1.53-1.49.58-.38,1.19-.57,1.82-.57s1.14.17,1.52.5.6.88.67,1.64c.43-.66.94-1.18,1.55-1.56s1.25-.58,1.94-.58,1.2.21,1.59.64.58,1.1.58,2.02c0,.29-.04.69-.11,1.19s-.17,1.15-.31,1.94l-.08.47c-.1.57-.17,1.02-.22,1.37-.05.34-.07.66-.07.94,0,.33.09.49.26.49.1,0,.21-.03.34-.1s.3-.2.53-.38l.25.56c-.11.12-.26.27-.47.43-.21.17-.48.32-.82.46s-.71.21-1.12.21c-.54,0-.92-.11-1.13-.34-.22-.22-.33-.53-.33-.92,0-.28.03-.63.1-1.06.06-.42.16-.99.29-1.71l.04-.22c.12-.67.21-1.25.27-1.74.06-.49.1-.94.1-1.35,0-.36-.03-.63-.09-.82s-.15-.32-.26-.39c-.11-.07-.25-.1-.43-.1-.37,0-.78.18-1.22.53s-.84.81-1.19,1.37c-.05.69-.13,1.46-.25,2.29l-.54,4.44h-2.41l.5-3.89c.21-1.41.31-2.53.31-3.35Z"/>
      <path class="cls-1" d="M171.94,256.26c.41.19.71.45.9.78.19.33.29.71.29,1.13,0,.83-.31,1.53-.94,2.1-.62.57-1.37,1-2.25,1.28s-1.68.42-2.43.42c-.02.52.03,1,.15,1.43.12.43.31.77.58,1.02s.61.38,1.02.38c1,0,1.93-.45,2.79-1.36l.49.81c-.19.29-.47.58-.83.88-.36.3-.81.56-1.34.77-.53.21-1.11.32-1.73.32-.84,0-1.53-.18-2.09-.54s-.96-.83-1.22-1.42c-.26-.58-.39-1.22-.39-1.91,0-1.15.24-2.22.72-3.19.48-.97,1.14-1.75,1.98-2.32.84-.57,1.76-.86,2.78-.86.61,0,1.12.09,1.52.29ZM170.53,257.43c-.16-.21-.37-.31-.65-.31-.48,0-.89.2-1.22.61s-.59.9-.77,1.48-.29,1.16-.35,1.73c.43,0,.9-.11,1.41-.32s.94-.52,1.29-.91c.35-.39.53-.84.53-1.34,0-.41-.08-.72-.23-.93Z"/>
      <path class="cls-1" d="M174.48,257.22l.15-.78,2.78-.46.44.21-.15,1.82c.45-.62.96-1.11,1.56-1.48s1.21-.55,1.86-.55c.69,0,1.23.21,1.61.62.38.41.57,1.09.57,2.03,0,.3-.04.71-.12,1.22-.08.52-.19,1.15-.32,1.91-.05.28-.08.5-.11.64-.01.08-.04.28-.1.6-.05.32-.09.61-.12.86s-.04.47-.04.65c0,.35.09.52.27.52.09,0,.19-.03.3-.09.12-.06.27-.16.48-.32l.25.56c-.09.11-.24.24-.45.4-.21.15-.48.3-.81.43s-.69.2-1.09.2c-.54,0-.92-.11-1.14-.33-.22-.22-.33-.52-.33-.91,0-.21.02-.48.07-.79.05-.32.1-.63.15-.94.06-.31.09-.52.11-.62l.08-.41c.13-.73.24-1.36.32-1.88.08-.52.12-1.01.12-1.46,0-.36-.03-.64-.09-.83-.06-.19-.15-.32-.26-.39-.12-.07-.27-.1-.47-.1-.38,0-.8.2-1.27.6-.47.4-.88.9-1.24,1.49l-.9,6.55h-2.35l1.14-8.46-.91-.52Z"/>
      <path class="cls-1" d="M187.29,263.72c.21.23.31.51.31.85s-.08.64-.24.89-.36.43-.62.56-.52.19-.79.19c-.32,0-.59-.11-.79-.33-.21-.22-.31-.51-.31-.86,0-.32.07-.6.22-.85.15-.25.34-.44.58-.58.24-.14.49-.21.75-.21.39,0,.68.11.89.34Z"/>
    </g>
    <g>
      <circle class="cls-2" cx="115.92" cy="82" r="82"/>
      <path class="cls-3" d="M115.92,7v11.52c35.06,0,63.48,28.42,63.48,63.48,0,30.91-22.1,56.66-51.36,62.31l2.2,11.29c35.78-6.95,60.68-37.17,60.68-73.62,0-41.42-33.58-74.99-74.99-74.99Z"/>
    </g>
    <g>
      <path class="cls-3" d="M99.49,67.59h-5.92v.03l-10.27,16.51.35,3.62h9.91v5.43h5.92v-5.43h2.58v-4.57h-2.58v-15.59ZM88.96,83.19l4.22-7.28.39-.63v7.91h-4.61Z"/>
      <polygon class="cls-3" points="106.78 72.16 118.99 72.16 109.41 93.19 115.67 93.19 125.23 70.76 125.23 67.59 106.78 67.59 106.78 72.16"/>
      <path class="cls-3" d="M153.99,84.28c-.42-.8-1.04-1.44-1.88-1.92s-1.9-.72-3.19-.72-2.31.24-3.16.72-1.49,1.12-1.92,1.92-.64,1.68-.64,2.64v1.35c0,.96.21,1.84.64,2.64s1.07,1.44,1.92,1.92,1.92.72,3.2.72,2.31-.24,3.15-.72,1.46-1.12,1.87-1.92.62-1.68.62-2.64v-1.35c0-.96-.21-1.84-.62-2.64ZM150.82,88.27c0,.36-.04.7-.13,1.02s-.26.57-.53.76-.67.29-1.2.29c-.35,0-.67-.1-.97-.29s-.53-.45-.7-.76-.26-.66-.26-1.02v-1.35c0-.36.07-.7.21-1.02s.35-.57.63-.76.63-.29,1.05-.29.77.1,1.05.29.49.45.63.76.21.66.21,1.02v1.35Z"/>
      <path class="cls-3" d="M139.95,78.4c.84-.48,1.46-1.12,1.88-1.92s.62-1.67.62-2.62v-1.35c0-.97-.21-1.86-.62-2.65s-1.05-1.44-1.89-1.92-1.91-.72-3.2-.72-2.3.24-3.15.72-1.48,1.12-1.9,1.92-.63,1.68-.63,2.65v1.35c0,.95.21,1.82.64,2.62s1.06,1.44,1.91,1.92,1.9.72,3.18.72,2.32-.24,3.16-.72ZM135.71,75.64c-.29-.19-.5-.45-.64-.76s-.21-.65-.21-1v-1.35c0-.38.07-.72.21-1.04s.35-.57.63-.76.63-.29,1.04-.29c.43,0,.79.1,1.07.29s.49.45.62.76.2.66.2,1.04v1.35c0,.35-.07.69-.2,1s-.34.57-.61.76-.62.29-1.05.29-.78-.1-1.06-.29Z"/>
      <polygon class="cls-3" points="147.64 69.88 135.14 89.88 137.9 91.27 150.4 71.27 147.64 69.88"/>
    </g>
  </g>
</svg>