<?xml version="1.0" encoding="UTF-8"?>
<svg id="Ebene_2" data-name="Ebene 2" xmlns="http://www.w3.org/2000/svg" viewBox="0 0 270.95 270.74">
  <defs>
    <style>
      .cls-1 {
        fill: #394454;
      }

      .cls-2 {
        fill: #e9e9e9;
      }

      .cls-3 {
        fill: #f04e5a;
      }
    </style>
  </defs>
  <g id="Ebene_1-2" data-name="Ebene 1">
    <g>
      <path class="cls-1" d="M14.19,209.42c.45-1.01,1.12-1.83,2-2.47s1.94-.96,3.16-.96c.32,0,.67.04,1.04.11l.44-2.92-1.25-.38.18-.73,3.15-.37.48.24-1.8,12.25c-.01.12-.02.19-.02.23,0,.29.09.44.27.44.09,0,.19-.03.31-.08.12-.06.28-.16.48-.31l.25.54c-.2.26-.49.52-.87.79s-.83.4-1.36.4c-.46,0-.79-.12-1.01-.35-.22-.23-.33-.6-.33-1.09-.31.41-.71.75-1.19,1.03-.48.27-1.03.41-1.64.41-.67,0-1.23-.16-1.68-.48-.45-.32-.77-.75-.98-1.31s-.31-1.18-.31-1.9c0-1.07.23-2.1.68-3.11ZM20.21,207.36c-.28-.14-.64-.22-1.09-.22-.71,0-1.31.27-1.78.82-.47.55-.81,1.23-1.03,2.04-.21.81-.32,1.63-.32,2.45,0,.77.12,1.36.35,1.79s.56.63.97.63c.38,0,.73-.11,1.07-.34s.63-.51.87-.85l.96-6.32Z"/>
      <path class="cls-1" d="M30.9,206.26c.41.19.71.45.9.78s.29.71.29,1.13c0,.83-.31,1.53-.94,2.1s-1.37,1-2.25,1.28-1.68.42-2.43.42c-.02.52.03,1,.15,1.43.12.43.31.77.58,1.02.27.25.6.38,1.02.38,1,0,1.93-.45,2.79-1.36l.49.81c-.19.29-.47.58-.83.88s-.81.56-1.34.77-1.11.32-1.73.32c-.84,0-1.53-.18-2.09-.54s-.96-.83-1.22-1.42c-.26-.58-.39-1.22-.39-1.91,0-1.15.24-2.22.72-3.19.48-.97,1.14-1.75,1.98-2.32s1.76-.86,2.78-.86c.61,0,1.12.09,1.52.28ZM29.48,207.43c-.16-.21-.37-.31-.65-.31-.48,0-.89.2-1.22.61-.33.41-.59.9-.77,1.48s-.29,1.16-.35,1.73c.43,0,.9-.11,1.41-.32.51-.21.94-.52,1.29-.91.35-.39.53-.84.53-1.34,0-.41-.08-.72-.23-.93Z"/>
      <path class="cls-1" d="M33.41,207.22l.15-.78,2.57-.46.45.26-.15,2.17c.13-.39.34-.77.63-1.14s.63-.68,1.05-.93.86-.36,1.34-.36c.12,0,.23.01.34.04s.19.06.24.11l-.51,2.57c-.08-.06-.21-.11-.37-.16s-.36-.07-.59-.07c-.43,0-.84.09-1.22.27s-.68.47-.91.87l-.87,6.59h-2.35l1.12-8.46-.91-.53Z"/>
      <path class="cls-1" d="M44.6,215.09l1.42-11.11-1.22-.22.11-.93h9.33l-.29,3.08h-1.56l-.26-1.97h-3.59l-.63,4.65h4.18l-.19,1.5h-4.13l-.68,4.98,2.41.26-.07.86h-6.18l.09-.86,1.26-.25Z"/>
      <path class="cls-1" d="M60.81,206.08c.35.07.67.15.97.24l1.2-.34-1.14,8.24s0,.1,0,.17c0,.16.03.28.09.36.06.08.13.12.23.12.19,0,.46-.13.8-.39l.26.55c-.08.13-.23.29-.44.47s-.47.35-.79.5-.66.22-1.02.22c-.42,0-.75-.1-.99-.3s-.35-.5-.33-.88l-.07-.11c-.35.38-.75.69-1.21.94s-.94.37-1.47.37c-1,0-1.73-.34-2.21-1.02-.48-.68-.72-1.57-.72-2.67s.23-2.09.7-3.1,1.14-1.84,2.03-2.48c.89-.65,1.94-.97,3.15-.97.3,0,.62.03.98.1ZM60.45,207.26c-.24-.08-.52-.12-.85-.12-.72,0-1.32.27-1.79.81-.47.54-.82,1.21-1.03,2.02-.22.81-.33,1.62-.33,2.44s.11,1.38.33,1.81.53.64.95.64c.32,0,.63-.1.95-.31s.62-.47.89-.79l.88-6.5Z"/>
      <path class="cls-1" d="M71.02,208.96c0-.4-.03-.71-.09-.91s-.15-.33-.28-.4-.29-.1-.51-.1c-.36,0-.77.19-1.24.58s-.88.86-1.24,1.43l-.91,6.64h-2.35l1.15-8.46-.91-.53.16-.78,2.77-.46.44.21-.15,1.85c.44-.62.95-1.11,1.53-1.49s1.19-.57,1.82-.57,1.14.17,1.52.5.6.88.67,1.64c.43-.66.94-1.18,1.55-1.56s1.25-.58,1.94-.58,1.2.21,1.59.64.58,1.1.58,2.02c0,.29-.04.69-.11,1.19s-.17,1.15-.31,1.94l-.08.47c-.1.57-.17,1.02-.22,1.37s-.07.66-.07.95c0,.33.09.49.26.49.1,0,.21-.03.34-.1s.3-.19.53-.38l.25.56c-.11.12-.26.26-.47.43s-.48.32-.82.46c-.34.14-.71.21-1.12.21-.54,0-.92-.11-1.13-.34-.22-.22-.33-.53-.33-.92,0-.28.03-.63.1-1.06.06-.42.16-.99.29-1.71l.04-.21c.12-.67.21-1.25.27-1.74s.1-.94.1-1.35c0-.36-.03-.63-.09-.82s-.15-.32-.26-.39c-.11-.07-.25-.1-.43-.1-.37,0-.78.18-1.22.53s-.84.81-1.19,1.37c-.05.69-.13,1.46-.25,2.29l-.54,4.44h-2.41l.5-3.89c.21-1.41.31-2.53.31-3.35Z"/>
      <path class="cls-1" d="M81.1,207.02l.14-.75,3.14-.46.47.21-1.17,8.17c-.01.12-.02.2-.02.25,0,.28.09.42.27.42.1,0,.22-.04.35-.11s.31-.2.52-.38l.25.57c-.1.14-.26.31-.47.5s-.49.37-.83.53-.7.24-1.1.24c-.47,0-.84-.09-1.09-.28s-.38-.45-.38-.8c0-.07,0-.13,0-.17.08-.67.25-1.88.5-3.62l.54-3.81-1.13-.51ZM82.77,202.22c.13-.24.32-.43.55-.57s.49-.21.77-.21c.26,0,.49.06.69.17s.35.26.46.44.16.38.16.59c0,.29-.06.56-.19.8s-.31.44-.55.58-.53.22-.86.22c-.22,0-.42-.06-.61-.18s-.34-.27-.46-.47-.17-.4-.17-.61c0-.28.07-.54.2-.78Z"/>
      <path class="cls-1" d="M88.02,203.01l-1.12-.38.18-.73,3.01-.37.44.24-1.69,12.43c-.01.06-.02.14-.02.25,0,.28.09.42.27.42.09,0,.21-.03.33-.1s.31-.19.54-.38l.25.56c-.09.13-.24.3-.45.49s-.47.37-.8.53-.68.24-1.06.24c-.45,0-.81-.1-1.09-.29s-.41-.49-.42-.9c0-.18.02-.4.06-.68l1.56-11.34Z"/>
      <path class="cls-1" d="M91.59,207.02l.14-.75,3.14-.46.47.21-1.17,8.17c-.01.12-.02.2-.02.25,0,.28.09.42.27.42.1,0,.22-.04.35-.11s.31-.2.52-.38l.25.57c-.1.14-.26.31-.47.5s-.49.37-.83.53-.7.24-1.1.24c-.47,0-.84-.09-1.09-.28s-.38-.45-.38-.8c0-.07,0-.13,0-.17.08-.67.25-1.88.5-3.62l.54-3.81-1.13-.51ZM93.27,202.22c.13-.24.32-.43.55-.57s.49-.21.77-.21c.26,0,.49.06.69.17s.35.26.46.44.16.38.16.59c0,.29-.06.56-.19.8s-.31.44-.55.58-.53.22-.86.22c-.22,0-.42-.06-.61-.18s-.34-.27-.46-.47-.17-.4-.17-.61c0-.28.07-.54.2-.78Z"/>
      <path class="cls-1" d="M103.56,206.26c.41.19.71.45.9.78s.29.71.29,1.13c0,.83-.31,1.53-.94,2.1s-1.37,1-2.25,1.28-1.68.42-2.43.42c-.02.52.03,1,.15,1.43.12.43.31.77.58,1.02.27.25.6.38,1.02.38,1,0,1.93-.45,2.79-1.36l.49.81c-.19.29-.47.58-.83.88s-.81.56-1.34.77-1.11.32-1.73.32c-.84,0-1.53-.18-2.09-.54s-.96-.83-1.22-1.42c-.26-.58-.39-1.22-.39-1.91,0-1.15.24-2.22.72-3.19.48-.97,1.14-1.75,1.98-2.32s1.76-.86,2.78-.86c.61,0,1.12.09,1.52.28ZM102.14,207.43c-.16-.21-.37-.31-.65-.31-.48,0-.89.2-1.22.61-.33.41-.59.9-.77,1.48s-.29,1.16-.35,1.73c.43,0,.9-.11,1.41-.32.51-.21.94-.52,1.29-.91.35-.39.53-.84.53-1.34,0-.41-.08-.72-.23-.93Z"/>
      <path class="cls-1" d="M106.09,207.22l.15-.78,2.78-.46.44.21-.15,1.82c.45-.62.97-1.11,1.56-1.48s1.21-.55,1.86-.55c.69,0,1.23.21,1.61.62s.57,1.09.57,2.04c0,.3-.04.71-.12,1.22s-.19,1.15-.32,1.91c-.05.28-.08.5-.11.64-.01.08-.04.28-.1.6s-.09.61-.12.86-.04.47-.04.65c0,.35.09.52.27.52.09,0,.19-.03.3-.09s.27-.16.48-.32l.25.56c-.09.11-.24.24-.45.4-.21.15-.48.3-.81.43s-.69.2-1.09.2c-.54,0-.92-.11-1.14-.33-.22-.22-.33-.52-.33-.91,0-.21.02-.48.07-.79.05-.32.1-.63.15-.94.06-.31.09-.52.11-.62l.08-.41c.13-.73.24-1.36.32-1.88s.12-1.01.12-1.46c0-.36-.03-.64-.09-.83s-.15-.32-.26-.39c-.11-.07-.27-.1-.47-.1-.38,0-.8.2-1.27.6s-.88.9-1.23,1.49l-.9,6.55h-2.35l1.14-8.46-.91-.52Z"/>
      <path class="cls-1" d="M120.71,207.38l.16-.77,1.25-.53.11-.63c.12-.7.37-1.33.73-1.9.37-.57.83-1.02,1.38-1.35.56-.33,1.17-.5,1.83-.5.62,0,1.12.08,1.49.23l-.54,1.5c-.17-.11-.35-.21-.54-.29s-.41-.11-.68-.11c-.29,0-.53.08-.7.24-.18.16-.31.38-.4.65s-.17.63-.23,1.07l-.16,1h1.92l-.21,1.4h-1.9l-.99,8.27c-.11.93-.34,1.78-.68,2.55-.34.77-.8,1.39-1.36,1.86s-1.21.7-1.94.7c-.29,0-.58-.02-.88-.05s-.53-.07-.69-.11l.5-1.58c.13.06.35.14.65.24s.55.15.73.15c.28,0,.51-.16.69-.49s.31-.8.4-1.41l1.21-10.1h-1.15Z"/>
      <path class="cls-1" d="M127.45,207.7l-.99-.62.14-.81,2.93-.37.44.26-.61,4.76c-.04.35-.08.62-.11.81-.06.46-.11.82-.14,1.09-.03.27-.04.52-.04.74,0,.48.08.81.25,1.01s.42.29.77.29.7-.11,1.05-.32c.35-.21.65-.48.92-.8l1.05-7.77h2.36l-1.12,8.22c-.01.12-.02.19-.02.23,0,.29.1.44.3.44.1,0,.21-.03.33-.1s.3-.19.54-.39l.25.56c-.07.12-.22.29-.44.49s-.5.38-.83.54-.68.24-1.06.24c-.45,0-.78-.1-1.01-.29s-.34-.45-.34-.79c0-.06.01-.17.04-.32l-.04-.05c-.37.42-.79.77-1.27,1.04s-1.05.41-1.71.41-1.25-.18-1.72-.55-.7-.94-.71-1.74c0-.31.02-.67.07-1.09s.12-.93.21-1.52l.06-.45.46-3.16ZM128.7,202.22c.12-.24.29-.43.51-.57s.47-.21.74-.21c.23,0,.44.06.63.17s.33.26.43.44.15.38.15.58c0,.29-.06.56-.18.81s-.29.44-.51.59-.49.22-.8.22c-.21,0-.4-.06-.57-.18s-.32-.27-.42-.47-.16-.4-.16-.61c0-.28.06-.54.18-.78ZM132.55,202.22c.12-.24.29-.43.51-.57s.47-.21.74-.21c.24,0,.45.06.63.17s.32.26.42.44.15.38.15.59c0,.29-.06.56-.18.8s-.29.44-.51.58-.49.22-.8.22c-.21,0-.4-.06-.57-.18s-.32-.27-.42-.47-.16-.4-.16-.61c0-.28.06-.54.18-.78Z"/>
      <path class="cls-1" d="M143.3,210.4c.08-.56.12-1.07.12-1.52,0-.36-.03-.64-.1-.83-.06-.19-.16-.32-.28-.39-.12-.07-.27-.1-.45-.1-.39,0-.82.21-1.3.62s-.9.93-1.26,1.56l-.82,6.46h-2.39l1.63-13.03-1.08-.38.15-.73,3.04-.37.47.24-.79,6.22c.45-.66.97-1.19,1.57-1.59s1.24-.59,1.91-.59,1.23.21,1.61.62.57,1.09.57,2.04c0,.52-.15,1.56-.44,3.13l-.08.48c-.1.6-.17,1.05-.22,1.35s-.07.59-.08.87c0,.2.01.34.06.43s.12.13.21.13c.1,0,.21-.03.33-.09s.3-.18.52-.35l.26.55c-.08.11-.23.25-.45.42-.22.17-.5.32-.84.45-.34.13-.72.2-1.13.2-.54,0-.93-.11-1.15-.32-.22-.21-.33-.53-.33-.94,0-.24.03-.54.08-.9.06-.36.14-.82.25-1.39l.08-.44c.13-.65.23-1.25.32-1.81Z"/>
      <path class="cls-1" d="M149.41,203.01l-1.12-.38.18-.73,3.01-.37.44.24-1.69,12.43c-.01.06-.02.14-.02.25,0,.28.09.42.27.42.09,0,.21-.03.33-.1s.31-.19.54-.38l.25.56c-.09.13-.24.3-.45.49s-.47.37-.8.53-.68.24-1.06.24c-.45,0-.81-.1-1.08-.29s-.41-.49-.42-.9c0-.18.02-.4.06-.68l1.56-11.34Z"/>
      <path class="cls-1" d="M159.54,206.26c.41.19.71.45.9.78s.29.71.29,1.13c0,.83-.31,1.53-.94,2.1s-1.37,1-2.25,1.28-1.68.42-2.43.42c-.02.52.03,1,.15,1.43.12.43.31.77.58,1.02.27.25.6.38,1.01.38,1,0,1.93-.45,2.79-1.36l.49.81c-.19.29-.47.58-.83.88s-.81.56-1.34.77-1.11.32-1.73.32c-.84,0-1.53-.18-2.09-.54s-.96-.83-1.22-1.42c-.26-.58-.39-1.22-.39-1.91,0-1.15.24-2.22.72-3.19.48-.97,1.14-1.75,1.98-2.32s1.76-.86,2.78-.86c.61,0,1.12.09,1.53.28ZM158.13,207.43c-.16-.21-.37-.31-.66-.31-.48,0-.89.2-1.22.61-.33.41-.59.9-.77,1.48s-.29,1.16-.35,1.73c.43,0,.9-.11,1.41-.32.51-.21.94-.52,1.29-.91.35-.39.53-.84.53-1.34,0-.41-.08-.72-.23-.93Z"/>
      <path class="cls-1" d="M162.08,207.22l.15-.78,2.78-.46.44.21-.15,1.82c.45-.62.96-1.11,1.56-1.48s1.21-.55,1.86-.55c.69,0,1.23.21,1.61.62s.57,1.09.57,2.04c0,.3-.04.71-.12,1.22s-.19,1.15-.32,1.91c-.05.28-.08.5-.11.64-.01.08-.04.28-.1.6s-.09.61-.12.86-.04.47-.04.65c0,.35.09.52.27.52.09,0,.19-.03.3-.09s.27-.16.48-.32l.25.56c-.09.11-.24.24-.45.4-.21.15-.48.3-.81.43s-.69.2-1.09.2c-.54,0-.92-.11-1.14-.33-.22-.22-.33-.52-.33-.91,0-.21.02-.48.07-.79.05-.32.1-.63.15-.94.06-.31.09-.52.11-.62l.08-.41c.13-.73.24-1.36.32-1.88s.12-1.01.12-1.46c0-.36-.03-.64-.09-.83s-.15-.32-.26-.39c-.11-.07-.27-.1-.47-.1-.38,0-.8.2-1.27.6s-.88.9-1.23,1.49l-.9,6.55h-2.35l1.14-8.46-.91-.52Z"/>
      <path class="cls-1" d="M177.25,214.66c.42.18.87.26,1.34.26.42,0,.79-.09,1.09-.26.3-.17.46-.48.46-.9,0-.26-.07-.5-.2-.72s-.31-.42-.52-.61c-.22-.19-.5-.41-.86-.66-1.17-.82-1.76-1.79-1.76-2.91,0-.56.16-1.07.49-1.5.33-.44.78-.78,1.35-1.02s1.22-.36,1.95-.36c.44,0,.88.04,1.34.11s.76.14.93.22l-.36,1.72c-.07-.1-.19-.21-.37-.34s-.4-.24-.66-.34-.55-.15-.85-.15c-.43,0-.79.09-1.07.28-.29.19-.43.49-.43.89,0,.34.12.66.36.95.24.29.62.62,1.13.99.4.29.72.57.98.82.25.25.47.55.63.9.17.35.25.75.25,1.2,0,.64-.18,1.18-.53,1.63-.35.45-.83.79-1.42,1.01-.59.23-1.24.34-1.94.34-.35,0-.72-.03-1.1-.09s-.72-.13-1.01-.22-.5-.18-.61-.26l.38-1.55c.25.21.58.39,1.01.57Z"/>
      <path class="cls-1" d="M184.07,207.02l.14-.75,3.14-.46.47.21-1.17,8.17c-.01.12-.02.2-.02.25,0,.28.09.42.27.42.1,0,.21-.04.35-.11s.31-.2.52-.38l.25.57c-.1.14-.26.31-.47.5s-.49.37-.83.53-.7.24-1.1.24c-.47,0-.84-.09-1.09-.28s-.38-.45-.38-.8c0-.07,0-.13,0-.17.08-.67.25-1.88.5-3.62l.54-3.81-1.13-.51ZM185.75,202.22c.13-.24.32-.43.55-.57s.49-.21.77-.21c.26,0,.49.06.69.17s.35.26.46.44.16.38.16.59c0,.29-.06.56-.19.8s-.31.44-.55.58-.53.22-.86.22c-.22,0-.42-.06-.61-.18s-.34-.27-.46-.47-.17-.4-.17-.61c0-.28.07-.54.2-.78Z"/>
      <path class="cls-1" d="M189.62,209.26c.42-.95,1.04-1.74,1.87-2.35.83-.62,1.81-.92,2.96-.92.35,0,.72.03,1.12.1s.72.16.99.27l-.63,2.37s-.1-.02-.25-.04c-.12-.01-.18-.02-.19-.03-.33-.4-.63-.72-.88-.96-.26-.24-.48-.36-.69-.36-.43,0-.84.19-1.21.56-.37.38-.67.91-.89,1.6s-.33,1.5-.33,2.41c0,.99.14,1.71.41,2.17.28.45.69.68,1.24.68.47,0,.87-.08,1.21-.25.33-.17.69-.43,1.08-.78l.47.79c-.18.26-.44.51-.77.77-.33.26-.73.48-1.22.66s-1.02.27-1.61.27c-.69,0-1.27-.16-1.77-.47-.49-.31-.87-.77-1.13-1.38-.26-.61-.4-1.34-.4-2.21,0-.99.21-1.95.63-2.91Z"/>
      <path class="cls-1" d="M203.43,210.4c.08-.56.12-1.07.12-1.52,0-.36-.03-.64-.1-.83-.06-.19-.16-.32-.28-.39-.12-.07-.27-.1-.45-.1-.39,0-.82.21-1.3.62s-.9.93-1.26,1.56l-.82,6.46h-2.39l1.63-13.03-1.08-.38.15-.73,3.04-.37.47.24-.79,6.22c.45-.66.97-1.19,1.57-1.59s1.24-.59,1.91-.59,1.23.21,1.61.62.57,1.09.57,2.04c0,.52-.15,1.56-.44,3.13l-.08.48c-.1.6-.17,1.05-.22,1.35s-.07.59-.08.87c0,.2.01.34.06.43s.12.13.21.13c.1,0,.21-.03.33-.09s.3-.18.52-.35l.26.55c-.08.11-.23.25-.45.42-.22.17-.5.32-.84.45-.34.13-.72.2-1.13.2-.54,0-.93-.11-1.15-.32-.22-.21-.33-.53-.33-.94,0-.24.03-.54.08-.9.06-.36.14-.82.25-1.39l.08-.44c.13-.65.23-1.25.32-1.81Z"/>
      <path class="cls-1" d="M211.9,207.02l.14-.75,3.14-.46.47.21-1.17,8.17c-.01.12-.02.2-.02.25,0,.28.09.42.27.42.1,0,.21-.04.35-.11.13-.07.31-.2.52-.38l.25.57c-.1.14-.26.31-.47.5s-.49.37-.83.53-.7.24-1.1.24c-.47,0-.84-.09-1.09-.28s-.38-.45-.38-.8c0-.07,0-.13,0-.17.08-.67.25-1.88.5-3.62l.54-3.81-1.13-.51ZM213.58,202.22c.13-.24.32-.43.55-.57s.49-.21.77-.21c.26,0,.49.06.69.17s.35.26.46.44.16.38.16.59c0,.29-.06.56-.19.8-.13.24-.31.44-.55.58s-.53.22-.86.22c-.22,0-.42-.06-.61-.18-.19-.12-.34-.27-.46-.47-.12-.19-.17-.4-.17-.61,0-.28.07-.54.2-.78Z"/>
      <path class="cls-1" d="M217.4,207.22l.15-.78,2.78-.46.44.21-.15,1.82c.45-.62.96-1.11,1.56-1.48s1.21-.55,1.86-.55c.69,0,1.23.21,1.61.62s.57,1.09.57,2.04c0,.3-.04.71-.12,1.22-.08.52-.19,1.15-.32,1.91-.05.28-.08.5-.11.64-.01.08-.04.28-.1.6s-.09.61-.12.86-.04.47-.04.65c0,.35.09.52.27.52.09,0,.19-.03.3-.09.12-.06.27-.16.48-.32l.25.56c-.09.11-.24.24-.45.4-.21.15-.48.3-.81.43s-.69.2-1.09.2c-.54,0-.92-.11-1.14-.33-.22-.22-.33-.52-.33-.91,0-.21.02-.48.07-.79.05-.32.1-.63.15-.94.06-.31.09-.52.11-.62l.08-.41c.13-.73.24-1.36.32-1.88.08-.52.12-1.01.12-1.46,0-.36-.03-.64-.09-.83-.06-.19-.15-.32-.26-.39-.12-.07-.27-.1-.47-.1-.38,0-.8.2-1.27.6-.47.4-.88.9-1.24,1.49l-.9,6.55h-2.35l1.14-8.46-.91-.52Z"/>
      <path class="cls-1" d="M232.32,209.42c.45-1.01,1.12-1.83,2-2.47s1.94-.96,3.16-.96c.32,0,.67.04,1.04.11l.44-2.92-1.25-.38.18-.73,3.15-.37.48.24-1.8,12.25c-.01.12-.02.19-.02.23,0,.29.09.44.27.44.09,0,.19-.03.31-.08.12-.06.28-.16.48-.31l.25.54c-.2.26-.49.52-.87.79s-.83.4-1.36.4c-.46,0-.79-.12-1.01-.35-.22-.23-.33-.6-.33-1.09-.31.41-.71.75-1.19,1.03-.48.27-1.03.41-1.64.41-.67,0-1.23-.16-1.68-.48-.45-.32-.77-.75-.98-1.31-.21-.55-.31-1.18-.31-1.9,0-1.07.23-2.1.68-3.11ZM238.33,207.36c-.28-.14-.64-.22-1.09-.22-.71,0-1.31.27-1.78.82-.47.55-.81,1.23-1.03,2.04-.21.81-.32,1.63-.32,2.45,0,.77.12,1.36.35,1.79s.56.63.97.63c.38,0,.73-.11,1.07-.34s.63-.51.88-.85l.96-6.32Z"/>
      <path class="cls-1" d="M249.02,206.26c.41.19.71.45.9.78s.29.71.29,1.13c0,.83-.31,1.53-.94,2.1-.62.57-1.37,1-2.25,1.28s-1.68.42-2.43.42c-.02.52.03,1,.15,1.43.12.43.31.77.58,1.02.27.25.61.38,1.02.38,1,0,1.93-.45,2.79-1.36l.49.81c-.19.29-.47.58-.83.88s-.81.56-1.34.77c-.53.21-1.11.32-1.73.32-.84,0-1.53-.18-2.09-.54-.55-.36-.96-.83-1.22-1.42-.26-.58-.39-1.22-.39-1.91,0-1.15.24-2.22.72-3.19.48-.97,1.14-1.75,1.98-2.32s1.76-.86,2.78-.86c.61,0,1.12.09,1.52.28ZM247.61,207.43c-.16-.21-.37-.31-.66-.31-.48,0-.89.2-1.22.61-.33.41-.59.9-.77,1.48s-.29,1.16-.35,1.73c.43,0,.9-.11,1.41-.32.51-.21.94-.52,1.29-.91.35-.39.53-.84.53-1.34,0-.41-.08-.72-.23-.93Z"/>
      <path class="cls-1" d="M251.53,207.22l.15-.78,2.57-.46.45.26-.15,2.17c.13-.39.34-.77.63-1.14s.63-.68,1.05-.93c.41-.24.86-.36,1.34-.36.12,0,.23.01.34.04s.19.06.24.11l-.51,2.57c-.08-.06-.21-.11-.37-.16s-.36-.07-.59-.07c-.43,0-.84.09-1.22.27s-.68.47-.91.87l-.87,6.59h-2.35l1.12-8.46-.91-.53Z"/>
      <path class="cls-1" d="M1.34,240.09l1.43-11.11-1.23-.22.11-.93h5.34l-.11.93-1.63.22-1.43,11.08h3.58l1.56-3.56,1.34.2-.88,4.51H0l.1-.86,1.25-.25Z"/>
      <path class="cls-1" d="M17.84,231.08c.35.07.67.15.97.24l1.2-.34-1.14,8.24s0,.1,0,.17c0,.16.03.28.09.36.06.08.13.12.23.12.19,0,.46-.13.8-.39l.26.55c-.08.13-.23.29-.44.47s-.47.35-.79.5-.66.22-1.02.22c-.42,0-.75-.1-.99-.3s-.35-.5-.33-.88l-.07-.11c-.35.38-.75.69-1.21.94s-.94.37-1.47.37c-1,0-1.73-.34-2.21-1.02-.48-.68-.72-1.57-.72-2.67s.23-2.09.7-3.1,1.14-1.84,2.03-2.48c.89-.65,1.94-.97,3.15-.97.3,0,.62.03.98.1ZM17.48,232.26c-.24-.08-.52-.12-.85-.12-.72,0-1.32.27-1.79.81-.47.54-.82,1.21-1.03,2.02-.22.81-.33,1.62-.33,2.44s.11,1.38.33,1.81.53.64.95.64c.32,0,.63-.1.95-.31s.62-.47.89-.79l.88-6.5Z"/>
      <path class="cls-1" d="M28.06,231.09c.37.08.7.17,1,.27l1.27-.39-1.56,10.92c-.13.93-.46,1.68-.99,2.25s-1.16.98-1.89,1.23-1.48.37-2.25.37c-.39,0-.8-.04-1.23-.11s-.75-.16-.94-.25l.45-1.82c.25.16.61.33,1.08.51s.91.27,1.34.27c.46,0,.82-.05,1.08-.16s.46-.29.6-.57c.14-.27.25-.68.32-1.21l.29-2.21c-.32.3-.69.55-1.11.73s-.87.28-1.37.28c-.67,0-1.24-.16-1.69-.48-.45-.32-.79-.76-1-1.31-.22-.55-.33-1.18-.33-1.89,0-1.05.23-2.09.7-3.1s1.14-1.84,2.03-2.48c.89-.65,1.94-.97,3.15-.97.33,0,.69.04,1.05.11ZM27.78,232.32c-.28-.12-.62-.18-1.01-.18-.72,0-1.32.27-1.79.81s-.82,1.22-1.03,2.03-.33,1.62-.33,2.43c0,.76.12,1.35.36,1.77.24.42.57.63.98.63.35,0,.68-.1,1-.29.32-.19.61-.44.86-.74l.96-6.45Z"/>
      <path class="cls-1" d="M38.22,231.26c.41.19.71.45.9.78s.29.71.29,1.13c0,.83-.31,1.53-.94,2.1s-1.37,1-2.25,1.28-1.68.42-2.43.42c-.02.52.03,1,.15,1.43.12.43.31.77.58,1.02.27.25.6.38,1.02.38,1,0,1.93-.45,2.79-1.36l.49.81c-.19.29-.47.58-.83.88s-.81.56-1.34.77-1.11.32-1.73.32c-.84,0-1.53-.18-2.09-.54s-.96-.83-1.22-1.42c-.26-.58-.39-1.22-.39-1.91,0-1.15.24-2.22.72-3.19.48-.97,1.14-1.75,1.98-2.32s1.76-.86,2.78-.86c.61,0,1.12.09,1.52.28ZM36.8,232.43c-.16-.21-.37-.31-.65-.31-.48,0-.89.2-1.22.61-.33.41-.59.9-.77,1.48s-.29,1.16-.35,1.73c.43,0,.9-.11,1.41-.32.51-.21.94-.52,1.29-.91.35-.39.53-.84.53-1.34,0-.41-.08-.72-.23-.93Z"/>
      <path class="cls-1" d="M41.64,238.72c.57.18.99.51,1.26.99s.4,1.03.4,1.63c0,.64-.14,1.24-.42,1.81s-.67,1.07-1.16,1.51-1.06.78-1.68,1.03l-.55-.74.03-.19c.3-.15.58-.36.84-.65.26-.29.47-.62.62-1s.23-.76.23-1.15c0-.25-.04-.49-.12-.72s-.18-.41-.32-.56-.28-.24-.44-.26l.04-.48,1.27-1.23Z"/>
      <path class="cls-1" d="M48.94,232.02l.14-.75,3.14-.46.47.21-1.17,8.17c-.01.12-.02.2-.02.25,0,.28.09.42.27.42.1,0,.22-.04.35-.11s.31-.2.52-.38l.25.57c-.1.14-.26.31-.47.5s-.49.37-.83.53-.7.24-1.1.24c-.47,0-.84-.09-1.09-.28s-.38-.45-.38-.8c0-.07,0-.13,0-.17.08-.67.25-1.88.5-3.62l.54-3.81-1.13-.51ZM50.62,227.22c.13-.24.32-.43.55-.57s.49-.21.77-.21c.26,0,.49.06.69.17s.35.26.46.44.16.38.16.59c0,.29-.06.56-.19.8s-.31.44-.55.58-.53.22-.86.22c-.22,0-.42-.06-.61-.18s-.34-.27-.46-.47-.17-.4-.17-.61c0-.28.07-.54.2-.78Z"/>
      <path class="cls-1" d="M60.55,235.4c.08-.56.12-1.07.12-1.52,0-.36-.03-.64-.1-.83-.06-.19-.16-.32-.28-.39-.12-.07-.27-.1-.45-.1-.39,0-.82.21-1.3.62s-.9.93-1.26,1.56l-.82,6.46h-2.39l1.63-13.03-1.08-.38.15-.73,3.04-.37.47.24-.79,6.22c.45-.66.97-1.19,1.57-1.59s1.24-.59,1.91-.59,1.23.21,1.61.62.57,1.09.57,2.04c0,.52-.15,1.56-.44,3.13l-.08.48c-.1.6-.17,1.05-.22,1.35s-.07.59-.08.87c0,.2.01.34.06.43s.12.13.21.13c.1,0,.21-.03.33-.09s.3-.18.52-.35l.26.55c-.08.11-.23.25-.45.42-.22.17-.5.32-.84.45-.34.13-.72.2-1.13.2-.54,0-.93-.11-1.15-.32-.22-.21-.33-.53-.33-.94,0-.24.03-.54.08-.9.06-.36.14-.82.25-1.39l.08-.44c.13-.65.23-1.25.32-1.81Z"/>
      <path class="cls-1" d="M65.21,232.22l.15-.78,2.57-.46.45.26-.15,2.17c.13-.39.34-.77.63-1.14s.63-.68,1.05-.93.86-.36,1.34-.36c.12,0,.23.01.34.04s.19.06.24.11l-.51,2.57c-.08-.06-.21-.11-.37-.16s-.36-.07-.59-.07c-.43,0-.84.09-1.22.27s-.68.47-.91.87l-.87,6.59h-2.35l1.12-8.46-.91-.53Z"/>
      <path class="cls-1" d="M78.75,231.26c.41.19.71.45.9.78s.29.71.29,1.13c0,.83-.31,1.53-.94,2.1s-1.37,1-2.25,1.28-1.68.42-2.43.42c-.02.52.03,1,.15,1.43.12.43.31.77.58,1.02.27.25.6.38,1.02.38,1,0,1.93-.45,2.79-1.36l.49.81c-.19.29-.47.58-.83.88s-.81.56-1.34.77-1.11.32-1.73.32c-.84,0-1.53-.18-2.09-.54s-.96-.83-1.22-1.42c-.26-.58-.39-1.22-.39-1.91,0-1.15.24-2.22.72-3.19.48-.97,1.14-1.75,1.98-2.32s1.76-.86,2.78-.86c.61,0,1.12.09,1.52.28ZM77.33,232.43c-.16-.21-.37-.31-.65-.31-.48,0-.89.2-1.22.61-.33.41-.59.9-.77,1.48s-.29,1.16-.35,1.73c.43,0,.9-.11,1.41-.32.51-.21.94-.52,1.29-.91.35-.39.53-.84.53-1.34,0-.41-.08-.72-.23-.93Z"/>
      <path class="cls-1" d="M91.11,237.72c-.54-1.25-.93-2.1-1.17-2.57l-1.63,1.7-.41,3.23,1.47.25-.08.86h-5.27l.1-.85,1.29-.26,1.43-11.11-1.22-.22.11-.93h5.19l-.1.93-1.49.22-.78,6.03,5.43-6.03-1.12-.23.11-.92h4.08l-.12.93-1.02.21-4.33,4.5c.23.38.68,1.23,1.36,2.54l.67,1.27.09.16c.51.93.87,1.56,1.09,1.9s.42.56.59.66l1.08.33-.11.88h-3.18c-.23-.03-.46-.24-.7-.64s-.53-.98-.87-1.75l-.48-1.09Z"/>
      <path class="cls-1" d="M97.27,232.02l.14-.75,3.14-.46.47.21-1.17,8.17c-.01.12-.02.2-.02.25,0,.28.09.42.27.42.1,0,.22-.04.35-.11s.31-.2.52-.38l.25.57c-.1.14-.26.31-.47.5s-.49.37-.83.53-.7.24-1.1.24c-.47,0-.84-.09-1.09-.28s-.38-.45-.38-.8c0-.07,0-.13,0-.17.08-.67.25-1.88.5-3.62l.54-3.81-1.13-.51ZM98.95,227.22c.13-.24.32-.43.55-.57s.49-.21.77-.21c.26,0,.49.06.69.17s.35.26.46.44.16.38.16.59c0,.29-.06.56-.19.8s-.31.44-.55.58-.53.22-.86.22c-.22,0-.42-.06-.61-.18s-.34-.27-.46-.47-.17-.4-.17-.61c0-.28.07-.54.2-.78Z"/>
      <path class="cls-1" d="M102.77,232.22l.15-.78,2.78-.46.44.21-.15,1.82c.45-.62.97-1.11,1.56-1.48s1.21-.55,1.86-.55c.69,0,1.23.21,1.61.62s.57,1.09.57,2.04c0,.3-.04.71-.12,1.22s-.19,1.15-.32,1.91c-.05.28-.08.5-.11.64-.01.08-.04.28-.1.6s-.09.61-.12.86-.04.47-.04.65c0,.35.09.52.27.52.09,0,.19-.03.3-.09s.27-.16.48-.32l.25.56c-.09.11-.24.24-.45.4-.21.15-.48.3-.81.43s-.69.2-1.09.2c-.54,0-.92-.11-1.14-.33-.22-.22-.33-.52-.33-.91,0-.21.02-.48.07-.79.05-.32.1-.63.15-.94.06-.31.09-.52.11-.62l.08-.41c.13-.73.24-1.36.32-1.88s.12-1.01.12-1.46c0-.36-.03-.64-.09-.83s-.15-.32-.26-.39c-.11-.07-.27-.1-.47-.1-.38,0-.8.2-1.27.6s-.88.9-1.23,1.49l-.9,6.55h-2.35l1.14-8.46-.91-.52Z"/>
      <path class="cls-1" d="M113.8,234.42c.45-1.01,1.12-1.83,2-2.47s1.94-.96,3.16-.96c.32,0,.67.04,1.04.11l.44-2.92-1.25-.38.18-.73,3.15-.37.48.24-1.8,12.25c-.01.12-.02.19-.02.23,0,.29.09.44.27.44.09,0,.19-.03.31-.08.12-.06.28-.16.48-.31l.25.54c-.2.26-.49.52-.87.79s-.83.4-1.36.4c-.46,0-.79-.12-1.01-.35-.22-.23-.33-.6-.33-1.09-.31.41-.71.75-1.19,1.03-.48.27-1.03.41-1.64.41-.67,0-1.23-.16-1.68-.48-.45-.32-.77-.75-.98-1.31s-.31-1.18-.31-1.9c0-1.07.23-2.1.68-3.11ZM119.81,232.36c-.28-.14-.64-.22-1.09-.22-.71,0-1.31.27-1.78.82-.47.55-.81,1.23-1.03,2.04-.21.81-.32,1.63-.32,2.45,0,.77.12,1.36.35,1.79s.56.63.97.63c.38,0,.73-.11,1.07-.34s.63-.51.87-.85l.96-6.32Z"/>
      <path class="cls-1" d="M130.5,231.26c.41.19.71.45.9.78s.29.71.29,1.13c0,.83-.31,1.53-.94,2.1s-1.37,1-2.25,1.28-1.68.42-2.43.42c-.02.52.03,1,.15,1.43.12.43.31.77.58,1.02.27.25.6.38,1.02.38,1,0,1.93-.45,2.79-1.36l.49.81c-.19.29-.47.58-.83.88s-.81.56-1.34.77-1.11.32-1.73.32c-.84,0-1.53-.18-2.09-.54s-.96-.83-1.22-1.42c-.26-.58-.39-1.22-.39-1.91,0-1.15.24-2.22.72-3.19.48-.97,1.14-1.75,1.98-2.32s1.76-.86,2.78-.86c.61,0,1.12.09,1.52.28ZM129.09,232.43c-.16-.21-.37-.31-.65-.31-.48,0-.89.2-1.22.61-.33.41-.59.9-.77,1.48s-.29,1.16-.35,1.73c.43,0,.9-.11,1.41-.32.51-.21.94-.52,1.29-.91.35-.39.53-.84.53-1.34,0-.41-.08-.72-.23-.93Z"/>
      <path class="cls-1" d="M133.01,232.22l.15-.78,2.57-.46.45.26-.15,2.17c.13-.39.34-.77.63-1.14s.63-.68,1.05-.93.86-.36,1.34-.36c.12,0,.23.01.34.04s.19.06.24.11l-.51,2.57c-.08-.06-.21-.11-.37-.16s-.36-.07-.59-.07c-.43,0-.84.09-1.22.27s-.68.47-.9.87l-.87,6.59h-2.35l1.12-8.46-.91-.53Z"/>
      <path class="cls-1" d="M143.88,232.02l.14-.75,3.14-.46.47.21-1.17,8.17c-.01.12-.02.2-.02.25,0,.28.09.42.27.42.1,0,.21-.04.35-.11s.31-.2.52-.38l.25.57c-.1.14-.26.31-.47.5s-.49.37-.83.53-.7.24-1.1.24c-.47,0-.84-.09-1.09-.28s-.38-.45-.38-.8c0-.07,0-.13,0-.17.08-.67.25-1.88.5-3.62l.54-3.81-1.13-.51ZM145.55,227.22c.13-.24.32-.43.55-.57s.49-.21.77-.21c.26,0,.49.06.69.17s.35.26.46.44.16.38.16.59c0,.29-.06.56-.19.8s-.31.44-.55.58-.53.22-.86.22c-.22,0-.42-.06-.61-.18s-.34-.27-.46-.47-.17-.4-.17-.61c0-.28.07-.54.2-.78Z"/>
      <path class="cls-1" d="M155.74,233.96c0-.4-.03-.71-.09-.91s-.15-.33-.28-.4-.29-.1-.51-.1c-.36,0-.77.19-1.24.58s-.88.86-1.24,1.43l-.91,6.64h-2.35l1.15-8.46-.91-.53.16-.78,2.77-.46.44.21-.15,1.85c.44-.62.95-1.11,1.53-1.49s1.19-.57,1.82-.57,1.14.17,1.52.5.6.88.67,1.64c.43-.66.94-1.18,1.55-1.56s1.25-.58,1.94-.58,1.2.21,1.59.64.58,1.1.58,2.02c0,.29-.04.69-.11,1.19s-.17,1.15-.31,1.94l-.08.47c-.1.57-.17,1.02-.22,1.37s-.07.66-.07.95c0,.33.09.49.26.49.1,0,.21-.03.34-.1s.3-.19.53-.38l.25.56c-.11.12-.26.26-.47.43s-.48.32-.82.46c-.34.14-.71.21-1.12.21-.54,0-.92-.11-1.13-.34-.22-.22-.33-.53-.33-.92,0-.28.03-.63.1-1.06.06-.42.16-.99.29-1.71l.04-.21c.12-.67.21-1.25.27-1.74s.1-.94.1-1.35c0-.36-.03-.63-.09-.82s-.15-.32-.26-.39c-.11-.07-.25-.1-.43-.1-.37,0-.78.18-1.22.53s-.84.81-1.19,1.37c-.05.69-.13,1.46-.25,2.29l-.54,4.44h-2.41l.5-3.89c.21-1.41.31-2.53.31-3.35Z"/>
      <path class="cls-1" d="M170.95,228.98l-1.23-.21.11-.95h5.27l-.1.91-1.56.23-.9,6.71c-.09.74-.13,1.31-.13,1.71.01.88.22,1.56.63,2.06s.99.74,1.74.74c1.01,0,1.79-.38,2.34-1.14.54-.76.92-1.9,1.12-3.43l.91-6.62-1.25-.23.1-.94h3.96l-.11.91-1.12.22-.88,6.64c-.18,1.35-.49,2.44-.95,3.26-.46.83-1.06,1.42-1.81,1.8-.75.37-1.65.56-2.72.56-.98,0-1.8-.16-2.46-.49-.66-.33-1.14-.78-1.46-1.36s-.48-1.26-.49-2.03c-.01-.47,0-.94.06-1.43l.92-6.92Z"/>
      <path class="cls-1" d="M188.33,233.96c0-.4-.03-.71-.09-.91s-.15-.33-.28-.4-.29-.1-.51-.1c-.36,0-.77.19-1.24.58s-.88.86-1.24,1.43l-.91,6.64h-2.35l1.15-8.46-.91-.53.16-.78,2.77-.46.44.21-.15,1.85c.44-.62.95-1.11,1.53-1.49s1.19-.57,1.82-.57,1.14.17,1.52.5.6.88.67,1.64c.43-.66.95-1.18,1.55-1.56.61-.39,1.25-.58,1.94-.58s1.2.21,1.59.64.58,1.1.58,2.02c0,.29-.04.69-.11,1.19s-.17,1.15-.31,1.94l-.08.47c-.1.57-.17,1.02-.22,1.37s-.07.66-.07.95c0,.33.09.49.26.49.1,0,.21-.03.34-.1.12-.07.3-.19.53-.38l.26.56c-.11.12-.26.26-.47.43-.21.17-.48.32-.82.46-.34.14-.71.21-1.12.21-.54,0-.92-.11-1.13-.34-.22-.22-.32-.53-.32-.92,0-.28.03-.63.1-1.06.06-.42.16-.99.29-1.71l.04-.21c.12-.67.21-1.25.27-1.74s.1-.94.1-1.35c0-.36-.03-.63-.09-.82-.06-.19-.15-.32-.26-.39-.11-.07-.26-.1-.43-.1-.37,0-.78.18-1.22.53s-.84.81-1.19,1.37c-.05.69-.13,1.46-.25,2.29l-.54,4.44h-2.41l.5-3.89c.21-1.41.31-2.53.31-3.35Z"/>
      <path class="cls-1" d="M204.89,231.09c.37.08.7.17,1,.27l1.27-.39-1.56,10.92c-.13.93-.46,1.68-.99,2.25s-1.16.98-1.88,1.23-1.48.37-2.25.37c-.39,0-.8-.04-1.23-.11s-.75-.16-.94-.25l.45-1.82c.25.16.61.33,1.08.51.47.18.91.27,1.34.27.46,0,.82-.05,1.08-.16s.46-.29.6-.57c.14-.27.25-.68.32-1.21l.29-2.21c-.32.3-.69.55-1.11.73s-.87.28-1.37.28c-.67,0-1.24-.16-1.69-.48-.45-.32-.79-.76-1-1.31-.22-.55-.33-1.18-.33-1.89,0-1.05.23-2.09.7-3.1.46-1.01,1.14-1.84,2.03-2.48.89-.65,1.94-.97,3.15-.97.33,0,.69.04,1.05.11ZM204.61,232.32c-.28-.12-.62-.18-1.01-.18-.72,0-1.32.27-1.79.81s-.82,1.22-1.03,2.03-.33,1.62-.33,2.43c0,.76.12,1.35.36,1.77.24.42.57.63.98.63.35,0,.68-.1,1-.29.32-.19.61-.44.86-.74l.96-6.45Z"/>
      <path class="cls-1" d="M214.88,231.08c.35.07.67.15.97.24l1.2-.34-1.14,8.24s0,.1,0,.17c0,.16.03.28.09.36.06.08.13.12.23.12.19,0,.46-.13.8-.39l.26.55c-.08.13-.23.29-.43.47-.21.18-.47.35-.79.5s-.66.22-1.02.22c-.42,0-.75-.1-.99-.3s-.35-.5-.33-.88l-.07-.11c-.35.38-.75.69-1.21.94-.46.24-.95.37-1.47.37-1,0-1.73-.34-2.21-1.02-.48-.68-.72-1.57-.72-2.67s.23-2.09.7-3.1c.46-1.01,1.14-1.84,2.03-2.48.89-.65,1.94-.97,3.15-.97.3,0,.62.03.98.1ZM214.52,232.26c-.24-.08-.52-.12-.85-.12-.72,0-1.32.27-1.79.81-.47.54-.82,1.21-1.03,2.02-.22.81-.33,1.62-.33,2.44s.11,1.38.33,1.81.53.64.95.64c.32,0,.63-.1.95-.31.32-.21.62-.47.89-.79l.88-6.5Z"/>
      <path class="cls-1" d="M218.72,232.22l.15-.78,2.78-.46.44.21-.15,1.82c.45-.62.96-1.11,1.56-1.48s1.21-.55,1.86-.55c.69,0,1.23.21,1.61.62s.57,1.09.57,2.04c0,.3-.04.71-.12,1.22-.08.52-.19,1.15-.32,1.91-.05.28-.08.5-.11.64-.01.08-.04.28-.1.6s-.09.61-.12.86-.04.47-.04.65c0,.35.09.52.27.52.09,0,.19-.03.3-.09.12-.06.27-.16.48-.32l.25.56c-.09.11-.24.24-.45.4-.21.15-.48.3-.81.43s-.69.2-1.09.2c-.54,0-.92-.11-1.14-.33-.22-.22-.33-.52-.33-.91,0-.21.02-.48.07-.79.05-.32.1-.63.15-.94.06-.31.09-.52.11-.62l.08-.41c.13-.73.24-1.36.32-1.88.08-.52.12-1.01.12-1.46,0-.36-.03-.64-.09-.83-.06-.19-.15-.32-.26-.39-.12-.07-.27-.1-.47-.1-.38,0-.8.2-1.27.6-.47.4-.88.9-1.24,1.49l-.9,6.55h-2.35l1.14-8.46-.91-.52Z"/>
      <path class="cls-1" d="M236.01,231.09c.37.08.7.17,1,.27l1.27-.39-1.56,10.92c-.13.93-.46,1.68-.99,2.25s-1.16.98-1.88,1.23-1.48.37-2.25.37c-.39,0-.8-.04-1.23-.11s-.75-.16-.94-.25l.45-1.82c.25.16.61.33,1.08.51.47.18.91.27,1.34.27.46,0,.82-.05,1.08-.16s.46-.29.6-.57c.14-.27.25-.68.32-1.21l.29-2.21c-.32.3-.69.55-1.11.73s-.87.28-1.37.28c-.67,0-1.24-.16-1.69-.48-.45-.32-.79-.76-1-1.31-.22-.55-.33-1.18-.33-1.89,0-1.05.23-2.09.7-3.1.46-1.01,1.14-1.84,2.03-2.48.89-.65,1.94-.97,3.15-.97.33,0,.69.04,1.05.11ZM235.73,232.32c-.28-.12-.62-.18-1.01-.18-.72,0-1.32.27-1.79.81s-.82,1.22-1.03,2.03-.33,1.62-.33,2.43c0,.76.12,1.35.36,1.77.24.42.57.63.98.63.35,0,.68-.1,1-.29.32-.19.61-.44.86-.74l.96-6.45Z"/>
      <path class="cls-1" d="M249.95,233.96c0-.4-.03-.71-.09-.91-.06-.2-.15-.33-.28-.4s-.29-.1-.51-.1c-.36,0-.77.19-1.24.58s-.88.86-1.24,1.43l-.91,6.64h-2.35l1.15-8.46-.91-.53.16-.78,2.77-.46.44.21-.15,1.85c.44-.62.95-1.11,1.53-1.49s1.19-.57,1.82-.57,1.14.17,1.52.5.6.88.67,1.64c.43-.66.94-1.18,1.55-1.56.61-.39,1.25-.58,1.94-.58s1.2.21,1.59.64.58,1.1.58,2.02c0,.29-.04.69-.11,1.19s-.17,1.15-.31,1.94l-.08.47c-.1.57-.17,1.02-.22,1.37s-.07.66-.07.95c0,.33.09.49.26.49.1,0,.21-.03.34-.1s.3-.19.53-.38l.25.56c-.11.12-.26.26-.47.43s-.48.32-.82.46c-.34.14-.71.21-1.12.21-.54,0-.92-.11-1.13-.34-.22-.22-.33-.53-.33-.92,0-.28.03-.63.1-1.06.06-.42.16-.99.29-1.71l.04-.21c.12-.67.21-1.25.27-1.74s.1-.94.1-1.35c0-.36-.03-.63-.09-.82-.06-.19-.15-.32-.26-.39-.11-.07-.25-.1-.43-.1-.37,0-.78.18-1.22.53s-.84.81-1.19,1.37c-.05.69-.13,1.46-.25,2.29l-.54,4.44h-2.41l.5-3.89c.21-1.41.31-2.53.31-3.35Z"/>
      <path class="cls-1" d="M260.03,232.02l.14-.75,3.14-.46.47.21-1.17,8.17c-.01.12-.02.2-.02.25,0,.28.09.42.27.42.1,0,.21-.04.35-.11.13-.07.31-.2.52-.38l.25.57c-.1.14-.26.31-.47.5s-.49.37-.83.53-.7.24-1.1.24c-.47,0-.84-.09-1.09-.28s-.38-.45-.38-.8c0-.07,0-.13,0-.17.08-.67.25-1.88.5-3.62l.54-3.81-1.13-.51ZM261.71,227.22c.13-.24.32-.43.55-.57s.49-.21.77-.21c.26,0,.49.06.69.17s.35.26.46.44.16.38.16.59c0,.29-.06.56-.19.8-.13.24-.31.44-.55.58s-.53.22-.86.22c-.22,0-.42-.06-.61-.18-.19-.12-.34-.27-.46-.47-.12-.19-.17-.4-.17-.61,0-.28.07-.54.2-.78Z"/>
      <path class="cls-1" d="M266.38,232.31h-1.05l.2-.89,1.07-.42c.21-.21.43-.53.66-.97s.45-.92.65-1.43h1.29l-.29,2.39h2.04l-.19,1.33h-2.01l-.73,5.34c-.09.65-.14,1.1-.14,1.36,0,.28.05.47.15.58s.28.17.54.17c.23,0,.5-.06.8-.17.31-.12.56-.25.77-.42l.19.69c-.17.2-.42.41-.74.62-.32.21-.7.39-1.13.53-.43.14-.88.21-1.35.21s-.88-.12-1.2-.37-.47-.64-.47-1.19c0-.21.06-.76.18-1.67l.75-5.68Z"/>
      <path class="cls-1" d="M16.57,265.08l.66-5.1h-5.26l-.66,5.11,1.47.25-.07.86h-5.23l.09-.85,1.25-.26,1.44-11.11-1.23-.22.11-.93h5.19l-.11.93-1.48.22-.62,4.81h5.25l.62-4.81-1.45-.22.1-.93h5.25l-.11.93-1.29.22-1.43,11.1,1.36.27-.1.85h-5.43l.1-.86,1.57-.26Z"/>
      <path class="cls-1" d="M28.57,256.08c.35.07.67.15.97.24l1.2-.34-1.14,8.24s0,.1,0,.17c0,.16.03.28.09.36s.13.12.23.12c.19,0,.46-.13.8-.39l.26.55c-.08.13-.23.29-.44.47s-.47.35-.79.5-.66.22-1.02.22c-.42,0-.75-.1-.99-.3s-.35-.5-.33-.88l-.07-.11c-.35.38-.75.69-1.21.94s-.94.36-1.47.36c-1,0-1.73-.34-2.21-1.02-.48-.68-.72-1.57-.72-2.67s.23-2.09.7-3.1c.47-1.01,1.14-1.84,2.03-2.48s1.94-.97,3.15-.97c.3,0,.62.03.98.1ZM28.21,257.26c-.24-.08-.52-.12-.85-.12-.72,0-1.32.27-1.79.81-.47.54-.82,1.21-1.03,2.02s-.33,1.62-.33,2.44.11,1.38.33,1.81.53.64.95.64c.32,0,.63-.1.95-.31.32-.21.62-.47.89-.79l.88-6.5Z"/>
      <path class="cls-1" d="M32.41,257.22l.15-.78,2.78-.46.44.21-.15,1.82c.45-.62.97-1.11,1.56-1.48s1.21-.55,1.86-.55c.69,0,1.23.21,1.61.62.38.41.57,1.09.57,2.03,0,.3-.04.71-.12,1.22s-.19,1.15-.32,1.91c-.05.28-.08.5-.11.64-.01.08-.04.28-.1.6-.05.32-.09.61-.12.86s-.04.47-.04.65c0,.35.09.52.27.52.09,0,.19-.03.3-.09s.27-.16.48-.32l.25.56c-.09.11-.24.24-.45.4-.21.15-.48.3-.81.43s-.69.2-1.09.2c-.54,0-.92-.11-1.14-.33-.22-.22-.33-.52-.33-.91,0-.21.02-.48.07-.79.05-.32.1-.63.15-.94.06-.31.09-.52.11-.62l.08-.41c.13-.73.24-1.36.32-1.88s.12-1.01.12-1.46c0-.36-.03-.64-.09-.83s-.15-.32-.26-.39c-.11-.07-.27-.1-.47-.1-.38,0-.8.2-1.27.6s-.88.9-1.23,1.49l-.9,6.55h-2.35l1.14-8.46-.91-.52Z"/>
      <path class="cls-1" d="M43.44,259.42c.45-1.01,1.12-1.83,2-2.47.88-.64,1.94-.96,3.16-.96.32,0,.67.04,1.04.11l.44-2.92-1.25-.38.18-.73,3.15-.37.48.24-1.8,12.25c-.01.12-.02.19-.02.23,0,.29.09.44.27.44.09,0,.19-.03.31-.08s.28-.16.48-.31l.25.54c-.2.26-.49.52-.87.79s-.83.4-1.36.4c-.46,0-.79-.12-1.01-.35-.22-.23-.33-.6-.33-1.09-.31.41-.71.75-1.19,1.03s-1.03.41-1.64.41c-.67,0-1.23-.16-1.68-.48-.45-.32-.77-.76-.98-1.31-.21-.55-.31-1.18-.31-1.9,0-1.07.23-2.1.68-3.11ZM49.46,257.36c-.28-.14-.64-.22-1.09-.22-.71,0-1.31.27-1.78.82-.47.55-.81,1.23-1.03,2.04-.21.81-.32,1.63-.32,2.45,0,.77.12,1.36.35,1.79s.56.63.97.63c.38,0,.73-.11,1.07-.34.34-.23.63-.51.87-.84l.96-6.32Z"/>
      <path class="cls-1" d="M53.67,257.53c-.06-.08-.13-.11-.22-.11-.08,0-.17.02-.25.05s-.19.11-.31.22l-.25-.65c.07-.11.21-.24.42-.41s.47-.32.77-.46.61-.2.94-.2c.46,0,.8.1,1.02.3.22.2.36.5.42.9.06.34.15.94.26,1.79.12.85.2,1.46.25,1.85.2,1.51.34,2.53.43,3.09l.22,2.03.91-1.88.1-.22c.33-.73.59-1.33.77-1.81s.34-.98.47-1.5.19-1.04.19-1.56c0-.19-.02-.36-.05-.5-.04-.14-.08-.3-.15-.49-.06-.18-.11-.34-.15-.46-.03-.13-.05-.27-.05-.45,0-.33.1-.6.3-.79s.48-.29.85-.29c.45,0,.8.17,1.04.5s.36.75.36,1.26c0,.57-.07,1.13-.21,1.68s-.31,1.06-.52,1.53c-.21.47-.49,1.06-.84,1.78l-.13.27c-.5,1.06-1.06,2.11-1.68,3.15-.62,1.04-1.15,1.89-1.6,2.54-.86,1.38-2.04,2.06-3.54,2.06-.28,0-.59-.04-.94-.11s-.6-.14-.75-.22l.56-1.6c.13.11.35.21.65.3s.6.14.93.14c.52,0,1.03-.2,1.55-.59.52-.39,1.01-1.02,1.49-1.88h-1.35l-1.73-8.88c-.04-.18-.09-.3-.15-.38Z"/>
      <path class="cls-1" d="M67.6,257.7l-.99-.62.14-.81,2.93-.37.44.26-.61,4.76c-.04.35-.08.62-.11.81-.06.46-.11.82-.14,1.09s-.04.52-.04.74c0,.48.08.81.25,1.01s.42.29.77.29.7-.11,1.05-.32.65-.48.92-.8l1.05-7.77h2.36l-1.12,8.22c-.01.12-.02.19-.02.23,0,.29.1.44.3.44.1,0,.21-.03.33-.09s.3-.19.54-.39l.25.56c-.07.12-.22.29-.44.49s-.5.38-.83.54-.68.24-1.06.24c-.45,0-.78-.09-1.01-.29s-.34-.45-.34-.79c0-.06.01-.17.04-.32l-.04-.05c-.37.42-.79.77-1.27,1.04s-1.05.41-1.71.41-1.25-.18-1.72-.55c-.47-.36-.7-.94-.71-1.74,0-.31.02-.67.07-1.09s.12-.93.21-1.52l.06-.45.46-3.16Z"/>
      <path class="cls-1" d="M77.35,257.22l.15-.78,2.78-.46.44.21-.15,1.82c.45-.62.97-1.11,1.56-1.48s1.21-.55,1.86-.55c.69,0,1.23.21,1.61.62.38.41.57,1.09.57,2.03,0,.3-.04.71-.12,1.22s-.19,1.15-.32,1.91c-.05.28-.08.5-.11.64-.01.08-.04.28-.1.6-.05.32-.09.61-.12.86s-.04.47-.04.65c0,.35.09.52.27.52.09,0,.19-.03.3-.09s.27-.16.48-.32l.25.56c-.09.11-.24.24-.45.4-.21.15-.48.3-.81.43s-.69.2-1.09.2c-.54,0-.92-.11-1.14-.33-.22-.22-.33-.52-.33-.91,0-.21.02-.48.07-.79.05-.32.1-.63.15-.94.06-.31.09-.52.11-.62l.08-.41c.13-.73.24-1.36.32-1.88s.12-1.01.12-1.46c0-.36-.03-.64-.09-.83s-.15-.32-.26-.39c-.11-.07-.27-.1-.47-.1-.38,0-.8.2-1.27.6s-.88.9-1.23,1.49l-.9,6.55h-2.35l1.14-8.46-.91-.52Z"/>
      <path class="cls-1" d="M88.38,259.42c.45-1.01,1.12-1.83,2-2.47.88-.64,1.94-.96,3.16-.96.32,0,.67.04,1.04.11l.44-2.92-1.25-.38.18-.73,3.15-.37.48.24-1.8,12.25c-.01.12-.02.19-.02.23,0,.29.09.44.27.44.09,0,.19-.03.31-.08s.28-.16.48-.31l.25.54c-.2.26-.49.52-.87.79s-.83.4-1.36.4c-.46,0-.79-.12-1.01-.35-.22-.23-.33-.6-.33-1.09-.31.41-.71.75-1.19,1.03s-1.03.41-1.64.41c-.67,0-1.23-.16-1.68-.48-.45-.32-.77-.76-.98-1.31-.21-.55-.31-1.18-.31-1.9,0-1.07.23-2.1.68-3.11ZM94.39,257.36c-.28-.14-.64-.22-1.09-.22-.71,0-1.31.27-1.78.82-.47.55-.81,1.23-1.03,2.04-.21.81-.32,1.63-.32,2.45,0,.77.12,1.36.35,1.79s.56.63.97.63c.38,0,.73-.11,1.07-.34.34-.23.63-.51.87-.84l.96-6.32Z"/>
      <path class="cls-1" d="M110.88,252.91c.42.06.83.15,1.24.25.04.01.11.03.23.06l.32.09-.56,3.32h-1.7l-.28-2.46c-.4-.18-.83-.27-1.28-.27-.95,0-1.74.34-2.36,1.02s-1.08,1.52-1.37,2.52-.41,2.01-.39,3c.04,1.39.27,2.5.7,3.3s1.1,1.21,1.99,1.21c.39,0,.77-.05,1.16-.16s.7-.3.94-.58c.08-.08.19-.32.33-.71s.25-.72.33-1h1.46l-.37,2.64c-.47.29-1.05.54-1.72.75s-1.52.32-2.54.32c-1.17,0-2.12-.26-2.87-.79-.75-.53-1.29-1.22-1.63-2.07-.34-.85-.51-1.8-.51-2.83,0-1.55.31-2.92.93-4.08s1.48-2.06,2.57-2.69c1.1-.63,2.33-.94,3.72-.94.69,0,1.25.03,1.67.1Z"/>
      <path class="cls-1" d="M120.83,257.05c.64.71.97,1.74.97,3.08,0,1.08-.23,2.09-.68,3.02-.45.93-1.08,1.67-1.9,2.23-.81.56-1.74.83-2.79.83-1.24,0-2.18-.36-2.82-1.08s-.96-1.75-.96-3.09c0-1.08.22-2.09.67-3.02.45-.93,1.08-1.67,1.89-2.22s1.74-.83,2.79-.83c1.24,0,2.18.36,2.82,1.07ZM118.83,257.87c-.25-.48-.63-.73-1.14-.73-.54,0-.99.24-1.37.72s-.65,1.09-.83,1.83-.27,1.5-.27,2.28v.26c.02.97.16,1.69.41,2.16s.64.7,1.15.7c.54,0,1-.25,1.36-.74.36-.49.63-1.12.8-1.87s.25-1.53.25-2.33c0-1.04-.12-1.81-.37-2.29Z"/>
      <path class="cls-1" d="M125.09,263.72c.21.23.31.51.31.85s-.08.64-.24.89-.36.43-.62.56-.52.19-.79.19c-.32,0-.59-.11-.8-.33s-.31-.51-.31-.86c0-.32.07-.6.22-.85.15-.25.34-.44.58-.58.24-.14.49-.21.75-.21.39,0,.68.11.89.34Z"/>
      <path class="cls-1" d="M137.85,256.09c.37.08.7.17,1,.27l1.27-.39-1.56,10.92c-.13.93-.46,1.68-.99,2.25-.53.57-1.16.98-1.89,1.23-.73.25-1.48.37-2.25.37-.39,0-.8-.04-1.23-.11s-.75-.16-.94-.25l.45-1.82c.25.16.61.33,1.08.51.47.18.91.27,1.34.27.46,0,.82-.05,1.08-.16.26-.1.46-.29.6-.57s.25-.68.32-1.21l.29-2.21c-.32.3-.69.55-1.11.73s-.87.28-1.37.28c-.67,0-1.24-.16-1.69-.48-.45-.32-.79-.76-1-1.31s-.33-1.18-.33-1.89c0-1.06.23-2.09.7-3.1.47-1.01,1.14-1.84,2.03-2.48s1.94-.97,3.15-.97c.33,0,.69.04,1.05.11ZM137.56,257.32c-.28-.12-.62-.18-1.01-.18-.72,0-1.32.27-1.79.81s-.82,1.22-1.03,2.03-.33,1.62-.33,2.43c0,.76.12,1.35.36,1.77.24.42.57.63.98.63.35,0,.68-.1,1-.29.32-.2.61-.44.86-.74l.96-6.45Z"/>
      <path class="cls-1" d="M142.38,257.7l-.99-.62.14-.81,2.93-.37.44.26-.61,4.76c-.04.35-.08.62-.11.81-.06.46-.11.82-.14,1.09s-.04.52-.04.74c0,.48.08.81.25,1.01s.42.29.77.29.7-.11,1.05-.32.65-.48.92-.8l1.05-7.77h2.36l-1.12,8.22c-.01.12-.02.19-.02.23,0,.29.1.44.3.44.1,0,.21-.03.33-.09s.3-.19.54-.39l.25.56c-.07.12-.22.29-.44.49s-.5.38-.83.54-.68.24-1.06.24c-.45,0-.78-.09-1.01-.29s-.34-.45-.34-.79c0-.06.01-.17.04-.32l-.04-.05c-.37.42-.79.77-1.27,1.04s-1.05.41-1.71.41-1.25-.18-1.72-.55c-.47-.36-.7-.94-.71-1.74,0-.31.03-.67.08-1.09s.12-.93.21-1.52l.06-.45.46-3.16Z"/>
      <path class="cls-1" d="M152.97,257.31h-1.05l.2-.89,1.07-.42c.21-.21.43-.53.66-.97.23-.44.45-.92.65-1.43h1.29l-.29,2.39h2.04l-.19,1.33h-2.01l-.73,5.34c-.09.65-.14,1.1-.14,1.36,0,.28.05.47.15.58s.28.17.54.17c.23,0,.5-.06.8-.17s.56-.25.77-.42l.19.69c-.17.2-.42.41-.74.62-.32.21-.7.39-1.13.53s-.88.21-1.35.21-.88-.12-1.2-.37-.47-.64-.47-1.19c0-.21.06-.76.18-1.67l.75-5.68Z"/>
      <path class="cls-1" d="M163.55,255.97h2.82c1.14.14,1.91.21,2.3.21.19,0,.36-.02.49-.05s.26-.1.38-.2l.02-.02.48.54-5.7,6.95-.9.75h3.25c.44,0,.8-.13,1.08-.4.28-.26.45-.6.51-1h.73c.01.17.02.33.02.48,0,.59-.06,1.17-.17,1.72s-.29.91-.54,1.08c-.16.12-.47.17-.91.17-.52,0-1.48,0-2.9,0-1.18,0-1.97,0-2.36,0-.15,0-.31,0-.48,0s-.3,0-.41,0l-.04.04-.57-.34,5.67-7.05,1.05-.89h-3.14c-.4,0-.72.13-.96.39-.24.26-.39.58-.43.98h-.76c-.02-.17-.03-.38-.03-.64,0-.57.05-1.11.16-1.61.11-.5.28-.8.51-.92.23-.12.5-.19.81-.19Z"/>
      <path class="cls-1" d="M171.45,257.7l-.99-.62.14-.81,2.93-.37.44.26-.61,4.76c-.04.35-.08.62-.11.81-.06.46-.11.82-.14,1.09s-.04.52-.04.74c0,.48.08.81.25,1.01s.42.29.77.29.7-.11,1.05-.32.66-.48.92-.8l1.05-7.77h2.36l-1.12,8.22c-.01.12-.02.19-.02.23,0,.29.1.44.3.44.1,0,.21-.03.33-.09s.3-.19.54-.39l.25.56c-.07.12-.22.29-.44.49s-.5.38-.83.54-.68.24-1.06.24c-.45,0-.78-.09-1.01-.29s-.34-.45-.34-.79c0-.06.01-.17.04-.32l-.04-.05c-.37.42-.79.77-1.27,1.04s-1.05.41-1.71.41-1.25-.18-1.72-.55c-.47-.36-.7-.94-.71-1.74,0-.31.02-.67.07-1.09s.12-.93.21-1.52l.06-.45.46-3.16Z"/>
      <path class="cls-1" d="M185.53,252.78l.18-.74,2.71-.34.47.24-.69,5.16c.32-.33.7-.6,1.12-.8.43-.21.9-.31,1.42-.31.99,0,1.74.33,2.25.99s.76,1.58.76,2.75c0,1.09-.24,2.13-.71,3.13s-1.15,1.81-2.04,2.43-1.91.93-3.08.93c-.33,0-.69-.04-1.07-.11s-.73-.16-1.06-.27l-1.09.38,1.69-13.05-.88-.38ZM187.14,264.89c.26.11.6.17,1.04.17.7,0,1.28-.26,1.74-.78.47-.52.81-1.19,1.03-1.99s.33-1.64.33-2.49c0-.72-.12-1.3-.36-1.74-.24-.44-.57-.66-1.01-.66-.36,0-.71.11-1.04.33s-.62.49-.88.82l-.86,6.35Z"/>
      <path class="cls-1" d="M201.68,256.26c.41.19.71.45.9.78.19.33.29.71.29,1.13,0,.83-.31,1.53-.94,2.1-.62.57-1.37,1-2.25,1.28s-1.68.42-2.43.42c-.02.52.03,1,.15,1.43.12.43.31.77.58,1.02s.61.38,1.02.38c1,0,1.93-.45,2.79-1.36l.49.81c-.19.29-.47.58-.83.88-.36.3-.81.56-1.34.77-.53.21-1.11.32-1.73.32-.84,0-1.53-.18-2.09-.54-.55-.36-.96-.83-1.22-1.42-.26-.58-.39-1.22-.39-1.91,0-1.15.24-2.22.72-3.19.48-.97,1.14-1.75,1.98-2.32.84-.57,1.76-.86,2.78-.86.61,0,1.12.09,1.52.29ZM200.26,257.43c-.16-.21-.37-.31-.66-.31-.48,0-.89.2-1.22.61s-.59.9-.77,1.48-.29,1.16-.35,1.73c.43,0,.9-.11,1.41-.32.51-.21.94-.52,1.29-.91.35-.39.53-.84.53-1.34,0-.41-.08-.72-.23-.93Z"/>
      <path class="cls-1" d="M210.59,256.09c.37.08.7.17,1,.27l1.27-.39-1.56,10.92c-.13.93-.46,1.68-.99,2.25-.53.57-1.16.98-1.88,1.23-.73.25-1.48.37-2.25.37-.39,0-.8-.04-1.23-.11s-.75-.16-.94-.25l.45-1.82c.25.16.61.33,1.08.51.47.18.91.27,1.34.27.46,0,.82-.05,1.08-.16.26-.1.46-.29.6-.57s.25-.68.32-1.21l.29-2.21c-.32.3-.69.55-1.11.73s-.87.28-1.37.28c-.67,0-1.24-.16-1.69-.48-.45-.32-.79-.76-1-1.31s-.33-1.18-.33-1.89c0-1.06.23-2.09.7-3.1.46-1.01,1.14-1.84,2.03-2.48s1.94-.97,3.15-.97c.33,0,.69.04,1.05.11ZM210.31,257.32c-.28-.12-.62-.18-1.01-.18-.72,0-1.32.27-1.79.81s-.82,1.22-1.03,2.03-.33,1.62-.33,2.43c0,.76.12,1.35.36,1.77.24.42.57.63.98.63.35,0,.68-.1,1-.29.32-.2.61-.44.86-.74l.96-6.45Z"/>
      <path class="cls-1" d="M215.71,253.01l-1.12-.38.18-.73,3.01-.37.44.24-1.69,12.43c-.01.06-.02.14-.02.25,0,.28.09.42.27.42.09,0,.21-.03.33-.1.13-.07.31-.19.54-.38l.25.56c-.09.13-.25.3-.45.49-.21.19-.47.37-.8.53-.32.16-.68.24-1.06.24-.45,0-.81-.09-1.09-.29-.27-.19-.41-.49-.42-.9,0-.18.02-.4.06-.68l1.56-11.34Z"/>
      <path class="cls-1" d="M225.84,256.26c.41.19.71.45.9.78.19.33.29.71.29,1.13,0,.83-.31,1.53-.94,2.1-.62.57-1.37,1-2.25,1.28s-1.68.42-2.43.42c-.02.52.03,1,.15,1.43.12.43.31.77.58,1.02s.61.38,1.02.38c1,0,1.93-.45,2.79-1.36l.49.81c-.19.29-.47.58-.83.88-.36.3-.81.56-1.34.77-.53.21-1.11.32-1.73.32-.84,0-1.53-.18-2.09-.54-.55-.36-.96-.83-1.22-1.42-.26-.58-.39-1.22-.39-1.91,0-1.15.24-2.22.72-3.19.48-.97,1.14-1.75,1.98-2.32.84-.57,1.76-.86,2.78-.86.61,0,1.12.09,1.52.29ZM224.42,257.43c-.16-.21-.37-.31-.66-.31-.48,0-.89.2-1.22.61s-.59.9-.77,1.48-.29,1.16-.35,1.73c.43,0,.9-.11,1.41-.32.51-.21.94-.52,1.29-.91.35-.39.53-.84.53-1.34,0-.41-.08-.72-.23-.93Z"/>
      <path class="cls-1" d="M228.28,257.02l.14-.75,3.14-.46.47.21-1.17,8.17c-.01.12-.02.2-.02.25,0,.28.09.42.27.42.1,0,.21-.04.35-.11.13-.07.31-.2.52-.38l.25.57c-.1.14-.26.31-.47.5s-.49.37-.83.53-.7.24-1.1.24c-.47,0-.84-.09-1.09-.28-.25-.19-.38-.45-.38-.8,0-.07,0-.13,0-.17.08-.67.25-1.88.5-3.62l.54-3.81-1.13-.51ZM229.95,252.22c.13-.24.32-.43.55-.57s.49-.21.77-.21c.26,0,.49.06.69.17s.35.26.46.44c.11.19.16.38.16.59,0,.29-.06.56-.19.8-.13.24-.31.44-.55.58s-.53.21-.86.21c-.22,0-.42-.06-.61-.18-.19-.12-.34-.27-.46-.47-.12-.19-.17-.4-.17-.61,0-.28.07-.54.2-.78Z"/>
      <path class="cls-1" d="M234.62,257.31h-1.05l.2-.89,1.07-.42c.21-.21.43-.53.66-.97.23-.44.45-.92.65-1.43h1.29l-.29,2.39h2.04l-.19,1.33h-2.01l-.73,5.34c-.09.65-.14,1.1-.14,1.36,0,.28.05.47.15.58s.28.17.54.17c.23,0,.5-.06.8-.17.31-.12.56-.25.77-.42l.19.69c-.17.2-.42.41-.74.62-.32.21-.7.39-1.13.53-.43.14-.88.21-1.35.21s-.88-.12-1.2-.37-.47-.64-.47-1.19c0-.21.06-.76.18-1.67l.75-5.68Z"/>
      <path class="cls-1" d="M246.27,256.26c.41.19.71.45.9.78.19.33.29.71.29,1.13,0,.83-.31,1.53-.94,2.1-.62.57-1.37,1-2.25,1.28s-1.68.42-2.43.42c-.02.52.03,1,.15,1.43.12.43.31.77.58,1.02s.61.38,1.02.38c1,0,1.93-.45,2.79-1.36l.49.81c-.19.29-.47.58-.83.88-.36.3-.81.56-1.34.77-.53.21-1.11.32-1.73.32-.84,0-1.53-.18-2.09-.54-.55-.36-.96-.83-1.22-1.42-.26-.58-.39-1.22-.39-1.91,0-1.15.24-2.22.72-3.19.48-.97,1.14-1.75,1.98-2.32.84-.57,1.76-.86,2.78-.86.61,0,1.12.09,1.52.29ZM244.86,257.43c-.16-.21-.37-.31-.66-.31-.48,0-.89.2-1.22.61s-.59.9-.77,1.48-.29,1.16-.35,1.73c.43,0,.9-.11,1.41-.32.51-.21.94-.52,1.29-.91.35-.39.53-.84.53-1.34,0-.41-.08-.72-.23-.93Z"/>
      <path class="cls-1" d="M248.81,257.22l.15-.78,2.78-.46.44.21-.15,1.82c.45-.62.96-1.11,1.56-1.48s1.21-.55,1.86-.55c.69,0,1.23.21,1.61.62.38.41.57,1.09.57,2.03,0,.3-.04.71-.12,1.22-.08.52-.19,1.15-.32,1.91-.05.28-.08.5-.11.64-.01.08-.04.28-.1.6-.05.32-.09.61-.12.86s-.04.47-.04.65c0,.35.09.52.27.52.09,0,.19-.03.3-.09.12-.06.27-.16.48-.32l.25.56c-.09.11-.24.24-.45.4-.21.15-.48.3-.81.43s-.69.2-1.09.2c-.54,0-.92-.11-1.14-.33-.22-.22-.33-.52-.33-.91,0-.21.02-.48.07-.79.05-.32.1-.63.15-.94.06-.31.09-.52.11-.62l.08-.41c.13-.73.24-1.36.32-1.88.08-.52.12-1.01.12-1.46,0-.36-.03-.64-.09-.83-.06-.19-.15-.32-.26-.39-.12-.07-.27-.1-.47-.1-.38,0-.8.2-1.27.6-.47.4-.88.9-1.24,1.49l-.9,6.55h-2.35l1.14-8.46-.91-.52Z"/>
      <path class="cls-1" d="M261.62,263.72c.21.23.31.51.31.85s-.08.64-.24.89-.36.43-.62.56-.52.19-.79.19c-.32,0-.59-.11-.79-.33-.21-.22-.31-.51-.31-.86,0-.32.07-.6.22-.85.15-.25.34-.44.58-.58.24-.14.49-.21.75-.21.39,0,.68.11.89.34Z"/>
    </g>
    <g>
      <circle class="cls-2" cx="135.36" cy="82" r="82"/>
      <path class="cls-3" d="M135.36,7v11.52h0c35.06,0,63.48,28.42,63.48,63.48s-28.42,63.48-63.48,63.48-63.48-28.42-63.48-63.48c0-16.73,6.48-31.95,17.06-43.29l-8.43-7.86c-13.56,14.54-20.15,31.26-20.15,51.14v.02c0,41.41,33.58,74.99,74.99,74.99h.02c41.42,0,74.99-33.58,74.99-75S176.78,7,135.36,7Z"/>
    </g>
    <g>
      <path class="cls-3" d="M117.04,79.47c1-.53,1.82-1.21,2.42-2.06.71-1,1.06-2.17,1.06-3.51,0-1.57-.36-2.89-1.07-3.96s-1.71-1.88-2.97-2.43-2.72-.83-4.36-.83-3.06.28-4.32.83-2.26,1.36-2.98,2.43-1.08,2.38-1.08,3.96c0,1.34.36,2.5,1.08,3.51.61.85,1.43,1.53,2.43,2.05-.54.26-1.04.54-1.49.89-.81.62-1.44,1.37-1.89,2.26s-.68,1.88-.68,3c0,1.63.39,2.99,1.18,4.1s1.85,1.93,3.21,2.48,2.88.83,4.58.83,3.24-.28,4.58-.83,2.4-1.38,3.16-2.48,1.15-2.47,1.15-4.1c0-1.49-.39-2.77-1.16-3.83-.71-.97-1.67-1.74-2.85-2.3ZM109.96,72.62c.19-.44.46-.78.83-1.01s.81-.35,1.34-.35,1.01.12,1.37.36.64.58.83,1.02.28.96.28,1.57-.09,1.14-.27,1.6-.45.81-.81,1.07-.81.39-1.36.39-.99-.13-1.36-.39-.65-.62-.83-1.07-.28-.99-.28-1.6.09-1.15.28-1.59ZM114.74,86.89c-.24.5-.58.88-1.02,1.14s-.96.4-1.56.4-1.12-.13-1.57-.4-.81-.64-1.06-1.14-.39-1.09-.39-1.77.13-1.3.38-1.78.6-.86,1.05-1.12.97-.39,1.56-.39,1.12.13,1.56.39.79.63,1.04,1.12.37,1.08.37,1.78-.12,1.27-.36,1.77Z"/>
      <polygon class="cls-3" points="126.22 71.63 138.43 71.63 128.85 92.65 135.11 92.65 144.67 70.22 144.67 67.06 126.22 67.06 126.22 71.63"/>
      <polygon class="cls-3" points="167.08 69.34 154.58 89.35 157.34 90.73 169.84 70.73 167.08 69.34"/>
      <path class="cls-3" d="M173.44,83.74c-.42-.8-1.04-1.44-1.88-1.92s-1.9-.72-3.19-.72-2.31.24-3.16.72-1.49,1.12-1.92,1.92-.64,1.68-.64,2.64v1.35c0,.96.21,1.84.64,2.64s1.07,1.44,1.92,1.92,1.92.72,3.2.72,2.31-.24,3.15-.72,1.46-1.12,1.87-1.92.62-1.68.62-2.64v-1.35c0-.96-.21-1.84-.62-2.64ZM170.26,87.73c0,.36-.04.7-.13,1.02s-.26.57-.53.76-.67.29-1.2.29c-.35,0-.67-.1-.97-.29s-.53-.45-.7-.76-.26-.66-.26-1.02v-1.35c0-.36.07-.7.21-1.02s.35-.57.63-.76.63-.29,1.05-.29.77.1,1.05.29.49.45.63.76.21.66.21,1.02v1.35Z"/>
      <path class="cls-3" d="M159.39,77.87c.84-.48,1.46-1.12,1.88-1.92s.62-1.67.62-2.62v-1.35c0-.97-.21-1.86-.62-2.65s-1.05-1.44-1.89-1.92-1.91-.72-3.2-.72-2.3.24-3.15.72-1.48,1.12-1.9,1.92-.63,1.68-.63,2.65v1.35c0,.95.21,1.82.64,2.62s1.06,1.44,1.91,1.92,1.9.72,3.18.72,2.32-.24,3.16-.72ZM155.15,75.1c-.29-.19-.5-.45-.64-.76s-.21-.65-.21-1v-1.35c0-.38.07-.72.21-1.04s.35-.57.63-.76.63-.29,1.04-.29c.43,0,.79.1,1.07.29s.49.45.62.76.2.66.2,1.04v1.35c0,.35-.07.69-.2,1s-.34.57-.61.76-.62.29-1.05.29-.78-.1-1.06-.29Z"/>
    </g>
  </g>
</svg>