<svg width="303" height="269" viewBox="0 0 303 269" fill="none" xmlns="http://www.w3.org/2000/svg">
<circle cx="152" cy="82" r="82" fill="#E9E9E9"/>
<path d="M34.0713 218.684C33.8913 220.052 33.3033 221.03 32.3073 221.618C31.3113 222.218 30.1713 222.518 28.8873 222.518C28.4913 222.518 28.0653 222.476 27.6093 222.392C27.1653 222.32 26.8533 222.242 26.6733 222.158L27.0873 220.466C27.3153 220.61 27.6633 220.772 28.1313 220.952C28.5993 221.132 29.0493 221.222 29.4813 221.222C30.1773 221.222 30.6873 221.084 31.0113 220.808C31.3353 220.532 31.5453 220.01 31.6413 219.242L31.9113 217.1C31.5873 217.412 31.2093 217.67 30.7773 217.874C30.3453 218.078 29.8773 218.18 29.3733 218.18C28.3653 218.18 27.6033 217.838 27.0873 217.154C26.5833 216.458 26.3313 215.552 26.3313 214.436C26.3313 213.332 26.5593 212.27 27.0153 211.25C27.4833 210.23 28.1613 209.396 29.0493 208.748C29.9493 208.1 31.0113 207.776 32.2353 207.776C32.5713 207.776 32.9313 207.818 33.3153 207.902C33.6993 207.974 34.0353 208.064 34.3233 208.172L35.6013 207.776L34.0713 218.684ZM33.0633 209.108C32.8113 208.964 32.4633 208.892 32.0193 208.892C31.2993 208.892 30.6993 209.174 30.2193 209.738C29.7393 210.29 29.3853 210.986 29.1573 211.826C28.9413 212.654 28.8333 213.488 28.8333 214.328C28.8333 215.108 28.9593 215.72 29.2113 216.164C29.4753 216.596 29.8353 216.812 30.2913 216.812C30.6273 216.812 30.9513 216.716 31.2633 216.524C31.5873 216.32 31.8633 216.08 32.0913 215.804L33.0633 209.108ZM39.867 216.2C39.855 216.26 39.849 216.332 39.849 216.416C39.849 216.704 39.951 216.848 40.155 216.848C40.263 216.848 40.383 216.812 40.515 216.74C40.647 216.668 40.815 216.548 41.019 216.38L41.253 216.938C41.049 217.214 40.743 217.49 40.335 217.766C39.939 218.042 39.453 218.18 38.877 218.18C38.409 218.18 38.043 218.09 37.779 217.91C37.515 217.718 37.383 217.46 37.383 217.136L37.401 216.956C37.473 216.332 37.719 214.52 38.139 211.52L38.427 209.432L37.365 208.928L37.491 208.226L40.587 207.794L41.019 207.992L39.867 216.2ZM40.065 206.066C39.741 206.066 39.459 205.946 39.219 205.706C38.991 205.454 38.877 205.166 38.877 204.842C38.877 204.398 39.021 204.026 39.309 203.726C39.609 203.426 39.987 203.276 40.443 203.276C40.815 203.276 41.109 203.396 41.325 203.636C41.541 203.864 41.649 204.14 41.649 204.464C41.649 204.92 41.511 205.304 41.235 205.616C40.959 205.916 40.569 206.066 40.065 206.066ZM45.9378 212.798C45.8898 213.242 45.8478 213.554 45.8118 213.734C45.6918 214.67 45.6318 215.27 45.6318 215.534C45.6318 216.014 45.7158 216.356 45.8838 216.56C46.0518 216.764 46.3038 216.866 46.6398 216.866C47.0238 216.866 47.4018 216.746 47.7738 216.506C48.1578 216.266 48.4818 215.978 48.7458 215.642L49.7898 207.866H52.1658L51.0138 216.2C50.9898 216.416 51.0078 216.578 51.0678 216.686C51.1278 216.794 51.2178 216.848 51.3378 216.848C51.4458 216.848 51.5598 216.818 51.6798 216.758C51.7998 216.686 51.9678 216.56 52.1838 216.38L52.4358 216.938C52.2798 217.19 51.9918 217.46 51.5718 217.748C51.1518 218.036 50.6718 218.18 50.1318 218.18C49.7118 218.18 49.3878 218.09 49.1598 217.91C48.9438 217.73 48.8238 217.484 48.7998 217.172L48.7818 216.956C48.7818 216.86 48.7938 216.74 48.8178 216.596L48.7818 216.578C47.8938 217.646 46.8498 218.18 45.6498 218.18C44.9778 218.18 44.4078 218 43.9398 217.64C43.4718 217.268 43.2318 216.68 43.2198 215.876C43.2198 215.408 43.3038 214.562 43.4718 213.338C43.5198 213.038 43.5498 212.834 43.5618 212.726L44.0478 209.45L43.0038 208.838L43.1478 208.1L46.1358 207.794L46.5498 207.992L45.9378 212.798ZM61.8189 216.182C61.8069 216.23 61.8009 216.302 61.8009 216.398C61.8009 216.698 61.9029 216.848 62.1069 216.848C62.3109 216.848 62.5809 216.71 62.9169 216.434L63.1689 216.992C62.4969 217.784 61.7529 218.18 60.9369 218.18C60.5169 218.18 60.1989 218.078 59.9829 217.874C59.7669 217.67 59.6409 217.358 59.6049 216.938V216.668C59.3049 217.088 58.9029 217.448 58.3989 217.748C57.8949 218.036 57.3189 218.18 56.6709 218.18C55.6629 218.18 54.9129 217.838 54.4209 217.154C53.9289 216.458 53.6829 215.552 53.6829 214.436C53.6829 213.32 53.9049 212.252 54.3489 211.232C54.7929 210.212 55.4529 209.384 56.3289 208.748C57.2169 208.1 58.2849 207.776 59.5329 207.776C59.8809 207.776 60.2469 207.824 60.6309 207.92L61.0809 204.878L59.7849 204.518L59.9469 203.852L63.1869 203.492L63.6369 203.726L61.8189 216.182ZM60.4509 209.144C60.1509 208.976 59.7729 208.892 59.3169 208.892C58.5849 208.892 57.9849 209.174 57.5169 209.738C57.0489 210.29 56.7069 210.98 56.4909 211.808C56.2749 212.636 56.1669 213.476 56.1669 214.328C56.1669 215.12 56.2869 215.732 56.5269 216.164C56.7789 216.596 57.1329 216.812 57.5889 216.812C57.9609 216.812 58.3149 216.698 58.6509 216.47C58.9869 216.23 59.2629 215.948 59.4789 215.624L60.4509 209.144ZM67.4998 216.2C67.4878 216.26 67.4818 216.332 67.4818 216.416C67.4818 216.704 67.5838 216.848 67.7878 216.848C67.8958 216.848 68.0158 216.812 68.1478 216.74C68.2798 216.668 68.4478 216.548 68.6518 216.38L68.8858 216.938C68.6818 217.214 68.3758 217.49 67.9678 217.766C67.5718 218.042 67.0858 218.18 66.5098 218.18C66.0418 218.18 65.6758 218.09 65.4118 217.91C65.1478 217.718 65.0158 217.46 65.0158 217.136L65.0338 216.956C65.1058 216.332 65.3518 214.52 65.7718 211.52L66.0598 209.432L64.9978 208.928L65.1238 208.226L68.2198 207.794L68.6518 207.992L67.4998 216.2ZM67.6978 206.066C67.3738 206.066 67.0918 205.946 66.8518 205.706C66.6238 205.454 66.5098 205.166 66.5098 204.842C66.5098 204.398 66.6538 204.026 66.9418 203.726C67.2418 203.426 67.6198 203.276 68.0758 203.276C68.4478 203.276 68.7418 203.396 68.9578 203.636C69.1738 203.864 69.2818 204.14 69.2818 204.464C69.2818 204.92 69.1438 205.304 68.8678 205.616C68.5918 205.916 68.2018 206.066 67.6978 206.066ZM76.7926 210.458C76.4566 210.038 76.1566 209.702 75.8926 209.45C75.6406 209.186 75.4186 209.054 75.2266 209.054C74.7826 209.054 74.3686 209.258 73.9846 209.666C73.6126 210.074 73.3066 210.644 73.0666 211.376C72.8386 212.108 72.7246 212.93 72.7246 213.842C72.7246 214.838 72.8686 215.57 73.1566 216.038C73.4446 216.494 73.8826 216.722 74.4706 216.722C74.9746 216.722 75.4006 216.626 75.7486 216.434C76.1086 216.242 76.4566 215.972 76.7926 215.624L77.2606 216.416C76.9606 216.86 76.4866 217.268 75.8386 217.64C75.2026 218 74.4466 218.18 73.5706 218.18C72.5386 218.18 71.7286 217.82 71.1406 217.1C70.5526 216.368 70.2586 215.336 70.2586 214.004C70.2586 212.996 70.4686 212.018 70.8886 211.07C71.3086 210.11 71.9326 209.324 72.7606 208.712C73.5886 208.088 74.5846 207.776 75.7486 207.776C76.1206 207.776 76.5046 207.812 76.9006 207.884C77.3086 207.944 77.6386 208.034 77.8906 208.154L77.2786 210.494L76.7926 210.458ZM86.4948 216.164C86.4828 216.212 86.4768 216.284 86.4768 216.38C86.4768 216.692 86.5968 216.848 86.8368 216.848C87.0288 216.848 87.2988 216.704 87.6468 216.416L87.8988 216.974C87.7428 217.214 87.4608 217.478 87.0528 217.766C86.6568 218.042 86.1948 218.18 85.6668 218.18C85.2588 218.18 84.9348 218.09 84.6948 217.91C84.4548 217.73 84.3288 217.454 84.3168 217.082L84.3528 216.776C84.0168 217.172 83.6088 217.508 83.1288 217.784C82.6488 218.048 82.1208 218.18 81.5448 218.18C80.5368 218.18 79.7808 217.838 79.2768 217.154C78.7848 216.458 78.5388 215.552 78.5388 214.436C78.5388 213.332 78.7668 212.27 79.2228 211.25C79.6908 210.23 80.3688 209.396 81.2568 208.748C82.1448 208.1 83.2008 207.776 84.4248 207.776C84.7368 207.776 85.0728 207.812 85.4328 207.884C85.8048 207.956 86.1288 208.04 86.4048 208.136L87.6468 207.776L86.4948 216.164ZM85.1088 209.054C84.8808 208.946 84.5868 208.892 84.2268 208.892C83.5068 208.892 82.9068 209.168 82.4268 209.72C81.9468 210.26 81.5928 210.95 81.3648 211.79C81.1488 212.618 81.0408 213.458 81.0408 214.31C81.0408 215.102 81.1608 215.72 81.4008 216.164C81.6408 216.596 81.9948 216.812 82.4628 216.812C82.7628 216.812 83.0628 216.71 83.3628 216.506C83.6748 216.302 83.9508 216.062 84.1908 215.786L85.1088 209.054ZM96.3807 216.2C96.3687 216.26 96.3627 216.332 96.3627 216.416C96.3627 216.704 96.4647 216.848 96.6687 216.848C96.7767 216.848 96.8967 216.812 97.0287 216.74C97.1607 216.668 97.3287 216.548 97.5327 216.38L97.7667 216.938C97.5627 217.214 97.2567 217.49 96.8487 217.766C96.4527 218.042 95.9667 218.18 95.3907 218.18C94.9227 218.18 94.5567 218.09 94.2927 217.91C94.0287 217.718 93.8967 217.46 93.8967 217.136L93.9147 216.956C93.9867 216.332 94.2327 214.52 94.6527 211.52L94.9407 209.432L93.8787 208.928L94.0047 208.226L97.1007 207.794L97.5327 207.992L96.3807 216.2ZM96.5787 206.066C96.2547 206.066 95.9727 205.946 95.7327 205.706C95.5047 205.454 95.3907 205.166 95.3907 204.842C95.3907 204.398 95.5347 204.026 95.8227 203.726C96.1227 203.426 96.5007 203.276 96.9567 203.276C97.3287 203.276 97.6227 203.396 97.8387 203.636C98.0547 203.864 98.1627 204.14 98.1627 204.464C98.1627 204.92 98.0247 205.304 97.7487 205.616C97.4727 205.916 97.0827 206.066 96.5787 206.066ZM102.865 209.954C103.309 209.294 103.837 208.766 104.449 208.37C105.061 207.974 105.703 207.776 106.375 207.776C107.863 207.776 108.607 208.658 108.607 210.422C108.607 210.89 108.457 211.934 108.157 213.554C108.109 213.866 108.067 214.106 108.031 214.274C107.863 215.222 107.773 215.906 107.761 216.326V216.398C107.761 216.698 107.857 216.848 108.049 216.848C108.157 216.848 108.271 216.818 108.391 216.758C108.511 216.698 108.667 216.59 108.859 216.434L109.111 216.992C108.931 217.244 108.637 217.508 108.229 217.784C107.821 218.048 107.323 218.18 106.735 218.18C106.171 218.18 105.781 218.06 105.565 217.82C105.349 217.568 105.241 217.238 105.241 216.83C105.253 216.47 105.367 215.756 105.583 214.688L105.691 214.076C105.715 213.968 105.763 213.68 105.835 213.212C105.919 212.744 105.985 212.3 106.033 211.88C106.081 211.448 106.105 211.076 106.105 210.764C106.105 210.212 106.039 209.834 105.907 209.63C105.787 209.426 105.565 209.324 105.241 209.324C104.845 209.324 104.401 209.546 103.909 209.99C103.429 210.434 103.015 210.968 102.667 211.592L101.803 218H99.4455L100.597 209.432L99.6795 208.946L99.8235 208.208L102.631 207.776L103.045 207.974L102.865 209.954ZM118.469 216.164C118.457 216.212 118.451 216.284 118.451 216.38C118.451 216.692 118.571 216.848 118.811 216.848C119.003 216.848 119.273 216.704 119.621 216.416L119.873 216.974C119.717 217.214 119.435 217.478 119.027 217.766C118.631 218.042 118.169 218.18 117.641 218.18C117.233 218.18 116.909 218.09 116.669 217.91C116.429 217.73 116.303 217.454 116.291 217.082L116.327 216.776C115.991 217.172 115.583 217.508 115.103 217.784C114.623 218.048 114.095 218.18 113.519 218.18C112.511 218.18 111.755 217.838 111.251 217.154C110.759 216.458 110.513 215.552 110.513 214.436C110.513 213.332 110.741 212.27 111.197 211.25C111.665 210.23 112.343 209.396 113.231 208.748C114.119 208.1 115.175 207.776 116.399 207.776C116.711 207.776 117.047 207.812 117.407 207.884C117.779 207.956 118.103 208.04 118.379 208.136L119.621 207.776L118.469 216.164ZM117.083 209.054C116.855 208.946 116.561 208.892 116.201 208.892C115.481 208.892 114.881 209.168 114.401 209.72C113.921 210.26 113.567 210.95 113.339 211.79C113.123 212.618 113.015 213.458 113.015 214.31C113.015 215.102 113.135 215.72 113.375 216.164C113.615 216.596 113.969 216.812 114.437 216.812C114.737 216.812 115.037 216.71 115.337 216.506C115.649 216.302 115.925 216.062 116.165 215.786L117.083 209.054ZM129.196 216.182C129.184 216.23 129.178 216.302 129.178 216.398C129.178 216.698 129.28 216.848 129.484 216.848C129.688 216.848 129.958 216.71 130.294 216.434L130.546 216.992C129.874 217.784 129.13 218.18 128.314 218.18C127.894 218.18 127.576 218.078 127.36 217.874C127.144 217.67 127.018 217.358 126.982 216.938V216.668C126.682 217.088 126.28 217.448 125.776 217.748C125.272 218.036 124.696 218.18 124.048 218.18C123.04 218.18 122.29 217.838 121.798 217.154C121.306 216.458 121.06 215.552 121.06 214.436C121.06 213.32 121.282 212.252 121.726 211.232C122.17 210.212 122.83 209.384 123.706 208.748C124.594 208.1 125.662 207.776 126.91 207.776C127.258 207.776 127.624 207.824 128.008 207.92L128.458 204.878L127.162 204.518L127.324 203.852L130.564 203.492L131.014 203.726L129.196 216.182ZM127.828 209.144C127.528 208.976 127.15 208.892 126.694 208.892C125.962 208.892 125.362 209.174 124.894 209.738C124.426 210.29 124.084 210.98 123.868 211.808C123.652 212.636 123.544 213.476 123.544 214.328C123.544 215.12 123.664 215.732 123.904 216.164C124.156 216.596 124.51 216.812 124.966 216.812C125.338 216.812 125.692 216.698 126.028 216.47C126.364 216.23 126.64 215.948 126.856 215.624L127.828 209.144ZM139.575 216.2C139.263 216.692 138.753 217.154 138.045 217.586C137.349 218.018 136.539 218.234 135.615 218.234C134.751 218.234 134.037 218.048 133.473 217.676C132.921 217.304 132.519 216.818 132.267 216.218C132.015 215.618 131.889 214.964 131.889 214.256C131.889 213.056 132.129 211.964 132.609 210.98C133.101 209.984 133.767 209.198 134.607 208.622C135.447 208.046 136.383 207.758 137.415 207.758C138.339 207.758 139.023 207.974 139.467 208.406C139.923 208.826 140.151 209.378 140.151 210.062C140.151 210.926 139.839 211.646 139.215 212.222C138.591 212.798 137.841 213.23 136.965 213.518C136.089 213.794 135.261 213.944 134.481 213.968C134.457 214.832 134.595 215.528 134.895 216.056C135.207 216.584 135.675 216.848 136.299 216.848C137.331 216.848 138.267 216.368 139.107 215.408L139.575 216.2ZM136.875 208.874C136.167 208.874 135.609 209.3 135.201 210.152C134.793 211.004 134.553 211.952 134.481 212.996C134.949 212.972 135.441 212.846 135.957 212.618C136.485 212.39 136.923 212.072 137.271 211.664C137.631 211.244 137.811 210.764 137.811 210.224C137.811 209.792 137.727 209.462 137.559 209.234C137.403 208.994 137.175 208.874 136.875 208.874ZM148.997 218.684C148.817 220.052 148.229 221.03 147.233 221.618C146.237 222.218 145.097 222.518 143.813 222.518C143.417 222.518 142.991 222.476 142.535 222.392C142.091 222.32 141.779 222.242 141.599 222.158L142.013 220.466C142.241 220.61 142.589 220.772 143.057 220.952C143.525 221.132 143.975 221.222 144.407 221.222C145.103 221.222 145.613 221.084 145.937 220.808C146.261 220.532 146.471 220.01 146.567 219.242L146.837 217.1C146.513 217.412 146.135 217.67 145.703 217.874C145.271 218.078 144.803 218.18 144.299 218.18C143.291 218.18 142.529 217.838 142.013 217.154C141.509 216.458 141.257 215.552 141.257 214.436C141.257 213.332 141.485 212.27 141.941 211.25C142.409 210.23 143.087 209.396 143.975 208.748C144.875 208.1 145.937 207.776 147.161 207.776C147.497 207.776 147.857 207.818 148.241 207.902C148.625 207.974 148.961 208.064 149.249 208.172L150.527 207.776L148.997 218.684ZM147.989 209.108C147.737 208.964 147.389 208.892 146.945 208.892C146.225 208.892 145.625 209.174 145.145 209.738C144.665 210.29 144.311 210.986 144.083 211.826C143.867 212.654 143.759 213.488 143.759 214.328C143.759 215.108 143.885 215.72 144.137 216.164C144.401 216.596 144.761 216.812 145.217 216.812C145.553 216.812 145.877 216.716 146.189 216.524C146.513 216.32 146.789 216.08 147.017 215.804L147.989 209.108ZM155.063 212.798C155.015 213.242 154.973 213.554 154.937 213.734C154.817 214.67 154.757 215.27 154.757 215.534C154.757 216.014 154.841 216.356 155.009 216.56C155.177 216.764 155.429 216.866 155.765 216.866C156.149 216.866 156.527 216.746 156.899 216.506C157.283 216.266 157.607 215.978 157.871 215.642L158.915 207.866H161.291L160.139 216.2C160.115 216.416 160.133 216.578 160.193 216.686C160.253 216.794 160.343 216.848 160.463 216.848C160.571 216.848 160.685 216.818 160.805 216.758C160.925 216.686 161.093 216.56 161.309 216.38L161.561 216.938C161.405 217.19 161.117 217.46 160.697 217.748C160.277 218.036 159.797 218.18 159.257 218.18C158.837 218.18 158.513 218.09 158.285 217.91C158.069 217.73 157.949 217.484 157.925 217.172L157.907 216.956C157.907 216.86 157.919 216.74 157.943 216.596L157.907 216.578C157.019 217.646 155.975 218.18 154.775 218.18C154.103 218.18 153.533 218 153.065 217.64C152.597 217.268 152.357 216.68 152.345 215.876C152.345 215.408 152.429 214.562 152.597 213.338C152.645 213.038 152.675 212.834 152.687 212.726L153.173 209.45L152.129 208.838L152.273 208.1L155.261 207.794L155.675 207.992L155.063 212.798ZM170.782 216.164C170.77 216.212 170.764 216.284 170.764 216.38C170.764 216.692 170.884 216.848 171.124 216.848C171.316 216.848 171.586 216.704 171.934 216.416L172.186 216.974C172.03 217.214 171.748 217.478 171.34 217.766C170.944 218.042 170.482 218.18 169.954 218.18C169.546 218.18 169.222 218.09 168.982 217.91C168.742 217.73 168.616 217.454 168.604 217.082L168.64 216.776C168.304 217.172 167.896 217.508 167.416 217.784C166.936 218.048 166.408 218.18 165.832 218.18C164.824 218.18 164.068 217.838 163.564 217.154C163.072 216.458 162.826 215.552 162.826 214.436C162.826 213.332 163.054 212.27 163.51 211.25C163.978 210.23 164.656 209.396 165.544 208.748C166.432 208.1 167.488 207.776 168.712 207.776C169.024 207.776 169.36 207.812 169.72 207.884C170.092 207.956 170.416 208.04 170.692 208.136L171.934 207.776L170.782 216.164ZM169.396 209.054C169.168 208.946 168.874 208.892 168.514 208.892C167.794 208.892 167.194 209.168 166.714 209.72C166.234 210.26 165.88 210.95 165.652 211.79C165.436 212.618 165.328 213.458 165.328 214.31C165.328 215.102 165.448 215.72 165.688 216.164C165.928 216.596 166.282 216.812 166.75 216.812C167.05 216.812 167.35 216.71 167.65 216.506C167.962 216.302 168.238 216.062 168.478 215.786L169.396 209.054ZM176.396 214.706C176.312 215.402 176.27 215.822 176.27 215.966C176.27 216.242 176.324 216.44 176.432 216.56C176.54 216.668 176.726 216.722 176.99 216.722C177.23 216.722 177.5 216.668 177.8 216.56C178.112 216.44 178.37 216.296 178.574 216.128L178.772 216.794C178.46 217.142 178.016 217.46 177.44 217.748C176.864 218.036 176.216 218.18 175.496 218.18C174.992 218.18 174.59 218.054 174.29 217.802C174.002 217.538 173.858 217.124 173.858 216.56C173.858 216.32 173.918 215.756 174.038 214.868L174.794 209.288H173.714L173.912 208.424L174.992 208.046C175.352 207.71 175.778 206.882 176.27 205.562H177.62L177.314 208.01H179.474L179.294 209.288H177.134L176.396 214.706ZM187.745 216.164C187.733 216.212 187.727 216.284 187.727 216.38C187.727 216.692 187.847 216.848 188.087 216.848C188.279 216.848 188.549 216.704 188.897 216.416L189.149 216.974C188.993 217.214 188.711 217.478 188.303 217.766C187.907 218.042 187.445 218.18 186.917 218.18C186.509 218.18 186.185 218.09 185.945 217.91C185.705 217.73 185.579 217.454 185.567 217.082L185.603 216.776C185.267 217.172 184.859 217.508 184.379 217.784C183.899 218.048 183.371 218.18 182.795 218.18C181.787 218.18 181.031 217.838 180.527 217.154C180.035 216.458 179.789 215.552 179.789 214.436C179.789 213.332 180.017 212.27 180.473 211.25C180.941 210.23 181.619 209.396 182.507 208.748C183.395 208.1 184.451 207.776 185.675 207.776C185.987 207.776 186.323 207.812 186.683 207.884C187.055 207.956 187.379 208.04 187.655 208.136L188.897 207.776L187.745 216.164ZM186.359 209.054C186.131 208.946 185.837 208.892 185.477 208.892C184.757 208.892 184.157 209.168 183.677 209.72C183.197 210.26 182.843 210.95 182.615 211.79C182.399 212.618 182.291 213.458 182.291 214.31C182.291 215.102 182.411 215.72 182.651 216.164C182.891 216.596 183.245 216.812 183.713 216.812C184.013 216.812 184.313 216.71 184.613 216.506C184.925 216.302 185.201 216.062 185.441 215.786L186.359 209.054ZM197.397 216.2C197.385 216.248 197.379 216.314 197.379 216.398C197.379 216.698 197.487 216.848 197.703 216.848C197.811 216.848 197.925 216.818 198.045 216.758C198.177 216.698 198.351 216.572 198.567 216.38L198.801 216.938C198.609 217.214 198.327 217.49 197.955 217.766C197.583 218.042 197.103 218.18 196.515 218.18C196.059 218.18 195.687 218.09 195.399 217.91C195.111 217.718 194.961 217.424 194.949 217.028C194.949 216.98 194.973 216.764 195.021 216.38L196.587 204.878L195.453 204.518L195.615 203.852L198.675 203.492L199.089 203.726L197.397 216.2ZM208.065 216.164C208.053 216.212 208.047 216.284 208.047 216.38C208.047 216.692 208.167 216.848 208.407 216.848C208.599 216.848 208.869 216.704 209.217 216.416L209.469 216.974C209.313 217.214 209.031 217.478 208.623 217.766C208.227 218.042 207.765 218.18 207.237 218.18C206.829 218.18 206.505 218.09 206.265 217.91C206.025 217.73 205.899 217.454 205.887 217.082L205.923 216.776C205.587 217.172 205.179 217.508 204.699 217.784C204.219 218.048 203.691 218.18 203.115 218.18C202.107 218.18 201.351 217.838 200.847 217.154C200.355 216.458 200.109 215.552 200.109 214.436C200.109 213.332 200.337 212.27 200.793 211.25C201.261 210.23 201.939 209.396 202.827 208.748C203.715 208.1 204.771 207.776 205.995 207.776C206.307 207.776 206.643 207.812 207.003 207.884C207.375 207.956 207.699 208.04 207.975 208.136L209.217 207.776L208.065 216.164ZM206.679 209.054C206.451 208.946 206.157 208.892 205.797 208.892C205.077 208.892 204.477 209.168 203.997 209.72C203.517 210.26 203.163 210.95 202.935 211.79C202.719 212.618 202.611 213.458 202.611 214.31C202.611 215.102 202.731 215.72 202.971 216.164C203.211 216.596 203.565 216.812 204.033 216.812C204.333 216.812 204.633 216.71 204.933 216.506C205.245 216.302 205.521 216.062 205.761 215.786L206.679 209.054ZM218.635 208.964C218.947 208.616 219.325 208.334 219.769 208.118C220.213 207.89 220.699 207.776 221.227 207.776C222.223 207.776 222.979 208.112 223.495 208.784C224.011 209.456 224.269 210.392 224.269 211.592C224.269 212.732 224.029 213.806 223.549 214.814C223.069 215.822 222.385 216.638 221.497 217.262C220.621 217.874 219.607 218.18 218.455 218.18C218.143 218.18 217.789 218.138 217.393 218.054L216.763 222.572H214.459L216.241 209.378L215.287 208.928L215.431 208.208L218.347 207.776L218.761 207.974L218.635 208.964ZM217.555 216.848C217.831 216.992 218.209 217.064 218.689 217.064C219.373 217.064 219.943 216.8 220.399 216.272C220.867 215.744 221.209 215.066 221.425 214.238C221.653 213.41 221.767 212.54 221.767 211.628C221.767 210.884 221.641 210.284 221.389 209.828C221.149 209.372 220.795 209.144 220.327 209.144C219.955 209.144 219.613 209.258 219.301 209.486C218.989 209.702 218.713 209.972 218.473 210.296L217.555 216.848ZM228.948 210.368C229.176 209.684 229.566 209.084 230.118 208.568C230.682 208.04 231.312 207.776 232.008 207.776C232.248 207.776 232.452 207.83 232.62 207.938L232.098 210.53C232.026 210.47 231.906 210.416 231.738 210.368C231.582 210.308 231.39 210.278 231.162 210.278C230.73 210.278 230.316 210.374 229.92 210.566C229.524 210.746 229.218 211.01 229.002 211.358L228.12 218H225.78L226.914 209.45L225.996 208.946L226.122 208.226L228.696 207.794L229.11 208.046L229.02 209.684L228.948 210.368ZM238.417 207.758C239.665 207.758 240.619 208.124 241.279 208.856C241.939 209.576 242.269 210.614 242.269 211.97C242.269 213.086 242.041 214.124 241.585 215.084C241.129 216.044 240.487 216.812 239.659 217.388C238.831 217.952 237.883 218.234 236.815 218.234C235.567 218.234 234.613 217.868 233.953 217.136C233.305 216.392 232.981 215.336 232.981 213.968C232.981 212.84 233.203 211.802 233.647 210.854C234.103 209.906 234.745 209.156 235.573 208.604C236.401 208.04 237.349 207.758 238.417 207.758ZM238.111 208.892C237.559 208.892 237.091 209.144 236.707 209.648C236.323 210.14 236.035 210.77 235.843 211.538C235.663 212.306 235.573 213.092 235.573 213.896C235.573 215.036 235.699 215.87 235.951 216.398C236.215 216.926 236.623 217.19 237.175 217.19C237.715 217.19 238.171 216.938 238.543 216.434C238.915 215.93 239.191 215.288 239.371 214.508C239.551 213.728 239.641 212.93 239.641 212.114C239.641 210.974 239.515 210.152 239.263 209.648C239.023 209.144 238.639 208.892 238.111 208.892ZM247.217 208.964C247.529 208.616 247.907 208.334 248.351 208.118C248.795 207.89 249.281 207.776 249.809 207.776C250.805 207.776 251.561 208.112 252.077 208.784C252.593 209.456 252.851 210.392 252.851 211.592C252.851 212.732 252.611 213.806 252.131 214.814C251.651 215.822 250.967 216.638 250.079 217.262C249.203 217.874 248.189 218.18 247.037 218.18C246.725 218.18 246.371 218.138 245.975 218.054L245.345 222.572H243.041L244.823 209.378L243.869 208.928L244.013 208.208L246.929 207.776L247.343 207.974L247.217 208.964ZM246.137 216.848C246.413 216.992 246.791 217.064 247.271 217.064C247.955 217.064 248.525 216.8 248.981 216.272C249.449 215.744 249.791 215.066 250.007 214.238C250.235 213.41 250.349 212.54 250.349 211.628C250.349 210.884 250.223 210.284 249.971 209.828C249.731 209.372 249.377 209.144 248.909 209.144C248.537 209.144 248.195 209.258 247.883 209.486C247.571 209.702 247.295 209.972 247.055 210.296L246.137 216.848ZM257.53 210.368C257.758 209.684 258.148 209.084 258.7 208.568C259.264 208.04 259.894 207.776 260.59 207.776C260.83 207.776 261.034 207.83 261.202 207.938L260.68 210.53C260.608 210.47 260.488 210.416 260.32 210.368C260.164 210.308 259.972 210.278 259.744 210.278C259.312 210.278 258.898 210.374 258.502 210.566C258.106 210.746 257.8 211.01 257.584 211.358L256.702 218H254.362L255.496 209.45L254.578 208.946L254.704 208.226L257.278 207.794L257.692 208.046L257.602 209.684L257.53 210.368ZM264.515 216.2C264.503 216.26 264.497 216.332 264.497 216.416C264.497 216.704 264.599 216.848 264.803 216.848C264.911 216.848 265.031 216.812 265.163 216.74C265.295 216.668 265.463 216.548 265.667 216.38L265.901 216.938C265.697 217.214 265.391 217.49 264.983 217.766C264.587 218.042 264.101 218.18 263.525 218.18C263.057 218.18 262.691 218.09 262.427 217.91C262.163 217.718 262.031 217.46 262.031 217.136L262.049 216.956C262.121 216.332 262.367 214.52 262.787 211.52L263.075 209.432L262.013 208.928L262.139 208.226L265.235 207.794L265.667 207.992L264.515 216.2ZM264.713 206.066C264.389 206.066 264.107 205.946 263.867 205.706C263.639 205.454 263.525 205.166 263.525 204.842C263.525 204.398 263.669 204.026 263.957 203.726C264.257 203.426 264.635 203.276 265.091 203.276C265.463 203.276 265.757 203.396 265.973 203.636C266.189 203.864 266.297 204.14 266.297 204.464C266.297 204.92 266.159 205.304 265.883 205.616C265.607 205.916 265.217 206.066 264.713 206.066ZM275.266 216.164C275.254 216.212 275.248 216.284 275.248 216.38C275.248 216.692 275.368 216.848 275.608 216.848C275.8 216.848 276.07 216.704 276.418 216.416L276.67 216.974C276.514 217.214 276.232 217.478 275.824 217.766C275.428 218.042 274.966 218.18 274.438 218.18C274.03 218.18 273.706 218.09 273.466 217.91C273.226 217.73 273.1 217.454 273.088 217.082L273.124 216.776C272.788 217.172 272.38 217.508 271.9 217.784C271.42 218.048 270.892 218.18 270.316 218.18C269.308 218.18 268.552 217.838 268.048 217.154C267.556 216.458 267.31 215.552 267.31 214.436C267.31 213.332 267.538 212.27 267.994 211.25C268.462 210.23 269.14 209.396 270.028 208.748C270.916 208.1 271.972 207.776 273.196 207.776C273.508 207.776 273.844 207.812 274.204 207.884C274.576 207.956 274.9 208.04 275.176 208.136L276.418 207.776L275.266 216.164ZM273.88 209.054C273.652 208.946 273.358 208.892 272.998 208.892C272.278 208.892 271.678 209.168 271.198 209.72C270.718 210.26 270.364 210.95 270.136 211.79C269.92 212.618 269.812 213.458 269.812 214.31C269.812 215.102 269.932 215.72 270.172 216.164C270.412 216.596 270.766 216.812 271.234 216.812C271.534 216.812 271.834 216.71 272.134 216.506C272.446 216.302 272.722 216.062 272.962 215.786L273.88 209.054ZM21.1536 231.964C21.4656 231.616 21.8436 231.334 22.2876 231.118C22.7316 230.89 23.2176 230.776 23.7456 230.776C24.7416 230.776 25.4976 231.112 26.0136 231.784C26.5296 232.456 26.7876 233.392 26.7876 234.592C26.7876 235.732 26.5476 236.806 26.0676 237.814C25.5876 238.822 24.9036 239.638 24.0156 240.262C23.1396 240.874 22.1256 241.18 20.9736 241.18C20.6616 241.18 20.3076 241.138 19.9116 241.054L19.2816 245.572H16.9776L18.7596 232.378L17.8056 231.928L17.9496 231.208L20.8656 230.776L21.2796 230.974L21.1536 231.964ZM20.0736 239.848C20.3496 239.992 20.7276 240.064 21.2076 240.064C21.8916 240.064 22.4616 239.8 22.9176 239.272C23.3856 238.744 23.7276 238.066 23.9436 237.238C24.1716 236.41 24.2856 235.54 24.2856 234.628C24.2856 233.884 24.1596 233.284 23.9076 232.828C23.6676 232.372 23.3136 232.144 22.8456 232.144C22.4736 232.144 22.1316 232.258 21.8196 232.486C21.5076 232.702 21.2316 232.972 20.9916 233.296L20.0736 239.848ZM31.4664 233.368C31.6944 232.684 32.0844 232.084 32.6364 231.568C33.2004 231.04 33.8304 230.776 34.5264 230.776C34.7664 230.776 34.9704 230.83 35.1384 230.938L34.6164 233.53C34.5444 233.47 34.4244 233.416 34.2564 233.368C34.1004 233.308 33.9084 233.278 33.6804 233.278C33.2484 233.278 32.8344 233.374 32.4384 233.566C32.0424 233.746 31.7364 234.01 31.5204 234.358L30.6384 241H28.2984L29.4324 232.45L28.5144 231.946L28.6404 231.226L31.2144 230.794L31.6284 231.046L31.5384 232.684L31.4664 233.368ZM40.936 230.758C42.184 230.758 43.138 231.124 43.798 231.856C44.458 232.576 44.788 233.614 44.788 234.97C44.788 236.086 44.56 237.124 44.104 238.084C43.648 239.044 43.006 239.812 42.178 240.388C41.35 240.952 40.402 241.234 39.334 241.234C38.086 241.234 37.132 240.868 36.472 240.136C35.824 239.392 35.5 238.336 35.5 236.968C35.5 235.84 35.722 234.802 36.166 233.854C36.622 232.906 37.264 232.156 38.092 231.604C38.92 231.04 39.868 230.758 40.936 230.758ZM40.63 231.892C40.078 231.892 39.61 232.144 39.226 232.648C38.842 233.14 38.554 233.77 38.362 234.538C38.182 235.306 38.092 236.092 38.092 236.896C38.092 238.036 38.218 238.87 38.47 239.398C38.734 239.926 39.142 240.19 39.694 240.19C40.234 240.19 40.69 239.938 41.062 239.434C41.434 238.93 41.71 238.288 41.89 237.508C42.07 236.728 42.16 235.93 42.16 235.114C42.16 233.974 42.034 233.152 41.782 232.648C41.542 232.144 41.158 231.892 40.63 231.892ZM49.0516 237.706C48.9676 238.402 48.9256 238.822 48.9256 238.966C48.9256 239.242 48.9796 239.44 49.0876 239.56C49.1956 239.668 49.3816 239.722 49.6456 239.722C49.8856 239.722 50.1556 239.668 50.4556 239.56C50.7676 239.44 51.0256 239.296 51.2296 239.128L51.4276 239.794C51.1156 240.142 50.6716 240.46 50.0956 240.748C49.5196 241.036 48.8716 241.18 48.1516 241.18C47.6476 241.18 47.2456 241.054 46.9456 240.802C46.6576 240.538 46.5136 240.124 46.5136 239.56C46.5136 239.32 46.5736 238.756 46.6936 237.868L47.4496 232.288H46.3696L46.5676 231.424L47.6476 231.046C48.0076 230.71 48.4336 229.882 48.9256 228.562H50.2756L49.9696 231.01H52.1296L51.9496 232.288H49.7896L49.0516 237.706ZM60.148 239.2C59.836 239.692 59.326 240.154 58.618 240.586C57.922 241.018 57.112 241.234 56.188 241.234C55.324 241.234 54.61 241.048 54.046 240.676C53.494 240.304 53.092 239.818 52.84 239.218C52.588 238.618 52.462 237.964 52.462 237.256C52.462 236.056 52.702 234.964 53.182 233.98C53.674 232.984 54.34 232.198 55.18 231.622C56.02 231.046 56.956 230.758 57.988 230.758C58.912 230.758 59.596 230.974 60.04 231.406C60.496 231.826 60.724 232.378 60.724 233.062C60.724 233.926 60.412 234.646 59.788 235.222C59.164 235.798 58.414 236.23 57.538 236.518C56.662 236.794 55.834 236.944 55.054 236.968C55.03 237.832 55.168 238.528 55.468 239.056C55.78 239.584 56.248 239.848 56.872 239.848C57.904 239.848 58.84 239.368 59.68 238.408L60.148 239.2ZM57.448 231.874C56.74 231.874 56.182 232.3 55.774 233.152C55.366 234.004 55.126 234.952 55.054 235.996C55.522 235.972 56.014 235.846 56.53 235.618C57.058 235.39 57.496 235.072 57.844 234.664C58.204 234.244 58.384 233.764 58.384 233.224C58.384 232.792 58.3 232.462 58.132 232.234C57.976 231.994 57.748 231.874 57.448 231.874ZM66.4023 232.864C65.4303 232.84 64.8123 232.834 64.5483 232.846C64.1523 232.858 63.8283 233.008 63.5763 233.296C63.3363 233.572 63.2043 233.914 63.1803 234.322H62.4603C62.4363 234.058 62.4243 233.788 62.4243 233.512C62.4243 232.924 62.4723 232.384 62.5683 231.892C62.6763 231.4 62.8503 231.094 63.0903 230.974C63.2943 230.854 63.5763 230.794 63.9363 230.794C64.5723 230.794 65.5083 230.848 66.7443 230.956C67.0203 230.968 67.4103 230.992 67.9143 231.028C68.4303 231.064 68.8083 231.082 69.0483 231.082C69.4563 231.082 69.7743 230.986 70.0023 230.794L70.4523 231.28L65.2143 237.868L63.8823 239.11L67.1223 239.146C67.5903 239.146 67.9563 239.008 68.2203 238.732C68.4843 238.444 68.6463 238.066 68.7063 237.598H69.4083C69.4203 237.718 69.4263 237.928 69.4263 238.228C69.4263 238.864 69.3723 239.452 69.2643 239.992C69.1683 240.52 68.9943 240.862 68.7423 241.018C68.5863 241.138 68.2863 241.198 67.8423 241.198C67.1583 241.198 66.1683 241.144 64.8723 241.036C64.5723 241.024 64.1523 241 63.6123 240.964C63.0843 240.928 62.7063 240.91 62.4783 240.91C62.3223 240.91 62.1543 240.934 61.9743 240.982C61.8063 241.03 61.6683 241.102 61.5603 241.198L61.0383 240.694L66.7983 233.656L67.7703 232.882L66.4023 232.864ZM73.8192 239.2C73.8072 239.26 73.8012 239.332 73.8012 239.416C73.8012 239.704 73.9032 239.848 74.1072 239.848C74.2152 239.848 74.3352 239.812 74.4672 239.74C74.5992 239.668 74.7672 239.548 74.9712 239.38L75.2052 239.938C75.0012 240.214 74.6952 240.49 74.2872 240.766C73.8912 241.042 73.4052 241.18 72.8292 241.18C72.3612 241.18 71.9952 241.09 71.7312 240.91C71.4672 240.718 71.3352 240.46 71.3352 240.136L71.3532 239.956C71.4252 239.332 71.6712 237.52 72.0912 234.52L72.3792 232.432L71.3172 231.928L71.4432 231.226L74.5392 230.794L74.9712 230.992L73.8192 239.2ZM74.0172 229.066C73.6932 229.066 73.4112 228.946 73.1712 228.706C72.9432 228.454 72.8292 228.166 72.8292 227.842C72.8292 227.398 72.9732 227.026 73.2612 226.726C73.5612 226.426 73.9392 226.276 74.3952 226.276C74.7672 226.276 75.0612 226.396 75.2772 226.636C75.4932 226.864 75.6012 227.14 75.6012 227.464C75.6012 227.92 75.4632 228.304 75.1872 228.616C74.9112 228.916 74.5212 229.066 74.0172 229.066ZM82.104 230.758C83.352 230.758 84.306 231.124 84.966 231.856C85.626 232.576 85.956 233.614 85.956 234.97C85.956 236.086 85.728 237.124 85.272 238.084C84.816 239.044 84.174 239.812 83.346 240.388C82.518 240.952 81.57 241.234 80.502 241.234C79.254 241.234 78.3 240.868 77.64 240.136C76.992 239.392 76.668 238.336 76.668 236.968C76.668 235.84 76.89 234.802 77.334 233.854C77.79 232.906 78.432 232.156 79.26 231.604C80.088 231.04 81.036 230.758 82.104 230.758ZM81.798 231.892C81.246 231.892 80.778 232.144 80.394 232.648C80.01 233.14 79.722 233.77 79.53 234.538C79.35 235.306 79.26 236.092 79.26 236.896C79.26 238.036 79.386 238.87 79.638 239.398C79.902 239.926 80.31 240.19 80.862 240.19C81.402 240.19 81.858 239.938 82.23 239.434C82.602 238.93 82.878 238.288 83.058 237.508C83.238 236.728 83.328 235.93 83.328 235.114C83.328 233.974 83.202 233.152 82.95 232.648C82.71 232.144 82.326 231.892 81.798 231.892ZM90.9036 232.954C91.3476 232.294 91.8756 231.766 92.4876 231.37C93.0996 230.974 93.7416 230.776 94.4136 230.776C95.9016 230.776 96.6456 231.658 96.6456 233.422C96.6456 233.89 96.4956 234.934 96.1956 236.554C96.1476 236.866 96.1056 237.106 96.0696 237.274C95.9016 238.222 95.8116 238.906 95.7996 239.326V239.398C95.7996 239.698 95.8956 239.848 96.0876 239.848C96.1956 239.848 96.3096 239.818 96.4296 239.758C96.5496 239.698 96.7056 239.59 96.8976 239.434L97.1496 239.992C96.9696 240.244 96.6756 240.508 96.2676 240.784C95.8596 241.048 95.3616 241.18 94.7736 241.18C94.2096 241.18 93.8196 241.06 93.6036 240.82C93.3876 240.568 93.2796 240.238 93.2796 239.83C93.2916 239.47 93.4056 238.756 93.6216 237.688L93.7296 237.076C93.7536 236.968 93.8016 236.68 93.8736 236.212C93.9576 235.744 94.0236 235.3 94.0716 234.88C94.1196 234.448 94.1436 234.076 94.1436 233.764C94.1436 233.212 94.0776 232.834 93.9456 232.63C93.8256 232.426 93.6036 232.324 93.2796 232.324C92.8836 232.324 92.4396 232.546 91.9476 232.99C91.4676 233.434 91.0536 233.968 90.7056 234.592L89.8416 241H87.4836L88.6356 232.432L87.7176 231.946L87.8616 231.208L90.6696 230.776L91.0836 230.974L90.9036 232.954ZM106.255 239.2C105.943 239.692 105.433 240.154 104.725 240.586C104.029 241.018 103.219 241.234 102.295 241.234C101.431 241.234 100.717 241.048 100.153 240.676C99.6015 240.304 99.1995 239.818 98.9475 239.218C98.6955 238.618 98.5695 237.964 98.5695 237.256C98.5695 236.056 98.8095 234.964 99.2895 233.98C99.7815 232.984 100.447 232.198 101.287 231.622C102.127 231.046 103.063 230.758 104.095 230.758C105.019 230.758 105.703 230.974 106.147 231.406C106.603 231.826 106.831 232.378 106.831 233.062C106.831 233.926 106.519 234.646 105.895 235.222C105.271 235.798 104.521 236.23 103.645 236.518C102.769 236.794 101.941 236.944 101.161 236.968C101.137 237.832 101.275 238.528 101.575 239.056C101.887 239.584 102.355 239.848 102.979 239.848C104.011 239.848 104.947 239.368 105.787 238.408L106.255 239.2ZM103.555 231.874C102.847 231.874 102.289 232.3 101.881 233.152C101.473 234.004 101.233 234.952 101.161 235.996C101.629 235.972 102.121 235.846 102.637 235.618C103.165 235.39 103.603 235.072 103.951 234.664C104.311 234.244 104.491 233.764 104.491 233.224C104.491 232.792 104.407 232.462 104.239 232.234C104.083 231.994 103.855 231.874 103.555 231.874ZM115.233 239.2C115.221 239.26 115.215 239.332 115.215 239.416C115.215 239.704 115.317 239.848 115.521 239.848C115.629 239.848 115.749 239.812 115.881 239.74C116.013 239.668 116.181 239.548 116.385 239.38L116.619 239.938C116.415 240.214 116.109 240.49 115.701 240.766C115.305 241.042 114.819 241.18 114.243 241.18C113.775 241.18 113.409 241.09 113.145 240.91C112.881 240.718 112.749 240.46 112.749 240.136L112.767 239.956C112.839 239.332 113.085 237.52 113.505 234.52L113.793 232.432L112.731 231.928L112.857 231.226L115.953 230.794L116.385 230.992L115.233 239.2ZM115.431 229.066C115.107 229.066 114.825 228.946 114.585 228.706C114.357 228.454 114.243 228.166 114.243 227.842C114.243 227.398 114.387 227.026 114.675 226.726C114.975 226.426 115.353 226.276 115.809 226.276C116.181 226.276 116.475 226.396 116.691 226.636C116.907 226.864 117.015 227.14 117.015 227.464C117.015 227.92 116.877 228.304 116.601 228.616C116.325 228.916 115.935 229.066 115.431 229.066ZM121.718 232.954C122.162 232.294 122.69 231.766 123.302 231.37C123.914 230.974 124.556 230.776 125.228 230.776C126.716 230.776 127.46 231.658 127.46 233.422C127.46 233.89 127.31 234.934 127.01 236.554C126.962 236.866 126.92 237.106 126.884 237.274C126.716 238.222 126.626 238.906 126.614 239.326V239.398C126.614 239.698 126.71 239.848 126.902 239.848C127.01 239.848 127.124 239.818 127.244 239.758C127.364 239.698 127.52 239.59 127.712 239.434L127.964 239.992C127.784 240.244 127.49 240.508 127.082 240.784C126.674 241.048 126.176 241.18 125.588 241.18C125.024 241.18 124.634 241.06 124.418 240.82C124.202 240.568 124.094 240.238 124.094 239.83C124.106 239.47 124.22 238.756 124.436 237.688L124.544 237.076C124.568 236.968 124.616 236.68 124.688 236.212C124.772 235.744 124.838 235.3 124.886 234.88C124.934 234.448 124.958 234.076 124.958 233.764C124.958 233.212 124.892 232.834 124.76 232.63C124.64 232.426 124.418 232.324 124.094 232.324C123.698 232.324 123.254 232.546 122.762 232.99C122.282 233.434 121.868 233.968 121.52 234.592L120.656 241H118.298L119.45 232.432L118.532 231.946L118.676 231.208L121.484 230.776L121.898 230.974L121.718 232.954ZM140.135 233.458C139.799 233.038 139.499 232.702 139.235 232.45C138.983 232.186 138.761 232.054 138.569 232.054C138.125 232.054 137.711 232.258 137.327 232.666C136.955 233.074 136.649 233.644 136.409 234.376C136.181 235.108 136.067 235.93 136.067 236.842C136.067 237.838 136.211 238.57 136.499 239.038C136.787 239.494 137.225 239.722 137.813 239.722C138.317 239.722 138.743 239.626 139.091 239.434C139.451 239.242 139.799 238.972 140.135 238.624L140.603 239.416C140.303 239.86 139.829 240.268 139.181 240.64C138.545 241 137.789 241.18 136.913 241.18C135.881 241.18 135.071 240.82 134.483 240.1C133.895 239.368 133.601 238.336 133.601 237.004C133.601 235.996 133.811 235.018 134.231 234.07C134.651 233.11 135.275 232.324 136.103 231.712C136.931 231.088 137.927 230.776 139.091 230.776C139.463 230.776 139.847 230.812 140.243 230.884C140.651 230.944 140.981 231.034 141.233 231.154L140.621 233.494L140.135 233.458ZM149.838 239.164C149.826 239.212 149.82 239.284 149.82 239.38C149.82 239.692 149.94 239.848 150.18 239.848C150.372 239.848 150.642 239.704 150.99 239.416L151.242 239.974C151.086 240.214 150.804 240.478 150.396 240.766C150 241.042 149.538 241.18 149.01 241.18C148.602 241.18 148.278 241.09 148.038 240.91C147.798 240.73 147.672 240.454 147.66 240.082L147.696 239.776C147.36 240.172 146.952 240.508 146.472 240.784C145.992 241.048 145.464 241.18 144.888 241.18C143.88 241.18 143.124 240.838 142.62 240.154C142.128 239.458 141.882 238.552 141.882 237.436C141.882 236.332 142.11 235.27 142.566 234.25C143.034 233.23 143.712 232.396 144.6 231.748C145.488 231.1 146.544 230.776 147.768 230.776C148.08 230.776 148.416 230.812 148.776 230.884C149.148 230.956 149.472 231.04 149.748 231.136L150.99 230.776L149.838 239.164ZM148.452 232.054C148.224 231.946 147.93 231.892 147.57 231.892C146.85 231.892 146.25 232.168 145.77 232.72C145.29 233.26 144.936 233.95 144.708 234.79C144.492 235.618 144.384 236.458 144.384 237.31C144.384 238.102 144.504 238.72 144.744 239.164C144.984 239.596 145.338 239.812 145.806 239.812C146.106 239.812 146.406 239.71 146.706 239.506C147.018 239.302 147.294 239.062 147.534 238.786L148.452 232.054ZM158.674 232.72C158.53 232.552 158.29 232.378 157.954 232.198C157.63 232.018 157.252 231.928 156.82 231.928C156.34 231.928 155.95 232.036 155.65 232.252C155.362 232.456 155.218 232.762 155.218 233.17C155.218 233.53 155.338 233.854 155.578 234.142C155.83 234.418 156.232 234.754 156.784 235.15C157.396 235.606 157.864 236.05 158.188 236.482C158.512 236.902 158.674 237.442 158.674 238.102C158.674 238.762 158.494 239.326 158.134 239.794C157.774 240.25 157.294 240.598 156.694 240.838C156.094 241.066 155.434 241.18 154.714 241.18C154.174 241.18 153.622 241.12 153.058 241C152.494 240.868 152.128 240.73 151.96 240.586L152.32 239.056C152.572 239.272 152.914 239.476 153.346 239.668C153.778 239.86 154.228 239.956 154.696 239.956C155.14 239.956 155.518 239.854 155.83 239.65C156.154 239.446 156.316 239.128 156.316 238.696C156.316 238.324 156.178 237.988 155.902 237.688C155.626 237.388 155.212 237.046 154.66 236.662C154.156 236.314 153.73 235.906 153.382 235.438C153.046 234.958 152.878 234.382 152.878 233.71C152.878 233.134 153.04 232.624 153.364 232.18C153.7 231.736 154.156 231.394 154.732 231.154C155.32 230.902 155.992 230.776 156.748 230.776C157.192 230.776 157.642 230.812 158.098 230.884C158.554 230.956 158.86 231.034 159.016 231.118L158.674 232.72ZM165.618 230.758C166.866 230.758 167.82 231.124 168.48 231.856C169.14 232.576 169.47 233.614 169.47 234.97C169.47 236.086 169.242 237.124 168.786 238.084C168.33 239.044 167.688 239.812 166.86 240.388C166.032 240.952 165.084 241.234 164.016 241.234C162.768 241.234 161.814 240.868 161.154 240.136C160.506 239.392 160.182 238.336 160.182 236.968C160.182 235.84 160.404 234.802 160.848 233.854C161.304 232.906 161.946 232.156 162.774 231.604C163.602 231.04 164.55 230.758 165.618 230.758ZM165.312 231.892C164.76 231.892 164.292 232.144 163.908 232.648C163.524 233.14 163.236 233.77 163.044 234.538C162.864 235.306 162.774 236.092 162.774 236.896C162.774 238.036 162.9 238.87 163.152 239.398C163.416 239.926 163.824 240.19 164.376 240.19C164.916 240.19 165.372 239.938 165.744 239.434C166.116 238.93 166.392 238.288 166.572 237.508C166.752 236.728 166.842 235.93 166.842 235.114C166.842 233.974 166.716 233.152 166.464 232.648C166.224 232.144 165.84 231.892 165.312 231.892ZM183.117 239.182C183.105 239.23 183.099 239.302 183.099 239.398C183.099 239.698 183.201 239.848 183.405 239.848C183.609 239.848 183.879 239.71 184.215 239.434L184.467 239.992C183.795 240.784 183.051 241.18 182.235 241.18C181.815 241.18 181.497 241.078 181.281 240.874C181.065 240.67 180.939 240.358 180.903 239.938V239.668C180.603 240.088 180.201 240.448 179.697 240.748C179.193 241.036 178.617 241.18 177.969 241.18C176.961 241.18 176.211 240.838 175.719 240.154C175.227 239.458 174.981 238.552 174.981 237.436C174.981 236.32 175.203 235.252 175.647 234.232C176.091 233.212 176.751 232.384 177.627 231.748C178.515 231.1 179.583 230.776 180.831 230.776C181.179 230.776 181.545 230.824 181.929 230.92L182.379 227.878L181.083 227.518L181.245 226.852L184.485 226.492L184.935 226.726L183.117 239.182ZM181.749 232.144C181.449 231.976 181.071 231.892 180.615 231.892C179.883 231.892 179.283 232.174 178.815 232.738C178.347 233.29 178.005 233.98 177.789 234.808C177.573 235.636 177.465 236.476 177.465 237.328C177.465 238.12 177.585 238.732 177.825 239.164C178.077 239.596 178.431 239.812 178.887 239.812C179.259 239.812 179.613 239.698 179.949 239.47C180.285 239.23 180.561 238.948 180.777 238.624L181.749 232.144ZM188.798 239.2C188.786 239.26 188.78 239.332 188.78 239.416C188.78 239.704 188.882 239.848 189.086 239.848C189.194 239.848 189.314 239.812 189.446 239.74C189.578 239.668 189.746 239.548 189.95 239.38L190.184 239.938C189.98 240.214 189.674 240.49 189.266 240.766C188.87 241.042 188.384 241.18 187.808 241.18C187.34 241.18 186.974 241.09 186.71 240.91C186.446 240.718 186.314 240.46 186.314 240.136L186.332 239.956C186.404 239.332 186.65 237.52 187.07 234.52L187.358 232.432L186.296 231.928L186.422 231.226L189.518 230.794L189.95 230.992L188.798 239.2ZM188.996 229.066C188.672 229.066 188.39 228.946 188.15 228.706C187.922 228.454 187.808 228.166 187.808 227.842C187.808 227.398 187.952 227.026 188.24 226.726C188.54 226.426 188.918 226.276 189.374 226.276C189.746 226.276 190.04 226.396 190.256 226.636C190.472 226.864 190.58 227.14 190.58 227.464C190.58 227.92 190.442 228.304 190.166 228.616C189.89 228.916 189.5 229.066 188.996 229.066ZM199.554 231.964C199.866 231.616 200.244 231.334 200.688 231.118C201.132 230.89 201.618 230.776 202.146 230.776C203.142 230.776 203.898 231.112 204.414 231.784C204.93 232.456 205.188 233.392 205.188 234.592C205.188 235.732 204.948 236.806 204.468 237.814C203.988 238.822 203.304 239.638 202.416 240.262C201.54 240.874 200.526 241.18 199.374 241.18C199.062 241.18 198.708 241.138 198.312 241.054L197.682 245.572H195.378L197.16 232.378L196.206 231.928L196.35 231.208L199.266 230.776L199.68 230.974L199.554 231.964ZM198.474 239.848C198.75 239.992 199.128 240.064 199.608 240.064C200.292 240.064 200.862 239.8 201.318 239.272C201.786 238.744 202.128 238.066 202.344 237.238C202.572 236.41 202.686 235.54 202.686 234.628C202.686 233.884 202.56 233.284 202.308 232.828C202.068 232.372 201.714 232.144 201.246 232.144C200.874 232.144 200.532 232.258 200.22 232.486C199.908 232.702 199.632 232.972 199.392 233.296L198.474 239.848ZM214.115 239.2C213.803 239.692 213.293 240.154 212.585 240.586C211.889 241.018 211.079 241.234 210.155 241.234C209.291 241.234 208.577 241.048 208.013 240.676C207.461 240.304 207.059 239.818 206.807 239.218C206.555 238.618 206.429 237.964 206.429 237.256C206.429 236.056 206.669 234.964 207.149 233.98C207.641 232.984 208.307 232.198 209.147 231.622C209.987 231.046 210.923 230.758 211.955 230.758C212.879 230.758 213.563 230.974 214.007 231.406C214.463 231.826 214.691 232.378 214.691 233.062C214.691 233.926 214.379 234.646 213.755 235.222C213.131 235.798 212.381 236.23 211.505 236.518C210.629 236.794 209.801 236.944 209.021 236.968C208.997 237.832 209.135 238.528 209.435 239.056C209.747 239.584 210.215 239.848 210.839 239.848C211.871 239.848 212.807 239.368 213.647 238.408L214.115 239.2ZM211.415 231.874C210.707 231.874 210.149 232.3 209.741 233.152C209.333 234.004 209.093 234.952 209.021 235.996C209.489 235.972 209.981 235.846 210.497 235.618C211.025 235.39 211.463 235.072 211.811 234.664C212.171 234.244 212.351 233.764 212.351 233.224C212.351 232.792 212.267 232.462 212.099 232.234C211.943 231.994 211.715 231.874 211.415 231.874ZM219.271 233.368C219.499 232.684 219.889 232.084 220.441 231.568C221.005 231.04 221.635 230.776 222.331 230.776C222.571 230.776 222.775 230.83 222.943 230.938L222.421 233.53C222.349 233.47 222.229 233.416 222.061 233.368C221.905 233.308 221.713 233.278 221.485 233.278C221.053 233.278 220.639 233.374 220.243 233.566C219.847 233.746 219.541 234.01 219.325 234.358L218.443 241H216.103L217.237 232.45L216.319 231.946L216.445 231.226L219.019 230.794L219.433 231.046L219.343 232.684L219.271 233.368ZM231.369 239.182C231.357 239.23 231.351 239.302 231.351 239.398C231.351 239.698 231.453 239.848 231.657 239.848C231.861 239.848 232.131 239.71 232.467 239.434L232.719 239.992C232.047 240.784 231.303 241.18 230.487 241.18C230.067 241.18 229.749 241.078 229.533 240.874C229.317 240.67 229.191 240.358 229.155 239.938V239.668C228.855 240.088 228.453 240.448 227.949 240.748C227.445 241.036 226.869 241.18 226.221 241.18C225.213 241.18 224.463 240.838 223.971 240.154C223.479 239.458 223.233 238.552 223.233 237.436C223.233 236.32 223.455 235.252 223.899 234.232C224.343 233.212 225.003 232.384 225.879 231.748C226.767 231.1 227.835 230.776 229.083 230.776C229.431 230.776 229.797 230.824 230.181 230.92L230.631 227.878L229.335 227.518L229.497 226.852L232.737 226.492L233.187 226.726L231.369 239.182ZM230.001 232.144C229.701 231.976 229.323 231.892 228.867 231.892C228.135 231.892 227.535 232.174 227.067 232.738C226.599 233.29 226.257 233.98 226.041 234.808C225.825 235.636 225.717 236.476 225.717 237.328C225.717 238.12 225.837 238.732 226.077 239.164C226.329 239.596 226.683 239.812 227.139 239.812C227.511 239.812 227.865 239.698 228.201 239.47C228.537 239.23 228.813 238.948 229.029 238.624L230.001 232.144ZM237.05 239.2C237.038 239.26 237.032 239.332 237.032 239.416C237.032 239.704 237.134 239.848 237.338 239.848C237.446 239.848 237.566 239.812 237.698 239.74C237.83 239.668 237.998 239.548 238.202 239.38L238.436 239.938C238.232 240.214 237.926 240.49 237.518 240.766C237.122 241.042 236.636 241.18 236.06 241.18C235.592 241.18 235.226 241.09 234.962 240.91C234.698 240.718 234.566 240.46 234.566 240.136L234.584 239.956C234.656 239.332 234.902 237.52 235.322 234.52L235.61 232.432L234.548 231.928L234.674 231.226L237.77 230.794L238.202 230.992L237.05 239.2ZM237.248 229.066C236.924 229.066 236.642 228.946 236.402 228.706C236.174 228.454 236.06 228.166 236.06 227.842C236.06 227.398 236.204 227.026 236.492 226.726C236.792 226.426 237.17 226.276 237.626 226.276C237.998 226.276 238.292 226.396 238.508 226.636C238.724 226.864 238.832 227.14 238.832 227.464C238.832 227.92 238.694 228.304 238.418 228.616C238.142 228.916 237.752 229.066 237.248 229.066ZM242.85 237.706C242.766 238.402 242.724 238.822 242.724 238.966C242.724 239.242 242.778 239.44 242.886 239.56C242.994 239.668 243.18 239.722 243.444 239.722C243.684 239.722 243.954 239.668 244.254 239.56C244.566 239.44 244.824 239.296 245.028 239.128L245.226 239.794C244.914 240.142 244.47 240.46 243.894 240.748C243.318 241.036 242.67 241.18 241.95 241.18C241.446 241.18 241.044 241.054 240.744 240.802C240.456 240.538 240.312 240.124 240.312 239.56C240.312 239.32 240.372 238.756 240.492 237.868L241.248 232.288H240.168L240.366 231.424L241.446 231.046C241.806 230.71 242.232 229.882 242.724 228.562H244.074L243.768 231.01H245.928L245.748 232.288H243.588L242.85 237.706ZM254.199 239.164C254.187 239.212 254.181 239.284 254.181 239.38C254.181 239.692 254.301 239.848 254.541 239.848C254.733 239.848 255.003 239.704 255.351 239.416L255.603 239.974C255.447 240.214 255.165 240.478 254.757 240.766C254.361 241.042 253.899 241.18 253.371 241.18C252.963 241.18 252.639 241.09 252.399 240.91C252.159 240.73 252.033 240.454 252.021 240.082L252.057 239.776C251.721 240.172 251.313 240.508 250.833 240.784C250.353 241.048 249.825 241.18 249.249 241.18C248.241 241.18 247.485 240.838 246.981 240.154C246.489 239.458 246.243 238.552 246.243 237.436C246.243 236.332 246.471 235.27 246.927 234.25C247.395 233.23 248.073 232.396 248.961 231.748C249.849 231.1 250.905 230.776 252.129 230.776C252.441 230.776 252.777 230.812 253.137 230.884C253.509 230.956 253.833 231.04 254.109 231.136L255.351 230.776L254.199 239.164ZM252.813 232.054C252.585 231.946 252.291 231.892 251.931 231.892C251.211 231.892 250.611 232.168 250.131 232.72C249.651 233.26 249.297 233.95 249.069 234.79C248.853 235.618 248.745 236.458 248.745 237.31C248.745 238.102 248.865 238.72 249.105 239.164C249.345 239.596 249.699 239.812 250.167 239.812C250.467 239.812 250.767 239.71 251.067 239.506C251.379 239.302 251.655 239.062 251.895 238.786L252.813 232.054ZM269.197 239.182C269.185 239.23 269.179 239.302 269.179 239.398C269.179 239.698 269.281 239.848 269.485 239.848C269.689 239.848 269.959 239.71 270.295 239.434L270.547 239.992C269.875 240.784 269.131 241.18 268.315 241.18C267.895 241.18 267.577 241.078 267.361 240.874C267.145 240.67 267.019 240.358 266.983 239.938V239.668C266.683 240.088 266.281 240.448 265.777 240.748C265.273 241.036 264.697 241.18 264.049 241.18C263.041 241.18 262.291 240.838 261.799 240.154C261.307 239.458 261.061 238.552 261.061 237.436C261.061 236.32 261.283 235.252 261.727 234.232C262.171 233.212 262.831 232.384 263.707 231.748C264.595 231.1 265.663 230.776 266.911 230.776C267.259 230.776 267.625 230.824 268.009 230.92L268.459 227.878L267.163 227.518L267.325 226.852L270.565 226.492L271.015 226.726L269.197 239.182ZM267.829 232.144C267.529 231.976 267.151 231.892 266.695 231.892C265.963 231.892 265.363 232.174 264.895 232.738C264.427 233.29 264.085 233.98 263.869 234.808C263.653 235.636 263.545 236.476 263.545 237.328C263.545 238.12 263.665 238.732 263.905 239.164C264.157 239.596 264.511 239.812 264.967 239.812C265.339 239.812 265.693 239.698 266.029 239.47C266.365 239.23 266.641 238.948 266.857 238.624L267.829 232.144ZM279.576 239.2C279.264 239.692 278.754 240.154 278.046 240.586C277.35 241.018 276.54 241.234 275.616 241.234C274.752 241.234 274.038 241.048 273.474 240.676C272.922 240.304 272.52 239.818 272.268 239.218C272.016 238.618 271.89 237.964 271.89 237.256C271.89 236.056 272.13 234.964 272.61 233.98C273.102 232.984 273.768 232.198 274.608 231.622C275.448 231.046 276.384 230.758 277.416 230.758C278.34 230.758 279.024 230.974 279.468 231.406C279.924 231.826 280.152 232.378 280.152 233.062C280.152 233.926 279.84 234.646 279.216 235.222C278.592 235.798 277.842 236.23 276.966 236.518C276.09 236.794 275.262 236.944 274.482 236.968C274.458 237.832 274.596 238.528 274.896 239.056C275.208 239.584 275.676 239.848 276.3 239.848C277.332 239.848 278.268 239.368 279.108 238.408L279.576 239.2ZM276.876 231.874C276.168 231.874 275.61 232.3 275.202 233.152C274.794 234.004 274.554 234.952 274.482 235.996C274.95 235.972 275.442 235.846 275.958 235.618C276.486 235.39 276.924 235.072 277.272 234.664C277.632 234.244 277.812 233.764 277.812 233.224C277.812 232.792 277.728 232.462 277.56 232.234C277.404 231.994 277.176 231.874 276.876 231.874ZM284.048 239.2C284.036 239.248 284.03 239.314 284.03 239.398C284.03 239.698 284.138 239.848 284.354 239.848C284.462 239.848 284.576 239.818 284.696 239.758C284.828 239.698 285.002 239.572 285.218 239.38L285.452 239.938C285.26 240.214 284.978 240.49 284.606 240.766C284.234 241.042 283.754 241.18 283.166 241.18C282.71 241.18 282.338 241.09 282.05 240.91C281.762 240.718 281.612 240.424 281.6 240.028C281.6 239.98 281.624 239.764 281.672 239.38L283.238 227.878L282.104 227.518L282.266 226.852L285.326 226.492L285.74 226.726L284.048 239.2ZM125.467 262.2C125.455 262.248 125.449 262.314 125.449 262.398C125.449 262.698 125.557 262.848 125.773 262.848C125.881 262.848 125.995 262.818 126.115 262.758C126.247 262.698 126.421 262.572 126.637 262.38L126.871 262.938C126.679 263.214 126.397 263.49 126.025 263.766C125.653 264.042 125.173 264.18 124.585 264.18C124.129 264.18 123.757 264.09 123.469 263.91C123.181 263.718 123.031 263.424 123.019 263.028C123.019 262.98 123.043 262.764 123.091 262.38L124.657 250.878L123.523 250.518L123.685 249.852L126.745 249.492L127.159 249.726L125.467 262.2ZM136.135 262.164C136.123 262.212 136.117 262.284 136.117 262.38C136.117 262.692 136.237 262.848 136.477 262.848C136.669 262.848 136.939 262.704 137.287 262.416L137.539 262.974C137.383 263.214 137.101 263.478 136.693 263.766C136.297 264.042 135.835 264.18 135.307 264.18C134.899 264.18 134.575 264.09 134.335 263.91C134.095 263.73 133.969 263.454 133.957 263.082L133.993 262.776C133.657 263.172 133.249 263.508 132.769 263.784C132.289 264.048 131.761 264.18 131.185 264.18C130.177 264.18 129.421 263.838 128.917 263.154C128.425 262.458 128.179 261.552 128.179 260.436C128.179 259.332 128.407 258.27 128.863 257.25C129.331 256.23 130.009 255.396 130.897 254.748C131.785 254.1 132.841 253.776 134.065 253.776C134.377 253.776 134.713 253.812 135.073 253.884C135.445 253.956 135.769 254.04 136.045 254.136L137.287 253.776L136.135 262.164ZM134.749 255.054C134.521 254.946 134.227 254.892 133.867 254.892C133.147 254.892 132.547 255.168 132.067 255.72C131.587 256.26 131.233 256.95 131.005 257.79C130.789 258.618 130.681 259.458 130.681 260.31C130.681 261.102 130.801 261.72 131.041 262.164C131.281 262.596 131.635 262.812 132.103 262.812C132.403 262.812 132.703 262.71 133.003 262.506C133.315 262.302 133.591 262.062 133.831 261.786L134.749 255.054ZM139.374 255.702C139.314 255.378 139.182 255.204 138.978 255.18C138.846 255.18 138.732 255.21 138.636 255.27C138.54 255.33 138.486 255.366 138.474 255.378L138.222 254.766C138.366 254.586 138.63 254.376 139.014 254.136C139.398 253.896 139.824 253.776 140.292 253.776C140.76 253.776 141.108 253.878 141.336 254.082C141.564 254.286 141.708 254.586 141.768 254.982L142.542 260.292L142.794 262.2L143.532 261.174C144.072 260.358 144.474 259.596 144.738 258.888C145.014 258.168 145.176 257.406 145.224 256.602C145.236 256.374 145.194 256.068 145.098 255.684C145.014 255.372 144.972 255.108 144.972 254.892C144.972 254.568 145.074 254.304 145.278 254.1C145.482 253.884 145.758 253.776 146.106 253.776C146.574 253.776 146.916 253.956 147.132 254.316C147.36 254.664 147.474 255.108 147.474 255.648C147.474 257.136 146.31 259.356 143.982 262.308L142.614 264.054L141.03 264.18L140.382 260.886L139.374 255.702ZM153.691 253.758C154.939 253.758 155.893 254.124 156.553 254.856C157.213 255.576 157.543 256.614 157.543 257.97C157.543 259.086 157.315 260.124 156.859 261.084C156.403 262.044 155.761 262.812 154.933 263.388C154.105 263.952 153.157 264.234 152.089 264.234C150.841 264.234 149.887 263.868 149.227 263.136C148.579 262.392 148.255 261.336 148.255 259.968C148.255 258.84 148.477 257.802 148.921 256.854C149.377 255.906 150.019 255.156 150.847 254.604C151.675 254.04 152.623 253.758 153.691 253.758ZM153.385 254.892C152.833 254.892 152.365 255.144 151.981 255.648C151.597 256.14 151.309 256.77 151.117 257.538C150.937 258.306 150.847 259.092 150.847 259.896C150.847 261.036 150.973 261.87 151.225 262.398C151.489 262.926 151.897 263.19 152.449 263.19C152.989 263.19 153.445 262.938 153.817 262.434C154.189 261.93 154.465 261.288 154.645 260.508C154.825 259.728 154.915 258.93 154.915 258.114C154.915 256.974 154.789 256.152 154.537 255.648C154.297 255.144 153.913 254.892 153.385 254.892ZM162.256 256.368C162.484 255.684 162.874 255.084 163.426 254.568C163.99 254.04 164.62 253.776 165.316 253.776C165.556 253.776 165.76 253.83 165.928 253.938L165.406 256.53C165.334 256.47 165.214 256.416 165.046 256.368C164.89 256.308 164.698 256.278 164.47 256.278C164.038 256.278 163.624 256.374 163.228 256.566C162.832 256.746 162.526 257.01 162.31 257.358L161.428 264H159.088L160.222 255.45L159.304 254.946L159.43 254.226L162.004 253.794L162.418 254.046L162.328 255.684L162.256 256.368ZM171.726 253.758C172.974 253.758 173.928 254.124 174.588 254.856C175.248 255.576 175.578 256.614 175.578 257.97C175.578 259.086 175.35 260.124 174.894 261.084C174.438 262.044 173.796 262.812 172.968 263.388C172.14 263.952 171.192 264.234 170.124 264.234C168.876 264.234 167.922 263.868 167.262 263.136C166.614 262.392 166.29 261.336 166.29 259.968C166.29 258.84 166.512 257.802 166.956 256.854C167.412 255.906 168.054 255.156 168.882 254.604C169.71 254.04 170.658 253.758 171.726 253.758ZM171.42 254.892C170.868 254.892 170.4 255.144 170.016 255.648C169.632 256.14 169.344 256.77 169.152 257.538C168.972 258.306 168.882 259.092 168.882 259.896C168.882 261.036 169.008 261.87 169.26 262.398C169.524 262.926 169.932 263.19 170.484 263.19C171.024 263.19 171.48 262.938 171.852 262.434C172.224 261.93 172.5 261.288 172.68 260.508C172.86 259.728 172.95 258.93 172.95 258.114C172.95 256.974 172.824 256.152 172.572 255.648C172.332 255.144 171.948 254.892 171.42 254.892ZM176.692 262.92C176.692 262.452 176.842 262.068 177.142 261.768C177.442 261.456 177.784 261.3 178.168 261.3C178.552 261.3 178.852 261.426 179.068 261.678C179.284 261.918 179.392 262.212 179.392 262.56C179.392 263.076 179.236 263.478 178.924 263.766C178.624 264.042 178.258 264.18 177.826 264.18C177.514 264.18 177.244 264.066 177.016 263.838C176.8 263.598 176.692 263.292 176.692 262.92Z" fill="#394454"/>
<path d="M122.852 90.1364V84.9205L132.801 69.2727H137.534V76.2273H134.829L129.468 84.7273V84.9205H144.15V90.1364H122.852ZM134.877 94V88.5426L135.022 86.2727V69.2727H141.301V94H134.877ZM156.625 94.3381C154.677 94.3381 152.947 94.004 151.434 93.3359C149.928 92.6598 148.745 91.7301 147.884 90.5469C147.023 89.3636 146.588 88.0033 146.58 86.4659H153.341C153.349 86.9408 153.494 87.3674 153.776 87.7457C154.066 88.116 154.46 88.4058 154.959 88.6151C155.458 88.8243 156.03 88.929 156.674 88.929C157.293 88.929 157.841 88.8203 158.316 88.603C158.791 88.3776 159.161 88.0677 159.426 87.6733C159.692 87.2789 159.821 86.8281 159.813 86.321C159.821 85.822 159.668 85.3793 159.354 84.9929C159.048 84.6065 158.618 84.3047 158.062 84.0874C157.507 83.87 156.867 83.7614 156.142 83.7614H153.631V79.125H156.142C156.81 79.125 157.398 79.0163 157.905 78.799C158.42 78.5817 158.819 78.2798 159.1 77.8935C159.39 77.5071 159.531 77.0644 159.523 76.5653C159.531 76.0824 159.414 75.6558 159.173 75.2855C158.931 74.9152 158.593 74.6255 158.159 74.4162C157.732 74.2069 157.237 74.1023 156.674 74.1023C156.062 74.1023 155.515 74.2109 155.032 74.4283C154.557 74.6456 154.182 74.9474 153.909 75.3338C153.635 75.7202 153.494 76.1629 153.486 76.6619H147.063C147.071 75.1487 147.485 73.8125 148.306 72.6534C149.136 71.4943 150.27 70.5848 151.711 69.9247C153.152 69.2647 154.806 68.9347 156.674 68.9347C158.501 68.9347 160.115 69.2446 161.515 69.8643C162.924 70.4841 164.023 71.3374 164.811 72.424C165.608 73.5026 166.003 74.7382 165.995 76.1307C166.011 77.5152 165.536 78.6501 164.57 79.5355C163.612 80.4209 162.397 80.9441 160.924 81.1051V81.2983C162.92 81.5156 164.421 82.1274 165.427 83.1335C166.433 84.1316 166.928 85.3873 166.912 86.9006C166.92 88.3494 166.486 89.6333 165.608 90.7521C164.739 91.871 163.528 92.7483 161.974 93.3842C160.429 94.0201 158.646 94.3381 156.625 94.3381ZM184.06 89.3636V88.0597C184.06 87.0133 184.286 86.0473 184.736 85.1619C185.195 84.2765 185.859 83.5642 186.729 83.0249C187.598 82.4856 188.656 82.2159 189.904 82.2159C191.184 82.2159 192.258 82.4815 193.128 83.0128C194.005 83.544 194.669 84.2524 195.12 85.1378C195.571 86.0232 195.796 86.9972 195.796 88.0597V89.3636C195.796 90.41 195.567 91.3759 195.108 92.2614C194.657 93.1468 193.993 93.8591 193.116 94.3984C192.238 94.9377 191.168 95.2074 189.904 95.2074C188.64 95.2074 187.574 94.9377 186.704 94.3984C185.835 93.8591 185.175 93.1468 184.724 92.2614C184.282 91.3759 184.06 90.41 184.06 89.3636ZM188.262 88.0597V89.3636C188.262 89.8224 188.375 90.2772 188.6 90.728C188.833 91.1707 189.268 91.392 189.904 91.392C190.572 91.392 191.011 91.1747 191.22 90.7401C191.437 90.3054 191.546 89.8466 191.546 89.3636V88.0597C191.546 87.5767 191.445 87.1098 191.244 86.6591C191.043 86.2083 190.596 85.983 189.904 85.983C189.268 85.983 188.833 86.2083 188.6 86.6591C188.375 87.1098 188.262 87.5767 188.262 88.0597ZM171.117 75.2131V73.9091C171.117 72.8466 171.346 71.8726 171.805 70.9872C172.272 70.1018 172.94 69.3935 173.809 68.8622C174.679 68.331 175.729 68.0653 176.961 68.0653C178.241 68.0653 179.315 68.331 180.184 68.8622C181.062 69.3935 181.726 70.1018 182.177 70.9872C182.627 71.8726 182.853 72.8466 182.853 73.9091V75.2131C182.853 76.2756 182.623 77.2455 182.165 78.1229C181.714 79.0002 181.05 79.7005 180.172 80.2237C179.295 80.7469 178.224 81.0085 176.961 81.0085C175.697 81.0085 174.631 80.7429 173.761 80.2116C172.892 79.6804 172.232 78.9761 171.781 78.0987C171.338 77.2214 171.117 76.2595 171.117 75.2131ZM175.367 73.9091V75.2131C175.367 75.696 175.48 76.1548 175.705 76.5895C175.93 77.0241 176.349 77.2415 176.961 77.2415C177.629 77.2415 178.068 77.0241 178.277 76.5895C178.494 76.1548 178.603 75.696 178.603 75.2131V73.9091C178.603 73.4261 178.502 72.9593 178.301 72.5085C178.1 72.0578 177.653 71.8324 176.961 71.8324C176.325 71.8324 175.898 72.0658 175.681 72.5327C175.472 72.9915 175.367 73.4503 175.367 73.9091ZM173.17 94L190.17 69.2727H193.599L176.599 94H173.17Z" fill="#F04E5A"/>
<path d="M152 7C169.048 7 185.588 12.8083 198.893 23.4677C212.198 34.1271 221.475 49.0014 225.194 65.6393C228.913 82.2771 226.852 99.6855 219.352 114.995C211.852 130.305 199.359 142.603 183.933 149.862L179.067 139.52C192.142 133.367 202.73 122.944 209.088 109.967C215.445 96.9902 217.191 82.2349 214.039 68.1326C210.887 54.0304 203.024 41.4229 191.747 32.388C180.469 23.3531 166.45 18.43 152 18.43L152 7Z" fill="#F04E5A"/>
</svg>
