<svg width="303" height="269" viewBox="0 0 303 269" fill="none" xmlns="http://www.w3.org/2000/svg">
<circle cx="152" cy="82" r="82" fill="#E9E9E9"/>
<path d="M12.7931 208.946C13.1171 208.61 13.5011 208.334 13.9451 208.118C14.4011 207.89 14.8931 207.776 15.4211 207.776C16.4171 207.776 17.1671 208.112 17.6711 208.784C18.1751 209.444 18.4271 210.38 18.4271 211.592C18.4271 212.732 18.1871 213.806 17.7071 214.814C17.2391 215.822 16.5611 216.638 15.6731 217.262C14.7851 217.874 13.7531 218.18 12.5771 218.18C12.2411 218.18 11.8751 218.138 11.4791 218.054C11.0951 217.97 10.7471 217.874 10.4351 217.766L9.33705 218.126L11.0471 204.86L10.1471 204.5L10.3091 203.816L13.0451 203.492L13.4771 203.726L12.7931 208.946ZM11.7491 216.866C11.9891 216.998 12.3371 217.064 12.7931 217.064C13.5011 217.064 14.0891 216.8 14.5571 216.272C15.0371 215.744 15.3911 215.066 15.6191 214.238C15.8471 213.398 15.9611 212.528 15.9611 211.628C15.9611 210.896 15.8351 210.302 15.5831 209.846C15.3311 209.378 14.9711 209.144 14.5031 209.144C14.1311 209.144 13.7831 209.258 13.4591 209.486C13.1351 209.702 12.8531 209.966 12.6131 210.278L11.7491 216.866ZM27.3912 216.2C27.0792 216.692 26.5692 217.154 25.8612 217.586C25.1652 218.018 24.3552 218.234 23.4312 218.234C22.5672 218.234 21.8532 218.048 21.2892 217.676C20.7372 217.304 20.3352 216.818 20.0832 216.218C19.8312 215.618 19.7052 214.964 19.7052 214.256C19.7052 213.056 19.9452 211.964 20.4252 210.98C20.9172 209.984 21.5832 209.198 22.4232 208.622C23.2632 208.046 24.1992 207.758 25.2312 207.758C26.1552 207.758 26.8392 207.974 27.2832 208.406C27.7392 208.826 27.9672 209.378 27.9672 210.062C27.9672 210.926 27.6552 211.646 27.0312 212.222C26.4072 212.798 25.6572 213.23 24.7812 213.518C23.9052 213.794 23.0772 213.944 22.2972 213.968C22.2732 214.832 22.4112 215.528 22.7112 216.056C23.0232 216.584 23.4912 216.848 24.1152 216.848C25.1472 216.848 26.0832 216.368 26.9232 215.408L27.3912 216.2ZM24.6912 208.874C23.9832 208.874 23.4252 209.3 23.0172 210.152C22.6092 211.004 22.3692 211.952 22.2972 212.996C22.7652 212.972 23.2572 212.846 23.7732 212.618C24.3012 212.39 24.7392 212.072 25.0872 211.664C25.4472 211.244 25.6272 210.764 25.6272 210.224C25.6272 209.792 25.5432 209.462 25.3752 209.234C25.2192 208.994 24.9912 208.874 24.6912 208.874ZM32.3675 212.798C32.3195 213.242 32.2775 213.554 32.2415 213.734C32.1215 214.67 32.0615 215.27 32.0615 215.534C32.0615 216.014 32.1455 216.356 32.3135 216.56C32.4815 216.764 32.7335 216.866 33.0695 216.866C33.4535 216.866 33.8315 216.746 34.2035 216.506C34.5875 216.266 34.9115 215.978 35.1755 215.642L36.2195 207.866H38.5955L37.4435 216.2C37.4195 216.416 37.4375 216.578 37.4975 216.686C37.5575 216.794 37.6475 216.848 37.7675 216.848C37.8755 216.848 37.9895 216.818 38.1095 216.758C38.2295 216.686 38.3975 216.56 38.6135 216.38L38.8655 216.938C38.7095 217.19 38.4215 217.46 38.0015 217.748C37.5815 218.036 37.1015 218.18 36.5615 218.18C36.1415 218.18 35.8175 218.09 35.5895 217.91C35.3735 217.73 35.2535 217.484 35.2295 217.172L35.2115 216.956C35.2115 216.86 35.2235 216.74 35.2475 216.596L35.2115 216.578C34.3235 217.646 33.2795 218.18 32.0795 218.18C31.4075 218.18 30.8375 218 30.3695 217.64C29.9015 217.268 29.6615 216.68 29.6495 215.876C29.6495 215.408 29.7335 214.562 29.9015 213.338C29.9495 213.038 29.9795 212.834 29.9915 212.726L30.4775 209.45L29.4335 208.838L29.5775 208.1L32.5655 207.794L32.9795 207.992L32.3675 212.798ZM43.5162 210.368C43.7442 209.684 44.1342 209.084 44.6862 208.568C45.2502 208.04 45.8802 207.776 46.5762 207.776C46.8162 207.776 47.0202 207.83 47.1882 207.938L46.6662 210.53C46.5942 210.47 46.4742 210.416 46.3062 210.368C46.1502 210.308 45.9582 210.278 45.7302 210.278C45.2982 210.278 44.8842 210.374 44.4882 210.566C44.0922 210.746 43.7862 211.01 43.5702 211.358L42.6882 218H40.3482L41.4822 209.45L40.5642 208.946L40.6902 208.226L43.2642 207.794L43.6782 208.046L43.5882 209.684L43.5162 210.368ZM50.5018 214.706C50.4178 215.402 50.3758 215.822 50.3758 215.966C50.3758 216.242 50.4298 216.44 50.5378 216.56C50.6458 216.668 50.8318 216.722 51.0958 216.722C51.3358 216.722 51.6058 216.668 51.9058 216.56C52.2178 216.44 52.4758 216.296 52.6798 216.128L52.8778 216.794C52.5658 217.142 52.1218 217.46 51.5458 217.748C50.9698 218.036 50.3218 218.18 49.6018 218.18C49.0978 218.18 48.6958 218.054 48.3958 217.802C48.1078 217.538 47.9638 217.124 47.9638 216.56C47.9638 216.32 48.0238 215.756 48.1438 214.868L48.8998 209.288H47.8198L48.0178 208.424L49.0978 208.046C49.4578 207.71 49.8838 206.882 50.3758 205.562H51.7258L51.4198 208.01H53.5798L53.3998 209.288H51.2398L50.5018 214.706ZM61.5982 216.2C61.2862 216.692 60.7762 217.154 60.0682 217.586C59.3722 218.018 58.5622 218.234 57.6382 218.234C56.7742 218.234 56.0602 218.048 55.4962 217.676C54.9442 217.304 54.5422 216.818 54.2902 216.218C54.0382 215.618 53.9122 214.964 53.9122 214.256C53.9122 213.056 54.1522 211.964 54.6322 210.98C55.1242 209.984 55.7902 209.198 56.6302 208.622C57.4702 208.046 58.4062 207.758 59.4382 207.758C60.3622 207.758 61.0462 207.974 61.4902 208.406C61.9462 208.826 62.1742 209.378 62.1742 210.062C62.1742 210.926 61.8622 211.646 61.2382 212.222C60.6142 212.798 59.8642 213.23 58.9882 213.518C58.1122 213.794 57.2842 213.944 56.5042 213.968C56.4802 214.832 56.6182 215.528 56.9182 216.056C57.2302 216.584 57.6982 216.848 58.3222 216.848C59.3542 216.848 60.2902 216.368 61.1302 215.408L61.5982 216.2ZM58.8982 208.874C58.1902 208.874 57.6322 209.3 57.2242 210.152C56.8162 211.004 56.5762 211.952 56.5042 212.996C56.9722 212.972 57.4642 212.846 57.9802 212.618C58.5082 212.39 58.9462 212.072 59.2942 211.664C59.6542 211.244 59.8342 210.764 59.8342 210.224C59.8342 209.792 59.7502 209.462 59.5822 209.234C59.4262 208.994 59.1982 208.874 58.8982 208.874ZM66.3045 216.2C66.2925 216.26 66.2865 216.332 66.2865 216.416C66.2865 216.704 66.3885 216.848 66.5925 216.848C66.7005 216.848 66.8205 216.812 66.9525 216.74C67.0845 216.668 67.2525 216.548 67.4565 216.38L67.6905 216.938C67.4865 217.214 67.1805 217.49 66.7725 217.766C66.3765 218.042 65.8905 218.18 65.3145 218.18C64.8465 218.18 64.4805 218.09 64.2165 217.91C63.9525 217.718 63.8205 217.46 63.8205 217.136L63.8385 216.956C63.9105 216.332 64.1565 214.52 64.5765 211.52L64.8645 209.432L63.8025 208.928L63.9285 208.226L67.0245 207.794L67.4565 207.992L66.3045 216.2ZM66.5025 206.066C66.1785 206.066 65.8965 205.946 65.6565 205.706C65.4285 205.454 65.3145 205.166 65.3145 204.842C65.3145 204.398 65.4585 204.026 65.7465 203.726C66.0465 203.426 66.4245 203.276 66.8805 203.276C67.2525 203.276 67.5465 203.396 67.7625 203.636C67.9785 203.864 68.0865 204.14 68.0865 204.464C68.0865 204.92 67.9485 205.304 67.6725 205.616C67.3965 205.916 67.0065 206.066 66.5025 206.066ZM71.8713 216.2C71.8593 216.248 71.8533 216.314 71.8533 216.398C71.8533 216.698 71.9613 216.848 72.1773 216.848C72.2853 216.848 72.3993 216.818 72.5193 216.758C72.6513 216.698 72.8253 216.572 73.0413 216.38L73.2753 216.938C73.0833 217.214 72.8013 217.49 72.4293 217.766C72.0573 218.042 71.5773 218.18 70.9893 218.18C70.5333 218.18 70.1613 218.09 69.8733 217.91C69.5853 217.718 69.4353 217.424 69.4233 217.028C69.4233 216.98 69.4473 216.764 69.4953 216.38L71.0613 204.878L69.9273 204.518L70.0893 203.852L73.1493 203.492L73.5633 203.726L71.8713 216.2ZM82.2877 216.2C81.9757 216.692 81.4657 217.154 80.7577 217.586C80.0617 218.018 79.2517 218.234 78.3277 218.234C77.4637 218.234 76.7497 218.048 76.1857 217.676C75.6337 217.304 75.2317 216.818 74.9797 216.218C74.7277 215.618 74.6017 214.964 74.6017 214.256C74.6017 213.056 74.8417 211.964 75.3217 210.98C75.8137 209.984 76.4797 209.198 77.3197 208.622C78.1597 208.046 79.0957 207.758 80.1277 207.758C81.0517 207.758 81.7357 207.974 82.1797 208.406C82.6357 208.826 82.8637 209.378 82.8637 210.062C82.8637 210.926 82.5517 211.646 81.9277 212.222C81.3037 212.798 80.5537 213.23 79.6777 213.518C78.8017 213.794 77.9737 213.944 77.1937 213.968C77.1697 214.832 77.3077 215.528 77.6077 216.056C77.9197 216.584 78.3877 216.848 79.0117 216.848C80.0437 216.848 80.9797 216.368 81.8197 215.408L82.2877 216.2ZM79.5877 208.874C78.8797 208.874 78.3217 209.3 77.9137 210.152C77.5057 211.004 77.2657 211.952 77.1937 212.996C77.6617 212.972 78.1537 212.846 78.6697 212.618C79.1977 212.39 79.6357 212.072 79.9837 211.664C80.3437 211.244 80.5237 210.764 80.5237 210.224C80.5237 209.792 80.4397 209.462 80.2717 209.234C80.1157 208.994 79.8877 208.874 79.5877 208.874ZM87.678 209.954C88.122 209.294 88.65 208.766 89.262 208.37C89.874 207.974 90.516 207.776 91.188 207.776C92.676 207.776 93.42 208.658 93.42 210.422C93.42 210.89 93.27 211.934 92.97 213.554C92.922 213.866 92.88 214.106 92.844 214.274C92.676 215.222 92.586 215.906 92.574 216.326V216.398C92.574 216.698 92.67 216.848 92.862 216.848C92.97 216.848 93.084 216.818 93.204 216.758C93.324 216.698 93.48 216.59 93.672 216.434L93.924 216.992C93.744 217.244 93.45 217.508 93.042 217.784C92.634 218.048 92.136 218.18 91.548 218.18C90.984 218.18 90.594 218.06 90.378 217.82C90.162 217.568 90.054 217.238 90.054 216.83C90.066 216.47 90.18 215.756 90.396 214.688L90.504 214.076C90.528 213.968 90.576 213.68 90.648 213.212C90.732 212.744 90.798 212.3 90.846 211.88C90.894 211.448 90.918 211.076 90.918 210.764C90.918 210.212 90.852 209.834 90.72 209.63C90.6 209.426 90.378 209.324 90.054 209.324C89.658 209.324 89.214 209.546 88.722 209.99C88.242 210.434 87.828 210.968 87.48 211.592L86.616 218H84.258L85.41 209.432L84.492 208.946L84.636 208.208L87.444 207.776L87.858 207.974L87.678 209.954ZM107.715 216.182C107.703 216.23 107.697 216.302 107.697 216.398C107.697 216.698 107.799 216.848 108.003 216.848C108.207 216.848 108.477 216.71 108.813 216.434L109.065 216.992C108.393 217.784 107.649 218.18 106.833 218.18C106.413 218.18 106.095 218.078 105.879 217.874C105.663 217.67 105.537 217.358 105.501 216.938V216.668C105.201 217.088 104.799 217.448 104.295 217.748C103.791 218.036 103.215 218.18 102.567 218.18C101.559 218.18 100.809 217.838 100.317 217.154C99.8254 216.458 99.5794 215.552 99.5794 214.436C99.5794 213.32 99.8014 212.252 100.245 211.232C100.689 210.212 101.349 209.384 102.225 208.748C103.113 208.1 104.181 207.776 105.429 207.776C105.777 207.776 106.143 207.824 106.527 207.92L106.977 204.878L105.681 204.518L105.843 203.852L109.083 203.492L109.533 203.726L107.715 216.182ZM106.347 209.144C106.047 208.976 105.669 208.892 105.213 208.892C104.481 208.892 103.881 209.174 103.413 209.738C102.945 210.29 102.603 210.98 102.387 211.808C102.171 212.636 102.063 213.476 102.063 214.328C102.063 215.12 102.183 215.732 102.423 216.164C102.675 216.596 103.029 216.812 103.485 216.812C103.857 216.812 104.211 216.698 104.547 216.47C104.883 216.23 105.159 215.948 105.375 215.624L106.347 209.144ZM113.396 216.2C113.384 216.26 113.378 216.332 113.378 216.416C113.378 216.704 113.48 216.848 113.684 216.848C113.792 216.848 113.912 216.812 114.044 216.74C114.176 216.668 114.344 216.548 114.548 216.38L114.782 216.938C114.578 217.214 114.272 217.49 113.864 217.766C113.468 218.042 112.982 218.18 112.406 218.18C111.938 218.18 111.572 218.09 111.308 217.91C111.044 217.718 110.912 217.46 110.912 217.136L110.93 216.956C111.002 216.332 111.248 214.52 111.668 211.52L111.956 209.432L110.894 208.928L111.02 208.226L114.116 207.794L114.548 207.992L113.396 216.2ZM113.594 206.066C113.27 206.066 112.988 205.946 112.748 205.706C112.52 205.454 112.406 205.166 112.406 204.842C112.406 204.398 112.55 204.026 112.838 203.726C113.138 203.426 113.516 203.276 113.972 203.276C114.344 203.276 114.638 203.396 114.854 203.636C115.07 203.864 115.178 204.14 115.178 204.464C115.178 204.92 115.04 205.304 114.764 205.616C114.488 205.916 114.098 206.066 113.594 206.066ZM123.895 216.2C123.583 216.692 123.073 217.154 122.365 217.586C121.669 218.018 120.859 218.234 119.935 218.234C119.071 218.234 118.357 218.048 117.793 217.676C117.241 217.304 116.839 216.818 116.587 216.218C116.335 215.618 116.209 214.964 116.209 214.256C116.209 213.056 116.449 211.964 116.929 210.98C117.421 209.984 118.087 209.198 118.927 208.622C119.767 208.046 120.703 207.758 121.735 207.758C122.659 207.758 123.343 207.974 123.787 208.406C124.243 208.826 124.471 209.378 124.471 210.062C124.471 210.926 124.159 211.646 123.535 212.222C122.911 212.798 122.161 213.23 121.285 213.518C120.409 213.794 119.581 213.944 118.801 213.968C118.777 214.832 118.915 215.528 119.215 216.056C119.527 216.584 119.995 216.848 120.619 216.848C121.651 216.848 122.587 216.368 123.427 215.408L123.895 216.2ZM121.195 208.874C120.487 208.874 119.929 209.3 119.521 210.152C119.113 211.004 118.873 211.952 118.801 212.996C119.269 212.972 119.761 212.846 120.277 212.618C120.805 212.39 121.243 212.072 121.591 211.664C121.951 211.244 122.131 210.764 122.131 210.224C122.131 209.792 122.047 209.462 121.879 209.234C121.723 208.994 121.495 208.874 121.195 208.874ZM137.571 216.2C137.259 216.692 136.749 217.154 136.041 217.586C135.345 218.018 134.535 218.234 133.611 218.234C132.747 218.234 132.033 218.048 131.469 217.676C130.917 217.304 130.515 216.818 130.263 216.218C130.011 215.618 129.885 214.964 129.885 214.256C129.885 213.056 130.125 211.964 130.605 210.98C131.097 209.984 131.763 209.198 132.603 208.622C133.443 208.046 134.379 207.758 135.411 207.758C136.335 207.758 137.019 207.974 137.463 208.406C137.919 208.826 138.147 209.378 138.147 210.062C138.147 210.926 137.835 211.646 137.211 212.222C136.587 212.798 135.837 213.23 134.961 213.518C134.085 213.794 133.257 213.944 132.477 213.968C132.453 214.832 132.591 215.528 132.891 216.056C133.203 216.584 133.671 216.848 134.295 216.848C135.327 216.848 136.263 216.368 137.103 215.408L137.571 216.2ZM134.871 208.874C134.163 208.874 133.605 209.3 133.197 210.152C132.789 211.004 132.549 211.952 132.477 212.996C132.945 212.972 133.437 212.846 133.953 212.618C134.481 212.39 134.919 212.072 135.267 211.664C135.627 211.244 135.807 210.764 135.807 210.224C135.807 209.792 135.723 209.462 135.555 209.234C135.399 208.994 135.171 208.874 134.871 208.874ZM142.277 216.2C142.265 216.26 142.259 216.332 142.259 216.416C142.259 216.704 142.361 216.848 142.565 216.848C142.673 216.848 142.793 216.812 142.925 216.74C143.057 216.668 143.225 216.548 143.429 216.38L143.663 216.938C143.459 217.214 143.153 217.49 142.745 217.766C142.349 218.042 141.863 218.18 141.287 218.18C140.819 218.18 140.453 218.09 140.189 217.91C139.925 217.718 139.793 217.46 139.793 217.136L139.811 216.956C139.883 216.332 140.129 214.52 140.549 211.52L140.837 209.432L139.775 208.928L139.901 208.226L142.997 207.794L143.429 207.992L142.277 216.2ZM142.475 206.066C142.151 206.066 141.869 205.946 141.629 205.706C141.401 205.454 141.287 205.166 141.287 204.842C141.287 204.398 141.431 204.026 141.719 203.726C142.019 203.426 142.397 203.276 142.853 203.276C143.225 203.276 143.519 203.396 143.735 203.636C143.951 203.864 144.059 204.14 144.059 204.464C144.059 204.92 143.921 205.304 143.645 205.616C143.369 205.916 142.979 206.066 142.475 206.066ZM152.794 218.684C152.614 220.052 152.026 221.03 151.03 221.618C150.034 222.218 148.894 222.518 147.61 222.518C147.214 222.518 146.788 222.476 146.332 222.392C145.888 222.32 145.576 222.242 145.396 222.158L145.81 220.466C146.038 220.61 146.386 220.772 146.854 220.952C147.322 221.132 147.772 221.222 148.204 221.222C148.9 221.222 149.41 221.084 149.734 220.808C150.058 220.532 150.268 220.01 150.364 219.242L150.634 217.1C150.31 217.412 149.932 217.67 149.5 217.874C149.068 218.078 148.6 218.18 148.096 218.18C147.088 218.18 146.326 217.838 145.81 217.154C145.306 216.458 145.054 215.552 145.054 214.436C145.054 213.332 145.282 212.27 145.738 211.25C146.206 210.23 146.884 209.396 147.772 208.748C148.672 208.1 149.734 207.776 150.958 207.776C151.294 207.776 151.654 207.818 152.038 207.902C152.422 207.974 152.758 208.064 153.046 208.172L154.324 207.776L152.794 218.684ZM151.786 209.108C151.534 208.964 151.186 208.892 150.742 208.892C150.022 208.892 149.422 209.174 148.942 209.738C148.462 210.29 148.108 210.986 147.88 211.826C147.664 212.654 147.556 213.488 147.556 214.328C147.556 215.108 147.682 215.72 147.934 216.164C148.198 216.596 148.558 216.812 149.014 216.812C149.35 216.812 149.674 216.716 149.986 216.524C150.31 216.32 150.586 216.08 150.814 215.804L151.786 209.108ZM163.288 216.2C162.976 216.692 162.466 217.154 161.758 217.586C161.062 218.018 160.252 218.234 159.328 218.234C158.464 218.234 157.75 218.048 157.186 217.676C156.634 217.304 156.232 216.818 155.98 216.218C155.728 215.618 155.602 214.964 155.602 214.256C155.602 213.056 155.842 211.964 156.322 210.98C156.814 209.984 157.48 209.198 158.32 208.622C159.16 208.046 160.096 207.758 161.128 207.758C162.052 207.758 162.736 207.974 163.18 208.406C163.636 208.826 163.864 209.378 163.864 210.062C163.864 210.926 163.552 211.646 162.928 212.222C162.304 212.798 161.554 213.23 160.678 213.518C159.802 213.794 158.974 213.944 158.194 213.968C158.17 214.832 158.308 215.528 158.608 216.056C158.92 216.584 159.388 216.848 160.012 216.848C161.044 216.848 161.98 216.368 162.82 215.408L163.288 216.2ZM160.588 208.874C159.88 208.874 159.322 209.3 158.914 210.152C158.506 211.004 158.266 211.952 158.194 212.996C158.662 212.972 159.154 212.846 159.67 212.618C160.198 212.39 160.636 212.072 160.984 211.664C161.344 211.244 161.524 210.764 161.524 210.224C161.524 209.792 161.44 209.462 161.272 209.234C161.116 208.994 160.888 208.874 160.588 208.874ZM168.678 209.954C169.122 209.294 169.65 208.766 170.262 208.37C170.874 207.974 171.516 207.776 172.188 207.776C173.676 207.776 174.42 208.658 174.42 210.422C174.42 210.89 174.27 211.934 173.97 213.554C173.922 213.866 173.88 214.106 173.844 214.274C173.676 215.222 173.586 215.906 173.574 216.326V216.398C173.574 216.698 173.67 216.848 173.862 216.848C173.97 216.848 174.084 216.818 174.204 216.758C174.324 216.698 174.48 216.59 174.672 216.434L174.924 216.992C174.744 217.244 174.45 217.508 174.042 217.784C173.634 218.048 173.136 218.18 172.548 218.18C171.984 218.18 171.594 218.06 171.378 217.82C171.162 217.568 171.054 217.238 171.054 216.83C171.066 216.47 171.18 215.756 171.396 214.688L171.504 214.076C171.528 213.968 171.576 213.68 171.648 213.212C171.732 212.744 171.798 212.3 171.846 211.88C171.894 211.448 171.918 211.076 171.918 210.764C171.918 210.212 171.852 209.834 171.72 209.63C171.6 209.426 171.378 209.324 171.054 209.324C170.658 209.324 170.214 209.546 169.722 209.99C169.242 210.434 168.828 210.968 168.48 211.592L167.616 218H165.258L166.41 209.432L165.492 208.946L165.636 208.208L168.444 207.776L168.858 207.974L168.678 209.954ZM184.03 216.2C183.718 216.692 183.208 217.154 182.5 217.586C181.804 218.018 180.994 218.234 180.07 218.234C179.206 218.234 178.492 218.048 177.928 217.676C177.376 217.304 176.974 216.818 176.722 216.218C176.47 215.618 176.344 214.964 176.344 214.256C176.344 213.056 176.584 211.964 177.064 210.98C177.556 209.984 178.222 209.198 179.062 208.622C179.902 208.046 180.838 207.758 181.87 207.758C182.794 207.758 183.478 207.974 183.922 208.406C184.378 208.826 184.606 209.378 184.606 210.062C184.606 210.926 184.294 211.646 183.67 212.222C183.046 212.798 182.296 213.23 181.42 213.518C180.544 213.794 179.716 213.944 178.936 213.968C178.912 214.832 179.05 215.528 179.35 216.056C179.662 216.584 180.13 216.848 180.754 216.848C181.786 216.848 182.722 216.368 183.562 215.408L184.03 216.2ZM181.33 208.874C180.622 208.874 180.064 209.3 179.656 210.152C179.248 211.004 179.008 211.952 178.936 212.996C179.404 212.972 179.896 212.846 180.412 212.618C180.94 212.39 181.378 212.072 181.726 211.664C182.086 211.244 182.266 210.764 182.266 210.224C182.266 209.792 182.182 209.462 182.014 209.234C181.858 208.994 181.63 208.874 181.33 208.874ZM197.796 204.608L200.01 216.902L201.432 217.172L201.378 218H195.852L195.888 217.172L197.364 216.938L196.932 214.22H192.378L191.172 216.92L192.81 217.172L192.756 218H188.076L188.148 217.172L189.372 216.938L195.294 204.608H197.796ZM192.882 213.05H196.77L195.978 207.74L195.888 206.264L192.882 213.05ZM205.449 208.946C205.773 208.61 206.157 208.334 206.601 208.118C207.057 207.89 207.549 207.776 208.077 207.776C209.073 207.776 209.823 208.112 210.327 208.784C210.831 209.444 211.083 210.38 211.083 211.592C211.083 212.732 210.843 213.806 210.363 214.814C209.895 215.822 209.217 216.638 208.329 217.262C207.441 217.874 206.409 218.18 205.233 218.18C204.897 218.18 204.531 218.138 204.135 218.054C203.751 217.97 203.403 217.874 203.091 217.766L201.993 218.126L203.703 204.86L202.803 204.5L202.965 203.816L205.701 203.492L206.133 203.726L205.449 208.946ZM204.405 216.866C204.645 216.998 204.993 217.064 205.449 217.064C206.157 217.064 206.745 216.8 207.213 216.272C207.693 215.744 208.047 215.066 208.275 214.238C208.503 213.398 208.617 212.528 208.617 211.628C208.617 210.896 208.491 210.302 208.239 209.846C207.987 209.378 207.627 209.144 207.159 209.144C206.787 209.144 206.439 209.258 206.115 209.486C205.791 209.702 205.509 209.966 205.269 210.278L204.405 216.866ZM218.571 209.72C218.427 209.552 218.187 209.378 217.851 209.198C217.527 209.018 217.149 208.928 216.717 208.928C216.237 208.928 215.847 209.036 215.547 209.252C215.259 209.456 215.115 209.762 215.115 210.17C215.115 210.53 215.235 210.854 215.475 211.142C215.727 211.418 216.129 211.754 216.681 212.15C217.293 212.606 217.761 213.05 218.085 213.482C218.409 213.902 218.571 214.442 218.571 215.102C218.571 215.762 218.391 216.326 218.031 216.794C217.671 217.25 217.191 217.598 216.591 217.838C215.991 218.066 215.331 218.18 214.611 218.18C214.071 218.18 213.519 218.12 212.955 218C212.391 217.868 212.025 217.73 211.857 217.586L212.217 216.056C212.469 216.272 212.811 216.476 213.243 216.668C213.675 216.86 214.125 216.956 214.593 216.956C215.037 216.956 215.415 216.854 215.727 216.65C216.051 216.446 216.213 216.128 216.213 215.696C216.213 215.324 216.075 214.988 215.799 214.688C215.523 214.388 215.109 214.046 214.557 213.662C214.053 213.314 213.627 212.906 213.279 212.438C212.943 211.958 212.775 211.382 212.775 210.71C212.775 210.134 212.937 209.624 213.261 209.18C213.597 208.736 214.053 208.394 214.629 208.154C215.217 207.902 215.889 207.776 216.645 207.776C217.089 207.776 217.539 207.812 217.995 207.884C218.451 207.956 218.757 208.034 218.913 208.118L218.571 209.72ZM223.031 216.2C223.019 216.26 223.013 216.332 223.013 216.416C223.013 216.704 223.115 216.848 223.319 216.848C223.427 216.848 223.547 216.812 223.679 216.74C223.811 216.668 223.979 216.548 224.183 216.38L224.417 216.938C224.213 217.214 223.907 217.49 223.499 217.766C223.103 218.042 222.617 218.18 222.041 218.18C221.573 218.18 221.207 218.09 220.943 217.91C220.679 217.718 220.547 217.46 220.547 217.136L220.565 216.956C220.637 216.332 220.883 214.52 221.303 211.52L221.591 209.432L220.529 208.928L220.655 208.226L223.751 207.794L224.183 207.992L223.031 216.2ZM223.229 206.066C222.905 206.066 222.623 205.946 222.383 205.706C222.155 205.454 222.041 205.166 222.041 204.842C222.041 204.398 222.185 204.026 222.473 203.726C222.773 203.426 223.151 203.276 223.607 203.276C223.979 203.276 224.273 203.396 224.489 203.636C224.705 203.864 224.813 204.14 224.813 204.464C224.813 204.92 224.675 205.304 224.399 205.616C224.123 205.916 223.733 206.066 223.229 206.066ZM232.324 210.458C231.988 210.038 231.688 209.702 231.424 209.45C231.172 209.186 230.95 209.054 230.758 209.054C230.314 209.054 229.9 209.258 229.516 209.666C229.144 210.074 228.838 210.644 228.598 211.376C228.37 212.108 228.256 212.93 228.256 213.842C228.256 214.838 228.4 215.57 228.688 216.038C228.976 216.494 229.414 216.722 230.002 216.722C230.506 216.722 230.932 216.626 231.28 216.434C231.64 216.242 231.988 215.972 232.324 215.624L232.792 216.416C232.492 216.86 232.018 217.268 231.37 217.64C230.734 218 229.978 218.18 229.102 218.18C228.07 218.18 227.26 217.82 226.672 217.1C226.084 216.368 225.79 215.336 225.79 214.004C225.79 212.996 226 212.018 226.42 211.07C226.84 210.11 227.464 209.324 228.292 208.712C229.12 208.088 230.116 207.776 231.28 207.776C231.652 207.776 232.036 207.812 232.432 207.884C232.84 207.944 233.17 208.034 233.422 208.154L232.81 210.494L232.324 210.458ZM237.616 210.08C238.06 209.384 238.588 208.826 239.2 208.406C239.824 207.986 240.484 207.776 241.18 207.776C241.888 207.776 242.434 207.98 242.818 208.388C243.214 208.796 243.412 209.474 243.412 210.422C243.412 210.794 243.34 211.382 243.196 212.186C243.064 212.99 242.992 213.446 242.98 213.554L242.872 214.13C242.8 214.526 242.728 214.934 242.656 215.354C242.596 215.774 242.566 216.116 242.566 216.38C242.566 216.704 242.668 216.866 242.872 216.866C242.98 216.866 243.094 216.836 243.214 216.776C243.334 216.704 243.502 216.584 243.718 216.416L243.952 216.974C243.796 217.214 243.508 217.478 243.088 217.766C242.668 218.042 242.164 218.18 241.576 218.18C240.988 218.18 240.586 218.066 240.37 217.838C240.154 217.598 240.046 217.262 240.046 216.83C240.058 216.47 240.172 215.756 240.388 214.688L240.496 214.076C240.52 213.968 240.568 213.68 240.64 213.212C240.724 212.744 240.79 212.3 240.838 211.88C240.886 211.448 240.91 211.076 240.91 210.764C240.91 210.212 240.844 209.834 240.712 209.63C240.58 209.426 240.358 209.324 240.046 209.324C239.638 209.324 239.182 209.558 238.678 210.026C238.186 210.482 237.766 211.04 237.418 211.7L236.626 218H234.232L235.87 204.878L234.79 204.518L234.916 203.852L237.994 203.492L238.426 203.726L237.616 210.08ZM253.006 216.2C252.694 216.692 252.184 217.154 251.476 217.586C250.78 218.018 249.97 218.234 249.046 218.234C248.182 218.234 247.468 218.048 246.904 217.676C246.352 217.304 245.95 216.818 245.698 216.218C245.446 215.618 245.32 214.964 245.32 214.256C245.32 213.056 245.56 211.964 246.04 210.98C246.532 209.984 247.198 209.198 248.038 208.622C248.878 208.046 249.814 207.758 250.846 207.758C251.77 207.758 252.454 207.974 252.898 208.406C253.354 208.826 253.582 209.378 253.582 210.062C253.582 210.926 253.27 211.646 252.646 212.222C252.022 212.798 251.272 213.23 250.396 213.518C249.52 213.794 248.692 213.944 247.912 213.968C247.888 214.832 248.026 215.528 248.326 216.056C248.638 216.584 249.106 216.848 249.73 216.848C250.762 216.848 251.698 216.368 252.538 215.408L253.006 216.2ZM250.306 208.874C249.598 208.874 249.04 209.3 248.632 210.152C248.224 211.004 247.984 211.952 247.912 212.996C248.38 212.972 248.872 212.846 249.388 212.618C249.916 212.39 250.354 212.072 250.702 211.664C251.062 211.244 251.242 210.764 251.242 210.224C251.242 209.792 251.158 209.462 250.99 209.234C250.834 208.994 250.606 208.874 250.306 208.874ZM258.163 210.368C258.391 209.684 258.781 209.084 259.333 208.568C259.897 208.04 260.527 207.776 261.223 207.776C261.463 207.776 261.667 207.83 261.835 207.938L261.313 210.53C261.241 210.47 261.121 210.416 260.953 210.368C260.797 210.308 260.605 210.278 260.377 210.278C259.945 210.278 259.531 210.374 259.135 210.566C258.739 210.746 258.433 211.01 258.217 211.358L257.335 218H254.995L256.129 209.45L255.211 208.946L255.337 208.226L257.911 207.794L258.325 208.046L258.235 209.684L258.163 210.368ZM265.418 212.798C265.37 213.242 265.328 213.554 265.292 213.734C265.172 214.67 265.112 215.27 265.112 215.534C265.112 216.014 265.196 216.356 265.364 216.56C265.532 216.764 265.784 216.866 266.12 216.866C266.504 216.866 266.882 216.746 267.254 216.506C267.638 216.266 267.962 215.978 268.226 215.642L269.27 207.866H271.646L270.494 216.2C270.47 216.416 270.488 216.578 270.548 216.686C270.608 216.794 270.698 216.848 270.818 216.848C270.926 216.848 271.04 216.818 271.16 216.758C271.28 216.686 271.448 216.56 271.664 216.38L271.916 216.938C271.76 217.19 271.472 217.46 271.052 217.748C270.632 218.036 270.152 218.18 269.612 218.18C269.192 218.18 268.868 218.09 268.64 217.91C268.424 217.73 268.304 217.484 268.28 217.172L268.262 216.956C268.262 216.86 268.274 216.74 268.298 216.596L268.262 216.578C267.374 217.646 266.33 218.18 265.13 218.18C264.458 218.18 263.888 218 263.42 217.64C262.952 217.268 262.712 216.68 262.7 215.876C262.7 215.408 262.784 214.562 262.952 213.338C263 213.038 263.03 212.834 263.042 212.726L263.528 209.45L262.484 208.838L262.628 208.1L265.616 207.794L266.03 207.992L265.418 212.798ZM276.871 209.954C277.315 209.294 277.843 208.766 278.455 208.37C279.067 207.974 279.709 207.776 280.381 207.776C281.869 207.776 282.613 208.658 282.613 210.422C282.613 210.89 282.463 211.934 282.163 213.554C282.115 213.866 282.073 214.106 282.037 214.274C281.869 215.222 281.779 215.906 281.767 216.326V216.398C281.767 216.698 281.863 216.848 282.055 216.848C282.163 216.848 282.277 216.818 282.397 216.758C282.517 216.698 282.673 216.59 282.865 216.434L283.117 216.992C282.937 217.244 282.643 217.508 282.235 217.784C281.827 218.048 281.329 218.18 280.741 218.18C280.177 218.18 279.787 218.06 279.571 217.82C279.355 217.568 279.247 217.238 279.247 216.83C279.259 216.47 279.373 215.756 279.589 214.688L279.697 214.076C279.721 213.968 279.769 213.68 279.841 213.212C279.925 212.744 279.991 212.3 280.039 211.88C280.087 211.448 280.111 211.076 280.111 210.764C280.111 210.212 280.045 209.834 279.913 209.63C279.793 209.426 279.571 209.324 279.247 209.324C278.851 209.324 278.407 209.546 277.915 209.99C277.435 210.434 277.021 210.968 276.673 211.592L275.809 218H273.451L274.603 209.432L273.685 208.946L273.829 208.208L276.637 207.776L277.051 207.974L276.871 209.954ZM292.241 218.684C292.061 220.052 291.473 221.03 290.477 221.618C289.481 222.218 288.341 222.518 287.057 222.518C286.661 222.518 286.235 222.476 285.779 222.392C285.335 222.32 285.023 222.242 284.843 222.158L285.257 220.466C285.485 220.61 285.833 220.772 286.301 220.952C286.769 221.132 287.219 221.222 287.651 221.222C288.347 221.222 288.857 221.084 289.181 220.808C289.505 220.532 289.715 220.01 289.811 219.242L290.081 217.1C289.757 217.412 289.379 217.67 288.947 217.874C288.515 218.078 288.047 218.18 287.543 218.18C286.535 218.18 285.773 217.838 285.257 217.154C284.753 216.458 284.501 215.552 284.501 214.436C284.501 213.332 284.729 212.27 285.185 211.25C285.653 210.23 286.331 209.396 287.219 208.748C288.119 208.1 289.181 207.776 290.405 207.776C290.741 207.776 291.101 207.818 291.485 207.902C291.869 207.974 292.205 208.064 292.493 208.172L293.771 207.776L292.241 218.684ZM291.233 209.108C290.981 208.964 290.633 208.892 290.189 208.892C289.469 208.892 288.869 209.174 288.389 209.738C287.909 210.29 287.555 210.986 287.327 211.826C287.111 212.654 287.003 213.488 287.003 214.328C287.003 215.108 287.129 215.72 287.381 216.164C287.645 216.596 288.005 216.812 288.461 216.812C288.797 216.812 289.121 216.716 289.433 216.524C289.757 216.32 290.033 216.08 290.261 215.804L291.233 209.108ZM30.0145 239.2C30.0025 239.26 29.9965 239.332 29.9965 239.416C29.9965 239.704 30.0985 239.848 30.3025 239.848C30.4105 239.848 30.5305 239.812 30.6625 239.74C30.7945 239.668 30.9625 239.548 31.1665 239.38L31.4005 239.938C31.1965 240.214 30.8905 240.49 30.4825 240.766C30.0865 241.042 29.6005 241.18 29.0245 241.18C28.5565 241.18 28.1905 241.09 27.9265 240.91C27.6625 240.718 27.5305 240.46 27.5305 240.136L27.5485 239.956C27.6205 239.332 27.8665 237.52 28.2865 234.52L28.5745 232.432L27.5125 231.928L27.6385 231.226L30.7345 230.794L31.1665 230.992L30.0145 239.2ZM30.2125 229.066C29.8885 229.066 29.6065 228.946 29.3665 228.706C29.1385 228.454 29.0245 228.166 29.0245 227.842C29.0245 227.398 29.1685 227.026 29.4565 226.726C29.7565 226.426 30.1345 226.276 30.5905 226.276C30.9625 226.276 31.2565 226.396 31.4725 226.636C31.6885 226.864 31.7965 227.14 31.7965 227.464C31.7965 227.92 31.6585 228.304 31.3825 228.616C31.1065 228.916 30.7165 229.066 30.2125 229.066ZM36.4993 232.972C36.9313 232.324 37.4473 231.796 38.0473 231.388C38.6473 230.98 39.2773 230.776 39.9373 230.776C40.6093 230.776 41.1313 230.956 41.5033 231.316C41.8873 231.664 42.1093 232.228 42.1693 233.008C42.5893 232.312 43.0993 231.766 43.6993 231.37C44.3113 230.974 44.9713 230.776 45.6793 230.776C47.1793 230.776 47.9293 231.658 47.9293 233.422C47.9293 233.806 47.8093 234.694 47.5693 236.086L47.4973 236.554L47.4073 237.022C47.2033 238.138 47.0953 238.906 47.0833 239.326C47.0833 239.674 47.1853 239.848 47.3893 239.848C47.4973 239.848 47.6113 239.818 47.7313 239.758C47.8633 239.686 48.0373 239.56 48.2533 239.38L48.4873 239.938C48.3193 240.19 48.0253 240.46 47.6053 240.748C47.1853 241.036 46.6813 241.18 46.0933 241.18C45.5293 241.18 45.1393 241.066 44.9233 240.838C44.7073 240.61 44.5993 240.304 44.5993 239.92C44.5993 239.68 44.6353 239.332 44.7073 238.876C44.7793 238.408 44.8573 237.94 44.9413 237.472L45.0133 237.058C45.1573 236.242 45.2593 235.6 45.3193 235.132C45.3913 234.664 45.4273 234.208 45.4273 233.764C45.4273 233.212 45.3613 232.834 45.2293 232.63C45.1093 232.426 44.8933 232.324 44.5813 232.324C44.1973 232.324 43.7773 232.51 43.3213 232.882C42.8773 233.254 42.4933 233.728 42.1693 234.304C42.1213 235.012 42.0433 235.762 41.9353 236.554L41.3773 241H38.9473L39.4693 237.076C39.6853 235.588 39.7933 234.46 39.7933 233.692C39.7813 233.14 39.7033 232.774 39.5593 232.594C39.4273 232.414 39.1873 232.324 38.8393 232.324C38.4553 232.324 38.0173 232.534 37.5253 232.954C37.0453 233.374 36.6433 233.878 36.3193 234.466L35.4193 241H33.0793L34.2313 232.432L33.3133 231.946L33.4573 231.208L36.2653 230.776L36.6793 230.974L36.4993 232.972ZM64.608 227.626L64.302 230.776H62.718L62.484 228.778L58.83 228.598L58.182 233.512L62.484 233.314L62.268 235.024L58.038 234.754L57.372 239.92L59.694 240.172L59.622 241H53.502L53.592 240.172L54.834 239.92L56.292 228.724L55.032 228.508L55.14 227.626H64.608ZM72.6168 239.164C72.6048 239.212 72.5988 239.284 72.5988 239.38C72.5988 239.692 72.7188 239.848 72.9588 239.848C73.1508 239.848 73.4208 239.704 73.7688 239.416L74.0208 239.974C73.8648 240.214 73.5828 240.478 73.1748 240.766C72.7788 241.042 72.3168 241.18 71.7888 241.18C71.3808 241.18 71.0568 241.09 70.8168 240.91C70.5768 240.73 70.4508 240.454 70.4388 240.082L70.4748 239.776C70.1388 240.172 69.7308 240.508 69.2508 240.784C68.7708 241.048 68.2428 241.18 67.6668 241.18C66.6588 241.18 65.9028 240.838 65.3988 240.154C64.9068 239.458 64.6608 238.552 64.6608 237.436C64.6608 236.332 64.8888 235.27 65.3448 234.25C65.8128 233.23 66.4908 232.396 67.3788 231.748C68.2668 231.1 69.3228 230.776 70.5468 230.776C70.8588 230.776 71.1948 230.812 71.5548 230.884C71.9268 230.956 72.2508 231.04 72.5268 231.136L73.7688 230.776L72.6168 239.164ZM71.2308 232.054C71.0028 231.946 70.7088 231.892 70.3488 231.892C69.6288 231.892 69.0288 232.168 68.5488 232.72C68.0688 233.26 67.7148 233.95 67.4868 234.79C67.2708 235.618 67.1628 236.458 67.1628 237.31C67.1628 238.102 67.2828 238.72 67.5228 239.164C67.7628 239.596 68.1168 239.812 68.5848 239.812C68.8848 239.812 69.1848 239.71 69.4848 239.506C69.7968 239.302 70.0728 239.062 70.3128 238.786L71.2308 232.054ZM77.9973 239.2C77.9853 239.248 77.9793 239.314 77.9793 239.398C77.9793 239.698 78.0873 239.848 78.3033 239.848C78.4113 239.848 78.5253 239.818 78.6453 239.758C78.7773 239.698 78.9513 239.572 79.1673 239.38L79.4013 239.938C79.2093 240.214 78.9273 240.49 78.5553 240.766C78.1833 241.042 77.7033 241.18 77.1153 241.18C76.6593 241.18 76.2873 241.09 75.9993 240.91C75.7113 240.718 75.5613 240.424 75.5493 240.028C75.5493 239.98 75.5733 239.764 75.6213 239.38L77.1873 227.878L76.0533 227.518L76.2153 226.852L79.2753 226.492L79.6893 226.726L77.9973 239.2ZM83.4817 239.2C83.4697 239.248 83.4637 239.314 83.4637 239.398C83.4637 239.698 83.5717 239.848 83.7877 239.848C83.8957 239.848 84.0097 239.818 84.1297 239.758C84.2617 239.698 84.4357 239.572 84.6517 239.38L84.8857 239.938C84.6937 240.214 84.4117 240.49 84.0397 240.766C83.6677 241.042 83.1877 241.18 82.5997 241.18C82.1437 241.18 81.7717 241.09 81.4837 240.91C81.1957 240.718 81.0457 240.424 81.0337 240.028C81.0337 239.98 81.0577 239.764 81.1057 239.38L82.6717 227.878L81.5377 227.518L81.6997 226.852L84.7597 226.492L85.1737 226.726L83.4817 239.2ZM93.898 239.2C93.586 239.692 93.076 240.154 92.368 240.586C91.672 241.018 90.862 241.234 89.938 241.234C89.074 241.234 88.36 241.048 87.796 240.676C87.244 240.304 86.842 239.818 86.59 239.218C86.338 238.618 86.212 237.964 86.212 237.256C86.212 236.056 86.452 234.964 86.932 233.98C87.424 232.984 88.09 232.198 88.93 231.622C89.77 231.046 90.706 230.758 91.738 230.758C92.662 230.758 93.346 230.974 93.79 231.406C94.246 231.826 94.474 232.378 94.474 233.062C94.474 233.926 94.162 234.646 93.538 235.222C92.914 235.798 92.164 236.23 91.288 236.518C90.412 236.794 89.584 236.944 88.804 236.968C88.78 237.832 88.918 238.528 89.218 239.056C89.53 239.584 89.998 239.848 90.622 239.848C91.654 239.848 92.59 239.368 93.43 238.408L93.898 239.2ZM91.198 231.874C90.49 231.874 89.932 232.3 89.524 233.152C89.116 234.004 88.876 234.952 88.804 235.996C89.272 235.972 89.764 235.846 90.28 235.618C90.808 235.39 91.246 235.072 91.594 234.664C91.954 234.244 92.134 233.764 92.134 233.224C92.134 232.792 92.05 232.462 91.882 232.234C91.726 231.994 91.498 231.874 91.198 231.874ZM107.574 239.2C107.262 239.692 106.752 240.154 106.044 240.586C105.348 241.018 104.538 241.234 103.614 241.234C102.75 241.234 102.036 241.048 101.472 240.676C100.92 240.304 100.518 239.818 100.266 239.218C100.014 238.618 99.8878 237.964 99.8878 237.256C99.8878 236.056 100.128 234.964 100.608 233.98C101.1 232.984 101.766 232.198 102.606 231.622C103.446 231.046 104.382 230.758 105.414 230.758C106.338 230.758 107.022 230.974 107.466 231.406C107.922 231.826 108.15 232.378 108.15 233.062C108.15 233.926 107.838 234.646 107.214 235.222C106.59 235.798 105.84 236.23 104.964 236.518C104.088 236.794 103.26 236.944 102.48 236.968C102.456 237.832 102.594 238.528 102.894 239.056C103.206 239.584 103.674 239.848 104.298 239.848C105.33 239.848 106.266 239.368 107.106 238.408L107.574 239.2ZM104.874 231.874C104.166 231.874 103.608 232.3 103.2 233.152C102.792 234.004 102.552 234.952 102.48 235.996C102.948 235.972 103.44 235.846 103.956 235.618C104.484 235.39 104.922 235.072 105.27 234.664C105.63 234.244 105.81 233.764 105.81 233.224C105.81 232.792 105.726 232.462 105.558 232.234C105.402 231.994 105.174 231.874 104.874 231.874ZM112.28 239.2C112.268 239.26 112.262 239.332 112.262 239.416C112.262 239.704 112.364 239.848 112.568 239.848C112.676 239.848 112.796 239.812 112.928 239.74C113.06 239.668 113.228 239.548 113.432 239.38L113.666 239.938C113.462 240.214 113.156 240.49 112.748 240.766C112.352 241.042 111.866 241.18 111.29 241.18C110.822 241.18 110.456 241.09 110.192 240.91C109.928 240.718 109.796 240.46 109.796 240.136L109.814 239.956C109.886 239.332 110.132 237.52 110.552 234.52L110.84 232.432L109.778 231.928L109.904 231.226L113 230.794L113.432 230.992L112.28 239.2ZM112.478 229.066C112.154 229.066 111.872 228.946 111.632 228.706C111.404 228.454 111.29 228.166 111.29 227.842C111.29 227.398 111.434 227.026 111.722 226.726C112.022 226.426 112.4 226.276 112.856 226.276C113.228 226.276 113.522 226.396 113.738 226.636C113.954 226.864 114.062 227.14 114.062 227.464C114.062 227.92 113.924 228.304 113.648 228.616C113.372 228.916 112.982 229.066 112.478 229.066ZM118.765 232.954C119.209 232.294 119.737 231.766 120.349 231.37C120.961 230.974 121.603 230.776 122.275 230.776C123.763 230.776 124.507 231.658 124.507 233.422C124.507 233.89 124.357 234.934 124.057 236.554C124.009 236.866 123.967 237.106 123.931 237.274C123.763 238.222 123.673 238.906 123.661 239.326V239.398C123.661 239.698 123.757 239.848 123.949 239.848C124.057 239.848 124.171 239.818 124.291 239.758C124.411 239.698 124.567 239.59 124.759 239.434L125.011 239.992C124.831 240.244 124.537 240.508 124.129 240.784C123.721 241.048 123.223 241.18 122.635 241.18C122.071 241.18 121.681 241.06 121.465 240.82C121.249 240.568 121.141 240.238 121.141 239.83C121.153 239.47 121.267 238.756 121.483 237.688L121.591 237.076C121.615 236.968 121.663 236.68 121.735 236.212C121.819 235.744 121.885 235.3 121.933 234.88C121.981 234.448 122.005 234.076 122.005 233.764C122.005 233.212 121.939 232.834 121.807 232.63C121.687 232.426 121.465 232.324 121.141 232.324C120.745 232.324 120.301 232.546 119.809 232.99C119.329 233.434 118.915 233.968 118.567 234.592L117.703 241H115.345L116.497 232.432L115.579 231.946L115.723 231.208L118.531 230.776L118.945 230.974L118.765 232.954ZM134.117 239.2C133.805 239.692 133.295 240.154 132.587 240.586C131.891 241.018 131.081 241.234 130.157 241.234C129.293 241.234 128.579 241.048 128.015 240.676C127.463 240.304 127.061 239.818 126.809 239.218C126.557 238.618 126.431 237.964 126.431 237.256C126.431 236.056 126.671 234.964 127.151 233.98C127.643 232.984 128.309 232.198 129.149 231.622C129.989 231.046 130.925 230.758 131.957 230.758C132.881 230.758 133.565 230.974 134.009 231.406C134.465 231.826 134.693 232.378 134.693 233.062C134.693 233.926 134.381 234.646 133.757 235.222C133.133 235.798 132.383 236.23 131.507 236.518C130.631 236.794 129.803 236.944 129.023 236.968C128.999 237.832 129.137 238.528 129.437 239.056C129.749 239.584 130.217 239.848 130.841 239.848C131.873 239.848 132.809 239.368 133.649 238.408L134.117 239.2ZM131.417 231.874C130.709 231.874 130.151 232.3 129.743 233.152C129.335 234.004 129.095 234.952 129.023 235.996C129.491 235.972 129.983 235.846 130.499 235.618C131.027 235.39 131.465 235.072 131.813 234.664C132.173 234.244 132.353 233.764 132.353 233.224C132.353 232.792 132.269 232.462 132.101 232.234C131.945 231.994 131.717 231.874 131.417 231.874ZM142.045 232.72C141.901 232.552 141.661 232.378 141.325 232.198C141.001 232.018 140.623 231.928 140.191 231.928C139.711 231.928 139.321 232.036 139.021 232.252C138.733 232.456 138.589 232.762 138.589 233.17C138.589 233.53 138.709 233.854 138.949 234.142C139.201 234.418 139.603 234.754 140.155 235.15C140.767 235.606 141.235 236.05 141.559 236.482C141.883 236.902 142.045 237.442 142.045 238.102C142.045 238.762 141.865 239.326 141.505 239.794C141.145 240.25 140.665 240.598 140.065 240.838C139.465 241.066 138.805 241.18 138.085 241.18C137.545 241.18 136.993 241.12 136.429 241C135.865 240.868 135.499 240.73 135.331 240.586L135.691 239.056C135.943 239.272 136.285 239.476 136.717 239.668C137.149 239.86 137.599 239.956 138.067 239.956C138.511 239.956 138.889 239.854 139.201 239.65C139.525 239.446 139.687 239.128 139.687 238.696C139.687 238.324 139.549 237.988 139.273 237.688C138.997 237.388 138.583 237.046 138.031 236.662C137.527 236.314 137.101 235.906 136.753 235.438C136.417 234.958 136.249 234.382 136.249 233.71C136.249 233.134 136.411 232.624 136.735 232.18C137.071 231.736 137.527 231.394 138.103 231.154C138.691 230.902 139.363 230.776 140.119 230.776C140.563 230.776 141.013 230.812 141.469 230.884C141.925 230.956 142.231 231.034 142.387 231.118L142.045 232.72ZM152.45 229.984C152.054 233.32 151.748 235.798 151.532 237.418C151.328 239.026 151.172 239.998 151.064 240.334C150.716 241.366 150.08 242.194 149.156 242.818C148.244 243.454 147.188 243.856 145.988 244.024L145.592 243.196C146.456 242.944 147.134 242.554 147.626 242.026C148.118 241.498 148.43 240.898 148.562 240.226C148.838 238.786 149.096 237.13 149.336 235.258C149.588 233.386 149.846 231.208 150.11 228.724L148.778 228.508L148.886 227.626H154.052L153.962 228.508L152.612 228.706L152.45 229.984ZM159.623 230.758C160.871 230.758 161.825 231.124 162.485 231.856C163.145 232.576 163.475 233.614 163.475 234.97C163.475 236.086 163.247 237.124 162.791 238.084C162.335 239.044 161.693 239.812 160.865 240.388C160.037 240.952 159.089 241.234 158.021 241.234C156.773 241.234 155.819 240.868 155.159 240.136C154.511 239.392 154.187 238.336 154.187 236.968C154.187 235.84 154.409 234.802 154.853 233.854C155.309 232.906 155.951 232.156 156.779 231.604C157.607 231.04 158.555 230.758 159.623 230.758ZM159.317 231.892C158.765 231.892 158.297 232.144 157.913 232.648C157.529 233.14 157.241 233.77 157.049 234.538C156.869 235.306 156.779 236.092 156.779 236.896C156.779 238.036 156.905 238.87 157.157 239.398C157.421 239.926 157.829 240.19 158.381 240.19C158.921 240.19 159.377 239.938 159.749 239.434C160.121 238.93 160.397 238.288 160.577 237.508C160.757 236.728 160.847 235.93 160.847 235.114C160.847 233.974 160.721 233.152 160.469 232.648C160.229 232.144 159.845 231.892 159.317 231.892ZM168.333 231.946C168.657 231.61 169.041 231.334 169.485 231.118C169.941 230.89 170.433 230.776 170.961 230.776C171.957 230.776 172.707 231.112 173.211 231.784C173.715 232.444 173.967 233.38 173.967 234.592C173.967 235.732 173.727 236.806 173.247 237.814C172.779 238.822 172.101 239.638 171.213 240.262C170.325 240.874 169.293 241.18 168.117 241.18C167.781 241.18 167.415 241.138 167.019 241.054C166.635 240.97 166.287 240.874 165.975 240.766L164.877 241.126L166.587 227.86L165.687 227.5L165.849 226.816L168.585 226.492L169.017 226.726L168.333 231.946ZM167.289 239.866C167.529 239.998 167.877 240.064 168.333 240.064C169.041 240.064 169.629 239.8 170.097 239.272C170.577 238.744 170.931 238.066 171.159 237.238C171.387 236.398 171.501 235.528 171.501 234.628C171.501 233.896 171.375 233.302 171.123 232.846C170.871 232.378 170.511 232.144 170.043 232.144C169.671 232.144 169.323 232.258 168.999 232.486C168.675 232.702 168.393 232.966 168.153 233.278L167.289 239.866ZM175.857 232.702C175.797 232.378 175.665 232.204 175.461 232.18C175.329 232.18 175.215 232.21 175.119 232.27C175.023 232.33 174.969 232.366 174.957 232.378L174.705 231.766C174.849 231.586 175.113 231.376 175.497 231.136C175.881 230.896 176.307 230.776 176.775 230.776C177.243 230.776 177.591 230.878 177.819 231.082C178.047 231.286 178.191 231.586 178.251 231.982L179.025 237.292L179.277 239.2L180.015 238.174C180.555 237.358 180.957 236.596 181.221 235.888C181.497 235.168 181.659 234.406 181.707 233.602C181.719 233.374 181.677 233.068 181.581 232.684C181.497 232.372 181.455 232.108 181.455 231.892C181.455 231.568 181.557 231.304 181.761 231.1C181.965 230.884 182.241 230.776 182.589 230.776C183.057 230.776 183.399 230.956 183.615 231.316C183.843 231.664 183.957 232.108 183.957 232.648C183.957 234.136 182.793 236.356 180.465 239.308L179.097 241.054L177.513 241.18L176.865 237.886L175.857 232.702ZM192.388 239.2C192.076 239.692 191.566 240.154 190.858 240.586C190.162 241.018 189.352 241.234 188.428 241.234C187.564 241.234 186.85 241.048 186.286 240.676C185.734 240.304 185.332 239.818 185.08 239.218C184.828 238.618 184.702 237.964 184.702 237.256C184.702 236.056 184.942 234.964 185.422 233.98C185.914 232.984 186.58 232.198 187.42 231.622C188.26 231.046 189.196 230.758 190.228 230.758C191.152 230.758 191.836 230.974 192.28 231.406C192.736 231.826 192.964 232.378 192.964 233.062C192.964 233.926 192.652 234.646 192.028 235.222C191.404 235.798 190.654 236.23 189.778 236.518C188.902 236.794 188.074 236.944 187.294 236.968C187.27 237.832 187.408 238.528 187.708 239.056C188.02 239.584 188.488 239.848 189.112 239.848C190.144 239.848 191.08 239.368 191.92 238.408L192.388 239.2ZM189.688 231.874C188.98 231.874 188.422 232.3 188.014 233.152C187.606 234.004 187.366 234.952 187.294 235.996C187.762 235.972 188.254 235.846 188.77 235.618C189.298 235.39 189.736 235.072 190.084 234.664C190.444 234.244 190.624 233.764 190.624 233.224C190.624 232.792 190.54 232.462 190.372 232.234C190.216 231.994 189.988 231.874 189.688 231.874ZM197.545 233.368C197.773 232.684 198.163 232.084 198.715 231.568C199.279 231.04 199.909 230.776 200.605 230.776C200.845 230.776 201.049 230.83 201.217 230.938L200.695 233.53C200.623 233.47 200.503 233.416 200.335 233.368C200.179 233.308 199.987 233.278 199.759 233.278C199.327 233.278 198.913 233.374 198.517 233.566C198.121 233.746 197.815 234.01 197.599 234.358L196.717 241H194.377L195.511 232.45L194.593 231.946L194.719 231.226L197.293 230.794L197.707 231.046L197.617 232.684L197.545 233.368ZM204.296 239.2C204.284 239.248 204.278 239.314 204.278 239.398C204.278 239.698 204.386 239.848 204.602 239.848C204.71 239.848 204.824 239.818 204.944 239.758C205.076 239.698 205.25 239.572 205.466 239.38L205.7 239.938C205.508 240.214 205.226 240.49 204.854 240.766C204.482 241.042 204.002 241.18 203.414 241.18C202.958 241.18 202.586 241.09 202.298 240.91C202.01 240.718 201.86 240.424 201.848 240.028C201.848 239.98 201.872 239.764 201.92 239.38L203.486 227.878L202.352 227.518L202.514 226.852L205.574 226.492L205.988 226.726L204.296 239.2ZM210.284 235.798C210.236 236.242 210.194 236.554 210.158 236.734C210.038 237.67 209.978 238.27 209.978 238.534C209.978 239.014 210.062 239.356 210.23 239.56C210.398 239.764 210.65 239.866 210.986 239.866C211.37 239.866 211.748 239.746 212.12 239.506C212.504 239.266 212.828 238.978 213.092 238.642L214.136 230.866H216.512L215.36 239.2C215.336 239.416 215.354 239.578 215.414 239.686C215.474 239.794 215.564 239.848 215.684 239.848C215.792 239.848 215.906 239.818 216.026 239.758C216.146 239.686 216.314 239.56 216.53 239.38L216.782 239.938C216.626 240.19 216.338 240.46 215.918 240.748C215.498 241.036 215.018 241.18 214.478 241.18C214.058 241.18 213.734 241.09 213.506 240.91C213.29 240.73 213.17 240.484 213.146 240.172L213.128 239.956C213.128 239.86 213.14 239.74 213.164 239.596L213.128 239.578C212.24 240.646 211.196 241.18 209.996 241.18C209.324 241.18 208.754 241 208.286 240.64C207.818 240.268 207.578 239.68 207.566 238.876C207.566 238.408 207.65 237.562 207.818 236.338C207.866 236.038 207.896 235.834 207.908 235.726L208.394 232.45L207.35 231.838L207.494 231.1L210.482 230.794L210.896 230.992L210.284 235.798ZM224.276 232.72C224.132 232.552 223.892 232.378 223.556 232.198C223.232 232.018 222.854 231.928 222.422 231.928C221.942 231.928 221.552 232.036 221.252 232.252C220.964 232.456 220.82 232.762 220.82 233.17C220.82 233.53 220.94 233.854 221.18 234.142C221.432 234.418 221.834 234.754 222.386 235.15C222.998 235.606 223.466 236.05 223.79 236.482C224.114 236.902 224.276 237.442 224.276 238.102C224.276 238.762 224.096 239.326 223.736 239.794C223.376 240.25 222.896 240.598 222.296 240.838C221.696 241.066 221.036 241.18 220.316 241.18C219.776 241.18 219.224 241.12 218.66 241C218.096 240.868 217.73 240.73 217.562 240.586L217.922 239.056C218.174 239.272 218.516 239.476 218.948 239.668C219.38 239.86 219.83 239.956 220.298 239.956C220.742 239.956 221.12 239.854 221.432 239.65C221.756 239.446 221.918 239.128 221.918 238.696C221.918 238.324 221.78 237.988 221.504 237.688C221.228 237.388 220.814 237.046 220.262 236.662C219.758 236.314 219.332 235.906 218.984 235.438C218.648 234.958 218.48 234.382 218.48 233.71C218.48 233.134 218.642 232.624 218.966 232.18C219.302 231.736 219.758 231.394 220.334 231.154C220.922 230.902 221.594 230.776 222.35 230.776C222.794 230.776 223.244 230.812 223.7 230.884C224.156 230.956 224.462 231.034 224.618 231.118L224.276 232.72ZM228.735 237.706C228.651 238.402 228.609 238.822 228.609 238.966C228.609 239.242 228.663 239.44 228.771 239.56C228.879 239.668 229.065 239.722 229.329 239.722C229.569 239.722 229.839 239.668 230.139 239.56C230.451 239.44 230.709 239.296 230.913 239.128L231.111 239.794C230.799 240.142 230.355 240.46 229.779 240.748C229.203 241.036 228.555 241.18 227.835 241.18C227.331 241.18 226.929 241.054 226.629 240.802C226.341 240.538 226.197 240.124 226.197 239.56C226.197 239.32 226.257 238.756 226.377 237.868L227.133 232.288H226.053L226.251 231.424L227.331 231.046C227.691 230.71 228.117 229.882 228.609 228.562H229.959L229.653 231.01H231.813L231.633 232.288H229.473L228.735 237.706ZM239.832 239.2C239.52 239.692 239.01 240.154 238.302 240.586C237.606 241.018 236.796 241.234 235.872 241.234C235.008 241.234 234.294 241.048 233.73 240.676C233.178 240.304 232.776 239.818 232.524 239.218C232.272 238.618 232.146 237.964 232.146 237.256C232.146 236.056 232.386 234.964 232.866 233.98C233.358 232.984 234.024 232.198 234.864 231.622C235.704 231.046 236.64 230.758 237.672 230.758C238.596 230.758 239.28 230.974 239.724 231.406C240.18 231.826 240.408 232.378 240.408 233.062C240.408 233.926 240.096 234.646 239.472 235.222C238.848 235.798 238.098 236.23 237.222 236.518C236.346 236.794 235.518 236.944 234.738 236.968C234.714 237.832 234.852 238.528 235.152 239.056C235.464 239.584 235.932 239.848 236.556 239.848C237.588 239.848 238.524 239.368 239.364 238.408L239.832 239.2ZM237.132 231.874C236.424 231.874 235.866 232.3 235.458 233.152C235.05 234.004 234.81 234.952 234.738 235.996C235.206 235.972 235.698 235.846 236.214 235.618C236.742 235.39 237.18 235.072 237.528 234.664C237.888 234.244 238.068 233.764 238.068 233.224C238.068 232.792 237.984 232.462 237.816 232.234C237.66 231.994 237.432 231.874 237.132 231.874ZM247.76 232.72C247.616 232.552 247.376 232.378 247.04 232.198C246.716 232.018 246.338 231.928 245.906 231.928C245.426 231.928 245.036 232.036 244.736 232.252C244.448 232.456 244.304 232.762 244.304 233.17C244.304 233.53 244.424 233.854 244.664 234.142C244.916 234.418 245.318 234.754 245.87 235.15C246.482 235.606 246.95 236.05 247.274 236.482C247.598 236.902 247.76 237.442 247.76 238.102C247.76 238.762 247.58 239.326 247.22 239.794C246.86 240.25 246.38 240.598 245.78 240.838C245.18 241.066 244.52 241.18 243.8 241.18C243.26 241.18 242.708 241.12 242.144 241C241.58 240.868 241.214 240.73 241.046 240.586L241.406 239.056C241.658 239.272 242 239.476 242.432 239.668C242.864 239.86 243.314 239.956 243.782 239.956C244.226 239.956 244.604 239.854 244.916 239.65C245.24 239.446 245.402 239.128 245.402 238.696C245.402 238.324 245.264 237.988 244.988 237.688C244.712 237.388 244.298 237.046 243.746 236.662C243.242 236.314 242.816 235.906 242.468 235.438C242.132 234.958 241.964 234.382 241.964 233.71C241.964 233.134 242.126 232.624 242.45 232.18C242.786 231.736 243.242 231.394 243.818 231.154C244.406 230.902 245.078 230.776 245.834 230.776C246.278 230.776 246.728 230.812 247.184 230.884C247.64 230.956 247.946 231.034 248.102 231.118L247.76 232.72ZM261.441 239.164C261.429 239.212 261.423 239.284 261.423 239.38C261.423 239.692 261.543 239.848 261.783 239.848C261.975 239.848 262.245 239.704 262.593 239.416L262.845 239.974C262.689 240.214 262.407 240.478 261.999 240.766C261.603 241.042 261.141 241.18 260.613 241.18C260.205 241.18 259.881 241.09 259.641 240.91C259.401 240.73 259.275 240.454 259.263 240.082L259.299 239.776C258.963 240.172 258.555 240.508 258.075 240.784C257.595 241.048 257.067 241.18 256.491 241.18C255.483 241.18 254.727 240.838 254.223 240.154C253.731 239.458 253.485 238.552 253.485 237.436C253.485 236.332 253.713 235.27 254.169 234.25C254.637 233.23 255.315 232.396 256.203 231.748C257.091 231.1 258.147 230.776 259.371 230.776C259.683 230.776 260.019 230.812 260.379 230.884C260.751 230.956 261.075 231.04 261.351 231.136L262.593 230.776L261.441 239.164ZM260.055 232.054C259.827 231.946 259.533 231.892 259.173 231.892C258.453 231.892 257.853 232.168 257.373 232.72C256.893 233.26 256.539 233.95 256.311 234.79C256.095 235.618 255.987 236.458 255.987 237.31C255.987 238.102 256.107 238.72 256.347 239.164C256.587 239.596 256.941 239.812 257.409 239.812C257.709 239.812 258.009 239.71 258.309 239.506C258.621 239.302 258.897 239.062 259.137 238.786L260.055 232.054ZM266.822 239.2C266.81 239.248 266.804 239.314 266.804 239.398C266.804 239.698 266.912 239.848 267.128 239.848C267.236 239.848 267.35 239.818 267.47 239.758C267.602 239.698 267.776 239.572 267.992 239.38L268.226 239.938C268.034 240.214 267.752 240.49 267.38 240.766C267.008 241.042 266.528 241.18 265.94 241.18C265.484 241.18 265.112 241.09 264.824 240.91C264.536 240.718 264.386 240.424 264.374 240.028C264.374 239.98 264.398 239.764 264.446 239.38L266.012 227.878L264.878 227.518L265.04 226.852L268.1 226.492L268.514 226.726L266.822 239.2ZM275.762 232.72C275.618 232.552 275.378 232.378 275.042 232.198C274.718 232.018 274.34 231.928 273.908 231.928C273.428 231.928 273.038 232.036 272.738 232.252C272.45 232.456 272.306 232.762 272.306 233.17C272.306 233.53 272.426 233.854 272.666 234.142C272.918 234.418 273.32 234.754 273.872 235.15C274.484 235.606 274.952 236.05 275.276 236.482C275.6 236.902 275.762 237.442 275.762 238.102C275.762 238.762 275.582 239.326 275.222 239.794C274.862 240.25 274.382 240.598 273.782 240.838C273.182 241.066 272.522 241.18 271.802 241.18C271.262 241.18 270.71 241.12 270.146 241C269.582 240.868 269.216 240.73 269.048 240.586L269.408 239.056C269.66 239.272 270.002 239.476 270.434 239.668C270.866 239.86 271.316 239.956 271.784 239.956C272.228 239.956 272.606 239.854 272.918 239.65C273.242 239.446 273.404 239.128 273.404 238.696C273.404 238.324 273.266 237.988 272.99 237.688C272.714 237.388 272.3 237.046 271.748 236.662C271.244 236.314 270.818 235.906 270.47 235.438C270.134 234.958 269.966 234.382 269.966 233.71C269.966 233.134 270.128 232.624 270.452 232.18C270.788 231.736 271.244 231.394 271.82 231.154C272.408 230.902 273.08 230.776 273.836 230.776C274.28 230.776 274.73 230.812 275.186 230.884C275.642 230.956 275.948 231.034 276.104 231.118L275.762 232.72ZM95.0599 258.798C95.0119 259.242 94.9699 259.554 94.9339 259.734C94.8139 260.67 94.7539 261.27 94.7539 261.534C94.7539 262.014 94.8379 262.356 95.0059 262.56C95.1739 262.764 95.4259 262.866 95.7619 262.866C96.1459 262.866 96.5239 262.746 96.8959 262.506C97.2799 262.266 97.6039 261.978 97.8679 261.642L98.9119 253.866H101.288L100.136 262.2C100.112 262.416 100.13 262.578 100.19 262.686C100.25 262.794 100.34 262.848 100.46 262.848C100.568 262.848 100.682 262.818 100.802 262.758C100.922 262.686 101.09 262.56 101.306 262.38L101.558 262.938C101.402 263.19 101.114 263.46 100.694 263.748C100.274 264.036 99.7939 264.18 99.2539 264.18C98.8339 264.18 98.5099 264.09 98.2819 263.91C98.0659 263.73 97.9459 263.484 97.9219 263.172L97.9039 262.956C97.9039 262.86 97.9159 262.74 97.9399 262.596L97.9039 262.578C97.0159 263.646 95.9719 264.18 94.7719 264.18C94.0999 264.18 93.5299 264 93.0619 263.64C92.5939 263.268 92.3539 262.68 92.3419 261.876C92.3419 261.408 92.4259 260.562 92.5939 259.338C92.6419 259.038 92.6719 258.834 92.6839 258.726L93.1699 255.45L92.1259 254.838L92.2699 254.1L95.2579 253.794L95.6719 253.992L95.0599 258.798ZM106.513 255.954C106.957 255.294 107.485 254.766 108.097 254.37C108.709 253.974 109.351 253.776 110.023 253.776C111.511 253.776 112.255 254.658 112.255 256.422C112.255 256.89 112.105 257.934 111.805 259.554C111.757 259.866 111.715 260.106 111.679 260.274C111.511 261.222 111.421 261.906 111.409 262.326V262.398C111.409 262.698 111.505 262.848 111.697 262.848C111.805 262.848 111.919 262.818 112.039 262.758C112.159 262.698 112.315 262.59 112.507 262.434L112.759 262.992C112.579 263.244 112.285 263.508 111.877 263.784C111.469 264.048 110.971 264.18 110.383 264.18C109.819 264.18 109.429 264.06 109.213 263.82C108.997 263.568 108.889 263.238 108.889 262.83C108.901 262.47 109.015 261.756 109.231 260.688L109.339 260.076C109.363 259.968 109.411 259.68 109.483 259.212C109.567 258.744 109.633 258.3 109.681 257.88C109.729 257.448 109.753 257.076 109.753 256.764C109.753 256.212 109.687 255.834 109.555 255.63C109.435 255.426 109.213 255.324 108.889 255.324C108.493 255.324 108.049 255.546 107.557 255.99C107.077 256.434 106.663 256.968 106.315 257.592L105.451 264H103.093L104.245 255.432L103.327 254.946L103.471 254.208L106.279 253.776L106.693 253.974L106.513 255.954ZM118.715 255.864C117.743 255.84 117.125 255.834 116.861 255.846C116.465 255.858 116.141 256.008 115.889 256.296C115.649 256.572 115.517 256.914 115.493 257.322H114.773C114.749 257.058 114.737 256.788 114.737 256.512C114.737 255.924 114.785 255.384 114.881 254.892C114.989 254.4 115.163 254.094 115.403 253.974C115.607 253.854 115.889 253.794 116.249 253.794C116.885 253.794 117.821 253.848 119.057 253.956C119.333 253.968 119.723 253.992 120.227 254.028C120.743 254.064 121.121 254.082 121.361 254.082C121.769 254.082 122.087 253.986 122.315 253.794L122.765 254.28L117.527 260.868L116.195 262.11L119.435 262.146C119.903 262.146 120.269 262.008 120.533 261.732C120.797 261.444 120.959 261.066 121.019 260.598H121.721C121.733 260.718 121.739 260.928 121.739 261.228C121.739 261.864 121.685 262.452 121.577 262.992C121.481 263.52 121.307 263.862 121.055 264.018C120.899 264.138 120.599 264.198 120.155 264.198C119.471 264.198 118.481 264.144 117.185 264.036C116.885 264.024 116.465 264 115.925 263.964C115.397 263.928 115.019 263.91 114.791 263.91C114.635 263.91 114.467 263.934 114.287 263.982C114.119 264.03 113.981 264.102 113.873 264.198L113.351 263.694L119.111 256.656L120.083 255.882L118.715 255.864ZM126.402 258.798C126.354 259.242 126.312 259.554 126.276 259.734C126.156 260.67 126.096 261.27 126.096 261.534C126.096 262.014 126.18 262.356 126.348 262.56C126.516 262.764 126.768 262.866 127.104 262.866C127.488 262.866 127.866 262.746 128.238 262.506C128.622 262.266 128.946 261.978 129.21 261.642L130.254 253.866H132.63L131.478 262.2C131.454 262.416 131.472 262.578 131.532 262.686C131.592 262.794 131.682 262.848 131.802 262.848C131.91 262.848 132.024 262.818 132.144 262.758C132.264 262.686 132.432 262.56 132.648 262.38L132.9 262.938C132.744 263.19 132.456 263.46 132.036 263.748C131.616 264.036 131.136 264.18 130.596 264.18C130.176 264.18 129.852 264.09 129.624 263.91C129.408 263.73 129.288 263.484 129.264 263.172L129.246 262.956C129.246 262.86 129.258 262.74 129.282 262.596L129.246 262.578C128.358 263.646 127.314 264.18 126.114 264.18C125.442 264.18 124.872 264 124.404 263.64C123.936 263.268 123.696 262.68 123.684 261.876C123.684 261.408 123.768 260.562 123.936 259.338C123.984 259.038 124.014 258.834 124.026 258.726L124.512 255.45L123.468 254.838L123.612 254.1L126.6 253.794L127.014 253.992L126.402 258.798ZM137.55 256.368C137.778 255.684 138.168 255.084 138.72 254.568C139.284 254.04 139.914 253.776 140.61 253.776C140.85 253.776 141.054 253.83 141.222 253.938L140.7 256.53C140.628 256.47 140.508 256.416 140.34 256.368C140.184 256.308 139.992 256.278 139.764 256.278C139.332 256.278 138.918 256.374 138.522 256.566C138.126 256.746 137.82 257.01 137.604 257.358L136.722 264H134.382L135.516 255.45L134.598 254.946L134.724 254.226L137.298 253.794L137.712 254.046L137.622 255.684L137.55 256.368ZM149.234 262.2C148.922 262.692 148.412 263.154 147.704 263.586C147.008 264.018 146.198 264.234 145.274 264.234C144.41 264.234 143.696 264.048 143.132 263.676C142.58 263.304 142.178 262.818 141.926 262.218C141.674 261.618 141.548 260.964 141.548 260.256C141.548 259.056 141.788 257.964 142.268 256.98C142.76 255.984 143.426 255.198 144.266 254.622C145.106 254.046 146.042 253.758 147.074 253.758C147.998 253.758 148.682 253.974 149.126 254.406C149.582 254.826 149.81 255.378 149.81 256.062C149.81 256.926 149.498 257.646 148.874 258.222C148.25 258.798 147.5 259.23 146.624 259.518C145.748 259.794 144.92 259.944 144.14 259.968C144.116 260.832 144.254 261.528 144.554 262.056C144.866 262.584 145.334 262.848 145.958 262.848C146.99 262.848 147.926 262.368 148.766 261.408L149.234 262.2ZM146.534 254.874C145.826 254.874 145.268 255.3 144.86 256.152C144.452 257.004 144.212 257.952 144.14 258.996C144.608 258.972 145.1 258.846 145.616 258.618C146.144 258.39 146.582 258.072 146.93 257.664C147.29 257.244 147.47 256.764 147.47 256.224C147.47 255.792 147.386 255.462 147.218 255.234C147.062 254.994 146.834 254.874 146.534 254.874ZM153.94 262.2C153.928 262.26 153.922 262.332 153.922 262.416C153.922 262.704 154.024 262.848 154.228 262.848C154.336 262.848 154.456 262.812 154.588 262.74C154.72 262.668 154.888 262.548 155.092 262.38L155.326 262.938C155.122 263.214 154.816 263.49 154.408 263.766C154.012 264.042 153.526 264.18 152.95 264.18C152.482 264.18 152.116 264.09 151.852 263.91C151.588 263.718 151.456 263.46 151.456 263.136L151.474 262.956C151.546 262.332 151.792 260.52 152.212 257.52L152.5 255.432L151.438 254.928L151.564 254.226L154.66 253.794L155.092 253.992L153.94 262.2ZM154.138 252.066C153.814 252.066 153.532 251.946 153.292 251.706C153.064 251.454 152.95 251.166 152.95 250.842C152.95 250.398 153.094 250.026 153.382 249.726C153.682 249.426 154.06 249.276 154.516 249.276C154.888 249.276 155.182 249.396 155.398 249.636C155.614 249.864 155.722 250.14 155.722 250.464C155.722 250.92 155.584 251.304 155.308 251.616C155.032 251.916 154.642 252.066 154.138 252.066ZM163.233 256.458C162.897 256.038 162.597 255.702 162.333 255.45C162.081 255.186 161.859 255.054 161.667 255.054C161.223 255.054 160.809 255.258 160.425 255.666C160.053 256.074 159.747 256.644 159.507 257.376C159.279 258.108 159.165 258.93 159.165 259.842C159.165 260.838 159.309 261.57 159.597 262.038C159.885 262.494 160.323 262.722 160.911 262.722C161.415 262.722 161.841 262.626 162.189 262.434C162.549 262.242 162.897 261.972 163.233 261.624L163.701 262.416C163.401 262.86 162.927 263.268 162.279 263.64C161.643 264 160.887 264.18 160.011 264.18C158.979 264.18 158.169 263.82 157.581 263.1C156.993 262.368 156.699 261.336 156.699 260.004C156.699 258.996 156.909 258.018 157.329 257.07C157.749 256.11 158.373 255.324 159.201 254.712C160.029 254.088 161.025 253.776 162.189 253.776C162.561 253.776 162.945 253.812 163.341 253.884C163.749 253.944 164.079 254.034 164.331 254.154L163.719 256.494L163.233 256.458ZM168.525 256.08C168.969 255.384 169.497 254.826 170.109 254.406C170.733 253.986 171.393 253.776 172.089 253.776C172.797 253.776 173.343 253.98 173.727 254.388C174.123 254.796 174.321 255.474 174.321 256.422C174.321 256.794 174.249 257.382 174.105 258.186C173.973 258.99 173.901 259.446 173.889 259.554L173.781 260.13C173.709 260.526 173.637 260.934 173.565 261.354C173.505 261.774 173.475 262.116 173.475 262.38C173.475 262.704 173.577 262.866 173.781 262.866C173.889 262.866 174.003 262.836 174.123 262.776C174.243 262.704 174.411 262.584 174.627 262.416L174.861 262.974C174.705 263.214 174.417 263.478 173.997 263.766C173.577 264.042 173.073 264.18 172.485 264.18C171.897 264.18 171.495 264.066 171.279 263.838C171.063 263.598 170.955 263.262 170.955 262.83C170.967 262.47 171.081 261.756 171.297 260.688L171.405 260.076C171.429 259.968 171.477 259.68 171.549 259.212C171.633 258.744 171.699 258.3 171.747 257.88C171.795 257.448 171.819 257.076 171.819 256.764C171.819 256.212 171.753 255.834 171.621 255.63C171.489 255.426 171.267 255.324 170.955 255.324C170.547 255.324 170.091 255.558 169.587 256.026C169.095 256.482 168.675 257.04 168.327 257.7L167.535 264H165.141L166.779 250.878L165.699 250.518L165.825 249.852L168.903 249.492L169.335 249.726L168.525 256.08ZM183.916 262.2C183.604 262.692 183.094 263.154 182.386 263.586C181.69 264.018 180.88 264.234 179.956 264.234C179.092 264.234 178.378 264.048 177.814 263.676C177.262 263.304 176.86 262.818 176.608 262.218C176.356 261.618 176.23 260.964 176.23 260.256C176.23 259.056 176.47 257.964 176.95 256.98C177.442 255.984 178.108 255.198 178.948 254.622C179.788 254.046 180.724 253.758 181.756 253.758C182.68 253.758 183.364 253.974 183.808 254.406C184.264 254.826 184.492 255.378 184.492 256.062C184.492 256.926 184.18 257.646 183.556 258.222C182.932 258.798 182.182 259.23 181.306 259.518C180.43 259.794 179.602 259.944 178.822 259.968C178.798 260.832 178.936 261.528 179.236 262.056C179.548 262.584 180.016 262.848 180.64 262.848C181.672 262.848 182.608 262.368 183.448 261.408L183.916 262.2ZM181.216 254.874C180.508 254.874 179.95 255.3 179.542 256.152C179.134 257.004 178.894 257.952 178.822 258.996C179.29 258.972 179.782 258.846 180.298 258.618C180.826 258.39 181.264 258.072 181.612 257.664C181.972 257.244 182.152 256.764 182.152 256.224C182.152 255.792 182.068 255.462 181.9 255.234C181.744 254.994 181.516 254.874 181.216 254.874ZM189.306 255.954C189.75 255.294 190.278 254.766 190.89 254.37C191.502 253.974 192.144 253.776 192.816 253.776C194.304 253.776 195.048 254.658 195.048 256.422C195.048 256.89 194.898 257.934 194.598 259.554C194.55 259.866 194.508 260.106 194.472 260.274C194.304 261.222 194.214 261.906 194.202 262.326V262.398C194.202 262.698 194.298 262.848 194.49 262.848C194.598 262.848 194.712 262.818 194.832 262.758C194.952 262.698 195.108 262.59 195.3 262.434L195.552 262.992C195.372 263.244 195.078 263.508 194.67 263.784C194.262 264.048 193.764 264.18 193.176 264.18C192.612 264.18 192.222 264.06 192.006 263.82C191.79 263.568 191.682 263.238 191.682 262.83C191.694 262.47 191.808 261.756 192.024 260.688L192.132 260.076C192.156 259.968 192.204 259.68 192.276 259.212C192.36 258.744 192.426 258.3 192.474 257.88C192.522 257.448 192.546 257.076 192.546 256.764C192.546 256.212 192.48 255.834 192.348 255.63C192.228 255.426 192.006 255.324 191.682 255.324C191.286 255.324 190.842 255.546 190.35 255.99C189.87 256.434 189.456 256.968 189.108 257.592L188.244 264H185.886L187.038 255.432L186.12 254.946L186.264 254.208L189.072 253.776L189.486 253.974L189.306 255.954ZM205.072 262.182C205.06 262.23 205.054 262.302 205.054 262.398C205.054 262.698 205.156 262.848 205.36 262.848C205.564 262.848 205.834 262.71 206.17 262.434L206.422 262.992C205.75 263.784 205.006 264.18 204.19 264.18C203.77 264.18 203.452 264.078 203.236 263.874C203.02 263.67 202.894 263.358 202.858 262.938V262.668C202.558 263.088 202.156 263.448 201.652 263.748C201.148 264.036 200.572 264.18 199.924 264.18C198.916 264.18 198.166 263.838 197.674 263.154C197.182 262.458 196.936 261.552 196.936 260.436C196.936 259.32 197.158 258.252 197.602 257.232C198.046 256.212 198.706 255.384 199.582 254.748C200.47 254.1 201.538 253.776 202.786 253.776C203.134 253.776 203.5 253.824 203.884 253.92L204.334 250.878L203.038 250.518L203.2 249.852L206.44 249.492L206.89 249.726L205.072 262.182ZM203.704 255.144C203.404 254.976 203.026 254.892 202.57 254.892C201.838 254.892 201.238 255.174 200.77 255.738C200.302 256.29 199.96 256.98 199.744 257.808C199.528 258.636 199.42 259.476 199.42 260.328C199.42 261.12 199.54 261.732 199.78 262.164C200.032 262.596 200.386 262.812 200.842 262.812C201.214 262.812 201.568 262.698 201.904 262.47C202.24 262.23 202.516 261.948 202.732 261.624L203.704 255.144ZM207.603 262.92C207.603 262.452 207.753 262.068 208.053 261.768C208.353 261.456 208.695 261.3 209.079 261.3C209.463 261.3 209.763 261.426 209.979 261.678C210.195 261.918 210.303 262.212 210.303 262.56C210.303 263.076 210.147 263.478 209.835 263.766C209.535 264.042 209.169 264.18 208.737 264.18C208.425 264.18 208.155 264.066 207.927 263.838C207.711 263.598 207.603 263.292 207.603 262.92Z" fill="#394454"/>
<path d="M122.852 90.1364V84.9205L132.801 69.2727H137.534V76.2273H134.829L129.468 84.7273V84.9205H144.15V90.1364H122.852ZM134.877 94V88.5426L135.022 86.2727V69.2727H141.301V94H134.877ZM156.625 94.3381C154.677 94.3381 152.947 94.004 151.434 93.3359C149.928 92.6598 148.745 91.7301 147.884 90.5469C147.023 89.3636 146.588 88.0033 146.58 86.4659H153.341C153.349 86.9408 153.494 87.3674 153.776 87.7457C154.066 88.116 154.46 88.4058 154.959 88.6151C155.458 88.8243 156.03 88.929 156.674 88.929C157.293 88.929 157.841 88.8203 158.316 88.603C158.791 88.3776 159.161 88.0677 159.426 87.6733C159.692 87.2789 159.821 86.8281 159.813 86.321C159.821 85.822 159.668 85.3793 159.354 84.9929C159.048 84.6065 158.618 84.3047 158.062 84.0874C157.507 83.87 156.867 83.7614 156.142 83.7614H153.631V79.125H156.142C156.81 79.125 157.398 79.0163 157.905 78.799C158.42 78.5817 158.819 78.2798 159.1 77.8935C159.39 77.5071 159.531 77.0644 159.523 76.5653C159.531 76.0824 159.414 75.6558 159.173 75.2855C158.931 74.9152 158.593 74.6255 158.159 74.4162C157.732 74.2069 157.237 74.1023 156.674 74.1023C156.062 74.1023 155.515 74.2109 155.032 74.4283C154.557 74.6456 154.182 74.9474 153.909 75.3338C153.635 75.7202 153.494 76.1629 153.486 76.6619H147.063C147.071 75.1487 147.485 73.8125 148.306 72.6534C149.136 71.4943 150.27 70.5848 151.711 69.9247C153.152 69.2647 154.806 68.9347 156.674 68.9347C158.501 68.9347 160.115 69.2446 161.515 69.8643C162.924 70.4841 164.023 71.3374 164.811 72.424C165.608 73.5026 166.003 74.7382 165.995 76.1307C166.011 77.5152 165.536 78.6501 164.57 79.5355C163.612 80.4209 162.397 80.9441 160.924 81.1051V81.2983C162.92 81.5156 164.421 82.1274 165.427 83.1335C166.433 84.1316 166.928 85.3873 166.912 86.9006C166.92 88.3494 166.486 89.6333 165.608 90.7521C164.739 91.871 163.528 92.7483 161.974 93.3842C160.429 94.0201 158.646 94.3381 156.625 94.3381ZM184.06 89.3636V88.0597C184.06 87.0133 184.286 86.0473 184.736 85.1619C185.195 84.2765 185.859 83.5642 186.729 83.0249C187.598 82.4856 188.656 82.2159 189.904 82.2159C191.184 82.2159 192.258 82.4815 193.128 83.0128C194.005 83.544 194.669 84.2524 195.12 85.1378C195.571 86.0232 195.796 86.9972 195.796 88.0597V89.3636C195.796 90.41 195.567 91.3759 195.108 92.2614C194.657 93.1468 193.993 93.8591 193.116 94.3984C192.238 94.9377 191.168 95.2074 189.904 95.2074C188.64 95.2074 187.574 94.9377 186.704 94.3984C185.835 93.8591 185.175 93.1468 184.724 92.2614C184.282 91.3759 184.06 90.41 184.06 89.3636ZM188.262 88.0597V89.3636C188.262 89.8224 188.375 90.2772 188.6 90.728C188.833 91.1707 189.268 91.392 189.904 91.392C190.572 91.392 191.011 91.1747 191.22 90.7401C191.437 90.3054 191.546 89.8466 191.546 89.3636V88.0597C191.546 87.5767 191.445 87.1098 191.244 86.6591C191.043 86.2083 190.596 85.983 189.904 85.983C189.268 85.983 188.833 86.2083 188.6 86.6591C188.375 87.1098 188.262 87.5767 188.262 88.0597ZM171.117 75.2131V73.9091C171.117 72.8466 171.346 71.8726 171.805 70.9872C172.272 70.1018 172.94 69.3935 173.809 68.8622C174.679 68.331 175.729 68.0653 176.961 68.0653C178.241 68.0653 179.315 68.331 180.184 68.8622C181.062 69.3935 181.726 70.1018 182.177 70.9872C182.627 71.8726 182.853 72.8466 182.853 73.9091V75.2131C182.853 76.2756 182.623 77.2455 182.165 78.1229C181.714 79.0002 181.05 79.7005 180.172 80.2237C179.295 80.7469 178.224 81.0085 176.961 81.0085C175.697 81.0085 174.631 80.7429 173.761 80.2116C172.892 79.6804 172.232 78.9761 171.781 78.0987C171.338 77.2214 171.117 76.2595 171.117 75.2131ZM175.367 73.9091V75.2131C175.367 75.696 175.48 76.1548 175.705 76.5895C175.93 77.0241 176.349 77.2415 176.961 77.2415C177.629 77.2415 178.068 77.0241 178.277 76.5895C178.494 76.1548 178.603 75.696 178.603 75.2131V73.9091C178.603 73.4261 178.502 72.9593 178.301 72.5085C178.1 72.0578 177.653 71.8324 176.961 71.8324C176.325 71.8324 175.898 72.0658 175.681 72.5327C175.472 72.9915 175.367 73.4503 175.367 73.9091ZM173.17 94L190.17 69.2727H193.599L176.599 94H173.17Z" fill="#F04E5A"/>
<path d="M152 7C169.048 7 185.588 12.8083 198.893 23.4677C212.198 34.1271 221.475 49.0014 225.194 65.6393C228.913 82.2771 226.852 99.6855 219.352 114.995C211.852 130.305 199.359 142.603 183.933 149.862L179.067 139.52C192.142 133.367 202.73 122.944 209.088 109.967C215.445 96.9902 217.191 82.2349 214.039 68.1326C210.887 54.0304 203.024 41.4229 191.747 32.388C180.469 23.3531 166.45 18.43 152 18.43L152 7Z" fill="#F04E5A"/>
</svg>
