<svg width="303" height="246" viewBox="0 0 303 246" fill="none" xmlns="http://www.w3.org/2000/svg">
<circle cx="152" cy="82" r="82" fill="#E9E9E9"/>
<path d="M13.092 209.72C12.948 209.552 12.708 209.378 12.372 209.198C12.048 209.018 11.67 208.928 11.238 208.928C10.758 208.928 10.368 209.036 10.068 209.252C9.77995 209.456 9.63595 209.762 9.63595 210.17C9.63595 210.53 9.75595 210.854 9.99595 211.142C10.248 211.418 10.65 211.754 11.202 212.15C11.814 212.606 12.282 213.05 12.606 213.482C12.93 213.902 13.092 214.442 13.092 215.102C13.092 215.762 12.912 216.326 12.552 216.794C12.192 217.25 11.712 217.598 11.112 217.838C10.512 218.066 9.85195 218.18 9.13195 218.18C8.59195 218.18 8.03995 218.12 7.47595 218C6.91195 217.868 6.54595 217.73 6.37795 217.586L6.73795 216.056C6.98995 216.272 7.33195 216.476 7.76395 216.668C8.19595 216.86 8.64595 216.956 9.11395 216.956C9.55795 216.956 9.93595 216.854 10.248 216.65C10.572 216.446 10.734 216.128 10.734 215.696C10.734 215.324 10.596 214.988 10.32 214.688C10.044 214.388 9.62995 214.046 9.07795 213.662C8.57395 213.314 8.14795 212.906 7.79995 212.438C7.46395 211.958 7.29595 211.382 7.29595 210.71C7.29595 210.134 7.45795 209.624 7.78195 209.18C8.11795 208.736 8.57395 208.394 9.14995 208.154C9.73795 207.902 10.41 207.776 11.166 207.776C11.61 207.776 12.06 207.812 12.516 207.884C12.972 207.956 13.278 208.034 13.434 208.118L13.092 209.72ZM22.5016 216.164C22.4896 216.212 22.4836 216.284 22.4836 216.38C22.4836 216.692 22.6036 216.848 22.8436 216.848C23.0356 216.848 23.3056 216.704 23.6536 216.416L23.9056 216.974C23.7496 217.214 23.4676 217.478 23.0596 217.766C22.6636 218.042 22.2016 218.18 21.6736 218.18C21.2656 218.18 20.9416 218.09 20.7016 217.91C20.4616 217.73 20.3356 217.454 20.3236 217.082L20.3596 216.776C20.0236 217.172 19.6156 217.508 19.1356 217.784C18.6556 218.048 18.1276 218.18 17.5516 218.18C16.5436 218.18 15.7876 217.838 15.2836 217.154C14.7916 216.458 14.5456 215.552 14.5456 214.436C14.5456 213.332 14.7736 212.27 15.2296 211.25C15.6976 210.23 16.3756 209.396 17.2636 208.748C18.1516 208.1 19.2076 207.776 20.4316 207.776C20.7436 207.776 21.0796 207.812 21.4396 207.884C21.8116 207.956 22.1356 208.04 22.4116 208.136L23.6536 207.776L22.5016 216.164ZM21.1156 209.054C20.8876 208.946 20.5936 208.892 20.2336 208.892C19.5136 208.892 18.9136 209.168 18.4336 209.72C17.9536 210.26 17.5996 210.95 17.3716 211.79C17.1556 212.618 17.0476 213.458 17.0476 214.31C17.0476 215.102 17.1676 215.72 17.4076 216.164C17.6476 216.596 18.0016 216.812 18.4696 216.812C18.7696 216.812 19.0696 216.71 19.3696 216.506C19.6816 216.302 19.9576 216.062 20.1976 215.786L21.1156 209.054ZM32.832 218.684C32.652 220.052 32.064 221.03 31.068 221.618C30.072 222.218 28.932 222.518 27.648 222.518C27.252 222.518 26.826 222.476 26.37 222.392C25.926 222.32 25.614 222.242 25.434 222.158L25.848 220.466C26.076 220.61 26.424 220.772 26.892 220.952C27.36 221.132 27.81 221.222 28.242 221.222C28.938 221.222 29.448 221.084 29.772 220.808C30.096 220.532 30.306 220.01 30.402 219.242L30.672 217.1C30.348 217.412 29.97 217.67 29.538 217.874C29.106 218.078 28.638 218.18 28.134 218.18C27.126 218.18 26.364 217.838 25.848 217.154C25.344 216.458 25.092 215.552 25.092 214.436C25.092 213.332 25.32 212.27 25.776 211.25C26.244 210.23 26.922 209.396 27.81 208.748C28.71 208.1 29.772 207.776 30.996 207.776C31.332 207.776 31.692 207.818 32.076 207.902C32.46 207.974 32.796 208.064 33.084 208.172L34.362 207.776L32.832 218.684ZM31.824 209.108C31.572 208.964 31.224 208.892 30.78 208.892C30.06 208.892 29.46 209.174 28.98 209.738C28.5 210.29 28.146 210.986 27.918 211.826C27.702 212.654 27.594 213.488 27.594 214.328C27.594 215.108 27.72 215.72 27.972 216.164C28.236 216.596 28.596 216.812 29.052 216.812C29.388 216.812 29.712 216.716 30.024 216.524C30.348 216.32 30.624 216.08 30.852 215.804L31.824 209.108ZM43.3258 216.2C43.0138 216.692 42.5038 217.154 41.7958 217.586C41.0998 218.018 40.2898 218.234 39.3658 218.234C38.5018 218.234 37.7878 218.048 37.2238 217.676C36.6718 217.304 36.2698 216.818 36.0178 216.218C35.7658 215.618 35.6398 214.964 35.6398 214.256C35.6398 213.056 35.8798 211.964 36.3598 210.98C36.8518 209.984 37.5178 209.198 38.3578 208.622C39.1978 208.046 40.1338 207.758 41.1658 207.758C42.0898 207.758 42.7738 207.974 43.2178 208.406C43.6738 208.826 43.9018 209.378 43.9018 210.062C43.9018 210.926 43.5898 211.646 42.9658 212.222C42.3418 212.798 41.5918 213.23 40.7158 213.518C39.8398 213.794 39.0118 213.944 38.2318 213.968C38.2078 214.832 38.3458 215.528 38.6458 216.056C38.9578 216.584 39.4258 216.848 40.0498 216.848C41.0818 216.848 42.0178 216.368 42.8578 215.408L43.3258 216.2ZM40.6258 208.874C39.9178 208.874 39.3598 209.3 38.9518 210.152C38.5438 211.004 38.3038 211.952 38.2318 212.996C38.6998 212.972 39.1918 212.846 39.7078 212.618C40.2358 212.39 40.6738 212.072 41.0218 211.664C41.3818 211.244 41.5618 210.764 41.5618 210.224C41.5618 209.792 41.4778 209.462 41.3098 209.234C41.1538 208.994 40.9258 208.874 40.6258 208.874ZM48.7161 209.954C49.1601 209.294 49.6881 208.766 50.3001 208.37C50.9121 207.974 51.5541 207.776 52.2261 207.776C53.7141 207.776 54.4581 208.658 54.4581 210.422C54.4581 210.89 54.3081 211.934 54.0081 213.554C53.9601 213.866 53.9181 214.106 53.8821 214.274C53.7141 215.222 53.6241 215.906 53.6121 216.326V216.398C53.6121 216.698 53.7081 216.848 53.9001 216.848C54.0081 216.848 54.1221 216.818 54.2421 216.758C54.3621 216.698 54.5181 216.59 54.7101 216.434L54.9621 216.992C54.7821 217.244 54.4881 217.508 54.0801 217.784C53.6721 218.048 53.1741 218.18 52.5861 218.18C52.0221 218.18 51.6321 218.06 51.4161 217.82C51.2001 217.568 51.0921 217.238 51.0921 216.83C51.1041 216.47 51.2181 215.756 51.4341 214.688L51.5421 214.076C51.5661 213.968 51.6141 213.68 51.6861 213.212C51.7701 212.744 51.8361 212.3 51.8841 211.88C51.9321 211.448 51.9561 211.076 51.9561 210.764C51.9561 210.212 51.8901 209.834 51.7581 209.63C51.6381 209.426 51.4161 209.324 51.0921 209.324C50.6961 209.324 50.2521 209.546 49.7601 209.99C49.2801 210.434 48.8661 210.968 48.5181 211.592L47.6541 218H45.2961L46.4481 209.432L45.5301 208.946L45.6741 208.208L48.4821 207.776L48.8961 207.974L48.7161 209.954ZM57.768 215.498C58.368 215.666 58.806 215.996 59.082 216.488C59.358 216.968 59.496 217.508 59.496 218.108C59.496 219.068 59.19 219.938 58.578 220.718C57.966 221.51 57.156 222.11 56.148 222.518L55.644 221.816L55.68 221.636C56.172 221.408 56.598 221.018 56.958 220.466C57.33 219.914 57.516 219.332 57.516 218.72C57.516 218.312 57.426 217.958 57.246 217.658C57.066 217.346 56.844 217.184 56.58 217.172L56.616 216.686L57.768 215.498ZM73.6753 216.182C73.6633 216.23 73.6573 216.302 73.6573 216.398C73.6573 216.698 73.7593 216.848 73.9633 216.848C74.1673 216.848 74.4373 216.71 74.7733 216.434L75.0253 216.992C74.3533 217.784 73.6093 218.18 72.7933 218.18C72.3733 218.18 72.0553 218.078 71.8393 217.874C71.6233 217.67 71.4973 217.358 71.4613 216.938V216.668C71.1613 217.088 70.7593 217.448 70.2553 217.748C69.7513 218.036 69.1753 218.18 68.5273 218.18C67.5193 218.18 66.7693 217.838 66.2773 217.154C65.7853 216.458 65.5393 215.552 65.5393 214.436C65.5393 213.32 65.7613 212.252 66.2053 211.232C66.6493 210.212 67.3093 209.384 68.1853 208.748C69.0733 208.1 70.1413 207.776 71.3893 207.776C71.7373 207.776 72.1033 207.824 72.4873 207.92L72.9373 204.878L71.6413 204.518L71.8033 203.852L75.0433 203.492L75.4933 203.726L73.6753 216.182ZM72.3073 209.144C72.0073 208.976 71.6293 208.892 71.1733 208.892C70.4413 208.892 69.8413 209.174 69.3733 209.738C68.9053 210.29 68.5633 210.98 68.3473 211.808C68.1313 212.636 68.0233 213.476 68.0233 214.328C68.0233 215.12 68.1433 215.732 68.3833 216.164C68.6353 216.596 68.9893 216.812 69.4453 216.812C69.8173 216.812 70.1713 216.698 70.5073 216.47C70.8433 216.23 71.1193 215.948 71.3353 215.624L72.3073 209.144ZM84.3063 216.164C84.2943 216.212 84.2883 216.284 84.2883 216.38C84.2883 216.692 84.4083 216.848 84.6483 216.848C84.8403 216.848 85.1103 216.704 85.4583 216.416L85.7103 216.974C85.5543 217.214 85.2723 217.478 84.8643 217.766C84.4683 218.042 84.0063 218.18 83.4783 218.18C83.0703 218.18 82.7463 218.09 82.5063 217.91C82.2663 217.73 82.1403 217.454 82.1283 217.082L82.1643 216.776C81.8283 217.172 81.4203 217.508 80.9403 217.784C80.4603 218.048 79.9323 218.18 79.3563 218.18C78.3483 218.18 77.5923 217.838 77.0883 217.154C76.5963 216.458 76.3503 215.552 76.3503 214.436C76.3503 213.332 76.5783 212.27 77.0343 211.25C77.5023 210.23 78.1803 209.396 79.0683 208.748C79.9563 208.1 81.0123 207.776 82.2363 207.776C82.5483 207.776 82.8843 207.812 83.2443 207.884C83.6163 207.956 83.9403 208.04 84.2163 208.136L85.4583 207.776L84.3063 216.164ZM82.9203 209.054C82.6923 208.946 82.3983 208.892 82.0383 208.892C81.3183 208.892 80.7183 209.168 80.2383 209.72C79.7583 210.26 79.4043 210.95 79.1763 211.79C78.9603 212.618 78.8523 213.458 78.8523 214.31C78.8523 215.102 78.9723 215.72 79.2123 216.164C79.4523 216.596 79.8063 216.812 80.2743 216.812C80.5743 216.812 80.8743 216.71 81.1743 216.506C81.4863 216.302 81.7623 216.062 82.0023 215.786L82.9203 209.054ZM93.1427 209.72C92.9987 209.552 92.7587 209.378 92.4227 209.198C92.0987 209.018 91.7207 208.928 91.2887 208.928C90.8087 208.928 90.4187 209.036 90.1187 209.252C89.8307 209.456 89.6867 209.762 89.6867 210.17C89.6867 210.53 89.8067 210.854 90.0467 211.142C90.2987 211.418 90.7007 211.754 91.2527 212.15C91.8647 212.606 92.3327 213.05 92.6567 213.482C92.9807 213.902 93.1427 214.442 93.1427 215.102C93.1427 215.762 92.9627 216.326 92.6027 216.794C92.2427 217.25 91.7627 217.598 91.1627 217.838C90.5627 218.066 89.9027 218.18 89.1827 218.18C88.6427 218.18 88.0907 218.12 87.5267 218C86.9627 217.868 86.5967 217.73 86.4287 217.586L86.7887 216.056C87.0407 216.272 87.3827 216.476 87.8147 216.668C88.2467 216.86 88.6967 216.956 89.1647 216.956C89.6087 216.956 89.9867 216.854 90.2987 216.65C90.6227 216.446 90.7847 216.128 90.7847 215.696C90.7847 215.324 90.6467 214.988 90.3707 214.688C90.0947 214.388 89.6807 214.046 89.1287 213.662C88.6247 213.314 88.1987 212.906 87.8507 212.438C87.5147 211.958 87.3467 211.382 87.3467 210.71C87.3467 210.134 87.5087 209.624 87.8327 209.18C88.1687 208.736 88.6247 208.394 89.2007 208.154C89.7887 207.902 90.4607 207.776 91.2167 207.776C91.6607 207.776 92.1107 207.812 92.5667 207.884C93.0227 207.956 93.3287 208.034 93.4847 208.118L93.1427 209.72ZM100.824 209.72C100.68 209.552 100.44 209.378 100.104 209.198C99.7804 209.018 99.4024 208.928 98.9704 208.928C98.4904 208.928 98.1004 209.036 97.8004 209.252C97.5124 209.456 97.3684 209.762 97.3684 210.17C97.3684 210.53 97.4884 210.854 97.7284 211.142C97.9804 211.418 98.3824 211.754 98.9344 212.15C99.5464 212.606 100.014 213.05 100.338 213.482C100.662 213.902 100.824 214.442 100.824 215.102C100.824 215.762 100.644 216.326 100.284 216.794C99.9244 217.25 99.4444 217.598 98.8444 217.838C98.2444 218.066 97.5844 218.18 96.8644 218.18C96.3244 218.18 95.7724 218.12 95.2084 218C94.6444 217.868 94.2784 217.73 94.1104 217.586L94.4704 216.056C94.7224 216.272 95.0644 216.476 95.4964 216.668C95.9284 216.86 96.3784 216.956 96.8464 216.956C97.2904 216.956 97.6684 216.854 97.9804 216.65C98.3044 216.446 98.4664 216.128 98.4664 215.696C98.4664 215.324 98.3284 214.988 98.0524 214.688C97.7764 214.388 97.3624 214.046 96.8104 213.662C96.3064 213.314 95.8804 212.906 95.5324 212.438C95.1964 211.958 95.0284 211.382 95.0284 210.71C95.0284 210.134 95.1904 209.624 95.5144 209.18C95.8504 208.736 96.3064 208.394 96.8824 208.154C97.4704 207.902 98.1424 207.776 98.8984 207.776C99.3424 207.776 99.7924 207.812 100.248 207.884C100.704 207.956 101.01 208.034 101.166 208.118L100.824 209.72ZM113.642 210.188C113.87 210.56 114.272 211.316 114.848 212.456C114.932 212.624 115.064 212.888 115.244 213.248C115.436 213.608 115.586 213.884 115.694 214.076L115.91 214.472C116.354 215.288 116.684 215.87 116.9 216.218C117.116 216.566 117.308 216.788 117.476 216.884L118.556 217.154L118.466 218H115.172C114.944 217.976 114.728 217.796 114.524 217.46C114.32 217.124 114.038 216.56 113.678 215.768C113.666 215.756 113.45 215.258 113.03 214.274C112.598 213.242 112.244 212.444 111.968 211.88L110.222 213.68L109.808 216.92L111.284 217.172L111.194 218H105.883L105.992 217.172L107.27 216.92L108.728 205.724L107.486 205.508L107.576 204.626H112.85L112.742 205.508L111.248 205.724L110.438 211.898L116.162 205.724L114.956 205.49L115.046 204.626H119.204L119.096 205.508L117.998 205.706L113.642 210.188ZM124.713 207.758C125.961 207.758 126.915 208.124 127.575 208.856C128.235 209.576 128.565 210.614 128.565 211.97C128.565 213.086 128.337 214.124 127.881 215.084C127.425 216.044 126.783 216.812 125.955 217.388C125.127 217.952 124.179 218.234 123.111 218.234C121.863 218.234 120.909 217.868 120.249 217.136C119.601 216.392 119.277 215.336 119.277 213.968C119.277 212.84 119.499 211.802 119.943 210.854C120.399 209.906 121.041 209.156 121.869 208.604C122.697 208.04 123.645 207.758 124.713 207.758ZM124.407 208.892C123.855 208.892 123.387 209.144 123.003 209.648C122.619 210.14 122.331 210.77 122.139 211.538C121.959 212.306 121.869 213.092 121.869 213.896C121.869 215.036 121.995 215.87 122.247 216.398C122.511 216.926 122.919 217.19 123.471 217.19C124.011 217.19 124.467 216.938 124.839 216.434C125.211 215.93 125.487 215.288 125.667 214.508C125.847 213.728 125.937 212.93 125.937 212.114C125.937 210.974 125.811 210.152 125.559 209.648C125.319 209.144 124.935 208.892 124.407 208.892ZM136.051 209.72C135.907 209.552 135.667 209.378 135.331 209.198C135.007 209.018 134.629 208.928 134.197 208.928C133.717 208.928 133.327 209.036 133.027 209.252C132.739 209.456 132.595 209.762 132.595 210.17C132.595 210.53 132.715 210.854 132.955 211.142C133.207 211.418 133.609 211.754 134.161 212.15C134.773 212.606 135.241 213.05 135.565 213.482C135.889 213.902 136.051 214.442 136.051 215.102C136.051 215.762 135.871 216.326 135.511 216.794C135.151 217.25 134.671 217.598 134.071 217.838C133.471 218.066 132.811 218.18 132.091 218.18C131.551 218.18 130.999 218.12 130.435 218C129.871 217.868 129.505 217.73 129.337 217.586L129.697 216.056C129.949 216.272 130.291 216.476 130.723 216.668C131.155 216.86 131.605 216.956 132.073 216.956C132.517 216.956 132.895 216.854 133.207 216.65C133.531 216.446 133.693 216.128 133.693 215.696C133.693 215.324 133.555 214.988 133.279 214.688C133.003 214.388 132.589 214.046 132.037 213.662C131.533 213.314 131.107 212.906 130.759 212.438C130.423 211.958 130.255 211.382 130.255 210.71C130.255 210.134 130.417 209.624 130.741 209.18C131.077 208.736 131.533 208.394 132.109 208.154C132.697 207.902 133.369 207.776 134.125 207.776C134.569 207.776 135.019 207.812 135.475 207.884C135.931 207.956 136.237 208.034 136.393 208.118L136.051 209.72ZM140.511 214.706C140.427 215.402 140.385 215.822 140.385 215.966C140.385 216.242 140.439 216.44 140.547 216.56C140.655 216.668 140.841 216.722 141.105 216.722C141.345 216.722 141.615 216.668 141.915 216.56C142.227 216.44 142.485 216.296 142.689 216.128L142.887 216.794C142.575 217.142 142.131 217.46 141.555 217.748C140.979 218.036 140.331 218.18 139.611 218.18C139.107 218.18 138.705 218.054 138.405 217.802C138.117 217.538 137.973 217.124 137.973 216.56C137.973 216.32 138.033 215.756 138.153 214.868L138.909 209.288H137.829L138.027 208.424L139.107 208.046C139.467 207.71 139.893 206.882 140.385 205.562H141.735L141.429 208.01H143.589L143.409 209.288H141.249L140.511 214.706ZM151.607 216.2C151.295 216.692 150.785 217.154 150.077 217.586C149.381 218.018 148.571 218.234 147.647 218.234C146.783 218.234 146.069 218.048 145.505 217.676C144.953 217.304 144.551 216.818 144.299 216.218C144.047 215.618 143.921 214.964 143.921 214.256C143.921 213.056 144.161 211.964 144.641 210.98C145.133 209.984 145.799 209.198 146.639 208.622C147.479 208.046 148.415 207.758 149.447 207.758C150.371 207.758 151.055 207.974 151.499 208.406C151.955 208.826 152.183 209.378 152.183 210.062C152.183 210.926 151.871 211.646 151.247 212.222C150.623 212.798 149.873 213.23 148.997 213.518C148.121 213.794 147.293 213.944 146.513 213.968C146.489 214.832 146.627 215.528 146.927 216.056C147.239 216.584 147.707 216.848 148.331 216.848C149.363 216.848 150.299 216.368 151.139 215.408L151.607 216.2ZM148.907 208.874C148.199 208.874 147.641 209.3 147.233 210.152C146.825 211.004 146.585 211.952 146.513 212.996C146.981 212.972 147.473 212.846 147.989 212.618C148.517 212.39 148.955 212.072 149.303 211.664C149.663 211.244 149.843 210.764 149.843 210.224C149.843 209.792 149.759 209.462 149.591 209.234C149.435 208.994 149.207 208.874 148.907 208.874ZM156.997 209.954C157.441 209.294 157.969 208.766 158.581 208.37C159.193 207.974 159.835 207.776 160.507 207.776C161.995 207.776 162.739 208.658 162.739 210.422C162.739 210.89 162.589 211.934 162.289 213.554C162.241 213.866 162.199 214.106 162.163 214.274C161.995 215.222 161.905 215.906 161.893 216.326V216.398C161.893 216.698 161.989 216.848 162.181 216.848C162.289 216.848 162.403 216.818 162.523 216.758C162.643 216.698 162.799 216.59 162.991 216.434L163.243 216.992C163.063 217.244 162.769 217.508 162.361 217.784C161.953 218.048 161.455 218.18 160.867 218.18C160.303 218.18 159.913 218.06 159.697 217.82C159.481 217.568 159.373 217.238 159.373 216.83C159.385 216.47 159.499 215.756 159.715 214.688L159.823 214.076C159.847 213.968 159.895 213.68 159.967 213.212C160.051 212.744 160.117 212.3 160.165 211.88C160.213 211.448 160.237 211.076 160.237 210.764C160.237 210.212 160.171 209.834 160.039 209.63C159.919 209.426 159.697 209.324 159.373 209.324C158.977 209.324 158.533 209.546 158.041 209.99C157.561 210.434 157.147 210.968 156.799 211.592L155.935 218H153.577L154.729 209.432L153.811 208.946L153.955 208.208L156.763 207.776L157.177 207.974L156.997 209.954ZM176.621 216.2C176.309 216.692 175.799 217.154 175.091 217.586C174.395 218.018 173.585 218.234 172.661 218.234C171.797 218.234 171.083 218.048 170.519 217.676C169.967 217.304 169.565 216.818 169.313 216.218C169.061 215.618 168.935 214.964 168.935 214.256C168.935 213.056 169.175 211.964 169.655 210.98C170.147 209.984 170.813 209.198 171.653 208.622C172.493 208.046 173.429 207.758 174.461 207.758C175.385 207.758 176.069 207.974 176.513 208.406C176.969 208.826 177.197 209.378 177.197 210.062C177.197 210.926 176.885 211.646 176.261 212.222C175.637 212.798 174.887 213.23 174.011 213.518C173.135 213.794 172.307 213.944 171.527 213.968C171.503 214.832 171.641 215.528 171.941 216.056C172.253 216.584 172.721 216.848 173.345 216.848C174.377 216.848 175.313 216.368 176.153 215.408L176.621 216.2ZM173.921 208.874C173.213 208.874 172.655 209.3 172.247 210.152C171.839 211.004 171.599 211.952 171.527 212.996C171.995 212.972 172.487 212.846 173.003 212.618C173.531 212.39 173.969 212.072 174.317 211.664C174.677 211.244 174.857 210.764 174.857 210.224C174.857 209.792 174.773 209.462 174.605 209.234C174.449 208.994 174.221 208.874 173.921 208.874ZM181.327 216.2C181.315 216.26 181.309 216.332 181.309 216.416C181.309 216.704 181.411 216.848 181.615 216.848C181.723 216.848 181.843 216.812 181.975 216.74C182.107 216.668 182.275 216.548 182.479 216.38L182.713 216.938C182.509 217.214 182.203 217.49 181.795 217.766C181.399 218.042 180.913 218.18 180.337 218.18C179.869 218.18 179.503 218.09 179.239 217.91C178.975 217.718 178.843 217.46 178.843 217.136L178.861 216.956C178.933 216.332 179.179 214.52 179.599 211.52L179.887 209.432L178.825 208.928L178.951 208.226L182.047 207.794L182.479 207.992L181.327 216.2ZM181.525 206.066C181.201 206.066 180.919 205.946 180.679 205.706C180.451 205.454 180.337 205.166 180.337 204.842C180.337 204.398 180.481 204.026 180.769 203.726C181.069 203.426 181.447 203.276 181.903 203.276C182.275 203.276 182.569 203.396 182.785 203.636C183.001 203.864 183.109 204.14 183.109 204.464C183.109 204.92 182.971 205.304 182.695 205.616C182.419 205.916 182.029 206.066 181.525 206.066ZM187.812 209.954C188.256 209.294 188.784 208.766 189.396 208.37C190.008 207.974 190.65 207.776 191.322 207.776C192.81 207.776 193.554 208.658 193.554 210.422C193.554 210.89 193.404 211.934 193.104 213.554C193.056 213.866 193.014 214.106 192.978 214.274C192.81 215.222 192.72 215.906 192.708 216.326V216.398C192.708 216.698 192.804 216.848 192.996 216.848C193.104 216.848 193.218 216.818 193.338 216.758C193.458 216.698 193.614 216.59 193.806 216.434L194.058 216.992C193.878 217.244 193.584 217.508 193.176 217.784C192.768 218.048 192.27 218.18 191.682 218.18C191.118 218.18 190.728 218.06 190.512 217.82C190.296 217.568 190.188 217.238 190.188 216.83C190.2 216.47 190.314 215.756 190.53 214.688L190.638 214.076C190.662 213.968 190.71 213.68 190.782 213.212C190.866 212.744 190.932 212.3 190.98 211.88C191.028 211.448 191.052 211.076 191.052 210.764C191.052 210.212 190.986 209.834 190.854 209.63C190.734 209.426 190.512 209.324 190.188 209.324C189.792 209.324 189.348 209.546 188.856 209.99C188.376 210.434 187.962 210.968 187.614 211.592L186.75 218H184.392L185.544 209.432L184.626 208.946L184.77 208.208L187.578 207.776L187.992 207.974L187.812 209.954ZM209.865 217.226C209.385 217.274 208.887 217.37 208.371 217.514C207.627 217.718 206.985 217.874 206.445 217.982C205.917 218.09 205.311 218.144 204.627 218.144C203.511 218.144 202.587 217.874 201.855 217.334C201.135 216.794 200.601 216.086 200.253 215.21C199.917 214.322 199.749 213.356 199.749 212.312C199.749 210.74 200.031 209.366 200.595 208.19C201.171 207.002 201.993 206.084 203.061 205.436C204.129 204.788 205.389 204.464 206.841 204.464C207.633 204.464 208.275 204.506 208.767 204.59C209.259 204.662 209.655 204.74 209.955 204.824C210.267 204.896 210.471 204.944 210.567 204.968L211.035 205.076L210.495 207.884H208.785L208.713 205.958C208.209 205.658 207.579 205.508 206.823 205.508C205.287 205.508 204.165 206.15 203.457 207.434C202.761 208.718 202.419 210.326 202.431 212.258C202.431 213.614 202.659 214.742 203.115 215.642C203.571 216.53 204.255 216.974 205.167 216.974C206.175 216.974 206.937 216.824 207.453 216.524L207.957 212.744L205.941 212.6L206.085 211.466H210.657L209.865 217.226ZM215.404 210.368C215.632 209.684 216.022 209.084 216.574 208.568C217.138 208.04 217.768 207.776 218.464 207.776C218.704 207.776 218.908 207.83 219.076 207.938L218.554 210.53C218.482 210.47 218.362 210.416 218.194 210.368C218.038 210.308 217.846 210.278 217.618 210.278C217.186 210.278 216.772 210.374 216.376 210.566C215.98 210.746 215.674 211.01 215.458 211.358L214.576 218H212.236L213.37 209.45L212.452 208.946L212.578 208.226L215.152 207.794L215.566 208.046L215.476 209.684L215.404 210.368ZM222.659 212.798C222.611 213.242 222.569 213.554 222.533 213.734C222.413 214.67 222.353 215.27 222.353 215.534C222.353 216.014 222.437 216.356 222.605 216.56C222.773 216.764 223.025 216.866 223.361 216.866C223.745 216.866 224.123 216.746 224.495 216.506C224.879 216.266 225.203 215.978 225.467 215.642L226.511 207.866H228.887L227.735 216.2C227.711 216.416 227.729 216.578 227.789 216.686C227.849 216.794 227.939 216.848 228.059 216.848C228.167 216.848 228.281 216.818 228.401 216.758C228.521 216.686 228.689 216.56 228.905 216.38L229.157 216.938C229.001 217.19 228.713 217.46 228.293 217.748C227.873 218.036 227.393 218.18 226.853 218.18C226.433 218.18 226.109 218.09 225.881 217.91C225.665 217.73 225.545 217.484 225.521 217.172L225.503 216.956C225.503 216.86 225.515 216.74 225.539 216.596L225.503 216.578C224.615 217.646 223.571 218.18 222.371 218.18C221.699 218.18 221.129 218 220.661 217.64C220.193 217.268 219.953 216.68 219.941 215.876C219.941 215.408 220.025 214.562 220.193 213.338C220.241 213.038 220.271 212.834 220.283 212.726L220.769 209.45L219.725 208.838L219.869 208.1L222.857 207.794L223.271 207.992L222.659 212.798ZM234.113 209.954C234.557 209.294 235.085 208.766 235.697 208.37C236.309 207.974 236.951 207.776 237.623 207.776C239.111 207.776 239.855 208.658 239.855 210.422C239.855 210.89 239.705 211.934 239.405 213.554C239.357 213.866 239.315 214.106 239.279 214.274C239.111 215.222 239.021 215.906 239.009 216.326V216.398C239.009 216.698 239.105 216.848 239.297 216.848C239.405 216.848 239.519 216.818 239.639 216.758C239.759 216.698 239.915 216.59 240.107 216.434L240.359 216.992C240.179 217.244 239.885 217.508 239.477 217.784C239.069 218.048 238.571 218.18 237.983 218.18C237.419 218.18 237.029 218.06 236.813 217.82C236.597 217.568 236.489 217.238 236.489 216.83C236.501 216.47 236.615 215.756 236.831 214.688L236.939 214.076C236.963 213.968 237.011 213.68 237.083 213.212C237.167 212.744 237.233 212.3 237.281 211.88C237.329 211.448 237.353 211.076 237.353 210.764C237.353 210.212 237.287 209.834 237.155 209.63C237.035 209.426 236.813 209.324 236.489 209.324C236.093 209.324 235.649 209.546 235.157 209.99C234.677 210.434 234.263 210.968 233.915 211.592L233.051 218H230.693L231.845 209.432L230.927 208.946L231.071 208.208L233.879 207.776L234.293 207.974L234.113 209.954ZM249.878 216.182C249.866 216.23 249.86 216.302 249.86 216.398C249.86 216.698 249.962 216.848 250.166 216.848C250.37 216.848 250.64 216.71 250.976 216.434L251.228 216.992C250.556 217.784 249.812 218.18 248.996 218.18C248.576 218.18 248.258 218.078 248.042 217.874C247.826 217.67 247.7 217.358 247.664 216.938V216.668C247.364 217.088 246.962 217.448 246.458 217.748C245.954 218.036 245.378 218.18 244.73 218.18C243.722 218.18 242.972 217.838 242.48 217.154C241.988 216.458 241.742 215.552 241.742 214.436C241.742 213.32 241.964 212.252 242.408 211.232C242.852 210.212 243.512 209.384 244.388 208.748C245.276 208.1 246.344 207.776 247.592 207.776C247.94 207.776 248.306 207.824 248.69 207.92L249.14 204.878L247.844 204.518L248.006 203.852L251.246 203.492L251.696 203.726L249.878 216.182ZM248.51 209.144C248.21 208.976 247.832 208.892 247.376 208.892C246.644 208.892 246.044 209.174 245.576 209.738C245.108 210.29 244.766 210.98 244.55 211.808C244.334 212.636 244.226 213.476 244.226 214.328C244.226 215.12 244.346 215.732 244.586 216.164C244.838 216.596 245.192 216.812 245.648 216.812C246.02 216.812 246.374 216.698 246.71 216.47C247.046 216.23 247.322 215.948 247.538 215.624L248.51 209.144ZM263.053 209.72C262.909 209.552 262.669 209.378 262.333 209.198C262.009 209.018 261.631 208.928 261.199 208.928C260.719 208.928 260.329 209.036 260.029 209.252C259.741 209.456 259.597 209.762 259.597 210.17C259.597 210.53 259.717 210.854 259.957 211.142C260.209 211.418 260.611 211.754 261.163 212.15C261.775 212.606 262.243 213.05 262.567 213.482C262.891 213.902 263.053 214.442 263.053 215.102C263.053 215.762 262.873 216.326 262.513 216.794C262.153 217.25 261.673 217.598 261.073 217.838C260.473 218.066 259.813 218.18 259.093 218.18C258.553 218.18 258.001 218.12 257.437 218C256.873 217.868 256.507 217.73 256.339 217.586L256.699 216.056C256.951 216.272 257.293 216.476 257.725 216.668C258.157 216.86 258.607 216.956 259.075 216.956C259.519 216.956 259.897 216.854 260.209 216.65C260.533 216.446 260.695 216.128 260.695 215.696C260.695 215.324 260.557 214.988 260.281 214.688C260.005 214.388 259.591 214.046 259.039 213.662C258.535 213.314 258.109 212.906 257.761 212.438C257.425 211.958 257.257 211.382 257.257 210.71C257.257 210.134 257.419 209.624 257.743 209.18C258.079 208.736 258.535 208.394 259.111 208.154C259.699 207.902 260.371 207.776 261.127 207.776C261.571 207.776 262.021 207.812 262.477 207.884C262.933 207.956 263.239 208.034 263.395 208.118L263.053 209.72ZM267.513 216.2C267.501 216.26 267.495 216.332 267.495 216.416C267.495 216.704 267.597 216.848 267.801 216.848C267.909 216.848 268.029 216.812 268.161 216.74C268.293 216.668 268.461 216.548 268.665 216.38L268.899 216.938C268.695 217.214 268.389 217.49 267.981 217.766C267.585 218.042 267.099 218.18 266.523 218.18C266.055 218.18 265.689 218.09 265.425 217.91C265.161 217.718 265.029 217.46 265.029 217.136L265.047 216.956C265.119 216.332 265.365 214.52 265.785 211.52L266.073 209.432L265.011 208.928L265.137 208.226L268.233 207.794L268.665 207.992L267.513 216.2ZM267.711 206.066C267.387 206.066 267.105 205.946 266.865 205.706C266.637 205.454 266.523 205.166 266.523 204.842C266.523 204.398 266.667 204.026 266.955 203.726C267.255 203.426 267.633 203.276 268.089 203.276C268.461 203.276 268.755 203.396 268.971 203.636C269.187 203.864 269.295 204.14 269.295 204.464C269.295 204.92 269.157 205.304 268.881 205.616C268.605 205.916 268.215 206.066 267.711 206.066ZM273.997 209.954C274.441 209.294 274.969 208.766 275.581 208.37C276.193 207.974 276.835 207.776 277.507 207.776C278.995 207.776 279.739 208.658 279.739 210.422C279.739 210.89 279.589 211.934 279.289 213.554C279.241 213.866 279.199 214.106 279.163 214.274C278.995 215.222 278.905 215.906 278.893 216.326V216.398C278.893 216.698 278.989 216.848 279.181 216.848C279.289 216.848 279.403 216.818 279.523 216.758C279.643 216.698 279.799 216.59 279.991 216.434L280.243 216.992C280.063 217.244 279.769 217.508 279.361 217.784C278.953 218.048 278.455 218.18 277.867 218.18C277.303 218.18 276.913 218.06 276.697 217.82C276.481 217.568 276.373 217.238 276.373 216.83C276.385 216.47 276.499 215.756 276.715 214.688L276.823 214.076C276.847 213.968 276.895 213.68 276.967 213.212C277.051 212.744 277.117 212.3 277.165 211.88C277.213 211.448 277.237 211.076 277.237 210.764C277.237 210.212 277.171 209.834 277.039 209.63C276.919 209.426 276.697 209.324 276.373 209.324C275.977 209.324 275.533 209.546 275.041 209.99C274.561 210.434 274.147 210.968 273.799 211.592L272.935 218H270.577L271.729 209.432L270.811 208.946L270.955 208.208L273.763 207.776L274.177 207.974L273.997 209.954ZM289.763 216.182C289.751 216.23 289.745 216.302 289.745 216.398C289.745 216.698 289.847 216.848 290.051 216.848C290.255 216.848 290.525 216.71 290.861 216.434L291.113 216.992C290.441 217.784 289.697 218.18 288.881 218.18C288.461 218.18 288.143 218.078 287.927 217.874C287.711 217.67 287.585 217.358 287.549 216.938V216.668C287.249 217.088 286.847 217.448 286.343 217.748C285.839 218.036 285.263 218.18 284.615 218.18C283.607 218.18 282.857 217.838 282.365 217.154C281.873 216.458 281.627 215.552 281.627 214.436C281.627 213.32 281.849 212.252 282.293 211.232C282.737 210.212 283.397 209.384 284.273 208.748C285.161 208.1 286.229 207.776 287.477 207.776C287.825 207.776 288.191 207.824 288.575 207.92L289.025 204.878L287.729 204.518L287.891 203.852L291.131 203.492L291.581 203.726L289.763 216.182ZM288.395 209.144C288.095 208.976 287.717 208.892 287.261 208.892C286.529 208.892 285.929 209.174 285.461 209.738C284.993 210.29 284.651 210.98 284.435 211.808C284.219 212.636 284.111 213.476 284.111 214.328C284.111 215.12 284.231 215.732 284.471 216.164C284.723 216.596 285.077 216.812 285.533 216.812C285.905 216.812 286.259 216.698 286.595 216.47C286.931 216.23 287.207 215.948 287.423 215.624L288.395 209.144ZM293.842 215.498C294.442 215.666 294.88 215.996 295.156 216.488C295.432 216.968 295.57 217.508 295.57 218.108C295.57 219.068 295.264 219.938 294.652 220.718C294.04 221.51 293.23 222.11 292.222 222.518L291.718 221.816L291.754 221.636C292.246 221.408 292.672 221.018 293.032 220.466C293.404 219.914 293.59 219.332 293.59 218.72C293.59 218.312 293.5 217.958 293.32 217.658C293.14 217.346 292.918 217.184 292.654 217.172L292.69 216.686L293.842 215.498ZM20.1852 226.726L18.2772 241H15.9012L17.6292 227.878L16.5312 227.518L16.6752 226.852L19.7352 226.492L20.1852 226.726ZM19.5192 235.366C20.0472 235.066 20.4972 234.772 20.8692 234.484C21.2412 234.196 21.6132 233.806 21.9852 233.314C22.2852 232.894 22.4472 232.414 22.4712 231.874C22.4832 231.502 22.6152 231.232 22.8672 231.064C23.1312 230.896 23.4192 230.812 23.7312 230.812C24.0432 230.812 24.2892 230.908 24.4692 231.1C24.6492 231.292 24.7392 231.532 24.7392 231.82C24.7512 232.252 24.6012 232.69 24.2892 233.134C23.9652 233.554 23.5152 233.956 22.9392 234.34C22.3752 234.724 21.7872 235.06 21.1752 235.348L23.1192 238.84C23.2632 239.092 23.4192 239.29 23.5872 239.434C23.7672 239.566 23.9292 239.632 24.0732 239.632C24.2052 239.632 24.3552 239.602 24.5232 239.542C24.7032 239.47 24.8712 239.368 25.0272 239.236L25.3152 239.812C25.1112 240.112 24.7692 240.412 24.2892 240.712C23.8092 241.012 23.2872 241.162 22.7232 241.162C22.3032 241.162 21.9612 241.078 21.6972 240.91C21.4452 240.742 21.2412 240.49 21.0852 240.154L19.0872 235.636L19.5192 235.366ZM33.4117 239.2C33.0997 239.692 32.5897 240.154 31.8817 240.586C31.1857 241.018 30.3757 241.234 29.4517 241.234C28.5877 241.234 27.8737 241.048 27.3097 240.676C26.7577 240.304 26.3557 239.818 26.1037 239.218C25.8517 238.618 25.7257 237.964 25.7257 237.256C25.7257 236.056 25.9657 234.964 26.4457 233.98C26.9377 232.984 27.6037 232.198 28.4437 231.622C29.2837 231.046 30.2197 230.758 31.2517 230.758C32.1757 230.758 32.8597 230.974 33.3037 231.406C33.7597 231.826 33.9877 232.378 33.9877 233.062C33.9877 233.926 33.6757 234.646 33.0517 235.222C32.4277 235.798 31.6777 236.23 30.8017 236.518C29.9257 236.794 29.0977 236.944 28.3177 236.968C28.2937 237.832 28.4317 238.528 28.7317 239.056C29.0437 239.584 29.5117 239.848 30.1357 239.848C31.1677 239.848 32.1037 239.368 32.9437 238.408L33.4117 239.2ZM30.7117 231.874C30.0037 231.874 29.4457 232.3 29.0377 233.152C28.6297 234.004 28.3897 234.952 28.3177 235.996C28.7857 235.972 29.2777 235.846 29.7937 235.618C30.3217 235.39 30.7597 235.072 31.1077 234.664C31.4677 234.244 31.6477 233.764 31.6477 233.224C31.6477 232.792 31.5637 232.462 31.3957 232.234C31.2397 231.994 31.0117 231.874 30.7117 231.874ZM38.118 239.2C38.106 239.26 38.1 239.332 38.1 239.416C38.1 239.704 38.202 239.848 38.406 239.848C38.514 239.848 38.634 239.812 38.766 239.74C38.898 239.668 39.066 239.548 39.27 239.38L39.504 239.938C39.3 240.214 38.994 240.49 38.586 240.766C38.19 241.042 37.704 241.18 37.128 241.18C36.66 241.18 36.294 241.09 36.03 240.91C35.766 240.718 35.634 240.46 35.634 240.136L35.652 239.956C35.724 239.332 35.97 237.52 36.39 234.52L36.678 232.432L35.616 231.928L35.742 231.226L38.838 230.794L39.27 230.992L38.118 239.2ZM38.316 229.066C37.992 229.066 37.71 228.946 37.47 228.706C37.242 228.454 37.128 228.166 37.128 227.842C37.128 227.398 37.272 227.026 37.56 226.726C37.86 226.426 38.238 226.276 38.694 226.276C39.066 226.276 39.36 226.396 39.576 226.636C39.792 226.864 39.9 227.14 39.9 227.464C39.9 227.92 39.762 228.304 39.486 228.616C39.21 228.916 38.82 229.066 38.316 229.066ZM44.6028 232.954C45.0468 232.294 45.5748 231.766 46.1868 231.37C46.7988 230.974 47.4408 230.776 48.1128 230.776C49.6008 230.776 50.3448 231.658 50.3448 233.422C50.3448 233.89 50.1948 234.934 49.8948 236.554C49.8468 236.866 49.8048 237.106 49.7688 237.274C49.6008 238.222 49.5108 238.906 49.4988 239.326V239.398C49.4988 239.698 49.5948 239.848 49.7868 239.848C49.8948 239.848 50.0088 239.818 50.1288 239.758C50.2488 239.698 50.4048 239.59 50.5968 239.434L50.8488 239.992C50.6688 240.244 50.3748 240.508 49.9668 240.784C49.5588 241.048 49.0608 241.18 48.4728 241.18C47.9088 241.18 47.5188 241.06 47.3028 240.82C47.0868 240.568 46.9788 240.238 46.9788 239.83C46.9908 239.47 47.1048 238.756 47.3208 237.688L47.4288 237.076C47.4528 236.968 47.5008 236.68 47.5728 236.212C47.6568 235.744 47.7228 235.3 47.7708 234.88C47.8188 234.448 47.8428 234.076 47.8428 233.764C47.8428 233.212 47.7768 232.834 47.6448 232.63C47.5248 232.426 47.3028 232.324 46.9788 232.324C46.5828 232.324 46.1388 232.546 45.6468 232.99C45.1668 233.434 44.7528 233.968 44.4048 234.592L43.5408 241H41.1828L42.3348 232.432L41.4168 231.946L41.5608 231.208L44.3688 230.776L44.7828 230.974L44.6028 232.954ZM59.9547 239.2C59.6427 239.692 59.1327 240.154 58.4247 240.586C57.7287 241.018 56.9187 241.234 55.9947 241.234C55.1307 241.234 54.4167 241.048 53.8527 240.676C53.3007 240.304 52.8987 239.818 52.6467 239.218C52.3947 238.618 52.2687 237.964 52.2687 237.256C52.2687 236.056 52.5087 234.964 52.9887 233.98C53.4807 232.984 54.1467 232.198 54.9867 231.622C55.8267 231.046 56.7627 230.758 57.7947 230.758C58.7187 230.758 59.4027 230.974 59.8467 231.406C60.3027 231.826 60.5307 232.378 60.5307 233.062C60.5307 233.926 60.2187 234.646 59.5947 235.222C58.9707 235.798 58.2207 236.23 57.3447 236.518C56.4687 236.794 55.6407 236.944 54.8607 236.968C54.8367 237.832 54.9747 238.528 55.2747 239.056C55.5867 239.584 56.0547 239.848 56.6787 239.848C57.7107 239.848 58.6467 239.368 59.4867 238.408L59.9547 239.2ZM57.2547 231.874C56.5467 231.874 55.9887 232.3 55.5807 233.152C55.1727 234.004 54.9327 234.952 54.8607 235.996C55.3287 235.972 55.8207 235.846 56.3367 235.618C56.8647 235.39 57.3027 235.072 57.6507 234.664C58.0107 234.244 58.1907 233.764 58.1907 233.224C58.1907 232.792 58.1067 232.462 57.9387 232.234C57.7827 231.994 57.5547 231.874 57.2547 231.874ZM66.5565 232.702C66.5085 232.51 66.4545 232.378 66.3945 232.306C66.3345 232.222 66.2565 232.18 66.1605 232.18C66.0405 232.18 65.9325 232.21 65.8365 232.27C65.7525 232.318 65.6925 232.354 65.6565 232.378L65.4045 231.766C65.5365 231.586 65.8005 231.376 66.1965 231.136C66.5925 230.896 67.0185 230.776 67.4745 230.776C67.9545 230.776 68.3025 230.878 68.5185 231.082C68.7465 231.274 68.8965 231.574 68.9685 231.982L69.6705 237.508L69.8685 239.308L70.6065 237.13L72.7845 230.848H74.9445L75.7725 237.724L75.9165 239.254L76.5825 238.246C77.0745 237.502 77.4765 236.734 77.7885 235.942C78.1005 235.138 78.2625 234.358 78.2745 233.602C78.2745 233.386 78.2265 233.086 78.1305 232.702C78.0345 232.342 77.9865 232.078 77.9865 231.91C77.9865 231.574 78.0945 231.304 78.3105 231.1C78.5265 230.884 78.8145 230.776 79.1745 230.776C79.6425 230.776 79.9845 230.95 80.2005 231.298C80.4165 231.634 80.5245 232.078 80.5245 232.63C80.5365 233.41 80.1645 234.472 79.4085 235.816C78.6645 237.148 77.8905 238.312 77.0865 239.308L75.7725 241.072L74.0445 241.162L73.5765 237.976L73.2705 235.006L73.1625 233.728L72.8025 235.024L71.6325 237.724L70.2465 241.054L68.2665 241.18L67.6185 237.976L66.5565 232.702ZM88.941 239.2C88.629 239.692 88.119 240.154 87.411 240.586C86.715 241.018 85.905 241.234 84.981 241.234C84.117 241.234 83.403 241.048 82.839 240.676C82.287 240.304 81.885 239.818 81.633 239.218C81.381 238.618 81.255 237.964 81.255 237.256C81.255 236.056 81.495 234.964 81.975 233.98C82.467 232.984 83.133 232.198 83.973 231.622C84.813 231.046 85.749 230.758 86.781 230.758C87.705 230.758 88.389 230.974 88.833 231.406C89.289 231.826 89.517 232.378 89.517 233.062C89.517 233.926 89.205 234.646 88.581 235.222C87.957 235.798 87.207 236.23 86.331 236.518C85.455 236.794 84.627 236.944 83.847 236.968C83.823 237.832 83.961 238.528 84.261 239.056C84.573 239.584 85.041 239.848 85.665 239.848C86.697 239.848 87.633 239.368 88.473 238.408L88.941 239.2ZM86.241 231.874C85.533 231.874 84.975 232.3 84.567 233.152C84.159 234.004 83.919 234.952 83.847 235.996C84.315 235.972 84.807 235.846 85.323 235.618C85.851 235.39 86.289 235.072 86.637 234.664C86.997 234.244 87.177 233.764 87.177 233.224C87.177 232.792 87.093 232.462 86.925 232.234C86.769 231.994 86.541 231.874 86.241 231.874ZM93.6473 239.2C93.6353 239.26 93.6293 239.332 93.6293 239.416C93.6293 239.704 93.7313 239.848 93.9353 239.848C94.0433 239.848 94.1633 239.812 94.2953 239.74C94.4273 239.668 94.5953 239.548 94.7993 239.38L95.0333 239.938C94.8293 240.214 94.5233 240.49 94.1153 240.766C93.7193 241.042 93.2333 241.18 92.6573 241.18C92.1893 241.18 91.8233 241.09 91.5593 240.91C91.2953 240.718 91.1633 240.46 91.1633 240.136L91.1813 239.956C91.2533 239.332 91.4993 237.52 91.9193 234.52L92.2073 232.432L91.1453 231.928L91.2713 231.226L94.3673 230.794L94.7993 230.992L93.6473 239.2ZM93.8453 229.066C93.5213 229.066 93.2393 228.946 92.9993 228.706C92.7713 228.454 92.6573 228.166 92.6573 227.842C92.6573 227.398 92.8013 227.026 93.0893 226.726C93.3893 226.426 93.7673 226.276 94.2233 226.276C94.5953 226.276 94.8893 226.396 95.1053 226.636C95.3213 226.864 95.4293 227.14 95.4293 227.464C95.4293 227.92 95.2913 228.304 95.0153 228.616C94.7393 228.916 94.3493 229.066 93.8453 229.066ZM99.4481 237.706C99.3641 238.402 99.3221 238.822 99.3221 238.966C99.3221 239.242 99.3761 239.44 99.4841 239.56C99.5921 239.668 99.7781 239.722 100.042 239.722C100.282 239.722 100.552 239.668 100.852 239.56C101.164 239.44 101.422 239.296 101.626 239.128L101.824 239.794C101.512 240.142 101.068 240.46 100.492 240.748C99.9161 241.036 99.2681 241.18 98.5481 241.18C98.0441 241.18 97.6421 241.054 97.3421 240.802C97.0541 240.538 96.9101 240.124 96.9101 239.56C96.9101 239.32 96.9701 238.756 97.0901 237.868L97.8461 232.288H96.7661L96.9641 231.424L98.0441 231.046C98.4041 230.71 98.8301 229.882 99.3221 228.562H100.672L100.366 231.01H102.526L102.346 232.288H100.186L99.4481 237.706ZM110.545 239.2C110.233 239.692 109.723 240.154 109.015 240.586C108.319 241.018 107.509 241.234 106.585 241.234C105.721 241.234 105.007 241.048 104.443 240.676C103.891 240.304 103.489 239.818 103.237 239.218C102.985 238.618 102.859 237.964 102.859 237.256C102.859 236.056 103.099 234.964 103.579 233.98C104.071 232.984 104.737 232.198 105.577 231.622C106.417 231.046 107.353 230.758 108.385 230.758C109.309 230.758 109.993 230.974 110.437 231.406C110.893 231.826 111.121 232.378 111.121 233.062C111.121 233.926 110.809 234.646 110.185 235.222C109.561 235.798 108.811 236.23 107.935 236.518C107.059 236.794 106.231 236.944 105.451 236.968C105.427 237.832 105.565 238.528 105.865 239.056C106.177 239.584 106.645 239.848 107.269 239.848C108.301 239.848 109.237 239.368 110.077 238.408L110.545 239.2ZM107.845 231.874C107.137 231.874 106.579 232.3 106.171 233.152C105.763 234.004 105.523 234.952 105.451 235.996C105.919 235.972 106.411 235.846 106.927 235.618C107.455 235.39 107.893 235.072 108.241 234.664C108.601 234.244 108.781 233.764 108.781 233.224C108.781 232.792 108.697 232.462 108.529 232.234C108.373 231.994 108.145 231.874 107.845 231.874ZM115.701 233.368C115.929 232.684 116.319 232.084 116.871 231.568C117.435 231.04 118.065 230.776 118.761 230.776C119.001 230.776 119.205 230.83 119.373 230.938L118.851 233.53C118.779 233.47 118.659 233.416 118.491 233.368C118.335 233.308 118.143 233.278 117.915 233.278C117.483 233.278 117.069 233.374 116.673 233.566C116.277 233.746 115.971 234.01 115.755 234.358L114.873 241H112.533L113.667 232.45L112.749 231.946L112.875 231.226L115.449 230.794L115.863 231.046L115.773 232.684L115.701 233.368ZM127.384 239.2C127.072 239.692 126.562 240.154 125.854 240.586C125.158 241.018 124.348 241.234 123.424 241.234C122.56 241.234 121.846 241.048 121.282 240.676C120.73 240.304 120.328 239.818 120.076 239.218C119.824 238.618 119.698 237.964 119.698 237.256C119.698 236.056 119.938 234.964 120.418 233.98C120.91 232.984 121.576 232.198 122.416 231.622C123.256 231.046 124.192 230.758 125.224 230.758C126.148 230.758 126.832 230.974 127.276 231.406C127.732 231.826 127.96 232.378 127.96 233.062C127.96 233.926 127.648 234.646 127.024 235.222C126.4 235.798 125.65 236.23 124.774 236.518C123.898 236.794 123.07 236.944 122.29 236.968C122.266 237.832 122.404 238.528 122.704 239.056C123.016 239.584 123.484 239.848 124.108 239.848C125.14 239.848 126.076 239.368 126.916 238.408L127.384 239.2ZM124.684 231.874C123.976 231.874 123.418 232.3 123.01 233.152C122.602 234.004 122.362 234.952 122.29 235.996C122.758 235.972 123.25 235.846 123.766 235.618C124.294 235.39 124.732 235.072 125.08 234.664C125.44 234.244 125.62 233.764 125.62 233.224C125.62 232.792 125.536 232.462 125.368 232.234C125.212 231.994 124.984 231.874 124.684 231.874ZM132.775 232.954C133.219 232.294 133.747 231.766 134.359 231.37C134.971 230.974 135.613 230.776 136.285 230.776C137.773 230.776 138.517 231.658 138.517 233.422C138.517 233.89 138.367 234.934 138.067 236.554C138.019 236.866 137.977 237.106 137.941 237.274C137.773 238.222 137.683 238.906 137.671 239.326V239.398C137.671 239.698 137.767 239.848 137.959 239.848C138.067 239.848 138.181 239.818 138.301 239.758C138.421 239.698 138.577 239.59 138.769 239.434L139.021 239.992C138.841 240.244 138.547 240.508 138.139 240.784C137.731 241.048 137.233 241.18 136.645 241.18C136.081 241.18 135.691 241.06 135.475 240.82C135.259 240.568 135.151 240.238 135.151 239.83C135.163 239.47 135.277 238.756 135.493 237.688L135.601 237.076C135.625 236.968 135.673 236.68 135.745 236.212C135.829 235.744 135.895 235.3 135.943 234.88C135.991 234.448 136.015 234.076 136.015 233.764C136.015 233.212 135.949 232.834 135.817 232.63C135.697 232.426 135.475 232.324 135.151 232.324C134.755 232.324 134.311 232.546 133.819 232.99C133.339 233.434 132.925 233.968 132.577 234.592L131.713 241H129.355L130.507 232.432L129.589 231.946L129.733 231.208L132.541 230.776L132.955 230.974L132.775 232.954ZM151.786 233.188C152.014 233.56 152.416 234.316 152.992 235.456C153.076 235.624 153.208 235.888 153.388 236.248C153.58 236.608 153.73 236.884 153.838 237.076L154.054 237.472C154.498 238.288 154.828 238.87 155.044 239.218C155.26 239.566 155.452 239.788 155.62 239.884L156.7 240.154L156.61 241H153.316C153.088 240.976 152.872 240.796 152.668 240.46C152.464 240.124 152.182 239.56 151.822 238.768C151.81 238.756 151.594 238.258 151.174 237.274C150.742 236.242 150.388 235.444 150.112 234.88L148.366 236.68L147.952 239.92L149.428 240.172L149.338 241H144.028L144.136 240.172L145.414 239.92L146.872 228.724L145.63 228.508L145.72 227.626H150.994L150.886 228.508L149.392 228.724L148.582 234.898L154.306 228.724L153.1 228.49L153.19 227.626H157.348L157.24 228.508L156.142 228.706L151.786 233.188ZM160.374 239.2C160.362 239.26 160.356 239.332 160.356 239.416C160.356 239.704 160.458 239.848 160.662 239.848C160.77 239.848 160.89 239.812 161.022 239.74C161.154 239.668 161.322 239.548 161.526 239.38L161.76 239.938C161.556 240.214 161.25 240.49 160.842 240.766C160.446 241.042 159.96 241.18 159.384 241.18C158.916 241.18 158.55 241.09 158.286 240.91C158.022 240.718 157.89 240.46 157.89 240.136L157.908 239.956C157.98 239.332 158.226 237.52 158.646 234.52L158.934 232.432L157.872 231.928L157.998 231.226L161.094 230.794L161.526 230.992L160.374 239.2ZM160.572 229.066C160.248 229.066 159.966 228.946 159.726 228.706C159.498 228.454 159.384 228.166 159.384 227.842C159.384 227.398 159.528 227.026 159.816 226.726C160.116 226.426 160.494 226.276 160.95 226.276C161.322 226.276 161.616 226.396 161.832 226.636C162.048 226.864 162.156 227.14 162.156 227.464C162.156 227.92 162.018 228.304 161.742 228.616C161.466 228.916 161.076 229.066 160.572 229.066ZM166.859 232.954C167.303 232.294 167.831 231.766 168.443 231.37C169.055 230.974 169.697 230.776 170.369 230.776C171.857 230.776 172.601 231.658 172.601 233.422C172.601 233.89 172.451 234.934 172.151 236.554C172.103 236.866 172.061 237.106 172.025 237.274C171.857 238.222 171.767 238.906 171.755 239.326V239.398C171.755 239.698 171.851 239.848 172.043 239.848C172.151 239.848 172.265 239.818 172.385 239.758C172.505 239.698 172.661 239.59 172.853 239.434L173.105 239.992C172.925 240.244 172.631 240.508 172.223 240.784C171.815 241.048 171.317 241.18 170.729 241.18C170.165 241.18 169.775 241.06 169.559 240.82C169.343 240.568 169.235 240.238 169.235 239.83C169.247 239.47 169.361 238.756 169.577 237.688L169.685 237.076C169.709 236.968 169.757 236.68 169.829 236.212C169.913 235.744 169.979 235.3 170.027 234.88C170.075 234.448 170.099 234.076 170.099 233.764C170.099 233.212 170.033 232.834 169.901 232.63C169.781 232.426 169.559 232.324 169.235 232.324C168.839 232.324 168.395 232.546 167.903 232.99C167.423 233.434 167.009 233.968 166.661 234.592L165.797 241H163.439L164.591 232.432L163.673 231.946L163.817 231.208L166.625 230.776L167.039 230.974L166.859 232.954ZM182.625 239.182C182.613 239.23 182.607 239.302 182.607 239.398C182.607 239.698 182.709 239.848 182.913 239.848C183.117 239.848 183.387 239.71 183.723 239.434L183.975 239.992C183.303 240.784 182.559 241.18 181.743 241.18C181.323 241.18 181.005 241.078 180.789 240.874C180.573 240.67 180.447 240.358 180.411 239.938V239.668C180.111 240.088 179.709 240.448 179.205 240.748C178.701 241.036 178.125 241.18 177.477 241.18C176.469 241.18 175.719 240.838 175.227 240.154C174.735 239.458 174.489 238.552 174.489 237.436C174.489 236.32 174.711 235.252 175.155 234.232C175.599 233.212 176.259 232.384 177.135 231.748C178.023 231.1 179.091 230.776 180.339 230.776C180.687 230.776 181.053 230.824 181.437 230.92L181.887 227.878L180.591 227.518L180.753 226.852L183.993 226.492L184.443 226.726L182.625 239.182ZM181.257 232.144C180.957 231.976 180.579 231.892 180.123 231.892C179.391 231.892 178.791 232.174 178.323 232.738C177.855 233.29 177.513 233.98 177.297 234.808C177.081 235.636 176.973 236.476 176.973 237.328C176.973 238.12 177.093 238.732 177.333 239.164C177.585 239.596 177.939 239.812 178.395 239.812C178.767 239.812 179.121 239.698 179.457 239.47C179.793 239.23 180.069 238.948 180.285 238.624L181.257 232.144ZM193.004 239.2C192.692 239.692 192.182 240.154 191.474 240.586C190.778 241.018 189.968 241.234 189.044 241.234C188.18 241.234 187.466 241.048 186.902 240.676C186.35 240.304 185.948 239.818 185.696 239.218C185.444 238.618 185.318 237.964 185.318 237.256C185.318 236.056 185.558 234.964 186.038 233.98C186.53 232.984 187.196 232.198 188.036 231.622C188.876 231.046 189.812 230.758 190.844 230.758C191.768 230.758 192.452 230.974 192.896 231.406C193.352 231.826 193.58 232.378 193.58 233.062C193.58 233.926 193.268 234.646 192.644 235.222C192.02 235.798 191.27 236.23 190.394 236.518C189.518 236.794 188.69 236.944 187.91 236.968C187.886 237.832 188.024 238.528 188.324 239.056C188.636 239.584 189.104 239.848 189.728 239.848C190.76 239.848 191.696 239.368 192.536 238.408L193.004 239.2ZM190.304 231.874C189.596 231.874 189.038 232.3 188.63 233.152C188.222 234.004 187.982 234.952 187.91 235.996C188.378 235.972 188.87 235.846 189.386 235.618C189.914 235.39 190.352 235.072 190.7 234.664C191.06 234.244 191.24 233.764 191.24 233.224C191.24 232.792 191.156 232.462 190.988 232.234C190.832 231.994 190.604 231.874 190.304 231.874ZM198.16 233.368C198.388 232.684 198.778 232.084 199.33 231.568C199.894 231.04 200.524 230.776 201.22 230.776C201.46 230.776 201.664 230.83 201.832 230.938L201.31 233.53C201.238 233.47 201.118 233.416 200.95 233.368C200.794 233.308 200.602 233.278 200.374 233.278C199.942 233.278 199.528 233.374 199.132 233.566C198.736 233.746 198.43 234.01 198.214 234.358L197.332 241H194.992L196.126 232.45L195.208 231.946L195.334 231.226L197.908 230.794L198.322 231.046L198.232 232.684L198.16 233.368ZM210.965 232.864C209.993 232.84 209.375 232.834 209.111 232.846C208.715 232.858 208.391 233.008 208.139 233.296C207.899 233.572 207.767 233.914 207.743 234.322H207.023C206.999 234.058 206.987 233.788 206.987 233.512C206.987 232.924 207.035 232.384 207.131 231.892C207.239 231.4 207.413 231.094 207.653 230.974C207.857 230.854 208.139 230.794 208.499 230.794C209.135 230.794 210.071 230.848 211.307 230.956C211.583 230.968 211.973 230.992 212.477 231.028C212.993 231.064 213.371 231.082 213.611 231.082C214.019 231.082 214.337 230.986 214.565 230.794L215.015 231.28L209.777 237.868L208.445 239.11L211.685 239.146C212.153 239.146 212.519 239.008 212.783 238.732C213.047 238.444 213.209 238.066 213.269 237.598H213.971C213.983 237.718 213.989 237.928 213.989 238.228C213.989 238.864 213.935 239.452 213.827 239.992C213.731 240.52 213.557 240.862 213.305 241.018C213.149 241.138 212.849 241.198 212.405 241.198C211.721 241.198 210.731 241.144 209.435 241.036C209.135 241.024 208.715 241 208.175 240.964C207.647 240.928 207.269 240.91 207.041 240.91C206.885 240.91 206.717 240.934 206.537 240.982C206.369 241.03 206.231 241.102 206.123 241.198L205.601 240.694L211.361 233.656L212.333 232.882L210.965 232.864ZM218.652 235.798C218.604 236.242 218.562 236.554 218.526 236.734C218.406 237.67 218.346 238.27 218.346 238.534C218.346 239.014 218.43 239.356 218.598 239.56C218.766 239.764 219.018 239.866 219.354 239.866C219.738 239.866 220.116 239.746 220.488 239.506C220.872 239.266 221.196 238.978 221.46 238.642L222.504 230.866H224.88L223.728 239.2C223.704 239.416 223.722 239.578 223.782 239.686C223.842 239.794 223.932 239.848 224.052 239.848C224.16 239.848 224.274 239.818 224.394 239.758C224.514 239.686 224.682 239.56 224.898 239.38L225.15 239.938C224.994 240.19 224.706 240.46 224.286 240.748C223.866 241.036 223.386 241.18 222.846 241.18C222.426 241.18 222.102 241.09 221.874 240.91C221.658 240.73 221.538 240.484 221.514 240.172L221.496 239.956C221.496 239.86 221.508 239.74 221.532 239.596L221.496 239.578C220.608 240.646 219.564 241.18 218.364 241.18C217.692 241.18 217.122 241 216.654 240.64C216.186 240.268 215.946 239.68 215.934 238.876C215.934 238.408 216.018 237.562 216.186 236.338C216.234 236.038 216.264 235.834 216.276 235.726L216.762 232.45L215.718 231.838L215.862 231.1L218.85 230.794L219.264 230.992L218.652 235.798ZM234.232 233.08C234.676 232.384 235.204 231.826 235.816 231.406C236.44 230.986 237.1 230.776 237.796 230.776C238.504 230.776 239.05 230.98 239.434 231.388C239.83 231.796 240.028 232.474 240.028 233.422C240.028 233.794 239.956 234.382 239.812 235.186C239.68 235.99 239.608 236.446 239.596 236.554L239.488 237.13C239.416 237.526 239.344 237.934 239.272 238.354C239.212 238.774 239.182 239.116 239.182 239.38C239.182 239.704 239.284 239.866 239.488 239.866C239.596 239.866 239.71 239.836 239.83 239.776C239.95 239.704 240.118 239.584 240.334 239.416L240.568 239.974C240.412 240.214 240.124 240.478 239.704 240.766C239.284 241.042 238.78 241.18 238.192 241.18C237.604 241.18 237.202 241.066 236.986 240.838C236.77 240.598 236.662 240.262 236.662 239.83C236.674 239.47 236.788 238.756 237.004 237.688L237.112 237.076C237.136 236.968 237.184 236.68 237.256 236.212C237.34 235.744 237.406 235.3 237.454 234.88C237.502 234.448 237.526 234.076 237.526 233.764C237.526 233.212 237.46 232.834 237.328 232.63C237.196 232.426 236.974 232.324 236.662 232.324C236.254 232.324 235.798 232.558 235.294 233.026C234.802 233.482 234.382 234.04 234.034 234.7L233.242 241H230.848L232.486 227.878L231.406 227.518L231.532 226.852L234.61 226.492L235.042 226.726L234.232 233.08ZM249.875 239.164C249.863 239.212 249.857 239.284 249.857 239.38C249.857 239.692 249.977 239.848 250.217 239.848C250.409 239.848 250.679 239.704 251.027 239.416L251.279 239.974C251.123 240.214 250.841 240.478 250.433 240.766C250.037 241.042 249.575 241.18 249.047 241.18C248.639 241.18 248.315 241.09 248.075 240.91C247.835 240.73 247.709 240.454 247.697 240.082L247.733 239.776C247.397 240.172 246.989 240.508 246.509 240.784C246.029 241.048 245.501 241.18 244.925 241.18C243.917 241.18 243.161 240.838 242.657 240.154C242.165 239.458 241.919 238.552 241.919 237.436C241.919 236.332 242.147 235.27 242.603 234.25C243.071 233.23 243.749 232.396 244.637 231.748C245.525 231.1 246.581 230.776 247.805 230.776C248.117 230.776 248.453 230.812 248.813 230.884C249.185 230.956 249.509 231.04 249.785 231.136L251.027 230.776L249.875 239.164ZM248.489 232.054C248.261 231.946 247.967 231.892 247.607 231.892C246.887 231.892 246.287 232.168 245.807 232.72C245.327 233.26 244.973 233.95 244.745 234.79C244.529 235.618 244.421 236.458 244.421 237.31C244.421 238.102 244.541 238.72 244.781 239.164C245.021 239.596 245.375 239.812 245.843 239.812C246.143 239.812 246.443 239.71 246.743 239.506C247.055 239.302 247.331 239.062 247.571 238.786L248.489 232.054ZM256.083 231.946C256.407 231.61 256.791 231.334 257.235 231.118C257.691 230.89 258.183 230.776 258.711 230.776C259.707 230.776 260.457 231.112 260.961 231.784C261.465 232.444 261.717 233.38 261.717 234.592C261.717 235.732 261.477 236.806 260.997 237.814C260.529 238.822 259.851 239.638 258.963 240.262C258.075 240.874 257.043 241.18 255.867 241.18C255.531 241.18 255.165 241.138 254.769 241.054C254.385 240.97 254.037 240.874 253.725 240.766L252.627 241.126L254.337 227.86L253.437 227.5L253.599 226.816L256.335 226.492L256.767 226.726L256.083 231.946ZM255.039 239.866C255.279 239.998 255.627 240.064 256.083 240.064C256.791 240.064 257.379 239.8 257.847 239.272C258.327 238.744 258.681 238.066 258.909 237.238C259.137 236.398 259.251 235.528 259.251 234.628C259.251 233.896 259.125 233.302 258.873 232.846C258.621 232.378 258.261 232.144 257.793 232.144C257.421 232.144 257.073 232.258 256.749 232.486C256.425 232.702 256.143 232.966 255.903 233.278L255.039 239.866ZM270.681 239.2C270.369 239.692 269.859 240.154 269.151 240.586C268.455 241.018 267.645 241.234 266.721 241.234C265.857 241.234 265.143 241.048 264.579 240.676C264.027 240.304 263.625 239.818 263.373 239.218C263.121 238.618 262.995 237.964 262.995 237.256C262.995 236.056 263.235 234.964 263.715 233.98C264.207 232.984 264.873 232.198 265.713 231.622C266.553 231.046 267.489 230.758 268.521 230.758C269.445 230.758 270.129 230.974 270.573 231.406C271.029 231.826 271.257 232.378 271.257 233.062C271.257 233.926 270.945 234.646 270.321 235.222C269.697 235.798 268.947 236.23 268.071 236.518C267.195 236.794 266.367 236.944 265.587 236.968C265.563 237.832 265.701 238.528 266.001 239.056C266.313 239.584 266.781 239.848 267.405 239.848C268.437 239.848 269.373 239.368 270.213 238.408L270.681 239.2ZM267.981 231.874C267.273 231.874 266.715 232.3 266.307 233.152C265.899 234.004 265.659 234.952 265.587 235.996C266.055 235.972 266.547 235.846 267.063 235.618C267.591 235.39 268.029 235.072 268.377 234.664C268.737 234.244 268.917 233.764 268.917 233.224C268.917 232.792 268.833 232.462 268.665 232.234C268.509 231.994 268.281 231.874 267.981 231.874ZM276.072 232.954C276.516 232.294 277.044 231.766 277.656 231.37C278.268 230.974 278.91 230.776 279.582 230.776C281.07 230.776 281.814 231.658 281.814 233.422C281.814 233.89 281.664 234.934 281.364 236.554C281.316 236.866 281.274 237.106 281.238 237.274C281.07 238.222 280.98 238.906 280.968 239.326V239.398C280.968 239.698 281.064 239.848 281.256 239.848C281.364 239.848 281.478 239.818 281.598 239.758C281.718 239.698 281.874 239.59 282.066 239.434L282.318 239.992C282.138 240.244 281.844 240.508 281.436 240.784C281.028 241.048 280.53 241.18 279.942 241.18C279.378 241.18 278.988 241.06 278.772 240.82C278.556 240.568 278.448 240.238 278.448 239.83C278.46 239.47 278.574 238.756 278.79 237.688L278.898 237.076C278.922 236.968 278.97 236.68 279.042 236.212C279.126 235.744 279.192 235.3 279.24 234.88C279.288 234.448 279.312 234.076 279.312 233.764C279.312 233.212 279.246 232.834 279.114 232.63C278.994 232.426 278.772 232.324 278.448 232.324C278.052 232.324 277.608 232.546 277.116 232.99C276.636 233.434 276.222 233.968 275.874 234.592L275.01 241H272.652L273.804 232.432L272.886 231.946L273.03 231.208L275.838 230.776L276.252 230.974L276.072 232.954ZM283.575 239.92C283.575 239.452 283.725 239.068 284.025 238.768C284.325 238.456 284.667 238.3 285.051 238.3C285.435 238.3 285.735 238.426 285.951 238.678C286.167 238.918 286.275 239.212 286.275 239.56C286.275 240.076 286.119 240.478 285.807 240.766C285.507 241.042 285.141 241.18 284.709 241.18C284.397 241.18 284.127 241.066 283.899 240.838C283.683 240.598 283.575 240.292 283.575 239.92Z" fill="#394454"/>
<path d="M123.405 90.1364V84.9205L133.354 69.2727H138.087V76.2273H135.383L130.022 84.7273V84.9205H144.704V90.1364H123.405ZM135.431 94V88.5426L135.576 86.2727V69.2727H141.854V94H135.431ZM158.29 94.6761C156.044 94.6681 154.104 94.1489 152.47 93.1186C150.836 92.0883 149.577 90.6032 148.691 88.6634C147.806 86.7235 147.367 84.3973 147.375 81.6847C147.383 78.964 147.826 76.6539 148.703 74.7543C149.589 72.8546 150.844 71.4098 152.47 70.4197C154.104 69.4297 156.044 68.9347 158.29 68.9347C160.536 68.9347 162.475 69.4337 164.109 70.4318C165.743 71.4219 167.003 72.8667 167.889 74.7663C168.774 76.666 169.213 78.9721 169.205 81.6847C169.205 84.4134 168.762 86.7476 167.877 88.6875C166.991 90.6274 165.731 92.1125 164.097 93.1428C162.471 94.165 160.536 94.6761 158.29 94.6761ZM158.29 89.2188C159.449 89.2188 160.399 88.6151 161.139 87.4077C161.888 86.1922 162.258 84.2846 162.25 81.6847C162.25 79.9863 162.081 78.5978 161.743 77.5192C161.405 76.4406 160.938 75.6437 160.342 75.1286C159.747 74.6054 159.063 74.3438 158.29 74.3438C157.131 74.3438 156.185 74.9313 155.453 76.1065C154.72 77.2817 154.346 79.1411 154.33 81.6847C154.322 83.4152 154.487 84.84 154.825 85.9588C155.163 87.0696 155.63 87.8906 156.225 88.4219C156.829 88.9531 157.517 89.2188 158.29 89.2188ZM186.506 89.3636V88.0597C186.506 87.0133 186.732 86.0473 187.183 85.1619C187.641 84.2765 188.305 83.5642 189.175 83.0249C190.044 82.4856 191.103 82.2159 192.35 82.2159C193.63 82.2159 194.705 82.4815 195.574 83.0128C196.451 83.544 197.115 84.2524 197.566 85.1378C198.017 86.0232 198.242 86.9972 198.242 88.0597V89.3636C198.242 90.41 198.013 91.3759 197.554 92.2614C197.103 93.1468 196.439 93.8591 195.562 94.3984C194.685 94.9377 193.614 95.2074 192.35 95.2074C191.087 95.2074 190.02 94.9377 189.151 94.3984C188.281 93.8591 187.621 93.1468 187.171 92.2614C186.728 91.3759 186.506 90.41 186.506 89.3636ZM190.708 88.0597V89.3636C190.708 89.8224 190.821 90.2772 191.046 90.728C191.28 91.1707 191.714 91.392 192.35 91.392C193.018 91.392 193.457 91.1747 193.666 90.7401C193.884 90.3054 193.992 89.8466 193.992 89.3636V88.0597C193.992 87.5767 193.892 87.1098 193.69 86.6591C193.489 86.2083 193.042 85.983 192.35 85.983C191.714 85.983 191.28 86.2083 191.046 86.6591C190.821 87.1098 190.708 87.5767 190.708 88.0597ZM173.563 75.2131V73.9091C173.563 72.8466 173.793 71.8726 174.252 70.9872C174.718 70.1018 175.386 69.3935 176.256 68.8622C177.125 68.331 178.176 68.0653 179.407 68.0653C180.687 68.0653 181.761 68.331 182.631 68.8622C183.508 69.3935 184.172 70.1018 184.623 70.9872C185.074 71.8726 185.299 72.8466 185.299 73.9091V75.2131C185.299 76.2756 185.07 77.2455 184.611 78.1229C184.16 79.0002 183.496 79.7005 182.619 80.2237C181.741 80.7469 180.671 81.0085 179.407 81.0085C178.143 81.0085 177.077 80.7429 176.207 80.2116C175.338 79.6804 174.678 78.9761 174.227 78.0987C173.785 77.2214 173.563 76.2595 173.563 75.2131ZM177.813 73.9091V75.2131C177.813 75.696 177.926 76.1548 178.151 76.5895C178.377 77.0241 178.795 77.2415 179.407 77.2415C180.075 77.2415 180.514 77.0241 180.723 76.5895C180.94 76.1548 181.049 75.696 181.049 75.2131V73.9091C181.049 73.4261 180.948 72.9593 180.747 72.5085C180.546 72.0578 180.099 71.8324 179.407 71.8324C178.771 71.8324 178.345 72.0658 178.127 72.5327C177.918 72.9915 177.813 73.4503 177.813 73.9091ZM175.616 94L192.616 69.2727H196.045L179.045 94H175.616Z" fill="#F04E5A"/>
<path d="M153 7C168.838 7 184.27 12.0141 197.084 21.3237C209.897 30.6333 219.435 43.7605 224.329 58.8237C229.224 73.887 229.224 90.113 224.329 105.176C219.435 120.24 209.897 133.367 197.084 142.676L190.366 133.429C201.226 125.538 209.31 114.412 213.459 101.644C217.607 88.8766 217.607 75.1234 213.459 62.3558C209.31 49.5882 201.226 38.4616 190.366 30.5708C179.505 22.68 166.425 18.43 153 18.43L153 7Z" fill="#F04E5A"/>
</svg>
