<svg width="303" height="269" viewBox="0 0 303 269" fill="none" xmlns="http://www.w3.org/2000/svg">
<circle cx="152" cy="82" r="82" fill="#E9E9E9"/>
<path d="M39.4859 216.182C39.4739 216.23 39.4679 216.302 39.4679 216.398C39.4679 216.698 39.5699 216.848 39.7739 216.848C39.9779 216.848 40.2479 216.71 40.5839 216.434L40.8359 216.992C40.1639 217.784 39.4199 218.18 38.6039 218.18C38.1839 218.18 37.8659 218.078 37.6499 217.874C37.4339 217.67 37.3079 217.358 37.2719 216.938V216.668C36.9719 217.088 36.5699 217.448 36.0659 217.748C35.5619 218.036 34.9859 218.18 34.3379 218.18C33.3299 218.18 32.5799 217.838 32.0879 217.154C31.5959 216.458 31.3499 215.552 31.3499 214.436C31.3499 213.32 31.5719 212.252 32.0159 211.232C32.4599 210.212 33.1199 209.384 33.9959 208.748C34.8839 208.1 35.9519 207.776 37.1999 207.776C37.5479 207.776 37.9139 207.824 38.2979 207.92L38.7479 204.878L37.4519 204.518L37.6139 203.852L40.8539 203.492L41.3039 203.726L39.4859 216.182ZM38.1179 209.144C37.8179 208.976 37.4399 208.892 36.9839 208.892C36.2519 208.892 35.6519 209.174 35.1839 209.738C34.7159 210.29 34.3739 210.98 34.1579 211.808C33.9419 212.636 33.8339 213.476 33.8339 214.328C33.8339 215.12 33.9539 215.732 34.1939 216.164C34.4459 216.596 34.7999 216.812 35.2559 216.812C35.6279 216.812 35.9819 216.698 36.3179 216.47C36.6539 216.23 36.9299 215.948 37.1459 215.624L38.1179 209.144ZM45.1668 216.2C45.1548 216.26 45.1488 216.332 45.1488 216.416C45.1488 216.704 45.2508 216.848 45.4548 216.848C45.5628 216.848 45.6828 216.812 45.8148 216.74C45.9468 216.668 46.1148 216.548 46.3188 216.38L46.5528 216.938C46.3488 217.214 46.0428 217.49 45.6348 217.766C45.2388 218.042 44.7528 218.18 44.1768 218.18C43.7088 218.18 43.3428 218.09 43.0788 217.91C42.8148 217.718 42.6828 217.46 42.6828 217.136L42.7008 216.956C42.7728 216.332 43.0188 214.52 43.4388 211.52L43.7268 209.432L42.6648 208.928L42.7908 208.226L45.8868 207.794L46.3188 207.992L45.1668 216.2ZM45.3648 206.066C45.0408 206.066 44.7588 205.946 44.5188 205.706C44.2908 205.454 44.1768 205.166 44.1768 204.842C44.1768 204.398 44.3208 204.026 44.6088 203.726C44.9088 203.426 45.2868 203.276 45.7428 203.276C46.1148 203.276 46.4088 203.396 46.6248 203.636C46.8408 203.864 46.9488 204.14 46.9488 204.464C46.9488 204.92 46.8108 205.304 46.5348 205.616C46.2588 205.916 45.8688 206.066 45.3648 206.066ZM54.1896 209.72C54.0456 209.552 53.8056 209.378 53.4696 209.198C53.1456 209.018 52.7676 208.928 52.3356 208.928C51.8556 208.928 51.4656 209.036 51.1656 209.252C50.8776 209.456 50.7336 209.762 50.7336 210.17C50.7336 210.53 50.8536 210.854 51.0936 211.142C51.3456 211.418 51.7476 211.754 52.2996 212.15C52.9116 212.606 53.3796 213.05 53.7036 213.482C54.0276 213.902 54.1896 214.442 54.1896 215.102C54.1896 215.762 54.0096 216.326 53.6496 216.794C53.2896 217.25 52.8096 217.598 52.2096 217.838C51.6096 218.066 50.9496 218.18 50.2296 218.18C49.6896 218.18 49.1376 218.12 48.5736 218C48.0096 217.868 47.6436 217.73 47.4756 217.586L47.8356 216.056C48.0876 216.272 48.4296 216.476 48.8616 216.668C49.2936 216.86 49.7436 216.956 50.2116 216.956C50.6556 216.956 51.0336 216.854 51.3456 216.65C51.6696 216.446 51.8316 216.128 51.8316 215.696C51.8316 215.324 51.6936 214.988 51.4176 214.688C51.1416 214.388 50.7276 214.046 50.1756 213.662C49.6716 213.314 49.2456 212.906 48.8976 212.438C48.5616 211.958 48.3936 211.382 48.3936 210.71C48.3936 210.134 48.5556 209.624 48.8796 209.18C49.2156 208.736 49.6716 208.394 50.2476 208.154C50.8356 207.902 51.5076 207.776 52.2636 207.776C52.7076 207.776 53.1576 207.812 53.6136 207.884C54.0696 207.956 54.3756 208.034 54.5316 208.118L54.1896 209.72ZM63.3473 216.2C63.0353 216.692 62.5253 217.154 61.8173 217.586C61.1213 218.018 60.3113 218.234 59.3873 218.234C58.5233 218.234 57.8093 218.048 57.2453 217.676C56.6933 217.304 56.2913 216.818 56.0393 216.218C55.7873 215.618 55.6613 214.964 55.6613 214.256C55.6613 213.056 55.9013 211.964 56.3813 210.98C56.8733 209.984 57.5393 209.198 58.3793 208.622C59.2193 208.046 60.1553 207.758 61.1873 207.758C62.1113 207.758 62.7953 207.974 63.2393 208.406C63.6953 208.826 63.9233 209.378 63.9233 210.062C63.9233 210.926 63.6113 211.646 62.9873 212.222C62.3633 212.798 61.6133 213.23 60.7373 213.518C59.8613 213.794 59.0333 213.944 58.2533 213.968C58.2293 214.832 58.3673 215.528 58.6673 216.056C58.9793 216.584 59.4473 216.848 60.0713 216.848C61.1033 216.848 62.0393 216.368 62.8793 215.408L63.3473 216.2ZM60.6473 208.874C59.9393 208.874 59.3813 209.3 58.9733 210.152C58.5653 211.004 58.3253 211.952 58.2533 212.996C58.7213 212.972 59.2133 212.846 59.7293 212.618C60.2573 212.39 60.6953 212.072 61.0433 211.664C61.4033 211.244 61.5833 210.764 61.5833 210.224C61.5833 209.792 61.4993 209.462 61.3313 209.234C61.1753 208.994 60.9473 208.874 60.6473 208.874ZM68.7375 209.954C69.1815 209.294 69.7095 208.766 70.3215 208.37C70.9335 207.974 71.5755 207.776 72.2475 207.776C73.7355 207.776 74.4795 208.658 74.4795 210.422C74.4795 210.89 74.3295 211.934 74.0295 213.554C73.9815 213.866 73.9395 214.106 73.9035 214.274C73.7355 215.222 73.6455 215.906 73.6335 216.326V216.398C73.6335 216.698 73.7295 216.848 73.9215 216.848C74.0295 216.848 74.1435 216.818 74.2635 216.758C74.3835 216.698 74.5395 216.59 74.7315 216.434L74.9835 216.992C74.8035 217.244 74.5095 217.508 74.1015 217.784C73.6935 218.048 73.1955 218.18 72.6075 218.18C72.0435 218.18 71.6535 218.06 71.4375 217.82C71.2215 217.568 71.1135 217.238 71.1135 216.83C71.1255 216.47 71.2395 215.756 71.4555 214.688L71.5635 214.076C71.5875 213.968 71.6355 213.68 71.7075 213.212C71.7915 212.744 71.8575 212.3 71.9055 211.88C71.9535 211.448 71.9775 211.076 71.9775 210.764C71.9775 210.212 71.9115 209.834 71.7795 209.63C71.6595 209.426 71.4375 209.324 71.1135 209.324C70.7175 209.324 70.2735 209.546 69.7815 209.99C69.3015 210.434 68.8875 210.968 68.5395 211.592L67.6755 218H65.3175L66.4695 209.432L65.5515 208.946L65.6955 208.208L68.5035 207.776L68.9175 207.974L68.7375 209.954ZM79.3914 214.706C79.3074 215.402 79.2654 215.822 79.2654 215.966C79.2654 216.242 79.3194 216.44 79.4274 216.56C79.5354 216.668 79.7214 216.722 79.9854 216.722C80.2254 216.722 80.4954 216.668 80.7954 216.56C81.1074 216.44 81.3654 216.296 81.5694 216.128L81.7674 216.794C81.4554 217.142 81.0114 217.46 80.4354 217.748C79.8594 218.036 79.2114 218.18 78.4914 218.18C77.9874 218.18 77.5854 218.054 77.2854 217.802C76.9974 217.538 76.8534 217.124 76.8534 216.56C76.8534 216.32 76.9134 215.756 77.0334 214.868L77.7894 209.288H76.7094L76.9074 208.424L77.9874 208.046C78.3474 207.71 78.7734 206.882 79.2654 205.562H80.6154L80.3094 208.01H82.4694L82.2894 209.288H80.1294L79.3914 214.706ZM94.5254 220.592C94.5134 220.628 94.5074 220.682 94.5074 220.754C94.5074 220.898 94.5314 221.012 94.5794 221.096C94.6394 221.192 94.7234 221.24 94.8314 221.24C95.0234 221.24 95.3054 221.078 95.6774 220.754L95.9294 221.312C95.7614 221.564 95.4614 221.834 95.0294 222.122C94.6094 222.41 94.0994 222.554 93.4994 222.554C92.9714 222.554 92.5874 222.422 92.3474 222.158C92.1074 221.906 91.9994 221.582 92.0234 221.186L92.6174 217.064C92.3054 217.388 91.9274 217.658 91.4834 217.874C91.0514 218.078 90.5714 218.18 90.0434 218.18C89.0234 218.18 88.2674 217.838 87.7754 217.154C87.2954 216.458 87.0554 215.552 87.0554 214.436C87.0554 213.32 87.2774 212.252 87.7214 211.232C88.1654 210.212 88.8254 209.384 89.7014 208.748C90.5774 208.1 91.6394 207.776 92.8874 207.776C93.2234 207.776 93.5894 207.818 93.9854 207.902C94.3814 207.986 94.7174 208.082 94.9934 208.19L96.2174 207.848L94.5254 220.592ZM93.7334 209.108C93.4574 208.964 93.1094 208.892 92.6894 208.892C91.9694 208.892 91.3694 209.168 90.8894 209.72C90.4094 210.272 90.0614 210.968 89.8454 211.808C89.6294 212.636 89.5214 213.476 89.5214 214.328C89.5214 215.12 89.6474 215.732 89.8994 216.164C90.1514 216.596 90.4994 216.812 90.9434 216.812C91.3034 216.812 91.6454 216.704 91.9694 216.488C92.3054 216.26 92.5874 215.99 92.8154 215.678L93.7334 209.108ZM100.896 212.798C100.848 213.242 100.806 213.554 100.77 213.734C100.65 214.67 100.59 215.27 100.59 215.534C100.59 216.014 100.674 216.356 100.842 216.56C101.01 216.764 101.262 216.866 101.598 216.866C101.982 216.866 102.36 216.746 102.732 216.506C103.116 216.266 103.44 215.978 103.704 215.642L104.748 207.866H107.124L105.972 216.2C105.948 216.416 105.966 216.578 106.026 216.686C106.086 216.794 106.176 216.848 106.296 216.848C106.404 216.848 106.518 216.818 106.638 216.758C106.758 216.686 106.926 216.56 107.142 216.38L107.394 216.938C107.238 217.19 106.95 217.46 106.53 217.748C106.11 218.036 105.63 218.18 105.09 218.18C104.67 218.18 104.346 218.09 104.118 217.91C103.902 217.73 103.782 217.484 103.758 217.172L103.74 216.956C103.74 216.86 103.752 216.74 103.776 216.596L103.74 216.578C102.852 217.646 101.808 218.18 100.608 218.18C99.9358 218.18 99.3658 218 98.8978 217.64C98.4298 217.268 98.1898 216.68 98.1778 215.876C98.1778 215.408 98.2618 214.562 98.4298 213.338C98.4778 213.038 98.5078 212.834 98.5198 212.726L99.0058 209.45L97.9618 208.838L98.1058 208.1L101.094 207.794L101.508 207.992L100.896 212.798ZM116.363 216.2C116.051 216.692 115.541 217.154 114.833 217.586C114.137 218.018 113.327 218.234 112.403 218.234C111.539 218.234 110.825 218.048 110.261 217.676C109.709 217.304 109.307 216.818 109.055 216.218C108.803 215.618 108.677 214.964 108.677 214.256C108.677 213.056 108.917 211.964 109.397 210.98C109.889 209.984 110.555 209.198 111.395 208.622C112.235 208.046 113.171 207.758 114.203 207.758C115.127 207.758 115.811 207.974 116.255 208.406C116.711 208.826 116.939 209.378 116.939 210.062C116.939 210.926 116.627 211.646 116.003 212.222C115.379 212.798 114.629 213.23 113.753 213.518C112.877 213.794 112.049 213.944 111.269 213.968C111.245 214.832 111.383 215.528 111.683 216.056C111.995 216.584 112.463 216.848 113.087 216.848C114.119 216.848 115.055 216.368 115.895 215.408L116.363 216.2ZM113.663 208.874C112.955 208.874 112.397 209.3 111.989 210.152C111.581 211.004 111.341 211.952 111.269 212.996C111.737 212.972 112.229 212.846 112.745 212.618C113.273 212.39 113.711 212.072 114.059 211.664C114.419 211.244 114.599 210.764 114.599 210.224C114.599 209.792 114.515 209.462 114.347 209.234C114.191 208.994 113.963 208.874 113.663 208.874ZM125.107 216.2C125.095 216.248 125.089 216.314 125.089 216.398C125.089 216.698 125.197 216.848 125.413 216.848C125.521 216.848 125.635 216.818 125.755 216.758C125.887 216.698 126.061 216.572 126.277 216.38L126.511 216.938C126.319 217.214 126.037 217.49 125.665 217.766C125.293 218.042 124.813 218.18 124.225 218.18C123.769 218.18 123.397 218.09 123.109 217.91C122.821 217.718 122.671 217.424 122.659 217.028C122.659 216.98 122.683 216.764 122.731 216.38L124.297 204.878L123.163 204.518L123.325 203.852L126.385 203.492L126.799 203.726L125.107 216.2ZM135.523 216.2C135.211 216.692 134.701 217.154 133.993 217.586C133.297 218.018 132.487 218.234 131.563 218.234C130.699 218.234 129.985 218.048 129.421 217.676C128.869 217.304 128.467 216.818 128.215 216.218C127.963 215.618 127.837 214.964 127.837 214.256C127.837 213.056 128.077 211.964 128.557 210.98C129.049 209.984 129.715 209.198 130.555 208.622C131.395 208.046 132.331 207.758 133.363 207.758C134.287 207.758 134.971 207.974 135.415 208.406C135.871 208.826 136.099 209.378 136.099 210.062C136.099 210.926 135.787 211.646 135.163 212.222C134.539 212.798 133.789 213.23 132.913 213.518C132.037 213.794 131.209 213.944 130.429 213.968C130.405 214.832 130.543 215.528 130.843 216.056C131.155 216.584 131.623 216.848 132.247 216.848C133.279 216.848 134.215 216.368 135.055 215.408L135.523 216.2ZM132.823 208.874C132.115 208.874 131.557 209.3 131.149 210.152C130.741 211.004 130.501 211.952 130.429 212.996C130.897 212.972 131.389 212.846 131.905 212.618C132.433 212.39 132.871 212.072 133.219 211.664C133.579 211.244 133.759 210.764 133.759 210.224C133.759 209.792 133.675 209.462 133.507 209.234C133.351 208.994 133.123 208.874 132.823 208.874ZM143.451 209.72C143.307 209.552 143.067 209.378 142.731 209.198C142.407 209.018 142.029 208.928 141.597 208.928C141.117 208.928 140.727 209.036 140.427 209.252C140.139 209.456 139.995 209.762 139.995 210.17C139.995 210.53 140.115 210.854 140.355 211.142C140.607 211.418 141.009 211.754 141.561 212.15C142.173 212.606 142.641 213.05 142.965 213.482C143.289 213.902 143.451 214.442 143.451 215.102C143.451 215.762 143.271 216.326 142.911 216.794C142.551 217.25 142.071 217.598 141.471 217.838C140.871 218.066 140.211 218.18 139.491 218.18C138.951 218.18 138.399 218.12 137.835 218C137.271 217.868 136.905 217.73 136.737 217.586L137.097 216.056C137.349 216.272 137.691 216.476 138.123 216.668C138.555 216.86 139.005 216.956 139.473 216.956C139.917 216.956 140.295 216.854 140.607 216.65C140.931 216.446 141.093 216.128 141.093 215.696C141.093 215.324 140.955 214.988 140.679 214.688C140.403 214.388 139.989 214.046 139.437 213.662C138.933 213.314 138.507 212.906 138.159 212.438C137.823 211.958 137.655 211.382 137.655 210.71C137.655 210.134 137.817 209.624 138.141 209.18C138.477 208.736 138.933 208.394 139.509 208.154C140.097 207.902 140.769 207.776 141.525 207.776C141.969 207.776 142.419 207.812 142.875 207.884C143.331 207.956 143.637 208.034 143.793 208.118L143.451 209.72ZM155.674 210.458C155.338 210.038 155.038 209.702 154.774 209.45C154.522 209.186 154.3 209.054 154.108 209.054C153.664 209.054 153.25 209.258 152.866 209.666C152.494 210.074 152.188 210.644 151.948 211.376C151.72 212.108 151.606 212.93 151.606 213.842C151.606 214.838 151.75 215.57 152.038 216.038C152.326 216.494 152.764 216.722 153.352 216.722C153.856 216.722 154.282 216.626 154.63 216.434C154.99 216.242 155.338 215.972 155.674 215.624L156.142 216.416C155.842 216.86 155.368 217.268 154.72 217.64C154.084 218 153.328 218.18 152.452 218.18C151.42 218.18 150.61 217.82 150.022 217.1C149.434 216.368 149.14 215.336 149.14 214.004C149.14 212.996 149.35 212.018 149.77 211.07C150.19 210.11 150.814 209.324 151.642 208.712C152.47 208.088 153.466 207.776 154.63 207.776C155.002 207.776 155.386 207.812 155.782 207.884C156.19 207.944 156.52 208.034 156.772 208.154L156.16 210.494L155.674 210.458ZM162.911 207.758C164.159 207.758 165.113 208.124 165.773 208.856C166.433 209.576 166.763 210.614 166.763 211.97C166.763 213.086 166.535 214.124 166.079 215.084C165.623 216.044 164.981 216.812 164.153 217.388C163.325 217.952 162.377 218.234 161.309 218.234C160.061 218.234 159.107 217.868 158.447 217.136C157.799 216.392 157.475 215.336 157.475 213.968C157.475 212.84 157.697 211.802 158.141 210.854C158.597 209.906 159.239 209.156 160.067 208.604C160.895 208.04 161.843 207.758 162.911 207.758ZM162.605 208.892C162.053 208.892 161.585 209.144 161.201 209.648C160.817 210.14 160.529 210.77 160.337 211.538C160.157 212.306 160.067 213.092 160.067 213.896C160.067 215.036 160.193 215.87 160.445 216.398C160.709 216.926 161.117 217.19 161.669 217.19C162.209 217.19 162.665 216.938 163.037 216.434C163.409 215.93 163.685 215.288 163.865 214.508C164.045 213.728 164.135 212.93 164.135 212.114C164.135 210.974 164.009 210.152 163.757 209.648C163.517 209.144 163.133 208.892 162.605 208.892ZM171.71 209.954C172.154 209.294 172.682 208.766 173.294 208.37C173.906 207.974 174.548 207.776 175.22 207.776C176.708 207.776 177.452 208.658 177.452 210.422C177.452 210.89 177.302 211.934 177.002 213.554C176.954 213.866 176.912 214.106 176.876 214.274C176.708 215.222 176.618 215.906 176.606 216.326V216.398C176.606 216.698 176.702 216.848 176.894 216.848C177.002 216.848 177.116 216.818 177.236 216.758C177.356 216.698 177.512 216.59 177.704 216.434L177.956 216.992C177.776 217.244 177.482 217.508 177.074 217.784C176.666 218.048 176.168 218.18 175.58 218.18C175.016 218.18 174.626 218.06 174.41 217.82C174.194 217.568 174.086 217.238 174.086 216.83C174.098 216.47 174.212 215.756 174.428 214.688L174.536 214.076C174.56 213.968 174.608 213.68 174.68 213.212C174.764 212.744 174.83 212.3 174.878 211.88C174.926 211.448 174.95 211.076 174.95 210.764C174.95 210.212 174.884 209.834 174.752 209.63C174.632 209.426 174.41 209.324 174.086 209.324C173.69 209.324 173.246 209.546 172.754 209.99C172.274 210.434 171.86 210.968 171.512 211.592L170.648 218H168.29L169.442 209.432L168.524 208.946L168.668 208.208L171.476 207.776L171.89 207.974L171.71 209.954ZM185.586 209.72C185.442 209.552 185.202 209.378 184.866 209.198C184.542 209.018 184.164 208.928 183.732 208.928C183.252 208.928 182.862 209.036 182.562 209.252C182.274 209.456 182.13 209.762 182.13 210.17C182.13 210.53 182.25 210.854 182.49 211.142C182.742 211.418 183.144 211.754 183.696 212.15C184.308 212.606 184.776 213.05 185.1 213.482C185.424 213.902 185.586 214.442 185.586 215.102C185.586 215.762 185.406 216.326 185.046 216.794C184.686 217.25 184.206 217.598 183.606 217.838C183.006 218.066 182.346 218.18 181.626 218.18C181.086 218.18 180.534 218.12 179.97 218C179.406 217.868 179.04 217.73 178.872 217.586L179.232 216.056C179.484 216.272 179.826 216.476 180.258 216.668C180.69 216.86 181.14 216.956 181.608 216.956C182.052 216.956 182.43 216.854 182.742 216.65C183.066 216.446 183.228 216.128 183.228 215.696C183.228 215.324 183.09 214.988 182.814 214.688C182.538 214.388 182.124 214.046 181.572 213.662C181.068 213.314 180.642 212.906 180.294 212.438C179.958 211.958 179.79 211.382 179.79 210.71C179.79 210.134 179.952 209.624 180.276 209.18C180.612 208.736 181.068 208.394 181.644 208.154C182.232 207.902 182.904 207.776 183.66 207.776C184.104 207.776 184.554 207.812 185.01 207.884C185.466 207.956 185.772 208.034 185.928 208.118L185.586 209.72ZM190.046 216.2C190.034 216.26 190.028 216.332 190.028 216.416C190.028 216.704 190.13 216.848 190.334 216.848C190.442 216.848 190.562 216.812 190.694 216.74C190.826 216.668 190.994 216.548 191.198 216.38L191.432 216.938C191.228 217.214 190.922 217.49 190.514 217.766C190.118 218.042 189.632 218.18 189.056 218.18C188.588 218.18 188.222 218.09 187.958 217.91C187.694 217.718 187.562 217.46 187.562 217.136L187.58 216.956C187.652 216.332 187.898 214.52 188.318 211.52L188.606 209.432L187.544 208.928L187.67 208.226L190.766 207.794L191.198 207.992L190.046 216.2ZM190.244 206.066C189.92 206.066 189.638 205.946 189.398 205.706C189.17 205.454 189.056 205.166 189.056 204.842C189.056 204.398 189.2 204.026 189.488 203.726C189.788 203.426 190.166 203.276 190.622 203.276C190.994 203.276 191.288 203.396 191.504 203.636C191.72 203.864 191.828 204.14 191.828 204.464C191.828 204.92 191.69 205.304 191.414 205.616C191.138 205.916 190.748 206.066 190.244 206.066ZM200.959 216.182C200.947 216.23 200.941 216.302 200.941 216.398C200.941 216.698 201.043 216.848 201.247 216.848C201.451 216.848 201.721 216.71 202.057 216.434L202.309 216.992C201.637 217.784 200.893 218.18 200.077 218.18C199.657 218.18 199.339 218.078 199.123 217.874C198.907 217.67 198.781 217.358 198.745 216.938V216.668C198.445 217.088 198.043 217.448 197.539 217.748C197.035 218.036 196.459 218.18 195.811 218.18C194.803 218.18 194.053 217.838 193.561 217.154C193.069 216.458 192.823 215.552 192.823 214.436C192.823 213.32 193.045 212.252 193.489 211.232C193.933 210.212 194.593 209.384 195.469 208.748C196.357 208.1 197.425 207.776 198.673 207.776C199.021 207.776 199.387 207.824 199.771 207.92L200.221 204.878L198.925 204.518L199.087 203.852L202.327 203.492L202.777 203.726L200.959 216.182ZM199.591 209.144C199.291 208.976 198.913 208.892 198.457 208.892C197.725 208.892 197.125 209.174 196.657 209.738C196.189 210.29 195.847 210.98 195.631 211.808C195.415 212.636 195.307 213.476 195.307 214.328C195.307 215.12 195.427 215.732 195.667 216.164C195.919 216.596 196.273 216.812 196.729 216.812C197.101 216.812 197.455 216.698 197.791 216.47C198.127 216.23 198.403 215.948 198.619 215.624L199.591 209.144ZM211.337 216.2C211.025 216.692 210.515 217.154 209.807 217.586C209.111 218.018 208.301 218.234 207.377 218.234C206.513 218.234 205.799 218.048 205.235 217.676C204.683 217.304 204.281 216.818 204.029 216.218C203.777 215.618 203.651 214.964 203.651 214.256C203.651 213.056 203.891 211.964 204.371 210.98C204.863 209.984 205.529 209.198 206.369 208.622C207.209 208.046 208.145 207.758 209.177 207.758C210.101 207.758 210.785 207.974 211.229 208.406C211.685 208.826 211.913 209.378 211.913 210.062C211.913 210.926 211.601 211.646 210.977 212.222C210.353 212.798 209.603 213.23 208.727 213.518C207.851 213.794 207.023 213.944 206.243 213.968C206.219 214.832 206.357 215.528 206.657 216.056C206.969 216.584 207.437 216.848 208.061 216.848C209.093 216.848 210.029 216.368 210.869 215.408L211.337 216.2ZM208.637 208.874C207.929 208.874 207.371 209.3 206.963 210.152C206.555 211.004 206.315 211.952 206.243 212.996C206.711 212.972 207.203 212.846 207.719 212.618C208.247 212.39 208.685 212.072 209.033 211.664C209.393 211.244 209.573 210.764 209.573 210.224C209.573 209.792 209.489 209.462 209.321 209.234C209.165 208.994 208.937 208.874 208.637 208.874ZM210.851 202.142L212.309 203.564C212.201 203.756 211.919 204.068 211.463 204.5C211.007 204.92 210.515 205.334 209.987 205.742C209.459 206.15 209.027 206.426 208.691 206.57L208.007 205.904L210.851 202.142ZM216.494 210.368C216.722 209.684 217.112 209.084 217.664 208.568C218.228 208.04 218.858 207.776 219.554 207.776C219.794 207.776 219.998 207.83 220.166 207.938L219.644 210.53C219.572 210.47 219.452 210.416 219.284 210.368C219.128 210.308 218.936 210.278 218.708 210.278C218.276 210.278 217.862 210.374 217.466 210.566C217.07 210.746 216.764 211.01 216.548 211.358L215.666 218H213.326L214.46 209.45L213.542 208.946L213.668 208.226L216.242 207.794L216.656 208.046L216.566 209.684L216.494 210.368ZM228.429 216.164C228.417 216.212 228.411 216.284 228.411 216.38C228.411 216.692 228.531 216.848 228.771 216.848C228.963 216.848 229.233 216.704 229.581 216.416L229.833 216.974C229.677 217.214 229.395 217.478 228.987 217.766C228.591 218.042 228.129 218.18 227.601 218.18C227.193 218.18 226.869 218.09 226.629 217.91C226.389 217.73 226.263 217.454 226.251 217.082L226.287 216.776C225.951 217.172 225.543 217.508 225.063 217.784C224.583 218.048 224.055 218.18 223.479 218.18C222.471 218.18 221.715 217.838 221.211 217.154C220.719 216.458 220.473 215.552 220.473 214.436C220.473 213.332 220.701 212.27 221.157 211.25C221.625 210.23 222.303 209.396 223.191 208.748C224.079 208.1 225.135 207.776 226.359 207.776C226.671 207.776 227.007 207.812 227.367 207.884C227.739 207.956 228.063 208.04 228.339 208.136L229.581 207.776L228.429 216.164ZM227.043 209.054C226.815 208.946 226.521 208.892 226.161 208.892C225.441 208.892 224.841 209.168 224.361 209.72C223.881 210.26 223.527 210.95 223.299 211.79C223.083 212.618 222.975 213.458 222.975 214.31C222.975 215.102 223.095 215.72 223.335 216.164C223.575 216.596 223.929 216.812 224.397 216.812C224.697 216.812 224.997 216.71 225.297 216.506C225.609 216.302 225.885 216.062 226.125 215.786L227.043 209.054ZM234.044 214.706C233.96 215.402 233.918 215.822 233.918 215.966C233.918 216.242 233.972 216.44 234.08 216.56C234.188 216.668 234.374 216.722 234.638 216.722C234.878 216.722 235.148 216.668 235.448 216.56C235.76 216.44 236.018 216.296 236.222 216.128L236.42 216.794C236.108 217.142 235.664 217.46 235.088 217.748C234.512 218.036 233.864 218.18 233.144 218.18C232.64 218.18 232.238 218.054 231.938 217.802C231.65 217.538 231.506 217.124 231.506 216.56C231.506 216.32 231.566 215.756 231.686 214.868L232.442 209.288H231.362L231.56 208.424L232.64 208.046C233 207.71 233.426 206.882 233.918 205.562H235.268L234.962 208.01H237.122L236.942 209.288H234.782L234.044 214.706ZM240.442 216.2C240.43 216.26 240.424 216.332 240.424 216.416C240.424 216.704 240.526 216.848 240.73 216.848C240.838 216.848 240.958 216.812 241.09 216.74C241.222 216.668 241.39 216.548 241.594 216.38L241.828 216.938C241.624 217.214 241.318 217.49 240.91 217.766C240.514 218.042 240.028 218.18 239.452 218.18C238.984 218.18 238.618 218.09 238.354 217.91C238.09 217.718 237.958 217.46 237.958 217.136L237.976 216.956C238.048 216.332 238.294 214.52 238.714 211.52L239.002 209.432L237.94 208.928L238.066 208.226L241.162 207.794L241.594 207.992L240.442 216.2ZM240.64 206.066C240.316 206.066 240.034 205.946 239.794 205.706C239.566 205.454 239.452 205.166 239.452 204.842C239.452 204.398 239.596 204.026 239.884 203.726C240.184 203.426 240.562 203.276 241.018 203.276C241.39 203.276 241.684 203.396 241.9 203.636C242.116 203.864 242.224 204.14 242.224 204.464C242.224 204.92 242.086 205.304 241.81 205.616C241.534 205.916 241.144 206.066 240.64 206.066ZM248.727 207.758C249.975 207.758 250.929 208.124 251.589 208.856C252.249 209.576 252.579 210.614 252.579 211.97C252.579 213.086 252.351 214.124 251.895 215.084C251.439 216.044 250.797 216.812 249.969 217.388C249.141 217.952 248.193 218.234 247.125 218.234C245.877 218.234 244.923 217.868 244.263 217.136C243.615 216.392 243.291 215.336 243.291 213.968C243.291 212.84 243.513 211.802 243.957 210.854C244.413 209.906 245.055 209.156 245.883 208.604C246.711 208.04 247.659 207.758 248.727 207.758ZM248.421 208.892C247.869 208.892 247.401 209.144 247.017 209.648C246.633 210.14 246.345 210.77 246.153 211.538C245.973 212.306 245.883 213.092 245.883 213.896C245.883 215.036 246.009 215.87 246.261 216.398C246.525 216.926 246.933 217.19 247.485 217.19C248.025 217.19 248.481 216.938 248.853 216.434C249.225 215.93 249.501 215.288 249.681 214.508C249.861 213.728 249.951 212.93 249.951 212.114C249.951 210.974 249.825 210.152 249.573 209.648C249.333 209.144 248.949 208.892 248.421 208.892ZM257.527 209.954C257.971 209.294 258.499 208.766 259.111 208.37C259.723 207.974 260.365 207.776 261.037 207.776C262.525 207.776 263.269 208.658 263.269 210.422C263.269 210.89 263.119 211.934 262.819 213.554C262.771 213.866 262.729 214.106 262.693 214.274C262.525 215.222 262.435 215.906 262.423 216.326V216.398C262.423 216.698 262.519 216.848 262.711 216.848C262.819 216.848 262.933 216.818 263.053 216.758C263.173 216.698 263.329 216.59 263.521 216.434L263.773 216.992C263.593 217.244 263.299 217.508 262.891 217.784C262.483 218.048 261.985 218.18 261.397 218.18C260.833 218.18 260.443 218.06 260.227 217.82C260.011 217.568 259.903 217.238 259.903 216.83C259.915 216.47 260.029 215.756 260.245 214.688L260.353 214.076C260.377 213.968 260.425 213.68 260.497 213.212C260.581 212.744 260.647 212.3 260.695 211.88C260.743 211.448 260.767 211.076 260.767 210.764C260.767 210.212 260.701 209.834 260.569 209.63C260.449 209.426 260.227 209.324 259.903 209.324C259.507 209.324 259.063 209.546 258.571 209.99C258.091 210.434 257.677 210.968 257.329 211.592L256.465 218H254.107L255.259 209.432L254.341 208.946L254.485 208.208L257.293 207.776L257.707 207.974L257.527 209.954ZM271.403 209.72C271.259 209.552 271.019 209.378 270.683 209.198C270.359 209.018 269.981 208.928 269.549 208.928C269.069 208.928 268.679 209.036 268.379 209.252C268.091 209.456 267.947 209.762 267.947 210.17C267.947 210.53 268.067 210.854 268.307 211.142C268.559 211.418 268.961 211.754 269.513 212.15C270.125 212.606 270.593 213.05 270.917 213.482C271.241 213.902 271.403 214.442 271.403 215.102C271.403 215.762 271.223 216.326 270.863 216.794C270.503 217.25 270.023 217.598 269.423 217.838C268.823 218.066 268.163 218.18 267.443 218.18C266.903 218.18 266.351 218.12 265.787 218C265.223 217.868 264.857 217.73 264.689 217.586L265.049 216.056C265.301 216.272 265.643 216.476 266.075 216.668C266.507 216.86 266.957 216.956 267.425 216.956C267.869 216.956 268.247 216.854 268.559 216.65C268.883 216.446 269.045 216.128 269.045 215.696C269.045 215.324 268.907 214.988 268.631 214.688C268.355 214.388 267.941 214.046 267.389 213.662C266.885 213.314 266.459 212.906 266.111 212.438C265.775 211.958 265.607 211.382 265.607 210.71C265.607 210.134 265.769 209.624 266.093 209.18C266.429 208.736 266.885 208.394 267.461 208.154C268.049 207.902 268.721 207.776 269.477 207.776C269.921 207.776 270.371 207.812 270.827 207.884C271.283 207.956 271.589 208.034 271.745 208.118L271.403 209.72ZM15.7333 230.146C15.8533 229.426 16.0873 228.778 16.4353 228.202C16.7953 227.626 17.2513 227.17 17.8033 226.834C18.3553 226.498 18.9733 226.33 19.6573 226.33C20.2933 226.33 20.7973 226.402 21.1693 226.546L20.6653 227.986C20.3173 227.722 19.9153 227.59 19.4593 227.59C19.0153 227.59 18.6913 227.758 18.4873 228.094C18.2953 228.43 18.1513 228.946 18.0553 229.642L17.8753 230.956H19.8553L19.6213 232.306H17.6953L16.7053 240.298C16.5133 241.774 16.0753 243.01 15.3913 244.006C14.7193 245.002 13.8193 245.506 12.6913 245.518C12.4153 245.53 12.1273 245.518 11.8273 245.482C11.5153 245.446 11.2693 245.404 11.0893 245.356L11.5573 243.844C11.7133 243.916 11.9413 243.994 12.2413 244.078C12.5293 244.174 12.7633 244.222 12.9433 244.222C13.2673 244.222 13.5193 244.06 13.6993 243.736C13.8913 243.424 14.0293 242.95 14.1133 242.314L15.3553 232.306H14.2033L14.3653 231.514L15.5893 230.992L15.7333 230.146ZM22.8973 239.2C22.8853 239.26 22.8793 239.332 22.8793 239.416C22.8793 239.704 22.9813 239.848 23.1853 239.848C23.2933 239.848 23.4133 239.812 23.5453 239.74C23.6773 239.668 23.8453 239.548 24.0493 239.38L24.2833 239.938C24.0793 240.214 23.7733 240.49 23.3653 240.766C22.9693 241.042 22.4833 241.18 21.9073 241.18C21.4393 241.18 21.0733 241.09 20.8093 240.91C20.5453 240.718 20.4133 240.46 20.4133 240.136L20.4313 239.956C20.5033 239.332 20.7493 237.52 21.1693 234.52L21.4573 232.432L20.3953 231.928L20.5213 231.226L23.6173 230.794L24.0493 230.992L22.8973 239.2ZM23.0953 229.066C22.7713 229.066 22.4893 228.946 22.2493 228.706C22.0213 228.454 21.9073 228.166 21.9073 227.842C21.9073 227.398 22.0513 227.026 22.3393 226.726C22.6393 226.426 23.0173 226.276 23.4733 226.276C23.8453 226.276 24.1393 226.396 24.3553 226.636C24.5713 226.864 24.6793 227.14 24.6793 227.464C24.6793 227.92 24.5413 228.304 24.2653 228.616C23.9893 228.916 23.5993 229.066 23.0953 229.066ZM29.3801 232.954C29.8241 232.294 30.3521 231.766 30.9641 231.37C31.5761 230.974 32.2181 230.776 32.8901 230.776C34.3781 230.776 35.1221 231.658 35.1221 233.422C35.1221 233.89 34.9721 234.934 34.6721 236.554C34.6241 236.866 34.5821 237.106 34.5461 237.274C34.3781 238.222 34.2881 238.906 34.2761 239.326V239.398C34.2761 239.698 34.3721 239.848 34.5641 239.848C34.6721 239.848 34.7861 239.818 34.9061 239.758C35.0261 239.698 35.1821 239.59 35.3741 239.434L35.6261 239.992C35.4461 240.244 35.1521 240.508 34.7441 240.784C34.3361 241.048 33.8381 241.18 33.2501 241.18C32.6861 241.18 32.2961 241.06 32.0801 240.82C31.8641 240.568 31.7561 240.238 31.7561 239.83C31.7681 239.47 31.8821 238.756 32.0981 237.688L32.2061 237.076C32.2301 236.968 32.2781 236.68 32.3501 236.212C32.4341 235.744 32.5001 235.3 32.5481 234.88C32.5961 234.448 32.6201 234.076 32.6201 233.764C32.6201 233.212 32.5541 232.834 32.4221 232.63C32.3021 232.426 32.0801 232.324 31.7561 232.324C31.3601 232.324 30.9161 232.546 30.4241 232.99C29.9441 233.434 29.5301 233.968 29.1821 234.592L28.3181 241H25.9601L27.1121 232.432L26.1941 231.946L26.3381 231.208L29.1461 230.776L29.5601 230.974L29.3801 232.954ZM44.984 239.164C44.972 239.212 44.966 239.284 44.966 239.38C44.966 239.692 45.086 239.848 45.326 239.848C45.518 239.848 45.788 239.704 46.136 239.416L46.388 239.974C46.232 240.214 45.95 240.478 45.542 240.766C45.146 241.042 44.684 241.18 44.156 241.18C43.748 241.18 43.424 241.09 43.184 240.91C42.944 240.73 42.818 240.454 42.806 240.082L42.842 239.776C42.506 240.172 42.098 240.508 41.618 240.784C41.138 241.048 40.61 241.18 40.034 241.18C39.026 241.18 38.27 240.838 37.766 240.154C37.274 239.458 37.028 238.552 37.028 237.436C37.028 236.332 37.256 235.27 37.712 234.25C38.18 233.23 38.858 232.396 39.746 231.748C40.634 231.1 41.69 230.776 42.914 230.776C43.226 230.776 43.562 230.812 43.922 230.884C44.294 230.956 44.618 231.04 44.894 231.136L46.136 230.776L44.984 239.164ZM43.598 232.054C43.37 231.946 43.076 231.892 42.716 231.892C41.996 231.892 41.396 232.168 40.916 232.72C40.436 233.26 40.082 233.95 39.854 234.79C39.638 235.618 39.53 236.458 39.53 237.31C39.53 238.102 39.65 238.72 39.89 239.164C40.13 239.596 40.484 239.812 40.952 239.812C41.252 239.812 41.552 239.71 41.852 239.506C42.164 239.302 42.44 239.062 42.68 238.786L43.598 232.054ZM51.2825 232.954C51.7265 232.294 52.2545 231.766 52.8665 231.37C53.4785 230.974 54.1205 230.776 54.7925 230.776C56.2805 230.776 57.0245 231.658 57.0245 233.422C57.0245 233.89 56.8745 234.934 56.5745 236.554C56.5265 236.866 56.4845 237.106 56.4485 237.274C56.2805 238.222 56.1905 238.906 56.1785 239.326V239.398C56.1785 239.698 56.2745 239.848 56.4665 239.848C56.5745 239.848 56.6885 239.818 56.8085 239.758C56.9285 239.698 57.0845 239.59 57.2765 239.434L57.5285 239.992C57.3485 240.244 57.0545 240.508 56.6465 240.784C56.2385 241.048 55.7405 241.18 55.1525 241.18C54.5885 241.18 54.1985 241.06 53.9825 240.82C53.7665 240.568 53.6585 240.238 53.6585 239.83C53.6705 239.47 53.7845 238.756 54.0005 237.688L54.1085 237.076C54.1325 236.968 54.1805 236.68 54.2525 236.212C54.3365 235.744 54.4025 235.3 54.4505 234.88C54.4985 234.448 54.5225 234.076 54.5225 233.764C54.5225 233.212 54.4565 232.834 54.3245 232.63C54.2045 232.426 53.9825 232.324 53.6585 232.324C53.2625 232.324 52.8185 232.546 52.3265 232.99C51.8465 233.434 51.4325 233.968 51.0845 234.592L50.2205 241H47.8625L49.0145 232.432L48.0965 231.946L48.2405 231.208L51.0485 230.776L51.4625 230.974L51.2825 232.954ZM65.4284 233.458C65.0924 233.038 64.7924 232.702 64.5284 232.45C64.2764 232.186 64.0544 232.054 63.8624 232.054C63.4184 232.054 63.0044 232.258 62.6204 232.666C62.2484 233.074 61.9424 233.644 61.7024 234.376C61.4744 235.108 61.3604 235.93 61.3604 236.842C61.3604 237.838 61.5044 238.57 61.7924 239.038C62.0804 239.494 62.5184 239.722 63.1064 239.722C63.6104 239.722 64.0364 239.626 64.3844 239.434C64.7444 239.242 65.0924 238.972 65.4284 238.624L65.8964 239.416C65.5964 239.86 65.1224 240.268 64.4744 240.64C63.8384 241 63.0824 241.18 62.2064 241.18C61.1744 241.18 60.3644 240.82 59.7764 240.1C59.1884 239.368 58.8944 238.336 58.8944 237.004C58.8944 235.996 59.1044 235.018 59.5244 234.07C59.9444 233.11 60.5684 232.324 61.3964 231.712C62.2244 231.088 63.2204 230.776 64.3844 230.776C64.7564 230.776 65.1404 230.812 65.5364 230.884C65.9444 230.944 66.2744 231.034 66.5264 231.154L65.9144 233.494L65.4284 233.458ZM70.1805 239.2C70.1685 239.26 70.1625 239.332 70.1625 239.416C70.1625 239.704 70.2645 239.848 70.4685 239.848C70.5765 239.848 70.6965 239.812 70.8285 239.74C70.9605 239.668 71.1285 239.548 71.3325 239.38L71.5665 239.938C71.3625 240.214 71.0565 240.49 70.6485 240.766C70.2525 241.042 69.7665 241.18 69.1905 241.18C68.7225 241.18 68.3565 241.09 68.0925 240.91C67.8285 240.718 67.6965 240.46 67.6965 240.136L67.7145 239.956C67.7865 239.332 68.0325 237.52 68.4525 234.52L68.7405 232.432L67.6785 231.928L67.8045 231.226L70.9005 230.794L71.3325 230.992L70.1805 239.2ZM70.3785 229.066C70.0545 229.066 69.7725 228.946 69.5325 228.706C69.3045 228.454 69.1905 228.166 69.1905 227.842C69.1905 227.398 69.3345 227.026 69.6225 226.726C69.9225 226.426 70.3005 226.276 70.7565 226.276C71.1285 226.276 71.4225 226.396 71.6385 226.636C71.8545 226.864 71.9625 227.14 71.9625 227.464C71.9625 227.92 71.8245 228.304 71.5485 228.616C71.2725 228.916 70.8825 229.066 70.3785 229.066ZM80.6793 239.2C80.3673 239.692 79.8573 240.154 79.1493 240.586C78.4533 241.018 77.6433 241.234 76.7193 241.234C75.8553 241.234 75.1413 241.048 74.5773 240.676C74.0253 240.304 73.6233 239.818 73.3713 239.218C73.1193 238.618 72.9933 237.964 72.9933 237.256C72.9933 236.056 73.2333 234.964 73.7133 233.98C74.2053 232.984 74.8713 232.198 75.7113 231.622C76.5513 231.046 77.4873 230.758 78.5193 230.758C79.4433 230.758 80.1273 230.974 80.5713 231.406C81.0273 231.826 81.2553 232.378 81.2553 233.062C81.2553 233.926 80.9433 234.646 80.3193 235.222C79.6953 235.798 78.9453 236.23 78.0693 236.518C77.1933 236.794 76.3653 236.944 75.5853 236.968C75.5613 237.832 75.6993 238.528 75.9993 239.056C76.3113 239.584 76.7793 239.848 77.4033 239.848C78.4353 239.848 79.3713 239.368 80.2113 238.408L80.6793 239.2ZM77.9793 231.874C77.2713 231.874 76.7133 232.3 76.3053 233.152C75.8973 234.004 75.6573 234.952 75.5853 235.996C76.0533 235.972 76.5453 235.846 77.0613 235.618C77.5893 235.39 78.0273 235.072 78.3753 234.664C78.7353 234.244 78.9153 233.764 78.9153 233.224C78.9153 232.792 78.8313 232.462 78.6633 232.234C78.5073 231.994 78.2793 231.874 77.9793 231.874ZM78.8073 229.48C78.3753 229.264 77.7693 228.826 76.9893 228.166C76.2213 227.506 75.7173 226.96 75.4773 226.528L77.0073 225.16L79.5813 228.922L78.8073 229.48ZM85.8356 233.368C86.0636 232.684 86.4536 232.084 87.0056 231.568C87.5696 231.04 88.1996 230.776 88.8956 230.776C89.1356 230.776 89.3396 230.83 89.5076 230.938L88.9856 233.53C88.9136 233.47 88.7936 233.416 88.6256 233.368C88.4696 233.308 88.2776 233.278 88.0496 233.278C87.6176 233.278 87.2036 233.374 86.8076 233.566C86.4116 233.746 86.1056 234.01 85.8896 234.358L85.0076 241H82.6676L83.8016 232.45L82.8836 231.946L83.0096 231.226L85.5836 230.794L85.9976 231.046L85.9076 232.684L85.8356 233.368ZM97.5191 239.2C97.2071 239.692 96.6971 240.154 95.9891 240.586C95.2931 241.018 94.4831 241.234 93.5591 241.234C92.6951 241.234 91.9811 241.048 91.4171 240.676C90.8651 240.304 90.4631 239.818 90.2111 239.218C89.9591 238.618 89.8331 237.964 89.8331 237.256C89.8331 236.056 90.0731 234.964 90.5531 233.98C91.0451 232.984 91.7111 232.198 92.5511 231.622C93.3911 231.046 94.3271 230.758 95.3591 230.758C96.2831 230.758 96.9671 230.974 97.4111 231.406C97.8671 231.826 98.0951 232.378 98.0951 233.062C98.0951 233.926 97.7831 234.646 97.1591 235.222C96.5351 235.798 95.7851 236.23 94.9091 236.518C94.0331 236.794 93.2051 236.944 92.4251 236.968C92.4011 237.832 92.5391 238.528 92.8391 239.056C93.1511 239.584 93.6191 239.848 94.2431 239.848C95.2751 239.848 96.2111 239.368 97.0511 238.408L97.5191 239.2ZM94.8191 231.874C94.1111 231.874 93.5531 232.3 93.1451 233.152C92.7371 234.004 92.4971 234.952 92.4251 235.996C92.8931 235.972 93.3851 235.846 93.9011 235.618C94.4291 235.39 94.8671 235.072 95.2151 234.664C95.5751 234.244 95.7551 233.764 95.7551 233.224C95.7551 232.792 95.6711 232.462 95.5031 232.234C95.3471 231.994 95.1191 231.874 94.8191 231.874ZM105.447 232.72C105.303 232.552 105.063 232.378 104.727 232.198C104.403 232.018 104.025 231.928 103.593 231.928C103.113 231.928 102.723 232.036 102.423 232.252C102.135 232.456 101.991 232.762 101.991 233.17C101.991 233.53 102.111 233.854 102.351 234.142C102.603 234.418 103.005 234.754 103.557 235.15C104.169 235.606 104.637 236.05 104.961 236.482C105.285 236.902 105.447 237.442 105.447 238.102C105.447 238.762 105.267 239.326 104.907 239.794C104.547 240.25 104.067 240.598 103.467 240.838C102.867 241.066 102.207 241.18 101.487 241.18C100.947 241.18 100.395 241.12 99.8314 241C99.2674 240.868 98.9014 240.73 98.7334 240.586L99.0934 239.056C99.3454 239.272 99.6874 239.476 100.119 239.668C100.551 239.86 101.001 239.956 101.469 239.956C101.913 239.956 102.291 239.854 102.603 239.65C102.927 239.446 103.089 239.128 103.089 238.696C103.089 238.324 102.951 237.988 102.675 237.688C102.399 237.388 101.985 237.046 101.433 236.662C100.929 236.314 100.503 235.906 100.155 235.438C99.8194 234.958 99.6514 234.382 99.6514 233.71C99.6514 233.134 99.8134 232.624 100.137 232.18C100.473 231.736 100.929 231.394 101.505 231.154C102.093 230.902 102.765 230.776 103.521 230.776C103.965 230.776 104.415 230.812 104.871 230.884C105.327 230.956 105.633 231.034 105.789 231.118L105.447 232.72ZM117.401 232.72C117.257 232.552 117.017 232.378 116.681 232.198C116.357 232.018 115.979 231.928 115.547 231.928C115.067 231.928 114.677 232.036 114.377 232.252C114.089 232.456 113.945 232.762 113.945 233.17C113.945 233.53 114.065 233.854 114.305 234.142C114.557 234.418 114.959 234.754 115.511 235.15C116.123 235.606 116.591 236.05 116.915 236.482C117.239 236.902 117.401 237.442 117.401 238.102C117.401 238.762 117.221 239.326 116.861 239.794C116.501 240.25 116.021 240.598 115.421 240.838C114.821 241.066 114.161 241.18 113.441 241.18C112.901 241.18 112.349 241.12 111.785 241C111.221 240.868 110.855 240.73 110.687 240.586L111.047 239.056C111.299 239.272 111.641 239.476 112.073 239.668C112.505 239.86 112.955 239.956 113.423 239.956C113.867 239.956 114.245 239.854 114.557 239.65C114.881 239.446 115.043 239.128 115.043 238.696C115.043 238.324 114.905 237.988 114.629 237.688C114.353 237.388 113.939 237.046 113.387 236.662C112.883 236.314 112.457 235.906 112.109 235.438C111.773 234.958 111.605 234.382 111.605 233.71C111.605 233.134 111.767 232.624 112.091 232.18C112.427 231.736 112.883 231.394 113.459 231.154C114.047 230.902 114.719 230.776 115.475 230.776C115.919 230.776 116.369 230.812 116.825 230.884C117.281 230.956 117.587 231.034 117.743 231.118L117.401 232.72ZM124.344 230.758C125.592 230.758 126.546 231.124 127.206 231.856C127.866 232.576 128.196 233.614 128.196 234.97C128.196 236.086 127.968 237.124 127.512 238.084C127.056 239.044 126.414 239.812 125.586 240.388C124.758 240.952 123.81 241.234 122.742 241.234C121.494 241.234 120.54 240.868 119.88 240.136C119.232 239.392 118.908 238.336 118.908 236.968C118.908 235.84 119.13 234.802 119.574 233.854C120.03 232.906 120.672 232.156 121.5 231.604C122.328 231.04 123.276 230.758 124.344 230.758ZM124.038 231.892C123.486 231.892 123.018 232.144 122.634 232.648C122.25 233.14 121.962 233.77 121.77 234.538C121.59 235.306 121.5 236.092 121.5 236.896C121.5 238.036 121.626 238.87 121.878 239.398C122.142 239.926 122.55 240.19 123.102 240.19C123.642 240.19 124.098 239.938 124.47 239.434C124.842 238.93 125.118 238.288 125.298 237.508C125.478 236.728 125.568 235.93 125.568 235.114C125.568 233.974 125.442 233.152 125.19 232.648C124.95 232.144 124.566 231.892 124.038 231.892ZM133.144 232.954C133.588 232.294 134.116 231.766 134.728 231.37C135.34 230.974 135.982 230.776 136.654 230.776C138.142 230.776 138.886 231.658 138.886 233.422C138.886 233.89 138.736 234.934 138.436 236.554C138.388 236.866 138.346 237.106 138.31 237.274C138.142 238.222 138.052 238.906 138.04 239.326V239.398C138.04 239.698 138.136 239.848 138.328 239.848C138.436 239.848 138.55 239.818 138.67 239.758C138.79 239.698 138.946 239.59 139.138 239.434L139.39 239.992C139.21 240.244 138.916 240.508 138.508 240.784C138.1 241.048 137.602 241.18 137.014 241.18C136.45 241.18 136.06 241.06 135.844 240.82C135.628 240.568 135.52 240.238 135.52 239.83C135.532 239.47 135.646 238.756 135.862 237.688L135.97 237.076C135.994 236.968 136.042 236.68 136.114 236.212C136.198 235.744 136.264 235.3 136.312 234.88C136.36 234.448 136.384 234.076 136.384 233.764C136.384 233.212 136.318 232.834 136.186 232.63C136.066 232.426 135.844 232.324 135.52 232.324C135.124 232.324 134.68 232.546 134.188 232.99C133.708 233.434 133.294 233.968 132.946 234.592L132.082 241H129.724L130.876 232.432L129.958 231.946L130.102 231.208L132.91 230.776L133.324 230.974L133.144 232.954ZM143.798 237.706C143.714 238.402 143.672 238.822 143.672 238.966C143.672 239.242 143.726 239.44 143.834 239.56C143.942 239.668 144.128 239.722 144.392 239.722C144.632 239.722 144.902 239.668 145.202 239.56C145.514 239.44 145.772 239.296 145.976 239.128L146.174 239.794C145.862 240.142 145.418 240.46 144.842 240.748C144.266 241.036 143.618 241.18 142.898 241.18C142.394 241.18 141.992 241.054 141.692 240.802C141.404 240.538 141.26 240.124 141.26 239.56C141.26 239.32 141.32 238.756 141.44 237.868L142.196 232.288H141.116L141.314 231.424L142.394 231.046C142.754 230.71 143.18 229.882 143.672 228.562H145.022L144.716 231.01H146.876L146.696 232.288H144.536L143.798 237.706ZM154.738 235.798C154.69 236.242 154.648 236.554 154.612 236.734C154.492 237.67 154.432 238.27 154.432 238.534C154.432 239.014 154.516 239.356 154.684 239.56C154.852 239.764 155.104 239.866 155.44 239.866C155.824 239.866 156.202 239.746 156.574 239.506C156.958 239.266 157.282 238.978 157.546 238.642L158.59 230.866H160.966L159.814 239.2C159.79 239.416 159.808 239.578 159.868 239.686C159.928 239.794 160.018 239.848 160.138 239.848C160.246 239.848 160.36 239.818 160.48 239.758C160.6 239.686 160.768 239.56 160.984 239.38L161.236 239.938C161.08 240.19 160.792 240.46 160.372 240.748C159.952 241.036 159.472 241.18 158.932 241.18C158.512 241.18 158.188 241.09 157.96 240.91C157.744 240.73 157.624 240.484 157.6 240.172L157.582 239.956C157.582 239.86 157.594 239.74 157.618 239.596L157.582 239.578C156.694 240.646 155.65 241.18 154.45 241.18C153.778 241.18 153.208 241 152.74 240.64C152.272 240.268 152.032 239.68 152.02 238.876C152.02 238.408 152.104 237.562 152.272 236.338C152.32 236.038 152.35 235.834 152.362 235.726L152.848 232.45L151.804 231.838L151.948 231.1L154.936 230.794L155.35 230.992L154.738 235.798ZM166.191 232.954C166.635 232.294 167.163 231.766 167.775 231.37C168.387 230.974 169.029 230.776 169.701 230.776C171.189 230.776 171.933 231.658 171.933 233.422C171.933 233.89 171.783 234.934 171.483 236.554C171.435 236.866 171.393 237.106 171.357 237.274C171.189 238.222 171.099 238.906 171.087 239.326V239.398C171.087 239.698 171.183 239.848 171.375 239.848C171.483 239.848 171.597 239.818 171.717 239.758C171.837 239.698 171.993 239.59 172.185 239.434L172.437 239.992C172.257 240.244 171.963 240.508 171.555 240.784C171.147 241.048 170.649 241.18 170.061 241.18C169.497 241.18 169.107 241.06 168.891 240.82C168.675 240.568 168.567 240.238 168.567 239.83C168.579 239.47 168.693 238.756 168.909 237.688L169.017 237.076C169.041 236.968 169.089 236.68 169.161 236.212C169.245 235.744 169.311 235.3 169.359 234.88C169.407 234.448 169.431 234.076 169.431 233.764C169.431 233.212 169.365 232.834 169.233 232.63C169.113 232.426 168.891 232.324 168.567 232.324C168.171 232.324 167.727 232.546 167.235 232.99C166.755 233.434 166.341 233.968 165.993 234.592L165.129 241H162.771L163.923 232.432L163.005 231.946L163.149 231.208L165.957 230.776L166.371 230.974L166.191 232.954ZM181.543 239.2C181.231 239.692 180.721 240.154 180.013 240.586C179.317 241.018 178.507 241.234 177.583 241.234C176.719 241.234 176.005 241.048 175.441 240.676C174.889 240.304 174.487 239.818 174.235 239.218C173.983 238.618 173.857 237.964 173.857 237.256C173.857 236.056 174.097 234.964 174.577 233.98C175.069 232.984 175.735 232.198 176.575 231.622C177.415 231.046 178.351 230.758 179.383 230.758C180.307 230.758 180.991 230.974 181.435 231.406C181.891 231.826 182.119 232.378 182.119 233.062C182.119 233.926 181.807 234.646 181.183 235.222C180.559 235.798 179.809 236.23 178.933 236.518C178.057 236.794 177.229 236.944 176.449 236.968C176.425 237.832 176.563 238.528 176.863 239.056C177.175 239.584 177.643 239.848 178.267 239.848C179.299 239.848 180.235 239.368 181.075 238.408L181.543 239.2ZM178.843 231.874C178.135 231.874 177.577 232.3 177.169 233.152C176.761 234.004 176.521 234.952 176.449 235.996C176.917 235.972 177.409 235.846 177.925 235.618C178.453 235.39 178.891 235.072 179.239 234.664C179.599 234.244 179.779 233.764 179.779 233.224C179.779 232.792 179.695 232.462 179.527 232.234C179.371 231.994 179.143 231.874 178.843 231.874ZM190.97 233.368C191.198 232.684 191.588 232.084 192.14 231.568C192.704 231.04 193.334 230.776 194.03 230.776C194.27 230.776 194.474 230.83 194.642 230.938L194.12 233.53C194.048 233.47 193.928 233.416 193.76 233.368C193.604 233.308 193.412 233.278 193.184 233.278C192.752 233.278 192.338 233.374 191.942 233.566C191.546 233.746 191.24 234.01 191.024 234.358L190.142 241H187.802L188.936 232.45L188.018 231.946L188.144 231.226L190.718 230.794L191.132 231.046L191.042 232.684L190.97 233.368ZM202.906 239.164C202.894 239.212 202.888 239.284 202.888 239.38C202.888 239.692 203.008 239.848 203.248 239.848C203.44 239.848 203.71 239.704 204.058 239.416L204.31 239.974C204.154 240.214 203.872 240.478 203.464 240.766C203.068 241.042 202.606 241.18 202.078 241.18C201.67 241.18 201.346 241.09 201.106 240.91C200.866 240.73 200.74 240.454 200.728 240.082L200.764 239.776C200.428 240.172 200.02 240.508 199.54 240.784C199.06 241.048 198.532 241.18 197.956 241.18C196.948 241.18 196.192 240.838 195.688 240.154C195.196 239.458 194.95 238.552 194.95 237.436C194.95 236.332 195.178 235.27 195.634 234.25C196.102 233.23 196.78 232.396 197.668 231.748C198.556 231.1 199.612 230.776 200.836 230.776C201.148 230.776 201.484 230.812 201.844 230.884C202.216 230.956 202.54 231.04 202.816 231.136L204.058 230.776L202.906 239.164ZM201.52 232.054C201.292 231.946 200.998 231.892 200.638 231.892C199.918 231.892 199.318 232.168 198.838 232.72C198.358 233.26 198.004 233.95 197.776 234.79C197.56 235.618 197.452 236.458 197.452 237.31C197.452 238.102 197.572 238.72 197.812 239.164C198.052 239.596 198.406 239.812 198.874 239.812C199.174 239.812 199.474 239.71 199.774 239.506C200.086 239.302 200.362 239.062 200.602 238.786L201.52 232.054ZM208.52 239.2C208.508 239.26 208.502 239.332 208.502 239.416C208.502 239.704 208.604 239.848 208.808 239.848C208.916 239.848 209.036 239.812 209.168 239.74C209.3 239.668 209.468 239.548 209.672 239.38L209.906 239.938C209.702 240.214 209.396 240.49 208.988 240.766C208.592 241.042 208.106 241.18 207.53 241.18C207.062 241.18 206.696 241.09 206.432 240.91C206.168 240.718 206.036 240.46 206.036 240.136L206.054 239.956C206.126 239.332 206.372 237.52 206.792 234.52L207.08 232.432L206.018 231.928L206.144 231.226L209.24 230.794L209.672 230.992L208.52 239.2ZM208.718 229.066C208.394 229.066 208.112 228.946 207.872 228.706C207.644 228.454 207.53 228.166 207.53 227.842C207.53 227.398 207.674 227.026 207.962 226.726C208.262 226.426 208.64 226.276 209.096 226.276C209.468 226.276 209.762 226.396 209.978 226.636C210.194 226.864 210.302 227.14 210.302 227.464C210.302 227.92 210.164 228.304 209.888 228.616C209.612 228.916 209.222 229.066 208.718 229.066ZM217.543 232.72C217.399 232.552 217.159 232.378 216.823 232.198C216.499 232.018 216.121 231.928 215.689 231.928C215.209 231.928 214.819 232.036 214.519 232.252C214.231 232.456 214.087 232.762 214.087 233.17C214.087 233.53 214.207 233.854 214.447 234.142C214.699 234.418 215.101 234.754 215.653 235.15C216.265 235.606 216.733 236.05 217.057 236.482C217.381 236.902 217.543 237.442 217.543 238.102C217.543 238.762 217.363 239.326 217.003 239.794C216.643 240.25 216.163 240.598 215.563 240.838C214.963 241.066 214.303 241.18 213.583 241.18C213.043 241.18 212.491 241.12 211.927 241C211.363 240.868 210.997 240.73 210.829 240.586L211.189 239.056C211.441 239.272 211.783 239.476 212.215 239.668C212.647 239.86 213.097 239.956 213.565 239.956C214.009 239.956 214.387 239.854 214.699 239.65C215.023 239.446 215.185 239.128 215.185 238.696C215.185 238.324 215.047 237.988 214.771 237.688C214.495 237.388 214.081 237.046 213.529 236.662C213.025 236.314 212.599 235.906 212.251 235.438C211.915 234.958 211.747 234.382 211.747 233.71C211.747 233.134 211.909 232.624 212.233 232.18C212.569 231.736 213.025 231.394 213.601 231.154C214.189 230.902 214.861 230.776 215.617 230.776C216.061 230.776 216.511 230.812 216.967 230.884C217.423 230.956 217.729 231.034 217.885 231.118L217.543 232.72ZM224.487 230.758C225.735 230.758 226.689 231.124 227.349 231.856C228.009 232.576 228.339 233.614 228.339 234.97C228.339 236.086 228.111 237.124 227.655 238.084C227.199 239.044 226.557 239.812 225.729 240.388C224.901 240.952 223.953 241.234 222.885 241.234C221.637 241.234 220.683 240.868 220.023 240.136C219.375 239.392 219.051 238.336 219.051 236.968C219.051 235.84 219.273 234.802 219.717 233.854C220.173 232.906 220.815 232.156 221.643 231.604C222.471 231.04 223.419 230.758 224.487 230.758ZM224.181 231.892C223.629 231.892 223.161 232.144 222.777 232.648C222.393 233.14 222.105 233.77 221.913 234.538C221.733 235.306 221.643 236.092 221.643 236.896C221.643 238.036 221.769 238.87 222.021 239.398C222.285 239.926 222.693 240.19 223.245 240.19C223.785 240.19 224.241 239.938 224.613 239.434C224.985 238.93 225.261 238.288 225.441 237.508C225.621 236.728 225.711 235.93 225.711 235.114C225.711 233.974 225.585 233.152 225.333 232.648C225.093 232.144 224.709 231.892 224.181 231.892ZM233.286 232.954C233.73 232.294 234.258 231.766 234.87 231.37C235.482 230.974 236.124 230.776 236.796 230.776C238.284 230.776 239.028 231.658 239.028 233.422C239.028 233.89 238.878 234.934 238.578 236.554C238.53 236.866 238.488 237.106 238.452 237.274C238.284 238.222 238.194 238.906 238.182 239.326V239.398C238.182 239.698 238.278 239.848 238.47 239.848C238.578 239.848 238.692 239.818 238.812 239.758C238.932 239.698 239.088 239.59 239.28 239.434L239.532 239.992C239.352 240.244 239.058 240.508 238.65 240.784C238.242 241.048 237.744 241.18 237.156 241.18C236.592 241.18 236.202 241.06 235.986 240.82C235.77 240.568 235.662 240.238 235.662 239.83C235.674 239.47 235.788 238.756 236.004 237.688L236.112 237.076C236.136 236.968 236.184 236.68 236.256 236.212C236.34 235.744 236.406 235.3 236.454 234.88C236.502 234.448 236.526 234.076 236.526 233.764C236.526 233.212 236.46 232.834 236.328 232.63C236.208 232.426 235.986 232.324 235.662 232.324C235.266 232.324 234.822 232.546 234.33 232.99C233.85 233.434 233.436 233.968 233.088 234.592L232.224 241H229.866L231.018 232.432L230.1 231.946L230.244 231.208L233.052 230.776L233.466 230.974L233.286 232.954ZM253.324 239.182C253.312 239.23 253.306 239.302 253.306 239.398C253.306 239.698 253.408 239.848 253.612 239.848C253.816 239.848 254.086 239.71 254.422 239.434L254.674 239.992C254.002 240.784 253.258 241.18 252.442 241.18C252.022 241.18 251.704 241.078 251.488 240.874C251.272 240.67 251.146 240.358 251.11 239.938V239.668C250.81 240.088 250.408 240.448 249.904 240.748C249.4 241.036 248.824 241.18 248.176 241.18C247.168 241.18 246.418 240.838 245.926 240.154C245.434 239.458 245.188 238.552 245.188 237.436C245.188 236.32 245.41 235.252 245.854 234.232C246.298 233.212 246.958 232.384 247.834 231.748C248.722 231.1 249.79 230.776 251.038 230.776C251.386 230.776 251.752 230.824 252.136 230.92L252.586 227.878L251.29 227.518L251.452 226.852L254.692 226.492L255.142 226.726L253.324 239.182ZM251.956 232.144C251.656 231.976 251.278 231.892 250.822 231.892C250.09 231.892 249.49 232.174 249.022 232.738C248.554 233.29 248.212 233.98 247.996 234.808C247.78 235.636 247.672 236.476 247.672 237.328C247.672 238.12 247.792 238.732 248.032 239.164C248.284 239.596 248.638 239.812 249.094 239.812C249.466 239.812 249.82 239.698 250.156 239.47C250.492 239.23 250.768 238.948 250.984 238.624L251.956 232.144ZM263.703 239.2C263.391 239.692 262.881 240.154 262.173 240.586C261.477 241.018 260.667 241.234 259.743 241.234C258.879 241.234 258.165 241.048 257.601 240.676C257.049 240.304 256.647 239.818 256.395 239.218C256.143 238.618 256.017 237.964 256.017 237.256C256.017 236.056 256.257 234.964 256.737 233.98C257.229 232.984 257.895 232.198 258.735 231.622C259.575 231.046 260.511 230.758 261.543 230.758C262.467 230.758 263.151 230.974 263.595 231.406C264.051 231.826 264.279 232.378 264.279 233.062C264.279 233.926 263.967 234.646 263.343 235.222C262.719 235.798 261.969 236.23 261.093 236.518C260.217 236.794 259.389 236.944 258.609 236.968C258.585 237.832 258.723 238.528 259.023 239.056C259.335 239.584 259.803 239.848 260.427 239.848C261.459 239.848 262.395 239.368 263.235 238.408L263.703 239.2ZM261.003 231.874C260.295 231.874 259.737 232.3 259.329 233.152C258.921 234.004 258.681 234.952 258.609 235.996C259.077 235.972 259.569 235.846 260.085 235.618C260.613 235.39 261.051 235.072 261.399 234.664C261.759 234.244 261.939 233.764 261.939 233.224C261.939 232.792 261.855 232.462 261.687 232.234C261.531 231.994 261.303 231.874 261.003 231.874ZM273.365 232.954C273.809 232.294 274.337 231.766 274.949 231.37C275.561 230.974 276.203 230.776 276.875 230.776C278.363 230.776 279.107 231.658 279.107 233.422C279.107 233.89 278.957 234.934 278.657 236.554C278.609 236.866 278.567 237.106 278.531 237.274C278.363 238.222 278.273 238.906 278.261 239.326V239.398C278.261 239.698 278.357 239.848 278.549 239.848C278.657 239.848 278.771 239.818 278.891 239.758C279.011 239.698 279.167 239.59 279.359 239.434L279.611 239.992C279.431 240.244 279.137 240.508 278.729 240.784C278.321 241.048 277.823 241.18 277.235 241.18C276.671 241.18 276.281 241.06 276.065 240.82C275.849 240.568 275.741 240.238 275.741 239.83C275.753 239.47 275.867 238.756 276.083 237.688L276.191 237.076C276.215 236.968 276.263 236.68 276.335 236.212C276.419 235.744 276.485 235.3 276.533 234.88C276.581 234.448 276.605 234.076 276.605 233.764C276.605 233.212 276.539 232.834 276.407 232.63C276.287 232.426 276.065 232.324 275.741 232.324C275.345 232.324 274.901 232.546 274.409 232.99C273.929 233.434 273.515 233.968 273.167 234.592L272.303 241H269.945L271.097 232.432L270.179 231.946L270.323 231.208L273.131 230.776L273.545 230.974L273.365 232.954ZM288.716 239.2C288.404 239.692 287.894 240.154 287.186 240.586C286.49 241.018 285.68 241.234 284.756 241.234C283.892 241.234 283.178 241.048 282.614 240.676C282.062 240.304 281.66 239.818 281.408 239.218C281.156 238.618 281.03 237.964 281.03 237.256C281.03 236.056 281.27 234.964 281.75 233.98C282.242 232.984 282.908 232.198 283.748 231.622C284.588 231.046 285.524 230.758 286.556 230.758C287.48 230.758 288.164 230.974 288.608 231.406C289.064 231.826 289.292 232.378 289.292 233.062C289.292 233.926 288.98 234.646 288.356 235.222C287.732 235.798 286.982 236.23 286.106 236.518C285.23 236.794 284.402 236.944 283.622 236.968C283.598 237.832 283.736 238.528 284.036 239.056C284.348 239.584 284.816 239.848 285.44 239.848C286.472 239.848 287.408 239.368 288.248 238.408L288.716 239.2ZM286.016 231.874C285.308 231.874 284.75 232.3 284.342 233.152C283.934 234.004 283.694 234.952 283.622 235.996C284.09 235.972 284.582 235.846 285.098 235.618C285.626 235.39 286.064 235.072 286.412 234.664C286.772 234.244 286.952 233.764 286.952 233.224C286.952 232.792 286.868 232.462 286.7 232.234C286.544 231.994 286.316 231.874 286.016 231.874ZM45.1565 254.964C45.4685 254.616 45.8465 254.334 46.2905 254.118C46.7345 253.89 47.2205 253.776 47.7485 253.776C48.7445 253.776 49.5005 254.112 50.0165 254.784C50.5325 255.456 50.7905 256.392 50.7905 257.592C50.7905 258.732 50.5505 259.806 50.0705 260.814C49.5905 261.822 48.9065 262.638 48.0185 263.262C47.1425 263.874 46.1285 264.18 44.9765 264.18C44.6645 264.18 44.3105 264.138 43.9145 264.054L43.2845 268.572H40.9805L42.7625 255.378L41.8085 254.928L41.9525 254.208L44.8685 253.776L45.2825 253.974L45.1565 254.964ZM44.0765 262.848C44.3525 262.992 44.7305 263.064 45.2105 263.064C45.8945 263.064 46.4645 262.8 46.9205 262.272C47.3885 261.744 47.7305 261.066 47.9465 260.238C48.1745 259.41 48.2885 258.54 48.2885 257.628C48.2885 256.884 48.1625 256.284 47.9105 255.828C47.6705 255.372 47.3165 255.144 46.8485 255.144C46.4765 255.144 46.1345 255.258 45.8225 255.486C45.5105 255.702 45.2345 255.972 44.9945 256.296L44.0765 262.848ZM59.9694 262.164C59.9574 262.212 59.9514 262.284 59.9514 262.38C59.9514 262.692 60.0714 262.848 60.3114 262.848C60.5034 262.848 60.7734 262.704 61.1214 262.416L61.3734 262.974C61.2174 263.214 60.9354 263.478 60.5274 263.766C60.1314 264.042 59.6694 264.18 59.1414 264.18C58.7334 264.18 58.4094 264.09 58.1694 263.91C57.9294 263.73 57.8034 263.454 57.7914 263.082L57.8274 262.776C57.4914 263.172 57.0834 263.508 56.6034 263.784C56.1234 264.048 55.5954 264.18 55.0194 264.18C54.0114 264.18 53.2554 263.838 52.7514 263.154C52.2594 262.458 52.0134 261.552 52.0134 260.436C52.0134 259.332 52.2414 258.27 52.6974 257.25C53.1654 256.23 53.8434 255.396 54.7314 254.748C55.6194 254.1 56.6754 253.776 57.8994 253.776C58.2114 253.776 58.5474 253.812 58.9074 253.884C59.2794 253.956 59.6034 254.04 59.8794 254.136L61.1214 253.776L59.9694 262.164ZM58.5834 255.054C58.3554 254.946 58.0614 254.892 57.7014 254.892C56.9814 254.892 56.3814 255.168 55.9014 255.72C55.4214 256.26 55.0674 256.95 54.8394 257.79C54.6234 258.618 54.5154 259.458 54.5154 260.31C54.5154 261.102 54.6354 261.72 54.8754 262.164C55.1154 262.596 55.4694 262.812 55.9374 262.812C56.2374 262.812 56.5374 262.71 56.8374 262.506C57.1494 262.302 57.4254 262.062 57.6654 261.786L58.5834 255.054ZM68.8058 255.72C68.6618 255.552 68.4218 255.378 68.0858 255.198C67.7618 255.018 67.3838 254.928 66.9518 254.928C66.4718 254.928 66.0818 255.036 65.7818 255.252C65.4938 255.456 65.3498 255.762 65.3498 256.17C65.3498 256.53 65.4698 256.854 65.7098 257.142C65.9618 257.418 66.3638 257.754 66.9158 258.15C67.5278 258.606 67.9958 259.05 68.3198 259.482C68.6438 259.902 68.8058 260.442 68.8058 261.102C68.8058 261.762 68.6258 262.326 68.2658 262.794C67.9058 263.25 67.4258 263.598 66.8258 263.838C66.2258 264.066 65.5658 264.18 64.8458 264.18C64.3058 264.18 63.7538 264.12 63.1898 264C62.6258 263.868 62.2598 263.73 62.0918 263.586L62.4518 262.056C62.7038 262.272 63.0458 262.476 63.4778 262.668C63.9098 262.86 64.3598 262.956 64.8278 262.956C65.2718 262.956 65.6498 262.854 65.9618 262.65C66.2858 262.446 66.4478 262.128 66.4478 261.696C66.4478 261.324 66.3098 260.988 66.0338 260.688C65.7578 260.388 65.3438 260.046 64.7918 259.662C64.2878 259.314 63.8618 258.906 63.5138 258.438C63.1778 257.958 63.0098 257.382 63.0098 256.71C63.0098 256.134 63.1718 255.624 63.4958 255.18C63.8318 254.736 64.2878 254.394 64.8638 254.154C65.4518 253.902 66.1238 253.776 66.8798 253.776C67.3238 253.776 67.7738 253.812 68.2298 253.884C68.6858 253.956 68.9918 254.034 69.1478 254.118L68.8058 255.72ZM82.4869 262.164C82.4749 262.212 82.4689 262.284 82.4689 262.38C82.4689 262.692 82.5889 262.848 82.8289 262.848C83.0209 262.848 83.2909 262.704 83.6389 262.416L83.8909 262.974C83.7349 263.214 83.4529 263.478 83.0449 263.766C82.6489 264.042 82.1869 264.18 81.6589 264.18C81.2509 264.18 80.9269 264.09 80.6869 263.91C80.4469 263.73 80.3209 263.454 80.3089 263.082L80.3449 262.776C80.0089 263.172 79.6009 263.508 79.1209 263.784C78.6409 264.048 78.1129 264.18 77.5369 264.18C76.5289 264.18 75.7729 263.838 75.2689 263.154C74.7769 262.458 74.5309 261.552 74.5309 260.436C74.5309 259.332 74.7589 258.27 75.2149 257.25C75.6829 256.23 76.3609 255.396 77.2489 254.748C78.1369 254.1 79.1929 253.776 80.4169 253.776C80.7289 253.776 81.0649 253.812 81.4249 253.884C81.7969 253.956 82.1209 254.04 82.3969 254.136L83.6389 253.776L82.4869 262.164ZM81.1009 255.054C80.8729 254.946 80.5789 254.892 80.2189 254.892C79.4989 254.892 78.8989 255.168 78.4189 255.72C77.9389 256.26 77.5849 256.95 77.3569 257.79C77.1409 258.618 77.0329 259.458 77.0329 260.31C77.0329 261.102 77.1529 261.72 77.3929 262.164C77.6329 262.596 77.9869 262.812 78.4549 262.812C78.7549 262.812 79.0549 262.71 79.3549 262.506C79.6669 262.302 79.9429 262.062 80.1829 261.786L81.1009 255.054ZM85.7254 255.702C85.6654 255.378 85.5334 255.204 85.3294 255.18C85.1974 255.18 85.0834 255.21 84.9874 255.27C84.8914 255.33 84.8374 255.366 84.8254 255.378L84.5734 254.766C84.7174 254.586 84.9814 254.376 85.3654 254.136C85.7494 253.896 86.1754 253.776 86.6434 253.776C87.1114 253.776 87.4594 253.878 87.6874 254.082C87.9154 254.286 88.0594 254.586 88.1194 254.982L88.8934 260.292L89.1454 262.2L89.8834 261.174C90.4234 260.358 90.8254 259.596 91.0894 258.888C91.3654 258.168 91.5274 257.406 91.5754 256.602C91.5874 256.374 91.5454 256.068 91.4494 255.684C91.3654 255.372 91.3234 255.108 91.3234 254.892C91.3234 254.568 91.4254 254.304 91.6294 254.1C91.8334 253.884 92.1094 253.776 92.4574 253.776C92.9254 253.776 93.2674 253.956 93.4834 254.316C93.7114 254.664 93.8254 255.108 93.8254 255.648C93.8254 257.136 92.6614 259.356 90.3334 262.308L88.9654 264.054L87.3814 264.18L86.7334 260.886L85.7254 255.702ZM100.042 253.758C101.29 253.758 102.244 254.124 102.904 254.856C103.564 255.576 103.894 256.614 103.894 257.97C103.894 259.086 103.666 260.124 103.21 261.084C102.754 262.044 102.112 262.812 101.284 263.388C100.456 263.952 99.5084 264.234 98.4404 264.234C97.1924 264.234 96.2384 263.868 95.5784 263.136C94.9304 262.392 94.6064 261.336 94.6064 259.968C94.6064 258.84 94.8284 257.802 95.2724 256.854C95.7284 255.906 96.3704 255.156 97.1984 254.604C98.0264 254.04 98.9744 253.758 100.042 253.758ZM99.7364 254.892C99.1844 254.892 98.7164 255.144 98.3324 255.648C97.9484 256.14 97.6604 256.77 97.4684 257.538C97.2884 258.306 97.1984 259.092 97.1984 259.896C97.1984 261.036 97.3244 261.87 97.5764 262.398C97.8404 262.926 98.2484 263.19 98.8004 263.19C99.3404 263.19 99.7964 262.938 100.168 262.434C100.54 261.93 100.816 261.288 100.996 260.508C101.176 259.728 101.266 258.93 101.266 258.114C101.266 256.974 101.14 256.152 100.888 255.648C100.648 255.144 100.264 254.892 99.7364 254.892ZM108.158 262.2C108.146 262.26 108.14 262.332 108.14 262.416C108.14 262.704 108.242 262.848 108.446 262.848C108.554 262.848 108.674 262.812 108.806 262.74C108.938 262.668 109.106 262.548 109.31 262.38L109.544 262.938C109.34 263.214 109.034 263.49 108.626 263.766C108.23 264.042 107.744 264.18 107.168 264.18C106.7 264.18 106.334 264.09 106.07 263.91C105.806 263.718 105.674 263.46 105.674 263.136L105.692 262.956C105.764 262.332 106.01 260.52 106.43 257.52L106.718 255.432L105.656 254.928L105.782 254.226L108.878 253.794L109.31 253.992L108.158 262.2ZM108.356 252.066C108.032 252.066 107.75 251.946 107.51 251.706C107.282 251.454 107.168 251.166 107.168 250.842C107.168 250.398 107.312 250.026 107.6 249.726C107.9 249.426 108.278 249.276 108.734 249.276C109.106 249.276 109.4 249.396 109.616 249.636C109.832 249.864 109.94 250.14 109.94 250.464C109.94 250.92 109.802 251.304 109.526 251.616C109.25 251.916 108.86 252.066 108.356 252.066ZM114.409 256.368C114.637 255.684 115.027 255.084 115.579 254.568C116.143 254.04 116.773 253.776 117.469 253.776C117.709 253.776 117.913 253.83 118.081 253.938L117.559 256.53C117.487 256.47 117.367 256.416 117.199 256.368C117.043 256.308 116.851 256.278 116.623 256.278C116.191 256.278 115.777 256.374 115.381 256.566C114.985 256.746 114.679 257.01 114.463 257.358L113.581 264H111.241L112.375 255.45L111.457 254.946L111.583 254.226L114.157 253.794L114.571 254.046L114.481 255.684L114.409 256.368ZM130.778 262.182C130.766 262.23 130.76 262.302 130.76 262.398C130.76 262.698 130.862 262.848 131.066 262.848C131.27 262.848 131.54 262.71 131.876 262.434L132.128 262.992C131.456 263.784 130.712 264.18 129.896 264.18C129.476 264.18 129.158 264.078 128.942 263.874C128.726 263.67 128.6 263.358 128.564 262.938V262.668C128.264 263.088 127.862 263.448 127.358 263.748C126.854 264.036 126.278 264.18 125.63 264.18C124.622 264.18 123.872 263.838 123.38 263.154C122.888 262.458 122.642 261.552 122.642 260.436C122.642 259.32 122.864 258.252 123.308 257.232C123.752 256.212 124.412 255.384 125.288 254.748C126.176 254.1 127.244 253.776 128.492 253.776C128.84 253.776 129.206 253.824 129.59 253.92L130.04 250.878L128.744 250.518L128.906 249.852L132.146 249.492L132.596 249.726L130.778 262.182ZM129.41 255.144C129.11 254.976 128.732 254.892 128.276 254.892C127.544 254.892 126.944 255.174 126.476 255.738C126.008 256.29 125.666 256.98 125.45 257.808C125.234 258.636 125.126 259.476 125.126 260.328C125.126 261.12 125.246 261.732 125.486 262.164C125.738 262.596 126.092 262.812 126.548 262.812C126.92 262.812 127.274 262.698 127.61 262.47C127.946 262.23 128.222 261.948 128.438 261.624L129.41 255.144ZM137.665 249.168L136.225 255.504H134.731L135.469 249.168H137.665ZM146.419 262.164C146.407 262.212 146.401 262.284 146.401 262.38C146.401 262.692 146.521 262.848 146.761 262.848C146.953 262.848 147.223 262.704 147.571 262.416L147.823 262.974C147.667 263.214 147.385 263.478 146.977 263.766C146.581 264.042 146.119 264.18 145.591 264.18C145.183 264.18 144.859 264.09 144.619 263.91C144.379 263.73 144.253 263.454 144.241 263.082L144.277 262.776C143.941 263.172 143.533 263.508 143.053 263.784C142.573 264.048 142.045 264.18 141.469 264.18C140.461 264.18 139.705 263.838 139.201 263.154C138.709 262.458 138.463 261.552 138.463 260.436C138.463 259.332 138.691 258.27 139.147 257.25C139.615 256.23 140.293 255.396 141.181 254.748C142.069 254.1 143.125 253.776 144.349 253.776C144.661 253.776 144.997 253.812 145.357 253.884C145.729 253.956 146.053 254.04 146.329 254.136L147.571 253.776L146.419 262.164ZM145.033 255.054C144.805 254.946 144.511 254.892 144.151 254.892C143.431 254.892 142.831 255.168 142.351 255.72C141.871 256.26 141.517 256.95 141.289 257.79C141.073 258.618 140.965 259.458 140.965 260.31C140.965 261.102 141.085 261.72 141.325 262.164C141.565 262.596 141.919 262.812 142.387 262.812C142.687 262.812 142.987 262.71 143.287 262.506C143.599 262.302 143.875 262.062 144.115 261.786L145.033 255.054ZM152.303 258.798C152.255 259.242 152.213 259.554 152.177 259.734C152.057 260.67 151.997 261.27 151.997 261.534C151.997 262.014 152.081 262.356 152.249 262.56C152.417 262.764 152.669 262.866 153.005 262.866C153.389 262.866 153.767 262.746 154.139 262.506C154.523 262.266 154.847 261.978 155.111 261.642L156.155 253.866H158.531L157.379 262.2C157.355 262.416 157.373 262.578 157.433 262.686C157.493 262.794 157.583 262.848 157.703 262.848C157.811 262.848 157.925 262.818 158.045 262.758C158.165 262.686 158.333 262.56 158.549 262.38L158.801 262.938C158.645 263.19 158.357 263.46 157.937 263.748C157.517 264.036 157.037 264.18 156.497 264.18C156.077 264.18 155.753 264.09 155.525 263.91C155.309 263.73 155.189 263.484 155.165 263.172L155.147 262.956C155.147 262.86 155.159 262.74 155.183 262.596L155.147 262.578C154.259 263.646 153.215 264.18 152.015 264.18C151.343 264.18 150.773 264 150.305 263.64C149.837 263.268 149.597 262.68 149.585 261.876C149.585 261.408 149.669 260.562 149.837 259.338C149.885 259.038 149.915 258.834 149.927 258.726L150.413 255.45L149.369 254.838L149.513 254.1L152.501 253.794L152.915 253.992L152.303 258.798ZM163.072 260.706C162.988 261.402 162.946 261.822 162.946 261.966C162.946 262.242 163 262.44 163.108 262.56C163.216 262.668 163.402 262.722 163.666 262.722C163.906 262.722 164.176 262.668 164.476 262.56C164.788 262.44 165.046 262.296 165.25 262.128L165.448 262.794C165.136 263.142 164.692 263.46 164.116 263.748C163.54 264.036 162.892 264.18 162.172 264.18C161.668 264.18 161.266 264.054 160.966 263.802C160.678 263.538 160.534 263.124 160.534 262.56C160.534 262.32 160.594 261.756 160.714 260.868L161.47 255.288H160.39L160.588 254.424L161.668 254.046C162.028 253.71 162.454 252.882 162.946 251.562H164.296L163.99 254.01H166.15L165.97 255.288H163.81L163.072 260.706ZM169.921 256.368C170.149 255.684 170.539 255.084 171.091 254.568C171.655 254.04 172.285 253.776 172.981 253.776C173.221 253.776 173.425 253.83 173.593 253.938L173.071 256.53C172.999 256.47 172.879 256.416 172.711 256.368C172.555 256.308 172.363 256.278 172.135 256.278C171.703 256.278 171.289 256.374 170.893 256.566C170.497 256.746 170.191 257.01 169.975 257.358L169.093 264H166.753L167.887 255.45L166.969 254.946L167.095 254.226L169.669 253.794L170.083 254.046L169.993 255.684L169.921 256.368ZM181.604 262.2C181.292 262.692 180.782 263.154 180.074 263.586C179.378 264.018 178.568 264.234 177.644 264.234C176.78 264.234 176.066 264.048 175.502 263.676C174.95 263.304 174.548 262.818 174.296 262.218C174.044 261.618 173.918 260.964 173.918 260.256C173.918 259.056 174.158 257.964 174.638 256.98C175.13 255.984 175.796 255.198 176.636 254.622C177.476 254.046 178.412 253.758 179.444 253.758C180.368 253.758 181.052 253.974 181.496 254.406C181.952 254.826 182.18 255.378 182.18 256.062C182.18 256.926 181.868 257.646 181.244 258.222C180.62 258.798 179.87 259.23 178.994 259.518C178.118 259.794 177.29 259.944 176.51 259.968C176.486 260.832 176.624 261.528 176.924 262.056C177.236 262.584 177.704 262.848 178.328 262.848C179.36 262.848 180.296 262.368 181.136 261.408L181.604 262.2ZM178.904 254.874C178.196 254.874 177.638 255.3 177.23 256.152C176.822 257.004 176.582 257.952 176.51 258.996C176.978 258.972 177.47 258.846 177.986 258.618C178.514 258.39 178.952 258.072 179.3 257.664C179.66 257.244 179.84 256.764 179.84 256.224C179.84 255.792 179.756 255.462 179.588 255.234C179.432 254.994 179.204 254.874 178.904 254.874ZM189.532 255.72C189.388 255.552 189.148 255.378 188.812 255.198C188.488 255.018 188.11 254.928 187.678 254.928C187.198 254.928 186.808 255.036 186.508 255.252C186.22 255.456 186.076 255.762 186.076 256.17C186.076 256.53 186.196 256.854 186.436 257.142C186.688 257.418 187.09 257.754 187.642 258.15C188.254 258.606 188.722 259.05 189.046 259.482C189.37 259.902 189.532 260.442 189.532 261.102C189.532 261.762 189.352 262.326 188.992 262.794C188.632 263.25 188.152 263.598 187.552 263.838C186.952 264.066 186.292 264.18 185.572 264.18C185.032 264.18 184.48 264.12 183.916 264C183.352 263.868 182.986 263.73 182.818 263.586L183.178 262.056C183.43 262.272 183.772 262.476 184.204 262.668C184.636 262.86 185.086 262.956 185.554 262.956C185.998 262.956 186.376 262.854 186.688 262.65C187.012 262.446 187.174 262.128 187.174 261.696C187.174 261.324 187.036 260.988 186.76 260.688C186.484 260.388 186.07 260.046 185.518 259.662C185.014 259.314 184.588 258.906 184.24 258.438C183.904 257.958 183.736 257.382 183.736 256.71C183.736 256.134 183.898 255.624 184.222 255.18C184.558 254.736 185.014 254.394 185.59 254.154C186.178 253.902 186.85 253.776 187.606 253.776C188.05 253.776 188.5 253.812 188.956 253.884C189.412 253.956 189.718 254.034 189.874 254.118L189.532 255.72ZM202.962 262.2C202.65 262.692 202.14 263.154 201.432 263.586C200.736 264.018 199.926 264.234 199.002 264.234C198.138 264.234 197.424 264.048 196.86 263.676C196.308 263.304 195.906 262.818 195.654 262.218C195.402 261.618 195.276 260.964 195.276 260.256C195.276 259.056 195.516 257.964 195.996 256.98C196.488 255.984 197.154 255.198 197.994 254.622C198.834 254.046 199.77 253.758 200.802 253.758C201.726 253.758 202.41 253.974 202.854 254.406C203.31 254.826 203.538 255.378 203.538 256.062C203.538 256.926 203.226 257.646 202.602 258.222C201.978 258.798 201.228 259.23 200.352 259.518C199.476 259.794 198.648 259.944 197.868 259.968C197.844 260.832 197.982 261.528 198.282 262.056C198.594 262.584 199.062 262.848 199.686 262.848C200.718 262.848 201.654 262.368 202.494 261.408L202.962 262.2ZM200.262 254.874C199.554 254.874 198.996 255.3 198.588 256.152C198.18 257.004 197.94 257.952 197.868 258.996C198.336 258.972 198.828 258.846 199.344 258.618C199.872 258.39 200.31 258.072 200.658 257.664C201.018 257.244 201.198 256.764 201.198 256.224C201.198 255.792 201.114 255.462 200.946 255.234C200.79 254.994 200.562 254.874 200.262 254.874ZM208.352 255.954C208.796 255.294 209.324 254.766 209.936 254.37C210.548 253.974 211.19 253.776 211.862 253.776C213.35 253.776 214.094 254.658 214.094 256.422C214.094 256.89 213.944 257.934 213.644 259.554C213.596 259.866 213.554 260.106 213.518 260.274C213.35 261.222 213.26 261.906 213.248 262.326V262.398C213.248 262.698 213.344 262.848 213.536 262.848C213.644 262.848 213.758 262.818 213.878 262.758C213.998 262.698 214.154 262.59 214.346 262.434L214.598 262.992C214.418 263.244 214.124 263.508 213.716 263.784C213.308 264.048 212.81 264.18 212.222 264.18C211.658 264.18 211.268 264.06 211.052 263.82C210.836 263.568 210.728 263.238 210.728 262.83C210.74 262.47 210.854 261.756 211.07 260.688L211.178 260.076C211.202 259.968 211.25 259.68 211.322 259.212C211.406 258.744 211.472 258.3 211.52 257.88C211.568 257.448 211.592 257.076 211.592 256.764C211.592 256.212 211.526 255.834 211.394 255.63C211.274 255.426 211.052 255.324 210.728 255.324C210.332 255.324 209.888 255.546 209.396 255.99C208.916 256.434 208.502 256.968 208.154 257.592L207.29 264H204.932L206.084 255.432L205.166 254.946L205.31 254.208L208.118 253.776L208.532 253.974L208.352 255.954ZM217.926 253.146C218.046 252.426 218.28 251.778 218.628 251.202C218.988 250.626 219.444 250.17 219.996 249.834C220.548 249.498 221.166 249.33 221.85 249.33C222.486 249.33 222.99 249.402 223.362 249.546L222.858 250.986C222.51 250.722 222.108 250.59 221.652 250.59C221.208 250.59 220.884 250.758 220.68 251.094C220.488 251.43 220.344 251.946 220.248 252.642L220.068 253.956H222.048L221.814 255.306H219.888L218.898 263.298C218.706 264.774 218.268 266.01 217.584 267.006C216.912 268.002 216.012 268.506 214.884 268.518C214.608 268.53 214.32 268.518 214.02 268.482C213.708 268.446 213.462 268.404 213.282 268.356L213.75 266.844C213.906 266.916 214.134 266.994 214.434 267.078C214.722 267.174 214.956 267.222 215.136 267.222C215.46 267.222 215.712 267.06 215.892 266.736C216.084 266.424 216.222 265.95 216.306 265.314L217.548 255.306H216.396L216.558 254.514L217.782 253.992L217.926 253.146ZM230.038 262.164C230.026 262.212 230.02 262.284 230.02 262.38C230.02 262.692 230.14 262.848 230.38 262.848C230.572 262.848 230.842 262.704 231.19 262.416L231.442 262.974C231.286 263.214 231.004 263.478 230.596 263.766C230.2 264.042 229.738 264.18 229.21 264.18C228.802 264.18 228.478 264.09 228.238 263.91C227.998 263.73 227.872 263.454 227.86 263.082L227.896 262.776C227.56 263.172 227.152 263.508 226.672 263.784C226.192 264.048 225.664 264.18 225.088 264.18C224.08 264.18 223.324 263.838 222.82 263.154C222.328 262.458 222.082 261.552 222.082 260.436C222.082 259.332 222.31 258.27 222.766 257.25C223.234 256.23 223.912 255.396 224.8 254.748C225.688 254.1 226.744 253.776 227.968 253.776C228.28 253.776 228.616 253.812 228.976 253.884C229.348 253.956 229.672 254.04 229.948 254.136L231.19 253.776L230.038 262.164ZM228.652 255.054C228.424 254.946 228.13 254.892 227.77 254.892C227.05 254.892 226.45 255.168 225.97 255.72C225.49 256.26 225.136 256.95 224.908 257.79C224.692 258.618 224.584 259.458 224.584 260.31C224.584 261.102 224.704 261.72 224.944 262.164C225.184 262.596 225.538 262.812 226.006 262.812C226.306 262.812 226.606 262.71 226.906 262.506C227.218 262.302 227.494 262.062 227.734 261.786L228.652 255.054ZM236.336 255.954C236.78 255.294 237.308 254.766 237.92 254.37C238.532 253.974 239.174 253.776 239.846 253.776C241.334 253.776 242.078 254.658 242.078 256.422C242.078 256.89 241.928 257.934 241.628 259.554C241.58 259.866 241.538 260.106 241.502 260.274C241.334 261.222 241.244 261.906 241.232 262.326V262.398C241.232 262.698 241.328 262.848 241.52 262.848C241.628 262.848 241.742 262.818 241.862 262.758C241.982 262.698 242.138 262.59 242.33 262.434L242.582 262.992C242.402 263.244 242.108 263.508 241.7 263.784C241.292 264.048 240.794 264.18 240.206 264.18C239.642 264.18 239.252 264.06 239.036 263.82C238.82 263.568 238.712 263.238 238.712 262.83C238.724 262.47 238.838 261.756 239.054 260.688L239.162 260.076C239.186 259.968 239.234 259.68 239.306 259.212C239.39 258.744 239.456 258.3 239.504 257.88C239.552 257.448 239.576 257.076 239.576 256.764C239.576 256.212 239.51 255.834 239.378 255.63C239.258 255.426 239.036 255.324 238.712 255.324C238.316 255.324 237.872 255.546 237.38 255.99C236.9 256.434 236.486 256.968 236.138 257.592L235.274 264H232.916L234.068 255.432L233.15 254.946L233.294 254.208L236.102 253.776L236.516 253.974L236.336 255.954ZM246.99 260.706C246.906 261.402 246.864 261.822 246.864 261.966C246.864 262.242 246.918 262.44 247.026 262.56C247.134 262.668 247.32 262.722 247.584 262.722C247.824 262.722 248.094 262.668 248.394 262.56C248.706 262.44 248.964 262.296 249.168 262.128L249.366 262.794C249.054 263.142 248.61 263.46 248.034 263.748C247.458 264.036 246.81 264.18 246.09 264.18C245.586 264.18 245.184 264.054 244.884 263.802C244.596 263.538 244.452 263.124 244.452 262.56C244.452 262.32 244.512 261.756 244.632 260.868L245.388 255.288H244.308L244.506 254.424L245.586 254.046C245.946 253.71 246.372 252.882 246.864 251.562H248.214L247.908 254.01H250.068L249.888 255.288H247.728L246.99 260.706ZM256.611 255.72C256.467 255.552 256.227 255.378 255.891 255.198C255.567 255.018 255.189 254.928 254.757 254.928C254.277 254.928 253.887 255.036 253.587 255.252C253.299 255.456 253.155 255.762 253.155 256.17C253.155 256.53 253.275 256.854 253.515 257.142C253.767 257.418 254.169 257.754 254.721 258.15C255.333 258.606 255.801 259.05 256.125 259.482C256.449 259.902 256.611 260.442 256.611 261.102C256.611 261.762 256.431 262.326 256.071 262.794C255.711 263.25 255.231 263.598 254.631 263.838C254.031 264.066 253.371 264.18 252.651 264.18C252.111 264.18 251.559 264.12 250.995 264C250.431 263.868 250.065 263.73 249.897 263.586L250.257 262.056C250.509 262.272 250.851 262.476 251.283 262.668C251.715 262.86 252.165 262.956 252.633 262.956C253.077 262.956 253.455 262.854 253.767 262.65C254.091 262.446 254.253 262.128 254.253 261.696C254.253 261.324 254.115 260.988 253.839 260.688C253.563 260.388 253.149 260.046 252.597 259.662C252.093 259.314 251.667 258.906 251.319 258.438C250.983 257.958 250.815 257.382 250.815 256.71C250.815 256.134 250.977 255.624 251.301 255.18C251.637 254.736 252.093 254.394 252.669 254.154C253.257 253.902 253.929 253.776 254.685 253.776C255.129 253.776 255.579 253.812 256.035 253.884C256.491 253.956 256.797 254.034 256.953 254.118L256.611 255.72ZM257.92 262.92C257.92 262.452 258.07 262.068 258.37 261.768C258.67 261.456 259.012 261.3 259.396 261.3C259.78 261.3 260.08 261.426 260.296 261.678C260.512 261.918 260.62 262.212 260.62 262.56C260.62 263.076 260.464 263.478 260.152 263.766C259.852 264.042 259.486 264.18 259.054 264.18C258.742 264.18 258.472 264.066 258.244 263.838C258.028 263.598 257.92 263.292 257.92 262.92Z" fill="#394454"/>
<path d="M123.405 90.1364V84.9205L133.354 69.2727H138.087V76.2273H135.383L130.022 84.7273V84.9205H144.704V90.1364H123.405ZM135.431 94V88.5426L135.576 86.2727V69.2727H141.854V94H135.431ZM158.29 94.6761C156.044 94.6681 154.104 94.1489 152.47 93.1186C150.836 92.0883 149.577 90.6032 148.691 88.6634C147.806 86.7235 147.367 84.3973 147.375 81.6847C147.383 78.964 147.826 76.6539 148.703 74.7543C149.589 72.8546 150.844 71.4098 152.47 70.4197C154.104 69.4297 156.044 68.9347 158.29 68.9347C160.536 68.9347 162.475 69.4337 164.109 70.4318C165.743 71.4219 167.003 72.8667 167.889 74.7663C168.774 76.666 169.213 78.9721 169.205 81.6847C169.205 84.4134 168.762 86.7476 167.877 88.6875C166.991 90.6274 165.731 92.1125 164.097 93.1428C162.471 94.165 160.536 94.6761 158.29 94.6761ZM158.29 89.2188C159.449 89.2188 160.399 88.6151 161.139 87.4077C161.888 86.1922 162.258 84.2846 162.25 81.6847C162.25 79.9863 162.081 78.5978 161.743 77.5192C161.405 76.4406 160.938 75.6437 160.342 75.1286C159.747 74.6054 159.063 74.3438 158.29 74.3438C157.131 74.3438 156.185 74.9313 155.453 76.1065C154.72 77.2817 154.346 79.1411 154.33 81.6847C154.322 83.4152 154.487 84.84 154.825 85.9588C155.163 87.0696 155.63 87.8906 156.225 88.4219C156.829 88.9531 157.517 89.2188 158.29 89.2188ZM186.506 89.3636V88.0597C186.506 87.0133 186.732 86.0473 187.183 85.1619C187.641 84.2765 188.305 83.5642 189.175 83.0249C190.044 82.4856 191.103 82.2159 192.35 82.2159C193.63 82.2159 194.705 82.4815 195.574 83.0128C196.451 83.544 197.115 84.2524 197.566 85.1378C198.017 86.0232 198.242 86.9972 198.242 88.0597V89.3636C198.242 90.41 198.013 91.3759 197.554 92.2614C197.103 93.1468 196.439 93.8591 195.562 94.3984C194.685 94.9377 193.614 95.2074 192.35 95.2074C191.087 95.2074 190.02 94.9377 189.151 94.3984C188.281 93.8591 187.621 93.1468 187.171 92.2614C186.728 91.3759 186.506 90.41 186.506 89.3636ZM190.708 88.0597V89.3636C190.708 89.8224 190.821 90.2772 191.046 90.728C191.28 91.1707 191.714 91.392 192.35 91.392C193.018 91.392 193.457 91.1747 193.666 90.7401C193.884 90.3054 193.992 89.8466 193.992 89.3636V88.0597C193.992 87.5767 193.892 87.1098 193.69 86.6591C193.489 86.2083 193.042 85.983 192.35 85.983C191.714 85.983 191.28 86.2083 191.046 86.6591C190.821 87.1098 190.708 87.5767 190.708 88.0597ZM173.563 75.2131V73.9091C173.563 72.8466 173.793 71.8726 174.252 70.9872C174.718 70.1018 175.386 69.3935 176.256 68.8622C177.125 68.331 178.176 68.0653 179.407 68.0653C180.687 68.0653 181.761 68.331 182.631 68.8622C183.508 69.3935 184.172 70.1018 184.623 70.9872C185.074 71.8726 185.299 72.8466 185.299 73.9091V75.2131C185.299 76.2756 185.07 77.2455 184.611 78.1229C184.16 79.0002 183.496 79.7005 182.619 80.2237C181.741 80.7469 180.671 81.0085 179.407 81.0085C178.143 81.0085 177.077 80.7429 176.207 80.2116C175.338 79.6804 174.678 78.9761 174.227 78.0987C173.785 77.2214 173.563 76.2595 173.563 75.2131ZM177.813 73.9091V75.2131C177.813 75.696 177.926 76.1548 178.151 76.5895C178.377 77.0241 178.795 77.2415 179.407 77.2415C180.075 77.2415 180.514 77.0241 180.723 76.5895C180.94 76.1548 181.049 75.696 181.049 75.2131V73.9091C181.049 73.4261 180.948 72.9593 180.747 72.5085C180.546 72.0578 180.099 71.8324 179.407 71.8324C178.771 71.8324 178.345 72.0658 178.127 72.5327C177.918 72.9915 177.813 73.4503 177.813 73.9091ZM175.616 94L192.616 69.2727H196.045L179.045 94H175.616Z" fill="#F04E5A"/>
<path d="M153 7C168.838 7 184.27 12.0141 197.084 21.3237C209.897 30.6333 219.435 43.7605 224.329 58.8237C229.224 73.887 229.224 90.113 224.329 105.176C219.435 120.24 209.897 133.367 197.084 142.676L190.366 133.429C201.226 125.538 209.31 114.412 213.459 101.644C217.607 88.8766 217.607 75.1234 213.459 62.3558C209.31 49.5882 201.226 38.4616 190.366 30.5708C179.505 22.68 166.425 18.43 153 18.43L153 7Z" fill="#F04E5A"/>
</svg>
