<svg width="303" height="269" viewBox="0 0 303 269" fill="none" xmlns="http://www.w3.org/2000/svg">
<circle cx="152" cy="82" r="82" fill="#E9E9E9"/>
<path d="M14.9107 216.2C14.5987 216.692 14.0887 217.154 13.3807 217.586C12.6847 218.018 11.8747 218.234 10.9507 218.234C10.0867 218.234 9.37273 218.048 8.80873 217.676C8.25673 217.304 7.85473 216.818 7.60273 216.218C7.35073 215.618 7.22473 214.964 7.22473 214.256C7.22473 213.056 7.46473 211.964 7.94473 210.98C8.43673 209.984 9.10273 209.198 9.94273 208.622C10.7827 208.046 11.7187 207.758 12.7507 207.758C13.6747 207.758 14.3587 207.974 14.8027 208.406C15.2587 208.826 15.4867 209.378 15.4867 210.062C15.4867 210.926 15.1747 211.646 14.5507 212.222C13.9267 212.798 13.1767 213.23 12.3007 213.518C11.4247 213.794 10.5967 213.944 9.81673 213.968C9.79273 214.832 9.93073 215.528 10.2307 216.056C10.5427 216.584 11.0107 216.848 11.6347 216.848C12.6667 216.848 13.6027 216.368 14.4427 215.408L14.9107 216.2ZM12.2107 208.874C11.5027 208.874 10.9447 209.3 10.5367 210.152C10.1287 211.004 9.88873 211.952 9.81673 212.996C10.2847 212.972 10.7767 212.846 11.2927 212.618C11.8207 212.39 12.2587 212.072 12.6067 211.664C12.9667 211.244 13.1467 210.764 13.1467 210.224C13.1467 209.792 13.0627 209.462 12.8947 209.234C12.7387 208.994 12.5107 208.874 12.2107 208.874ZM22.839 209.72C22.695 209.552 22.455 209.378 22.119 209.198C21.795 209.018 21.417 208.928 20.985 208.928C20.505 208.928 20.115 209.036 19.815 209.252C19.527 209.456 19.383 209.762 19.383 210.17C19.383 210.53 19.503 210.854 19.743 211.142C19.995 211.418 20.397 211.754 20.949 212.15C21.561 212.606 22.029 213.05 22.353 213.482C22.677 213.902 22.839 214.442 22.839 215.102C22.839 215.762 22.659 216.326 22.299 216.794C21.939 217.25 21.459 217.598 20.859 217.838C20.259 218.066 19.599 218.18 18.879 218.18C18.339 218.18 17.787 218.12 17.223 218C16.659 217.868 16.293 217.73 16.125 217.586L16.485 216.056C16.737 216.272 17.079 216.476 17.511 216.668C17.943 216.86 18.393 216.956 18.861 216.956C19.305 216.956 19.683 216.854 19.995 216.65C20.319 216.446 20.481 216.128 20.481 215.696C20.481 215.324 20.343 214.988 20.067 214.688C19.791 214.388 19.377 214.046 18.825 213.662C18.321 213.314 17.895 212.906 17.547 212.438C17.211 211.958 17.043 211.382 17.043 210.71C17.043 210.134 17.205 209.624 17.529 209.18C17.865 208.736 18.321 208.394 18.897 208.154C19.485 207.902 20.157 207.776 20.913 207.776C21.357 207.776 21.807 207.812 22.263 207.884C22.719 207.956 23.025 208.034 23.181 208.118L22.839 209.72ZM27.2987 214.706C27.2147 215.402 27.1727 215.822 27.1727 215.966C27.1727 216.242 27.2267 216.44 27.3347 216.56C27.4427 216.668 27.6287 216.722 27.8927 216.722C28.1327 216.722 28.4027 216.668 28.7027 216.56C29.0147 216.44 29.2727 216.296 29.4767 216.128L29.6747 216.794C29.3627 217.142 28.9187 217.46 28.3427 217.748C27.7667 218.036 27.1187 218.18 26.3987 218.18C25.8947 218.18 25.4927 218.054 25.1927 217.802C24.9047 217.538 24.7607 217.124 24.7607 216.56C24.7607 216.32 24.8207 215.756 24.9407 214.868L25.6967 209.288H24.6167L24.8147 208.424L25.8947 208.046C26.2547 207.71 26.6807 206.882 27.1727 205.562H28.5227L28.2167 208.01H30.3767L30.1967 209.288H28.0367L27.2987 214.706ZM33.6971 216.2C33.6851 216.26 33.6791 216.332 33.6791 216.416C33.6791 216.704 33.7811 216.848 33.9851 216.848C34.0931 216.848 34.2131 216.812 34.3451 216.74C34.4771 216.668 34.6451 216.548 34.8491 216.38L35.0831 216.938C34.8791 217.214 34.5731 217.49 34.1651 217.766C33.7691 218.042 33.2831 218.18 32.7071 218.18C32.2391 218.18 31.8731 218.09 31.6091 217.91C31.3451 217.718 31.2131 217.46 31.2131 217.136L31.2311 216.956C31.3031 216.332 31.5491 214.52 31.9691 211.52L32.2571 209.432L31.1951 208.928L31.3211 208.226L34.4171 207.794L34.8491 207.992L33.6971 216.2ZM33.8951 206.066C33.5711 206.066 33.2891 205.946 33.0491 205.706C32.8211 205.454 32.7071 205.166 32.7071 204.842C32.7071 204.398 32.8511 204.026 33.1391 203.726C33.4391 203.426 33.8171 203.276 34.2731 203.276C34.6451 203.276 34.9391 203.396 35.1551 203.636C35.3711 203.864 35.4791 204.14 35.4791 204.464C35.4791 204.92 35.3411 205.304 35.0651 205.616C34.7891 205.916 34.3991 206.066 33.8951 206.066ZM40.1819 209.972C40.6139 209.324 41.1299 208.796 41.7299 208.388C42.3299 207.98 42.9599 207.776 43.6199 207.776C44.2919 207.776 44.8139 207.956 45.1859 208.316C45.5699 208.664 45.7919 209.228 45.8519 210.008C46.2719 209.312 46.7819 208.766 47.3819 208.37C47.9939 207.974 48.6539 207.776 49.3619 207.776C50.8619 207.776 51.6119 208.658 51.6119 210.422C51.6119 210.806 51.4919 211.694 51.2519 213.086L51.1799 213.554L51.0899 214.022C50.8859 215.138 50.7779 215.906 50.7659 216.326C50.7659 216.674 50.8679 216.848 51.0719 216.848C51.1799 216.848 51.2939 216.818 51.4139 216.758C51.5459 216.686 51.7199 216.56 51.9359 216.38L52.1699 216.938C52.0019 217.19 51.7079 217.46 51.2879 217.748C50.8679 218.036 50.3639 218.18 49.7759 218.18C49.2119 218.18 48.8219 218.066 48.6059 217.838C48.3899 217.61 48.2819 217.304 48.2819 216.92C48.2819 216.68 48.3179 216.332 48.3899 215.876C48.4619 215.408 48.5399 214.94 48.6239 214.472L48.6959 214.058C48.8399 213.242 48.9419 212.6 49.0019 212.132C49.0739 211.664 49.1099 211.208 49.1099 210.764C49.1099 210.212 49.0439 209.834 48.9119 209.63C48.7919 209.426 48.5759 209.324 48.2639 209.324C47.8799 209.324 47.4599 209.51 47.0039 209.882C46.5599 210.254 46.1759 210.728 45.8519 211.304C45.8039 212.012 45.7259 212.762 45.6179 213.554L45.0599 218H42.6299L43.1519 214.076C43.3679 212.588 43.4759 211.46 43.4759 210.692C43.4639 210.14 43.3859 209.774 43.2419 209.594C43.1099 209.414 42.8699 209.324 42.5219 209.324C42.1379 209.324 41.6999 209.534 41.2079 209.954C40.7279 210.374 40.3259 210.878 40.0019 211.466L39.1019 218H36.7619L37.9139 209.432L36.9959 208.946L37.1399 208.208L39.9479 207.776L40.3619 207.974L40.1819 209.972ZM61.2291 216.2C60.9171 216.692 60.4071 217.154 59.6991 217.586C59.0031 218.018 58.1931 218.234 57.2691 218.234C56.4051 218.234 55.6911 218.048 55.1271 217.676C54.5751 217.304 54.1731 216.818 53.9211 216.218C53.6691 215.618 53.5431 214.964 53.5431 214.256C53.5431 213.056 53.7831 211.964 54.2631 210.98C54.7551 209.984 55.4211 209.198 56.2611 208.622C57.1011 208.046 58.0371 207.758 59.0691 207.758C59.9931 207.758 60.6771 207.974 61.1211 208.406C61.5771 208.826 61.8051 209.378 61.8051 210.062C61.8051 210.926 61.4931 211.646 60.8691 212.222C60.2451 212.798 59.4951 213.23 58.6191 213.518C57.7431 213.794 56.9151 213.944 56.1351 213.968C56.1111 214.832 56.2491 215.528 56.5491 216.056C56.8611 216.584 57.3291 216.848 57.9531 216.848C58.9851 216.848 59.9211 216.368 60.7611 215.408L61.2291 216.2ZM58.5291 208.874C57.8211 208.874 57.2631 209.3 56.8551 210.152C56.4471 211.004 56.2071 211.952 56.1351 212.996C56.6031 212.972 57.0951 212.846 57.6111 212.618C58.1391 212.39 58.5771 212.072 58.9251 211.664C59.2851 211.244 59.4651 210.764 59.4651 210.224C59.4651 209.792 59.3811 209.462 59.2131 209.234C59.0571 208.994 58.8291 208.874 58.5291 208.874ZM74.6709 220.592C74.6589 220.628 74.6529 220.682 74.6529 220.754C74.6529 220.898 74.6769 221.012 74.7249 221.096C74.7849 221.192 74.8689 221.24 74.9769 221.24C75.1689 221.24 75.4509 221.078 75.8229 220.754L76.0749 221.312C75.9069 221.564 75.6069 221.834 75.1749 222.122C74.7549 222.41 74.2449 222.554 73.6449 222.554C73.1169 222.554 72.7329 222.422 72.4929 222.158C72.2529 221.906 72.1449 221.582 72.1689 221.186L72.7629 217.064C72.4509 217.388 72.0729 217.658 71.6289 217.874C71.1969 218.078 70.7169 218.18 70.1889 218.18C69.1689 218.18 68.4129 217.838 67.9209 217.154C67.4409 216.458 67.2009 215.552 67.2009 214.436C67.2009 213.32 67.4229 212.252 67.8669 211.232C68.3109 210.212 68.9709 209.384 69.8469 208.748C70.7229 208.1 71.7849 207.776 73.0329 207.776C73.3689 207.776 73.7349 207.818 74.1309 207.902C74.5269 207.986 74.8629 208.082 75.1389 208.19L76.3629 207.848L74.6709 220.592ZM73.8789 209.108C73.6029 208.964 73.2549 208.892 72.8349 208.892C72.1149 208.892 71.5149 209.168 71.0349 209.72C70.5549 210.272 70.2069 210.968 69.9909 211.808C69.7749 212.636 69.6669 213.476 69.6669 214.328C69.6669 215.12 69.7929 215.732 70.0449 216.164C70.2969 216.596 70.6449 216.812 71.0889 216.812C71.4489 216.812 71.7909 216.704 72.1149 216.488C72.4509 216.26 72.7329 215.99 72.9609 215.678L73.8789 209.108ZM81.0413 212.798C80.9933 213.242 80.9513 213.554 80.9153 213.734C80.7953 214.67 80.7353 215.27 80.7353 215.534C80.7353 216.014 80.8193 216.356 80.9873 216.56C81.1553 216.764 81.4073 216.866 81.7433 216.866C82.1273 216.866 82.5053 216.746 82.8773 216.506C83.2613 216.266 83.5853 215.978 83.8493 215.642L84.8933 207.866H87.2693L86.1173 216.2C86.0933 216.416 86.1113 216.578 86.1713 216.686C86.2313 216.794 86.3213 216.848 86.4413 216.848C86.5493 216.848 86.6633 216.818 86.7833 216.758C86.9033 216.686 87.0713 216.56 87.2873 216.38L87.5393 216.938C87.3833 217.19 87.0953 217.46 86.6753 217.748C86.2553 218.036 85.7753 218.18 85.2353 218.18C84.8153 218.18 84.4913 218.09 84.2633 217.91C84.0473 217.73 83.9273 217.484 83.9033 217.172L83.8853 216.956C83.8853 216.86 83.8973 216.74 83.9213 216.596L83.8853 216.578C82.9973 217.646 81.9533 218.18 80.7533 218.18C80.0813 218.18 79.5113 218 79.0433 217.64C78.5753 217.268 78.3353 216.68 78.3233 215.876C78.3233 215.408 78.4073 214.562 78.5753 213.338C78.6233 213.038 78.6533 212.834 78.6653 212.726L79.1513 209.45L78.1073 208.838L78.2513 208.1L81.2393 207.794L81.6533 207.992L81.0413 212.798ZM96.5084 216.2C96.1964 216.692 95.6864 217.154 94.9784 217.586C94.2824 218.018 93.4724 218.234 92.5484 218.234C91.6844 218.234 90.9704 218.048 90.4064 217.676C89.8544 217.304 89.4524 216.818 89.2004 216.218C88.9484 215.618 88.8224 214.964 88.8224 214.256C88.8224 213.056 89.0624 211.964 89.5424 210.98C90.0344 209.984 90.7004 209.198 91.5404 208.622C92.3804 208.046 93.3164 207.758 94.3484 207.758C95.2724 207.758 95.9564 207.974 96.4004 208.406C96.8564 208.826 97.0844 209.378 97.0844 210.062C97.0844 210.926 96.7724 211.646 96.1484 212.222C95.5244 212.798 94.7744 213.23 93.8984 213.518C93.0224 213.794 92.1944 213.944 91.4144 213.968C91.3904 214.832 91.5284 215.528 91.8284 216.056C92.1404 216.584 92.6084 216.848 93.2324 216.848C94.2644 216.848 95.2004 216.368 96.0404 215.408L96.5084 216.2ZM93.8084 208.874C93.1004 208.874 92.5424 209.3 92.1344 210.152C91.7264 211.004 91.4864 211.952 91.4144 212.996C91.8824 212.972 92.3744 212.846 92.8904 212.618C93.4184 212.39 93.8564 212.072 94.2044 211.664C94.5644 211.244 94.7444 210.764 94.7444 210.224C94.7444 209.792 94.6604 209.462 94.4924 209.234C94.3364 208.994 94.1084 208.874 93.8084 208.874ZM108.708 209.72C108.564 209.552 108.324 209.378 107.988 209.198C107.664 209.018 107.286 208.928 106.854 208.928C106.374 208.928 105.984 209.036 105.684 209.252C105.396 209.456 105.252 209.762 105.252 210.17C105.252 210.53 105.372 210.854 105.612 211.142C105.864 211.418 106.266 211.754 106.818 212.15C107.43 212.606 107.898 213.05 108.222 213.482C108.546 213.902 108.708 214.442 108.708 215.102C108.708 215.762 108.528 216.326 108.168 216.794C107.808 217.25 107.328 217.598 106.728 217.838C106.128 218.066 105.468 218.18 104.748 218.18C104.208 218.18 103.656 218.12 103.092 218C102.528 217.868 102.162 217.73 101.994 217.586L102.354 216.056C102.606 216.272 102.948 216.476 103.38 216.668C103.812 216.86 104.262 216.956 104.73 216.956C105.174 216.956 105.552 216.854 105.864 216.65C106.188 216.446 106.35 216.128 106.35 215.696C106.35 215.324 106.212 214.988 105.936 214.688C105.66 214.388 105.246 214.046 104.694 213.662C104.19 213.314 103.764 212.906 103.416 212.438C103.08 211.958 102.912 211.382 102.912 210.71C102.912 210.134 103.074 209.624 103.398 209.18C103.734 208.736 104.19 208.394 104.766 208.154C105.354 207.902 106.026 207.776 106.782 207.776C107.226 207.776 107.676 207.812 108.132 207.884C108.588 207.956 108.894 208.034 109.05 208.118L108.708 209.72ZM118.118 216.164C118.106 216.212 118.1 216.284 118.1 216.38C118.1 216.692 118.22 216.848 118.46 216.848C118.652 216.848 118.922 216.704 119.27 216.416L119.522 216.974C119.366 217.214 119.084 217.478 118.676 217.766C118.28 218.042 117.818 218.18 117.29 218.18C116.882 218.18 116.558 218.09 116.318 217.91C116.078 217.73 115.952 217.454 115.94 217.082L115.976 216.776C115.64 217.172 115.232 217.508 114.752 217.784C114.272 218.048 113.744 218.18 113.168 218.18C112.16 218.18 111.404 217.838 110.9 217.154C110.408 216.458 110.162 215.552 110.162 214.436C110.162 213.332 110.39 212.27 110.846 211.25C111.314 210.23 111.992 209.396 112.88 208.748C113.768 208.1 114.824 207.776 116.048 207.776C116.36 207.776 116.696 207.812 117.056 207.884C117.428 207.956 117.752 208.04 118.028 208.136L119.27 207.776L118.118 216.164ZM116.732 209.054C116.504 208.946 116.21 208.892 115.85 208.892C115.13 208.892 114.53 209.168 114.05 209.72C113.57 210.26 113.216 210.95 112.988 211.79C112.772 212.618 112.664 213.458 112.664 214.31C112.664 215.102 112.784 215.72 113.024 216.164C113.264 216.596 113.618 216.812 114.086 216.812C114.386 216.812 114.686 216.71 114.986 216.506C115.298 216.302 115.574 216.062 115.814 215.786L116.732 209.054ZM128.688 208.964C129 208.616 129.378 208.334 129.822 208.118C130.266 207.89 130.752 207.776 131.28 207.776C132.276 207.776 133.032 208.112 133.548 208.784C134.064 209.456 134.322 210.392 134.322 211.592C134.322 212.732 134.082 213.806 133.602 214.814C133.122 215.822 132.438 216.638 131.55 217.262C130.674 217.874 129.66 218.18 128.508 218.18C128.196 218.18 127.842 218.138 127.446 218.054L126.816 222.572H124.512L126.294 209.378L125.34 208.928L125.484 208.208L128.4 207.776L128.814 207.974L128.688 208.964ZM127.608 216.848C127.884 216.992 128.262 217.064 128.742 217.064C129.426 217.064 129.996 216.8 130.452 216.272C130.92 215.744 131.262 215.066 131.478 214.238C131.706 213.41 131.82 212.54 131.82 211.628C131.82 210.884 131.694 210.284 131.442 209.828C131.202 209.372 130.848 209.144 130.38 209.144C130.008 209.144 129.666 209.258 129.354 209.486C129.042 209.702 128.766 209.972 128.526 210.296L127.608 216.848ZM139.001 210.368C139.229 209.684 139.619 209.084 140.171 208.568C140.735 208.04 141.365 207.776 142.061 207.776C142.301 207.776 142.505 207.83 142.673 207.938L142.151 210.53C142.079 210.47 141.959 210.416 141.791 210.368C141.635 210.308 141.443 210.278 141.215 210.278C140.783 210.278 140.369 210.374 139.973 210.566C139.577 210.746 139.271 211.01 139.055 211.358L138.173 218H135.833L136.967 209.45L136.049 208.946L136.175 208.226L138.749 207.794L139.163 208.046L139.073 209.684L139.001 210.368ZM148.47 207.758C149.718 207.758 150.672 208.124 151.332 208.856C151.992 209.576 152.322 210.614 152.322 211.97C152.322 213.086 152.094 214.124 151.638 215.084C151.182 216.044 150.54 216.812 149.712 217.388C148.884 217.952 147.936 218.234 146.868 218.234C145.62 218.234 144.666 217.868 144.006 217.136C143.358 216.392 143.034 215.336 143.034 213.968C143.034 212.84 143.256 211.802 143.7 210.854C144.156 209.906 144.798 209.156 145.626 208.604C146.454 208.04 147.402 207.758 148.47 207.758ZM148.164 208.892C147.612 208.892 147.144 209.144 146.76 209.648C146.376 210.14 146.088 210.77 145.896 211.538C145.716 212.306 145.626 213.092 145.626 213.896C145.626 215.036 145.752 215.87 146.004 216.398C146.268 216.926 146.676 217.19 147.228 217.19C147.768 217.19 148.224 216.938 148.596 216.434C148.968 215.93 149.244 215.288 149.424 214.508C149.604 213.728 149.694 212.93 149.694 212.114C149.694 210.974 149.568 210.152 149.316 209.648C149.076 209.144 148.692 208.892 148.164 208.892ZM157.27 208.964C157.582 208.616 157.96 208.334 158.404 208.118C158.848 207.89 159.334 207.776 159.862 207.776C160.858 207.776 161.614 208.112 162.13 208.784C162.646 209.456 162.904 210.392 162.904 211.592C162.904 212.732 162.664 213.806 162.184 214.814C161.704 215.822 161.02 216.638 160.132 217.262C159.256 217.874 158.242 218.18 157.09 218.18C156.778 218.18 156.424 218.138 156.028 218.054L155.398 222.572H153.094L154.876 209.378L153.922 208.928L154.066 208.208L156.982 207.776L157.396 207.974L157.27 208.964ZM156.19 216.848C156.466 216.992 156.844 217.064 157.324 217.064C158.008 217.064 158.578 216.8 159.034 216.272C159.502 215.744 159.844 215.066 160.06 214.238C160.288 213.41 160.402 212.54 160.402 211.628C160.402 210.884 160.276 210.284 160.024 209.828C159.784 209.372 159.43 209.144 158.962 209.144C158.59 209.144 158.248 209.258 157.936 209.486C157.624 209.702 157.348 209.972 157.108 210.296L156.19 216.848ZM167.583 210.368C167.811 209.684 168.201 209.084 168.753 208.568C169.317 208.04 169.947 207.776 170.643 207.776C170.883 207.776 171.087 207.83 171.255 207.938L170.733 210.53C170.661 210.47 170.541 210.416 170.373 210.368C170.217 210.308 170.025 210.278 169.797 210.278C169.365 210.278 168.951 210.374 168.555 210.566C168.159 210.746 167.853 211.01 167.637 211.358L166.755 218H164.415L165.549 209.45L164.631 208.946L164.757 208.226L167.331 207.794L167.745 208.046L167.655 209.684L167.583 210.368ZM179.266 216.2C178.954 216.692 178.444 217.154 177.736 217.586C177.04 218.018 176.23 218.234 175.306 218.234C174.442 218.234 173.728 218.048 173.164 217.676C172.612 217.304 172.21 216.818 171.958 216.218C171.706 215.618 171.58 214.964 171.58 214.256C171.58 213.056 171.82 211.964 172.3 210.98C172.792 209.984 173.458 209.198 174.298 208.622C175.138 208.046 176.074 207.758 177.106 207.758C178.03 207.758 178.714 207.974 179.158 208.406C179.614 208.826 179.842 209.378 179.842 210.062C179.842 210.926 179.53 211.646 178.906 212.222C178.282 212.798 177.532 213.23 176.656 213.518C175.78 213.794 174.952 213.944 174.172 213.968C174.148 214.832 174.286 215.528 174.586 216.056C174.898 216.584 175.366 216.848 175.99 216.848C177.022 216.848 177.958 216.368 178.798 215.408L179.266 216.2ZM176.566 208.874C175.858 208.874 175.3 209.3 174.892 210.152C174.484 211.004 174.244 211.952 174.172 212.996C174.64 212.972 175.132 212.846 175.648 212.618C176.176 212.39 176.614 212.072 176.962 211.664C177.322 211.244 177.502 210.764 177.502 210.224C177.502 209.792 177.418 209.462 177.25 209.234C177.094 208.994 176.866 208.874 176.566 208.874ZM188.928 208.964C189.24 208.616 189.618 208.334 190.062 208.118C190.506 207.89 190.992 207.776 191.52 207.776C192.516 207.776 193.272 208.112 193.788 208.784C194.304 209.456 194.562 210.392 194.562 211.592C194.562 212.732 194.322 213.806 193.842 214.814C193.362 215.822 192.678 216.638 191.79 217.262C190.914 217.874 189.9 218.18 188.748 218.18C188.436 218.18 188.082 218.138 187.686 218.054L187.056 222.572H184.752L186.534 209.378L185.58 208.928L185.724 208.208L188.64 207.776L189.054 207.974L188.928 208.964ZM187.848 216.848C188.124 216.992 188.502 217.064 188.982 217.064C189.666 217.064 190.236 216.8 190.692 216.272C191.16 215.744 191.502 215.066 191.718 214.238C191.946 213.41 192.06 212.54 192.06 211.628C192.06 210.884 191.934 210.284 191.682 209.828C191.442 209.372 191.088 209.144 190.62 209.144C190.248 209.144 189.906 209.258 189.594 209.486C189.282 209.702 189.006 209.972 188.766 210.296L187.848 216.848ZM199.241 210.368C199.469 209.684 199.859 209.084 200.411 208.568C200.975 208.04 201.605 207.776 202.301 207.776C202.541 207.776 202.745 207.83 202.913 207.938L202.391 210.53C202.319 210.47 202.199 210.416 202.031 210.368C201.875 210.308 201.683 210.278 201.455 210.278C201.023 210.278 200.609 210.374 200.213 210.566C199.817 210.746 199.511 211.01 199.295 211.358L198.413 218H196.073L197.207 209.45L196.289 208.946L196.415 208.226L198.989 207.794L199.403 208.046L199.313 209.684L199.241 210.368ZM208.71 207.758C209.958 207.758 210.912 208.124 211.572 208.856C212.232 209.576 212.562 210.614 212.562 211.97C212.562 213.086 212.334 214.124 211.878 215.084C211.422 216.044 210.78 216.812 209.952 217.388C209.124 217.952 208.176 218.234 207.108 218.234C205.86 218.234 204.906 217.868 204.246 217.136C203.598 216.392 203.274 215.336 203.274 213.968C203.274 212.84 203.496 211.802 203.94 210.854C204.396 209.906 205.038 209.156 205.866 208.604C206.694 208.04 207.642 207.758 208.71 207.758ZM208.404 208.892C207.852 208.892 207.384 209.144 207 209.648C206.616 210.14 206.328 210.77 206.136 211.538C205.956 212.306 205.866 213.092 205.866 213.896C205.866 215.036 205.992 215.87 206.244 216.398C206.508 216.926 206.916 217.19 207.468 217.19C208.008 217.19 208.464 216.938 208.836 216.434C209.208 215.93 209.484 215.288 209.664 214.508C209.844 213.728 209.934 212.93 209.934 212.114C209.934 210.974 209.808 210.152 209.556 209.648C209.316 209.144 208.932 208.892 208.404 208.892ZM216.826 214.706C216.742 215.402 216.7 215.822 216.7 215.966C216.7 216.242 216.754 216.44 216.862 216.56C216.97 216.668 217.156 216.722 217.42 216.722C217.66 216.722 217.93 216.668 218.23 216.56C218.542 216.44 218.8 216.296 219.004 216.128L219.202 216.794C218.89 217.142 218.446 217.46 217.87 217.748C217.294 218.036 216.646 218.18 215.926 218.18C215.422 218.18 215.02 218.054 214.72 217.802C214.432 217.538 214.288 217.124 214.288 216.56C214.288 216.32 214.348 215.756 214.468 214.868L215.224 209.288H214.144L214.342 208.424L215.422 208.046C215.782 207.71 216.208 206.882 216.7 205.562H218.05L217.744 208.01H219.904L219.724 209.288H217.564L216.826 214.706ZM227.922 216.2C227.61 216.692 227.1 217.154 226.392 217.586C225.696 218.018 224.886 218.234 223.962 218.234C223.098 218.234 222.384 218.048 221.82 217.676C221.268 217.304 220.866 216.818 220.614 216.218C220.362 215.618 220.236 214.964 220.236 214.256C220.236 213.056 220.476 211.964 220.956 210.98C221.448 209.984 222.114 209.198 222.954 208.622C223.794 208.046 224.73 207.758 225.762 207.758C226.686 207.758 227.37 207.974 227.814 208.406C228.27 208.826 228.498 209.378 228.498 210.062C228.498 210.926 228.186 211.646 227.562 212.222C226.938 212.798 226.188 213.23 225.312 213.518C224.436 213.794 223.608 213.944 222.828 213.968C222.804 214.832 222.942 215.528 223.242 216.056C223.554 216.584 224.022 216.848 224.646 216.848C225.678 216.848 226.614 216.368 227.454 215.408L227.922 216.2ZM225.222 208.874C224.514 208.874 223.956 209.3 223.548 210.152C223.14 211.004 222.9 211.952 222.828 212.996C223.296 212.972 223.788 212.846 224.304 212.618C224.832 212.39 225.27 212.072 225.618 211.664C225.978 211.244 226.158 210.764 226.158 210.224C226.158 209.792 226.074 209.462 225.906 209.234C225.75 208.994 225.522 208.874 225.222 208.874ZM236.121 210.458C235.785 210.038 235.485 209.702 235.221 209.45C234.969 209.186 234.747 209.054 234.555 209.054C234.111 209.054 233.697 209.258 233.313 209.666C232.941 210.074 232.635 210.644 232.395 211.376C232.167 212.108 232.053 212.93 232.053 213.842C232.053 214.838 232.197 215.57 232.485 216.038C232.773 216.494 233.211 216.722 233.799 216.722C234.303 216.722 234.729 216.626 235.077 216.434C235.437 216.242 235.785 215.972 236.121 215.624L236.589 216.416C236.289 216.86 235.815 217.268 235.167 217.64C234.531 218 233.775 218.18 232.899 218.18C231.867 218.18 231.057 217.82 230.469 217.1C229.881 216.368 229.587 215.336 229.587 214.004C229.587 212.996 229.797 212.018 230.217 211.07C230.637 210.11 231.261 209.324 232.089 208.712C232.917 208.088 233.913 207.776 235.077 207.776C235.449 207.776 235.833 207.812 236.229 207.884C236.637 207.944 236.967 208.034 237.219 208.154L236.607 210.494L236.121 210.458ZM240.873 214.706C240.789 215.402 240.747 215.822 240.747 215.966C240.747 216.242 240.801 216.44 240.909 216.56C241.017 216.668 241.203 216.722 241.467 216.722C241.707 216.722 241.977 216.668 242.277 216.56C242.589 216.44 242.847 216.296 243.051 216.128L243.249 216.794C242.937 217.142 242.493 217.46 241.917 217.748C241.341 218.036 240.693 218.18 239.973 218.18C239.469 218.18 239.067 218.054 238.767 217.802C238.479 217.538 238.335 217.124 238.335 216.56C238.335 216.32 238.395 215.756 238.515 214.868L239.271 209.288H238.191L238.389 208.424L239.469 208.046C239.829 207.71 240.255 206.882 240.747 205.562H242.097L241.791 208.01H243.951L243.771 209.288H241.611L240.873 214.706ZM247.271 216.2C247.259 216.26 247.253 216.332 247.253 216.416C247.253 216.704 247.355 216.848 247.559 216.848C247.667 216.848 247.787 216.812 247.919 216.74C248.051 216.668 248.219 216.548 248.423 216.38L248.657 216.938C248.453 217.214 248.147 217.49 247.739 217.766C247.343 218.042 246.857 218.18 246.281 218.18C245.813 218.18 245.447 218.09 245.183 217.91C244.919 217.718 244.787 217.46 244.787 217.136L244.805 216.956C244.877 216.332 245.123 214.52 245.543 211.52L245.831 209.432L244.769 208.928L244.895 208.226L247.991 207.794L248.423 207.992L247.271 216.2ZM247.469 206.066C247.145 206.066 246.863 205.946 246.623 205.706C246.395 205.454 246.281 205.166 246.281 204.842C246.281 204.398 246.425 204.026 246.713 203.726C247.013 203.426 247.391 203.276 247.847 203.276C248.219 203.276 248.513 203.396 248.729 203.636C248.945 203.864 249.053 204.14 249.053 204.464C249.053 204.92 248.915 205.304 248.639 205.616C248.363 205.916 247.973 206.066 247.469 206.066ZM255.556 207.758C256.804 207.758 257.758 208.124 258.418 208.856C259.078 209.576 259.408 210.614 259.408 211.97C259.408 213.086 259.18 214.124 258.724 215.084C258.268 216.044 257.626 216.812 256.798 217.388C255.97 217.952 255.022 218.234 253.954 218.234C252.706 218.234 251.752 217.868 251.092 217.136C250.444 216.392 250.12 215.336 250.12 213.968C250.12 212.84 250.342 211.802 250.786 210.854C251.242 209.906 251.884 209.156 252.712 208.604C253.54 208.04 254.488 207.758 255.556 207.758ZM255.25 208.892C254.698 208.892 254.23 209.144 253.846 209.648C253.462 210.14 253.174 210.77 252.982 211.538C252.802 212.306 252.712 213.092 252.712 213.896C252.712 215.036 252.838 215.87 253.09 216.398C253.354 216.926 253.762 217.19 254.314 217.19C254.854 217.19 255.31 216.938 255.682 216.434C256.054 215.93 256.33 215.288 256.51 214.508C256.69 213.728 256.78 212.93 256.78 212.114C256.78 210.974 256.654 210.152 256.402 209.648C256.162 209.144 255.778 208.892 255.25 208.892ZM264.356 209.954C264.8 209.294 265.328 208.766 265.94 208.37C266.552 207.974 267.194 207.776 267.866 207.776C269.354 207.776 270.098 208.658 270.098 210.422C270.098 210.89 269.948 211.934 269.648 213.554C269.6 213.866 269.558 214.106 269.522 214.274C269.354 215.222 269.264 215.906 269.252 216.326V216.398C269.252 216.698 269.348 216.848 269.54 216.848C269.648 216.848 269.762 216.818 269.882 216.758C270.002 216.698 270.158 216.59 270.35 216.434L270.602 216.992C270.422 217.244 270.128 217.508 269.72 217.784C269.312 218.048 268.814 218.18 268.226 218.18C267.662 218.18 267.272 218.06 267.056 217.82C266.84 217.568 266.732 217.238 266.732 216.83C266.744 216.47 266.858 215.756 267.074 214.688L267.182 214.076C267.206 213.968 267.254 213.68 267.326 213.212C267.41 212.744 267.476 212.3 267.524 211.88C267.572 211.448 267.596 211.076 267.596 210.764C267.596 210.212 267.53 209.834 267.398 209.63C267.278 209.426 267.056 209.324 266.732 209.324C266.336 209.324 265.892 209.546 265.4 209.99C264.92 210.434 264.506 210.968 264.158 211.592L263.294 218H260.936L262.088 209.432L261.17 208.946L261.314 208.208L264.122 207.776L264.536 207.974L264.356 209.954ZM283.979 216.2C283.667 216.692 283.157 217.154 282.449 217.586C281.753 218.018 280.943 218.234 280.019 218.234C279.155 218.234 278.441 218.048 277.877 217.676C277.325 217.304 276.923 216.818 276.671 216.218C276.419 215.618 276.293 214.964 276.293 214.256C276.293 213.056 276.533 211.964 277.013 210.98C277.505 209.984 278.171 209.198 279.011 208.622C279.851 208.046 280.787 207.758 281.819 207.758C282.743 207.758 283.427 207.974 283.871 208.406C284.327 208.826 284.555 209.378 284.555 210.062C284.555 210.926 284.243 211.646 283.619 212.222C282.995 212.798 282.245 213.23 281.369 213.518C280.493 213.794 279.665 213.944 278.885 213.968C278.861 214.832 278.999 215.528 279.299 216.056C279.611 216.584 280.079 216.848 280.703 216.848C281.735 216.848 282.671 216.368 283.511 215.408L283.979 216.2ZM281.279 208.874C280.571 208.874 280.013 209.3 279.605 210.152C279.197 211.004 278.957 211.952 278.885 212.996C279.353 212.972 279.845 212.846 280.361 212.618C280.889 212.39 281.327 212.072 281.675 211.664C282.035 211.244 282.215 210.764 282.215 210.224C282.215 209.792 282.131 209.462 281.963 209.234C281.807 208.994 281.579 208.874 281.279 208.874ZM289.369 209.954C289.813 209.294 290.341 208.766 290.953 208.37C291.565 207.974 292.207 207.776 292.879 207.776C294.367 207.776 295.111 208.658 295.111 210.422C295.111 210.89 294.961 211.934 294.661 213.554C294.613 213.866 294.571 214.106 294.535 214.274C294.367 215.222 294.277 215.906 294.265 216.326V216.398C294.265 216.698 294.361 216.848 294.553 216.848C294.661 216.848 294.775 216.818 294.895 216.758C295.015 216.698 295.171 216.59 295.363 216.434L295.615 216.992C295.435 217.244 295.141 217.508 294.733 217.784C294.325 218.048 293.827 218.18 293.239 218.18C292.675 218.18 292.285 218.06 292.069 217.82C291.853 217.568 291.745 217.238 291.745 216.83C291.757 216.47 291.871 215.756 292.087 214.688L292.195 214.076C292.219 213.968 292.267 213.68 292.339 213.212C292.423 212.744 292.489 212.3 292.537 211.88C292.585 211.448 292.609 211.076 292.609 210.764C292.609 210.212 292.543 209.834 292.411 209.63C292.291 209.426 292.069 209.324 291.745 209.324C291.349 209.324 290.905 209.546 290.413 209.99C289.933 210.434 289.519 210.968 289.171 211.592L288.307 218H285.949L287.101 209.432L286.183 208.946L286.327 208.208L289.135 207.776L289.549 207.974L289.369 209.954ZM55.4967 233.458C55.1607 233.038 54.8607 232.702 54.5967 232.45C54.3447 232.186 54.1227 232.054 53.9307 232.054C53.4867 232.054 53.0727 232.258 52.6887 232.666C52.3167 233.074 52.0107 233.644 51.7707 234.376C51.5427 235.108 51.4287 235.93 51.4287 236.842C51.4287 237.838 51.5727 238.57 51.8607 239.038C52.1487 239.494 52.5867 239.722 53.1747 239.722C53.6787 239.722 54.1047 239.626 54.4527 239.434C54.8127 239.242 55.1607 238.972 55.4967 238.624L55.9647 239.416C55.6647 239.86 55.1907 240.268 54.5427 240.64C53.9067 241 53.1507 241.18 52.2747 241.18C51.2427 241.18 50.4327 240.82 49.8447 240.1C49.2567 239.368 48.9627 238.336 48.9627 237.004C48.9627 235.996 49.1727 235.018 49.5927 234.07C50.0127 233.11 50.6367 232.324 51.4647 231.712C52.2927 231.088 53.2887 230.776 54.4527 230.776C54.8247 230.776 55.2087 230.812 55.6047 230.884C56.0127 230.944 56.3427 231.034 56.5947 231.154L55.9827 233.494L55.4967 233.458ZM65.1989 239.164C65.1869 239.212 65.1809 239.284 65.1809 239.38C65.1809 239.692 65.3009 239.848 65.5409 239.848C65.7329 239.848 66.0029 239.704 66.3509 239.416L66.6029 239.974C66.4469 240.214 66.1649 240.478 65.7569 240.766C65.3609 241.042 64.8989 241.18 64.3709 241.18C63.9629 241.18 63.6389 241.09 63.3989 240.91C63.1589 240.73 63.0329 240.454 63.0209 240.082L63.0569 239.776C62.7209 240.172 62.3129 240.508 61.8329 240.784C61.3529 241.048 60.8249 241.18 60.2489 241.18C59.2409 241.18 58.4849 240.838 57.9809 240.154C57.4889 239.458 57.2429 238.552 57.2429 237.436C57.2429 236.332 57.4709 235.27 57.9269 234.25C58.3949 233.23 59.0729 232.396 59.9609 231.748C60.8489 231.1 61.9049 230.776 63.1289 230.776C63.4409 230.776 63.7769 230.812 64.1369 230.884C64.5089 230.956 64.8329 231.04 65.1089 231.136L66.3509 230.776L65.1989 239.164ZM63.8129 232.054C63.5849 231.946 63.2909 231.892 62.9309 231.892C62.2109 231.892 61.6109 232.168 61.1309 232.72C60.6509 233.26 60.2969 233.95 60.0689 234.79C59.8529 235.618 59.7449 236.458 59.7449 237.31C59.7449 238.102 59.8649 238.72 60.1049 239.164C60.3449 239.596 60.6989 239.812 61.1669 239.812C61.4669 239.812 61.7669 239.71 62.0669 239.506C62.3789 239.302 62.6549 239.062 62.8949 238.786L63.8129 232.054ZM74.0353 232.72C73.8913 232.552 73.6513 232.378 73.3153 232.198C72.9913 232.018 72.6133 231.928 72.1813 231.928C71.7013 231.928 71.3113 232.036 71.0113 232.252C70.7233 232.456 70.5793 232.762 70.5793 233.17C70.5793 233.53 70.6993 233.854 70.9393 234.142C71.1913 234.418 71.5933 234.754 72.1453 235.15C72.7573 235.606 73.2253 236.05 73.5493 236.482C73.8733 236.902 74.0353 237.442 74.0353 238.102C74.0353 238.762 73.8553 239.326 73.4953 239.794C73.1353 240.25 72.6553 240.598 72.0553 240.838C71.4553 241.066 70.7953 241.18 70.0753 241.18C69.5353 241.18 68.9833 241.12 68.4193 241C67.8553 240.868 67.4893 240.73 67.3213 240.586L67.6813 239.056C67.9333 239.272 68.2753 239.476 68.7073 239.668C69.1393 239.86 69.5893 239.956 70.0573 239.956C70.5013 239.956 70.8793 239.854 71.1913 239.65C71.5153 239.446 71.6773 239.128 71.6773 238.696C71.6773 238.324 71.5393 237.988 71.2633 237.688C70.9873 237.388 70.5733 237.046 70.0213 236.662C69.5173 236.314 69.0913 235.906 68.7433 235.438C68.4073 234.958 68.2393 234.382 68.2393 233.71C68.2393 233.134 68.4013 232.624 68.7253 232.18C69.0613 231.736 69.5173 231.394 70.0933 231.154C70.6813 230.902 71.3533 230.776 72.1093 230.776C72.5533 230.776 73.0033 230.812 73.4593 230.884C73.9153 230.956 74.2213 231.034 74.3773 231.118L74.0353 232.72ZM87.8784 239.182C87.8664 239.23 87.8604 239.302 87.8604 239.398C87.8604 239.698 87.9624 239.848 88.1664 239.848C88.3704 239.848 88.6404 239.71 88.9764 239.434L89.2284 239.992C88.5564 240.784 87.8124 241.18 86.9964 241.18C86.5764 241.18 86.2584 241.078 86.0424 240.874C85.8264 240.67 85.7004 240.358 85.6644 239.938V239.668C85.3644 240.088 84.9624 240.448 84.4584 240.748C83.9544 241.036 83.3784 241.18 82.7304 241.18C81.7224 241.18 80.9724 240.838 80.4804 240.154C79.9884 239.458 79.7424 238.552 79.7424 237.436C79.7424 236.32 79.9644 235.252 80.4084 234.232C80.8524 233.212 81.5124 232.384 82.3884 231.748C83.2764 231.1 84.3444 230.776 85.5924 230.776C85.9404 230.776 86.3064 230.824 86.6904 230.92L87.1404 227.878L85.8444 227.518L86.0064 226.852L89.2464 226.492L89.6964 226.726L87.8784 239.182ZM86.5104 232.144C86.2104 231.976 85.8324 231.892 85.3764 231.892C84.6444 231.892 84.0444 232.174 83.5764 232.738C83.1084 233.29 82.7664 233.98 82.5504 234.808C82.3344 235.636 82.2264 236.476 82.2264 237.328C82.2264 238.12 82.3464 238.732 82.5864 239.164C82.8384 239.596 83.1924 239.812 83.6484 239.812C84.0204 239.812 84.3744 239.698 84.7104 239.47C85.0464 239.23 85.3224 238.948 85.5384 238.624L86.5104 232.144ZM98.2574 239.2C97.9454 239.692 97.4354 240.154 96.7274 240.586C96.0314 241.018 95.2214 241.234 94.2974 241.234C93.4334 241.234 92.7194 241.048 92.1554 240.676C91.6034 240.304 91.2014 239.818 90.9494 239.218C90.6974 238.618 90.5714 237.964 90.5714 237.256C90.5714 236.056 90.8114 234.964 91.2914 233.98C91.7834 232.984 92.4494 232.198 93.2894 231.622C94.1294 231.046 95.0654 230.758 96.0974 230.758C97.0214 230.758 97.7054 230.974 98.1494 231.406C98.6054 231.826 98.8334 232.378 98.8334 233.062C98.8334 233.926 98.5214 234.646 97.8974 235.222C97.2734 235.798 96.5234 236.23 95.6474 236.518C94.7714 236.794 93.9434 236.944 93.1634 236.968C93.1394 237.832 93.2774 238.528 93.5774 239.056C93.8894 239.584 94.3574 239.848 94.9814 239.848C96.0134 239.848 96.9494 239.368 97.7894 238.408L98.2574 239.2ZM95.5574 231.874C94.8494 231.874 94.2914 232.3 93.8834 233.152C93.4754 234.004 93.2354 234.952 93.1634 235.996C93.6314 235.972 94.1234 235.846 94.6394 235.618C95.1674 235.39 95.6054 235.072 95.9534 234.664C96.3134 234.244 96.4934 233.764 96.4934 233.224C96.4934 232.792 96.4094 232.462 96.2414 232.234C96.0854 231.994 95.8574 231.874 95.5574 231.874ZM107.919 231.964C108.231 231.616 108.609 231.334 109.053 231.118C109.497 230.89 109.983 230.776 110.511 230.776C111.507 230.776 112.263 231.112 112.779 231.784C113.295 232.456 113.553 233.392 113.553 234.592C113.553 235.732 113.313 236.806 112.833 237.814C112.353 238.822 111.669 239.638 110.781 240.262C109.905 240.874 108.891 241.18 107.739 241.18C107.427 241.18 107.073 241.138 106.677 241.054L106.047 245.572H103.743L105.525 232.378L104.571 231.928L104.715 231.208L107.631 230.776L108.045 230.974L107.919 231.964ZM106.839 239.848C107.115 239.992 107.493 240.064 107.973 240.064C108.657 240.064 109.227 239.8 109.683 239.272C110.151 238.744 110.493 238.066 110.709 237.238C110.937 236.41 111.051 235.54 111.051 234.628C111.051 233.884 110.925 233.284 110.673 232.828C110.433 232.372 110.079 232.144 109.611 232.144C109.239 232.144 108.897 232.258 108.585 232.486C108.273 232.702 107.997 232.972 107.757 233.296L106.839 239.848ZM122.48 239.2C122.168 239.692 121.658 240.154 120.95 240.586C120.254 241.018 119.444 241.234 118.52 241.234C117.656 241.234 116.942 241.048 116.378 240.676C115.826 240.304 115.424 239.818 115.172 239.218C114.92 238.618 114.794 237.964 114.794 237.256C114.794 236.056 115.034 234.964 115.514 233.98C116.006 232.984 116.672 232.198 117.512 231.622C118.352 231.046 119.288 230.758 120.32 230.758C121.244 230.758 121.928 230.974 122.372 231.406C122.828 231.826 123.056 232.378 123.056 233.062C123.056 233.926 122.744 234.646 122.12 235.222C121.496 235.798 120.746 236.23 119.87 236.518C118.994 236.794 118.166 236.944 117.386 236.968C117.362 237.832 117.5 238.528 117.8 239.056C118.112 239.584 118.58 239.848 119.204 239.848C120.236 239.848 121.172 239.368 122.012 238.408L122.48 239.2ZM119.78 231.874C119.072 231.874 118.514 232.3 118.106 233.152C117.698 234.004 117.458 234.952 117.386 235.996C117.854 235.972 118.346 235.846 118.862 235.618C119.39 235.39 119.828 235.072 120.176 234.664C120.536 234.244 120.716 233.764 120.716 233.224C120.716 232.792 120.632 232.462 120.464 232.234C120.308 231.994 120.08 231.874 119.78 231.874ZM127.636 233.368C127.864 232.684 128.254 232.084 128.806 231.568C129.37 231.04 130 230.776 130.696 230.776C130.936 230.776 131.14 230.83 131.308 230.938L130.786 233.53C130.714 233.47 130.594 233.416 130.426 233.368C130.27 233.308 130.078 233.278 129.85 233.278C129.418 233.278 129.004 233.374 128.608 233.566C128.212 233.746 127.906 234.01 127.69 234.358L126.808 241H124.468L125.602 232.45L124.684 231.946L124.81 231.226L127.384 230.794L127.798 231.046L127.708 232.684L127.636 233.368ZM134.622 237.706C134.538 238.402 134.496 238.822 134.496 238.966C134.496 239.242 134.55 239.44 134.658 239.56C134.766 239.668 134.952 239.722 135.216 239.722C135.456 239.722 135.726 239.668 136.026 239.56C136.338 239.44 136.596 239.296 136.8 239.128L136.998 239.794C136.686 240.142 136.242 240.46 135.666 240.748C135.09 241.036 134.442 241.18 133.722 241.18C133.218 241.18 132.816 241.054 132.516 240.802C132.228 240.538 132.084 240.124 132.084 239.56C132.084 239.32 132.144 238.756 132.264 237.868L133.02 232.288H131.94L132.138 231.424L133.218 231.046C133.578 230.71 134.004 229.882 134.496 228.562H135.846L135.54 231.01H137.7L137.52 232.288H135.36L134.622 237.706ZM145.718 239.2C145.406 239.692 144.896 240.154 144.188 240.586C143.492 241.018 142.682 241.234 141.758 241.234C140.894 241.234 140.18 241.048 139.616 240.676C139.064 240.304 138.662 239.818 138.41 239.218C138.158 238.618 138.032 237.964 138.032 237.256C138.032 236.056 138.272 234.964 138.752 233.98C139.244 232.984 139.91 232.198 140.75 231.622C141.59 231.046 142.526 230.758 143.558 230.758C144.482 230.758 145.166 230.974 145.61 231.406C146.066 231.826 146.294 232.378 146.294 233.062C146.294 233.926 145.982 234.646 145.358 235.222C144.734 235.798 143.984 236.23 143.108 236.518C142.232 236.794 141.404 236.944 140.624 236.968C140.6 237.832 140.738 238.528 141.038 239.056C141.35 239.584 141.818 239.848 142.442 239.848C143.474 239.848 144.41 239.368 145.25 238.408L145.718 239.2ZM143.018 231.874C142.31 231.874 141.752 232.3 141.344 233.152C140.936 234.004 140.696 234.952 140.624 235.996C141.092 235.972 141.584 235.846 142.1 235.618C142.628 235.39 143.066 235.072 143.414 234.664C143.774 234.244 143.954 233.764 143.954 233.224C143.954 232.792 143.87 232.462 143.702 232.234C143.546 231.994 143.318 231.874 143.018 231.874ZM159.808 239.182C159.796 239.23 159.79 239.302 159.79 239.398C159.79 239.698 159.892 239.848 160.096 239.848C160.3 239.848 160.57 239.71 160.906 239.434L161.158 239.992C160.486 240.784 159.742 241.18 158.926 241.18C158.506 241.18 158.188 241.078 157.972 240.874C157.756 240.67 157.63 240.358 157.594 239.938V239.668C157.294 240.088 156.892 240.448 156.388 240.748C155.884 241.036 155.308 241.18 154.66 241.18C153.652 241.18 152.902 240.838 152.41 240.154C151.918 239.458 151.672 238.552 151.672 237.436C151.672 236.32 151.894 235.252 152.338 234.232C152.782 233.212 153.442 232.384 154.318 231.748C155.206 231.1 156.274 230.776 157.522 230.776C157.87 230.776 158.236 230.824 158.62 230.92L159.07 227.878L157.774 227.518L157.936 226.852L161.176 226.492L161.626 226.726L159.808 239.182ZM158.44 232.144C158.14 231.976 157.762 231.892 157.306 231.892C156.574 231.892 155.974 232.174 155.506 232.738C155.038 233.29 154.696 233.98 154.48 234.808C154.264 235.636 154.156 236.476 154.156 237.328C154.156 238.12 154.276 238.732 154.516 239.164C154.768 239.596 155.122 239.812 155.578 239.812C155.95 239.812 156.304 239.698 156.64 239.47C156.976 239.23 157.252 238.948 157.468 238.624L158.44 232.144ZM166.047 225.772C166.599 225.916 167.013 226.234 167.289 226.726C167.565 227.206 167.703 227.764 167.703 228.4C167.703 229.48 167.355 230.41 166.659 231.19C165.975 231.958 165.165 232.54 164.229 232.936L163.761 232.144V231.964C164.073 231.856 164.373 231.652 164.661 231.352C164.961 231.052 165.201 230.698 165.381 230.29C165.561 229.87 165.651 229.45 165.651 229.03C165.651 228.634 165.567 228.304 165.399 228.04C165.231 227.776 164.997 227.62 164.697 227.572L164.733 227.248L166.047 225.772ZM176.304 239.2C175.992 239.692 175.482 240.154 174.774 240.586C174.078 241.018 173.268 241.234 172.344 241.234C171.48 241.234 170.766 241.048 170.202 240.676C169.65 240.304 169.248 239.818 168.996 239.218C168.744 238.618 168.618 237.964 168.618 237.256C168.618 236.056 168.858 234.964 169.338 233.98C169.83 232.984 170.496 232.198 171.336 231.622C172.176 231.046 173.112 230.758 174.144 230.758C175.068 230.758 175.752 230.974 176.196 231.406C176.652 231.826 176.88 232.378 176.88 233.062C176.88 233.926 176.568 234.646 175.944 235.222C175.32 235.798 174.57 236.23 173.694 236.518C172.818 236.794 171.99 236.944 171.21 236.968C171.186 237.832 171.324 238.528 171.624 239.056C171.936 239.584 172.404 239.848 173.028 239.848C174.06 239.848 174.996 239.368 175.836 238.408L176.304 239.2ZM173.604 231.874C172.896 231.874 172.338 232.3 171.93 233.152C171.522 234.004 171.282 234.952 171.21 235.996C171.678 235.972 172.17 235.846 172.686 235.618C173.214 235.39 173.652 235.072 174 234.664C174.36 234.244 174.54 233.764 174.54 233.224C174.54 232.792 174.456 232.462 174.288 232.234C174.132 231.994 173.904 231.874 173.604 231.874ZM181.695 232.972C182.127 232.324 182.643 231.796 183.243 231.388C183.843 230.98 184.473 230.776 185.133 230.776C185.805 230.776 186.327 230.956 186.699 231.316C187.083 231.664 187.305 232.228 187.365 233.008C187.785 232.312 188.295 231.766 188.895 231.37C189.507 230.974 190.167 230.776 190.875 230.776C192.375 230.776 193.125 231.658 193.125 233.422C193.125 233.806 193.005 234.694 192.765 236.086L192.693 236.554L192.603 237.022C192.399 238.138 192.291 238.906 192.279 239.326C192.279 239.674 192.381 239.848 192.585 239.848C192.693 239.848 192.807 239.818 192.927 239.758C193.059 239.686 193.233 239.56 193.449 239.38L193.683 239.938C193.515 240.19 193.221 240.46 192.801 240.748C192.381 241.036 191.877 241.18 191.289 241.18C190.725 241.18 190.335 241.066 190.119 240.838C189.903 240.61 189.795 240.304 189.795 239.92C189.795 239.68 189.831 239.332 189.903 238.876C189.975 238.408 190.053 237.94 190.137 237.472L190.209 237.058C190.353 236.242 190.455 235.6 190.515 235.132C190.587 234.664 190.623 234.208 190.623 233.764C190.623 233.212 190.557 232.834 190.425 232.63C190.305 232.426 190.089 232.324 189.777 232.324C189.393 232.324 188.973 232.51 188.517 232.882C188.073 233.254 187.689 233.728 187.365 234.304C187.317 235.012 187.239 235.762 187.131 236.554L186.573 241H184.143L184.665 237.076C184.881 235.588 184.989 234.46 184.989 233.692C184.977 233.14 184.899 232.774 184.755 232.594C184.623 232.414 184.383 232.324 184.035 232.324C183.651 232.324 183.213 232.534 182.721 232.954C182.241 233.374 181.839 233.878 181.515 234.466L180.615 241H178.275L179.427 232.432L178.509 231.946L178.653 231.208L181.461 230.776L181.875 230.974L181.695 232.972ZM198.728 231.964C199.04 231.616 199.418 231.334 199.862 231.118C200.306 230.89 200.792 230.776 201.32 230.776C202.316 230.776 203.072 231.112 203.588 231.784C204.104 232.456 204.362 233.392 204.362 234.592C204.362 235.732 204.122 236.806 203.642 237.814C203.162 238.822 202.478 239.638 201.59 240.262C200.714 240.874 199.7 241.18 198.548 241.18C198.236 241.18 197.882 241.138 197.486 241.054L196.856 245.572H194.552L196.334 232.378L195.38 231.928L195.524 231.208L198.44 230.776L198.854 230.974L198.728 231.964ZM197.648 239.848C197.924 239.992 198.302 240.064 198.782 240.064C199.466 240.064 200.036 239.8 200.492 239.272C200.96 238.744 201.302 238.066 201.518 237.238C201.746 236.41 201.86 235.54 201.86 234.628C201.86 233.884 201.734 233.284 201.482 232.828C201.242 232.372 200.888 232.144 200.42 232.144C200.048 232.144 199.706 232.258 199.394 232.486C199.082 232.702 198.806 232.972 198.566 233.296L197.648 239.848ZM208.357 239.2C208.345 239.248 208.339 239.314 208.339 239.398C208.339 239.698 208.447 239.848 208.663 239.848C208.771 239.848 208.885 239.818 209.005 239.758C209.137 239.698 209.311 239.572 209.527 239.38L209.761 239.938C209.569 240.214 209.287 240.49 208.915 240.766C208.543 241.042 208.063 241.18 207.475 241.18C207.019 241.18 206.647 241.09 206.359 240.91C206.071 240.718 205.921 240.424 205.909 240.028C205.909 239.98 205.933 239.764 205.981 239.38L207.547 227.878L206.413 227.518L206.575 226.852L209.635 226.492L210.049 226.726L208.357 239.2ZM216.559 230.758C217.807 230.758 218.761 231.124 219.421 231.856C220.081 232.576 220.411 233.614 220.411 234.97C220.411 236.086 220.183 237.124 219.727 238.084C219.271 239.044 218.629 239.812 217.801 240.388C216.973 240.952 216.025 241.234 214.957 241.234C213.709 241.234 212.755 240.868 212.095 240.136C211.447 239.392 211.123 238.336 211.123 236.968C211.123 235.84 211.345 234.802 211.789 233.854C212.245 232.906 212.887 232.156 213.715 231.604C214.543 231.04 215.491 230.758 216.559 230.758ZM216.253 231.892C215.701 231.892 215.233 232.144 214.849 232.648C214.465 233.14 214.177 233.77 213.985 234.538C213.805 235.306 213.715 236.092 213.715 236.896C213.715 238.036 213.841 238.87 214.093 239.398C214.357 239.926 214.765 240.19 215.317 240.19C215.857 240.19 216.313 239.938 216.685 239.434C217.057 238.93 217.333 238.288 217.513 237.508C217.693 236.728 217.783 235.93 217.783 235.114C217.783 233.974 217.657 233.152 217.405 232.648C217.165 232.144 216.781 231.892 216.253 231.892ZM224.675 239.2C224.663 239.26 224.657 239.332 224.657 239.416C224.657 239.704 224.759 239.848 224.963 239.848C225.071 239.848 225.191 239.812 225.323 239.74C225.455 239.668 225.623 239.548 225.827 239.38L226.061 239.938C225.857 240.214 225.551 240.49 225.143 240.766C224.747 241.042 224.261 241.18 223.685 241.18C223.217 241.18 222.851 241.09 222.587 240.91C222.323 240.718 222.191 240.46 222.191 240.136L222.209 239.956C222.281 239.332 222.527 237.52 222.947 234.52L223.235 232.432L222.173 231.928L222.299 231.226L225.395 230.794L225.827 230.992L224.675 239.2ZM224.873 229.066C224.549 229.066 224.267 228.946 224.027 228.706C223.799 228.454 223.685 228.166 223.685 227.842C223.685 227.398 223.829 227.026 224.117 226.726C224.417 226.426 224.795 226.276 225.251 226.276C225.623 226.276 225.917 226.396 226.133 226.636C226.349 226.864 226.457 227.14 226.457 227.464C226.457 227.92 226.319 228.304 226.043 228.616C225.767 228.916 225.377 229.066 224.873 229.066ZM239.445 239.2C239.133 239.692 238.623 240.154 237.915 240.586C237.219 241.018 236.409 241.234 235.485 241.234C234.621 241.234 233.907 241.048 233.343 240.676C232.791 240.304 232.389 239.818 232.137 239.218C231.885 238.618 231.759 237.964 231.759 237.256C231.759 236.056 231.999 234.964 232.479 233.98C232.971 232.984 233.637 232.198 234.477 231.622C235.317 231.046 236.253 230.758 237.285 230.758C238.209 230.758 238.893 230.974 239.337 231.406C239.793 231.826 240.021 232.378 240.021 233.062C240.021 233.926 239.709 234.646 239.085 235.222C238.461 235.798 237.711 236.23 236.835 236.518C235.959 236.794 235.131 236.944 234.351 236.968C234.327 237.832 234.465 238.528 234.765 239.056C235.077 239.584 235.545 239.848 236.169 239.848C237.201 239.848 238.137 239.368 238.977 238.408L239.445 239.2ZM236.745 231.874C236.037 231.874 235.479 232.3 235.071 233.152C234.663 234.004 234.423 234.952 234.351 235.996C234.819 235.972 235.311 235.846 235.827 235.618C236.355 235.39 236.793 235.072 237.141 234.664C237.501 234.244 237.681 233.764 237.681 233.224C237.681 232.792 237.597 232.462 237.429 232.234C237.273 231.994 237.045 231.874 236.745 231.874ZM247.373 232.72C247.229 232.552 246.989 232.378 246.653 232.198C246.329 232.018 245.951 231.928 245.519 231.928C245.039 231.928 244.649 232.036 244.349 232.252C244.061 232.456 243.917 232.762 243.917 233.17C243.917 233.53 244.037 233.854 244.277 234.142C244.529 234.418 244.931 234.754 245.483 235.15C246.095 235.606 246.563 236.05 246.887 236.482C247.211 236.902 247.373 237.442 247.373 238.102C247.373 238.762 247.193 239.326 246.833 239.794C246.473 240.25 245.993 240.598 245.393 240.838C244.793 241.066 244.133 241.18 243.413 241.18C242.873 241.18 242.321 241.12 241.757 241C241.193 240.868 240.827 240.73 240.659 240.586L241.019 239.056C241.271 239.272 241.613 239.476 242.045 239.668C242.477 239.86 242.927 239.956 243.395 239.956C243.839 239.956 244.217 239.854 244.529 239.65C244.853 239.446 245.015 239.128 245.015 238.696C245.015 238.324 244.877 237.988 244.601 237.688C244.325 237.388 243.911 237.046 243.359 236.662C242.855 236.314 242.429 235.906 242.081 235.438C241.745 234.958 241.577 234.382 241.577 233.71C241.577 233.134 241.739 232.624 242.063 232.18C242.399 231.736 242.855 231.394 243.431 231.154C244.019 230.902 244.691 230.776 245.447 230.776C245.891 230.776 246.341 230.812 246.797 230.884C247.253 230.956 247.559 231.034 247.715 231.118L247.373 232.72ZM251.833 237.706C251.749 238.402 251.707 238.822 251.707 238.966C251.707 239.242 251.761 239.44 251.869 239.56C251.977 239.668 252.163 239.722 252.427 239.722C252.667 239.722 252.937 239.668 253.237 239.56C253.549 239.44 253.807 239.296 254.011 239.128L254.209 239.794C253.897 240.142 253.453 240.46 252.877 240.748C252.301 241.036 251.653 241.18 250.933 241.18C250.429 241.18 250.027 241.054 249.727 240.802C249.439 240.538 249.295 240.124 249.295 239.56C249.295 239.32 249.355 238.756 249.475 237.868L250.231 232.288H249.151L249.349 231.424L250.429 231.046C250.789 230.71 251.215 229.882 251.707 228.562H253.057L252.751 231.01H254.911L254.731 232.288H252.571L251.833 237.706ZM103.166 262.2C103.154 262.26 103.148 262.332 103.148 262.416C103.148 262.704 103.25 262.848 103.454 262.848C103.562 262.848 103.682 262.812 103.814 262.74C103.946 262.668 104.114 262.548 104.318 262.38L104.552 262.938C104.348 263.214 104.042 263.49 103.634 263.766C103.238 264.042 102.752 264.18 102.176 264.18C101.708 264.18 101.342 264.09 101.078 263.91C100.814 263.718 100.682 263.46 100.682 263.136L100.7 262.956C100.772 262.332 101.018 260.52 101.438 257.52L101.726 255.432L100.664 254.928L100.79 254.226L103.886 253.794L104.318 253.992L103.166 262.2ZM103.364 252.066C103.04 252.066 102.758 251.946 102.518 251.706C102.29 251.454 102.176 251.166 102.176 250.842C102.176 250.398 102.32 250.026 102.608 249.726C102.908 249.426 103.286 249.276 103.742 249.276C104.114 249.276 104.408 249.396 104.624 249.636C104.84 249.864 104.948 250.14 104.948 250.464C104.948 250.92 104.81 251.304 104.534 251.616C104.258 251.916 103.868 252.066 103.364 252.066ZM109.651 255.954C110.095 255.294 110.623 254.766 111.235 254.37C111.847 253.974 112.489 253.776 113.161 253.776C114.649 253.776 115.393 254.658 115.393 256.422C115.393 256.89 115.243 257.934 114.943 259.554C114.895 259.866 114.853 260.106 114.817 260.274C114.649 261.222 114.559 261.906 114.547 262.326V262.398C114.547 262.698 114.643 262.848 114.835 262.848C114.943 262.848 115.057 262.818 115.177 262.758C115.297 262.698 115.453 262.59 115.645 262.434L115.897 262.992C115.717 263.244 115.423 263.508 115.015 263.784C114.607 264.048 114.109 264.18 113.521 264.18C112.957 264.18 112.567 264.06 112.351 263.82C112.135 263.568 112.027 263.238 112.027 262.83C112.039 262.47 112.153 261.756 112.369 260.688L112.477 260.076C112.501 259.968 112.549 259.68 112.621 259.212C112.705 258.744 112.771 258.3 112.819 257.88C112.867 257.448 112.891 257.076 112.891 256.764C112.891 256.212 112.825 255.834 112.693 255.63C112.573 255.426 112.351 255.324 112.027 255.324C111.631 255.324 111.187 255.546 110.695 255.99C110.215 256.434 109.801 256.968 109.453 257.592L108.589 264H106.231L107.383 255.432L106.465 254.946L106.609 254.208L109.417 253.776L109.831 253.974L109.651 255.954ZM123.527 255.72C123.383 255.552 123.143 255.378 122.807 255.198C122.483 255.018 122.105 254.928 121.673 254.928C121.193 254.928 120.803 255.036 120.503 255.252C120.215 255.456 120.071 255.762 120.071 256.17C120.071 256.53 120.191 256.854 120.431 257.142C120.683 257.418 121.085 257.754 121.637 258.15C122.249 258.606 122.717 259.05 123.041 259.482C123.365 259.902 123.527 260.442 123.527 261.102C123.527 261.762 123.347 262.326 122.987 262.794C122.627 263.25 122.147 263.598 121.547 263.838C120.947 264.066 120.287 264.18 119.567 264.18C119.027 264.18 118.475 264.12 117.911 264C117.347 263.868 116.981 263.73 116.813 263.586L117.173 262.056C117.425 262.272 117.767 262.476 118.199 262.668C118.631 262.86 119.081 262.956 119.549 262.956C119.993 262.956 120.371 262.854 120.683 262.65C121.007 262.446 121.169 262.128 121.169 261.696C121.169 261.324 121.031 260.988 120.755 260.688C120.479 260.388 120.065 260.046 119.513 259.662C119.009 259.314 118.583 258.906 118.235 258.438C117.899 257.958 117.731 257.382 117.731 256.71C117.731 256.134 117.893 255.624 118.217 255.18C118.553 254.736 119.009 254.394 119.585 254.154C120.173 253.902 120.845 253.776 121.601 253.776C122.045 253.776 122.495 253.812 122.951 253.884C123.407 253.956 123.713 254.034 123.869 254.118L123.527 255.72ZM128.256 258.798C128.208 259.242 128.166 259.554 128.13 259.734C128.01 260.67 127.95 261.27 127.95 261.534C127.95 262.014 128.034 262.356 128.202 262.56C128.37 262.764 128.622 262.866 128.958 262.866C129.342 262.866 129.72 262.746 130.092 262.506C130.476 262.266 130.8 261.978 131.064 261.642L132.108 253.866H134.484L133.332 262.2C133.308 262.416 133.326 262.578 133.386 262.686C133.446 262.794 133.536 262.848 133.656 262.848C133.764 262.848 133.878 262.818 133.998 262.758C134.118 262.686 134.286 262.56 134.502 262.38L134.754 262.938C134.598 263.19 134.31 263.46 133.89 263.748C133.47 264.036 132.99 264.18 132.45 264.18C132.03 264.18 131.706 264.09 131.478 263.91C131.262 263.73 131.142 263.484 131.118 263.172L131.1 262.956C131.1 262.86 131.112 262.74 131.136 262.596L131.1 262.578C130.212 263.646 129.168 264.18 127.968 264.18C127.296 264.18 126.726 264 126.258 263.64C125.79 263.268 125.55 262.68 125.538 261.876C125.538 261.408 125.622 260.562 125.79 259.338C125.838 259.038 125.868 258.834 125.88 258.726L126.366 255.45L125.322 254.838L125.466 254.1L128.454 253.794L128.868 253.992L128.256 258.798ZM137.945 253.146C138.065 252.426 138.299 251.778 138.647 251.202C139.007 250.626 139.463 250.17 140.015 249.834C140.567 249.498 141.185 249.33 141.869 249.33C142.505 249.33 143.009 249.402 143.381 249.546L142.877 250.986C142.529 250.722 142.127 250.59 141.671 250.59C141.227 250.59 140.903 250.758 140.699 251.094C140.507 251.43 140.363 251.946 140.267 252.642L140.087 253.956H142.067L141.833 255.306H139.907L138.917 263.298C138.725 264.774 138.287 266.01 137.603 267.006C136.931 268.002 136.031 268.506 134.903 268.518C134.627 268.53 134.339 268.518 134.039 268.482C133.727 268.446 133.481 268.404 133.301 268.356L133.769 266.844C133.925 266.916 134.153 266.994 134.453 267.078C134.741 267.174 134.975 267.222 135.155 267.222C135.479 267.222 135.731 267.06 135.911 266.736C136.103 266.424 136.241 265.95 136.325 265.314L137.567 255.306H136.415L136.577 254.514L137.801 253.992L137.945 253.146ZM144.029 253.146C144.149 252.426 144.383 251.778 144.731 251.202C145.091 250.626 145.547 250.17 146.099 249.834C146.651 249.498 147.269 249.33 147.953 249.33C148.589 249.33 149.093 249.402 149.465 249.546L148.961 250.986C148.613 250.722 148.211 250.59 147.755 250.59C147.311 250.59 146.987 250.758 146.783 251.094C146.591 251.43 146.447 251.946 146.351 252.642L146.171 253.956H148.151L147.917 255.306H145.991L145.001 263.298C144.809 264.774 144.371 266.01 143.687 267.006C143.015 268.002 142.115 268.506 140.987 268.518C140.711 268.53 140.417 268.518 140.105 268.482C139.805 268.446 139.565 268.404 139.385 268.356L139.853 266.844C140.009 266.916 140.231 266.994 140.519 267.078C140.819 267.174 141.059 267.222 141.239 267.222C141.563 267.222 141.815 267.06 141.995 266.736C142.187 266.424 142.325 265.95 142.409 265.314L143.651 255.306H142.499L142.661 254.514L143.885 253.992L144.029 253.146ZM151.193 262.2C151.181 262.26 151.175 262.332 151.175 262.416C151.175 262.704 151.277 262.848 151.481 262.848C151.589 262.848 151.709 262.812 151.841 262.74C151.973 262.668 152.141 262.548 152.345 262.38L152.579 262.938C152.375 263.214 152.069 263.49 151.661 263.766C151.265 264.042 150.779 264.18 150.203 264.18C149.735 264.18 149.369 264.09 149.105 263.91C148.841 263.718 148.709 263.46 148.709 263.136L148.727 262.956C148.799 262.332 149.045 260.52 149.465 257.52L149.753 255.432L148.691 254.928L148.817 254.226L151.913 253.794L152.345 253.992L151.193 262.2ZM151.391 252.066C151.067 252.066 150.785 251.946 150.545 251.706C150.317 251.454 150.203 251.166 150.203 250.842C150.203 250.398 150.347 250.026 150.635 249.726C150.935 249.426 151.313 249.276 151.769 249.276C152.141 249.276 152.435 249.396 152.651 249.636C152.867 249.864 152.975 250.14 152.975 250.464C152.975 250.92 152.837 251.304 152.561 251.616C152.285 251.916 151.895 252.066 151.391 252.066ZM160.212 255.72C160.068 255.552 159.828 255.378 159.492 255.198C159.168 255.018 158.79 254.928 158.358 254.928C157.878 254.928 157.488 255.036 157.188 255.252C156.9 255.456 156.756 255.762 156.756 256.17C156.756 256.53 156.876 256.854 157.116 257.142C157.368 257.418 157.77 257.754 158.322 258.15C158.934 258.606 159.402 259.05 159.726 259.482C160.05 259.902 160.212 260.442 160.212 261.102C160.212 261.762 160.032 262.326 159.672 262.794C159.312 263.25 158.832 263.598 158.232 263.838C157.632 264.066 156.972 264.18 156.252 264.18C155.712 264.18 155.16 264.12 154.596 264C154.032 263.868 153.666 263.73 153.498 263.586L153.858 262.056C154.11 262.272 154.452 262.476 154.884 262.668C155.316 262.86 155.766 262.956 156.234 262.956C156.678 262.956 157.056 262.854 157.368 262.65C157.692 262.446 157.854 262.128 157.854 261.696C157.854 261.324 157.716 260.988 157.44 260.688C157.164 260.388 156.75 260.046 156.198 259.662C155.694 259.314 155.268 258.906 154.92 258.438C154.584 257.958 154.416 257.382 154.416 256.71C154.416 256.134 154.578 255.624 154.902 255.18C155.238 254.736 155.694 254.394 156.27 254.154C156.858 253.902 157.53 253.776 158.286 253.776C158.73 253.776 159.18 253.812 159.636 253.884C160.092 253.956 160.398 254.034 160.554 254.118L160.212 255.72ZM169.622 262.164C169.61 262.212 169.604 262.284 169.604 262.38C169.604 262.692 169.724 262.848 169.964 262.848C170.156 262.848 170.426 262.704 170.774 262.416L171.026 262.974C170.87 263.214 170.588 263.478 170.18 263.766C169.784 264.042 169.322 264.18 168.794 264.18C168.386 264.18 168.062 264.09 167.822 263.91C167.582 263.73 167.456 263.454 167.444 263.082L167.48 262.776C167.144 263.172 166.736 263.508 166.256 263.784C165.776 264.048 165.248 264.18 164.672 264.18C163.664 264.18 162.908 263.838 162.404 263.154C161.912 262.458 161.666 261.552 161.666 260.436C161.666 259.332 161.894 258.27 162.35 257.25C162.818 256.23 163.496 255.396 164.384 254.748C165.272 254.1 166.328 253.776 167.552 253.776C167.864 253.776 168.2 253.812 168.56 253.884C168.932 253.956 169.256 254.04 169.532 254.136L170.774 253.776L169.622 262.164ZM168.236 255.054C168.008 254.946 167.714 254.892 167.354 254.892C166.634 254.892 166.034 255.168 165.554 255.72C165.074 256.26 164.72 256.95 164.492 257.79C164.276 258.618 164.168 259.458 164.168 260.31C164.168 261.102 164.288 261.72 164.528 262.164C164.768 262.596 165.122 262.812 165.59 262.812C165.89 262.812 166.19 262.71 166.49 262.506C166.802 262.302 167.078 262.062 167.318 261.786L168.236 255.054ZM175.92 255.954C176.364 255.294 176.892 254.766 177.504 254.37C178.116 253.974 178.758 253.776 179.43 253.776C180.918 253.776 181.662 254.658 181.662 256.422C181.662 256.89 181.512 257.934 181.212 259.554C181.164 259.866 181.122 260.106 181.086 260.274C180.918 261.222 180.828 261.906 180.816 262.326V262.398C180.816 262.698 180.912 262.848 181.104 262.848C181.212 262.848 181.326 262.818 181.446 262.758C181.566 262.698 181.722 262.59 181.914 262.434L182.166 262.992C181.986 263.244 181.692 263.508 181.284 263.784C180.876 264.048 180.378 264.18 179.79 264.18C179.226 264.18 178.836 264.06 178.62 263.82C178.404 263.568 178.296 263.238 178.296 262.83C178.308 262.47 178.422 261.756 178.638 260.688L178.746 260.076C178.77 259.968 178.818 259.68 178.89 259.212C178.974 258.744 179.04 258.3 179.088 257.88C179.136 257.448 179.16 257.076 179.16 256.764C179.16 256.212 179.094 255.834 178.962 255.63C178.842 255.426 178.62 255.324 178.296 255.324C177.9 255.324 177.456 255.546 176.964 255.99C176.484 256.434 176.07 256.968 175.722 257.592L174.858 264H172.5L173.652 255.432L172.734 254.946L172.878 254.208L175.686 253.776L176.1 253.974L175.92 255.954ZM186.574 260.706C186.49 261.402 186.448 261.822 186.448 261.966C186.448 262.242 186.502 262.44 186.61 262.56C186.718 262.668 186.904 262.722 187.168 262.722C187.408 262.722 187.678 262.668 187.978 262.56C188.29 262.44 188.548 262.296 188.752 262.128L188.95 262.794C188.638 263.142 188.194 263.46 187.618 263.748C187.042 264.036 186.394 264.18 185.674 264.18C185.17 264.18 184.768 264.054 184.468 263.802C184.18 263.538 184.036 263.124 184.036 262.56C184.036 262.32 184.096 261.756 184.216 260.868L184.972 255.288H183.892L184.09 254.424L185.17 254.046C185.53 253.71 185.956 252.882 186.448 251.562H187.798L187.492 254.01H189.652L189.472 255.288H187.312L186.574 260.706ZM197.67 262.2C197.358 262.692 196.848 263.154 196.14 263.586C195.444 264.018 194.634 264.234 193.71 264.234C192.846 264.234 192.132 264.048 191.568 263.676C191.016 263.304 190.614 262.818 190.362 262.218C190.11 261.618 189.984 260.964 189.984 260.256C189.984 259.056 190.224 257.964 190.704 256.98C191.196 255.984 191.862 255.198 192.702 254.622C193.542 254.046 194.478 253.758 195.51 253.758C196.434 253.758 197.118 253.974 197.562 254.406C198.018 254.826 198.246 255.378 198.246 256.062C198.246 256.926 197.934 257.646 197.31 258.222C196.686 258.798 195.936 259.23 195.06 259.518C194.184 259.794 193.356 259.944 192.576 259.968C192.552 260.832 192.69 261.528 192.99 262.056C193.302 262.584 193.77 262.848 194.394 262.848C195.426 262.848 196.362 262.368 197.202 261.408L197.67 262.2ZM194.97 254.874C194.262 254.874 193.704 255.3 193.296 256.152C192.888 257.004 192.648 257.952 192.576 258.996C193.044 258.972 193.536 258.846 194.052 258.618C194.58 258.39 195.018 258.072 195.366 257.664C195.726 257.244 195.906 256.764 195.906 256.224C195.906 255.792 195.822 255.462 195.654 255.234C195.498 254.994 195.27 254.874 194.97 254.874ZM199.227 262.92C199.227 262.452 199.377 262.068 199.677 261.768C199.977 261.456 200.319 261.3 200.703 261.3C201.087 261.3 201.387 261.426 201.603 261.678C201.819 261.918 201.927 262.212 201.927 262.56C201.927 263.076 201.771 263.478 201.459 263.766C201.159 264.042 200.793 264.18 200.361 264.18C200.049 264.18 199.779 264.066 199.551 263.838C199.335 263.598 199.227 263.292 199.227 262.92Z" fill="#394454"/>
<path d="M122.852 90.1364V84.9205L132.801 69.2727H137.534V76.2273H134.829L129.468 84.7273V84.9205H144.15V90.1364H122.852ZM134.877 94V88.5426L135.022 86.2727V69.2727H141.301V94H134.877ZM156.625 94.3381C154.677 94.3381 152.947 94.004 151.434 93.3359C149.928 92.6598 148.745 91.7301 147.884 90.5469C147.023 89.3636 146.588 88.0033 146.58 86.4659H153.341C153.349 86.9408 153.494 87.3674 153.776 87.7457C154.066 88.116 154.46 88.4058 154.959 88.6151C155.458 88.8243 156.03 88.929 156.674 88.929C157.293 88.929 157.841 88.8203 158.316 88.603C158.791 88.3776 159.161 88.0677 159.426 87.6733C159.692 87.2789 159.821 86.8281 159.813 86.321C159.821 85.822 159.668 85.3793 159.354 84.9929C159.048 84.6065 158.618 84.3047 158.062 84.0874C157.507 83.87 156.867 83.7614 156.142 83.7614H153.631V79.125H156.142C156.81 79.125 157.398 79.0163 157.905 78.799C158.42 78.5817 158.819 78.2798 159.1 77.8935C159.39 77.5071 159.531 77.0644 159.523 76.5653C159.531 76.0824 159.414 75.6558 159.173 75.2855C158.931 74.9152 158.593 74.6255 158.159 74.4162C157.732 74.2069 157.237 74.1023 156.674 74.1023C156.062 74.1023 155.515 74.2109 155.032 74.4283C154.557 74.6456 154.182 74.9474 153.909 75.3338C153.635 75.7202 153.494 76.1629 153.486 76.6619H147.063C147.071 75.1487 147.485 73.8125 148.306 72.6534C149.136 71.4943 150.27 70.5848 151.711 69.9247C153.152 69.2647 154.806 68.9347 156.674 68.9347C158.501 68.9347 160.115 69.2446 161.515 69.8643C162.924 70.4841 164.023 71.3374 164.811 72.424C165.608 73.5026 166.003 74.7382 165.995 76.1307C166.011 77.5152 165.536 78.6501 164.57 79.5355C163.612 80.4209 162.397 80.9441 160.924 81.1051V81.2983C162.92 81.5156 164.421 82.1274 165.427 83.1335C166.433 84.1316 166.928 85.3873 166.912 86.9006C166.92 88.3494 166.486 89.6333 165.608 90.7521C164.739 91.871 163.528 92.7483 161.974 93.3842C160.429 94.0201 158.646 94.3381 156.625 94.3381ZM184.06 89.3636V88.0597C184.06 87.0133 184.286 86.0473 184.736 85.1619C185.195 84.2765 185.859 83.5642 186.729 83.0249C187.598 82.4856 188.656 82.2159 189.904 82.2159C191.184 82.2159 192.258 82.4815 193.128 83.0128C194.005 83.544 194.669 84.2524 195.12 85.1378C195.571 86.0232 195.796 86.9972 195.796 88.0597V89.3636C195.796 90.41 195.567 91.3759 195.108 92.2614C194.657 93.1468 193.993 93.8591 193.116 94.3984C192.238 94.9377 191.168 95.2074 189.904 95.2074C188.64 95.2074 187.574 94.9377 186.704 94.3984C185.835 93.8591 185.175 93.1468 184.724 92.2614C184.282 91.3759 184.06 90.41 184.06 89.3636ZM188.262 88.0597V89.3636C188.262 89.8224 188.375 90.2772 188.6 90.728C188.833 91.1707 189.268 91.392 189.904 91.392C190.572 91.392 191.011 91.1747 191.22 90.7401C191.437 90.3054 191.546 89.8466 191.546 89.3636V88.0597C191.546 87.5767 191.445 87.1098 191.244 86.6591C191.043 86.2083 190.596 85.983 189.904 85.983C189.268 85.983 188.833 86.2083 188.6 86.6591C188.375 87.1098 188.262 87.5767 188.262 88.0597ZM171.117 75.2131V73.9091C171.117 72.8466 171.346 71.8726 171.805 70.9872C172.272 70.1018 172.94 69.3935 173.809 68.8622C174.679 68.331 175.729 68.0653 176.961 68.0653C178.241 68.0653 179.315 68.331 180.184 68.8622C181.062 69.3935 181.726 70.1018 182.177 70.9872C182.627 71.8726 182.853 72.8466 182.853 73.9091V75.2131C182.853 76.2756 182.623 77.2455 182.165 78.1229C181.714 79.0002 181.05 79.7005 180.172 80.2237C179.295 80.7469 178.224 81.0085 176.961 81.0085C175.697 81.0085 174.631 80.7429 173.761 80.2116C172.892 79.6804 172.232 78.9761 171.781 78.0987C171.338 77.2214 171.117 76.2595 171.117 75.2131ZM175.367 73.9091V75.2131C175.367 75.696 175.48 76.1548 175.705 76.5895C175.93 77.0241 176.349 77.2415 176.961 77.2415C177.629 77.2415 178.068 77.0241 178.277 76.5895C178.494 76.1548 178.603 75.696 178.603 75.2131V73.9091C178.603 73.4261 178.502 72.9593 178.301 72.5085C178.1 72.0578 177.653 71.8324 176.961 71.8324C176.325 71.8324 175.898 72.0658 175.681 72.5327C175.472 72.9915 175.367 73.4503 175.367 73.9091ZM173.17 94L190.17 69.2727H193.599L176.599 94H173.17Z" fill="#F04E5A"/>
<path d="M152 7C169.048 7 185.588 12.8083 198.893 23.4677C212.198 34.1271 221.475 49.0014 225.194 65.6393C228.913 82.2771 226.852 99.6855 219.352 114.995C211.852 130.305 199.359 142.603 183.933 149.862L179.067 139.52C192.142 133.367 202.73 122.944 209.088 109.967C215.445 96.9902 217.191 82.2349 214.039 68.1326C210.887 54.0304 203.024 41.4229 191.747 32.388C180.469 23.3531 166.45 18.43 152 18.43L152 7Z" fill="#F04E5A"/>
</svg>
