<svg width="303" height="269" viewBox="0 0 303 269" fill="none" xmlns="http://www.w3.org/2000/svg">
<circle cx="152" cy="82" r="82" fill="#E9E9E9"/>
<path d="M27.5503 216.182C27.5383 216.23 27.5323 216.302 27.5323 216.398C27.5323 216.698 27.6343 216.848 27.8383 216.848C28.0423 216.848 28.3123 216.71 28.6483 216.434L28.9003 216.992C28.2283 217.784 27.4843 218.18 26.6683 218.18C26.2483 218.18 25.9303 218.078 25.7143 217.874C25.4983 217.67 25.3723 217.358 25.3363 216.938V216.668C25.0363 217.088 24.6343 217.448 24.1303 217.748C23.6263 218.036 23.0503 218.18 22.4023 218.18C21.3943 218.18 20.6443 217.838 20.1523 217.154C19.6603 216.458 19.4143 215.552 19.4143 214.436C19.4143 213.32 19.6363 212.252 20.0803 211.232C20.5243 210.212 21.1843 209.384 22.0603 208.748C22.9483 208.1 24.0163 207.776 25.2643 207.776C25.6123 207.776 25.9783 207.824 26.3623 207.92L26.8123 204.878L25.5163 204.518L25.6783 203.852L28.9183 203.492L29.3683 203.726L27.5503 216.182ZM26.1823 209.144C25.8823 208.976 25.5043 208.892 25.0483 208.892C24.3163 208.892 23.7163 209.174 23.2483 209.738C22.7803 210.29 22.4383 210.98 22.2223 211.808C22.0063 212.636 21.8983 213.476 21.8983 214.328C21.8983 215.12 22.0183 215.732 22.2583 216.164C22.5103 216.596 22.8643 216.812 23.3203 216.812C23.6923 216.812 24.0463 216.698 24.3823 216.47C24.7183 216.23 24.9943 215.948 25.2103 215.624L26.1823 209.144ZM37.9293 216.2C37.6173 216.692 37.1073 217.154 36.3993 217.586C35.7033 218.018 34.8933 218.234 33.9693 218.234C33.1053 218.234 32.3913 218.048 31.8273 217.676C31.2753 217.304 30.8733 216.818 30.6213 216.218C30.3693 215.618 30.2433 214.964 30.2433 214.256C30.2433 213.056 30.4833 211.964 30.9633 210.98C31.4553 209.984 32.1213 209.198 32.9613 208.622C33.8013 208.046 34.7373 207.758 35.7693 207.758C36.6933 207.758 37.3773 207.974 37.8213 208.406C38.2773 208.826 38.5053 209.378 38.5053 210.062C38.5053 210.926 38.1933 211.646 37.5693 212.222C36.9453 212.798 36.1953 213.23 35.3193 213.518C34.4433 213.794 33.6153 213.944 32.8353 213.968C32.8113 214.832 32.9493 215.528 33.2493 216.056C33.5613 216.584 34.0293 216.848 34.6533 216.848C35.6853 216.848 36.6213 216.368 37.4613 215.408L37.9293 216.2ZM35.2293 208.874C34.5213 208.874 33.9633 209.3 33.5553 210.152C33.1473 211.004 32.9073 211.952 32.8353 212.996C33.3033 212.972 33.7953 212.846 34.3113 212.618C34.8393 212.39 35.2773 212.072 35.6253 211.664C35.9853 211.244 36.1653 210.764 36.1653 210.224C36.1653 209.792 36.0813 209.462 35.9133 209.234C35.7573 208.994 35.5293 208.874 35.2293 208.874ZM46.6731 216.2C46.6611 216.248 46.6551 216.314 46.6551 216.398C46.6551 216.698 46.7631 216.848 46.9791 216.848C47.0871 216.848 47.2011 216.818 47.3211 216.758C47.4531 216.698 47.6271 216.572 47.8431 216.38L48.0771 216.938C47.8851 217.214 47.6031 217.49 47.2311 217.766C46.8591 218.042 46.3791 218.18 45.7911 218.18C45.3351 218.18 44.9631 218.09 44.6751 217.91C44.3871 217.718 44.2371 217.424 44.2251 217.028C44.2251 216.98 44.2491 216.764 44.2971 216.38L45.8631 204.878L44.7291 204.518L44.8911 203.852L47.9511 203.492L48.3651 203.726L46.6731 216.2ZM57.0894 216.2C56.7774 216.692 56.2674 217.154 55.5594 217.586C54.8634 218.018 54.0534 218.234 53.1294 218.234C52.2654 218.234 51.5514 218.048 50.9874 217.676C50.4354 217.304 50.0334 216.818 49.7814 216.218C49.5294 215.618 49.4034 214.964 49.4034 214.256C49.4034 213.056 49.6434 211.964 50.1234 210.98C50.6154 209.984 51.2814 209.198 52.1214 208.622C52.9614 208.046 53.8974 207.758 54.9294 207.758C55.8534 207.758 56.5374 207.974 56.9814 208.406C57.4374 208.826 57.6654 209.378 57.6654 210.062C57.6654 210.926 57.3534 211.646 56.7294 212.222C56.1054 212.798 55.3554 213.23 54.4794 213.518C53.6034 213.794 52.7754 213.944 51.9954 213.968C51.9714 214.832 52.1094 215.528 52.4094 216.056C52.7214 216.584 53.1894 216.848 53.8134 216.848C54.8454 216.848 55.7814 216.368 56.6214 215.408L57.0894 216.2ZM54.3894 208.874C53.6814 208.874 53.1234 209.3 52.7154 210.152C52.3074 211.004 52.0674 211.952 51.9954 212.996C52.4634 212.972 52.9554 212.846 53.4714 212.618C53.9994 212.39 54.4374 212.072 54.7854 211.664C55.1454 211.244 55.3254 210.764 55.3254 210.224C55.3254 209.792 55.2414 209.462 55.0734 209.234C54.9174 208.994 54.6894 208.874 54.3894 208.874ZM69.5592 210.458C69.2232 210.038 68.9232 209.702 68.6592 209.45C68.4072 209.186 68.1852 209.054 67.9932 209.054C67.5492 209.054 67.1352 209.258 66.7512 209.666C66.3792 210.074 66.0732 210.644 65.8332 211.376C65.6052 212.108 65.4912 212.93 65.4912 213.842C65.4912 214.838 65.6352 215.57 65.9232 216.038C66.2112 216.494 66.6492 216.722 67.2372 216.722C67.7412 216.722 68.1672 216.626 68.5152 216.434C68.8752 216.242 69.2232 215.972 69.5592 215.624L70.0272 216.416C69.7272 216.86 69.2532 217.268 68.6052 217.64C67.9692 218 67.2132 218.18 66.3372 218.18C65.3052 218.18 64.4952 217.82 63.9072 217.1C63.3192 216.368 63.0252 215.336 63.0252 214.004C63.0252 212.996 63.2352 212.018 63.6552 211.07C64.0752 210.11 64.6992 209.324 65.5272 208.712C66.3552 208.088 67.3512 207.776 68.5152 207.776C68.8872 207.776 69.2712 207.812 69.6672 207.884C70.0752 207.944 70.4052 208.034 70.6572 208.154L70.0452 210.494L69.5592 210.458ZM76.7954 207.758C78.0434 207.758 78.9974 208.124 79.6574 208.856C80.3174 209.576 80.6474 210.614 80.6474 211.97C80.6474 213.086 80.4194 214.124 79.9634 215.084C79.5074 216.044 78.8654 216.812 78.0374 217.388C77.2094 217.952 76.2614 218.234 75.1934 218.234C73.9454 218.234 72.9914 217.868 72.3314 217.136C71.6834 216.392 71.3594 215.336 71.3594 213.968C71.3594 212.84 71.5814 211.802 72.0254 210.854C72.4814 209.906 73.1234 209.156 73.9514 208.604C74.7794 208.04 75.7274 207.758 76.7954 207.758ZM76.4894 208.892C75.9374 208.892 75.4694 209.144 75.0854 209.648C74.7014 210.14 74.4134 210.77 74.2214 211.538C74.0414 212.306 73.9514 213.092 73.9514 213.896C73.9514 215.036 74.0774 215.87 74.3294 216.398C74.5934 216.926 75.0014 217.19 75.5534 217.19C76.0934 217.19 76.5494 216.938 76.9214 216.434C77.2934 215.93 77.5694 215.288 77.7494 214.508C77.9294 213.728 78.0194 212.93 78.0194 212.114C78.0194 210.974 77.8934 210.152 77.6414 209.648C77.4014 209.144 77.0174 208.892 76.4894 208.892ZM85.595 209.954C86.039 209.294 86.567 208.766 87.179 208.37C87.791 207.974 88.433 207.776 89.105 207.776C90.593 207.776 91.337 208.658 91.337 210.422C91.337 210.89 91.187 211.934 90.887 213.554C90.839 213.866 90.797 214.106 90.761 214.274C90.593 215.222 90.503 215.906 90.491 216.326V216.398C90.491 216.698 90.587 216.848 90.779 216.848C90.887 216.848 91.001 216.818 91.121 216.758C91.241 216.698 91.397 216.59 91.589 216.434L91.841 216.992C91.661 217.244 91.367 217.508 90.959 217.784C90.551 218.048 90.053 218.18 89.465 218.18C88.901 218.18 88.511 218.06 88.295 217.82C88.079 217.568 87.971 217.238 87.971 216.83C87.983 216.47 88.097 215.756 88.313 214.688L88.421 214.076C88.445 213.968 88.493 213.68 88.565 213.212C88.649 212.744 88.715 212.3 88.763 211.88C88.811 211.448 88.835 211.076 88.835 210.764C88.835 210.212 88.769 209.834 88.637 209.63C88.517 209.426 88.295 209.324 87.971 209.324C87.575 209.324 87.131 209.546 86.639 209.99C86.159 210.434 85.745 210.968 85.397 211.592L84.533 218H82.175L83.327 209.432L82.409 208.946L82.553 208.208L85.361 207.776L85.775 207.974L85.595 209.954ZM99.4709 209.72C99.3269 209.552 99.0869 209.378 98.7509 209.198C98.4269 209.018 98.0489 208.928 97.6169 208.928C97.1369 208.928 96.7469 209.036 96.4469 209.252C96.1589 209.456 96.0149 209.762 96.0149 210.17C96.0149 210.53 96.1349 210.854 96.3749 211.142C96.6269 211.418 97.0289 211.754 97.5809 212.15C98.1929 212.606 98.6609 213.05 98.9849 213.482C99.3089 213.902 99.4709 214.442 99.4709 215.102C99.4709 215.762 99.2909 216.326 98.9309 216.794C98.5709 217.25 98.0909 217.598 97.4909 217.838C96.8909 218.066 96.2309 218.18 95.5109 218.18C94.9709 218.18 94.4189 218.12 93.8549 218C93.2909 217.868 92.9249 217.73 92.7569 217.586L93.1169 216.056C93.3689 216.272 93.7109 216.476 94.1429 216.668C94.5749 216.86 95.0249 216.956 95.4929 216.956C95.9369 216.956 96.3149 216.854 96.6269 216.65C96.9509 216.446 97.1129 216.128 97.1129 215.696C97.1129 215.324 96.9749 214.988 96.6989 214.688C96.4229 214.388 96.0089 214.046 95.4569 213.662C94.9529 213.314 94.5269 212.906 94.1789 212.438C93.8429 211.958 93.6749 211.382 93.6749 210.71C93.6749 210.134 93.8369 209.624 94.1609 209.18C94.4969 208.736 94.9529 208.394 95.5289 208.154C96.1169 207.902 96.7889 207.776 97.5449 207.776C97.9889 207.776 98.4389 207.812 98.8949 207.884C99.3509 207.956 99.6569 208.034 99.8129 208.118L99.4709 209.72ZM103.931 216.2C103.919 216.26 103.913 216.332 103.913 216.416C103.913 216.704 104.015 216.848 104.219 216.848C104.327 216.848 104.447 216.812 104.579 216.74C104.711 216.668 104.879 216.548 105.083 216.38L105.317 216.938C105.113 217.214 104.807 217.49 104.399 217.766C104.003 218.042 103.517 218.18 102.941 218.18C102.473 218.18 102.107 218.09 101.843 217.91C101.579 217.718 101.447 217.46 101.447 217.136L101.465 216.956C101.537 216.332 101.783 214.52 102.203 211.52L102.491 209.432L101.429 208.928L101.555 208.226L104.651 207.794L105.083 207.992L103.931 216.2ZM104.129 206.066C103.805 206.066 103.523 205.946 103.283 205.706C103.055 205.454 102.941 205.166 102.941 204.842C102.941 204.398 103.085 204.026 103.373 203.726C103.673 203.426 104.051 203.276 104.507 203.276C104.879 203.276 105.173 203.396 105.389 203.636C105.605 203.864 105.713 204.14 105.713 204.464C105.713 204.92 105.575 205.304 105.299 205.616C105.023 205.916 104.633 206.066 104.129 206.066ZM114.843 216.182C114.831 216.23 114.825 216.302 114.825 216.398C114.825 216.698 114.927 216.848 115.131 216.848C115.335 216.848 115.605 216.71 115.941 216.434L116.193 216.992C115.521 217.784 114.777 218.18 113.961 218.18C113.541 218.18 113.223 218.078 113.007 217.874C112.791 217.67 112.665 217.358 112.629 216.938V216.668C112.329 217.088 111.927 217.448 111.423 217.748C110.919 218.036 110.343 218.18 109.695 218.18C108.687 218.18 107.937 217.838 107.445 217.154C106.953 216.458 106.707 215.552 106.707 214.436C106.707 213.32 106.929 212.252 107.373 211.232C107.817 210.212 108.477 209.384 109.353 208.748C110.241 208.1 111.309 207.776 112.557 207.776C112.905 207.776 113.271 207.824 113.655 207.92L114.105 204.878L112.809 204.518L112.971 203.852L116.211 203.492L116.661 203.726L114.843 216.182ZM113.475 209.144C113.175 208.976 112.797 208.892 112.341 208.892C111.609 208.892 111.009 209.174 110.541 209.738C110.073 210.29 109.731 210.98 109.515 211.808C109.299 212.636 109.191 213.476 109.191 214.328C109.191 215.12 109.311 215.732 109.551 216.164C109.803 216.596 110.157 216.812 110.613 216.812C110.985 216.812 111.339 216.698 111.675 216.47C112.011 216.23 112.287 215.948 112.503 215.624L113.475 209.144ZM125.222 216.2C124.91 216.692 124.4 217.154 123.692 217.586C122.996 218.018 122.186 218.234 121.262 218.234C120.398 218.234 119.684 218.048 119.12 217.676C118.568 217.304 118.166 216.818 117.914 216.218C117.662 215.618 117.536 214.964 117.536 214.256C117.536 213.056 117.776 211.964 118.256 210.98C118.748 209.984 119.414 209.198 120.254 208.622C121.094 208.046 122.03 207.758 123.062 207.758C123.986 207.758 124.67 207.974 125.114 208.406C125.57 208.826 125.798 209.378 125.798 210.062C125.798 210.926 125.486 211.646 124.862 212.222C124.238 212.798 123.488 213.23 122.612 213.518C121.736 213.794 120.908 213.944 120.128 213.968C120.104 214.832 120.242 215.528 120.542 216.056C120.854 216.584 121.322 216.848 121.946 216.848C122.978 216.848 123.914 216.368 124.754 215.408L125.222 216.2ZM122.522 208.874C121.814 208.874 121.256 209.3 120.848 210.152C120.44 211.004 120.2 211.952 120.128 212.996C120.596 212.972 121.088 212.846 121.604 212.618C122.132 212.39 122.57 212.072 122.918 211.664C123.278 211.244 123.458 210.764 123.458 210.224C123.458 209.792 123.374 209.462 123.206 209.234C123.05 208.994 122.822 208.874 122.522 208.874ZM130.379 210.368C130.607 209.684 130.997 209.084 131.549 208.568C132.113 208.04 132.743 207.776 133.439 207.776C133.679 207.776 133.883 207.83 134.051 207.938L133.529 210.53C133.457 210.47 133.337 210.416 133.169 210.368C133.013 210.308 132.821 210.278 132.593 210.278C132.161 210.278 131.747 210.374 131.351 210.566C130.955 210.746 130.649 211.01 130.433 211.358L129.551 218H127.211L128.345 209.45L127.427 208.946L127.553 208.226L130.127 207.794L130.541 208.046L130.451 209.684L130.379 210.368ZM142.314 216.164C142.302 216.212 142.296 216.284 142.296 216.38C142.296 216.692 142.416 216.848 142.656 216.848C142.848 216.848 143.118 216.704 143.466 216.416L143.718 216.974C143.562 217.214 143.28 217.478 142.872 217.766C142.476 218.042 142.014 218.18 141.486 218.18C141.078 218.18 140.754 218.09 140.514 217.91C140.274 217.73 140.148 217.454 140.136 217.082L140.172 216.776C139.836 217.172 139.428 217.508 138.948 217.784C138.468 218.048 137.94 218.18 137.364 218.18C136.356 218.18 135.6 217.838 135.096 217.154C134.604 216.458 134.358 215.552 134.358 214.436C134.358 213.332 134.586 212.27 135.042 211.25C135.51 210.23 136.188 209.396 137.076 208.748C137.964 208.1 139.02 207.776 140.244 207.776C140.556 207.776 140.892 207.812 141.252 207.884C141.624 207.956 141.948 208.04 142.224 208.136L143.466 207.776L142.314 216.164ZM140.928 209.054C140.7 208.946 140.406 208.892 140.046 208.892C139.326 208.892 138.726 209.168 138.246 209.72C137.766 210.26 137.412 210.95 137.184 211.79C136.968 212.618 136.86 213.458 136.86 214.31C136.86 215.102 136.98 215.72 137.22 216.164C137.46 216.596 137.814 216.812 138.282 216.812C138.582 216.812 138.882 216.71 139.182 216.506C139.494 216.302 139.77 216.062 140.01 215.786L140.928 209.054ZM149.477 209.864C148.505 209.84 147.887 209.834 147.623 209.846C147.227 209.858 146.903 210.008 146.651 210.296C146.411 210.572 146.279 210.914 146.255 211.322H145.535C145.511 211.058 145.499 210.788 145.499 210.512C145.499 209.924 145.547 209.384 145.643 208.892C145.751 208.4 145.925 208.094 146.165 207.974C146.369 207.854 146.651 207.794 147.011 207.794C147.647 207.794 148.583 207.848 149.819 207.956C150.095 207.968 150.485 207.992 150.989 208.028C151.505 208.064 151.883 208.082 152.123 208.082C152.531 208.082 152.849 207.986 153.077 207.794L153.527 208.28L148.289 214.868L146.957 216.11L150.197 216.146C150.665 216.146 151.031 216.008 151.295 215.732C151.559 215.444 151.721 215.066 151.781 214.598H152.483C152.495 214.718 152.501 214.928 152.501 215.228C152.501 215.864 152.447 216.452 152.339 216.992C152.243 217.52 152.069 217.862 151.817 218.018C151.661 218.138 151.361 218.198 150.917 218.198C150.233 218.198 149.243 218.144 147.947 218.036C147.647 218.024 147.227 218 146.687 217.964C146.159 217.928 145.781 217.91 145.553 217.91C145.397 217.91 145.229 217.934 145.049 217.982C144.881 218.03 144.743 218.102 144.635 218.198L144.113 217.694L149.873 210.656L150.845 209.882L149.477 209.864ZM156.893 216.2C156.881 216.26 156.875 216.332 156.875 216.416C156.875 216.704 156.977 216.848 157.181 216.848C157.289 216.848 157.409 216.812 157.541 216.74C157.673 216.668 157.841 216.548 158.045 216.38L158.279 216.938C158.075 217.214 157.769 217.49 157.361 217.766C156.965 218.042 156.479 218.18 155.903 218.18C155.435 218.18 155.069 218.09 154.805 217.91C154.541 217.718 154.409 217.46 154.409 217.136L154.427 216.956C154.499 216.332 154.745 214.52 155.165 211.52L155.453 209.432L154.391 208.928L154.517 208.226L157.613 207.794L158.045 207.992L156.893 216.2ZM157.091 206.066C156.767 206.066 156.485 205.946 156.245 205.706C156.017 205.454 155.903 205.166 155.903 204.842C155.903 204.398 156.047 204.026 156.335 203.726C156.635 203.426 157.013 203.276 157.469 203.276C157.841 203.276 158.135 203.396 158.351 203.636C158.567 203.864 158.675 204.14 158.675 204.464C158.675 204.92 158.537 205.304 158.261 205.616C157.985 205.916 157.595 206.066 157.091 206.066ZM165.178 207.758C166.426 207.758 167.38 208.124 168.04 208.856C168.7 209.576 169.03 210.614 169.03 211.97C169.03 213.086 168.802 214.124 168.346 215.084C167.89 216.044 167.248 216.812 166.42 217.388C165.592 217.952 164.644 218.234 163.576 218.234C162.328 218.234 161.374 217.868 160.714 217.136C160.066 216.392 159.742 215.336 159.742 213.968C159.742 212.84 159.964 211.802 160.408 210.854C160.864 209.906 161.506 209.156 162.334 208.604C163.162 208.04 164.11 207.758 165.178 207.758ZM164.872 208.892C164.32 208.892 163.852 209.144 163.468 209.648C163.084 210.14 162.796 210.77 162.604 211.538C162.424 212.306 162.334 213.092 162.334 213.896C162.334 215.036 162.46 215.87 162.712 216.398C162.976 216.926 163.384 217.19 163.936 217.19C164.476 217.19 164.932 216.938 165.304 216.434C165.676 215.93 165.952 215.288 166.132 214.508C166.312 213.728 166.402 212.93 166.402 212.114C166.402 210.974 166.276 210.152 166.024 209.648C165.784 209.144 165.4 208.892 164.872 208.892ZM173.978 209.954C174.422 209.294 174.95 208.766 175.562 208.37C176.174 207.974 176.816 207.776 177.488 207.776C178.976 207.776 179.72 208.658 179.72 210.422C179.72 210.89 179.57 211.934 179.27 213.554C179.222 213.866 179.18 214.106 179.144 214.274C178.976 215.222 178.886 215.906 178.874 216.326V216.398C178.874 216.698 178.97 216.848 179.162 216.848C179.27 216.848 179.384 216.818 179.504 216.758C179.624 216.698 179.78 216.59 179.972 216.434L180.224 216.992C180.044 217.244 179.75 217.508 179.342 217.784C178.934 218.048 178.436 218.18 177.848 218.18C177.284 218.18 176.894 218.06 176.678 217.82C176.462 217.568 176.354 217.238 176.354 216.83C176.366 216.47 176.48 215.756 176.696 214.688L176.804 214.076C176.828 213.968 176.876 213.68 176.948 213.212C177.032 212.744 177.098 212.3 177.146 211.88C177.194 211.448 177.218 211.076 177.218 210.764C177.218 210.212 177.152 209.834 177.02 209.63C176.9 209.426 176.678 209.324 176.354 209.324C175.958 209.324 175.514 209.546 175.022 209.99C174.542 210.434 174.128 210.968 173.78 211.592L172.916 218H170.558L171.71 209.432L170.792 208.946L170.936 208.208L173.744 207.776L174.158 207.974L173.978 209.954ZM184.632 216.2C184.62 216.26 184.614 216.332 184.614 216.416C184.614 216.704 184.716 216.848 184.92 216.848C185.028 216.848 185.148 216.812 185.28 216.74C185.412 216.668 185.58 216.548 185.784 216.38L186.018 216.938C185.814 217.214 185.508 217.49 185.1 217.766C184.704 218.042 184.218 218.18 183.642 218.18C183.174 218.18 182.808 218.09 182.544 217.91C182.28 217.718 182.148 217.46 182.148 217.136L182.166 216.956C182.238 216.332 182.484 214.52 182.904 211.52L183.192 209.432L182.13 208.928L182.256 208.226L185.352 207.794L185.784 207.992L184.632 216.2ZM184.83 206.066C184.506 206.066 184.224 205.946 183.984 205.706C183.756 205.454 183.642 205.166 183.642 204.842C183.642 204.398 183.786 204.026 184.074 203.726C184.374 203.426 184.752 203.276 185.208 203.276C185.58 203.276 185.874 203.396 186.09 203.636C186.306 203.864 186.414 204.14 186.414 204.464C186.414 204.92 186.276 205.304 186 205.616C185.724 205.916 185.334 206.066 184.83 206.066ZM193.624 207.146C193.744 206.426 193.978 205.778 194.326 205.202C194.686 204.626 195.142 204.17 195.694 203.834C196.246 203.498 196.864 203.33 197.548 203.33C198.184 203.33 198.688 203.402 199.06 203.546L198.556 204.986C198.208 204.722 197.806 204.59 197.35 204.59C196.906 204.59 196.582 204.758 196.378 205.094C196.186 205.43 196.042 205.946 195.946 206.642L195.766 207.956H197.746L197.512 209.306H195.586L194.596 217.298C194.404 218.774 193.966 220.01 193.282 221.006C192.61 222.002 191.71 222.506 190.582 222.518C190.306 222.53 190.018 222.518 189.718 222.482C189.406 222.446 189.16 222.404 188.98 222.356L189.448 220.844C189.604 220.916 189.832 220.994 190.132 221.078C190.42 221.174 190.654 221.222 190.834 221.222C191.158 221.222 191.41 221.06 191.59 220.736C191.782 220.424 191.92 219.95 192.004 219.314L193.246 209.306H192.094L192.256 208.514L193.48 207.992L193.624 207.146ZM200.788 216.2C200.776 216.26 200.77 216.332 200.77 216.416C200.77 216.704 200.872 216.848 201.076 216.848C201.184 216.848 201.304 216.812 201.436 216.74C201.568 216.668 201.736 216.548 201.94 216.38L202.174 216.938C201.97 217.214 201.664 217.49 201.256 217.766C200.86 218.042 200.374 218.18 199.798 218.18C199.33 218.18 198.964 218.09 198.7 217.91C198.436 217.718 198.304 217.46 198.304 217.136L198.322 216.956C198.394 216.332 198.64 214.52 199.06 211.52L199.348 209.432L198.286 208.928L198.412 208.226L201.508 207.794L201.94 207.992L200.788 216.2ZM200.986 206.066C200.662 206.066 200.38 205.946 200.14 205.706C199.912 205.454 199.798 205.166 199.798 204.842C199.798 204.398 199.942 204.026 200.23 203.726C200.53 203.426 200.908 203.276 201.364 203.276C201.736 203.276 202.03 203.396 202.246 203.636C202.462 203.864 202.57 204.14 202.57 204.464C202.57 204.92 202.432 205.304 202.156 205.616C201.88 205.916 201.49 206.066 200.986 206.066ZM207.271 209.954C207.715 209.294 208.243 208.766 208.855 208.37C209.467 207.974 210.109 207.776 210.781 207.776C212.269 207.776 213.013 208.658 213.013 210.422C213.013 210.89 212.863 211.934 212.563 213.554C212.515 213.866 212.473 214.106 212.437 214.274C212.269 215.222 212.179 215.906 212.167 216.326V216.398C212.167 216.698 212.263 216.848 212.455 216.848C212.563 216.848 212.677 216.818 212.797 216.758C212.917 216.698 213.073 216.59 213.265 216.434L213.517 216.992C213.337 217.244 213.043 217.508 212.635 217.784C212.227 218.048 211.729 218.18 211.141 218.18C210.577 218.18 210.187 218.06 209.971 217.82C209.755 217.568 209.647 217.238 209.647 216.83C209.659 216.47 209.773 215.756 209.989 214.688L210.097 214.076C210.121 213.968 210.169 213.68 210.241 213.212C210.325 212.744 210.391 212.3 210.439 211.88C210.487 211.448 210.511 211.076 210.511 210.764C210.511 210.212 210.445 209.834 210.313 209.63C210.193 209.426 209.971 209.324 209.647 209.324C209.251 209.324 208.807 209.546 208.315 209.99C207.835 210.434 207.421 210.968 207.073 211.592L206.209 218H203.851L205.003 209.432L204.085 208.946L204.229 208.208L207.037 207.776L207.451 207.974L207.271 209.954ZM222.875 216.164C222.863 216.212 222.857 216.284 222.857 216.38C222.857 216.692 222.977 216.848 223.217 216.848C223.409 216.848 223.679 216.704 224.027 216.416L224.279 216.974C224.123 217.214 223.841 217.478 223.433 217.766C223.037 218.042 222.575 218.18 222.047 218.18C221.639 218.18 221.315 218.09 221.075 217.91C220.835 217.73 220.709 217.454 220.697 217.082L220.733 216.776C220.397 217.172 219.989 217.508 219.509 217.784C219.029 218.048 218.501 218.18 217.925 218.18C216.917 218.18 216.161 217.838 215.657 217.154C215.165 216.458 214.919 215.552 214.919 214.436C214.919 213.332 215.147 212.27 215.603 211.25C216.071 210.23 216.749 209.396 217.637 208.748C218.525 208.1 219.581 207.776 220.805 207.776C221.117 207.776 221.453 207.812 221.813 207.884C222.185 207.956 222.509 208.04 222.785 208.136L224.027 207.776L222.875 216.164ZM221.489 209.054C221.261 208.946 220.967 208.892 220.607 208.892C219.887 208.892 219.287 209.168 218.807 209.72C218.327 210.26 217.973 210.95 217.745 211.79C217.529 212.618 217.421 213.458 217.421 214.31C217.421 215.102 217.541 215.72 217.781 216.164C218.021 216.596 218.375 216.812 218.843 216.812C219.143 216.812 219.443 216.71 219.743 216.506C220.055 216.302 220.331 216.062 220.571 215.786L221.489 209.054ZM229.173 209.954C229.617 209.294 230.145 208.766 230.757 208.37C231.369 207.974 232.011 207.776 232.683 207.776C234.171 207.776 234.915 208.658 234.915 210.422C234.915 210.89 234.765 211.934 234.465 213.554C234.417 213.866 234.375 214.106 234.339 214.274C234.171 215.222 234.081 215.906 234.069 216.326V216.398C234.069 216.698 234.165 216.848 234.357 216.848C234.465 216.848 234.579 216.818 234.699 216.758C234.819 216.698 234.975 216.59 235.167 216.434L235.419 216.992C235.239 217.244 234.945 217.508 234.537 217.784C234.129 218.048 233.631 218.18 233.043 218.18C232.479 218.18 232.089 218.06 231.873 217.82C231.657 217.568 231.549 217.238 231.549 216.83C231.561 216.47 231.675 215.756 231.891 214.688L231.999 214.076C232.023 213.968 232.071 213.68 232.143 213.212C232.227 212.744 232.293 212.3 232.341 211.88C232.389 211.448 232.413 211.076 232.413 210.764C232.413 210.212 232.347 209.834 232.215 209.63C232.095 209.426 231.873 209.324 231.549 209.324C231.153 209.324 230.709 209.546 230.217 209.99C229.737 210.434 229.323 210.968 228.975 211.592L228.111 218H225.753L226.905 209.432L225.987 208.946L226.131 208.208L228.939 207.776L229.353 207.974L229.173 209.954ZM241.375 209.864C240.403 209.84 239.785 209.834 239.521 209.846C239.125 209.858 238.801 210.008 238.549 210.296C238.309 210.572 238.177 210.914 238.153 211.322H237.433C237.409 211.058 237.397 210.788 237.397 210.512C237.397 209.924 237.445 209.384 237.541 208.892C237.649 208.4 237.823 208.094 238.063 207.974C238.267 207.854 238.549 207.794 238.909 207.794C239.545 207.794 240.481 207.848 241.717 207.956C241.993 207.968 242.383 207.992 242.887 208.028C243.403 208.064 243.781 208.082 244.021 208.082C244.429 208.082 244.747 207.986 244.975 207.794L245.425 208.28L240.187 214.868L238.855 216.11L242.095 216.146C242.563 216.146 242.929 216.008 243.193 215.732C243.457 215.444 243.619 215.066 243.679 214.598H244.381C244.393 214.718 244.399 214.928 244.399 215.228C244.399 215.864 244.345 216.452 244.237 216.992C244.141 217.52 243.967 217.862 243.715 218.018C243.559 218.138 243.259 218.198 242.815 218.198C242.131 218.198 241.141 218.144 239.845 218.036C239.545 218.024 239.125 218 238.585 217.964C238.057 217.928 237.679 217.91 237.451 217.91C237.295 217.91 237.127 217.934 236.947 217.982C236.779 218.03 236.641 218.102 236.533 218.198L236.011 217.694L241.771 210.656L242.743 209.882L241.375 209.864ZM248.792 216.2C248.78 216.26 248.774 216.332 248.774 216.416C248.774 216.704 248.876 216.848 249.08 216.848C249.188 216.848 249.308 216.812 249.44 216.74C249.572 216.668 249.74 216.548 249.944 216.38L250.178 216.938C249.974 217.214 249.668 217.49 249.26 217.766C248.864 218.042 248.378 218.18 247.802 218.18C247.334 218.18 246.968 218.09 246.704 217.91C246.44 217.718 246.308 217.46 246.308 217.136L246.326 216.956C246.398 216.332 246.644 214.52 247.064 211.52L247.352 209.432L246.29 208.928L246.416 208.226L249.512 207.794L249.944 207.992L248.792 216.2ZM248.99 206.066C248.666 206.066 248.384 205.946 248.144 205.706C247.916 205.454 247.802 205.166 247.802 204.842C247.802 204.398 247.946 204.026 248.234 203.726C248.534 203.426 248.912 203.276 249.368 203.276C249.74 203.276 250.034 203.396 250.25 203.636C250.466 203.864 250.574 204.14 250.574 204.464C250.574 204.92 250.436 205.304 250.16 205.616C249.884 205.916 249.494 206.066 248.99 206.066ZM259.543 216.164C259.531 216.212 259.525 216.284 259.525 216.38C259.525 216.692 259.645 216.848 259.885 216.848C260.077 216.848 260.347 216.704 260.695 216.416L260.947 216.974C260.791 217.214 260.509 217.478 260.101 217.766C259.705 218.042 259.243 218.18 258.715 218.18C258.307 218.18 257.983 218.09 257.743 217.91C257.503 217.73 257.377 217.454 257.365 217.082L257.401 216.776C257.065 217.172 256.657 217.508 256.177 217.784C255.697 218.048 255.169 218.18 254.593 218.18C253.585 218.18 252.829 217.838 252.325 217.154C251.833 216.458 251.587 215.552 251.587 214.436C251.587 213.332 251.815 212.27 252.271 211.25C252.739 210.23 253.417 209.396 254.305 208.748C255.193 208.1 256.249 207.776 257.473 207.776C257.785 207.776 258.121 207.812 258.481 207.884C258.853 207.956 259.177 208.04 259.453 208.136L260.695 207.776L259.543 216.164ZM258.157 209.054C257.929 208.946 257.635 208.892 257.275 208.892C256.555 208.892 255.955 209.168 255.475 209.72C254.995 210.26 254.641 210.95 254.413 211.79C254.197 212.618 254.089 213.458 254.089 214.31C254.089 215.102 254.209 215.72 254.449 216.164C254.689 216.596 255.043 216.812 255.511 216.812C255.811 216.812 256.111 216.71 256.411 216.506C256.723 216.302 256.999 216.062 257.239 215.786L258.157 209.054ZM265.607 210.368C265.835 209.684 266.225 209.084 266.777 208.568C267.341 208.04 267.971 207.776 268.667 207.776C268.907 207.776 269.111 207.83 269.279 207.938L268.757 210.53C268.685 210.47 268.565 210.416 268.397 210.368C268.241 210.308 268.049 210.278 267.821 210.278C267.389 210.278 266.975 210.374 266.579 210.566C266.183 210.746 265.877 211.01 265.661 211.358L264.779 218H262.439L263.573 209.45L262.655 208.946L262.781 208.226L265.355 207.794L265.769 208.046L265.679 209.684L265.607 210.368ZM272.593 216.2C272.581 216.26 272.575 216.332 272.575 216.416C272.575 216.704 272.677 216.848 272.881 216.848C272.989 216.848 273.109 216.812 273.241 216.74C273.373 216.668 273.541 216.548 273.745 216.38L273.979 216.938C273.775 217.214 273.469 217.49 273.061 217.766C272.665 218.042 272.179 218.18 271.603 218.18C271.135 218.18 270.769 218.09 270.505 217.91C270.241 217.718 270.109 217.46 270.109 217.136L270.127 216.956C270.199 216.332 270.445 214.52 270.865 211.52L271.153 209.432L270.091 208.928L270.217 208.226L273.313 207.794L273.745 207.992L272.593 216.2ZM272.791 206.066C272.467 206.066 272.185 205.946 271.945 205.706C271.717 205.454 271.603 205.166 271.603 204.842C271.603 204.398 271.747 204.026 272.035 203.726C272.335 203.426 272.713 203.276 273.169 203.276C273.541 203.276 273.835 203.396 274.051 203.636C274.267 203.864 274.375 204.14 274.375 204.464C274.375 204.92 274.237 205.304 273.961 205.616C273.685 205.916 273.295 206.066 272.791 206.066ZM283.091 216.2C282.779 216.692 282.269 217.154 281.561 217.586C280.865 218.018 280.055 218.234 279.131 218.234C278.267 218.234 277.553 218.048 276.989 217.676C276.437 217.304 276.035 216.818 275.783 216.218C275.531 215.618 275.405 214.964 275.405 214.256C275.405 213.056 275.645 211.964 276.125 210.98C276.617 209.984 277.283 209.198 278.123 208.622C278.963 208.046 279.899 207.758 280.931 207.758C281.855 207.758 282.539 207.974 282.983 208.406C283.439 208.826 283.667 209.378 283.667 210.062C283.667 210.926 283.355 211.646 282.731 212.222C282.107 212.798 281.357 213.23 280.481 213.518C279.605 213.794 278.777 213.944 277.997 213.968C277.973 214.832 278.111 215.528 278.411 216.056C278.723 216.584 279.191 216.848 279.815 216.848C280.847 216.848 281.783 216.368 282.623 215.408L283.091 216.2ZM280.391 208.874C279.683 208.874 279.125 209.3 278.717 210.152C278.309 211.004 278.069 211.952 277.997 212.996C278.465 212.972 278.957 212.846 279.473 212.618C280.001 212.39 280.439 212.072 280.787 211.664C281.147 211.244 281.327 210.764 281.327 210.224C281.327 209.792 281.243 209.462 281.075 209.234C280.919 208.994 280.691 208.874 280.391 208.874ZM24.7902 232.72C24.6462 232.552 24.4062 232.378 24.0702 232.198C23.7462 232.018 23.3682 231.928 22.9362 231.928C22.4562 231.928 22.0662 232.036 21.7662 232.252C21.4782 232.456 21.3342 232.762 21.3342 233.17C21.3342 233.53 21.4542 233.854 21.6942 234.142C21.9462 234.418 22.3482 234.754 22.9002 235.15C23.5122 235.606 23.9802 236.05 24.3042 236.482C24.6282 236.902 24.7902 237.442 24.7902 238.102C24.7902 238.762 24.6102 239.326 24.2502 239.794C23.8902 240.25 23.4102 240.598 22.8102 240.838C22.2102 241.066 21.5502 241.18 20.8302 241.18C20.2902 241.18 19.7382 241.12 19.1742 241C18.6102 240.868 18.2442 240.73 18.0762 240.586L18.4362 239.056C18.6882 239.272 19.0302 239.476 19.4622 239.668C19.8942 239.86 20.3442 239.956 20.8122 239.956C21.2562 239.956 21.6342 239.854 21.9462 239.65C22.2702 239.446 22.4322 239.128 22.4322 238.696C22.4322 238.324 22.2942 237.988 22.0182 237.688C21.7422 237.388 21.3282 237.046 20.7762 236.662C20.2722 236.314 19.8462 235.906 19.4982 235.438C19.1622 234.958 18.9942 234.382 18.9942 233.71C18.9942 233.134 19.1562 232.624 19.4802 232.18C19.8162 231.736 20.2722 231.394 20.8482 231.154C21.4362 230.902 22.1082 230.776 22.8642 230.776C23.3082 230.776 23.7582 230.812 24.2142 230.884C24.6702 230.956 24.9762 231.034 25.1322 231.118L24.7902 232.72ZM31.7338 230.758C32.9818 230.758 33.9358 231.124 34.5958 231.856C35.2558 232.576 35.5858 233.614 35.5858 234.97C35.5858 236.086 35.3578 237.124 34.9018 238.084C34.4458 239.044 33.8038 239.812 32.9758 240.388C32.1478 240.952 31.1998 241.234 30.1318 241.234C28.8838 241.234 27.9298 240.868 27.2698 240.136C26.6218 239.392 26.2978 238.336 26.2978 236.968C26.2978 235.84 26.5198 234.802 26.9638 233.854C27.4198 232.906 28.0618 232.156 28.8898 231.604C29.7178 231.04 30.6658 230.758 31.7338 230.758ZM31.4278 231.892C30.8758 231.892 30.4078 232.144 30.0238 232.648C29.6398 233.14 29.3518 233.77 29.1598 234.538C28.9798 235.306 28.8898 236.092 28.8898 236.896C28.8898 238.036 29.0158 238.87 29.2678 239.398C29.5318 239.926 29.9398 240.19 30.4918 240.19C31.0318 240.19 31.4878 239.938 31.8598 239.434C32.2318 238.93 32.5078 238.288 32.6878 237.508C32.8678 236.728 32.9578 235.93 32.9578 235.114C32.9578 233.974 32.8318 233.152 32.5798 232.648C32.3398 232.144 31.9558 231.892 31.4278 231.892ZM40.5334 232.954C40.9774 232.294 41.5054 231.766 42.1174 231.37C42.7294 230.974 43.3714 230.776 44.0434 230.776C45.5314 230.776 46.2754 231.658 46.2754 233.422C46.2754 233.89 46.1254 234.934 45.8254 236.554C45.7774 236.866 45.7354 237.106 45.6994 237.274C45.5314 238.222 45.4414 238.906 45.4294 239.326V239.398C45.4294 239.698 45.5254 239.848 45.7174 239.848C45.8254 239.848 45.9394 239.818 46.0594 239.758C46.1794 239.698 46.3354 239.59 46.5274 239.434L46.7794 239.992C46.5994 240.244 46.3054 240.508 45.8974 240.784C45.4894 241.048 44.9914 241.18 44.4034 241.18C43.8394 241.18 43.4494 241.06 43.2334 240.82C43.0174 240.568 42.9094 240.238 42.9094 239.83C42.9214 239.47 43.0354 238.756 43.2514 237.688L43.3594 237.076C43.3834 236.968 43.4314 236.68 43.5034 236.212C43.5874 235.744 43.6534 235.3 43.7014 234.88C43.7494 234.448 43.7734 234.076 43.7734 233.764C43.7734 233.212 43.7074 232.834 43.5754 232.63C43.4554 232.426 43.2334 232.324 42.9094 232.324C42.5134 232.324 42.0694 232.546 41.5774 232.99C41.0974 233.434 40.6834 233.968 40.3354 234.592L39.4714 241H37.1134L38.2654 232.432L37.3474 231.946L37.4914 231.208L40.2994 230.776L40.7134 230.974L40.5334 232.954ZM53.6713 230.758C54.9193 230.758 55.8733 231.124 56.5333 231.856C57.1933 232.576 57.5233 233.614 57.5233 234.97C57.5233 236.086 57.2953 237.124 56.8393 238.084C56.3833 239.044 55.7413 239.812 54.9133 240.388C54.0853 240.952 53.1373 241.234 52.0693 241.234C50.8213 241.234 49.8673 240.868 49.2073 240.136C48.5593 239.392 48.2353 238.336 48.2353 236.968C48.2353 235.84 48.4573 234.802 48.9013 233.854C49.3573 232.906 49.9993 232.156 50.8273 231.604C51.6553 231.04 52.6033 230.758 53.6713 230.758ZM53.3653 231.892C52.8133 231.892 52.3453 232.144 51.9613 232.648C51.5773 233.14 51.2893 233.77 51.0973 234.538C50.9173 235.306 50.8273 236.092 50.8273 236.896C50.8273 238.036 50.9533 238.87 51.2053 239.398C51.4693 239.926 51.8773 240.19 52.4293 240.19C52.9693 240.19 53.4253 239.938 53.7973 239.434C54.1693 238.93 54.4453 238.288 54.6253 237.508C54.8053 236.728 54.8953 235.93 54.8953 235.114C54.8953 233.974 54.7693 233.152 54.5173 232.648C54.2773 232.144 53.8933 231.892 53.3653 231.892ZM66.3284 235.798C66.2804 236.242 66.2384 236.554 66.2024 236.734C66.0824 237.67 66.0224 238.27 66.0224 238.534C66.0224 239.014 66.1064 239.356 66.2744 239.56C66.4424 239.764 66.6944 239.866 67.0304 239.866C67.4144 239.866 67.7924 239.746 68.1644 239.506C68.5484 239.266 68.8724 238.978 69.1364 238.642L70.1804 230.866H72.5564L71.4044 239.2C71.3804 239.416 71.3984 239.578 71.4584 239.686C71.5184 239.794 71.6084 239.848 71.7284 239.848C71.8364 239.848 71.9504 239.818 72.0704 239.758C72.1904 239.686 72.3584 239.56 72.5744 239.38L72.8264 239.938C72.6704 240.19 72.3824 240.46 71.9624 240.748C71.5424 241.036 71.0624 241.18 70.5224 241.18C70.1024 241.18 69.7784 241.09 69.5504 240.91C69.3344 240.73 69.2144 240.484 69.1904 240.172L69.1724 239.956C69.1724 239.86 69.1844 239.74 69.2084 239.596L69.1724 239.578C68.2844 240.646 67.2404 241.18 66.0404 241.18C65.3684 241.18 64.7984 241 64.3304 240.64C63.8624 240.268 63.6224 239.68 63.6104 238.876C63.6104 238.408 63.6944 237.562 63.8624 236.338C63.9104 236.038 63.9404 235.834 63.9524 235.726L64.4384 232.45L63.3944 231.838L63.5384 231.1L66.5264 230.794L66.9404 230.992L66.3284 235.798ZM77.7815 232.954C78.2255 232.294 78.7535 231.766 79.3655 231.37C79.9775 230.974 80.6195 230.776 81.2915 230.776C82.7795 230.776 83.5235 231.658 83.5235 233.422C83.5235 233.89 83.3735 234.934 83.0735 236.554C83.0255 236.866 82.9835 237.106 82.9475 237.274C82.7795 238.222 82.6895 238.906 82.6775 239.326V239.398C82.6775 239.698 82.7735 239.848 82.9655 239.848C83.0735 239.848 83.1875 239.818 83.3075 239.758C83.4275 239.698 83.5835 239.59 83.7755 239.434L84.0275 239.992C83.8475 240.244 83.5535 240.508 83.1455 240.784C82.7375 241.048 82.2395 241.18 81.6515 241.18C81.0875 241.18 80.6975 241.06 80.4815 240.82C80.2655 240.568 80.1575 240.238 80.1575 239.83C80.1695 239.47 80.2835 238.756 80.4995 237.688L80.6075 237.076C80.6315 236.968 80.6795 236.68 80.7515 236.212C80.8355 235.744 80.9015 235.3 80.9495 234.88C80.9975 234.448 81.0215 234.076 81.0215 233.764C81.0215 233.212 80.9555 232.834 80.8235 232.63C80.7035 232.426 80.4815 232.324 80.1575 232.324C79.7615 232.324 79.3175 232.546 78.8255 232.99C78.3455 233.434 77.9315 233.968 77.5835 234.592L76.7195 241H74.3615L75.5135 232.432L74.5955 231.946L74.7395 231.208L77.5475 230.776L77.9615 230.974L77.7815 232.954ZM93.3854 239.164C93.3734 239.212 93.3674 239.284 93.3674 239.38C93.3674 239.692 93.4874 239.848 93.7274 239.848C93.9194 239.848 94.1894 239.704 94.5374 239.416L94.7894 239.974C94.6334 240.214 94.3514 240.478 93.9434 240.766C93.5474 241.042 93.0854 241.18 92.5574 241.18C92.1494 241.18 91.8254 241.09 91.5854 240.91C91.3454 240.73 91.2194 240.454 91.2074 240.082L91.2434 239.776C90.9074 240.172 90.4994 240.508 90.0194 240.784C89.5394 241.048 89.0114 241.18 88.4354 241.18C87.4274 241.18 86.6714 240.838 86.1674 240.154C85.6754 239.458 85.4294 238.552 85.4294 237.436C85.4294 236.332 85.6574 235.27 86.1134 234.25C86.5814 233.23 87.2594 232.396 88.1474 231.748C89.0354 231.1 90.0914 230.776 91.3154 230.776C91.6274 230.776 91.9634 230.812 92.3234 230.884C92.6954 230.956 93.0194 231.04 93.2954 231.136L94.5374 230.776L93.3854 239.164ZM91.9994 232.054C91.7714 231.946 91.4774 231.892 91.1174 231.892C90.3974 231.892 89.7974 232.168 89.3174 232.72C88.8374 233.26 88.4834 233.95 88.2554 234.79C88.0394 235.618 87.9314 236.458 87.9314 237.31C87.9314 238.102 88.0514 238.72 88.2914 239.164C88.5314 239.596 88.8854 239.812 89.3534 239.812C89.6534 239.812 89.9534 239.71 90.2534 239.506C90.5654 239.302 90.8414 239.062 91.0814 238.786L91.9994 232.054ZM103.721 233.368C103.949 232.684 104.339 232.084 104.891 231.568C105.455 231.04 106.085 230.776 106.781 230.776C107.021 230.776 107.225 230.83 107.393 230.938L106.871 233.53C106.799 233.47 106.679 233.416 106.511 233.368C106.355 233.308 106.163 233.278 105.935 233.278C105.503 233.278 105.089 233.374 104.693 233.566C104.297 233.746 103.991 234.01 103.775 234.358L102.893 241H100.553L101.687 232.45L100.769 231.946L100.895 231.226L103.469 230.794L103.883 231.046L103.793 232.684L103.721 233.368ZM115.657 239.164C115.645 239.212 115.639 239.284 115.639 239.38C115.639 239.692 115.759 239.848 115.999 239.848C116.191 239.848 116.461 239.704 116.809 239.416L117.061 239.974C116.905 240.214 116.623 240.478 116.215 240.766C115.819 241.042 115.357 241.18 114.829 241.18C114.421 241.18 114.097 241.09 113.857 240.91C113.617 240.73 113.491 240.454 113.479 240.082L113.515 239.776C113.179 240.172 112.771 240.508 112.291 240.784C111.811 241.048 111.283 241.18 110.707 241.18C109.699 241.18 108.943 240.838 108.439 240.154C107.947 239.458 107.701 238.552 107.701 237.436C107.701 236.332 107.929 235.27 108.385 234.25C108.853 233.23 109.531 232.396 110.419 231.748C111.307 231.1 112.363 230.776 113.587 230.776C113.899 230.776 114.235 230.812 114.595 230.884C114.967 230.956 115.291 231.04 115.567 231.136L116.809 230.776L115.657 239.164ZM114.271 232.054C114.043 231.946 113.749 231.892 113.389 231.892C112.669 231.892 112.069 232.168 111.589 232.72C111.109 233.26 110.755 233.95 110.527 234.79C110.311 235.618 110.203 236.458 110.203 237.31C110.203 238.102 110.323 238.72 110.563 239.164C110.803 239.596 111.157 239.812 111.625 239.812C111.925 239.812 112.225 239.71 112.525 239.506C112.837 239.302 113.113 239.062 113.353 238.786L114.271 232.054ZM125.987 241.684C125.807 243.052 125.219 244.03 124.223 244.618C123.227 245.218 122.087 245.518 120.803 245.518C120.407 245.518 119.981 245.476 119.525 245.392C119.081 245.32 118.769 245.242 118.589 245.158L119.003 243.466C119.231 243.61 119.579 243.772 120.047 243.952C120.515 244.132 120.965 244.222 121.397 244.222C122.093 244.222 122.603 244.084 122.927 243.808C123.251 243.532 123.461 243.01 123.557 242.242L123.827 240.1C123.503 240.412 123.125 240.67 122.693 240.874C122.261 241.078 121.793 241.18 121.289 241.18C120.281 241.18 119.519 240.838 119.003 240.154C118.499 239.458 118.247 238.552 118.247 237.436C118.247 236.332 118.475 235.27 118.931 234.25C119.399 233.23 120.077 232.396 120.965 231.748C121.865 231.1 122.927 230.776 124.151 230.776C124.487 230.776 124.847 230.818 125.231 230.902C125.615 230.974 125.951 231.064 126.239 231.172L127.517 230.776L125.987 241.684ZM124.979 232.108C124.727 231.964 124.379 231.892 123.935 231.892C123.215 231.892 122.615 232.174 122.135 232.738C121.655 233.29 121.301 233.986 121.073 234.826C120.857 235.654 120.749 236.488 120.749 237.328C120.749 238.108 120.875 238.72 121.127 239.164C121.391 239.596 121.751 239.812 122.207 239.812C122.543 239.812 122.867 239.716 123.179 239.524C123.503 239.32 123.779 239.08 124.007 238.804L124.979 232.108ZM131.783 239.2C131.771 239.26 131.765 239.332 131.765 239.416C131.765 239.704 131.867 239.848 132.071 239.848C132.179 239.848 132.299 239.812 132.431 239.74C132.563 239.668 132.731 239.548 132.935 239.38L133.169 239.938C132.965 240.214 132.659 240.49 132.251 240.766C131.855 241.042 131.369 241.18 130.793 241.18C130.325 241.18 129.959 241.09 129.695 240.91C129.431 240.718 129.299 240.46 129.299 240.136L129.317 239.956C129.389 239.332 129.635 237.52 130.055 234.52L130.343 232.432L129.281 231.928L129.407 231.226L132.503 230.794L132.935 230.992L131.783 239.2ZM131.981 229.066C131.657 229.066 131.375 228.946 131.135 228.706C130.907 228.454 130.793 228.166 130.793 227.842C130.793 227.398 130.937 227.026 131.225 226.726C131.525 226.426 131.903 226.276 132.359 226.276C132.731 226.276 133.025 226.396 133.241 226.636C133.457 226.864 133.565 227.14 133.565 227.464C133.565 227.92 133.427 228.304 133.151 228.616C132.875 228.916 132.485 229.066 131.981 229.066ZM140.068 230.758C141.316 230.758 142.27 231.124 142.93 231.856C143.59 232.576 143.92 233.614 143.92 234.97C143.92 236.086 143.692 237.124 143.236 238.084C142.78 239.044 142.138 239.812 141.31 240.388C140.482 240.952 139.534 241.234 138.466 241.234C137.218 241.234 136.264 240.868 135.604 240.136C134.956 239.392 134.632 238.336 134.632 236.968C134.632 235.84 134.854 234.802 135.298 233.854C135.754 232.906 136.396 232.156 137.224 231.604C138.052 231.04 139 230.758 140.068 230.758ZM139.762 231.892C139.21 231.892 138.742 232.144 138.358 232.648C137.974 233.14 137.686 233.77 137.494 234.538C137.314 235.306 137.224 236.092 137.224 236.896C137.224 238.036 137.35 238.87 137.602 239.398C137.866 239.926 138.274 240.19 138.826 240.19C139.366 240.19 139.822 239.938 140.194 239.434C140.566 238.93 140.842 238.288 141.022 237.508C141.202 236.728 141.292 235.93 141.292 235.114C141.292 233.974 141.166 233.152 140.914 232.648C140.674 232.144 140.29 231.892 139.762 231.892ZM148.867 232.954C149.311 232.294 149.839 231.766 150.451 231.37C151.063 230.974 151.705 230.776 152.377 230.776C153.865 230.776 154.609 231.658 154.609 233.422C154.609 233.89 154.459 234.934 154.159 236.554C154.111 236.866 154.069 237.106 154.033 237.274C153.865 238.222 153.775 238.906 153.763 239.326V239.398C153.763 239.698 153.859 239.848 154.051 239.848C154.159 239.848 154.273 239.818 154.393 239.758C154.513 239.698 154.669 239.59 154.861 239.434L155.113 239.992C154.933 240.244 154.639 240.508 154.231 240.784C153.823 241.048 153.325 241.18 152.737 241.18C152.173 241.18 151.783 241.06 151.567 240.82C151.351 240.568 151.243 240.238 151.243 239.83C151.255 239.47 151.369 238.756 151.585 237.688L151.693 237.076C151.717 236.968 151.765 236.68 151.837 236.212C151.921 235.744 151.987 235.3 152.035 234.88C152.083 234.448 152.107 234.076 152.107 233.764C152.107 233.212 152.041 232.834 151.909 232.63C151.789 232.426 151.567 232.324 151.243 232.324C150.847 232.324 150.403 232.546 149.911 232.99C149.431 233.434 149.017 233.968 148.669 234.592L147.805 241H145.447L146.599 232.432L145.681 231.946L145.825 231.208L148.633 230.776L149.047 230.974L148.867 232.954ZM164.219 239.2C163.907 239.692 163.397 240.154 162.689 240.586C161.993 241.018 161.183 241.234 160.259 241.234C159.395 241.234 158.681 241.048 158.117 240.676C157.565 240.304 157.163 239.818 156.911 239.218C156.659 238.618 156.533 237.964 156.533 237.256C156.533 236.056 156.773 234.964 157.253 233.98C157.745 232.984 158.411 232.198 159.251 231.622C160.091 231.046 161.027 230.758 162.059 230.758C162.983 230.758 163.667 230.974 164.111 231.406C164.567 231.826 164.795 232.378 164.795 233.062C164.795 233.926 164.483 234.646 163.859 235.222C163.235 235.798 162.485 236.23 161.609 236.518C160.733 236.794 159.905 236.944 159.125 236.968C159.101 237.832 159.239 238.528 159.539 239.056C159.851 239.584 160.319 239.848 160.943 239.848C161.975 239.848 162.911 239.368 163.751 238.408L164.219 239.2ZM161.519 231.874C160.811 231.874 160.253 232.3 159.845 233.152C159.437 234.004 159.197 234.952 159.125 235.996C159.593 235.972 160.085 235.846 160.601 235.618C161.129 235.39 161.567 235.072 161.915 234.664C162.275 234.244 162.455 233.764 162.455 233.224C162.455 232.792 162.371 232.462 162.203 232.234C162.047 231.994 161.819 231.874 161.519 231.874ZM173.881 231.964C174.193 231.616 174.571 231.334 175.015 231.118C175.459 230.89 175.945 230.776 176.473 230.776C177.469 230.776 178.225 231.112 178.741 231.784C179.257 232.456 179.515 233.392 179.515 234.592C179.515 235.732 179.275 236.806 178.795 237.814C178.315 238.822 177.631 239.638 176.743 240.262C175.867 240.874 174.853 241.18 173.701 241.18C173.389 241.18 173.035 241.138 172.639 241.054L172.009 245.572H169.705L171.487 232.378L170.533 231.928L170.677 231.208L173.593 230.776L174.007 230.974L173.881 231.964ZM172.801 239.848C173.077 239.992 173.455 240.064 173.935 240.064C174.619 240.064 175.189 239.8 175.645 239.272C176.113 238.744 176.455 238.066 176.671 237.238C176.899 236.41 177.013 235.54 177.013 234.628C177.013 233.884 176.887 233.284 176.635 232.828C176.395 232.372 176.041 232.144 175.573 232.144C175.201 232.144 174.859 232.258 174.547 232.486C174.235 232.702 173.959 232.972 173.719 233.296L172.801 239.848ZM188.442 239.2C188.13 239.692 187.62 240.154 186.912 240.586C186.216 241.018 185.406 241.234 184.482 241.234C183.618 241.234 182.904 241.048 182.34 240.676C181.788 240.304 181.386 239.818 181.134 239.218C180.882 238.618 180.756 237.964 180.756 237.256C180.756 236.056 180.996 234.964 181.476 233.98C181.968 232.984 182.634 232.198 183.474 231.622C184.314 231.046 185.25 230.758 186.282 230.758C187.206 230.758 187.89 230.974 188.334 231.406C188.79 231.826 189.018 232.378 189.018 233.062C189.018 233.926 188.706 234.646 188.082 235.222C187.458 235.798 186.708 236.23 185.832 236.518C184.956 236.794 184.128 236.944 183.348 236.968C183.324 237.832 183.462 238.528 183.762 239.056C184.074 239.584 184.542 239.848 185.166 239.848C186.198 239.848 187.134 239.368 187.974 238.408L188.442 239.2ZM185.742 231.874C185.034 231.874 184.476 232.3 184.068 233.152C183.66 234.004 183.42 234.952 183.348 235.996C183.816 235.972 184.308 235.846 184.824 235.618C185.352 235.39 185.79 235.072 186.138 234.664C186.498 234.244 186.678 233.764 186.678 233.224C186.678 232.792 186.594 232.462 186.426 232.234C186.27 231.994 186.042 231.874 185.742 231.874ZM193.598 233.368C193.826 232.684 194.216 232.084 194.768 231.568C195.332 231.04 195.962 230.776 196.658 230.776C196.898 230.776 197.102 230.83 197.27 230.938L196.748 233.53C196.676 233.47 196.556 233.416 196.388 233.368C196.232 233.308 196.04 233.278 195.812 233.278C195.38 233.278 194.966 233.374 194.57 233.566C194.174 233.746 193.868 234.01 193.652 234.358L192.77 241H190.43L191.564 232.45L190.646 231.946L190.772 231.226L193.346 230.794L193.76 231.046L193.67 232.684L193.598 233.368ZM205.539 232.954C205.983 232.294 206.511 231.766 207.123 231.37C207.735 230.974 208.377 230.776 209.049 230.776C210.537 230.776 211.281 231.658 211.281 233.422C211.281 233.89 211.131 234.934 210.831 236.554C210.783 236.866 210.741 237.106 210.705 237.274C210.537 238.222 210.447 238.906 210.435 239.326V239.398C210.435 239.698 210.531 239.848 210.723 239.848C210.831 239.848 210.945 239.818 211.065 239.758C211.185 239.698 211.341 239.59 211.533 239.434L211.785 239.992C211.605 240.244 211.311 240.508 210.903 240.784C210.495 241.048 209.997 241.18 209.409 241.18C208.845 241.18 208.455 241.06 208.239 240.82C208.023 240.568 207.915 240.238 207.915 239.83C207.927 239.47 208.041 238.756 208.257 237.688L208.365 237.076C208.389 236.968 208.437 236.68 208.509 236.212C208.593 235.744 208.659 235.3 208.707 234.88C208.755 234.448 208.779 234.076 208.779 233.764C208.779 233.212 208.713 232.834 208.581 232.63C208.461 232.426 208.239 232.324 207.915 232.324C207.519 232.324 207.075 232.546 206.583 232.99C206.103 233.434 205.689 233.968 205.341 234.592L204.477 241H202.119L203.271 232.432L202.353 231.946L202.497 231.208L205.305 230.776L205.719 230.974L205.539 232.954ZM218.677 230.758C219.925 230.758 220.879 231.124 221.539 231.856C222.199 232.576 222.529 233.614 222.529 234.97C222.529 236.086 222.301 237.124 221.845 238.084C221.389 239.044 220.747 239.812 219.919 240.388C219.091 240.952 218.143 241.234 217.075 241.234C215.827 241.234 214.873 240.868 214.213 240.136C213.565 239.392 213.241 238.336 213.241 236.968C213.241 235.84 213.463 234.802 213.907 233.854C214.363 232.906 215.005 232.156 215.833 231.604C216.661 231.04 217.609 230.758 218.677 230.758ZM218.371 231.892C217.819 231.892 217.351 232.144 216.967 232.648C216.583 233.14 216.295 233.77 216.103 234.538C215.923 235.306 215.833 236.092 215.833 236.896C215.833 238.036 215.959 238.87 216.211 239.398C216.475 239.926 216.883 240.19 217.435 240.19C217.975 240.19 218.431 239.938 218.803 239.434C219.175 238.93 219.451 238.288 219.631 237.508C219.811 236.728 219.901 235.93 219.901 235.114C219.901 233.974 219.775 233.152 219.523 232.648C219.283 232.144 218.899 231.892 218.371 231.892ZM227.477 232.954C227.921 232.294 228.449 231.766 229.061 231.37C229.673 230.974 230.315 230.776 230.987 230.776C232.475 230.776 233.219 231.658 233.219 233.422C233.219 233.89 233.069 234.934 232.769 236.554C232.721 236.866 232.679 237.106 232.643 237.274C232.475 238.222 232.385 238.906 232.373 239.326V239.398C232.373 239.698 232.469 239.848 232.661 239.848C232.769 239.848 232.883 239.818 233.003 239.758C233.123 239.698 233.279 239.59 233.471 239.434L233.723 239.992C233.543 240.244 233.249 240.508 232.841 240.784C232.433 241.048 231.935 241.18 231.347 241.18C230.783 241.18 230.393 241.06 230.177 240.82C229.961 240.568 229.853 240.238 229.853 239.83C229.865 239.47 229.979 238.756 230.195 237.688L230.303 237.076C230.327 236.968 230.375 236.68 230.447 236.212C230.531 235.744 230.597 235.3 230.645 234.88C230.693 234.448 230.717 234.076 230.717 233.764C230.717 233.212 230.651 232.834 230.519 232.63C230.399 232.426 230.177 232.324 229.853 232.324C229.457 232.324 229.013 232.546 228.521 232.99C228.041 233.434 227.627 233.968 227.279 234.592L226.415 241H224.057L225.209 232.432L224.291 231.946L224.435 231.208L227.243 230.776L227.657 230.974L227.477 232.954ZM247.352 239.164C247.34 239.212 247.334 239.284 247.334 239.38C247.334 239.692 247.454 239.848 247.694 239.848C247.886 239.848 248.156 239.704 248.504 239.416L248.756 239.974C248.6 240.214 248.318 240.478 247.91 240.766C247.514 241.042 247.052 241.18 246.524 241.18C246.116 241.18 245.792 241.09 245.552 240.91C245.312 240.73 245.186 240.454 245.174 240.082L245.21 239.776C244.874 240.172 244.466 240.508 243.986 240.784C243.506 241.048 242.978 241.18 242.402 241.18C241.394 241.18 240.638 240.838 240.134 240.154C239.642 239.458 239.396 238.552 239.396 237.436C239.396 236.332 239.624 235.27 240.08 234.25C240.548 233.23 241.226 232.396 242.114 231.748C243.002 231.1 244.058 230.776 245.282 230.776C245.594 230.776 245.93 230.812 246.29 230.884C246.662 230.956 246.986 231.04 247.262 231.136L248.504 230.776L247.352 239.164ZM245.966 232.054C245.738 231.946 245.444 231.892 245.084 231.892C244.364 231.892 243.764 232.168 243.284 232.72C242.804 233.26 242.45 233.95 242.222 234.79C242.006 235.618 241.898 236.458 241.898 237.31C241.898 238.102 242.018 238.72 242.258 239.164C242.498 239.596 242.852 239.812 243.32 239.812C243.62 239.812 243.92 239.71 244.22 239.506C244.532 239.302 244.808 239.062 245.048 238.786L245.966 232.054ZM250.591 232.702C250.531 232.378 250.399 232.204 250.195 232.18C250.063 232.18 249.949 232.21 249.853 232.27C249.757 232.33 249.703 232.366 249.691 232.378L249.439 231.766C249.583 231.586 249.847 231.376 250.231 231.136C250.615 230.896 251.041 230.776 251.509 230.776C251.977 230.776 252.325 230.878 252.553 231.082C252.781 231.286 252.925 231.586 252.985 231.982L253.759 237.292L254.011 239.2L254.749 238.174C255.289 237.358 255.691 236.596 255.955 235.888C256.231 235.168 256.393 234.406 256.441 233.602C256.453 233.374 256.411 233.068 256.315 232.684C256.231 232.372 256.189 232.108 256.189 231.892C256.189 231.568 256.291 231.304 256.495 231.1C256.699 230.884 256.975 230.776 257.323 230.776C257.791 230.776 258.133 230.956 258.349 231.316C258.577 231.664 258.691 232.108 258.691 232.648C258.691 234.136 257.527 236.356 255.199 239.308L253.831 241.054L252.247 241.18L251.599 237.886L250.591 232.702ZM267.122 239.2C266.81 239.692 266.3 240.154 265.592 240.586C264.896 241.018 264.086 241.234 263.162 241.234C262.298 241.234 261.584 241.048 261.02 240.676C260.468 240.304 260.066 239.818 259.814 239.218C259.562 238.618 259.436 237.964 259.436 237.256C259.436 236.056 259.676 234.964 260.156 233.98C260.648 232.984 261.314 232.198 262.154 231.622C262.994 231.046 263.93 230.758 264.962 230.758C265.886 230.758 266.57 230.974 267.014 231.406C267.47 231.826 267.698 232.378 267.698 233.062C267.698 233.926 267.386 234.646 266.762 235.222C266.138 235.798 265.388 236.23 264.512 236.518C263.636 236.794 262.808 236.944 262.028 236.968C262.004 237.832 262.142 238.528 262.442 239.056C262.754 239.584 263.222 239.848 263.846 239.848C264.878 239.848 265.814 239.368 266.654 238.408L267.122 239.2ZM264.422 231.874C263.714 231.874 263.156 232.3 262.748 233.152C262.34 234.004 262.1 234.952 262.028 235.996C262.496 235.972 262.988 235.846 263.504 235.618C264.032 235.39 264.47 235.072 264.818 234.664C265.178 234.244 265.358 233.764 265.358 233.224C265.358 232.792 265.274 232.462 265.106 232.234C264.95 231.994 264.722 231.874 264.422 231.874ZM272.278 233.368C272.506 232.684 272.896 232.084 273.448 231.568C274.012 231.04 274.642 230.776 275.338 230.776C275.578 230.776 275.782 230.83 275.95 230.938L275.428 233.53C275.356 233.47 275.236 233.416 275.068 233.368C274.912 233.308 274.72 233.278 274.492 233.278C274.06 233.278 273.646 233.374 273.25 233.566C272.854 233.746 272.548 234.01 272.332 234.358L271.45 241H269.11L270.244 232.45L269.326 231.946L269.452 231.226L272.026 230.794L272.44 231.046L272.35 232.684L272.278 233.368ZM283.962 239.2C283.65 239.692 283.14 240.154 282.432 240.586C281.736 241.018 280.926 241.234 280.002 241.234C279.138 241.234 278.424 241.048 277.86 240.676C277.308 240.304 276.906 239.818 276.654 239.218C276.402 238.618 276.276 237.964 276.276 237.256C276.276 236.056 276.516 234.964 276.996 233.98C277.488 232.984 278.154 232.198 278.994 231.622C279.834 231.046 280.77 230.758 281.802 230.758C282.726 230.758 283.41 230.974 283.854 231.406C284.31 231.826 284.538 232.378 284.538 233.062C284.538 233.926 284.226 234.646 283.602 235.222C282.978 235.798 282.228 236.23 281.352 236.518C280.476 236.794 279.648 236.944 278.868 236.968C278.844 237.832 278.982 238.528 279.282 239.056C279.594 239.584 280.062 239.848 280.686 239.848C281.718 239.848 282.654 239.368 283.494 238.408L283.962 239.2ZM281.262 231.874C280.554 231.874 279.996 232.3 279.588 233.152C279.18 234.004 278.94 234.952 278.868 235.996C279.336 235.972 279.828 235.846 280.344 235.618C280.872 235.39 281.31 235.072 281.658 234.664C282.018 234.244 282.198 233.764 282.198 233.224C282.198 232.792 282.114 232.462 281.946 232.234C281.79 231.994 281.562 231.874 281.262 231.874ZM120.904 262.164C120.892 262.212 120.886 262.284 120.886 262.38C120.886 262.692 121.006 262.848 121.246 262.848C121.438 262.848 121.708 262.704 122.056 262.416L122.308 262.974C122.152 263.214 121.87 263.478 121.462 263.766C121.066 264.042 120.604 264.18 120.076 264.18C119.668 264.18 119.344 264.09 119.104 263.91C118.864 263.73 118.738 263.454 118.726 263.082L118.762 262.776C118.426 263.172 118.018 263.508 117.538 263.784C117.058 264.048 116.53 264.18 115.954 264.18C114.946 264.18 114.19 263.838 113.686 263.154C113.194 262.458 112.948 261.552 112.948 260.436C112.948 259.332 113.176 258.27 113.632 257.25C114.1 256.23 114.778 255.396 115.666 254.748C116.554 254.1 117.61 253.776 118.834 253.776C119.146 253.776 119.482 253.812 119.842 253.884C120.214 253.956 120.538 254.04 120.814 254.136L122.056 253.776L120.904 262.164ZM119.518 255.054C119.29 254.946 118.996 254.892 118.636 254.892C117.916 254.892 117.316 255.168 116.836 255.72C116.356 256.26 116.002 256.95 115.774 257.79C115.558 258.618 115.45 259.458 115.45 260.31C115.45 261.102 115.57 261.72 115.81 262.164C116.05 262.596 116.404 262.812 116.872 262.812C117.172 262.812 117.472 262.71 117.772 262.506C118.084 262.302 118.36 262.062 118.6 261.786L119.518 255.054ZM126.284 262.2C126.272 262.248 126.266 262.314 126.266 262.398C126.266 262.698 126.374 262.848 126.59 262.848C126.698 262.848 126.812 262.818 126.932 262.758C127.064 262.698 127.238 262.572 127.454 262.38L127.688 262.938C127.496 263.214 127.214 263.49 126.842 263.766C126.47 264.042 125.99 264.18 125.402 264.18C124.946 264.18 124.574 264.09 124.286 263.91C123.998 263.718 123.848 263.424 123.836 263.028C123.836 262.98 123.86 262.764 123.908 262.38L125.474 250.878L124.34 250.518L124.502 249.852L127.562 249.492L127.976 249.726L126.284 262.2ZM132.003 260.706C131.919 261.402 131.877 261.822 131.877 261.966C131.877 262.242 131.931 262.44 132.039 262.56C132.147 262.668 132.333 262.722 132.597 262.722C132.837 262.722 133.107 262.668 133.407 262.56C133.719 262.44 133.977 262.296 134.181 262.128L134.379 262.794C134.067 263.142 133.623 263.46 133.047 263.748C132.471 264.036 131.823 264.18 131.103 264.18C130.599 264.18 130.197 264.054 129.897 263.802C129.609 263.538 129.465 263.124 129.465 262.56C129.465 262.32 129.525 261.756 129.645 260.868L130.401 255.288H129.321L129.519 254.424L130.599 254.046C130.959 253.71 131.385 252.882 131.877 251.562H133.227L132.921 254.01H135.081L134.901 255.288H132.741L132.003 260.706ZM138.851 256.368C139.079 255.684 139.469 255.084 140.021 254.568C140.585 254.04 141.215 253.776 141.911 253.776C142.151 253.776 142.355 253.83 142.523 253.938L142.001 256.53C141.929 256.47 141.809 256.416 141.641 256.368C141.485 256.308 141.293 256.278 141.065 256.278C140.633 256.278 140.219 256.374 139.823 256.566C139.427 256.746 139.121 257.01 138.905 257.358L138.023 264H135.683L136.817 255.45L135.899 254.946L136.025 254.226L138.599 253.794L139.013 254.046L138.923 255.684L138.851 256.368ZM145.837 262.2C145.825 262.26 145.819 262.332 145.819 262.416C145.819 262.704 145.921 262.848 146.125 262.848C146.233 262.848 146.353 262.812 146.485 262.74C146.617 262.668 146.785 262.548 146.989 262.38L147.223 262.938C147.019 263.214 146.713 263.49 146.305 263.766C145.909 264.042 145.423 264.18 144.847 264.18C144.379 264.18 144.013 264.09 143.749 263.91C143.485 263.718 143.353 263.46 143.353 263.136L143.371 262.956C143.443 262.332 143.689 260.52 144.109 257.52L144.397 255.432L143.335 254.928L143.461 254.226L146.557 253.794L146.989 253.992L145.837 262.2ZM146.035 252.066C145.711 252.066 145.429 251.946 145.189 251.706C144.961 251.454 144.847 251.166 144.847 250.842C144.847 250.398 144.991 250.026 145.279 249.726C145.579 249.426 145.957 249.276 146.413 249.276C146.785 249.276 147.079 249.396 147.295 249.636C147.511 249.864 147.619 250.14 147.619 250.464C147.619 250.92 147.481 251.304 147.205 251.616C146.929 251.916 146.539 252.066 146.035 252.066ZM154.829 253.146C154.949 252.426 155.183 251.778 155.531 251.202C155.891 250.626 156.347 250.17 156.899 249.834C157.451 249.498 158.069 249.33 158.753 249.33C159.389 249.33 159.893 249.402 160.265 249.546L159.761 250.986C159.413 250.722 159.011 250.59 158.555 250.59C158.111 250.59 157.787 250.758 157.583 251.094C157.391 251.43 157.247 251.946 157.151 252.642L156.971 253.956H158.951L158.717 255.306H156.791L155.801 263.298C155.609 264.774 155.171 266.01 154.487 267.006C153.815 268.002 152.915 268.506 151.787 268.518C151.511 268.53 151.223 268.518 150.923 268.482C150.611 268.446 150.365 268.404 150.185 268.356L150.653 266.844C150.809 266.916 151.037 266.994 151.337 267.078C151.625 267.174 151.859 267.222 152.039 267.222C152.363 267.222 152.615 267.06 152.795 266.736C152.987 266.424 153.125 265.95 153.209 265.314L154.451 255.306H153.299L153.461 254.514L154.685 253.992L154.829 253.146ZM161.993 262.2C161.981 262.26 161.975 262.332 161.975 262.416C161.975 262.704 162.077 262.848 162.281 262.848C162.389 262.848 162.509 262.812 162.641 262.74C162.773 262.668 162.941 262.548 163.145 262.38L163.379 262.938C163.175 263.214 162.869 263.49 162.461 263.766C162.065 264.042 161.579 264.18 161.003 264.18C160.535 264.18 160.169 264.09 159.905 263.91C159.641 263.718 159.509 263.46 159.509 263.136L159.527 262.956C159.599 262.332 159.845 260.52 160.265 257.52L160.553 255.432L159.491 254.928L159.617 254.226L162.713 253.794L163.145 253.992L161.993 262.2ZM162.191 252.066C161.867 252.066 161.585 251.946 161.345 251.706C161.117 251.454 161.003 251.166 161.003 250.842C161.003 250.398 161.147 250.026 161.435 249.726C161.735 249.426 162.113 249.276 162.569 249.276C162.941 249.276 163.235 249.396 163.451 249.636C163.667 249.864 163.775 250.14 163.775 250.464C163.775 250.92 163.637 251.304 163.361 251.616C163.085 251.916 162.695 252.066 162.191 252.066ZM172.508 264.684C172.328 266.052 171.74 267.03 170.744 267.618C169.748 268.218 168.608 268.518 167.324 268.518C166.928 268.518 166.502 268.476 166.046 268.392C165.602 268.32 165.29 268.242 165.11 268.158L165.524 266.466C165.752 266.61 166.1 266.772 166.568 266.952C167.036 267.132 167.486 267.222 167.918 267.222C168.614 267.222 169.124 267.084 169.448 266.808C169.772 266.532 169.982 266.01 170.078 265.242L170.348 263.1C170.024 263.412 169.646 263.67 169.214 263.874C168.782 264.078 168.314 264.18 167.81 264.18C166.802 264.18 166.04 263.838 165.524 263.154C165.02 262.458 164.768 261.552 164.768 260.436C164.768 259.332 164.996 258.27 165.452 257.25C165.92 256.23 166.598 255.396 167.486 254.748C168.386 254.1 169.448 253.776 170.672 253.776C171.008 253.776 171.368 253.818 171.752 253.902C172.136 253.974 172.472 254.064 172.76 254.172L174.038 253.776L172.508 264.684ZM171.5 255.108C171.248 254.964 170.9 254.892 170.456 254.892C169.736 254.892 169.136 255.174 168.656 255.738C168.176 256.29 167.822 256.986 167.594 257.826C167.378 258.654 167.27 259.488 167.27 260.328C167.27 261.108 167.396 261.72 167.648 262.164C167.912 262.596 168.272 262.812 168.728 262.812C169.064 262.812 169.388 262.716 169.7 262.524C170.024 262.32 170.3 262.08 170.528 261.804L171.5 255.108ZM178.07 262.2C178.058 262.248 178.052 262.314 178.052 262.398C178.052 262.698 178.16 262.848 178.376 262.848C178.484 262.848 178.598 262.818 178.718 262.758C178.85 262.698 179.024 262.572 179.24 262.38L179.474 262.938C179.282 263.214 179 263.49 178.628 263.766C178.256 264.042 177.776 264.18 177.188 264.18C176.732 264.18 176.36 264.09 176.072 263.91C175.784 263.718 175.634 263.424 175.622 263.028C175.622 262.98 175.646 262.764 175.694 262.38L177.26 250.878L176.126 250.518L176.288 249.852L179.348 249.492L179.762 249.726L178.07 262.2ZM183.788 262.2C183.776 262.26 183.77 262.332 183.77 262.416C183.77 262.704 183.872 262.848 184.076 262.848C184.184 262.848 184.304 262.812 184.436 262.74C184.568 262.668 184.736 262.548 184.94 262.38L185.174 262.938C184.97 263.214 184.664 263.49 184.256 263.766C183.86 264.042 183.374 264.18 182.798 264.18C182.33 264.18 181.964 264.09 181.7 263.91C181.436 263.718 181.304 263.46 181.304 263.136L181.322 262.956C181.394 262.332 181.64 260.52 182.06 257.52L182.348 255.432L181.286 254.928L181.412 254.226L184.508 253.794L184.94 253.992L183.788 262.2ZM183.986 252.066C183.662 252.066 183.38 251.946 183.14 251.706C182.912 251.454 182.798 251.166 182.798 250.842C182.798 250.398 182.942 250.026 183.23 249.726C183.53 249.426 183.908 249.276 184.364 249.276C184.736 249.276 185.03 249.396 185.246 249.636C185.462 249.864 185.57 250.14 185.57 250.464C185.57 250.92 185.432 251.304 185.156 251.616C184.88 251.916 184.49 252.066 183.986 252.066ZM186.439 262.92C186.439 262.452 186.589 262.068 186.889 261.768C187.189 261.456 187.531 261.3 187.915 261.3C188.299 261.3 188.599 261.426 188.815 261.678C189.031 261.918 189.139 262.212 189.139 262.56C189.139 263.076 188.983 263.478 188.671 263.766C188.371 264.042 188.005 264.18 187.573 264.18C187.261 264.18 186.991 264.066 186.763 263.838C186.547 263.598 186.439 263.292 186.439 262.92Z" fill="#394454"/>
<path d="M123.405 90.1364V84.9205L133.354 69.2727H138.087V76.2273H135.383L130.022 84.7273V84.9205H144.704V90.1364H123.405ZM135.431 94V88.5426L135.576 86.2727V69.2727H141.854V94H135.431ZM158.29 94.6761C156.044 94.6681 154.104 94.1489 152.47 93.1186C150.836 92.0883 149.577 90.6032 148.691 88.6634C147.806 86.7235 147.367 84.3973 147.375 81.6847C147.383 78.964 147.826 76.6539 148.703 74.7543C149.589 72.8546 150.844 71.4098 152.47 70.4197C154.104 69.4297 156.044 68.9347 158.29 68.9347C160.536 68.9347 162.475 69.4337 164.109 70.4318C165.743 71.4219 167.003 72.8667 167.889 74.7663C168.774 76.666 169.213 78.9721 169.205 81.6847C169.205 84.4134 168.762 86.7476 167.877 88.6875C166.991 90.6274 165.731 92.1125 164.097 93.1428C162.471 94.165 160.536 94.6761 158.29 94.6761ZM158.29 89.2188C159.449 89.2188 160.399 88.6151 161.139 87.4077C161.888 86.1922 162.258 84.2846 162.25 81.6847C162.25 79.9863 162.081 78.5978 161.743 77.5192C161.405 76.4406 160.938 75.6437 160.342 75.1286C159.747 74.6054 159.063 74.3438 158.29 74.3438C157.131 74.3438 156.185 74.9313 155.453 76.1065C154.72 77.2817 154.346 79.1411 154.33 81.6847C154.322 83.4152 154.487 84.84 154.825 85.9588C155.163 87.0696 155.63 87.8906 156.225 88.4219C156.829 88.9531 157.517 89.2188 158.29 89.2188ZM186.506 89.3636V88.0597C186.506 87.0133 186.732 86.0473 187.183 85.1619C187.641 84.2765 188.305 83.5642 189.175 83.0249C190.044 82.4856 191.103 82.2159 192.35 82.2159C193.63 82.2159 194.705 82.4815 195.574 83.0128C196.451 83.544 197.115 84.2524 197.566 85.1378C198.017 86.0232 198.242 86.9972 198.242 88.0597V89.3636C198.242 90.41 198.013 91.3759 197.554 92.2614C197.103 93.1468 196.439 93.8591 195.562 94.3984C194.685 94.9377 193.614 95.2074 192.35 95.2074C191.087 95.2074 190.02 94.9377 189.151 94.3984C188.281 93.8591 187.621 93.1468 187.171 92.2614C186.728 91.3759 186.506 90.41 186.506 89.3636ZM190.708 88.0597V89.3636C190.708 89.8224 190.821 90.2772 191.046 90.728C191.28 91.1707 191.714 91.392 192.35 91.392C193.018 91.392 193.457 91.1747 193.666 90.7401C193.884 90.3054 193.992 89.8466 193.992 89.3636V88.0597C193.992 87.5767 193.892 87.1098 193.69 86.6591C193.489 86.2083 193.042 85.983 192.35 85.983C191.714 85.983 191.28 86.2083 191.046 86.6591C190.821 87.1098 190.708 87.5767 190.708 88.0597ZM173.563 75.2131V73.9091C173.563 72.8466 173.793 71.8726 174.252 70.9872C174.718 70.1018 175.386 69.3935 176.256 68.8622C177.125 68.331 178.176 68.0653 179.407 68.0653C180.687 68.0653 181.761 68.331 182.631 68.8622C183.508 69.3935 184.172 70.1018 184.623 70.9872C185.074 71.8726 185.299 72.8466 185.299 73.9091V75.2131C185.299 76.2756 185.07 77.2455 184.611 78.1229C184.16 79.0002 183.496 79.7005 182.619 80.2237C181.741 80.7469 180.671 81.0085 179.407 81.0085C178.143 81.0085 177.077 80.7429 176.207 80.2116C175.338 79.6804 174.678 78.9761 174.227 78.0987C173.785 77.2214 173.563 76.2595 173.563 75.2131ZM177.813 73.9091V75.2131C177.813 75.696 177.926 76.1548 178.151 76.5895C178.377 77.0241 178.795 77.2415 179.407 77.2415C180.075 77.2415 180.514 77.0241 180.723 76.5895C180.94 76.1548 181.049 75.696 181.049 75.2131V73.9091C181.049 73.4261 180.948 72.9593 180.747 72.5085C180.546 72.0578 180.099 71.8324 179.407 71.8324C178.771 71.8324 178.345 72.0658 178.127 72.5327C177.918 72.9915 177.813 73.4503 177.813 73.9091ZM175.616 94L192.616 69.2727H196.045L179.045 94H175.616Z" fill="#F04E5A"/>
<path d="M153 7C168.838 7 184.27 12.0141 197.084 21.3237C209.897 30.6333 219.435 43.7605 224.329 58.8237C229.224 73.887 229.224 90.113 224.329 105.176C219.435 120.24 209.897 133.367 197.084 142.676L190.366 133.429C201.226 125.538 209.31 114.412 213.459 101.644C217.607 88.8766 217.607 75.1234 213.459 62.3558C209.31 49.5882 201.226 38.4616 190.366 30.5708C179.505 22.68 166.425 18.43 153 18.43L153 7Z" fill="#F04E5A"/>
</svg>
