<svg width="280" height="276" viewBox="0 0 280 276" fill="none" xmlns="http://www.w3.org/2000/svg">
<circle cx="140" cy="82" r="82" fill="#E9E9E9"/>
<path d="M37.9129 217.98C37.8996 218.033 37.8929 218.113 37.8929 218.22C37.8929 218.553 38.0062 218.72 38.2329 218.72C38.4596 218.72 38.7596 218.567 39.1329 218.26L39.4129 218.88C38.6662 219.76 37.8396 220.2 36.9329 220.2C36.4662 220.2 36.1129 220.087 35.8729 219.86C35.6329 219.633 35.4929 219.287 35.4529 218.82V218.52C35.1196 218.987 34.6729 219.387 34.1129 219.72C33.5529 220.04 32.9129 220.2 32.1929 220.2C31.0729 220.2 30.2396 219.82 29.6929 219.06C29.1462 218.287 28.8729 217.28 28.8729 216.04C28.8729 214.8 29.1196 213.613 29.6129 212.48C30.1062 211.347 30.8396 210.427 31.8129 209.72C32.7996 209 33.9862 208.64 35.3729 208.64C35.7596 208.64 36.1662 208.693 36.5929 208.8L37.0929 205.42L35.6529 205.02L35.8329 204.28L39.4329 203.88L39.9329 204.14L37.9129 217.98ZM36.3929 210.16C36.0596 209.973 35.6396 209.88 35.1329 209.88C34.3196 209.88 33.6529 210.193 33.1329 210.82C32.6129 211.433 32.2329 212.2 31.9929 213.12C31.7529 214.04 31.6329 214.973 31.6329 215.92C31.6329 216.8 31.7662 217.48 32.0329 217.96C32.3129 218.44 32.7062 218.68 33.2129 218.68C33.6262 218.68 34.0196 218.553 34.3929 218.3C34.7662 218.033 35.0729 217.72 35.3129 217.36L36.3929 210.16ZM49.4451 218C49.0984 218.547 48.5317 219.06 47.7451 219.54C46.9717 220.02 46.0717 220.26 45.0451 220.26C44.0851 220.26 43.2917 220.053 42.6651 219.64C42.0517 219.227 41.6051 218.687 41.3251 218.02C41.0451 217.353 40.9051 216.627 40.9051 215.84C40.9051 214.507 41.1717 213.293 41.7051 212.2C42.2517 211.093 42.9917 210.22 43.9251 209.58C44.8584 208.94 45.8984 208.62 47.0451 208.62C48.0717 208.62 48.8317 208.86 49.3251 209.34C49.8317 209.807 50.0851 210.42 50.0851 211.18C50.0851 212.14 49.7384 212.94 49.0451 213.58C48.3517 214.22 47.5184 214.7 46.5451 215.02C45.5717 215.327 44.6517 215.493 43.7851 215.52C43.7584 216.48 43.9117 217.253 44.2451 217.84C44.5917 218.427 45.1117 218.72 45.8051 218.72C46.9517 218.72 47.9917 218.187 48.9251 217.12L49.4451 218ZM46.4451 209.86C45.6584 209.86 45.0384 210.333 44.5851 211.28C44.1317 212.227 43.8651 213.28 43.7851 214.44C44.3051 214.413 44.8517 214.273 45.4251 214.02C46.0117 213.767 46.4984 213.413 46.8851 212.96C47.2851 212.493 47.4851 211.96 47.4851 211.36C47.4851 210.88 47.3917 210.513 47.2051 210.26C47.0317 209.993 46.7784 209.86 46.4451 209.86ZM58.2543 210.8C58.0943 210.613 57.8276 210.42 57.4543 210.22C57.0943 210.02 56.6743 209.92 56.1943 209.92C55.661 209.92 55.2276 210.04 54.8943 210.28C54.5743 210.507 54.4143 210.847 54.4143 211.3C54.4143 211.7 54.5476 212.06 54.8143 212.38C55.0943 212.687 55.541 213.06 56.1543 213.5C56.8343 214.007 57.3543 214.5 57.7143 214.98C58.0743 215.447 58.2543 216.047 58.2543 216.78C58.2543 217.513 58.0543 218.14 57.6543 218.66C57.2543 219.167 56.721 219.553 56.0543 219.82C55.3876 220.073 54.6543 220.2 53.8543 220.2C53.2543 220.2 52.641 220.133 52.0143 220C51.3876 219.853 50.981 219.7 50.7943 219.54L51.1943 217.84C51.4743 218.08 51.8543 218.307 52.3343 218.52C52.8143 218.733 53.3143 218.84 53.8343 218.84C54.3276 218.84 54.7476 218.727 55.0943 218.5C55.4543 218.273 55.6343 217.92 55.6343 217.44C55.6343 217.027 55.481 216.653 55.1743 216.32C54.8676 215.987 54.4076 215.607 53.7943 215.18C53.2343 214.793 52.761 214.34 52.3743 213.82C52.001 213.287 51.8143 212.647 51.8143 211.9C51.8143 211.26 51.9943 210.693 52.3543 210.2C52.7276 209.707 53.2343 209.327 53.8743 209.06C54.5276 208.78 55.2743 208.64 56.1143 208.64C56.6076 208.64 57.1076 208.68 57.6143 208.76C58.121 208.84 58.461 208.927 58.6343 209.02L58.2543 210.8ZM66.7555 207.94C66.8889 207.14 67.1489 206.42 67.5355 205.78C67.9355 205.14 68.4422 204.633 69.0555 204.26C69.6689 203.887 70.3555 203.7 71.1155 203.7C71.8222 203.7 72.3822 203.78 72.7955 203.94L72.2355 205.54C71.8489 205.247 71.4022 205.1 70.8955 205.1C70.4022 205.1 70.0422 205.287 69.8155 205.66C69.6022 206.033 69.4422 206.607 69.3355 207.38L69.1355 208.84H71.3355L71.0755 210.34H68.9355L67.8355 219.22C67.6222 220.86 67.1355 222.233 66.3755 223.34C65.6289 224.447 64.6289 225.007 63.3755 225.02C63.0689 225.033 62.7489 225.02 62.4155 224.98C62.0689 224.94 61.7955 224.893 61.5955 224.84L62.1155 223.16C62.2889 223.24 62.5422 223.327 62.8755 223.42C63.1955 223.527 63.4555 223.58 63.6555 223.58C64.0155 223.58 64.2955 223.4 64.4955 223.04C64.7089 222.693 64.8622 222.167 64.9555 221.46L66.3355 210.34H65.0555L65.2355 209.46L66.5955 208.88L66.7555 207.94ZM80.2134 217.96C80.2 218.013 80.1934 218.093 80.1934 218.2C80.1934 218.547 80.3267 218.72 80.5934 218.72C80.8067 218.72 81.1067 218.56 81.4934 218.24L81.7734 218.86C81.6 219.127 81.2867 219.42 80.8334 219.74C80.3934 220.047 79.88 220.2 79.2934 220.2C78.84 220.2 78.48 220.1 78.2134 219.9C77.9467 219.7 77.8067 219.393 77.7934 218.98L77.8334 218.64C77.46 219.08 77.0067 219.453 76.4734 219.76C75.94 220.053 75.3534 220.2 74.7134 220.2C73.5934 220.2 72.7534 219.82 72.1934 219.06C71.6467 218.287 71.3734 217.28 71.3734 216.04C71.3734 214.813 71.6267 213.633 72.1334 212.5C72.6534 211.367 73.4067 210.44 74.3934 209.72C75.38 209 76.5534 208.64 77.9134 208.64C78.26 208.64 78.6334 208.68 79.0334 208.76C79.4467 208.84 79.8067 208.933 80.1134 209.04L81.4934 208.64L80.2134 217.96ZM78.6734 210.06C78.42 209.94 78.0934 209.88 77.6934 209.88C76.8934 209.88 76.2267 210.187 75.6934 210.8C75.16 211.4 74.7667 212.167 74.5134 213.1C74.2734 214.02 74.1534 214.953 74.1534 215.9C74.1534 216.78 74.2867 217.467 74.5534 217.96C74.82 218.44 75.2134 218.68 75.7334 218.68C76.0667 218.68 76.4 218.567 76.7334 218.34C77.08 218.113 77.3867 217.847 77.6534 217.54L78.6734 210.06ZM87.2116 211.08C87.6916 210.36 88.265 209.773 88.9316 209.32C89.5983 208.867 90.2983 208.64 91.0316 208.64C91.7783 208.64 92.3583 208.84 92.7716 209.24C93.1983 209.627 93.445 210.253 93.5116 211.12C93.9783 210.347 94.545 209.74 95.2116 209.3C95.8916 208.86 96.625 208.64 97.4116 208.64C99.0783 208.64 99.9116 209.62 99.9116 211.58C99.9116 212.007 99.7783 212.993 99.5116 214.54L99.4316 215.06L99.3316 215.58C99.105 216.82 98.985 217.673 98.9716 218.14C98.9716 218.527 99.085 218.72 99.3116 218.72C99.4316 218.72 99.5583 218.687 99.6916 218.62C99.8383 218.54 100.032 218.4 100.272 218.2L100.532 218.82C100.345 219.1 100.018 219.4 99.5516 219.72C99.085 220.04 98.525 220.2 97.8716 220.2C97.245 220.2 96.8116 220.073 96.5716 219.82C96.3316 219.567 96.2116 219.227 96.2116 218.8C96.2116 218.533 96.2516 218.147 96.3316 217.64C96.4116 217.12 96.4983 216.6 96.5916 216.08L96.6716 215.62C96.8316 214.713 96.945 214 97.0116 213.48C97.0916 212.96 97.1316 212.453 97.1316 211.96C97.1316 211.347 97.0583 210.927 96.9116 210.7C96.7783 210.473 96.5383 210.36 96.1916 210.36C95.765 210.36 95.2983 210.567 94.7916 210.98C94.2983 211.393 93.8716 211.92 93.5116 212.56C93.4583 213.347 93.3716 214.18 93.2516 215.06L92.6316 220H89.9316L90.5116 215.64C90.7516 213.987 90.8716 212.733 90.8716 211.88C90.8583 211.267 90.7716 210.86 90.6116 210.66C90.465 210.46 90.1983 210.36 89.8116 210.36C89.385 210.36 88.8983 210.593 88.3516 211.06C87.8183 211.527 87.3716 212.087 87.0116 212.74L86.0116 220H83.4116L84.6916 210.48L83.6716 209.94L83.8316 209.12L86.9516 208.64L87.4116 208.86L87.2116 211.08ZM105.377 218C105.364 218.067 105.357 218.147 105.357 218.24C105.357 218.56 105.471 218.72 105.697 218.72C105.817 218.72 105.951 218.68 106.097 218.6C106.244 218.52 106.431 218.387 106.657 218.2L106.917 218.82C106.691 219.127 106.351 219.433 105.897 219.74C105.457 220.047 104.917 220.2 104.277 220.2C103.757 220.2 103.351 220.1 103.057 219.9C102.764 219.687 102.617 219.4 102.617 219.04L102.637 218.84C102.717 218.147 102.991 216.133 103.457 212.8L103.777 210.48L102.597 209.92L102.737 209.14L106.177 208.66L106.657 208.88L105.377 218ZM105.597 206.74C105.237 206.74 104.924 206.607 104.657 206.34C104.404 206.06 104.277 205.74 104.277 205.38C104.277 204.887 104.437 204.473 104.757 204.14C105.091 203.807 105.511 203.64 106.017 203.64C106.431 203.64 106.757 203.773 106.997 204.04C107.237 204.293 107.357 204.6 107.357 204.96C107.357 205.467 107.204 205.893 106.897 206.24C106.591 206.573 106.157 206.74 105.597 206.74ZM111.563 218C111.549 218.053 111.543 218.127 111.543 218.22C111.543 218.553 111.663 218.72 111.903 218.72C112.023 218.72 112.149 218.687 112.283 218.62C112.429 218.553 112.623 218.413 112.863 218.2L113.123 218.82C112.909 219.127 112.596 219.433 112.183 219.74C111.769 220.047 111.236 220.2 110.583 220.2C110.076 220.2 109.663 220.1 109.343 219.9C109.023 219.687 108.856 219.36 108.843 218.92C108.843 218.867 108.869 218.627 108.923 218.2L110.663 205.42L109.403 205.02L109.583 204.28L112.983 203.88L113.443 204.14L111.563 218ZM117.656 218C117.643 218.053 117.636 218.127 117.636 218.22C117.636 218.553 117.756 218.72 117.996 218.72C118.116 218.72 118.243 218.687 118.376 218.62C118.523 218.553 118.716 218.413 118.956 218.2L119.216 218.82C119.003 219.127 118.69 219.433 118.276 219.74C117.863 220.047 117.33 220.2 116.676 220.2C116.17 220.2 115.756 220.1 115.436 219.9C115.116 219.687 114.95 219.36 114.936 218.92C114.936 218.867 114.963 218.627 115.016 218.2L116.756 205.42L115.496 205.02L115.676 204.28L119.076 203.88L119.536 204.14L117.656 218ZM129.23 218C128.884 218.547 128.317 219.06 127.53 219.54C126.757 220.02 125.857 220.26 124.83 220.26C123.87 220.26 123.077 220.053 122.45 219.64C121.837 219.227 121.39 218.687 121.11 218.02C120.83 217.353 120.69 216.627 120.69 215.84C120.69 214.507 120.957 213.293 121.49 212.2C122.037 211.093 122.777 210.22 123.71 209.58C124.644 208.94 125.684 208.62 126.83 208.62C127.857 208.62 128.617 208.86 129.11 209.34C129.617 209.807 129.87 210.42 129.87 211.18C129.87 212.14 129.524 212.94 128.83 213.58C128.137 214.22 127.304 214.7 126.33 215.02C125.357 215.327 124.437 215.493 123.57 215.52C123.544 216.48 123.697 217.253 124.03 217.84C124.377 218.427 124.897 218.72 125.59 218.72C126.737 218.72 127.777 218.187 128.71 217.12L129.23 218ZM126.23 209.86C125.444 209.86 124.824 210.333 124.37 211.28C123.917 212.227 123.65 213.28 123.57 214.44C124.09 214.413 124.637 214.273 125.21 214.02C125.797 213.767 126.284 213.413 126.67 212.96C127.07 212.493 127.27 211.96 127.27 211.36C127.27 210.88 127.177 210.513 126.99 210.26C126.817 209.993 126.564 209.86 126.23 209.86ZM138.039 210.8C137.879 210.613 137.613 210.42 137.239 210.22C136.879 210.02 136.459 209.92 135.979 209.92C135.446 209.92 135.013 210.04 134.679 210.28C134.359 210.507 134.199 210.847 134.199 211.3C134.199 211.7 134.333 212.06 134.599 212.38C134.879 212.687 135.326 213.06 135.939 213.5C136.619 214.007 137.139 214.5 137.499 214.98C137.859 215.447 138.039 216.047 138.039 216.78C138.039 217.513 137.839 218.14 137.439 218.66C137.039 219.167 136.506 219.553 135.839 219.82C135.173 220.073 134.439 220.2 133.639 220.2C133.039 220.2 132.426 220.133 131.799 220C131.173 219.853 130.766 219.7 130.579 219.54L130.979 217.84C131.259 218.08 131.639 218.307 132.119 218.52C132.599 218.733 133.099 218.84 133.619 218.84C134.113 218.84 134.533 218.727 134.879 218.5C135.239 218.273 135.419 217.92 135.419 217.44C135.419 217.027 135.266 216.653 134.959 216.32C134.653 215.987 134.193 215.607 133.579 215.18C133.019 214.793 132.546 214.34 132.159 213.82C131.786 213.287 131.599 212.647 131.599 211.9C131.599 211.26 131.779 210.693 132.139 210.2C132.513 209.707 133.019 209.327 133.659 209.06C134.313 208.78 135.059 208.64 135.899 208.64C136.393 208.64 136.893 208.68 137.399 208.76C137.906 208.84 138.246 208.927 138.419 209.02L138.039 210.8ZM151.321 210.8C151.161 210.613 150.894 210.42 150.521 210.22C150.161 210.02 149.741 209.92 149.261 209.92C148.727 209.92 148.294 210.04 147.961 210.28C147.641 210.507 147.481 210.847 147.481 211.3C147.481 211.7 147.614 212.06 147.881 212.38C148.161 212.687 148.607 213.06 149.221 213.5C149.901 214.007 150.421 214.5 150.781 214.98C151.141 215.447 151.321 216.047 151.321 216.78C151.321 217.513 151.121 218.14 150.721 218.66C150.321 219.167 149.787 219.553 149.121 219.82C148.454 220.073 147.721 220.2 146.921 220.2C146.321 220.2 145.707 220.133 145.081 220C144.454 219.853 144.047 219.7 143.861 219.54L144.261 217.84C144.541 218.08 144.921 218.307 145.401 218.52C145.881 218.733 146.381 218.84 146.901 218.84C147.394 218.84 147.814 218.727 148.161 218.5C148.521 218.273 148.701 217.92 148.701 217.44C148.701 217.027 148.547 216.653 148.241 216.32C147.934 215.987 147.474 215.607 146.861 215.18C146.301 214.793 145.827 214.34 145.441 213.82C145.067 213.287 144.881 212.647 144.881 211.9C144.881 211.26 145.061 210.693 145.421 210.2C145.794 209.707 146.301 209.327 146.941 209.06C147.594 208.78 148.341 208.64 149.181 208.64C149.674 208.64 150.174 208.68 150.681 208.76C151.187 208.84 151.527 208.927 151.701 209.02L151.321 210.8ZM156.576 214.22C156.523 214.713 156.476 215.06 156.436 215.26C156.303 216.3 156.236 216.967 156.236 217.26C156.236 217.793 156.329 218.173 156.516 218.4C156.703 218.627 156.983 218.74 157.356 218.74C157.783 218.74 158.203 218.607 158.616 218.34C159.043 218.073 159.403 217.753 159.696 217.38L160.856 208.74H163.496L162.216 218C162.189 218.24 162.209 218.42 162.276 218.54C162.343 218.66 162.443 218.72 162.576 218.72C162.696 218.72 162.823 218.687 162.956 218.62C163.089 218.54 163.276 218.4 163.516 218.2L163.796 218.82C163.623 219.1 163.303 219.4 162.836 219.72C162.369 220.04 161.836 220.2 161.236 220.2C160.769 220.2 160.409 220.1 160.156 219.9C159.916 219.7 159.783 219.427 159.756 219.08L159.736 218.84C159.736 218.733 159.749 218.6 159.776 218.44L159.736 218.42C158.749 219.607 157.589 220.2 156.256 220.2C155.509 220.2 154.876 220 154.356 219.6C153.836 219.187 153.569 218.533 153.556 217.64C153.556 217.12 153.649 216.18 153.836 214.82C153.889 214.487 153.923 214.26 153.936 214.14L154.476 210.5L153.316 209.82L153.476 209L156.796 208.66L157.256 208.88L156.576 214.22ZM168.541 218C168.528 218.067 168.521 218.147 168.521 218.24C168.521 218.56 168.635 218.72 168.861 218.72C168.981 218.72 169.115 218.68 169.261 218.6C169.408 218.52 169.595 218.387 169.821 218.2L170.081 218.82C169.855 219.127 169.515 219.433 169.061 219.74C168.621 220.047 168.081 220.2 167.441 220.2C166.921 220.2 166.515 220.1 166.221 219.9C165.928 219.687 165.781 219.4 165.781 219.04L165.801 218.84C165.881 218.147 166.155 216.133 166.621 212.8L166.941 210.48L165.761 209.92L165.901 209.14L169.341 208.66L169.821 208.88L168.541 218ZM168.761 206.74C168.401 206.74 168.088 206.607 167.821 206.34C167.568 206.06 167.441 205.74 167.441 205.38C167.441 204.887 167.601 204.473 167.921 204.14C168.255 203.807 168.675 203.64 169.181 203.64C169.595 203.64 169.921 203.773 170.161 204.04C170.401 204.293 170.521 204.6 170.521 204.96C170.521 205.467 170.368 205.893 170.061 206.24C169.755 206.573 169.321 206.74 168.761 206.74ZM178.567 210.8C178.407 210.613 178.14 210.42 177.767 210.22C177.407 210.02 176.987 209.92 176.507 209.92C175.973 209.92 175.54 210.04 175.207 210.28C174.887 210.507 174.727 210.847 174.727 211.3C174.727 211.7 174.86 212.06 175.127 212.38C175.407 212.687 175.853 213.06 176.467 213.5C177.147 214.007 177.667 214.5 178.027 214.98C178.387 215.447 178.567 216.047 178.567 216.78C178.567 217.513 178.367 218.14 177.967 218.66C177.567 219.167 177.033 219.553 176.367 219.82C175.7 220.073 174.967 220.2 174.167 220.2C173.567 220.2 172.953 220.133 172.327 220C171.7 219.853 171.293 219.7 171.107 219.54L171.507 217.84C171.787 218.08 172.167 218.307 172.647 218.52C173.127 218.733 173.627 218.84 174.147 218.84C174.64 218.84 175.06 218.727 175.407 218.5C175.767 218.273 175.947 217.92 175.947 217.44C175.947 217.027 175.793 216.653 175.487 216.32C175.18 215.987 174.72 215.607 174.107 215.18C173.547 214.793 173.073 214.34 172.687 213.82C172.313 213.287 172.127 212.647 172.127 211.9C172.127 211.26 172.307 210.693 172.667 210.2C173.04 209.707 173.547 209.327 174.187 209.06C174.84 208.78 175.587 208.64 176.427 208.64C176.92 208.64 177.42 208.68 177.927 208.76C178.433 208.84 178.773 208.927 178.947 209.02L178.567 210.8ZM187.102 210.8C186.942 210.613 186.675 210.42 186.302 210.22C185.942 210.02 185.522 209.92 185.042 209.92C184.509 209.92 184.075 210.04 183.742 210.28C183.422 210.507 183.262 210.847 183.262 211.3C183.262 211.7 183.395 212.06 183.662 212.38C183.942 212.687 184.389 213.06 185.002 213.5C185.682 214.007 186.202 214.5 186.562 214.98C186.922 215.447 187.102 216.047 187.102 216.78C187.102 217.513 186.902 218.14 186.502 218.66C186.102 219.167 185.569 219.553 184.902 219.82C184.235 220.073 183.502 220.2 182.702 220.2C182.102 220.2 181.489 220.133 180.862 220C180.235 219.853 179.829 219.7 179.642 219.54L180.042 217.84C180.322 218.08 180.702 218.307 181.182 218.52C181.662 218.733 182.162 218.84 182.682 218.84C183.175 218.84 183.595 218.727 183.942 218.5C184.302 218.273 184.482 217.92 184.482 217.44C184.482 217.027 184.329 216.653 184.022 216.32C183.715 215.987 183.255 215.607 182.642 215.18C182.082 214.793 181.609 214.34 181.222 213.82C180.849 213.287 180.662 212.647 180.662 211.9C180.662 211.26 180.842 210.693 181.202 210.2C181.575 209.707 182.082 209.327 182.722 209.06C183.375 208.78 184.122 208.64 184.962 208.64C185.455 208.64 185.955 208.68 186.462 208.76C186.969 208.84 187.309 208.927 187.482 209.02L187.102 210.8ZM197.277 218C196.93 218.547 196.364 219.06 195.577 219.54C194.804 220.02 193.904 220.26 192.877 220.26C191.917 220.26 191.124 220.053 190.497 219.64C189.884 219.227 189.437 218.687 189.157 218.02C188.877 217.353 188.737 216.627 188.737 215.84C188.737 214.507 189.004 213.293 189.537 212.2C190.084 211.093 190.824 210.22 191.757 209.58C192.69 208.94 193.73 208.62 194.877 208.62C195.904 208.62 196.664 208.86 197.157 209.34C197.664 209.807 197.917 210.42 197.917 211.18C197.917 212.14 197.57 212.94 196.877 213.58C196.184 214.22 195.35 214.7 194.377 215.02C193.404 215.327 192.484 215.493 191.617 215.52C191.59 216.48 191.744 217.253 192.077 217.84C192.424 218.427 192.944 218.72 193.637 218.72C194.784 218.72 195.824 218.187 196.757 217.12L197.277 218ZM194.277 209.86C193.49 209.86 192.87 210.333 192.417 211.28C191.964 212.227 191.697 213.28 191.617 214.44C192.137 214.413 192.684 214.273 193.257 214.02C193.844 213.767 194.33 213.413 194.717 212.96C195.117 212.493 195.317 211.96 195.317 211.36C195.317 210.88 195.224 210.513 195.037 210.26C194.864 209.993 194.61 209.86 194.277 209.86ZM206.086 210.8C205.926 210.613 205.66 210.42 205.286 210.22C204.926 210.02 204.506 209.92 204.026 209.92C203.493 209.92 203.06 210.04 202.726 210.28C202.406 210.507 202.246 210.847 202.246 211.3C202.246 211.7 202.38 212.06 202.646 212.38C202.926 212.687 203.373 213.06 203.986 213.5C204.666 214.007 205.186 214.5 205.546 214.98C205.906 215.447 206.086 216.047 206.086 216.78C206.086 217.513 205.886 218.14 205.486 218.66C205.086 219.167 204.553 219.553 203.886 219.82C203.22 220.073 202.486 220.2 201.686 220.2C201.086 220.2 200.473 220.133 199.846 220C199.22 219.853 198.813 219.7 198.626 219.54L199.026 217.84C199.306 218.08 199.686 218.307 200.166 218.52C200.646 218.733 201.146 218.84 201.666 218.84C202.16 218.84 202.58 218.727 202.926 218.5C203.286 218.273 203.466 217.92 203.466 217.44C203.466 217.027 203.313 216.653 203.006 216.32C202.7 215.987 202.24 215.607 201.626 215.18C201.066 214.793 200.593 214.34 200.206 213.82C199.833 213.287 199.646 212.647 199.646 211.9C199.646 211.26 199.826 210.693 200.186 210.2C200.56 209.707 201.066 209.327 201.706 209.06C202.36 208.78 203.106 208.64 203.946 208.64C204.44 208.64 204.94 208.68 205.446 208.76C205.953 208.84 206.293 208.927 206.466 209.02L206.086 210.8ZM219.368 210.8C219.208 210.613 218.941 210.42 218.568 210.22C218.208 210.02 217.788 209.92 217.308 209.92C216.774 209.92 216.341 210.04 216.008 210.28C215.688 210.507 215.528 210.847 215.528 211.3C215.528 211.7 215.661 212.06 215.928 212.38C216.208 212.687 216.654 213.06 217.268 213.5C217.948 214.007 218.468 214.5 218.828 214.98C219.188 215.447 219.368 216.047 219.368 216.78C219.368 217.513 219.168 218.14 218.768 218.66C218.368 219.167 217.834 219.553 217.168 219.82C216.501 220.073 215.768 220.2 214.968 220.2C214.368 220.2 213.754 220.133 213.128 220C212.501 219.853 212.094 219.7 211.908 219.54L212.308 217.84C212.588 218.08 212.968 218.307 213.448 218.52C213.928 218.733 214.428 218.84 214.948 218.84C215.441 218.84 215.861 218.727 216.208 218.5C216.568 218.273 216.748 217.92 216.748 217.44C216.748 217.027 216.594 216.653 216.288 216.32C215.981 215.987 215.521 215.607 214.908 215.18C214.348 214.793 213.874 214.34 213.488 213.82C213.114 213.287 212.928 212.647 212.928 211.9C212.928 211.26 213.108 210.693 213.468 210.2C213.841 209.707 214.348 209.327 214.988 209.06C215.641 208.78 216.388 208.64 217.228 208.64C217.721 208.64 218.221 208.68 218.728 208.76C219.234 208.84 219.574 208.927 219.748 209.02L219.368 210.8ZM227.083 208.62C228.469 208.62 229.529 209.027 230.263 209.84C230.996 210.64 231.363 211.793 231.363 213.3C231.363 214.54 231.109 215.693 230.603 216.76C230.096 217.827 229.383 218.68 228.463 219.32C227.543 219.947 226.489 220.26 225.303 220.26C223.916 220.26 222.856 219.853 222.123 219.04C221.403 218.213 221.043 217.04 221.043 215.52C221.043 214.267 221.289 213.113 221.783 212.06C222.289 211.007 223.003 210.173 223.923 209.56C224.843 208.933 225.896 208.62 227.083 208.62ZM226.743 209.88C226.129 209.88 225.609 210.16 225.183 210.72C224.756 211.267 224.436 211.967 224.223 212.82C224.023 213.673 223.923 214.547 223.923 215.44C223.923 216.707 224.063 217.633 224.343 218.22C224.636 218.807 225.089 219.1 225.703 219.1C226.303 219.1 226.809 218.82 227.223 218.26C227.636 217.7 227.943 216.987 228.143 216.12C228.343 215.253 228.443 214.367 228.443 213.46C228.443 212.193 228.303 211.28 228.023 210.72C227.756 210.16 227.329 209.88 226.743 209.88ZM236.86 211.06C237.353 210.327 237.94 209.74 238.62 209.3C239.3 208.86 240.013 208.64 240.76 208.64C242.413 208.64 243.24 209.62 243.24 211.58C243.24 212.1 243.073 213.26 242.74 215.06C242.687 215.407 242.64 215.673 242.6 215.86C242.413 216.913 242.313 217.673 242.3 218.14V218.22C242.3 218.553 242.407 218.72 242.62 218.72C242.74 218.72 242.867 218.687 243 218.62C243.133 218.553 243.307 218.433 243.52 218.26L243.8 218.88C243.6 219.16 243.273 219.453 242.82 219.76C242.367 220.053 241.813 220.2 241.16 220.2C240.533 220.2 240.1 220.067 239.86 219.8C239.62 219.52 239.5 219.153 239.5 218.7C239.513 218.3 239.64 217.507 239.88 216.32L240 215.64C240.027 215.52 240.08 215.2 240.16 214.68C240.253 214.16 240.327 213.667 240.38 213.2C240.433 212.72 240.46 212.307 240.46 211.96C240.46 211.347 240.387 210.927 240.24 210.7C240.107 210.473 239.86 210.36 239.5 210.36C239.06 210.36 238.567 210.607 238.02 211.1C237.487 211.593 237.027 212.187 236.64 212.88L235.68 220H233.06L234.34 210.48L233.32 209.94L233.48 209.12L236.6 208.64L237.06 208.86L236.86 211.06ZM248.698 216.34C248.604 217.113 248.558 217.58 248.558 217.74C248.558 218.047 248.618 218.267 248.738 218.4C248.858 218.52 249.064 218.58 249.358 218.58C249.624 218.58 249.924 218.52 250.258 218.4C250.604 218.267 250.891 218.107 251.118 217.92L251.338 218.66C250.991 219.047 250.498 219.4 249.858 219.72C249.218 220.04 248.498 220.2 247.698 220.2C247.138 220.2 246.691 220.06 246.358 219.78C246.038 219.487 245.878 219.027 245.878 218.4C245.878 218.133 245.944 217.507 246.078 216.52L246.918 210.32H245.718L245.938 209.36L247.138 208.94C247.538 208.567 248.011 207.647 248.558 206.18H250.058L249.718 208.9H252.118L251.918 210.32H249.518L248.698 216.34ZM50.3637 235.8C50.2037 235.613 49.937 235.42 49.5637 235.22C49.2037 235.02 48.7837 234.92 48.3037 234.92C47.7703 234.92 47.337 235.04 47.0037 235.28C46.6837 235.507 46.5237 235.847 46.5237 236.3C46.5237 236.7 46.657 237.06 46.9237 237.38C47.2037 237.687 47.6503 238.06 48.2637 238.5C48.9437 239.007 49.4637 239.5 49.8237 239.98C50.1837 240.447 50.3637 241.047 50.3637 241.78C50.3637 242.513 50.1637 243.14 49.7637 243.66C49.3637 244.167 48.8303 244.553 48.1637 244.82C47.497 245.073 46.7637 245.2 45.9637 245.2C45.3637 245.2 44.7503 245.133 44.1237 245C43.497 244.853 43.0903 244.7 42.9037 244.54L43.3037 242.84C43.5837 243.08 43.9637 243.307 44.4437 243.52C44.9237 243.733 45.4237 243.84 45.9437 243.84C46.437 243.84 46.857 243.727 47.2037 243.5C47.5637 243.273 47.7437 242.92 47.7437 242.44C47.7437 242.027 47.5903 241.653 47.2837 241.32C46.977 240.987 46.517 240.607 45.9037 240.18C45.3437 239.793 44.8703 239.34 44.4837 238.82C44.1103 238.287 43.9237 237.647 43.9237 236.9C43.9237 236.26 44.1037 235.693 44.4637 235.2C44.837 234.707 45.3437 234.327 45.9837 234.06C46.637 233.78 47.3837 233.64 48.2237 233.64C48.717 233.64 49.217 233.68 49.7237 233.76C50.2303 233.84 50.5703 233.927 50.7437 234.02L50.3637 235.8ZM60.8188 242.96C60.8055 243.013 60.7988 243.093 60.7988 243.2C60.7988 243.547 60.9322 243.72 61.1988 243.72C61.4122 243.72 61.7122 243.56 62.0988 243.24L62.3788 243.86C62.2055 244.127 61.8922 244.42 61.4388 244.74C60.9988 245.047 60.4855 245.2 59.8988 245.2C59.4455 245.2 59.0855 245.1 58.8188 244.9C58.5522 244.7 58.4122 244.393 58.3988 243.98L58.4388 243.64C58.0655 244.08 57.6122 244.453 57.0788 244.76C56.5455 245.053 55.9588 245.2 55.3188 245.2C54.1988 245.2 53.3588 244.82 52.7988 244.06C52.2522 243.287 51.9788 242.28 51.9788 241.04C51.9788 239.813 52.2322 238.633 52.7388 237.5C53.2588 236.367 54.0122 235.44 54.9988 234.72C55.9855 234 57.1588 233.64 58.5188 233.64C58.8655 233.64 59.2388 233.68 59.6388 233.76C60.0522 233.84 60.4122 233.933 60.7188 234.04L62.0988 233.64L60.8188 242.96ZM59.2788 235.06C59.0255 234.94 58.6988 234.88 58.2988 234.88C57.4988 234.88 56.8322 235.187 56.2988 235.8C55.7655 236.4 55.3722 237.167 55.1188 238.1C54.8788 239.02 54.7588 239.953 54.7588 240.9C54.7588 241.78 54.8922 242.467 55.1588 242.96C55.4255 243.44 55.8188 243.68 56.3388 243.68C56.6722 243.68 57.0055 243.567 57.3388 243.34C57.6855 243.113 57.9922 242.847 58.2588 242.54L59.2788 235.06ZM67.0571 241.34C66.9638 242.113 66.9171 242.58 66.9171 242.74C66.9171 243.047 66.9771 243.267 67.0971 243.4C67.2171 243.52 67.4238 243.58 67.7171 243.58C67.9838 243.58 68.2838 243.52 68.6171 243.4C68.9638 243.267 69.2504 243.107 69.4771 242.92L69.6971 243.66C69.3504 244.047 68.8571 244.4 68.2171 244.72C67.5771 245.04 66.8571 245.2 66.0571 245.2C65.4971 245.2 65.0504 245.06 64.7171 244.78C64.3971 244.487 64.2371 244.027 64.2371 243.4C64.2371 243.133 64.3038 242.507 64.4371 241.52L65.2771 235.32H64.0771L64.2971 234.36L65.4971 233.94C65.8971 233.567 66.3704 232.647 66.9171 231.18H68.4171L68.0771 233.9H70.4771L70.2771 235.32H67.8771L67.0571 241.34ZM74.1665 243C74.1532 243.067 74.1465 243.147 74.1465 243.24C74.1465 243.56 74.2598 243.72 74.4865 243.72C74.6065 243.72 74.7398 243.68 74.8865 243.6C75.0332 243.52 75.2198 243.387 75.4465 243.2L75.7065 243.82C75.4798 244.127 75.1398 244.433 74.6865 244.74C74.2465 245.047 73.7065 245.2 73.0665 245.2C72.5465 245.2 72.1398 245.1 71.8465 244.9C71.5532 244.687 71.4065 244.4 71.4065 244.04L71.4265 243.84C71.5065 243.147 71.7798 241.133 72.2465 237.8L72.5665 235.48L71.3865 234.92L71.5265 234.14L74.9665 233.66L75.4465 233.88L74.1665 243ZM74.3865 231.74C74.0265 231.74 73.7132 231.607 73.4465 231.34C73.1932 231.06 73.0665 230.74 73.0665 230.38C73.0665 229.887 73.2265 229.473 73.5465 229.14C73.8798 228.807 74.2998 228.64 74.8065 228.64C75.2198 228.64 75.5465 228.773 75.7865 229.04C76.0265 229.293 76.1465 229.6 76.1465 229.96C76.1465 230.467 75.9932 230.893 75.6865 231.24C75.3798 231.573 74.9465 231.74 74.3865 231.74ZM84.1918 235.8C84.0318 235.613 83.7651 235.42 83.3918 235.22C83.0318 235.02 82.6118 234.92 82.1318 234.92C81.5985 234.92 81.1651 235.04 80.8318 235.28C80.5118 235.507 80.3518 235.847 80.3518 236.3C80.3518 236.7 80.4851 237.06 80.7518 237.38C81.0318 237.687 81.4785 238.06 82.0918 238.5C82.7718 239.007 83.2918 239.5 83.6518 239.98C84.0118 240.447 84.1918 241.047 84.1918 241.78C84.1918 242.513 83.9918 243.14 83.5918 243.66C83.1918 244.167 82.6585 244.553 81.9918 244.82C81.3251 245.073 80.5918 245.2 79.7918 245.2C79.1918 245.2 78.5785 245.133 77.9518 245C77.3251 244.853 76.9185 244.7 76.7318 244.54L77.1318 242.84C77.4118 243.08 77.7918 243.307 78.2718 243.52C78.7518 243.733 79.2518 243.84 79.7718 243.84C80.2651 243.84 80.6851 243.727 81.0318 243.5C81.3918 243.273 81.5718 242.92 81.5718 242.44C81.5718 242.027 81.4185 241.653 81.1118 241.32C80.8051 240.987 80.3451 240.607 79.7318 240.18C79.1718 239.793 78.6985 239.34 78.3118 238.82C77.9385 238.287 77.7518 237.647 77.7518 236.9C77.7518 236.26 77.9318 235.693 78.2918 235.2C78.6651 234.707 79.1718 234.327 79.8118 234.06C80.4651 233.78 81.2118 233.64 82.0518 233.64C82.5451 233.64 83.0451 233.68 83.5518 233.76C84.0585 233.84 84.3985 233.927 84.5718 234.02L84.1918 235.8ZM87.947 232.94C88.0803 232.14 88.3403 231.42 88.727 230.78C89.127 230.14 89.6336 229.633 90.247 229.26C90.8603 228.887 91.547 228.7 92.307 228.7C93.0136 228.7 93.5736 228.78 93.987 228.94L93.427 230.54C93.0403 230.247 92.5936 230.1 92.087 230.1C91.5936 230.1 91.2336 230.287 91.007 230.66C90.7936 231.033 90.6336 231.607 90.527 232.38L90.327 233.84H92.527L92.267 235.34H90.127L89.027 244.22C88.8136 245.86 88.327 247.233 87.567 248.34C86.8203 249.447 85.8203 250.007 84.567 250.02C84.2603 250.033 83.9403 250.02 83.607 249.98C83.2603 249.94 82.987 249.893 82.787 249.84L83.307 248.16C83.4803 248.24 83.7336 248.327 84.067 248.42C84.387 248.527 84.647 248.58 84.847 248.58C85.207 248.58 85.487 248.4 85.687 248.04C85.9003 247.693 86.0536 247.167 86.147 246.46L87.527 235.34H86.247L86.427 234.46L87.787 233.88L87.947 232.94ZM101.405 242.96C101.391 243.013 101.385 243.093 101.385 243.2C101.385 243.547 101.518 243.72 101.785 243.72C101.998 243.72 102.298 243.56 102.685 243.24L102.965 243.86C102.791 244.127 102.478 244.42 102.025 244.74C101.585 245.047 101.071 245.2 100.485 245.2C100.031 245.2 99.6714 245.1 99.4048 244.9C99.1381 244.7 98.9981 244.393 98.9848 243.98L99.0248 243.64C98.6514 244.08 98.1981 244.453 97.6648 244.76C97.1314 245.053 96.5448 245.2 95.9048 245.2C94.7848 245.2 93.9448 244.82 93.3848 244.06C92.8381 243.287 92.5648 242.28 92.5648 241.04C92.5648 239.813 92.8181 238.633 93.3248 237.5C93.8448 236.367 94.5981 235.44 95.5848 234.72C96.5714 234 97.7448 233.64 99.1048 233.64C99.4514 233.64 99.8248 233.68 100.225 233.76C100.638 233.84 100.998 233.933 101.305 234.04L102.685 233.64L101.405 242.96ZM99.8648 235.06C99.6114 234.94 99.2848 234.88 98.8848 234.88C98.0848 234.88 97.4181 235.187 96.8848 235.8C96.3514 236.4 95.9581 237.167 95.7048 238.1C95.4648 239.02 95.3448 239.953 95.3448 240.9C95.3448 241.78 95.4781 242.467 95.7448 242.96C96.0114 243.44 96.4048 243.68 96.9248 243.68C97.2581 243.68 97.5914 243.567 97.9248 243.34C98.2714 243.113 98.5781 242.847 98.8448 242.54L99.8648 235.06ZM107.643 243C107.63 243.067 107.623 243.147 107.623 243.24C107.623 243.56 107.736 243.72 107.963 243.72C108.083 243.72 108.216 243.68 108.363 243.6C108.51 243.52 108.696 243.387 108.923 243.2L109.183 243.82C108.956 244.127 108.616 244.433 108.163 244.74C107.723 245.047 107.183 245.2 106.543 245.2C106.023 245.2 105.616 245.1 105.323 244.9C105.03 244.687 104.883 244.4 104.883 244.04L104.903 243.84C104.983 243.147 105.256 241.133 105.723 237.8L106.043 235.48L104.863 234.92L105.003 234.14L108.443 233.66L108.923 233.88L107.643 243ZM107.863 231.74C107.503 231.74 107.19 231.607 106.923 231.34C106.67 231.06 106.543 230.74 106.543 230.38C106.543 229.887 106.703 229.473 107.023 229.14C107.356 228.807 107.776 228.64 108.283 228.64C108.696 228.64 109.023 228.773 109.263 229.04C109.503 229.293 109.623 229.6 109.623 229.96C109.623 230.467 109.47 230.893 109.163 231.24C108.856 231.573 108.423 231.74 107.863 231.74ZM114.088 241.34C113.995 242.113 113.948 242.58 113.948 242.74C113.948 243.047 114.008 243.267 114.128 243.4C114.248 243.52 114.455 243.58 114.748 243.58C115.015 243.58 115.315 243.52 115.648 243.4C115.995 243.267 116.282 243.107 116.508 242.92L116.728 243.66C116.382 244.047 115.888 244.4 115.248 244.72C114.608 245.04 113.888 245.2 113.088 245.2C112.528 245.2 112.082 245.06 111.748 244.78C111.428 244.487 111.268 244.027 111.268 243.4C111.268 243.133 111.335 242.507 111.468 241.52L112.308 235.32H111.108L111.328 234.36L112.528 233.94C112.928 233.567 113.402 232.647 113.948 231.18H115.448L115.108 233.9H117.508L117.308 235.32H114.908L114.088 241.34ZM126.418 243C126.071 243.547 125.504 244.06 124.718 244.54C123.944 245.02 123.044 245.26 122.018 245.26C121.058 245.26 120.264 245.053 119.638 244.64C119.024 244.227 118.578 243.687 118.298 243.02C118.018 242.353 117.878 241.627 117.878 240.84C117.878 239.507 118.144 238.293 118.678 237.2C119.224 236.093 119.964 235.22 120.898 234.58C121.831 233.94 122.871 233.62 124.018 233.62C125.044 233.62 125.804 233.86 126.298 234.34C126.804 234.807 127.058 235.42 127.058 236.18C127.058 237.14 126.711 237.94 126.018 238.58C125.324 239.22 124.491 239.7 123.518 240.02C122.544 240.327 121.624 240.493 120.758 240.52C120.731 241.48 120.884 242.253 121.218 242.84C121.564 243.427 122.084 243.72 122.778 243.72C123.924 243.72 124.964 243.187 125.898 242.12L126.418 243ZM123.418 234.86C122.631 234.86 122.011 235.333 121.558 236.28C121.104 237.227 120.838 238.28 120.758 239.44C121.278 239.413 121.824 239.273 122.398 239.02C122.984 238.767 123.471 238.413 123.858 237.96C124.258 237.493 124.458 236.96 124.458 236.36C124.458 235.88 124.364 235.513 124.178 235.26C124.004 234.993 123.751 234.86 123.418 234.86ZM135.227 235.8C135.067 235.613 134.8 235.42 134.427 235.22C134.067 235.02 133.647 234.92 133.167 234.92C132.634 234.92 132.2 235.04 131.867 235.28C131.547 235.507 131.387 235.847 131.387 236.3C131.387 236.7 131.52 237.06 131.787 237.38C132.067 237.687 132.514 238.06 133.127 238.5C133.807 239.007 134.327 239.5 134.687 239.98C135.047 240.447 135.227 241.047 135.227 241.78C135.227 242.513 135.027 243.14 134.627 243.66C134.227 244.167 133.694 244.553 133.027 244.82C132.36 245.073 131.627 245.2 130.827 245.2C130.227 245.2 129.614 245.133 128.987 245C128.36 244.853 127.954 244.7 127.767 244.54L128.167 242.84C128.447 243.08 128.827 243.307 129.307 243.52C129.787 243.733 130.287 243.84 130.807 243.84C131.3 243.84 131.72 243.727 132.067 243.5C132.427 243.273 132.607 242.92 132.607 242.44C132.607 242.027 132.454 241.653 132.147 241.32C131.84 240.987 131.38 240.607 130.767 240.18C130.207 239.793 129.734 239.34 129.347 238.82C128.974 238.287 128.787 237.647 128.787 236.9C128.787 236.26 128.967 235.693 129.327 235.2C129.7 234.707 130.207 234.327 130.847 234.06C131.5 233.78 132.247 233.64 133.087 233.64C133.58 233.64 134.08 233.68 134.587 233.76C135.094 233.84 135.434 233.927 135.607 234.02L135.227 235.8ZM150.608 242.98C150.595 243.033 150.588 243.113 150.588 243.22C150.588 243.553 150.702 243.72 150.928 243.72C151.155 243.72 151.455 243.567 151.828 243.26L152.108 243.88C151.362 244.76 150.535 245.2 149.628 245.2C149.162 245.2 148.808 245.087 148.568 244.86C148.328 244.633 148.188 244.287 148.148 243.82V243.52C147.815 243.987 147.368 244.387 146.808 244.72C146.248 245.04 145.608 245.2 144.888 245.2C143.768 245.2 142.935 244.82 142.388 244.06C141.842 243.287 141.568 242.28 141.568 241.04C141.568 239.8 141.815 238.613 142.308 237.48C142.802 236.347 143.535 235.427 144.508 234.72C145.495 234 146.682 233.64 148.068 233.64C148.455 233.64 148.862 233.693 149.288 233.8L149.788 230.42L148.348 230.02L148.528 229.28L152.128 228.88L152.628 229.14L150.608 242.98ZM149.088 235.16C148.755 234.973 148.335 234.88 147.828 234.88C147.015 234.88 146.348 235.193 145.828 235.82C145.308 236.433 144.928 237.2 144.688 238.12C144.448 239.04 144.328 239.973 144.328 240.92C144.328 241.8 144.462 242.48 144.728 242.96C145.008 243.44 145.402 243.68 145.908 243.68C146.322 243.68 146.715 243.553 147.088 243.3C147.462 243.033 147.768 242.72 148.008 242.36L149.088 235.16ZM162.14 243C161.794 243.547 161.227 244.06 160.44 244.54C159.667 245.02 158.767 245.26 157.74 245.26C156.78 245.26 155.987 245.053 155.36 244.64C154.747 244.227 154.3 243.687 154.02 243.02C153.74 242.353 153.6 241.627 153.6 240.84C153.6 239.507 153.867 238.293 154.4 237.2C154.947 236.093 155.687 235.22 156.62 234.58C157.554 233.94 158.594 233.62 159.74 233.62C160.767 233.62 161.527 233.86 162.02 234.34C162.527 234.807 162.78 235.42 162.78 236.18C162.78 237.14 162.434 237.94 161.74 238.58C161.047 239.22 160.214 239.7 159.24 240.02C158.267 240.327 157.347 240.493 156.48 240.52C156.454 241.48 156.607 242.253 156.94 242.84C157.287 243.427 157.807 243.72 158.5 243.72C159.647 243.72 160.687 243.187 161.62 242.12L162.14 243ZM159.14 234.86C158.354 234.86 157.734 235.333 157.28 236.28C156.827 237.227 156.56 238.28 156.48 239.44C157 239.413 157.547 239.273 158.12 239.02C158.707 238.767 159.194 238.413 159.58 237.96C159.98 237.493 160.18 236.96 160.18 236.36C160.18 235.88 160.087 235.513 159.9 235.26C159.727 234.993 159.474 234.86 159.14 234.86ZM171.856 243C171.842 243.053 171.836 243.127 171.836 243.22C171.836 243.553 171.956 243.72 172.196 243.72C172.316 243.72 172.442 243.687 172.576 243.62C172.722 243.553 172.916 243.413 173.156 243.2L173.416 243.82C173.202 244.127 172.889 244.433 172.476 244.74C172.062 245.047 171.529 245.2 170.876 245.2C170.369 245.2 169.956 245.1 169.636 244.9C169.316 244.687 169.149 244.36 169.136 243.92C169.136 243.867 169.162 243.627 169.216 243.2L170.956 230.42L169.696 230.02L169.876 229.28L173.276 228.88L173.736 229.14L171.856 243ZM183.429 243C183.083 243.547 182.516 244.06 181.729 244.54C180.956 245.02 180.056 245.26 179.029 245.26C178.069 245.26 177.276 245.053 176.649 244.64C176.036 244.227 175.589 243.687 175.309 243.02C175.029 242.353 174.889 241.627 174.889 240.84C174.889 239.507 175.156 238.293 175.689 237.2C176.236 236.093 176.976 235.22 177.909 234.58C178.843 233.94 179.883 233.62 181.029 233.62C182.056 233.62 182.816 233.86 183.309 234.34C183.816 234.807 184.069 235.42 184.069 236.18C184.069 237.14 183.723 237.94 183.029 238.58C182.336 239.22 181.503 239.7 180.529 240.02C179.556 240.327 178.636 240.493 177.769 240.52C177.743 241.48 177.896 242.253 178.229 242.84C178.576 243.427 179.096 243.72 179.789 243.72C180.936 243.72 181.976 243.187 182.909 242.12L183.429 243ZM180.429 234.86C179.643 234.86 179.023 235.333 178.569 236.28C178.116 237.227 177.849 238.28 177.769 239.44C178.289 239.413 178.836 239.273 179.409 239.02C179.996 238.767 180.483 238.413 180.869 237.96C181.269 237.493 181.469 236.96 181.469 236.36C181.469 235.88 181.376 235.513 181.189 235.26C181.016 234.993 180.763 234.86 180.429 234.86ZM188.959 239.22C188.905 239.713 188.859 240.06 188.819 240.26C188.685 241.3 188.619 241.967 188.619 242.26C188.619 242.793 188.712 243.173 188.899 243.4C189.085 243.627 189.365 243.74 189.739 243.74C190.165 243.74 190.585 243.607 190.999 243.34C191.425 243.073 191.785 242.753 192.079 242.38L193.239 233.74H195.879L194.599 243C194.572 243.24 194.592 243.42 194.659 243.54C194.725 243.66 194.825 243.72 194.959 243.72C195.079 243.72 195.205 243.687 195.339 243.62C195.472 243.54 195.659 243.4 195.899 243.2L196.179 243.82C196.005 244.1 195.685 244.4 195.219 244.72C194.752 245.04 194.219 245.2 193.619 245.2C193.152 245.2 192.792 245.1 192.539 244.9C192.299 244.7 192.165 244.427 192.139 244.08L192.119 243.84C192.119 243.733 192.132 243.6 192.159 243.44L192.119 243.42C191.132 244.607 189.972 245.2 188.639 245.2C187.892 245.2 187.259 245 186.739 244.6C186.219 244.187 185.952 243.533 185.939 242.64C185.939 242.12 186.032 241.18 186.219 239.82C186.272 239.487 186.305 239.26 186.319 239.14L186.859 235.5L185.699 234.82L185.859 234L189.179 233.66L189.639 233.88L188.959 239.22ZM201.346 236.52C201.6 235.76 202.033 235.093 202.646 234.52C203.273 233.933 203.973 233.64 204.746 233.64C205.013 233.64 205.24 233.7 205.426 233.82L204.846 236.7C204.766 236.633 204.633 236.573 204.446 236.52C204.273 236.453 204.06 236.42 203.806 236.42C203.326 236.42 202.866 236.527 202.426 236.74C201.986 236.94 201.646 237.233 201.406 237.62L200.426 245H197.826L199.086 235.5L198.066 234.94L198.206 234.14L201.066 233.66L201.526 233.94L201.426 235.76L201.346 236.52ZM211.214 235.78C211.147 235.42 211.001 235.227 210.774 235.2C210.627 235.2 210.501 235.233 210.394 235.3C210.287 235.367 210.227 235.407 210.214 235.42L209.934 234.74C210.094 234.54 210.387 234.307 210.814 234.04C211.241 233.773 211.714 233.64 212.234 233.64C212.754 233.64 213.141 233.753 213.394 233.98C213.647 234.207 213.807 234.54 213.874 234.98L214.734 240.88L215.014 243L215.834 241.86C216.434 240.953 216.881 240.107 217.174 239.32C217.481 238.52 217.661 237.673 217.714 236.78C217.727 236.527 217.681 236.187 217.574 235.76C217.481 235.413 217.434 235.12 217.434 234.88C217.434 234.52 217.547 234.227 217.774 234C218.001 233.76 218.307 233.64 218.694 233.64C219.214 233.64 219.594 233.84 219.834 234.24C220.087 234.627 220.214 235.12 220.214 235.72C220.214 237.373 218.921 239.84 216.334 243.12L214.814 245.06L213.054 245.2L212.334 241.54L211.214 235.78ZM224.362 243C224.348 243.067 224.342 243.147 224.342 243.24C224.342 243.56 224.455 243.72 224.682 243.72C224.802 243.72 224.935 243.68 225.082 243.6C225.228 243.52 225.415 243.387 225.642 243.2L225.902 243.82C225.675 244.127 225.335 244.433 224.882 244.74C224.442 245.047 223.902 245.2 223.262 245.2C222.742 245.2 222.335 245.1 222.042 244.9C221.748 244.687 221.602 244.4 221.602 244.04L221.622 243.84C221.702 243.147 221.975 241.133 222.442 237.8L222.762 235.48L221.582 234.92L221.722 234.14L225.162 233.66L225.642 233.88L224.362 243ZM224.582 231.74C224.222 231.74 223.908 231.607 223.642 231.34C223.388 231.06 223.262 230.74 223.262 230.38C223.262 229.887 223.422 229.473 223.742 229.14C224.075 228.807 224.495 228.64 225.002 228.64C225.415 228.64 225.742 228.773 225.982 229.04C226.222 229.293 226.342 229.6 226.342 229.96C226.342 230.467 226.188 230.893 225.882 231.24C225.575 231.573 225.142 231.74 224.582 231.74ZM236.027 243C235.68 243.547 235.114 244.06 234.327 244.54C233.554 245.02 232.654 245.26 231.627 245.26C230.667 245.26 229.874 245.053 229.247 244.64C228.634 244.227 228.187 243.687 227.907 243.02C227.627 242.353 227.487 241.627 227.487 240.84C227.487 239.507 227.754 238.293 228.287 237.2C228.834 236.093 229.574 235.22 230.507 234.58C231.44 233.94 232.48 233.62 233.627 233.62C234.654 233.62 235.414 233.86 235.907 234.34C236.414 234.807 236.667 235.42 236.667 236.18C236.667 237.14 236.32 237.94 235.627 238.58C234.934 239.22 234.1 239.7 233.127 240.02C232.154 240.327 231.234 240.493 230.367 240.52C230.34 241.48 230.494 242.253 230.827 242.84C231.174 243.427 231.694 243.72 232.387 243.72C233.534 243.72 234.574 243.187 235.507 242.12L236.027 243ZM233.027 234.86C232.24 234.86 231.62 235.333 231.167 236.28C230.714 237.227 230.447 238.28 230.367 239.44C230.887 239.413 231.434 239.273 232.007 239.02C232.594 238.767 233.08 238.413 233.467 237.96C233.867 237.493 234.067 236.96 234.067 236.36C234.067 235.88 233.974 235.513 233.787 235.26C233.614 234.993 233.36 234.86 233.027 234.86ZM100.476 257.94C100.61 257.14 100.87 256.42 101.256 255.78C101.656 255.14 102.163 254.633 102.776 254.26C103.39 253.887 104.076 253.7 104.836 253.7C105.543 253.7 106.103 253.78 106.516 253.94L105.956 255.54C105.57 255.247 105.123 255.1 104.616 255.1C104.123 255.1 103.763 255.287 103.536 255.66C103.323 256.033 103.163 256.607 103.056 257.38L102.856 258.84H105.056L104.796 260.34H102.656L101.556 269.22C101.343 270.86 100.856 272.233 100.096 273.34C99.3496 274.447 98.3496 275.007 97.0962 275.02C96.7896 275.033 96.4696 275.02 96.1362 274.98C95.7896 274.94 95.5162 274.893 95.3162 274.84L95.8362 273.16C96.0096 273.24 96.2629 273.327 96.5962 273.42C96.9162 273.527 97.1762 273.58 97.3762 273.58C97.7363 273.58 98.0163 273.4 98.2163 273.04C98.4296 272.693 98.5829 272.167 98.6763 271.46L100.056 260.34H98.7763L98.9563 259.46L100.316 258.88L100.476 257.94ZM113.934 267.96C113.921 268.013 113.914 268.093 113.914 268.2C113.914 268.547 114.047 268.72 114.314 268.72C114.527 268.72 114.827 268.56 115.214 268.24L115.494 268.86C115.321 269.127 115.007 269.42 114.554 269.74C114.114 270.047 113.601 270.2 113.014 270.2C112.561 270.2 112.201 270.1 111.934 269.9C111.667 269.7 111.527 269.393 111.514 268.98L111.554 268.64C111.181 269.08 110.727 269.453 110.194 269.76C109.661 270.053 109.074 270.2 108.434 270.2C107.314 270.2 106.474 269.82 105.914 269.06C105.367 268.287 105.094 267.28 105.094 266.04C105.094 264.813 105.347 263.633 105.854 262.5C106.374 261.367 107.127 260.44 108.114 259.72C109.101 259 110.274 258.64 111.634 258.64C111.981 258.64 112.354 258.68 112.754 258.76C113.167 258.84 113.527 258.933 113.834 259.04L115.214 258.64L113.934 267.96ZM112.394 260.06C112.141 259.94 111.814 259.88 111.414 259.88C110.614 259.88 109.947 260.187 109.414 260.8C108.881 261.4 108.487 262.167 108.234 263.1C107.994 264.02 107.874 264.953 107.874 265.9C107.874 266.78 108.007 267.467 108.274 267.96C108.541 268.44 108.934 268.68 109.454 268.68C109.787 268.68 110.121 268.567 110.454 268.34C110.801 268.113 111.107 267.847 111.374 267.54L112.394 260.06ZM120.932 261.08C121.412 260.36 121.986 259.773 122.652 259.32C123.319 258.867 124.019 258.64 124.752 258.64C125.499 258.64 126.079 258.84 126.492 259.24C126.919 259.627 127.166 260.253 127.232 261.12C127.699 260.347 128.266 259.74 128.932 259.3C129.612 258.86 130.346 258.64 131.132 258.64C132.799 258.64 133.632 259.62 133.632 261.58C133.632 262.007 133.499 262.993 133.232 264.54L133.152 265.06L133.052 265.58C132.826 266.82 132.706 267.673 132.692 268.14C132.692 268.527 132.806 268.72 133.032 268.72C133.152 268.72 133.279 268.687 133.412 268.62C133.559 268.54 133.752 268.4 133.992 268.2L134.252 268.82C134.066 269.1 133.739 269.4 133.272 269.72C132.806 270.04 132.246 270.2 131.592 270.2C130.966 270.2 130.532 270.073 130.292 269.82C130.052 269.567 129.932 269.227 129.932 268.8C129.932 268.533 129.972 268.147 130.052 267.64C130.132 267.12 130.219 266.6 130.312 266.08L130.392 265.62C130.552 264.713 130.666 264 130.732 263.48C130.812 262.96 130.852 262.453 130.852 261.96C130.852 261.347 130.779 260.927 130.632 260.7C130.499 260.473 130.259 260.36 129.912 260.36C129.486 260.36 129.019 260.567 128.512 260.98C128.019 261.393 127.592 261.92 127.232 262.56C127.179 263.347 127.092 264.18 126.972 265.06L126.352 270H123.652L124.232 265.64C124.472 263.987 124.592 262.733 124.592 261.88C124.579 261.267 124.492 260.86 124.332 260.66C124.186 260.46 123.919 260.36 123.532 260.36C123.106 260.36 122.619 260.593 122.072 261.06C121.539 261.527 121.092 262.087 120.732 262.74L119.732 270H117.132L118.412 260.48L117.392 259.94L117.552 259.12L120.672 258.64L121.132 258.86L120.932 261.08ZM139.098 268C139.085 268.067 139.078 268.147 139.078 268.24C139.078 268.56 139.191 268.72 139.418 268.72C139.538 268.72 139.671 268.68 139.818 268.6C139.965 268.52 140.151 268.387 140.378 268.2L140.638 268.82C140.411 269.127 140.071 269.433 139.618 269.74C139.178 270.047 138.638 270.2 137.998 270.2C137.478 270.2 137.071 270.1 136.778 269.9C136.485 269.687 136.338 269.4 136.338 269.04L136.358 268.84C136.438 268.147 136.711 266.133 137.178 262.8L137.498 260.48L136.318 259.92L136.458 259.14L139.898 258.66L140.378 258.88L139.098 268ZM139.318 256.74C138.958 256.74 138.645 256.607 138.378 256.34C138.125 256.06 137.998 255.74 137.998 255.38C137.998 254.887 138.158 254.473 138.478 254.14C138.811 253.807 139.231 253.64 139.738 253.64C140.151 253.64 140.478 253.773 140.718 254.04C140.958 254.293 141.078 254.6 141.078 254.96C141.078 255.467 140.925 255.893 140.618 256.24C140.311 256.573 139.878 256.74 139.318 256.74ZM145.283 268C145.27 268.053 145.263 268.127 145.263 268.22C145.263 268.553 145.383 268.72 145.623 268.72C145.743 268.72 145.87 268.687 146.003 268.62C146.15 268.553 146.343 268.413 146.583 268.2L146.843 268.82C146.63 269.127 146.317 269.433 145.903 269.74C145.49 270.047 144.957 270.2 144.303 270.2C143.797 270.2 143.383 270.1 143.063 269.9C142.743 269.687 142.577 269.36 142.563 268.92C142.563 268.867 142.59 268.627 142.643 268.2L144.383 255.42L143.123 255.02L143.303 254.28L146.703 253.88L147.163 254.14L145.283 268ZM151.637 268C151.624 268.067 151.617 268.147 151.617 268.24C151.617 268.56 151.731 268.72 151.957 268.72C152.077 268.72 152.211 268.68 152.357 268.6C152.504 268.52 152.691 268.387 152.917 268.2L153.177 268.82C152.951 269.127 152.611 269.433 152.157 269.74C151.717 270.047 151.177 270.2 150.537 270.2C150.017 270.2 149.611 270.1 149.317 269.9C149.024 269.687 148.877 269.4 148.877 269.04L148.897 268.84C148.977 268.147 149.251 266.133 149.717 262.8L150.037 260.48L148.857 259.92L148.997 259.14L152.437 258.66L152.917 258.88L151.637 268ZM151.857 256.74C151.497 256.74 151.184 256.607 150.917 256.34C150.664 256.06 150.537 255.74 150.537 255.38C150.537 254.887 150.697 254.473 151.017 254.14C151.351 253.807 151.771 253.64 152.277 253.64C152.691 253.64 153.017 253.773 153.257 254.04C153.497 254.293 153.617 254.6 153.617 254.96C153.617 255.467 153.464 255.893 153.157 256.24C152.851 256.573 152.417 256.74 151.857 256.74ZM163.583 267.96C163.569 268.013 163.563 268.093 163.563 268.2C163.563 268.547 163.696 268.72 163.963 268.72C164.176 268.72 164.476 268.56 164.863 268.24L165.143 268.86C164.969 269.127 164.656 269.42 164.203 269.74C163.763 270.047 163.249 270.2 162.663 270.2C162.209 270.2 161.849 270.1 161.583 269.9C161.316 269.7 161.176 269.393 161.163 268.98L161.203 268.64C160.829 269.08 160.376 269.453 159.843 269.76C159.309 270.053 158.723 270.2 158.083 270.2C156.963 270.2 156.123 269.82 155.563 269.06C155.016 268.287 154.743 267.28 154.743 266.04C154.743 264.813 154.996 263.633 155.503 262.5C156.023 261.367 156.776 260.44 157.763 259.72C158.749 259 159.923 258.64 161.283 258.64C161.629 258.64 162.003 258.68 162.403 258.76C162.816 258.84 163.176 258.933 163.483 259.04L164.863 258.64L163.583 267.96ZM162.043 260.06C161.789 259.94 161.463 259.88 161.063 259.88C160.263 259.88 159.596 260.187 159.062 260.8C158.529 261.4 158.136 262.167 157.883 263.1C157.643 264.02 157.523 264.953 157.523 265.9C157.523 266.78 157.656 267.467 157.923 267.96C158.189 268.44 158.583 268.68 159.103 268.68C159.436 268.68 159.769 268.567 160.103 268.34C160.449 268.113 160.756 267.847 161.023 267.54L162.043 260.06ZM169.561 268C169.547 268.053 169.541 268.127 169.541 268.22C169.541 268.553 169.661 268.72 169.901 268.72C170.021 268.72 170.147 268.687 170.281 268.62C170.427 268.553 170.621 268.413 170.861 268.2L171.121 268.82C170.907 269.127 170.594 269.433 170.181 269.74C169.767 270.047 169.234 270.2 168.581 270.2C168.074 270.2 167.661 270.1 167.341 269.9C167.021 269.687 166.854 269.36 166.841 268.92C166.841 268.867 166.867 268.627 166.921 268.2L168.661 255.42L167.401 255.02L167.581 254.28L170.981 253.88L171.441 254.14L169.561 268ZM181.135 268C180.788 268.547 180.221 269.06 179.435 269.54C178.661 270.02 177.761 270.26 176.735 270.26C175.775 270.26 174.981 270.053 174.355 269.64C173.741 269.227 173.295 268.687 173.015 268.02C172.735 267.353 172.595 266.627 172.595 265.84C172.595 264.507 172.861 263.293 173.395 262.2C173.941 261.093 174.681 260.22 175.615 259.58C176.548 258.94 177.588 258.62 178.735 258.62C179.761 258.62 180.521 258.86 181.015 259.34C181.521 259.807 181.775 260.42 181.775 261.18C181.775 262.14 181.428 262.94 180.735 263.58C180.041 264.22 179.208 264.7 178.235 265.02C177.261 265.327 176.341 265.493 175.475 265.52C175.448 266.48 175.601 267.253 175.935 267.84C176.281 268.427 176.801 268.72 177.495 268.72C178.641 268.72 179.681 268.187 180.615 267.12L181.135 268ZM178.135 259.86C177.348 259.86 176.728 260.333 176.275 261.28C175.821 262.227 175.555 263.28 175.475 264.44C175.995 264.413 176.541 264.273 177.115 264.02C177.701 263.767 178.188 263.413 178.575 262.96C178.975 262.493 179.175 261.96 179.175 261.36C179.175 260.88 179.081 260.513 178.895 260.26C178.721 259.993 178.468 259.86 178.135 259.86Z" fill="#394454"/>
<path d="M115.248 94L124.955 74.7784V74.6335H113.558V69.2727H131.91V74.6335L122.154 94H115.248ZM144.485 94.3381C142.489 94.3381 140.706 94.0282 139.136 93.4084C137.575 92.7886 136.343 91.9474 135.441 90.8849C134.548 89.8224 134.101 88.6231 134.101 87.2869C134.101 86.2647 134.355 85.331 134.862 84.4858C135.377 83.6406 136.069 82.9403 136.939 82.3849C137.808 81.8215 138.778 81.4593 139.848 81.2983V81.1051C138.44 80.8636 137.281 80.2398 136.371 79.2337C135.47 78.2195 135.019 77.0241 135.019 75.6477C135.019 74.3518 135.429 73.2008 136.25 72.1946C137.071 71.1804 138.194 70.3835 139.619 69.804C141.044 69.2244 142.666 68.9347 144.485 68.9347C146.304 68.9347 147.926 69.2285 149.351 69.8161C150.775 70.3956 151.898 71.1925 152.719 72.2067C153.54 73.2128 153.951 74.3598 153.951 75.6477C153.951 77.0322 153.492 78.2275 152.574 79.2337C151.657 80.2398 150.506 80.8636 149.121 81.1051V81.2983C150.184 81.4593 151.15 81.8215 152.019 82.3849C152.888 82.9403 153.58 83.6406 154.096 84.4858C154.611 85.331 154.868 86.2647 154.868 87.2869C154.868 88.6231 154.418 89.8224 153.516 90.8849C152.623 91.9474 151.391 92.7886 149.821 93.4084C148.26 94.0282 146.481 94.3381 144.485 94.3381ZM144.485 89.7017C145.121 89.7017 145.684 89.5729 146.175 89.3153C146.666 89.0578 147.053 88.7036 147.334 88.2528C147.624 87.794 147.769 87.2789 147.769 86.7074C147.769 86.1359 147.624 85.6288 147.334 85.1861C147.053 84.7434 146.666 84.3973 146.175 84.1477C145.684 83.8902 145.121 83.7614 144.485 83.7614C143.857 83.7614 143.294 83.8902 142.794 84.1477C142.303 84.3973 141.913 84.7434 141.623 85.1861C141.342 85.6288 141.201 86.1359 141.201 86.7074C141.201 87.2789 141.342 87.79 141.623 88.2408C141.913 88.6915 142.303 89.0497 142.794 89.3153C143.294 89.5729 143.857 89.7017 144.485 89.7017ZM144.485 79.125C145.048 79.125 145.547 79.0083 145.982 78.7749C146.417 78.5414 146.759 78.2195 147.008 77.8089C147.258 77.3984 147.383 76.9356 147.383 76.4205C147.383 75.9053 147.258 75.4505 147.008 75.0561C146.759 74.6536 146.417 74.3397 145.982 74.1143C145.547 73.8809 145.048 73.7642 144.485 73.7642C143.929 73.7642 143.43 73.8809 142.988 74.1143C142.553 74.3397 142.211 74.6536 141.961 75.0561C141.712 75.4505 141.587 75.9053 141.587 76.4205C141.587 76.9356 141.712 77.3984 141.961 77.8089C142.211 78.2114 142.553 78.5334 142.988 78.7749C143.43 79.0083 143.929 79.125 144.485 79.125ZM172.016 89.3636V88.0597C172.016 87.0133 172.242 86.0473 172.692 85.1619C173.151 84.2765 173.815 83.5642 174.685 83.0249C175.554 82.4856 176.612 82.2159 177.86 82.2159C179.14 82.2159 180.214 82.4815 181.084 83.0128C181.961 83.544 182.625 84.2524 183.076 85.1378C183.527 86.0232 183.752 86.9972 183.752 88.0597V89.3636C183.752 90.41 183.523 91.3759 183.064 92.2614C182.613 93.1468 181.949 93.8591 181.072 94.3984C180.194 94.9377 179.124 95.2074 177.86 95.2074C176.596 95.2074 175.53 94.9377 174.66 94.3984C173.791 93.8591 173.131 93.1468 172.68 92.2614C172.238 91.3759 172.016 90.41 172.016 89.3636ZM176.218 88.0597V89.3636C176.218 89.8224 176.331 90.2772 176.556 90.728C176.789 91.1707 177.224 91.392 177.86 91.392C178.528 91.392 178.967 91.1747 179.176 90.7401C179.393 90.3054 179.502 89.8466 179.502 89.3636V88.0597C179.502 87.5767 179.401 87.1098 179.2 86.6591C178.999 86.2083 178.552 85.983 177.86 85.983C177.224 85.983 176.789 86.2083 176.556 86.6591C176.331 87.1098 176.218 87.5767 176.218 88.0597ZM159.073 75.2131V73.9091C159.073 72.8466 159.302 71.8726 159.761 70.9872C160.228 70.1018 160.896 69.3935 161.766 68.8622C162.635 68.331 163.685 68.0653 164.917 68.0653C166.197 68.0653 167.271 68.331 168.141 68.8622C169.018 69.3935 169.682 70.1018 170.133 70.9872C170.583 71.8726 170.809 72.8466 170.809 73.9091V75.2131C170.809 76.2756 170.579 77.2455 170.121 78.1229C169.67 79.0002 169.006 79.7005 168.128 80.2237C167.251 80.7469 166.181 81.0085 164.917 81.0085C163.653 81.0085 162.587 80.7429 161.717 80.2116C160.848 79.6804 160.188 78.9761 159.737 78.0987C159.294 77.2214 159.073 76.2595 159.073 75.2131ZM163.323 73.9091V75.2131C163.323 75.696 163.436 76.1548 163.661 76.5895C163.887 77.0241 164.305 77.2415 164.917 77.2415C165.585 77.2415 166.024 77.0241 166.233 76.5895C166.45 76.1548 166.559 75.696 166.559 75.2131V73.9091C166.559 73.4261 166.458 72.9593 166.257 72.5085C166.056 72.0578 165.609 71.8324 164.917 71.8324C164.281 71.8324 163.854 72.0658 163.637 72.5327C163.428 72.9915 163.323 73.4503 163.323 73.9091ZM161.126 94L178.126 69.2727H181.555L164.555 94H161.126Z" fill="#F04E5A"/>
<path d="M141 7C156.436 7 171.496 11.7629 184.125 20.6388C196.754 29.5146 206.337 42.0711 211.566 56.5947C216.795 71.1182 217.415 86.9014 213.342 101.79C209.269 116.68 200.701 129.949 188.807 139.788C176.913 149.628 162.273 155.558 146.884 156.769C131.496 157.98 116.108 154.413 102.822 146.556C89.5354 138.698 78.9969 126.932 72.6448 112.864C66.2926 98.795 64.436 83.1091 67.3285 67.9464L78.556 70.0882C76.1044 82.9401 77.678 96.2355 83.0621 108.16C88.4462 120.084 97.3786 130.057 108.64 136.717C119.902 143.378 132.944 146.401 145.988 145.374C159.031 144.348 171.44 139.321 181.521 130.982C191.602 122.642 198.864 111.394 202.317 98.7744C205.769 86.1545 205.244 72.7766 200.812 60.4664C196.38 48.1563 188.257 37.5134 177.553 29.9902C166.849 22.467 154.084 18.43 141 18.43L141 7Z" fill="#F04E5A"/>
</svg>
