<svg width="323" height="275" viewBox="0 0 323 275" fill="none" xmlns="http://www.w3.org/2000/svg">
<circle cx="162" cy="82" r="82" fill="#E9E9E9"/>
<path d="M17.6551 217.98C17.6417 218.033 17.6351 218.113 17.6351 218.22C17.6351 218.553 17.7484 218.72 17.9751 218.72C18.2017 218.72 18.5017 218.567 18.8751 218.26L19.1551 218.88C18.4084 219.76 17.5817 220.2 16.6751 220.2C16.2084 220.2 15.8551 220.087 15.6151 219.86C15.3751 219.633 15.2351 219.287 15.1951 218.82V218.52C14.8617 218.987 14.4151 219.387 13.8551 219.72C13.2951 220.04 12.6551 220.2 11.9351 220.2C10.8151 220.2 9.98174 219.82 9.43508 219.06C8.88841 218.287 8.61508 217.28 8.61508 216.04C8.61508 214.8 8.86174 213.613 9.35508 212.48C9.84841 211.347 10.5817 210.427 11.5551 209.72C12.5417 209 13.7284 208.64 15.1151 208.64C15.5017 208.64 15.9084 208.693 16.3351 208.8L16.8351 205.42L15.3951 205.02L15.5751 204.28L19.1751 203.88L19.6751 204.14L17.6551 217.98ZM16.1351 210.16C15.8017 209.973 15.3817 209.88 14.8751 209.88C14.0617 209.88 13.3951 210.193 12.8751 210.82C12.3551 211.433 11.9751 212.2 11.7351 213.12C11.4951 214.04 11.3751 214.973 11.3751 215.92C11.3751 216.8 11.5084 217.48 11.7751 217.96C12.0551 218.44 12.4484 218.68 12.9551 218.68C13.3684 218.68 13.7617 218.553 14.1351 218.3C14.5084 218.033 14.8151 217.72 15.0551 217.36L16.1351 210.16ZM29.1873 218C28.8406 218.547 28.2739 219.06 27.4873 219.54C26.7139 220.02 25.8139 220.26 24.7873 220.26C23.8273 220.26 23.0339 220.053 22.4073 219.64C21.7939 219.227 21.3473 218.687 21.0673 218.02C20.7873 217.353 20.6473 216.627 20.6473 215.84C20.6473 214.507 20.9139 213.293 21.4473 212.2C21.9939 211.093 22.7339 210.22 23.6673 209.58C24.6006 208.94 25.6406 208.62 26.7873 208.62C27.8139 208.62 28.5739 208.86 29.0673 209.34C29.5739 209.807 29.8273 210.42 29.8273 211.18C29.8273 212.14 29.4806 212.94 28.7873 213.58C28.0939 214.22 27.2606 214.7 26.2873 215.02C25.3139 215.327 24.3939 215.493 23.5273 215.52C23.5006 216.48 23.6539 217.253 23.9873 217.84C24.3339 218.427 24.8539 218.72 25.5473 218.72C26.6939 218.72 27.7339 218.187 28.6673 217.12L29.1873 218ZM26.1873 209.86C25.4006 209.86 24.7806 210.333 24.3273 211.28C23.8739 212.227 23.6073 213.28 23.5273 214.44C24.0473 214.413 24.5939 214.273 25.1673 214.02C25.7539 213.767 26.2406 213.413 26.6273 212.96C27.0273 212.493 27.2273 211.96 27.2273 211.36C27.2273 210.88 27.1339 210.513 26.9473 210.26C26.7739 209.993 26.5206 209.86 26.1873 209.86ZM34.9165 211.52C35.1698 210.76 35.6032 210.093 36.2165 209.52C36.8432 208.933 37.5432 208.64 38.3165 208.64C38.5832 208.64 38.8098 208.7 38.9965 208.82L38.4165 211.7C38.3365 211.633 38.2032 211.573 38.0165 211.52C37.8432 211.453 37.6298 211.42 37.3765 211.42C36.8965 211.42 36.4365 211.527 35.9965 211.74C35.5565 211.94 35.2165 212.233 34.9765 212.62L33.9965 220H31.3965L32.6565 210.5L31.6365 209.94L31.7765 209.14L34.6365 208.66L35.0965 208.94L34.9965 210.76L34.9165 211.52ZM55.7443 205.14L55.4043 208.64H53.6443L53.3843 206.42L49.3243 206.22L48.6043 211.68L53.3843 211.46L53.1443 213.36L48.4443 213.06L47.7043 218.8L50.2843 219.08L50.2043 220H43.4043L43.5043 219.08L44.8843 218.8L46.5043 206.36L45.1043 206.12L45.2243 205.14H55.7443ZM64.643 217.96C64.6297 218.013 64.623 218.093 64.623 218.2C64.623 218.547 64.7564 218.72 65.023 218.72C65.2364 218.72 65.5364 218.56 65.923 218.24L66.203 218.86C66.0297 219.127 65.7164 219.42 65.263 219.74C64.823 220.047 64.3097 220.2 63.723 220.2C63.2697 220.2 62.9097 220.1 62.643 219.9C62.3764 219.7 62.2364 219.393 62.223 218.98L62.263 218.64C61.8897 219.08 61.4364 219.453 60.903 219.76C60.3697 220.053 59.783 220.2 59.143 220.2C58.023 220.2 57.183 219.82 56.623 219.06C56.0764 218.287 55.803 217.28 55.803 216.04C55.803 214.813 56.0564 213.633 56.563 212.5C57.083 211.367 57.8364 210.44 58.823 209.72C59.8097 209 60.983 208.64 62.343 208.64C62.6897 208.64 63.063 208.68 63.463 208.76C63.8764 208.84 64.2364 208.933 64.543 209.04L65.923 208.64L64.643 217.96ZM63.103 210.06C62.8497 209.94 62.523 209.88 62.123 209.88C61.323 209.88 60.6564 210.187 60.123 210.8C59.5897 211.4 59.1964 212.167 58.943 213.1C58.703 214.02 58.583 214.953 58.583 215.9C58.583 216.78 58.7164 217.467 58.983 217.96C59.2497 218.44 59.643 218.68 60.163 218.68C60.4964 218.68 60.8297 218.567 61.163 218.34C61.5097 218.113 61.8164 217.847 62.083 217.54L63.103 210.06ZM71.6413 211.08C72.1213 210.36 72.6947 209.773 73.3613 209.32C74.028 208.867 74.728 208.64 75.4613 208.64C76.208 208.64 76.788 208.84 77.2013 209.24C77.628 209.627 77.8747 210.253 77.9413 211.12C78.408 210.347 78.9747 209.74 79.6413 209.3C80.3213 208.86 81.0547 208.64 81.8413 208.64C83.508 208.64 84.3413 209.62 84.3413 211.58C84.3413 212.007 84.208 212.993 83.9413 214.54L83.8613 215.06L83.7613 215.58C83.5347 216.82 83.4147 217.673 83.4013 218.14C83.4013 218.527 83.5147 218.72 83.7413 218.72C83.8613 218.72 83.988 218.687 84.1213 218.62C84.268 218.54 84.4613 218.4 84.7013 218.2L84.9613 218.82C84.7747 219.1 84.448 219.4 83.9813 219.72C83.5147 220.04 82.9547 220.2 82.3013 220.2C81.6747 220.2 81.2413 220.073 81.0013 219.82C80.7613 219.567 80.6413 219.227 80.6413 218.8C80.6413 218.533 80.6813 218.147 80.7613 217.64C80.8413 217.12 80.928 216.6 81.0213 216.08L81.1013 215.62C81.2613 214.713 81.3747 214 81.4413 213.48C81.5213 212.96 81.5613 212.453 81.5613 211.96C81.5613 211.347 81.488 210.927 81.3413 210.7C81.208 210.473 80.968 210.36 80.6213 210.36C80.1947 210.36 79.728 210.567 79.2213 210.98C78.728 211.393 78.3013 211.92 77.9413 212.56C77.888 213.347 77.8013 214.18 77.6813 215.06L77.0613 220H74.3613L74.9413 215.64C75.1813 213.987 75.3013 212.733 75.3013 211.88C75.288 211.267 75.2013 210.86 75.0413 210.66C74.8947 210.46 74.628 210.36 74.2413 210.36C73.8147 210.36 73.328 210.593 72.7813 211.06C72.248 211.527 71.8013 212.087 71.4413 212.74L70.4413 220H67.8413L69.1213 210.48L68.1013 209.94L68.2613 209.12L71.3813 208.64L71.8413 208.86L71.6413 211.08ZM89.8071 218C89.7938 218.067 89.7871 218.147 89.7871 218.24C89.7871 218.56 89.9004 218.72 90.1271 218.72C90.2471 218.72 90.3804 218.68 90.5271 218.6C90.6738 218.52 90.8604 218.387 91.0871 218.2L91.3471 218.82C91.1204 219.127 90.7804 219.433 90.3271 219.74C89.8871 220.047 89.3471 220.2 88.7071 220.2C88.1871 220.2 87.7804 220.1 87.4871 219.9C87.1938 219.687 87.0471 219.4 87.0471 219.04L87.0671 218.84C87.1471 218.147 87.4204 216.133 87.8871 212.8L88.2071 210.48L87.0271 209.92L87.1671 209.14L90.6071 208.66L91.0871 208.88L89.8071 218ZM90.0271 206.74C89.6671 206.74 89.3538 206.607 89.0871 206.34C88.8338 206.06 88.7071 205.74 88.7071 205.38C88.7071 204.887 88.8671 204.473 89.1871 204.14C89.5204 203.807 89.9404 203.64 90.4471 203.64C90.8604 203.64 91.1871 203.773 91.4271 204.04C91.6671 204.293 91.7871 204.6 91.7871 204.96C91.7871 205.467 91.6338 205.893 91.3271 206.24C91.0204 206.573 90.5871 206.74 90.0271 206.74ZM95.9924 218C95.9791 218.053 95.9724 218.127 95.9724 218.22C95.9724 218.553 96.0924 218.72 96.3324 218.72C96.4524 218.72 96.5791 218.687 96.7124 218.62C96.8591 218.553 97.0524 218.413 97.2924 218.2L97.5524 218.82C97.3391 219.127 97.0258 219.433 96.6124 219.74C96.1991 220.047 95.6658 220.2 95.0124 220.2C94.5058 220.2 94.0924 220.1 93.7724 219.9C93.4524 219.687 93.2858 219.36 93.2724 218.92C93.2724 218.867 93.2991 218.627 93.3524 218.2L95.0924 205.42L93.8324 205.02L94.0124 204.28L97.4124 203.88L97.8724 204.14L95.9924 218ZM102.346 218C102.333 218.067 102.326 218.147 102.326 218.24C102.326 218.56 102.44 218.72 102.666 218.72C102.786 218.72 102.92 218.68 103.066 218.6C103.213 218.52 103.4 218.387 103.626 218.2L103.886 218.82C103.66 219.127 103.32 219.433 102.866 219.74C102.426 220.047 101.886 220.2 101.246 220.2C100.726 220.2 100.32 220.1 100.026 219.9C99.7328 219.687 99.5862 219.4 99.5862 219.04L99.6062 218.84C99.6862 218.147 99.9595 216.133 100.426 212.8L100.746 210.48L99.5662 209.92L99.7062 209.14L103.146 208.66L103.626 208.88L102.346 218ZM102.566 206.74C102.206 206.74 101.893 206.607 101.626 206.34C101.373 206.06 101.246 205.74 101.246 205.38C101.246 204.887 101.406 204.473 101.726 204.14C102.06 203.807 102.48 203.64 102.986 203.64C103.4 203.64 103.726 203.773 103.966 204.04C104.206 204.293 104.326 204.6 104.326 204.96C104.326 205.467 104.173 205.893 103.866 206.24C103.56 206.573 103.126 206.74 102.566 206.74ZM114.011 218C113.665 218.547 113.098 219.06 112.311 219.54C111.538 220.02 110.638 220.26 109.611 220.26C108.651 220.26 107.858 220.053 107.231 219.64C106.618 219.227 106.171 218.687 105.891 218.02C105.611 217.353 105.471 216.627 105.471 215.84C105.471 214.507 105.738 213.293 106.271 212.2C106.818 211.093 107.558 210.22 108.491 209.58C109.425 208.94 110.465 208.62 111.611 208.62C112.638 208.62 113.398 208.86 113.891 209.34C114.398 209.807 114.651 210.42 114.651 211.18C114.651 212.14 114.305 212.94 113.611 213.58C112.918 214.22 112.085 214.7 111.111 215.02C110.138 215.327 109.218 215.493 108.351 215.52C108.325 216.48 108.478 217.253 108.811 217.84C109.158 218.427 109.678 218.72 110.371 218.72C111.518 218.72 112.558 218.187 113.491 217.12L114.011 218ZM111.011 209.86C110.225 209.86 109.605 210.333 109.151 211.28C108.698 212.227 108.431 213.28 108.351 214.44C108.871 214.413 109.418 214.273 109.991 214.02C110.578 213.767 111.065 213.413 111.451 212.96C111.851 212.493 112.051 211.96 112.051 211.36C112.051 210.88 111.958 210.513 111.771 210.26C111.598 209.993 111.345 209.86 111.011 209.86ZM120.001 211.06C120.494 210.327 121.081 209.74 121.761 209.3C122.441 208.86 123.154 208.64 123.901 208.64C125.554 208.64 126.381 209.62 126.381 211.58C126.381 212.1 126.214 213.26 125.881 215.06C125.827 215.407 125.781 215.673 125.741 215.86C125.554 216.913 125.454 217.673 125.441 218.14V218.22C125.441 218.553 125.547 218.72 125.761 218.72C125.881 218.72 126.007 218.687 126.141 218.62C126.274 218.553 126.447 218.433 126.661 218.26L126.941 218.88C126.741 219.16 126.414 219.453 125.961 219.76C125.507 220.053 124.954 220.2 124.301 220.2C123.674 220.2 123.241 220.067 123.001 219.8C122.761 219.52 122.641 219.153 122.641 218.7C122.654 218.3 122.781 217.507 123.021 216.32L123.141 215.64C123.167 215.52 123.221 215.2 123.301 214.68C123.394 214.16 123.467 213.667 123.521 213.2C123.574 212.72 123.601 212.307 123.601 211.96C123.601 211.347 123.527 210.927 123.381 210.7C123.247 210.473 123.001 210.36 122.641 210.36C122.201 210.36 121.707 210.607 121.161 211.1C120.627 211.593 120.167 212.187 119.781 212.88L118.821 220H116.201L117.481 210.48L116.461 209.94L116.621 209.12L119.741 208.64L120.201 208.86L120.001 211.06ZM137.084 211.52C137.338 210.76 137.771 210.093 138.384 209.52C139.011 208.933 139.711 208.64 140.484 208.64C140.751 208.64 140.978 208.7 141.164 208.82L140.584 211.7C140.504 211.633 140.371 211.573 140.184 211.52C140.011 211.453 139.798 211.42 139.544 211.42C139.064 211.42 138.604 211.527 138.164 211.74C137.724 211.94 137.384 212.233 137.144 212.62L136.164 220H133.564L134.824 210.5L133.804 209.94L133.944 209.14L136.804 208.66L137.264 208.94L137.164 210.76L137.084 211.52ZM150.066 218C149.72 218.547 149.153 219.06 148.366 219.54C147.593 220.02 146.693 220.26 145.666 220.26C144.706 220.26 143.913 220.053 143.286 219.64C142.673 219.227 142.226 218.687 141.946 218.02C141.666 217.353 141.526 216.627 141.526 215.84C141.526 214.507 141.793 213.293 142.326 212.2C142.873 211.093 143.613 210.22 144.546 209.58C145.48 208.94 146.52 208.62 147.666 208.62C148.693 208.62 149.453 208.86 149.946 209.34C150.453 209.807 150.706 210.42 150.706 211.18C150.706 212.14 150.36 212.94 149.666 213.58C148.973 214.22 148.14 214.7 147.166 215.02C146.193 215.327 145.273 215.493 144.406 215.52C144.38 216.48 144.533 217.253 144.866 217.84C145.213 218.427 145.733 218.72 146.426 218.72C147.573 218.72 148.613 218.187 149.546 217.12L150.066 218ZM147.066 209.86C146.28 209.86 145.66 210.333 145.206 211.28C144.753 212.227 144.486 213.28 144.406 214.44C144.926 214.413 145.473 214.273 146.046 214.02C146.633 213.767 147.12 213.413 147.506 212.96C147.906 212.493 148.106 211.96 148.106 211.36C148.106 210.88 148.013 210.513 147.826 210.26C147.653 209.993 147.4 209.86 147.066 209.86ZM159.175 211.62C158.802 211.153 158.469 210.78 158.175 210.5C157.895 210.207 157.649 210.06 157.435 210.06C156.942 210.06 156.482 210.287 156.055 210.74C155.642 211.193 155.302 211.827 155.035 212.64C154.782 213.453 154.655 214.367 154.655 215.38C154.655 216.487 154.815 217.3 155.135 217.82C155.455 218.327 155.942 218.58 156.595 218.58C157.155 218.58 157.629 218.473 158.015 218.26C158.415 218.047 158.802 217.747 159.175 217.36L159.695 218.24C159.362 218.733 158.835 219.187 158.115 219.6C157.409 220 156.569 220.2 155.595 220.2C154.449 220.2 153.549 219.8 152.895 219C152.242 218.187 151.915 217.04 151.915 215.56C151.915 214.44 152.149 213.353 152.615 212.3C153.082 211.233 153.775 210.36 154.695 209.68C155.615 208.987 156.722 208.64 158.015 208.64C158.429 208.64 158.855 208.68 159.295 208.76C159.749 208.827 160.115 208.927 160.395 209.06L159.715 211.66L159.175 211.62ZM165.056 211.2C165.549 210.427 166.136 209.807 166.816 209.34C167.509 208.873 168.242 208.64 169.016 208.64C169.802 208.64 170.409 208.867 170.836 209.32C171.276 209.773 171.496 210.527 171.496 211.58C171.496 211.993 171.416 212.647 171.256 213.54C171.109 214.433 171.029 214.94 171.016 215.06L170.896 215.7C170.816 216.14 170.736 216.593 170.656 217.06C170.589 217.527 170.556 217.907 170.556 218.2C170.556 218.56 170.669 218.74 170.896 218.74C171.016 218.74 171.142 218.707 171.276 218.64C171.409 218.56 171.596 218.427 171.836 218.24L172.096 218.86C171.922 219.127 171.602 219.42 171.136 219.74C170.669 220.047 170.109 220.2 169.456 220.2C168.802 220.2 168.356 220.073 168.116 219.82C167.876 219.553 167.756 219.18 167.756 218.7C167.769 218.3 167.896 217.507 168.136 216.32L168.256 215.64C168.282 215.52 168.336 215.2 168.416 214.68C168.509 214.16 168.582 213.667 168.636 213.2C168.689 212.72 168.716 212.307 168.716 211.96C168.716 211.347 168.642 210.927 168.496 210.7C168.349 210.473 168.102 210.36 167.756 210.36C167.302 210.36 166.796 210.62 166.236 211.14C165.689 211.647 165.222 212.267 164.836 213L163.956 220H161.296L163.116 205.42L161.916 205.02L162.056 204.28L165.476 203.88L165.956 204.14L165.056 211.2ZM177.696 211.06C178.189 210.327 178.776 209.74 179.456 209.3C180.136 208.86 180.849 208.64 181.596 208.64C183.249 208.64 184.076 209.62 184.076 211.58C184.076 212.1 183.909 213.26 183.576 215.06C183.523 215.407 183.476 215.673 183.436 215.86C183.249 216.913 183.149 217.673 183.136 218.14V218.22C183.136 218.553 183.243 218.72 183.456 218.72C183.576 218.72 183.703 218.687 183.836 218.62C183.969 218.553 184.143 218.433 184.356 218.26L184.636 218.88C184.436 219.16 184.109 219.453 183.656 219.76C183.203 220.053 182.649 220.2 181.996 220.2C181.369 220.2 180.936 220.067 180.696 219.8C180.456 219.52 180.336 219.153 180.336 218.7C180.349 218.3 180.476 217.507 180.716 216.32L180.836 215.64C180.863 215.52 180.916 215.2 180.996 214.68C181.089 214.16 181.163 213.667 181.216 213.2C181.269 212.72 181.296 212.307 181.296 211.96C181.296 211.347 181.223 210.927 181.076 210.7C180.943 210.473 180.696 210.36 180.336 210.36C179.896 210.36 179.403 210.607 178.856 211.1C178.323 211.593 177.863 212.187 177.476 212.88L176.516 220H173.896L175.176 210.48L174.156 209.94L174.316 209.12L177.436 208.64L177.896 208.86L177.696 211.06ZM194.754 218C194.407 218.547 193.84 219.06 193.054 219.54C192.28 220.02 191.38 220.26 190.354 220.26C189.394 220.26 188.6 220.053 187.974 219.64C187.36 219.227 186.914 218.687 186.634 218.02C186.354 217.353 186.214 216.627 186.214 215.84C186.214 214.507 186.48 213.293 187.014 212.2C187.56 211.093 188.3 210.22 189.234 209.58C190.167 208.94 191.207 208.62 192.354 208.62C193.38 208.62 194.14 208.86 194.634 209.34C195.14 209.807 195.394 210.42 195.394 211.18C195.394 212.14 195.047 212.94 194.354 213.58C193.66 214.22 192.827 214.7 191.854 215.02C190.88 215.327 189.96 215.493 189.094 215.52C189.067 216.48 189.22 217.253 189.554 217.84C189.9 218.427 190.42 218.72 191.114 218.72C192.26 218.72 193.3 218.187 194.234 217.12L194.754 218ZM191.754 209.86C190.967 209.86 190.347 210.333 189.894 211.28C189.44 212.227 189.174 213.28 189.094 214.44C189.614 214.413 190.16 214.273 190.734 214.02C191.32 213.767 191.807 213.413 192.194 212.96C192.594 212.493 192.794 211.96 192.794 211.36C192.794 210.88 192.7 210.513 192.514 210.26C192.34 209.993 192.087 209.86 191.754 209.86ZM199.983 216.34C199.89 217.113 199.843 217.58 199.843 217.74C199.843 218.047 199.903 218.267 200.023 218.4C200.143 218.52 200.35 218.58 200.643 218.58C200.91 218.58 201.21 218.52 201.543 218.4C201.89 218.267 202.176 218.107 202.403 217.92L202.623 218.66C202.276 219.047 201.783 219.4 201.143 219.72C200.503 220.04 199.783 220.2 198.983 220.2C198.423 220.2 197.976 220.06 197.643 219.78C197.323 219.487 197.163 219.027 197.163 218.4C197.163 218.133 197.23 217.507 197.363 216.52L198.203 210.32H197.003L197.223 209.36L198.423 208.94C198.823 208.567 199.296 207.647 199.843 206.18H201.343L201.003 208.9H203.403L203.203 210.32H200.803L199.983 216.34ZM217.518 217.98C217.505 218.033 217.498 218.113 217.498 218.22C217.498 218.553 217.612 218.72 217.838 218.72C218.065 218.72 218.365 218.567 218.738 218.26L219.018 218.88C218.272 219.76 217.445 220.2 216.538 220.2C216.072 220.2 215.718 220.087 215.478 219.86C215.238 219.633 215.098 219.287 215.058 218.82V218.52C214.725 218.987 214.278 219.387 213.718 219.72C213.158 220.04 212.518 220.2 211.798 220.2C210.678 220.2 209.845 219.82 209.298 219.06C208.752 218.287 208.478 217.28 208.478 216.04C208.478 214.8 208.725 213.613 209.218 212.48C209.712 211.347 210.445 210.427 211.418 209.72C212.405 209 213.592 208.64 214.978 208.64C215.365 208.64 215.772 208.693 216.198 208.8L216.698 205.42L215.258 205.02L215.438 204.28L219.038 203.88L219.538 204.14L217.518 217.98ZM215.998 210.16C215.665 209.973 215.245 209.88 214.738 209.88C213.925 209.88 213.258 210.193 212.738 210.82C212.218 211.433 211.838 212.2 211.598 213.12C211.358 214.04 211.238 214.973 211.238 215.92C211.238 216.8 211.372 217.48 211.638 217.96C211.918 218.44 212.312 218.68 212.818 218.68C213.232 218.68 213.625 218.553 213.998 218.3C214.372 218.033 214.678 217.72 214.918 217.36L215.998 210.16ZM229.331 217.96C229.317 218.013 229.311 218.093 229.311 218.2C229.311 218.547 229.444 218.72 229.711 218.72C229.924 218.72 230.224 218.56 230.611 218.24L230.891 218.86C230.717 219.127 230.404 219.42 229.951 219.74C229.511 220.047 228.997 220.2 228.411 220.2C227.957 220.2 227.597 220.1 227.331 219.9C227.064 219.7 226.924 219.393 226.911 218.98L226.951 218.64C226.577 219.08 226.124 219.453 225.591 219.76C225.057 220.053 224.471 220.2 223.831 220.2C222.711 220.2 221.871 219.82 221.311 219.06C220.764 218.287 220.491 217.28 220.491 216.04C220.491 214.813 220.744 213.633 221.251 212.5C221.771 211.367 222.524 210.44 223.511 209.72C224.497 209 225.671 208.64 227.031 208.64C227.377 208.64 227.751 208.68 228.151 208.76C228.564 208.84 228.924 208.933 229.231 209.04L230.611 208.64L229.331 217.96ZM227.791 210.06C227.537 209.94 227.211 209.88 226.811 209.88C226.011 209.88 225.344 210.187 224.811 210.8C224.277 211.4 223.884 212.167 223.631 213.1C223.391 214.02 223.271 214.953 223.271 215.9C223.271 216.78 223.404 217.467 223.671 217.96C223.937 218.44 224.331 218.68 224.851 218.68C225.184 218.68 225.517 218.567 225.851 218.34C226.197 218.113 226.504 217.847 226.771 217.54L227.791 210.06ZM236.329 211.08C236.809 210.36 237.382 209.773 238.049 209.32C238.715 208.867 239.415 208.64 240.149 208.64C240.895 208.64 241.475 208.84 241.889 209.24C242.315 209.627 242.562 210.253 242.629 211.12C243.095 210.347 243.662 209.74 244.329 209.3C245.009 208.86 245.742 208.64 246.529 208.64C248.195 208.64 249.029 209.62 249.029 211.58C249.029 212.007 248.895 212.993 248.629 214.54L248.549 215.06L248.449 215.58C248.222 216.82 248.102 217.673 248.089 218.14C248.089 218.527 248.202 218.72 248.429 218.72C248.549 218.72 248.675 218.687 248.809 218.62C248.955 218.54 249.149 218.4 249.389 218.2L249.649 218.82C249.462 219.1 249.135 219.4 248.669 219.72C248.202 220.04 247.642 220.2 246.989 220.2C246.362 220.2 245.929 220.073 245.689 219.82C245.449 219.567 245.329 219.227 245.329 218.8C245.329 218.533 245.369 218.147 245.449 217.64C245.529 217.12 245.615 216.6 245.709 216.08L245.789 215.62C245.949 214.713 246.062 214 246.129 213.48C246.209 212.96 246.249 212.453 246.249 211.96C246.249 211.347 246.175 210.927 246.029 210.7C245.895 210.473 245.655 210.36 245.309 210.36C244.882 210.36 244.415 210.567 243.909 210.98C243.415 211.393 242.989 211.92 242.629 212.56C242.575 213.347 242.489 214.18 242.369 215.06L241.749 220H239.049L239.629 215.64C239.869 213.987 239.989 212.733 239.989 211.88C239.975 211.267 239.889 210.86 239.729 210.66C239.582 210.46 239.315 210.36 238.929 210.36C238.502 210.36 238.015 210.593 237.469 211.06C236.935 211.527 236.489 212.087 236.129 212.74L235.129 220H232.529L233.809 210.48L232.789 209.94L232.949 209.12L236.069 208.64L236.529 208.86L236.329 211.08ZM254.495 218C254.481 218.067 254.475 218.147 254.475 218.24C254.475 218.56 254.588 218.72 254.815 218.72C254.935 218.72 255.068 218.68 255.215 218.6C255.361 218.52 255.548 218.387 255.775 218.2L256.035 218.82C255.808 219.127 255.468 219.433 255.015 219.74C254.575 220.047 254.035 220.2 253.395 220.2C252.875 220.2 252.468 220.1 252.175 219.9C251.881 219.687 251.735 219.4 251.735 219.04L251.755 218.84C251.835 218.147 252.108 216.133 252.575 212.8L252.895 210.48L251.715 209.92L251.855 209.14L255.295 208.66L255.775 208.88L254.495 218ZM254.715 206.74C254.355 206.74 254.041 206.607 253.775 206.34C253.521 206.06 253.395 205.74 253.395 205.38C253.395 204.887 253.555 204.473 253.875 204.14C254.208 203.807 254.628 203.64 255.135 203.64C255.548 203.64 255.875 203.773 256.115 204.04C256.355 204.293 256.475 204.6 256.475 204.96C256.475 205.467 256.321 205.893 256.015 206.24C255.708 206.573 255.275 206.74 254.715 206.74ZM260.94 216.34C260.847 217.113 260.8 217.58 260.8 217.74C260.8 218.047 260.86 218.267 260.98 218.4C261.1 218.52 261.307 218.58 261.6 218.58C261.867 218.58 262.167 218.52 262.5 218.4C262.847 218.267 263.133 218.107 263.36 217.92L263.58 218.66C263.233 219.047 262.74 219.4 262.1 219.72C261.46 220.04 260.74 220.2 259.94 220.2C259.38 220.2 258.933 220.06 258.6 219.78C258.28 219.487 258.12 219.027 258.12 218.4C258.12 218.133 258.187 217.507 258.32 216.52L259.16 210.32H257.96L258.18 209.36L259.38 208.94C259.78 208.567 260.253 207.647 260.8 206.18H262.3L261.96 208.9H264.36L264.16 210.32H261.76L260.94 216.34ZM266.269 217.22C266.936 217.407 267.423 217.773 267.729 218.32C268.036 218.853 268.189 219.453 268.189 220.12C268.189 221.187 267.849 222.153 267.169 223.02C266.489 223.9 265.589 224.567 264.469 225.02L263.909 224.24L263.949 224.04C264.496 223.787 264.969 223.353 265.369 222.74C265.783 222.127 265.989 221.48 265.989 220.8C265.989 220.347 265.889 219.953 265.689 219.62C265.489 219.273 265.243 219.093 264.949 219.08L264.989 218.54L266.269 217.22ZM283.944 217.98C283.931 218.033 283.924 218.113 283.924 218.22C283.924 218.553 284.037 218.72 284.264 218.72C284.491 218.72 284.791 218.567 285.164 218.26L285.444 218.88C284.697 219.76 283.871 220.2 282.964 220.2C282.497 220.2 282.144 220.087 281.904 219.86C281.664 219.633 281.524 219.287 281.484 218.82V218.52C281.151 218.987 280.704 219.387 280.144 219.72C279.584 220.04 278.944 220.2 278.224 220.2C277.104 220.2 276.271 219.82 275.724 219.06C275.177 218.287 274.904 217.28 274.904 216.04C274.904 214.8 275.151 213.613 275.644 212.48C276.137 211.347 276.871 210.427 277.844 209.72C278.831 209 280.017 208.64 281.404 208.64C281.791 208.64 282.197 208.693 282.624 208.8L283.124 205.42L281.684 205.02L281.864 204.28L285.464 203.88L285.964 204.14L283.944 217.98ZM282.424 210.16C282.091 209.973 281.671 209.88 281.164 209.88C280.351 209.88 279.684 210.193 279.164 210.82C278.644 211.433 278.264 212.2 278.024 213.12C277.784 214.04 277.664 214.973 277.664 215.92C277.664 216.8 277.797 217.48 278.064 217.96C278.344 218.44 278.737 218.68 279.244 218.68C279.657 218.68 280.051 218.553 280.424 218.3C280.797 218.033 281.104 217.72 281.344 217.36L282.424 210.16ZM295.756 217.96C295.743 218.013 295.736 218.093 295.736 218.2C295.736 218.547 295.87 218.72 296.136 218.72C296.35 218.72 296.65 218.56 297.036 218.24L297.316 218.86C297.143 219.127 296.83 219.42 296.376 219.74C295.936 220.047 295.423 220.2 294.836 220.2C294.383 220.2 294.023 220.1 293.756 219.9C293.49 219.7 293.35 219.393 293.336 218.98L293.376 218.64C293.003 219.08 292.55 219.453 292.016 219.76C291.483 220.053 290.896 220.2 290.256 220.2C289.136 220.2 288.296 219.82 287.736 219.06C287.19 218.287 286.916 217.28 286.916 216.04C286.916 214.813 287.17 213.633 287.676 212.5C288.196 211.367 288.95 210.44 289.936 209.72C290.923 209 292.096 208.64 293.456 208.64C293.803 208.64 294.176 208.68 294.576 208.76C294.99 208.84 295.35 208.933 295.656 209.04L297.036 208.64L295.756 217.96ZM294.216 210.06C293.963 209.94 293.636 209.88 293.236 209.88C292.436 209.88 291.77 210.187 291.236 210.8C290.703 211.4 290.31 212.167 290.056 213.1C289.816 214.02 289.696 214.953 289.696 215.9C289.696 216.78 289.83 217.467 290.096 217.96C290.363 218.44 290.756 218.68 291.276 218.68C291.61 218.68 291.943 218.567 292.276 218.34C292.623 218.113 292.93 217.847 293.196 217.54L294.216 210.06ZM305.575 210.8C305.415 210.613 305.148 210.42 304.775 210.22C304.415 210.02 303.995 209.92 303.515 209.92C302.981 209.92 302.548 210.04 302.215 210.28C301.895 210.507 301.735 210.847 301.735 211.3C301.735 211.7 301.868 212.06 302.135 212.38C302.415 212.687 302.861 213.06 303.475 213.5C304.155 214.007 304.675 214.5 305.035 214.98C305.395 215.447 305.575 216.047 305.575 216.78C305.575 217.513 305.375 218.14 304.975 218.66C304.575 219.167 304.041 219.553 303.375 219.82C302.708 220.073 301.975 220.2 301.175 220.2C300.575 220.2 299.961 220.133 299.335 220C298.708 219.853 298.301 219.7 298.115 219.54L298.515 217.84C298.795 218.08 299.175 218.307 299.655 218.52C300.135 218.733 300.635 218.84 301.155 218.84C301.648 218.84 302.068 218.727 302.415 218.5C302.775 218.273 302.955 217.92 302.955 217.44C302.955 217.027 302.801 216.653 302.495 216.32C302.188 215.987 301.728 215.607 301.115 215.18C300.555 214.793 300.081 214.34 299.695 213.82C299.321 213.287 299.135 212.647 299.135 211.9C299.135 211.26 299.315 210.693 299.675 210.2C300.048 209.707 300.555 209.327 301.195 209.06C301.848 208.78 302.595 208.64 303.435 208.64C303.928 208.64 304.428 208.68 304.935 208.76C305.441 208.84 305.781 208.927 305.955 209.02L305.575 210.8ZM314.11 210.8C313.95 210.613 313.683 210.42 313.31 210.22C312.95 210.02 312.53 209.92 312.05 209.92C311.516 209.92 311.083 210.04 310.75 210.28C310.43 210.507 310.27 210.847 310.27 211.3C310.27 211.7 310.403 212.06 310.67 212.38C310.95 212.687 311.396 213.06 312.01 213.5C312.69 214.007 313.21 214.5 313.57 214.98C313.93 215.447 314.11 216.047 314.11 216.78C314.11 217.513 313.91 218.14 313.51 218.66C313.11 219.167 312.576 219.553 311.91 219.82C311.243 220.073 310.51 220.2 309.71 220.2C309.11 220.2 308.496 220.133 307.87 220C307.243 219.853 306.836 219.7 306.65 219.54L307.05 217.84C307.33 218.08 307.71 218.307 308.19 218.52C308.67 218.733 309.17 218.84 309.69 218.84C310.183 218.84 310.603 218.727 310.95 218.5C311.31 218.273 311.49 217.92 311.49 217.44C311.49 217.027 311.336 216.653 311.03 216.32C310.723 215.987 310.263 215.607 309.65 215.18C309.09 214.793 308.616 214.34 308.23 213.82C307.856 213.287 307.67 212.647 307.67 211.9C307.67 211.26 307.85 210.693 308.21 210.2C308.583 209.707 309.09 209.327 309.73 209.06C310.383 208.78 311.13 208.64 311.97 208.64C312.463 208.64 312.963 208.68 313.47 208.76C313.976 208.84 314.316 208.927 314.49 209.02L314.11 210.8ZM14.7348 235.8C14.5748 235.613 14.3081 235.42 13.9348 235.22C13.5748 235.02 13.1548 234.92 12.6748 234.92C12.1414 234.92 11.7081 235.04 11.3748 235.28C11.0548 235.507 10.8948 235.847 10.8948 236.3C10.8948 236.7 11.0281 237.06 11.2948 237.38C11.5748 237.687 12.0214 238.06 12.6348 238.5C13.3148 239.007 13.8348 239.5 14.1948 239.98C14.5548 240.447 14.7348 241.047 14.7348 241.78C14.7348 242.513 14.5348 243.14 14.1348 243.66C13.7348 244.167 13.2014 244.553 12.5348 244.82C11.8681 245.073 11.1348 245.2 10.3348 245.2C9.73477 245.2 9.12143 245.133 8.49477 245C7.8681 244.853 7.46143 244.7 7.27477 244.54L7.67477 242.84C7.95477 243.08 8.33477 243.307 8.81477 243.52C9.29477 243.733 9.79477 243.84 10.3148 243.84C10.8081 243.84 11.2281 243.727 11.5748 243.5C11.9348 243.273 12.1148 242.92 12.1148 242.44C12.1148 242.027 11.9614 241.653 11.6548 241.32C11.3481 240.987 10.8881 240.607 10.2748 240.18C9.71477 239.793 9.24143 239.34 8.85477 238.82C8.48143 238.287 8.29477 237.647 8.29477 236.9C8.29477 236.26 8.47477 235.693 8.83477 235.2C9.2081 234.707 9.71477 234.327 10.3548 234.06C11.0081 233.78 11.7548 233.64 12.5948 233.64C13.0881 233.64 13.5881 233.68 14.0948 233.76C14.6014 233.84 14.9414 233.927 15.1148 234.02L14.7348 235.8ZM19.6899 243C19.6766 243.067 19.6699 243.147 19.6699 243.24C19.6699 243.56 19.7833 243.72 20.0099 243.72C20.1299 243.72 20.2633 243.68 20.4099 243.6C20.5566 243.52 20.7433 243.387 20.9699 243.2L21.2299 243.82C21.0033 244.127 20.6633 244.433 20.2099 244.74C19.7699 245.047 19.2299 245.2 18.5899 245.2C18.0699 245.2 17.6633 245.1 17.3699 244.9C17.0766 244.687 16.9299 244.4 16.9299 244.04L16.9499 243.84C17.0299 243.147 17.3033 241.133 17.7699 237.8L18.0899 235.48L16.9099 234.92L17.0499 234.14L20.4899 233.66L20.9699 233.88L19.6899 243ZM19.9099 231.74C19.5499 231.74 19.2366 231.607 18.9699 231.34C18.7166 231.06 18.5899 230.74 18.5899 230.38C18.5899 229.887 18.7499 229.473 19.0699 229.14C19.4033 228.807 19.8233 228.64 20.3299 228.64C20.7433 228.64 21.0699 228.773 21.3099 229.04C21.5499 229.293 21.6699 229.6 21.6699 229.96C21.6699 230.467 21.5166 230.893 21.2099 231.24C20.9033 231.573 20.4699 231.74 19.9099 231.74ZM31.3552 243C31.0086 243.547 30.4419 244.06 29.6552 244.54C28.8819 245.02 27.9819 245.26 26.9552 245.26C25.9952 245.26 25.2019 245.053 24.5752 244.64C23.9619 244.227 23.5152 243.687 23.2352 243.02C22.9552 242.353 22.8152 241.627 22.8152 240.84C22.8152 239.507 23.0819 238.293 23.6152 237.2C24.1619 236.093 24.9019 235.22 25.8352 234.58C26.7686 233.94 27.8086 233.62 28.9552 233.62C29.9819 233.62 30.7419 233.86 31.2352 234.34C31.7419 234.807 31.9952 235.42 31.9952 236.18C31.9952 237.14 31.6486 237.94 30.9552 238.58C30.2619 239.22 29.4286 239.7 28.4552 240.02C27.4819 240.327 26.5619 240.493 25.6952 240.52C25.6686 241.48 25.8219 242.253 26.1552 242.84C26.5019 243.427 27.0219 243.72 27.7152 243.72C28.8619 243.72 29.9019 243.187 30.8352 242.12L31.3552 243ZM28.3552 234.86C27.5686 234.86 26.9486 235.333 26.4952 236.28C26.0419 237.227 25.7752 238.28 25.6952 239.44C26.2152 239.413 26.7619 239.273 27.3352 239.02C27.9219 238.767 28.4086 238.413 28.7952 237.96C29.1952 237.493 29.3952 236.96 29.3952 236.36C29.3952 235.88 29.3019 235.513 29.1152 235.26C28.9419 234.993 28.6886 234.86 28.3552 234.86ZM41.3305 243C41.3172 243.067 41.3105 243.147 41.3105 243.24C41.3105 243.56 41.4239 243.72 41.6505 243.72C41.7705 243.72 41.9039 243.68 42.0505 243.6C42.1972 243.52 42.3839 243.387 42.6105 243.2L42.8705 243.82C42.6439 244.127 42.3039 244.433 41.8505 244.74C41.4105 245.047 40.8705 245.2 40.2305 245.2C39.7105 245.2 39.3039 245.1 39.0105 244.9C38.7172 244.687 38.5705 244.4 38.5705 244.04L38.5905 243.84C38.6705 243.147 38.9439 241.133 39.4105 237.8L39.7305 235.48L38.5505 234.92L38.6905 234.14L42.1305 233.66L42.6105 233.88L41.3305 243ZM41.5505 231.74C41.1905 231.74 40.8772 231.607 40.6105 231.34C40.3572 231.06 40.2305 230.74 40.2305 230.38C40.2305 229.887 40.3905 229.473 40.7105 229.14C41.0439 228.807 41.4639 228.64 41.9705 228.64C42.3839 228.64 42.7105 228.773 42.9505 229.04C43.1905 229.293 43.3105 229.6 43.3105 229.96C43.3105 230.467 43.1572 230.893 42.8505 231.24C42.5439 231.573 42.1105 231.74 41.5505 231.74ZM48.3759 236.2C48.8692 235.427 49.4559 234.807 50.1359 234.34C50.8292 233.873 51.5625 233.64 52.3359 233.64C53.1225 233.64 53.7292 233.867 54.1559 234.32C54.5959 234.773 54.8159 235.527 54.8159 236.58C54.8159 236.993 54.7359 237.647 54.5759 238.54C54.4292 239.433 54.3492 239.94 54.3359 240.06L54.2159 240.7C54.1359 241.14 54.0559 241.593 53.9759 242.06C53.9092 242.527 53.8759 242.907 53.8759 243.2C53.8759 243.56 53.9892 243.74 54.2159 243.74C54.3359 243.74 54.4625 243.707 54.5959 243.64C54.7292 243.56 54.9159 243.427 55.1559 243.24L55.4159 243.86C55.2425 244.127 54.9225 244.42 54.4559 244.74C53.9892 245.047 53.4292 245.2 52.7759 245.2C52.1225 245.2 51.6759 245.073 51.4359 244.82C51.1959 244.553 51.0759 244.18 51.0759 243.7C51.0892 243.3 51.2159 242.507 51.4559 241.32L51.5759 240.64C51.6025 240.52 51.6559 240.2 51.7359 239.68C51.8292 239.16 51.9025 238.667 51.9559 238.2C52.0092 237.72 52.0359 237.307 52.0359 236.96C52.0359 236.347 51.9625 235.927 51.8159 235.7C51.6692 235.473 51.4225 235.36 51.0759 235.36C50.6225 235.36 50.1159 235.62 49.5559 236.14C49.0092 236.647 48.5425 237.267 48.1559 238L47.2759 245H44.6159L46.4359 230.42L45.2359 230.02L45.3759 229.28L48.7959 228.88L49.2759 229.14L48.3759 236.2ZM60.7563 236.52C61.0097 235.76 61.443 235.093 62.0563 234.52C62.683 233.933 63.383 233.64 64.1563 233.64C64.423 233.64 64.6497 233.7 64.8363 233.82L64.2563 236.7C64.1763 236.633 64.043 236.573 63.8563 236.52C63.683 236.453 63.4697 236.42 63.2163 236.42C62.7363 236.42 62.2763 236.527 61.8363 236.74C61.3963 236.94 61.0563 237.233 60.8163 237.62L59.8363 245H57.2363L58.4963 235.5L57.4763 234.94L57.6163 234.14L60.4763 233.66L60.9363 233.94L60.8363 235.76L60.7563 236.52ZM73.738 243C73.3914 243.547 72.8247 244.06 72.038 244.54C71.2647 245.02 70.3647 245.26 69.338 245.26C68.378 245.26 67.5847 245.053 66.958 244.64C66.3447 244.227 65.898 243.687 65.618 243.02C65.338 242.353 65.198 241.627 65.198 240.84C65.198 239.507 65.4647 238.293 65.998 237.2C66.5447 236.093 67.2847 235.22 68.218 234.58C69.1514 233.94 70.1914 233.62 71.338 233.62C72.3647 233.62 73.1247 233.86 73.618 234.34C74.1247 234.807 74.378 235.42 74.378 236.18C74.378 237.14 74.0314 237.94 73.338 238.58C72.6447 239.22 71.8114 239.7 70.838 240.02C69.8647 240.327 68.9447 240.493 68.078 240.52C68.0514 241.48 68.2047 242.253 68.538 242.84C68.8847 243.427 69.4047 243.72 70.098 243.72C71.2447 243.72 72.2847 243.187 73.218 242.12L73.738 243ZM70.738 234.86C69.9514 234.86 69.3314 235.333 68.878 236.28C68.4247 237.227 68.158 238.28 68.078 239.44C68.598 239.413 69.1447 239.273 69.718 239.02C70.3047 238.767 70.7914 238.413 71.178 237.96C71.578 237.493 71.778 236.96 71.778 236.36C71.778 235.88 71.6847 235.513 71.498 235.26C71.3247 234.993 71.0714 234.86 70.738 234.86ZM79.7273 236.06C80.2206 235.327 80.8073 234.74 81.4873 234.3C82.1673 233.86 82.8806 233.64 83.6273 233.64C85.2806 233.64 86.1073 234.62 86.1073 236.58C86.1073 237.1 85.9406 238.26 85.6073 240.06C85.5539 240.407 85.5073 240.673 85.4673 240.86C85.2806 241.913 85.1806 242.673 85.1673 243.14V243.22C85.1673 243.553 85.2739 243.72 85.4873 243.72C85.6073 243.72 85.7339 243.687 85.8673 243.62C86.0006 243.553 86.1739 243.433 86.3873 243.26L86.6673 243.88C86.4673 244.16 86.1406 244.453 85.6873 244.76C85.2339 245.053 84.6806 245.2 84.0273 245.2C83.4006 245.2 82.9673 245.067 82.7273 244.8C82.4873 244.52 82.3673 244.153 82.3673 243.7C82.3806 243.3 82.5073 242.507 82.7473 241.32L82.8673 240.64C82.8939 240.52 82.9473 240.2 83.0273 239.68C83.1206 239.16 83.1939 238.667 83.2473 238.2C83.3006 237.72 83.3273 237.307 83.3273 236.96C83.3273 236.347 83.2539 235.927 83.1073 235.7C82.9739 235.473 82.7273 235.36 82.3673 235.36C81.9273 235.36 81.4339 235.607 80.8873 236.1C80.3539 236.593 79.8939 237.187 79.5073 237.88L78.5473 245H75.9273L77.2073 235.48L76.1873 234.94L76.3473 234.12L79.4673 233.64L79.9273 233.86L79.7273 236.06ZM100.851 236.32C101.104 236.733 101.551 237.573 102.191 238.84C102.284 239.027 102.431 239.32 102.631 239.72C102.844 240.12 103.011 240.427 103.131 240.64L103.371 241.08C103.864 241.987 104.231 242.633 104.471 243.02C104.711 243.407 104.924 243.653 105.111 243.76L106.311 244.06L106.211 245H102.551C102.298 244.973 102.058 244.773 101.831 244.4C101.604 244.027 101.291 243.4 100.891 242.52C100.878 242.507 100.638 241.953 100.171 240.86C99.691 239.713 99.2977 238.827 98.991 238.2L97.051 240.2L96.591 243.8L98.231 244.08L98.131 245H92.231L92.351 244.08L93.771 243.8L95.391 231.36L94.011 231.12L94.111 230.14H99.971L99.851 231.12L98.191 231.36L97.291 238.22L103.651 231.36L102.311 231.1L102.411 230.14H107.031L106.911 231.12L105.691 231.34L100.851 236.32ZM110.393 243C110.38 243.067 110.373 243.147 110.373 243.24C110.373 243.56 110.486 243.72 110.713 243.72C110.833 243.72 110.966 243.68 111.113 243.6C111.26 243.52 111.446 243.387 111.673 243.2L111.933 243.82C111.706 244.127 111.366 244.433 110.913 244.74C110.473 245.047 109.933 245.2 109.293 245.2C108.773 245.2 108.366 245.1 108.073 244.9C107.78 244.687 107.633 244.4 107.633 244.04L107.653 243.84C107.733 243.147 108.006 241.133 108.473 237.8L108.793 235.48L107.613 234.92L107.753 234.14L111.193 233.66L111.673 233.88L110.393 243ZM110.613 231.74C110.253 231.74 109.94 231.607 109.673 231.34C109.42 231.06 109.293 230.74 109.293 230.38C109.293 229.887 109.453 229.473 109.773 229.14C110.106 228.807 110.526 228.64 111.033 228.64C111.446 228.64 111.773 228.773 112.013 229.04C112.253 229.293 112.373 229.6 112.373 229.96C112.373 230.467 112.22 230.893 111.913 231.24C111.606 231.573 111.173 231.74 110.613 231.74ZM117.598 236.06C118.092 235.327 118.678 234.74 119.358 234.3C120.038 233.86 120.752 233.64 121.498 233.64C123.152 233.64 123.978 234.62 123.978 236.58C123.978 237.1 123.812 238.26 123.478 240.06C123.425 240.407 123.378 240.673 123.338 240.86C123.152 241.913 123.052 242.673 123.038 243.14V243.22C123.038 243.553 123.145 243.72 123.358 243.72C123.478 243.72 123.605 243.687 123.738 243.62C123.872 243.553 124.045 243.433 124.258 243.26L124.538 243.88C124.338 244.16 124.012 244.453 123.558 244.76C123.105 245.053 122.552 245.2 121.898 245.2C121.272 245.2 120.838 245.067 120.598 244.8C120.358 244.52 120.238 244.153 120.238 243.7C120.252 243.3 120.378 242.507 120.618 241.32L120.738 240.64C120.765 240.52 120.818 240.2 120.898 239.68C120.992 239.16 121.065 238.667 121.118 238.2C121.172 237.72 121.198 237.307 121.198 236.96C121.198 236.347 121.125 235.927 120.978 235.7C120.845 235.473 120.598 235.36 120.238 235.36C119.798 235.36 119.305 235.607 118.758 236.1C118.225 236.593 117.765 237.187 117.378 237.88L116.418 245H113.798L115.078 235.48L114.058 234.94L114.218 234.12L117.338 233.64L117.798 233.86L117.598 236.06ZM135.116 242.98C135.103 243.033 135.096 243.113 135.096 243.22C135.096 243.553 135.209 243.72 135.436 243.72C135.663 243.72 135.963 243.567 136.336 243.26L136.616 243.88C135.869 244.76 135.043 245.2 134.136 245.2C133.669 245.2 133.316 245.087 133.076 244.86C132.836 244.633 132.696 244.287 132.656 243.82V243.52C132.323 243.987 131.876 244.387 131.316 244.72C130.756 245.04 130.116 245.2 129.396 245.2C128.276 245.2 127.443 244.82 126.896 244.06C126.349 243.287 126.076 242.28 126.076 241.04C126.076 239.8 126.323 238.613 126.816 237.48C127.309 236.347 128.043 235.427 129.016 234.72C130.003 234 131.189 233.64 132.576 233.64C132.963 233.64 133.369 233.693 133.796 233.8L134.296 230.42L132.856 230.02L133.036 229.28L136.636 228.88L137.136 229.14L135.116 242.98ZM133.596 235.16C133.263 234.973 132.843 234.88 132.336 234.88C131.523 234.88 130.856 235.193 130.336 235.82C129.816 236.433 129.436 237.2 129.196 238.12C128.956 239.04 128.836 239.973 128.836 240.92C128.836 241.8 128.969 242.48 129.236 242.96C129.516 243.44 129.909 243.68 130.416 243.68C130.829 243.68 131.223 243.553 131.596 243.3C131.969 243.033 132.276 242.72 132.516 242.36L133.596 235.16ZM146.648 243C146.302 243.547 145.735 244.06 144.948 244.54C144.175 245.02 143.275 245.26 142.248 245.26C141.288 245.26 140.495 245.053 139.868 244.64C139.255 244.227 138.808 243.687 138.528 243.02C138.248 242.353 138.108 241.627 138.108 240.84C138.108 239.507 138.375 238.293 138.908 237.2C139.455 236.093 140.195 235.22 141.128 234.58C142.062 233.94 143.102 233.62 144.248 233.62C145.275 233.62 146.035 233.86 146.528 234.34C147.035 234.807 147.288 235.42 147.288 236.18C147.288 237.14 146.942 237.94 146.248 238.58C145.555 239.22 144.722 239.7 143.748 240.02C142.775 240.327 141.855 240.493 140.988 240.52C140.962 241.48 141.115 242.253 141.448 242.84C141.795 243.427 142.315 243.72 143.008 243.72C144.155 243.72 145.195 243.187 146.128 242.12L146.648 243ZM143.648 234.86C142.862 234.86 142.242 235.333 141.788 236.28C141.335 237.227 141.068 238.28 140.988 239.44C141.508 239.413 142.055 239.273 142.628 239.02C143.215 238.767 143.702 238.413 144.088 237.96C144.488 237.493 144.688 236.96 144.688 236.36C144.688 235.88 144.595 235.513 144.408 235.26C144.235 234.993 143.982 234.86 143.648 234.86ZM152.377 236.52C152.631 235.76 153.064 235.093 153.677 234.52C154.304 233.933 155.004 233.64 155.777 233.64C156.044 233.64 156.271 233.7 156.457 233.82L155.877 236.7C155.797 236.633 155.664 236.573 155.477 236.52C155.304 236.453 155.091 236.42 154.837 236.42C154.357 236.42 153.897 236.527 153.457 236.74C153.017 236.94 152.677 237.233 152.437 237.62L151.457 245H148.857L150.117 235.5L149.097 234.94L149.237 234.14L152.097 233.66L152.557 233.94L152.457 235.76L152.377 236.52ZM160.899 236.06C161.392 235.327 161.979 234.74 162.659 234.3C163.339 233.86 164.052 233.64 164.799 233.64C166.452 233.64 167.279 234.62 167.279 236.58C167.279 237.1 167.112 238.26 166.779 240.06C166.726 240.407 166.679 240.673 166.639 240.86C166.452 241.913 166.352 242.673 166.339 243.14V243.22C166.339 243.553 166.446 243.72 166.659 243.72C166.779 243.72 166.906 243.687 167.039 243.62C167.172 243.553 167.346 243.433 167.559 243.26L167.839 243.88C167.639 244.16 167.312 244.453 166.859 244.76C166.406 245.053 165.852 245.2 165.199 245.2C164.572 245.2 164.139 245.067 163.899 244.8C163.659 244.52 163.539 244.153 163.539 243.7C163.552 243.3 163.679 242.507 163.919 241.32L164.039 240.64C164.066 240.52 164.119 240.2 164.199 239.68C164.292 239.16 164.366 238.667 164.419 238.2C164.472 237.72 164.499 237.307 164.499 236.96C164.499 236.347 164.426 235.927 164.279 235.7C164.146 235.473 163.899 235.36 163.539 235.36C163.099 235.36 162.606 235.607 162.059 236.1C161.526 236.593 161.066 237.187 160.679 237.88L159.719 245H157.099L158.379 235.48L157.359 234.94L157.519 234.12L160.639 233.64L161.099 233.86L160.899 236.06ZM182.703 243C182.356 243.547 181.79 244.06 181.003 244.54C180.23 245.02 179.33 245.26 178.303 245.26C177.343 245.26 176.55 245.053 175.923 244.64C175.31 244.227 174.863 243.687 174.583 243.02C174.303 242.353 174.163 241.627 174.163 240.84C174.163 239.507 174.43 238.293 174.963 237.2C175.51 236.093 176.25 235.22 177.183 234.58C178.116 233.94 179.156 233.62 180.303 233.62C181.33 233.62 182.09 233.86 182.583 234.34C183.09 234.807 183.343 235.42 183.343 236.18C183.343 237.14 182.996 237.94 182.303 238.58C181.61 239.22 180.776 239.7 179.803 240.02C178.83 240.327 177.91 240.493 177.043 240.52C177.016 241.48 177.17 242.253 177.503 242.84C177.85 243.427 178.37 243.72 179.063 243.72C180.21 243.72 181.25 243.187 182.183 242.12L182.703 243ZM179.703 234.86C178.916 234.86 178.296 235.333 177.843 236.28C177.39 237.227 177.123 238.28 177.043 239.44C177.563 239.413 178.11 239.273 178.683 239.02C179.27 238.767 179.756 238.413 180.143 237.96C180.543 237.493 180.743 236.96 180.743 236.36C180.743 235.88 180.65 235.513 180.463 235.26C180.29 234.993 180.036 234.86 179.703 234.86ZM187.932 243C187.919 243.067 187.912 243.147 187.912 243.24C187.912 243.56 188.025 243.72 188.252 243.72C188.372 243.72 188.505 243.68 188.652 243.6C188.799 243.52 188.985 243.387 189.212 243.2L189.472 243.82C189.245 244.127 188.905 244.433 188.452 244.74C188.012 245.047 187.472 245.2 186.832 245.2C186.312 245.2 185.905 245.1 185.612 244.9C185.319 244.687 185.172 244.4 185.172 244.04L185.192 243.84C185.272 243.147 185.545 241.133 186.012 237.8L186.332 235.48L185.152 234.92L185.292 234.14L188.732 233.66L189.212 233.88L187.932 243ZM188.152 231.74C187.792 231.74 187.479 231.607 187.212 231.34C186.959 231.06 186.832 230.74 186.832 230.38C186.832 229.887 186.992 229.473 187.312 229.14C187.645 228.807 188.065 228.64 188.572 228.64C188.985 228.64 189.312 228.773 189.552 229.04C189.792 229.293 189.912 229.6 189.912 229.96C189.912 230.467 189.759 230.893 189.452 231.24C189.145 231.573 188.712 231.74 188.152 231.74ZM195.137 236.06C195.631 235.327 196.217 234.74 196.897 234.3C197.577 233.86 198.291 233.64 199.037 233.64C200.691 233.64 201.517 234.62 201.517 236.58C201.517 237.1 201.351 238.26 201.017 240.06C200.964 240.407 200.917 240.673 200.877 240.86C200.691 241.913 200.591 242.673 200.577 243.14V243.22C200.577 243.553 200.684 243.72 200.897 243.72C201.017 243.72 201.144 243.687 201.277 243.62C201.411 243.553 201.584 243.433 201.797 243.26L202.077 243.88C201.877 244.16 201.551 244.453 201.097 244.76C200.644 245.053 200.091 245.2 199.437 245.2C198.811 245.2 198.377 245.067 198.137 244.8C197.897 244.52 197.777 244.153 197.777 243.7C197.791 243.3 197.917 242.507 198.157 241.32L198.277 240.64C198.304 240.52 198.357 240.2 198.437 239.68C198.531 239.16 198.604 238.667 198.657 238.2C198.711 237.72 198.737 237.307 198.737 236.96C198.737 236.347 198.664 235.927 198.517 235.7C198.384 235.473 198.137 235.36 197.777 235.36C197.337 235.36 196.844 235.607 196.297 236.1C195.764 236.593 195.304 237.187 194.917 237.88L193.957 245H191.337L192.617 235.48L191.597 234.94L191.757 234.12L194.877 233.64L195.337 233.86L195.137 236.06ZM210.521 232.94C210.655 232.14 210.915 231.42 211.301 230.78C211.701 230.14 212.208 229.633 212.821 229.26C213.435 228.887 214.121 228.7 214.881 228.7C215.588 228.7 216.148 228.78 216.561 228.94L216.001 230.54C215.615 230.247 215.168 230.1 214.661 230.1C214.168 230.1 213.808 230.287 213.581 230.66C213.368 231.033 213.208 231.607 213.101 232.38L212.901 233.84H215.101L214.841 235.34H212.701L211.601 244.22C211.388 245.86 210.901 247.233 210.141 248.34C209.395 249.447 208.395 250.007 207.141 250.02C206.835 250.033 206.515 250.02 206.181 249.98C205.835 249.94 205.561 249.893 205.361 249.84L205.881 248.16C206.055 248.24 206.308 248.327 206.641 248.42C206.961 248.527 207.221 248.58 207.421 248.58C207.781 248.58 208.061 248.4 208.261 248.04C208.475 247.693 208.628 247.167 208.721 246.46L210.101 235.34H208.821L209.001 234.46L210.361 233.88L210.521 232.94ZM218.481 243C218.468 243.067 218.461 243.147 218.461 243.24C218.461 243.56 218.575 243.72 218.801 243.72C218.921 243.72 219.055 243.68 219.201 243.6C219.348 243.52 219.535 243.387 219.761 243.2L220.021 243.82C219.795 244.127 219.455 244.433 219.001 244.74C218.561 245.047 218.021 245.2 217.381 245.2C216.861 245.2 216.455 245.1 216.161 244.9C215.868 244.687 215.721 244.4 215.721 244.04L215.741 243.84C215.821 243.147 216.095 241.133 216.561 237.8L216.881 235.48L215.701 234.92L215.841 234.14L219.281 233.66L219.761 233.88L218.481 243ZM218.701 231.74C218.341 231.74 218.028 231.607 217.761 231.34C217.508 231.06 217.381 230.74 217.381 230.38C217.381 229.887 217.541 229.473 217.861 229.14C218.195 228.807 218.615 228.64 219.121 228.64C219.535 228.64 219.861 228.773 220.101 229.04C220.341 229.293 220.461 229.6 220.461 229.96C220.461 230.467 220.308 230.893 220.001 231.24C219.695 231.573 219.261 231.74 218.701 231.74ZM225.684 236.06C226.178 235.327 226.764 234.74 227.444 234.3C228.124 233.86 228.838 233.64 229.584 233.64C231.238 233.64 232.064 234.62 232.064 236.58C232.064 237.1 231.898 238.26 231.564 240.06C231.511 240.407 231.464 240.673 231.424 240.86C231.238 241.913 231.138 242.673 231.124 243.14V243.22C231.124 243.553 231.231 243.72 231.444 243.72C231.564 243.72 231.691 243.687 231.824 243.62C231.958 243.553 232.131 243.433 232.344 243.26L232.624 243.88C232.424 244.16 232.098 244.453 231.644 244.76C231.191 245.053 230.638 245.2 229.984 245.2C229.358 245.2 228.924 245.067 228.684 244.8C228.444 244.52 228.324 244.153 228.324 243.7C228.338 243.3 228.464 242.507 228.704 241.32L228.824 240.64C228.851 240.52 228.904 240.2 228.984 239.68C229.078 239.16 229.151 238.667 229.204 238.2C229.258 237.72 229.284 237.307 229.284 236.96C229.284 236.347 229.211 235.927 229.064 235.7C228.931 235.473 228.684 235.36 228.324 235.36C227.884 235.36 227.391 235.607 226.844 236.1C226.311 236.593 225.851 237.187 225.464 237.88L224.504 245H221.884L223.164 235.48L222.144 234.94L222.304 234.12L225.424 233.64L225.884 233.86L225.684 236.06ZM243.022 242.96C243.009 243.013 243.002 243.093 243.002 243.2C243.002 243.547 243.135 243.72 243.402 243.72C243.615 243.72 243.915 243.56 244.302 243.24L244.582 243.86C244.409 244.127 244.095 244.42 243.642 244.74C243.202 245.047 242.689 245.2 242.102 245.2C241.649 245.2 241.289 245.1 241.022 244.9C240.755 244.7 240.615 244.393 240.602 243.98L240.642 243.64C240.269 244.08 239.815 244.453 239.282 244.76C238.749 245.053 238.162 245.2 237.522 245.2C236.402 245.2 235.562 244.82 235.002 244.06C234.455 243.287 234.182 242.28 234.182 241.04C234.182 239.813 234.435 238.633 234.942 237.5C235.462 236.367 236.215 235.44 237.202 234.72C238.189 234 239.362 233.64 240.722 233.64C241.069 233.64 241.442 233.68 241.842 233.76C242.255 233.84 242.615 233.933 242.922 234.04L244.302 233.64L243.022 242.96ZM241.482 235.06C241.229 234.94 240.902 234.88 240.502 234.88C239.702 234.88 239.035 235.187 238.502 235.8C237.969 236.4 237.575 237.167 237.322 238.1C237.082 239.02 236.962 239.953 236.962 240.9C236.962 241.78 237.095 242.467 237.362 242.96C237.629 243.44 238.022 243.68 238.542 243.68C238.875 243.68 239.209 243.567 239.542 243.34C239.889 243.113 240.195 242.847 240.462 242.54L241.482 235.06ZM250.02 236.06C250.514 235.327 251.1 234.74 251.78 234.3C252.46 233.86 253.174 233.64 253.92 233.64C255.574 233.64 256.4 234.62 256.4 236.58C256.4 237.1 256.234 238.26 255.9 240.06C255.847 240.407 255.8 240.673 255.76 240.86C255.574 241.913 255.474 242.673 255.46 243.14V243.22C255.46 243.553 255.567 243.72 255.78 243.72C255.9 243.72 256.027 243.687 256.16 243.62C256.294 243.553 256.467 243.433 256.68 243.26L256.96 243.88C256.76 244.16 256.434 244.453 255.98 244.76C255.527 245.053 254.974 245.2 254.32 245.2C253.694 245.2 253.26 245.067 253.02 244.8C252.78 244.52 252.66 244.153 252.66 243.7C252.674 243.3 252.8 242.507 253.04 241.32L253.16 240.64C253.187 240.52 253.24 240.2 253.32 239.68C253.414 239.16 253.487 238.667 253.54 238.2C253.594 237.72 253.62 237.307 253.62 236.96C253.62 236.347 253.547 235.927 253.4 235.7C253.267 235.473 253.02 235.36 252.66 235.36C252.22 235.36 251.727 235.607 251.18 236.1C250.647 236.593 250.187 237.187 249.8 237.88L248.84 245H246.22L247.5 235.48L246.48 234.94L246.64 234.12L249.76 233.64L250.22 233.86L250.02 236.06ZM263.578 235.96C262.498 235.933 261.811 235.927 261.518 235.94C261.078 235.953 260.718 236.12 260.438 236.44C260.171 236.747 260.025 237.127 259.998 237.58H259.198C259.171 237.287 259.158 236.987 259.158 236.68C259.158 236.027 259.211 235.427 259.318 234.88C259.438 234.333 259.631 233.993 259.898 233.86C260.125 233.727 260.438 233.66 260.838 233.66C261.545 233.66 262.585 233.72 263.958 233.84C264.265 233.853 264.698 233.88 265.258 233.92C265.831 233.96 266.251 233.98 266.518 233.98C266.971 233.98 267.325 233.873 267.578 233.66L268.078 234.2L262.258 241.52L260.778 242.9L264.378 242.94C264.898 242.94 265.305 242.787 265.598 242.48C265.891 242.16 266.071 241.74 266.138 241.22H266.918C266.931 241.353 266.938 241.587 266.938 241.92C266.938 242.627 266.878 243.28 266.758 243.88C266.651 244.467 266.458 244.847 266.178 245.02C266.005 245.153 265.671 245.22 265.178 245.22C264.418 245.22 263.318 245.16 261.878 245.04C261.545 245.027 261.078 245 260.478 244.96C259.891 244.92 259.471 244.9 259.218 244.9C259.045 244.9 258.858 244.927 258.658 244.98C258.471 245.033 258.318 245.113 258.198 245.22L257.618 244.66L264.018 236.84L265.098 235.98L263.578 235.96ZM271.819 243C271.805 243.067 271.799 243.147 271.799 243.24C271.799 243.56 271.912 243.72 272.139 243.72C272.259 243.72 272.392 243.68 272.539 243.6C272.685 243.52 272.872 243.387 273.099 243.2L273.359 243.82C273.132 244.127 272.792 244.433 272.339 244.74C271.899 245.047 271.359 245.2 270.719 245.2C270.199 245.2 269.792 245.1 269.499 244.9C269.205 244.687 269.059 244.4 269.059 244.04L269.079 243.84C269.159 243.147 269.432 241.133 269.899 237.8L270.219 235.48L269.039 234.92L269.179 234.14L272.619 233.66L273.099 233.88L271.819 243ZM272.039 231.74C271.679 231.74 271.365 231.607 271.099 231.34C270.845 231.06 270.719 230.74 270.719 230.38C270.719 229.887 270.879 229.473 271.199 229.14C271.532 228.807 271.952 228.64 272.459 228.64C272.872 228.64 273.199 228.773 273.439 229.04C273.679 229.293 273.799 229.6 273.799 229.96C273.799 230.467 273.645 230.893 273.339 231.24C273.032 231.573 272.599 231.74 272.039 231.74ZM283.484 243C283.137 243.547 282.571 244.06 281.784 244.54C281.011 245.02 280.111 245.26 279.084 245.26C278.124 245.26 277.331 245.053 276.704 244.64C276.091 244.227 275.644 243.687 275.364 243.02C275.084 242.353 274.944 241.627 274.944 240.84C274.944 239.507 275.211 238.293 275.744 237.2C276.291 236.093 277.031 235.22 277.964 234.58C278.897 233.94 279.937 233.62 281.084 233.62C282.111 233.62 282.871 233.86 283.364 234.34C283.871 234.807 284.124 235.42 284.124 236.18C284.124 237.14 283.777 237.94 283.084 238.58C282.391 239.22 281.557 239.7 280.584 240.02C279.611 240.327 278.691 240.493 277.824 240.52C277.797 241.48 277.951 242.253 278.284 242.84C278.631 243.427 279.151 243.72 279.844 243.72C280.991 243.72 282.031 243.187 282.964 242.12L283.484 243ZM280.484 234.86C279.697 234.86 279.077 235.333 278.624 236.28C278.171 237.227 277.904 238.28 277.824 239.44C278.344 239.413 278.891 239.273 279.464 239.02C280.051 238.767 280.537 238.413 280.924 237.96C281.324 237.493 281.524 236.96 281.524 236.36C281.524 235.88 281.431 235.513 281.244 235.26C281.071 234.993 280.817 234.86 280.484 234.86ZM288.453 243C288.44 243.053 288.433 243.127 288.433 243.22C288.433 243.553 288.553 243.72 288.793 243.72C288.913 243.72 289.04 243.687 289.173 243.62C289.32 243.553 289.513 243.413 289.753 243.2L290.013 243.82C289.8 244.127 289.487 244.433 289.073 244.74C288.66 245.047 288.127 245.2 287.473 245.2C286.967 245.2 286.553 245.1 286.233 244.9C285.913 244.687 285.747 244.36 285.733 243.92C285.733 243.867 285.76 243.627 285.813 243.2L287.553 230.42L286.293 230.02L286.473 229.28L289.873 228.88L290.333 229.14L288.453 243ZM294.547 243C294.534 243.053 294.527 243.127 294.527 243.22C294.527 243.553 294.647 243.72 294.887 243.72C295.007 243.72 295.134 243.687 295.267 243.62C295.414 243.553 295.607 243.413 295.847 243.2L296.107 243.82C295.894 244.127 295.58 244.433 295.167 244.74C294.754 245.047 294.22 245.2 293.567 245.2C293.06 245.2 292.647 245.1 292.327 244.9C292.007 244.687 291.84 244.36 291.827 243.92C291.827 243.867 291.854 243.627 291.907 243.2L293.647 230.42L292.387 230.02L292.567 229.28L295.967 228.88L296.427 229.14L294.547 243ZM306.121 243C305.774 243.547 305.208 244.06 304.421 244.54C303.648 245.02 302.748 245.26 301.721 245.26C300.761 245.26 299.968 245.053 299.341 244.64C298.728 244.227 298.281 243.687 298.001 243.02C297.721 242.353 297.581 241.627 297.581 240.84C297.581 239.507 297.848 238.293 298.381 237.2C298.928 236.093 299.668 235.22 300.601 234.58C301.534 233.94 302.574 233.62 303.721 233.62C304.748 233.62 305.508 233.86 306.001 234.34C306.508 234.807 306.761 235.42 306.761 236.18C306.761 237.14 306.414 237.94 305.721 238.58C305.028 239.22 304.194 239.7 303.221 240.02C302.248 240.327 301.328 240.493 300.461 240.52C300.434 241.48 300.588 242.253 300.921 242.84C301.268 243.427 301.788 243.72 302.481 243.72C303.628 243.72 304.668 243.187 305.601 242.12L306.121 243ZM303.121 234.86C302.334 234.86 301.714 235.333 301.261 236.28C300.808 237.227 300.541 238.28 300.461 239.44C300.981 239.413 301.528 239.273 302.101 239.02C302.688 238.767 303.174 238.413 303.561 237.96C303.961 237.493 304.161 236.96 304.161 236.36C304.161 235.88 304.068 235.513 303.881 235.26C303.708 234.993 303.454 234.86 303.121 234.86ZM314.93 235.8C314.77 235.613 314.503 235.42 314.13 235.22C313.77 235.02 313.35 234.92 312.87 234.92C312.337 234.92 311.903 235.04 311.57 235.28C311.25 235.507 311.09 235.847 311.09 236.3C311.09 236.7 311.223 237.06 311.49 237.38C311.77 237.687 312.217 238.06 312.83 238.5C313.51 239.007 314.03 239.5 314.39 239.98C314.75 240.447 314.93 241.047 314.93 241.78C314.93 242.513 314.73 243.14 314.33 243.66C313.93 244.167 313.397 244.553 312.73 244.82C312.063 245.073 311.33 245.2 310.53 245.2C309.93 245.2 309.317 245.133 308.69 245C308.063 244.853 307.657 244.7 307.47 244.54L307.87 242.84C308.15 243.08 308.53 243.307 309.01 243.52C309.49 243.733 309.99 243.84 310.51 243.84C311.003 243.84 311.423 243.727 311.77 243.5C312.13 243.273 312.31 242.92 312.31 242.44C312.31 242.027 312.157 241.653 311.85 241.32C311.543 240.987 311.083 240.607 310.47 240.18C309.91 239.793 309.437 239.34 309.05 238.82C308.677 238.287 308.49 237.647 308.49 236.9C308.49 236.26 308.67 235.693 309.03 235.2C309.403 234.707 309.91 234.327 310.55 234.06C311.203 233.78 311.95 233.64 312.79 233.64C313.283 233.64 313.783 233.68 314.29 233.76C314.797 233.84 315.137 233.927 315.31 234.02L314.93 235.8ZM65.7968 255.14L65.5568 258.56H63.9168L63.5368 256.42L59.6368 256.2L58.9368 261.52L63.4768 261.22L63.2168 263.14L58.7568 262.9L58.0368 268.7L63.0568 268.42L64.1168 265.82L65.7768 266L65.0368 270H53.5568L53.6768 269.08L55.1968 268.82L56.8168 256.36L55.4168 256.12L55.5368 255.14H65.7968ZM70.7173 261.52C70.9706 260.76 71.4039 260.093 72.0173 259.52C72.6439 258.933 73.3439 258.64 74.1173 258.64C74.3839 258.64 74.6106 258.7 74.7973 258.82L74.2173 261.7C74.1373 261.633 74.0039 261.573 73.8173 261.52C73.6439 261.453 73.4306 261.42 73.1773 261.42C72.6973 261.42 72.2373 261.527 71.7973 261.74C71.3573 261.94 71.0173 262.233 70.7773 262.62L69.7973 270H67.1973L68.4573 260.5L67.4373 259.94L67.5773 259.14L70.4373 258.66L70.8973 258.94L70.7973 260.76L70.7173 261.52ZM79.139 259.94C79.499 259.567 79.9257 259.26 80.419 259.02C80.9257 258.767 81.4723 258.64 82.059 258.64C83.1657 258.64 83.999 259.013 84.559 259.76C85.119 260.493 85.399 261.533 85.399 262.88C85.399 264.147 85.1323 265.34 84.599 266.46C84.079 267.58 83.3257 268.487 82.339 269.18C81.3523 269.86 80.2057 270.2 78.899 270.2C78.5257 270.2 78.119 270.153 77.679 270.06C77.2523 269.967 76.8657 269.86 76.519 269.74L75.299 270.14L77.199 255.4L76.199 255L76.379 254.24L79.419 253.88L79.899 254.14L79.139 259.94ZM77.979 268.74C78.2457 268.887 78.6323 268.96 79.139 268.96C79.9257 268.96 80.579 268.667 81.099 268.08C81.6323 267.493 82.0257 266.74 82.279 265.82C82.5323 264.887 82.659 263.92 82.659 262.92C82.659 262.107 82.519 261.447 82.239 260.94C81.959 260.42 81.559 260.16 81.039 260.16C80.6257 260.16 80.239 260.287 79.879 260.54C79.519 260.78 79.2057 261.073 78.939 261.42L77.979 268.74ZM95.3591 268C95.0125 268.547 94.4458 269.06 93.6591 269.54C92.8858 270.02 91.9858 270.26 90.9591 270.26C89.9991 270.26 89.2058 270.053 88.5791 269.64C87.9658 269.227 87.5191 268.687 87.2391 268.02C86.9591 267.353 86.8191 266.627 86.8191 265.84C86.8191 264.507 87.0858 263.293 87.6191 262.2C88.1658 261.093 88.9058 260.22 89.8391 259.58C90.7725 258.94 91.8125 258.62 92.9591 258.62C93.9858 258.62 94.7458 258.86 95.2391 259.34C95.7458 259.807 95.9991 260.42 95.9991 261.18C95.9991 262.14 95.6525 262.94 94.9591 263.58C94.2658 264.22 93.4325 264.7 92.4591 265.02C91.4858 265.327 90.5658 265.493 89.6991 265.52C89.6725 266.48 89.8258 267.253 90.1591 267.84C90.5058 268.427 91.0258 268.72 91.7191 268.72C92.8658 268.72 93.9058 268.187 94.8391 267.12L95.3591 268ZM92.3591 259.86C91.5725 259.86 90.9525 260.333 90.4991 261.28C90.0458 262.227 89.7791 263.28 89.6991 264.44C90.2191 264.413 90.7658 264.273 91.3391 264.02C91.9258 263.767 92.4125 263.413 92.7991 262.96C93.1991 262.493 93.3991 261.96 93.3991 261.36C93.3991 260.88 93.3058 260.513 93.1191 260.26C92.9458 259.993 92.6925 259.86 92.3591 259.86ZM105.934 261.2C106.428 260.427 107.014 259.807 107.694 259.34C108.388 258.873 109.121 258.64 109.894 258.64C110.681 258.64 111.288 258.867 111.714 259.32C112.154 259.773 112.374 260.527 112.374 261.58C112.374 261.993 112.294 262.647 112.134 263.54C111.988 264.433 111.908 264.94 111.894 265.06L111.774 265.7C111.694 266.14 111.614 266.593 111.534 267.06C111.468 267.527 111.434 267.907 111.434 268.2C111.434 268.56 111.548 268.74 111.774 268.74C111.894 268.74 112.021 268.707 112.154 268.64C112.288 268.56 112.474 268.427 112.714 268.24L112.974 268.86C112.801 269.127 112.481 269.42 112.014 269.74C111.548 270.047 110.988 270.2 110.334 270.2C109.681 270.2 109.234 270.073 108.994 269.82C108.754 269.553 108.634 269.18 108.634 268.7C108.648 268.3 108.774 267.507 109.014 266.32L109.134 265.64C109.161 265.52 109.214 265.2 109.294 264.68C109.388 264.16 109.461 263.667 109.514 263.2C109.568 262.72 109.594 262.307 109.594 261.96C109.594 261.347 109.521 260.927 109.374 260.7C109.228 260.473 108.981 260.36 108.634 260.36C108.181 260.36 107.674 260.62 107.114 261.14C106.568 261.647 106.101 262.267 105.714 263L104.834 270H102.174L103.994 255.42L102.794 255.02L102.934 254.28L106.354 253.88L106.834 254.14L105.934 261.2ZM117.815 268C117.802 268.067 117.795 268.147 117.795 268.24C117.795 268.56 117.908 268.72 118.135 268.72C118.255 268.72 118.388 268.68 118.535 268.6C118.682 268.52 118.868 268.387 119.095 268.2L119.355 268.82C119.128 269.127 118.788 269.433 118.335 269.74C117.895 270.047 117.355 270.2 116.715 270.2C116.195 270.2 115.788 270.1 115.495 269.9C115.202 269.687 115.055 269.4 115.055 269.04L115.075 268.84C115.155 268.147 115.428 266.133 115.895 262.8L116.215 260.48L115.035 259.92L115.175 259.14L118.615 258.66L119.095 258.88L117.815 268ZM118.035 256.74C117.675 256.74 117.362 256.607 117.095 256.34C116.842 256.06 116.715 255.74 116.715 255.38C116.715 254.887 116.875 254.473 117.195 254.14C117.528 253.807 117.948 253.64 118.455 253.64C118.868 253.64 119.195 253.773 119.435 254.04C119.675 254.293 119.795 254.6 119.795 254.96C119.795 255.467 119.642 255.893 119.335 256.24C119.028 256.573 118.595 256.74 118.035 256.74ZM125.02 261.06C125.514 260.327 126.1 259.74 126.78 259.3C127.46 258.86 128.174 258.64 128.92 258.64C130.574 258.64 131.4 259.62 131.4 261.58C131.4 262.1 131.234 263.26 130.9 265.06C130.847 265.407 130.8 265.673 130.76 265.86C130.574 266.913 130.474 267.673 130.46 268.14V268.22C130.46 268.553 130.567 268.72 130.78 268.72C130.9 268.72 131.027 268.687 131.16 268.62C131.294 268.553 131.467 268.433 131.68 268.26L131.96 268.88C131.76 269.16 131.434 269.453 130.98 269.76C130.527 270.053 129.974 270.2 129.32 270.2C128.694 270.2 128.26 270.067 128.02 269.8C127.78 269.52 127.66 269.153 127.66 268.7C127.674 268.3 127.8 267.507 128.04 266.32L128.16 265.64C128.187 265.52 128.24 265.2 128.32 264.68C128.414 264.16 128.487 263.667 128.54 263.2C128.594 262.72 128.62 262.307 128.62 261.96C128.62 261.347 128.547 260.927 128.4 260.7C128.267 260.473 128.02 260.36 127.66 260.36C127.22 260.36 126.727 260.607 126.18 261.1C125.647 261.593 125.187 262.187 124.8 262.88L123.84 270H121.22L122.5 260.48L121.48 259.94L121.64 259.12L124.76 258.64L125.22 258.86L125.02 261.06ZM136.858 266.34C136.765 267.113 136.718 267.58 136.718 267.74C136.718 268.047 136.778 268.267 136.898 268.4C137.018 268.52 137.225 268.58 137.518 268.58C137.785 268.58 138.085 268.52 138.418 268.4C138.765 268.267 139.051 268.107 139.278 267.92L139.498 268.66C139.151 269.047 138.658 269.4 138.018 269.72C137.378 270.04 136.658 270.2 135.858 270.2C135.298 270.2 134.851 270.06 134.518 269.78C134.198 269.487 134.038 269.027 134.038 268.4C134.038 268.133 134.105 267.507 134.238 266.52L135.078 260.32H133.878L134.098 259.36L135.298 258.94C135.698 258.567 136.171 257.647 136.718 256.18H138.218L137.878 258.9H140.278L140.078 260.32H137.678L136.858 266.34ZM149.187 268C148.841 268.547 148.274 269.06 147.487 269.54C146.714 270.02 145.814 270.26 144.787 270.26C143.827 270.26 143.034 270.053 142.407 269.64C141.794 269.227 141.347 268.687 141.067 268.02C140.787 267.353 140.647 266.627 140.647 265.84C140.647 264.507 140.914 263.293 141.447 262.2C141.994 261.093 142.734 260.22 143.667 259.58C144.601 258.94 145.641 258.62 146.787 258.62C147.814 258.62 148.574 258.86 149.067 259.34C149.574 259.807 149.827 260.42 149.827 261.18C149.827 262.14 149.481 262.94 148.787 263.58C148.094 264.22 147.261 264.7 146.287 265.02C145.314 265.327 144.394 265.493 143.527 265.52C143.501 266.48 143.654 267.253 143.987 267.84C144.334 268.427 144.854 268.72 145.547 268.72C146.694 268.72 147.734 268.187 148.667 267.12L149.187 268ZM146.187 259.86C145.401 259.86 144.781 260.333 144.327 261.28C143.874 262.227 143.607 263.28 143.527 264.44C144.047 264.413 144.594 264.273 145.167 264.02C145.754 263.767 146.241 263.413 146.627 262.96C147.027 262.493 147.227 261.96 147.227 261.36C147.227 260.88 147.134 260.513 146.947 260.26C146.774 259.993 146.521 259.86 146.187 259.86ZM154.916 261.52C155.17 260.76 155.603 260.093 156.216 259.52C156.843 258.933 157.543 258.64 158.316 258.64C158.583 258.64 158.81 258.7 158.996 258.82L158.416 261.7C158.336 261.633 158.203 261.573 158.016 261.52C157.843 261.453 157.63 261.42 157.376 261.42C156.896 261.42 156.436 261.527 155.996 261.74C155.556 261.94 155.216 262.233 154.976 262.62L153.996 270H151.396L152.656 260.5L151.636 259.94L151.776 259.14L154.636 258.66L155.096 258.94L154.996 260.76L154.916 261.52ZM162.418 268C162.405 268.053 162.398 268.127 162.398 268.22C162.398 268.553 162.518 268.72 162.758 268.72C162.878 268.72 163.005 268.687 163.138 268.62C163.285 268.553 163.478 268.413 163.718 268.2L163.978 268.82C163.765 269.127 163.452 269.433 163.038 269.74C162.625 270.047 162.092 270.2 161.438 270.2C160.932 270.2 160.518 270.1 160.198 269.9C159.878 269.687 159.712 269.36 159.698 268.92C159.698 268.867 159.725 268.627 159.778 268.2L161.518 255.42L160.258 255.02L160.438 254.28L163.838 253.88L164.298 254.14L162.418 268ZM174.272 267.96C174.259 268.013 174.252 268.093 174.252 268.2C174.252 268.547 174.385 268.72 174.652 268.72C174.865 268.72 175.165 268.56 175.552 268.24L175.832 268.86C175.659 269.127 175.345 269.42 174.892 269.74C174.452 270.047 173.939 270.2 173.352 270.2C172.899 270.2 172.539 270.1 172.272 269.9C172.005 269.7 171.865 269.393 171.852 268.98L171.892 268.64C171.519 269.08 171.065 269.453 170.532 269.76C169.999 270.053 169.412 270.2 168.772 270.2C167.652 270.2 166.812 269.82 166.252 269.06C165.705 268.287 165.432 267.28 165.432 266.04C165.432 264.813 165.685 263.633 166.192 262.5C166.712 261.367 167.465 260.44 168.452 259.72C169.439 259 170.612 258.64 171.972 258.64C172.319 258.64 172.692 258.68 173.092 258.76C173.505 258.84 173.865 258.933 174.172 259.04L175.552 258.64L174.272 267.96ZM172.732 260.06C172.479 259.94 172.152 259.88 171.752 259.88C170.952 259.88 170.285 260.187 169.752 260.8C169.219 261.4 168.825 262.167 168.572 263.1C168.332 264.02 168.212 264.953 168.212 265.9C168.212 266.78 168.345 267.467 168.612 267.96C168.879 268.44 169.272 268.68 169.792 268.68C170.125 268.68 170.459 268.567 170.792 268.34C171.139 268.113 171.445 267.847 171.712 267.54L172.732 260.06ZM184.09 260.8C183.93 260.613 183.664 260.42 183.29 260.22C182.93 260.02 182.51 259.92 182.03 259.92C181.497 259.92 181.064 260.04 180.73 260.28C180.41 260.507 180.25 260.847 180.25 261.3C180.25 261.7 180.384 262.06 180.65 262.38C180.93 262.687 181.377 263.06 181.99 263.5C182.67 264.007 183.19 264.5 183.55 264.98C183.91 265.447 184.09 266.047 184.09 266.78C184.09 267.513 183.89 268.14 183.49 268.66C183.09 269.167 182.557 269.553 181.89 269.82C181.224 270.073 180.49 270.2 179.69 270.2C179.09 270.2 178.477 270.133 177.85 270C177.224 269.853 176.817 269.7 176.63 269.54L177.03 267.84C177.31 268.08 177.69 268.307 178.17 268.52C178.65 268.733 179.15 268.84 179.67 268.84C180.164 268.84 180.584 268.727 180.93 268.5C181.29 268.273 181.47 267.92 181.47 267.44C181.47 267.027 181.317 266.653 181.01 266.32C180.704 265.987 180.244 265.607 179.63 265.18C179.07 264.793 178.597 264.34 178.21 263.82C177.837 263.287 177.65 262.647 177.65 261.9C177.65 261.26 177.83 260.693 178.19 260.2C178.564 259.707 179.07 259.327 179.71 259.06C180.364 258.78 181.11 258.64 181.95 258.64C182.444 258.64 182.944 258.68 183.45 258.76C183.957 258.84 184.297 258.927 184.47 259.02L184.09 260.8ZM192.625 260.8C192.465 260.613 192.199 260.42 191.825 260.22C191.465 260.02 191.045 259.92 190.565 259.92C190.032 259.92 189.599 260.04 189.265 260.28C188.945 260.507 188.785 260.847 188.785 261.3C188.785 261.7 188.919 262.06 189.185 262.38C189.465 262.687 189.912 263.06 190.525 263.5C191.205 264.007 191.725 264.5 192.085 264.98C192.445 265.447 192.625 266.047 192.625 266.78C192.625 267.513 192.425 268.14 192.025 268.66C191.625 269.167 191.092 269.553 190.425 269.82C189.759 270.073 189.025 270.2 188.225 270.2C187.625 270.2 187.012 270.133 186.385 270C185.759 269.853 185.352 269.7 185.165 269.54L185.565 267.84C185.845 268.08 186.225 268.307 186.705 268.52C187.185 268.733 187.685 268.84 188.205 268.84C188.699 268.84 189.119 268.727 189.465 268.5C189.825 268.273 190.005 267.92 190.005 267.44C190.005 267.027 189.852 266.653 189.545 266.32C189.239 265.987 188.779 265.607 188.165 265.18C187.605 264.793 187.132 264.34 186.745 263.82C186.372 263.287 186.185 262.647 186.185 261.9C186.185 261.26 186.365 260.693 186.725 260.2C187.099 259.707 187.605 259.327 188.245 259.06C188.899 258.78 189.645 258.64 190.485 258.64C190.979 258.64 191.479 258.68 191.985 258.76C192.492 258.84 192.832 258.927 193.005 259.02L192.625 260.8ZM202.801 268C202.454 268.547 201.887 269.06 201.101 269.54C200.327 270.02 199.427 270.26 198.401 270.26C197.441 270.26 196.647 270.053 196.021 269.64C195.407 269.227 194.961 268.687 194.681 268.02C194.401 267.353 194.261 266.627 194.261 265.84C194.261 264.507 194.527 263.293 195.061 262.2C195.607 261.093 196.347 260.22 197.281 259.58C198.214 258.94 199.254 258.62 200.401 258.62C201.427 258.62 202.187 258.86 202.681 259.34C203.187 259.807 203.441 260.42 203.441 261.18C203.441 262.14 203.094 262.94 202.401 263.58C201.707 264.22 200.874 264.7 199.901 265.02C198.927 265.327 198.007 265.493 197.141 265.52C197.114 266.48 197.267 267.253 197.601 267.84C197.947 268.427 198.467 268.72 199.161 268.72C200.307 268.72 201.347 268.187 202.281 267.12L202.801 268ZM199.801 259.86C199.014 259.86 198.394 260.333 197.941 261.28C197.487 262.227 197.221 263.28 197.141 264.44C197.661 264.413 198.207 264.273 198.781 264.02C199.367 263.767 199.854 263.413 200.241 262.96C200.641 262.493 200.841 261.96 200.841 261.36C200.841 260.88 200.747 260.513 200.561 260.26C200.387 259.993 200.134 259.86 199.801 259.86ZM208.79 261.06C209.283 260.327 209.87 259.74 210.55 259.3C211.23 258.86 211.943 258.64 212.69 258.64C214.343 258.64 215.17 259.62 215.17 261.58C215.17 262.1 215.003 263.26 214.67 265.06C214.616 265.407 214.57 265.673 214.53 265.86C214.343 266.913 214.243 267.673 214.23 268.14V268.22C214.23 268.553 214.336 268.72 214.55 268.72C214.67 268.72 214.796 268.687 214.93 268.62C215.063 268.553 215.236 268.433 215.45 268.26L215.73 268.88C215.53 269.16 215.203 269.453 214.75 269.76C214.296 270.053 213.743 270.2 213.09 270.2C212.463 270.2 212.03 270.067 211.79 269.8C211.55 269.52 211.43 269.153 211.43 268.7C211.443 268.3 211.57 267.507 211.81 266.32L211.93 265.64C211.956 265.52 212.01 265.2 212.09 264.68C212.183 264.16 212.256 263.667 212.31 263.2C212.363 262.72 212.39 262.307 212.39 261.96C212.39 261.347 212.316 260.927 212.17 260.7C212.036 260.473 211.79 260.36 211.43 260.36C210.99 260.36 210.496 260.607 209.95 261.1C209.416 261.593 208.956 262.187 208.57 262.88L207.61 270H204.99L206.27 260.48L205.25 259.94L205.41 259.12L208.53 258.64L208.99 258.86L208.79 261.06ZM226.894 254.14L224.774 270H222.134L224.054 255.42L222.834 255.02L222.994 254.28L226.394 253.88L226.894 254.14ZM226.154 263.74C226.74 263.407 227.24 263.08 227.654 262.76C228.067 262.44 228.48 262.007 228.894 261.46C229.227 260.993 229.407 260.46 229.434 259.86C229.447 259.447 229.594 259.147 229.874 258.96C230.167 258.773 230.487 258.68 230.834 258.68C231.18 258.68 231.454 258.787 231.654 259C231.854 259.213 231.954 259.48 231.954 259.8C231.967 260.28 231.8 260.767 231.454 261.26C231.094 261.727 230.594 262.173 229.954 262.6C229.327 263.027 228.674 263.4 227.994 263.72L230.154 267.6C230.314 267.88 230.487 268.1 230.674 268.26C230.874 268.407 231.054 268.48 231.214 268.48C231.36 268.48 231.527 268.447 231.714 268.38C231.914 268.3 232.1 268.187 232.274 268.04L232.594 268.68C232.367 269.013 231.987 269.347 231.454 269.68C230.92 270.013 230.34 270.18 229.714 270.18C229.247 270.18 228.867 270.087 228.574 269.9C228.294 269.713 228.067 269.433 227.894 269.06L225.674 264.04L226.154 263.74ZM241.87 267.96C241.856 268.013 241.85 268.093 241.85 268.2C241.85 268.547 241.983 268.72 242.25 268.72C242.463 268.72 242.763 268.56 243.15 268.24L243.43 268.86C243.256 269.127 242.943 269.42 242.49 269.74C242.05 270.047 241.536 270.2 240.95 270.2C240.496 270.2 240.136 270.1 239.87 269.9C239.603 269.7 239.463 269.393 239.45 268.98L239.49 268.64C239.116 269.08 238.663 269.453 238.13 269.76C237.596 270.053 237.01 270.2 236.37 270.2C235.25 270.2 234.41 269.82 233.85 269.06C233.303 268.287 233.03 267.28 233.03 266.04C233.03 264.813 233.283 263.633 233.79 262.5C234.31 261.367 235.063 260.44 236.05 259.72C237.036 259 238.21 258.64 239.57 258.64C239.916 258.64 240.29 258.68 240.69 258.76C241.103 258.84 241.463 258.933 241.77 259.04L243.15 258.64L241.87 267.96ZM240.33 260.06C240.076 259.94 239.75 259.88 239.35 259.88C238.55 259.88 237.883 260.187 237.35 260.8C236.816 261.4 236.423 262.167 236.17 263.1C235.93 264.02 235.81 264.953 235.81 265.9C235.81 266.78 235.943 267.467 236.21 267.96C236.476 268.44 236.87 268.68 237.39 268.68C237.723 268.68 238.056 268.567 238.39 268.34C238.736 268.113 239.043 267.847 239.31 267.54L240.33 260.06ZM248.868 261.06C249.361 260.327 249.948 259.74 250.628 259.3C251.308 258.86 252.021 258.64 252.768 258.64C254.421 258.64 255.248 259.62 255.248 261.58C255.248 262.1 255.081 263.26 254.748 265.06C254.695 265.407 254.648 265.673 254.608 265.86C254.421 266.913 254.321 267.673 254.308 268.14V268.22C254.308 268.553 254.415 268.72 254.628 268.72C254.748 268.72 254.875 268.687 255.008 268.62C255.141 268.553 255.315 268.433 255.528 268.26L255.808 268.88C255.608 269.16 255.281 269.453 254.828 269.76C254.375 270.053 253.821 270.2 253.168 270.2C252.541 270.2 252.108 270.067 251.868 269.8C251.628 269.52 251.508 269.153 251.508 268.7C251.521 268.3 251.648 267.507 251.888 266.32L252.008 265.64C252.035 265.52 252.088 265.2 252.168 264.68C252.261 264.16 252.335 263.667 252.388 263.2C252.441 262.72 252.468 262.307 252.468 261.96C252.468 261.347 252.395 260.927 252.248 260.7C252.115 260.473 251.868 260.36 251.508 260.36C251.068 260.36 250.575 260.607 250.028 261.1C249.495 261.593 249.035 262.187 248.648 262.88L247.688 270H245.068L246.348 260.48L245.328 259.94L245.488 259.12L248.608 258.64L249.068 258.86L248.868 261.06ZM261.466 261.06C261.959 260.327 262.546 259.74 263.226 259.3C263.906 258.86 264.619 258.64 265.366 258.64C267.019 258.64 267.846 259.62 267.846 261.58C267.846 262.1 267.679 263.26 267.346 265.06C267.292 265.407 267.246 265.673 267.206 265.86C267.019 266.913 266.919 267.673 266.906 268.14V268.22C266.906 268.553 267.012 268.72 267.226 268.72C267.346 268.72 267.472 268.687 267.606 268.62C267.739 268.553 267.912 268.433 268.126 268.26L268.406 268.88C268.206 269.16 267.879 269.453 267.426 269.76C266.972 270.053 266.419 270.2 265.766 270.2C265.139 270.2 264.706 270.067 264.466 269.8C264.226 269.52 264.106 269.153 264.106 268.7C264.119 268.3 264.246 267.507 264.486 266.32L264.606 265.64C264.632 265.52 264.686 265.2 264.766 264.68C264.859 264.16 264.932 263.667 264.986 263.2C265.039 262.72 265.066 262.307 265.066 261.96C265.066 261.347 264.992 260.927 264.846 260.7C264.712 260.473 264.466 260.36 264.106 260.36C263.666 260.36 263.172 260.607 262.626 261.1C262.092 261.593 261.632 262.187 261.246 262.88L260.286 270H257.666L258.946 260.48L257.926 259.94L258.086 259.12L261.206 258.64L261.666 258.86L261.466 261.06Z" fill="#394454"/>
<path d="M132.686 90.1364V84.9205L142.635 69.2727H147.368V76.2273H144.663L139.302 84.7273V84.9205H153.984V90.1364H132.686ZM144.711 94V88.5426L144.856 86.2727V69.2727H151.135V94H144.711ZM166.459 68.9347C167.9 68.9347 169.265 69.1641 170.552 69.6229C171.84 70.0736 172.979 70.786 173.969 71.7599C174.967 72.7339 175.748 74.0057 176.312 75.5753C176.883 77.1368 177.173 79.0284 177.181 81.25C177.189 83.2784 176.935 85.1016 176.42 86.7195C175.913 88.3293 175.185 89.7017 174.235 90.8366C173.293 91.9716 172.158 92.8409 170.83 93.4446C169.51 94.0402 168.037 94.3381 166.411 94.3381C164.584 94.3381 162.978 93.9879 161.594 93.2876C160.209 92.5874 159.106 91.6456 158.285 90.4624C157.464 89.2791 156.985 87.9631 156.849 86.5142H163.465C163.626 87.2628 163.98 87.8061 164.528 88.1442C165.075 88.4742 165.703 88.6392 166.411 88.6392C167.828 88.6392 168.862 88.0275 169.514 86.804C170.174 85.5724 170.508 83.9304 170.516 81.8778H170.371C170.057 82.6345 169.582 83.2824 168.947 83.8217C168.311 84.361 167.57 84.7756 166.725 85.0653C165.88 85.3551 164.986 85.5 164.045 85.5C162.555 85.5 161.251 85.166 160.133 84.4979C159.014 83.8217 158.14 82.9001 157.513 81.733C156.885 80.5578 156.567 79.2216 156.559 77.7244C156.551 75.9697 156.965 74.4323 157.802 73.1122C158.64 71.7921 159.803 70.7659 161.292 70.0334C162.781 69.3009 164.503 68.9347 166.459 68.9347ZM166.508 74.0057C165.84 74.0057 165.244 74.1586 164.721 74.4645C164.206 74.7704 163.799 75.1849 163.501 75.7081C163.211 76.2313 163.071 76.8229 163.079 77.483C163.087 78.143 163.236 78.7346 163.525 79.2578C163.823 79.781 164.226 80.1955 164.733 80.5014C165.248 80.8073 165.84 80.9602 166.508 80.9602C166.999 80.9602 167.453 80.8757 167.872 80.7067C168.291 80.5296 168.653 80.2841 168.959 79.9702C169.273 79.6482 169.514 79.2779 169.683 78.8594C169.86 78.4328 169.945 77.974 169.937 77.483C169.929 76.8229 169.776 76.2313 169.478 75.7081C169.18 75.1849 168.773 74.7704 168.258 74.4645C167.743 74.1586 167.16 74.0057 166.508 74.0057ZM194.226 89.3636V88.0597C194.226 87.0133 194.452 86.0473 194.902 85.1619C195.361 84.2765 196.025 83.5642 196.895 83.0249C197.764 82.4856 198.822 82.2159 200.07 82.2159C201.35 82.2159 202.424 82.4815 203.294 83.0128C204.171 83.544 204.835 84.2524 205.286 85.1378C205.737 86.0232 205.962 86.9972 205.962 88.0597V89.3636C205.962 90.41 205.733 91.3759 205.274 92.2614C204.823 93.1468 204.159 93.8591 203.282 94.3984C202.404 94.9377 201.334 95.2074 200.07 95.2074C198.806 95.2074 197.74 94.9377 196.87 94.3984C196.001 93.8591 195.341 93.1468 194.89 92.2614C194.448 91.3759 194.226 90.41 194.226 89.3636ZM198.428 88.0597V89.3636C198.428 89.8224 198.541 90.2772 198.766 90.728C198.999 91.1707 199.434 91.392 200.07 91.392C200.738 91.392 201.177 91.1747 201.386 90.7401C201.603 90.3054 201.712 89.8466 201.712 89.3636V88.0597C201.712 87.5767 201.611 87.1098 201.41 86.6591C201.209 86.2083 200.762 85.983 200.07 85.983C199.434 85.983 198.999 86.2083 198.766 86.6591C198.541 87.1098 198.428 87.5767 198.428 88.0597ZM181.283 75.2131V73.9091C181.283 72.8466 181.512 71.8726 181.971 70.9872C182.438 70.1018 183.106 69.3935 183.975 68.8622C184.845 68.331 185.895 68.0653 187.127 68.0653C188.407 68.0653 189.481 68.331 190.35 68.8622C191.228 69.3935 191.892 70.1018 192.343 70.9872C192.793 71.8726 193.019 72.8466 193.019 73.9091V75.2131C193.019 76.2756 192.789 77.2455 192.331 78.1229C191.88 79.0002 191.216 79.7005 190.338 80.2237C189.461 80.7469 188.391 81.0085 187.127 81.0085C185.863 81.0085 184.797 80.7429 183.927 80.2116C183.058 79.6804 182.398 78.9761 181.947 78.0987C181.504 77.2214 181.283 76.2595 181.283 75.2131ZM185.533 73.9091V75.2131C185.533 75.696 185.646 76.1548 185.871 76.5895C186.096 77.0241 186.515 77.2415 187.127 77.2415C187.795 77.2415 188.234 77.0241 188.443 76.5895C188.66 76.1548 188.769 75.696 188.769 75.2131V73.9091C188.769 73.4261 188.668 72.9593 188.467 72.5085C188.266 72.0578 187.819 71.8324 187.127 71.8324C186.491 71.8324 186.064 72.0658 185.847 72.5327C185.638 72.9915 185.533 73.4503 185.533 73.9091ZM183.336 94L200.336 69.2727H203.765L186.765 94H183.336Z" fill="#F04E5A"/>
<path d="M162 7C181.483 7 200.202 14.5818 214.193 28.1405C228.185 41.6992 236.351 60.1705 236.963 79.6442C237.575 99.1179 230.585 118.065 217.472 132.476C204.36 146.886 186.154 155.629 166.709 156.852L165.992 145.445C182.473 144.408 197.904 136.998 209.018 124.783C220.133 112.569 226.057 96.5091 225.539 80.0032C225.02 63.4973 218.098 47.8411 206.239 36.3487C194.38 24.8564 178.514 18.43 162 18.43V7Z" fill="#F04E5A"/>
</svg>
