<svg width="280" height="276" viewBox="0 0 280 276" fill="none" xmlns="http://www.w3.org/2000/svg">
<circle cx="140" cy="82" r="82" fill="#E9E9E9"/>
<path d="M38.2645 217.98C38.2511 218.033 38.2445 218.113 38.2445 218.22C38.2445 218.553 38.3578 218.72 38.5845 218.72C38.8111 218.72 39.1111 218.567 39.4845 218.26L39.7645 218.88C39.0178 219.76 38.1911 220.2 37.2845 220.2C36.8178 220.2 36.4645 220.087 36.2245 219.86C35.9845 219.633 35.8445 219.287 35.8045 218.82V218.52C35.4711 218.987 35.0245 219.387 34.4645 219.72C33.9045 220.04 33.2645 220.2 32.5445 220.2C31.4245 220.2 30.5911 219.82 30.0445 219.06C29.4978 218.287 29.2245 217.28 29.2245 216.04C29.2245 214.8 29.4711 213.613 29.9645 212.48C30.4578 211.347 31.1911 210.427 32.1645 209.72C33.1511 209 34.3378 208.64 35.7245 208.64C36.1111 208.64 36.5178 208.693 36.9445 208.8L37.4445 205.42L36.0045 205.02L36.1845 204.28L39.7845 203.88L40.2845 204.14L38.2645 217.98ZM36.7445 210.16C36.4111 209.973 35.9911 209.88 35.4845 209.88C34.6711 209.88 34.0045 210.193 33.4845 210.82C32.9645 211.433 32.5845 212.2 32.3445 213.12C32.1045 214.04 31.9845 214.973 31.9845 215.92C31.9845 216.8 32.1178 217.48 32.3845 217.96C32.6645 218.44 33.0578 218.68 33.5645 218.68C33.9778 218.68 34.3711 218.553 34.7445 218.3C35.1178 218.033 35.4245 217.72 35.6645 217.36L36.7445 210.16ZM49.7966 218C49.45 218.547 48.8833 219.06 48.0966 219.54C47.3233 220.02 46.4233 220.26 45.3966 220.26C44.4366 220.26 43.6433 220.053 43.0166 219.64C42.4033 219.227 41.9566 218.687 41.6766 218.02C41.3966 217.353 41.2566 216.627 41.2566 215.84C41.2566 214.507 41.5233 213.293 42.0566 212.2C42.6033 211.093 43.3433 210.22 44.2766 209.58C45.21 208.94 46.25 208.62 47.3966 208.62C48.4233 208.62 49.1833 208.86 49.6766 209.34C50.1833 209.807 50.4366 210.42 50.4366 211.18C50.4366 212.14 50.09 212.94 49.3966 213.58C48.7033 214.22 47.87 214.7 46.8966 215.02C45.9233 215.327 45.0033 215.493 44.1366 215.52C44.11 216.48 44.2633 217.253 44.5966 217.84C44.9433 218.427 45.4633 218.72 46.1566 218.72C47.3033 218.72 48.3433 218.187 49.2766 217.12L49.7966 218ZM46.7966 209.86C46.01 209.86 45.39 210.333 44.9366 211.28C44.4833 212.227 44.2166 213.28 44.1366 214.44C44.6566 214.413 45.2033 214.273 45.7766 214.02C46.3633 213.767 46.85 213.413 47.2366 212.96C47.6366 212.493 47.8366 211.96 47.8366 211.36C47.8366 210.88 47.7433 210.513 47.5566 210.26C47.3833 209.993 47.13 209.86 46.7966 209.86ZM54.7659 218C54.7525 218.053 54.7459 218.127 54.7459 218.22C54.7459 218.553 54.8659 218.72 55.1059 218.72C55.2259 218.72 55.3525 218.687 55.4859 218.62C55.6325 218.553 55.8259 218.413 56.0659 218.2L56.3259 218.82C56.1125 219.127 55.7992 219.433 55.3859 219.74C54.9725 220.047 54.4392 220.2 53.7859 220.2C53.2792 220.2 52.8659 220.1 52.5459 219.9C52.2259 219.687 52.0592 219.36 52.0459 218.92C52.0459 218.867 52.0725 218.627 52.1259 218.2L53.8659 205.42L52.6059 205.02L52.7859 204.28L56.1859 203.88L56.6459 204.14L54.7659 218ZM60.8596 218C60.8463 218.053 60.8396 218.127 60.8396 218.22C60.8396 218.553 60.9596 218.72 61.1996 218.72C61.3196 218.72 61.4463 218.687 61.5796 218.62C61.7263 218.553 61.9196 218.413 62.1596 218.2L62.4196 218.82C62.2063 219.127 61.8929 219.433 61.4796 219.74C61.0663 220.047 60.5329 220.2 59.8796 220.2C59.3729 220.2 58.9596 220.1 58.6396 219.9C58.3196 219.687 58.1529 219.36 58.1396 218.92C58.1396 218.867 58.1663 218.627 58.2196 218.2L59.9596 205.42L58.6996 205.02L58.8796 204.28L62.2796 203.88L62.7396 204.14L60.8596 218ZM72.4334 218C72.0867 218.547 71.52 219.06 70.7334 219.54C69.96 220.02 69.06 220.26 68.0334 220.26C67.0734 220.26 66.28 220.053 65.6534 219.64C65.04 219.227 64.5934 218.687 64.3134 218.02C64.0334 217.353 63.8934 216.627 63.8934 215.84C63.8934 214.507 64.16 213.293 64.6934 212.2C65.24 211.093 65.98 210.22 66.9134 209.58C67.8467 208.94 68.8867 208.62 70.0334 208.62C71.06 208.62 71.82 208.86 72.3134 209.34C72.82 209.807 73.0734 210.42 73.0734 211.18C73.0734 212.14 72.7267 212.94 72.0334 213.58C71.34 214.22 70.5067 214.7 69.5334 215.02C68.56 215.327 67.64 215.493 66.7734 215.52C66.7467 216.48 66.9 217.253 67.2334 217.84C67.58 218.427 68.1 218.72 68.7934 218.72C69.94 218.72 70.98 218.187 71.9134 217.12L72.4334 218ZM69.4334 209.86C68.6467 209.86 68.0267 210.333 67.5734 211.28C67.12 212.227 66.8534 213.28 66.7734 214.44C67.2934 214.413 67.84 214.273 68.4134 214.02C69 213.767 69.4867 213.413 69.8734 212.96C70.2734 212.493 70.4734 211.96 70.4734 211.36C70.4734 210.88 70.38 210.513 70.1934 210.26C70.02 209.993 69.7667 209.86 69.4334 209.86ZM81.2087 207.94C81.342 207.14 81.602 206.42 81.9887 205.78C82.3887 205.14 82.8953 204.633 83.5087 204.26C84.122 203.887 84.8087 203.7 85.5687 203.7C86.2753 203.7 86.8353 203.78 87.2487 203.94L86.6887 205.54C86.302 205.247 85.8553 205.1 85.3487 205.1C84.8553 205.1 84.4953 205.287 84.2687 205.66C84.0553 206.033 83.8953 206.607 83.7887 207.38L83.5887 208.84H85.7887L85.5287 210.34H83.3887L82.2887 219.22C82.0753 220.86 81.5887 222.233 80.8287 223.34C80.082 224.447 79.082 225.007 77.8287 225.02C77.522 225.033 77.202 225.02 76.8687 224.98C76.522 224.94 76.2487 224.893 76.0487 224.84L76.5687 223.16C76.742 223.24 76.9953 223.327 77.3287 223.42C77.6487 223.527 77.9087 223.58 78.1087 223.58C78.4687 223.58 78.7487 223.4 78.9487 223.04C79.162 222.693 79.3153 222.167 79.4087 221.46L80.7887 210.34H79.5087L79.6887 209.46L81.0487 208.88L81.2087 207.94ZM94.6665 217.96C94.6532 218.013 94.6465 218.093 94.6465 218.2C94.6465 218.547 94.7798 218.72 95.0465 218.72C95.2598 218.72 95.5598 218.56 95.9465 218.24L96.2265 218.86C96.0532 219.127 95.7398 219.42 95.2865 219.74C94.8465 220.047 94.3332 220.2 93.7465 220.2C93.2932 220.2 92.9332 220.1 92.6665 219.9C92.3998 219.7 92.2598 219.393 92.2465 218.98L92.2865 218.64C91.9132 219.08 91.4598 219.453 90.9265 219.76C90.3932 220.053 89.8065 220.2 89.1665 220.2C88.0465 220.2 87.2065 219.82 86.6465 219.06C86.0998 218.287 85.8265 217.28 85.8265 216.04C85.8265 214.813 86.0798 213.633 86.5865 212.5C87.1065 211.367 87.8598 210.44 88.8465 209.72C89.8332 209 91.0065 208.64 92.3665 208.64C92.7132 208.64 93.0865 208.68 93.4865 208.76C93.8998 208.84 94.2598 208.933 94.5665 209.04L95.9465 208.64L94.6665 217.96ZM93.1265 210.06C92.8732 209.94 92.5465 209.88 92.1465 209.88C91.3465 209.88 90.6798 210.187 90.1465 210.8C89.6132 211.4 89.2198 212.167 88.9665 213.1C88.7265 214.02 88.6065 214.953 88.6065 215.9C88.6065 216.78 88.7398 217.467 89.0065 217.96C89.2732 218.44 89.6665 218.68 90.1865 218.68C90.5198 218.68 90.8532 218.567 91.1865 218.34C91.5332 218.113 91.8398 217.847 92.1065 217.54L93.1265 210.06ZM101.665 211.08C102.145 210.36 102.718 209.773 103.385 209.32C104.051 208.867 104.751 208.64 105.485 208.64C106.231 208.64 106.811 208.84 107.225 209.24C107.651 209.627 107.898 210.253 107.965 211.12C108.431 210.347 108.998 209.74 109.665 209.3C110.345 208.86 111.078 208.64 111.865 208.64C113.531 208.64 114.365 209.62 114.365 211.58C114.365 212.007 114.231 212.993 113.965 214.54L113.885 215.06L113.785 215.58C113.558 216.82 113.438 217.673 113.425 218.14C113.425 218.527 113.538 218.72 113.765 218.72C113.885 218.72 114.011 218.687 114.145 218.62C114.291 218.54 114.485 218.4 114.725 218.2L114.985 218.82C114.798 219.1 114.471 219.4 114.005 219.72C113.538 220.04 112.978 220.2 112.325 220.2C111.698 220.2 111.265 220.073 111.025 219.82C110.785 219.567 110.665 219.227 110.665 218.8C110.665 218.533 110.705 218.147 110.785 217.64C110.865 217.12 110.951 216.6 111.045 216.08L111.125 215.62C111.285 214.713 111.398 214 111.465 213.48C111.545 212.96 111.585 212.453 111.585 211.96C111.585 211.347 111.511 210.927 111.365 210.7C111.231 210.473 110.991 210.36 110.645 210.36C110.218 210.36 109.751 210.567 109.245 210.98C108.751 211.393 108.325 211.92 107.965 212.56C107.911 213.347 107.825 214.18 107.705 215.06L107.085 220H104.385L104.965 215.64C105.205 213.987 105.325 212.733 105.325 211.88C105.311 211.267 105.225 210.86 105.065 210.66C104.918 210.46 104.651 210.36 104.265 210.36C103.838 210.36 103.351 210.593 102.805 211.06C102.271 211.527 101.825 212.087 101.465 212.74L100.465 220H97.8648L99.1448 210.48L98.1248 209.94L98.2848 209.12L101.405 208.64L101.865 208.86L101.665 211.08ZM119.831 218C119.817 218.067 119.811 218.147 119.811 218.24C119.811 218.56 119.924 218.72 120.151 218.72C120.271 218.72 120.404 218.68 120.551 218.6C120.697 218.52 120.884 218.387 121.111 218.2L121.371 218.82C121.144 219.127 120.804 219.433 120.351 219.74C119.911 220.047 119.371 220.2 118.731 220.2C118.211 220.2 117.804 220.1 117.511 219.9C117.217 219.687 117.071 219.4 117.071 219.04L117.091 218.84C117.171 218.147 117.444 216.133 117.911 212.8L118.231 210.48L117.051 209.92L117.191 209.14L120.631 208.66L121.111 208.88L119.831 218ZM120.051 206.74C119.691 206.74 119.377 206.607 119.111 206.34C118.857 206.06 118.731 205.74 118.731 205.38C118.731 204.887 118.891 204.473 119.211 204.14C119.544 203.807 119.964 203.64 120.471 203.64C120.884 203.64 121.211 203.773 121.451 204.04C121.691 204.293 121.811 204.6 121.811 204.96C121.811 205.467 121.657 205.893 121.351 206.24C121.044 206.573 120.611 206.74 120.051 206.74ZM131.516 220.76C131.316 222.28 130.663 223.367 129.556 224.02C128.449 224.687 127.183 225.02 125.756 225.02C125.316 225.02 124.843 224.973 124.336 224.88C123.843 224.8 123.496 224.713 123.296 224.62L123.756 222.74C124.009 222.9 124.396 223.08 124.916 223.28C125.436 223.48 125.936 223.58 126.416 223.58C127.189 223.58 127.756 223.427 128.116 223.12C128.476 222.813 128.709 222.233 128.816 221.38L129.116 219C128.756 219.347 128.336 219.633 127.856 219.86C127.376 220.087 126.856 220.2 126.296 220.2C125.176 220.2 124.329 219.82 123.756 219.06C123.196 218.287 122.916 217.28 122.916 216.04C122.916 214.813 123.169 213.633 123.676 212.5C124.196 211.367 124.949 210.44 125.936 209.72C126.936 209 128.116 208.64 129.476 208.64C129.849 208.64 130.249 208.687 130.676 208.78C131.103 208.86 131.476 208.96 131.796 209.08L133.216 208.64L131.516 220.76ZM130.396 210.12C130.116 209.96 129.729 209.88 129.236 209.88C128.436 209.88 127.769 210.193 127.236 210.82C126.703 211.433 126.309 212.207 126.056 213.14C125.816 214.06 125.696 214.987 125.696 215.92C125.696 216.787 125.836 217.467 126.116 217.96C126.409 218.44 126.809 218.68 127.316 218.68C127.689 218.68 128.049 218.573 128.396 218.36C128.756 218.133 129.063 217.867 129.316 217.56L130.396 210.12ZM137.696 218C137.682 218.053 137.676 218.127 137.676 218.22C137.676 218.553 137.796 218.72 138.036 218.72C138.156 218.72 138.282 218.687 138.416 218.62C138.562 218.553 138.756 218.413 138.996 218.2L139.256 218.82C139.042 219.127 138.729 219.433 138.316 219.74C137.902 220.047 137.369 220.2 136.716 220.2C136.209 220.2 135.796 220.1 135.476 219.9C135.156 219.687 134.989 219.36 134.976 218.92C134.976 218.867 135.002 218.627 135.056 218.2L136.796 205.42L135.536 205.02L135.716 204.28L139.116 203.88L139.576 204.14L137.696 218ZM144.049 218C144.036 218.067 144.029 218.147 144.029 218.24C144.029 218.56 144.143 218.72 144.369 218.72C144.489 218.72 144.623 218.68 144.769 218.6C144.916 218.52 145.103 218.387 145.329 218.2L145.589 218.82C145.363 219.127 145.023 219.433 144.569 219.74C144.129 220.047 143.589 220.2 142.949 220.2C142.429 220.2 142.023 220.1 141.729 219.9C141.436 219.687 141.289 219.4 141.289 219.04L141.309 218.84C141.389 218.147 141.663 216.133 142.129 212.8L142.449 210.48L141.269 209.92L141.409 209.14L144.849 208.66L145.329 208.88L144.049 218ZM144.269 206.74C143.909 206.74 143.596 206.607 143.329 206.34C143.076 206.06 142.949 205.74 142.949 205.38C142.949 204.887 143.109 204.473 143.429 204.14C143.763 203.807 144.183 203.64 144.689 203.64C145.103 203.64 145.429 203.773 145.669 204.04C145.909 204.293 146.029 204.6 146.029 204.96C146.029 205.467 145.876 205.893 145.569 206.24C145.263 206.573 144.829 206.74 144.269 206.74ZM155.715 218C155.368 218.547 154.801 219.06 154.015 219.54C153.241 220.02 152.341 220.26 151.315 220.26C150.355 220.26 149.561 220.053 148.935 219.64C148.321 219.227 147.875 218.687 147.595 218.02C147.315 217.353 147.175 216.627 147.175 215.84C147.175 214.507 147.441 213.293 147.975 212.2C148.521 211.093 149.261 210.22 150.195 209.58C151.128 208.94 152.168 208.62 153.315 208.62C154.341 208.62 155.101 208.86 155.595 209.34C156.101 209.807 156.355 210.42 156.355 211.18C156.355 212.14 156.008 212.94 155.315 213.58C154.621 214.22 153.788 214.7 152.815 215.02C151.841 215.327 150.921 215.493 150.055 215.52C150.028 216.48 150.181 217.253 150.515 217.84C150.861 218.427 151.381 218.72 152.075 218.72C153.221 218.72 154.261 218.187 155.195 217.12L155.715 218ZM152.715 209.86C151.928 209.86 151.308 210.333 150.855 211.28C150.401 212.227 150.135 213.28 150.055 214.44C150.575 214.413 151.121 214.273 151.695 214.02C152.281 213.767 152.768 213.413 153.155 212.96C153.555 212.493 153.755 211.96 153.755 211.36C153.755 210.88 153.661 210.513 153.475 210.26C153.301 209.993 153.048 209.86 152.715 209.86ZM169.27 210.8C169.11 210.613 168.843 210.42 168.47 210.22C168.11 210.02 167.69 209.92 167.21 209.92C166.677 209.92 166.243 210.04 165.91 210.28C165.59 210.507 165.43 210.847 165.43 211.3C165.43 211.7 165.563 212.06 165.83 212.38C166.11 212.687 166.557 213.06 167.17 213.5C167.85 214.007 168.37 214.5 168.73 214.98C169.09 215.447 169.27 216.047 169.27 216.78C169.27 217.513 169.07 218.14 168.67 218.66C168.27 219.167 167.737 219.553 167.07 219.82C166.403 220.073 165.67 220.2 164.87 220.2C164.27 220.2 163.657 220.133 163.03 220C162.403 219.853 161.997 219.7 161.81 219.54L162.21 217.84C162.49 218.08 162.87 218.307 163.35 218.52C163.83 218.733 164.33 218.84 164.85 218.84C165.343 218.84 165.763 218.727 166.11 218.5C166.47 218.273 166.65 217.92 166.65 217.44C166.65 217.027 166.497 216.653 166.19 216.32C165.883 215.987 165.423 215.607 164.81 215.18C164.25 214.793 163.777 214.34 163.39 213.82C163.017 213.287 162.83 212.647 162.83 211.9C162.83 211.26 163.01 210.693 163.37 210.2C163.743 209.707 164.25 209.327 164.89 209.06C165.543 208.78 166.29 208.64 167.13 208.64C167.623 208.64 168.123 208.68 168.63 208.76C169.137 208.84 169.477 208.927 169.65 209.02L169.27 210.8ZM171.585 210.78C171.518 210.42 171.372 210.227 171.145 210.2C170.998 210.2 170.872 210.233 170.765 210.3C170.658 210.367 170.598 210.407 170.585 210.42L170.305 209.74C170.465 209.54 170.758 209.307 171.185 209.04C171.612 208.773 172.085 208.64 172.605 208.64C173.125 208.64 173.512 208.753 173.765 208.98C174.018 209.207 174.178 209.54 174.245 209.98L175.105 215.88L175.385 218L176.205 216.86C176.805 215.953 177.252 215.107 177.545 214.32C177.852 213.52 178.032 212.673 178.085 211.78C178.098 211.527 178.052 211.187 177.945 210.76C177.852 210.413 177.805 210.12 177.805 209.88C177.805 209.52 177.918 209.227 178.145 209C178.372 208.76 178.678 208.64 179.065 208.64C179.585 208.64 179.965 208.84 180.205 209.24C180.458 209.627 180.585 210.12 180.585 210.72C180.585 212.373 179.292 214.84 176.705 218.12L175.185 220.06L173.425 220.2L172.705 216.54L171.585 210.78ZM184.733 218C184.72 218.067 184.713 218.147 184.713 218.24C184.713 218.56 184.826 218.72 185.053 218.72C185.173 218.72 185.306 218.68 185.453 218.6C185.6 218.52 185.786 218.387 186.013 218.2L186.273 218.82C186.046 219.127 185.706 219.433 185.253 219.74C184.813 220.047 184.273 220.2 183.633 220.2C183.113 220.2 182.706 220.1 182.413 219.9C182.12 219.687 181.973 219.4 181.973 219.04L181.993 218.84C182.073 218.147 182.346 216.133 182.813 212.8L183.133 210.48L181.953 209.92L182.093 209.14L185.533 208.66L186.013 208.88L184.733 218ZM184.953 206.74C184.593 206.74 184.28 206.607 184.013 206.34C183.76 206.06 183.633 205.74 183.633 205.38C183.633 204.887 183.793 204.473 184.113 204.14C184.446 203.807 184.866 203.64 185.373 203.64C185.786 203.64 186.113 203.773 186.353 204.04C186.593 204.293 186.713 204.6 186.713 204.96C186.713 205.467 186.56 205.893 186.253 206.24C185.946 206.573 185.513 206.74 184.953 206.74ZM192.898 210.96C191.818 210.933 191.132 210.927 190.838 210.94C190.398 210.953 190.038 211.12 189.758 211.44C189.492 211.747 189.345 212.127 189.318 212.58H188.518C188.492 212.287 188.478 211.987 188.478 211.68C188.478 211.027 188.532 210.427 188.638 209.88C188.758 209.333 188.952 208.993 189.218 208.86C189.445 208.727 189.758 208.66 190.158 208.66C190.865 208.66 191.905 208.72 193.278 208.84C193.585 208.853 194.018 208.88 194.578 208.92C195.152 208.96 195.572 208.98 195.838 208.98C196.292 208.98 196.645 208.873 196.898 208.66L197.398 209.2L191.578 216.52L190.098 217.9L193.698 217.94C194.218 217.94 194.625 217.787 194.918 217.48C195.212 217.16 195.392 216.74 195.458 216.22H196.238C196.252 216.353 196.258 216.587 196.258 216.92C196.258 217.627 196.198 218.28 196.078 218.88C195.972 219.467 195.778 219.847 195.498 220.02C195.325 220.153 194.992 220.22 194.498 220.22C193.738 220.22 192.638 220.16 191.198 220.04C190.865 220.027 190.398 220 189.798 219.96C189.212 219.92 188.792 219.9 188.538 219.9C188.365 219.9 188.178 219.927 187.978 219.98C187.792 220.033 187.638 220.113 187.518 220.22L186.938 219.66L193.338 211.84L194.418 210.98L192.898 210.96ZM202.859 210.96C201.779 210.933 201.092 210.927 200.799 210.94C200.359 210.953 199.999 211.12 199.719 211.44C199.452 211.747 199.306 212.127 199.279 212.58H198.479C198.452 212.287 198.439 211.987 198.439 211.68C198.439 211.027 198.492 210.427 198.599 209.88C198.719 209.333 198.912 208.993 199.179 208.86C199.406 208.727 199.719 208.66 200.119 208.66C200.826 208.66 201.866 208.72 203.239 208.84C203.546 208.853 203.979 208.88 204.539 208.92C205.112 208.96 205.532 208.98 205.799 208.98C206.252 208.98 206.606 208.873 206.859 208.66L207.359 209.2L201.539 216.52L200.059 217.9L203.659 217.94C204.179 217.94 204.586 217.787 204.879 217.48C205.172 217.16 205.352 216.74 205.419 216.22H206.199C206.212 216.353 206.219 216.587 206.219 216.92C206.219 217.627 206.159 218.28 206.039 218.88C205.932 219.467 205.739 219.847 205.459 220.02C205.286 220.153 204.952 220.22 204.459 220.22C203.699 220.22 202.599 220.16 201.159 220.04C200.826 220.027 200.359 220 199.759 219.96C199.172 219.92 198.752 219.9 198.499 219.9C198.326 219.9 198.139 219.927 197.939 219.98C197.752 220.033 197.599 220.113 197.479 220.22L196.899 219.66L203.299 211.84L204.379 210.98L202.859 210.96ZM216.32 218C215.973 218.547 215.407 219.06 214.62 219.54C213.847 220.02 212.947 220.26 211.92 220.26C210.96 220.26 210.167 220.053 209.54 219.64C208.927 219.227 208.48 218.687 208.2 218.02C207.92 217.353 207.78 216.627 207.78 215.84C207.78 214.507 208.047 213.293 208.58 212.2C209.127 211.093 209.867 210.22 210.8 209.58C211.733 208.94 212.773 208.62 213.92 208.62C214.947 208.62 215.707 208.86 216.2 209.34C216.707 209.807 216.96 210.42 216.96 211.18C216.96 212.14 216.613 212.94 215.92 213.58C215.227 214.22 214.393 214.7 213.42 215.02C212.447 215.327 211.527 215.493 210.66 215.52C210.633 216.48 210.787 217.253 211.12 217.84C211.467 218.427 211.987 218.72 212.68 218.72C213.827 218.72 214.867 218.187 215.8 217.12L216.32 218ZM213.32 209.86C212.533 209.86 211.913 210.333 211.46 211.28C211.007 212.227 210.74 213.28 210.66 214.44C211.18 214.413 211.727 214.273 212.3 214.02C212.887 213.767 213.373 213.413 213.76 212.96C214.16 212.493 214.36 211.96 214.36 211.36C214.36 210.88 214.267 210.513 214.08 210.26C213.907 209.993 213.653 209.86 213.32 209.86ZM222.049 211.52C222.303 210.76 222.736 210.093 223.349 209.52C223.976 208.933 224.676 208.64 225.449 208.64C225.716 208.64 225.943 208.7 226.129 208.82L225.549 211.7C225.469 211.633 225.336 211.573 225.149 211.52C224.976 211.453 224.763 211.42 224.509 211.42C224.029 211.42 223.569 211.527 223.129 211.74C222.689 211.94 222.349 212.233 222.109 212.62L221.129 220H218.529L219.789 210.5L218.769 209.94L218.909 209.14L221.769 208.66L222.229 208.94L222.129 210.76L222.049 211.52ZM235.031 218C234.684 218.547 234.118 219.06 233.331 219.54C232.558 220.02 231.658 220.26 230.631 220.26C229.671 220.26 228.878 220.053 228.251 219.64C227.638 219.227 227.191 218.687 226.911 218.02C226.631 217.353 226.491 216.627 226.491 215.84C226.491 214.507 226.758 213.293 227.291 212.2C227.838 211.093 228.578 210.22 229.511 209.58C230.444 208.94 231.484 208.62 232.631 208.62C233.658 208.62 234.418 208.86 234.911 209.34C235.418 209.807 235.671 210.42 235.671 211.18C235.671 212.14 235.324 212.94 234.631 213.58C233.938 214.22 233.104 214.7 232.131 215.02C231.158 215.327 230.238 215.493 229.371 215.52C229.344 216.48 229.498 217.253 229.831 217.84C230.178 218.427 230.698 218.72 231.391 218.72C232.538 218.72 233.578 218.187 234.511 217.12L235.031 218ZM232.031 209.86C231.244 209.86 230.624 210.333 230.171 211.28C229.718 212.227 229.451 213.28 229.371 214.44C229.891 214.413 230.438 214.273 231.011 214.02C231.598 213.767 232.084 213.413 232.471 212.96C232.871 212.493 233.071 211.96 233.071 211.36C233.071 210.88 232.978 210.513 232.791 210.26C232.618 209.993 232.364 209.86 232.031 209.86ZM250.226 218C249.88 218.547 249.313 219.06 248.526 219.54C247.753 220.02 246.853 220.26 245.826 220.26C244.866 220.26 244.073 220.053 243.446 219.64C242.833 219.227 242.386 218.687 242.106 218.02C241.826 217.353 241.686 216.627 241.686 215.84C241.686 214.507 241.953 213.293 242.486 212.2C243.033 211.093 243.773 210.22 244.706 209.58C245.64 208.94 246.68 208.62 247.826 208.62C248.853 208.62 249.613 208.86 250.106 209.34C250.613 209.807 250.866 210.42 250.866 211.18C250.866 212.14 250.52 212.94 249.826 213.58C249.133 214.22 248.3 214.7 247.326 215.02C246.353 215.327 245.433 215.493 244.566 215.52C244.54 216.48 244.693 217.253 245.026 217.84C245.373 218.427 245.893 218.72 246.586 218.72C247.733 218.72 248.773 218.187 249.706 217.12L250.226 218ZM247.226 209.86C246.44 209.86 245.82 210.333 245.366 211.28C244.913 212.227 244.646 213.28 244.566 214.44C245.086 214.413 245.633 214.273 246.206 214.02C246.793 213.767 247.28 213.413 247.666 212.96C248.066 212.493 248.266 211.96 248.266 211.36C248.266 210.88 248.173 210.513 247.986 210.26C247.813 209.993 247.56 209.86 247.226 209.86ZM248.146 207.2C247.666 206.96 246.993 206.473 246.126 205.74C245.273 205.007 244.713 204.4 244.446 203.92L246.146 202.4L249.006 206.58L248.146 207.2ZM12.5512 235.8C12.3912 235.613 12.1245 235.42 11.7512 235.22C11.3912 235.02 10.9712 234.92 10.4912 234.92C9.95784 234.92 9.52451 235.04 9.19117 235.28C8.87117 235.507 8.71117 235.847 8.71117 236.3C8.71117 236.7 8.84451 237.06 9.11117 237.38C9.39117 237.687 9.83784 238.06 10.4512 238.5C11.1312 239.007 11.6512 239.5 12.0112 239.98C12.3712 240.447 12.5512 241.047 12.5512 241.78C12.5512 242.513 12.3512 243.14 11.9512 243.66C11.5512 244.167 11.0178 244.553 10.3512 244.82C9.68451 245.073 8.95117 245.2 8.15117 245.2C7.55117 245.2 6.93784 245.133 6.31117 245C5.68451 244.853 5.27784 244.7 5.09117 244.54L5.49117 242.84C5.77117 243.08 6.15117 243.307 6.63117 243.52C7.11117 243.733 7.61117 243.84 8.13117 243.84C8.62451 243.84 9.04451 243.727 9.39117 243.5C9.75117 243.273 9.93117 242.92 9.93117 242.44C9.93117 242.027 9.77784 241.653 9.47117 241.32C9.16451 240.987 8.70451 240.607 8.09117 240.18C7.53117 239.793 7.05784 239.34 6.67117 238.82C6.29784 238.287 6.11117 237.647 6.11117 236.9C6.11117 236.26 6.29117 235.693 6.65117 235.2C7.02451 234.707 7.53117 234.327 8.17117 234.06C8.82451 233.78 9.57117 233.64 10.4112 233.64C10.9045 233.64 11.4045 233.68 11.9112 233.76C12.4178 233.84 12.7578 233.927 12.9312 234.02L12.5512 235.8ZM20.2663 233.62C21.653 233.62 22.713 234.027 23.4463 234.84C24.1797 235.64 24.5463 236.793 24.5463 238.3C24.5463 239.54 24.293 240.693 23.7863 241.76C23.2797 242.827 22.5663 243.68 21.6463 244.32C20.7263 244.947 19.673 245.26 18.4863 245.26C17.0997 245.26 16.0397 244.853 15.3063 244.04C14.5863 243.213 14.2263 242.04 14.2263 240.52C14.2263 239.267 14.473 238.113 14.9663 237.06C15.473 236.007 16.1863 235.173 17.1063 234.56C18.0263 233.933 19.0797 233.62 20.2663 233.62ZM19.9263 234.88C19.313 234.88 18.793 235.16 18.3663 235.72C17.9397 236.267 17.6197 236.967 17.4063 237.82C17.2063 238.673 17.1063 239.547 17.1063 240.44C17.1063 241.707 17.2463 242.633 17.5263 243.22C17.8197 243.807 18.273 244.1 18.8863 244.1C19.4863 244.1 19.993 243.82 20.4063 243.26C20.8197 242.7 21.1263 241.987 21.3263 241.12C21.5263 240.253 21.6263 239.367 21.6263 238.46C21.6263 237.193 21.4863 236.28 21.2063 235.72C20.9397 235.16 20.513 234.88 19.9263 234.88ZM34.9637 242.98C34.9503 243.033 34.9437 243.113 34.9437 243.22C34.9437 243.553 35.057 243.72 35.2837 243.72C35.5103 243.72 35.8103 243.567 36.1837 243.26L36.4637 243.88C35.717 244.76 34.8903 245.2 33.9837 245.2C33.517 245.2 33.1637 245.087 32.9237 244.86C32.6837 244.633 32.5437 244.287 32.5037 243.82V243.52C32.1703 243.987 31.7237 244.387 31.1637 244.72C30.6037 245.04 29.9637 245.2 29.2437 245.2C28.1237 245.2 27.2903 244.82 26.7437 244.06C26.197 243.287 25.9237 242.28 25.9237 241.04C25.9237 239.8 26.1703 238.613 26.6637 237.48C27.157 236.347 27.8903 235.427 28.8637 234.72C29.8503 234 31.037 233.64 32.4237 233.64C32.8103 233.64 33.217 233.693 33.6437 233.8L34.1437 230.42L32.7037 230.02L32.8837 229.28L36.4837 228.88L36.9837 229.14L34.9637 242.98ZM33.4437 235.16C33.1103 234.973 32.6903 234.88 32.1837 234.88C31.3703 234.88 30.7037 235.193 30.1837 235.82C29.6637 236.433 29.2837 237.2 29.0437 238.12C28.8037 239.04 28.6837 239.973 28.6837 240.92C28.6837 241.8 28.817 242.48 29.0837 242.96C29.3637 243.44 29.757 243.68 30.2637 243.68C30.677 243.68 31.0703 243.553 31.4437 243.3C31.817 243.033 32.1237 242.72 32.3637 242.36L33.4437 235.16ZM46.9559 242.98C46.9425 243.033 46.9359 243.113 46.9359 243.22C46.9359 243.553 47.0492 243.72 47.2759 243.72C47.5025 243.72 47.8025 243.567 48.1759 243.26L48.4559 243.88C47.7092 244.76 46.8825 245.2 45.9759 245.2C45.5092 245.2 45.1559 245.087 44.9159 244.86C44.6759 244.633 44.5359 244.287 44.4959 243.82V243.52C44.1625 243.987 43.7159 244.387 43.1559 244.72C42.5959 245.04 41.9559 245.2 41.2359 245.2C40.1159 245.2 39.2825 244.82 38.7359 244.06C38.1892 243.287 37.9159 242.28 37.9159 241.04C37.9159 239.8 38.1625 238.613 38.6559 237.48C39.1492 236.347 39.8825 235.427 40.8559 234.72C41.8425 234 43.0292 233.64 44.4159 233.64C44.8025 233.64 45.2092 233.693 45.6359 233.8L46.1359 230.42L44.6959 230.02L44.8759 229.28L48.4759 228.88L48.9759 229.14L46.9559 242.98ZM45.4359 235.16C45.1025 234.973 44.6825 234.88 44.1759 234.88C43.3625 234.88 42.6959 235.193 42.1759 235.82C41.6559 236.433 41.2759 237.2 41.0359 238.12C40.7959 239.04 40.6759 239.973 40.6759 240.92C40.6759 241.8 40.8092 242.48 41.0759 242.96C41.3559 243.44 41.7492 243.68 42.2559 243.68C42.6692 243.68 43.0625 243.553 43.4359 243.3C43.8092 243.033 44.1159 242.72 44.3559 242.36L45.4359 235.16ZM53.268 243C53.2547 243.067 53.248 243.147 53.248 243.24C53.248 243.56 53.3614 243.72 53.588 243.72C53.708 243.72 53.8414 243.68 53.988 243.6C54.1347 243.52 54.3214 243.387 54.548 243.2L54.808 243.82C54.5814 244.127 54.2414 244.433 53.788 244.74C53.348 245.047 52.808 245.2 52.168 245.2C51.648 245.2 51.2414 245.1 50.948 244.9C50.6547 244.687 50.508 244.4 50.508 244.04L50.528 243.84C50.608 243.147 50.8814 241.133 51.348 237.8L51.668 235.48L50.488 234.92L50.628 234.14L54.068 233.66L54.548 233.88L53.268 243ZM53.488 231.74C53.128 231.74 52.8147 231.607 52.548 231.34C52.2947 231.06 52.168 230.74 52.168 230.38C52.168 229.887 52.328 229.473 52.648 229.14C52.9814 228.807 53.4014 228.64 53.908 228.64C54.3214 228.64 54.648 228.773 54.888 229.04C55.128 229.293 55.248 229.6 55.248 229.96C55.248 230.467 55.0947 230.893 54.788 231.24C54.4814 231.573 54.048 231.74 53.488 231.74ZM63.2934 235.8C63.1334 235.613 62.8667 235.42 62.4934 235.22C62.1334 235.02 61.7134 234.92 61.2334 234.92C60.7 234.92 60.2667 235.04 59.9334 235.28C59.6134 235.507 59.4534 235.847 59.4534 236.3C59.4534 236.7 59.5867 237.06 59.8534 237.38C60.1334 237.687 60.58 238.06 61.1934 238.5C61.8734 239.007 62.3934 239.5 62.7534 239.98C63.1134 240.447 63.2934 241.047 63.2934 241.78C63.2934 242.513 63.0934 243.14 62.6934 243.66C62.2934 244.167 61.76 244.553 61.0934 244.82C60.4267 245.073 59.6934 245.2 58.8934 245.2C58.2934 245.2 57.68 245.133 57.0534 245C56.4267 244.853 56.02 244.7 55.8334 244.54L56.2334 242.84C56.5134 243.08 56.8934 243.307 57.3734 243.52C57.8534 243.733 58.3534 243.84 58.8734 243.84C59.3667 243.84 59.7867 243.727 60.1334 243.5C60.4934 243.273 60.6734 242.92 60.6734 242.44C60.6734 242.027 60.52 241.653 60.2134 241.32C59.9067 240.987 59.4467 240.607 58.8334 240.18C58.2734 239.793 57.8 239.34 57.4134 238.82C57.04 238.287 56.8534 237.647 56.8534 236.9C56.8534 236.26 57.0334 235.693 57.3934 235.2C57.7667 234.707 58.2734 234.327 58.9134 234.06C59.5667 233.78 60.3134 233.64 61.1534 233.64C61.6467 233.64 62.1467 233.68 62.6534 233.76C63.16 233.84 63.5 233.927 63.6734 234.02L63.2934 235.8ZM67.0485 232.94C67.1818 232.14 67.4418 231.42 67.8285 230.78C68.2285 230.14 68.7352 229.633 69.3485 229.26C69.9618 228.887 70.6485 228.7 71.4085 228.7C72.1152 228.7 72.6752 228.78 73.0885 228.94L72.5285 230.54C72.1418 230.247 71.6952 230.1 71.1885 230.1C70.6952 230.1 70.3352 230.287 70.1085 230.66C69.8952 231.033 69.7352 231.607 69.6285 232.38L69.4285 233.84H71.6285L71.3685 235.34H69.2285L68.1285 244.22C67.9152 245.86 67.4285 247.233 66.6685 248.34C65.9218 249.447 64.9218 250.007 63.6685 250.02C63.3618 250.033 63.0418 250.02 62.7085 249.98C62.3618 249.94 62.0885 249.893 61.8885 249.84L62.4085 248.16C62.5818 248.24 62.8352 248.327 63.1685 248.42C63.4885 248.527 63.7485 248.58 63.9485 248.58C64.3085 248.58 64.5885 248.4 64.7885 248.04C65.0018 247.693 65.1552 247.167 65.2485 246.46L66.6285 235.34H65.3485L65.5285 234.46L66.8885 233.88L67.0485 232.94ZM80.5063 242.96C80.493 243.013 80.4863 243.093 80.4863 243.2C80.4863 243.547 80.6197 243.72 80.8863 243.72C81.0997 243.72 81.3997 243.56 81.7863 243.24L82.0663 243.86C81.893 244.127 81.5797 244.42 81.1263 244.74C80.6863 245.047 80.173 245.2 79.5863 245.2C79.133 245.2 78.773 245.1 78.5063 244.9C78.2397 244.7 78.0997 244.393 78.0863 243.98L78.1263 243.64C77.753 244.08 77.2997 244.453 76.7663 244.76C76.233 245.053 75.6463 245.2 75.0063 245.2C73.8863 245.2 73.0463 244.82 72.4863 244.06C71.9397 243.287 71.6663 242.28 71.6663 241.04C71.6663 239.813 71.9197 238.633 72.4263 237.5C72.9463 236.367 73.6997 235.44 74.6863 234.72C75.673 234 76.8463 233.64 78.2063 233.64C78.553 233.64 78.9263 233.68 79.3263 233.76C79.7397 233.84 80.0997 233.933 80.4063 234.04L81.7863 233.64L80.5063 242.96ZM78.9663 235.06C78.713 234.94 78.3863 234.88 77.9863 234.88C77.1863 234.88 76.5197 235.187 75.9863 235.8C75.453 236.4 75.0597 237.167 74.8063 238.1C74.5663 239.02 74.4463 239.953 74.4463 240.9C74.4463 241.78 74.5797 242.467 74.8463 242.96C75.113 243.44 75.5063 243.68 76.0263 243.68C76.3597 243.68 76.693 243.567 77.0263 243.34C77.373 243.113 77.6797 242.847 77.9463 242.54L78.9663 235.06ZM86.7446 241.34C86.6513 242.113 86.6046 242.58 86.6046 242.74C86.6046 243.047 86.6646 243.267 86.7846 243.4C86.9046 243.52 87.1113 243.58 87.4046 243.58C87.6713 243.58 87.9713 243.52 88.3046 243.4C88.6513 243.267 88.9379 243.107 89.1646 242.92L89.3846 243.66C89.0379 244.047 88.5446 244.4 87.9046 244.72C87.2646 245.04 86.5446 245.2 85.7446 245.2C85.1846 245.2 84.7379 245.06 84.4046 244.78C84.0846 244.487 83.9246 244.027 83.9246 243.4C83.9246 243.133 83.9913 242.507 84.1246 241.52L84.9646 235.32H83.7646L83.9846 234.36L85.1846 233.94C85.5846 233.567 86.0579 232.647 86.6046 231.18H88.1046L87.7646 233.9H90.1646L89.9646 235.32H87.5646L86.7446 241.34ZM93.854 241.34C93.7607 242.113 93.714 242.58 93.714 242.74C93.714 243.047 93.774 243.267 93.894 243.4C94.014 243.52 94.2207 243.58 94.514 243.58C94.7807 243.58 95.0807 243.52 95.414 243.4C95.7607 243.267 96.0473 243.107 96.274 242.92L96.494 243.66C96.1473 244.047 95.654 244.4 95.014 244.72C94.374 245.04 93.654 245.2 92.854 245.2C92.294 245.2 91.8473 245.06 91.514 244.78C91.194 244.487 91.034 244.027 91.034 243.4C91.034 243.133 91.1007 242.507 91.234 241.52L92.074 235.32H90.874L91.094 234.36L92.294 233.94C92.694 233.567 93.1673 232.647 93.714 231.18H95.214L94.874 233.9H97.274L97.074 235.32H94.674L93.854 241.34ZM103.723 233.62C105.11 233.62 106.17 234.027 106.903 234.84C107.637 235.64 108.003 236.793 108.003 238.3C108.003 239.54 107.75 240.693 107.243 241.76C106.737 242.827 106.023 243.68 105.103 244.32C104.183 244.947 103.13 245.26 101.943 245.26C100.557 245.26 99.4967 244.853 98.7634 244.04C98.0434 243.213 97.6834 242.04 97.6834 240.52C97.6834 239.267 97.93 238.113 98.4234 237.06C98.93 236.007 99.6434 235.173 100.563 234.56C101.483 233.933 102.537 233.62 103.723 233.62ZM103.383 234.88C102.77 234.88 102.25 235.16 101.823 235.72C101.397 236.267 101.077 236.967 100.863 237.82C100.663 238.673 100.563 239.547 100.563 240.44C100.563 241.707 100.703 242.633 100.983 243.22C101.277 243.807 101.73 244.1 102.343 244.1C102.943 244.1 103.45 243.82 103.863 243.26C104.277 242.7 104.583 241.987 104.783 241.12C104.983 240.253 105.083 239.367 105.083 238.46C105.083 237.193 104.943 236.28 104.663 235.72C104.397 235.16 103.97 234.88 103.383 234.88ZM123.167 242.98C123.153 243.033 123.147 243.113 123.147 243.22C123.147 243.553 123.26 243.72 123.487 243.72C123.713 243.72 124.013 243.567 124.387 243.26L124.667 243.88C123.92 244.76 123.093 245.2 122.187 245.2C121.72 245.2 121.367 245.087 121.127 244.86C120.887 244.633 120.747 244.287 120.707 243.82V243.52C120.373 243.987 119.927 244.387 119.367 244.72C118.807 245.04 118.167 245.2 117.447 245.2C116.327 245.2 115.493 244.82 114.947 244.06C114.4 243.287 114.127 242.28 114.127 241.04C114.127 239.8 114.373 238.613 114.867 237.48C115.36 236.347 116.093 235.427 117.067 234.72C118.053 234 119.24 233.64 120.627 233.64C121.013 233.64 121.42 233.693 121.847 233.8L122.347 230.42L120.907 230.02L121.087 229.28L124.687 228.88L125.187 229.14L123.167 242.98ZM121.647 235.16C121.313 234.973 120.893 234.88 120.387 234.88C119.573 234.88 118.907 235.193 118.387 235.82C117.867 236.433 117.487 237.2 117.247 238.12C117.007 239.04 116.887 239.973 116.887 240.92C116.887 241.8 117.02 242.48 117.287 242.96C117.567 243.44 117.96 243.68 118.467 243.68C118.88 243.68 119.273 243.553 119.647 243.3C120.02 243.033 120.327 242.72 120.567 242.36L121.647 235.16ZM134.699 243C134.352 243.547 133.786 244.06 132.999 244.54C132.226 245.02 131.326 245.26 130.299 245.26C129.339 245.26 128.546 245.053 127.919 244.64C127.306 244.227 126.859 243.687 126.579 243.02C126.299 242.353 126.159 241.627 126.159 240.84C126.159 239.507 126.426 238.293 126.959 237.2C127.506 236.093 128.246 235.22 129.179 234.58C130.112 233.94 131.152 233.62 132.299 233.62C133.326 233.62 134.086 233.86 134.579 234.34C135.086 234.807 135.339 235.42 135.339 236.18C135.339 237.14 134.992 237.94 134.299 238.58C133.606 239.22 132.772 239.7 131.799 240.02C130.826 240.327 129.906 240.493 129.039 240.52C129.012 241.48 129.166 242.253 129.499 242.84C129.846 243.427 130.366 243.72 131.059 243.72C132.206 243.72 133.246 243.187 134.179 242.12L134.699 243ZM131.699 234.86C130.912 234.86 130.292 235.333 129.839 236.28C129.386 237.227 129.119 238.28 129.039 239.44C129.559 239.413 130.106 239.273 130.679 239.02C131.266 238.767 131.752 238.413 132.139 237.96C132.539 237.493 132.739 236.96 132.739 236.36C132.739 235.88 132.646 235.513 132.459 235.26C132.286 234.993 132.032 234.86 131.699 234.86ZM139.668 243C139.655 243.053 139.648 243.127 139.648 243.22C139.648 243.553 139.768 243.72 140.008 243.72C140.128 243.72 140.255 243.687 140.388 243.62C140.535 243.553 140.728 243.413 140.968 243.2L141.228 243.82C141.015 244.127 140.702 244.433 140.288 244.74C139.875 245.047 139.342 245.2 138.688 245.2C138.182 245.2 137.768 245.1 137.448 244.9C137.128 244.687 136.962 244.36 136.948 243.92C136.948 243.867 136.975 243.627 137.028 243.2L138.768 230.42L137.508 230.02L137.688 229.28L141.088 228.88L141.548 229.14L139.668 243ZM145.762 243C145.749 243.053 145.742 243.127 145.742 243.22C145.742 243.553 145.862 243.72 146.102 243.72C146.222 243.72 146.349 243.687 146.482 243.62C146.629 243.553 146.822 243.413 147.062 243.2L147.322 243.82C147.109 244.127 146.795 244.433 146.382 244.74C145.969 245.047 145.435 245.2 144.782 245.2C144.275 245.2 143.862 245.1 143.542 244.9C143.222 244.687 143.055 244.36 143.042 243.92C143.042 243.867 143.069 243.627 143.122 243.2L144.862 230.42L143.602 230.02L143.782 229.28L147.182 228.88L147.642 229.14L145.762 243ZM157.616 242.96C157.602 243.013 157.596 243.093 157.596 243.2C157.596 243.547 157.729 243.72 157.996 243.72C158.209 243.72 158.509 243.56 158.896 243.24L159.176 243.86C159.002 244.127 158.689 244.42 158.236 244.74C157.796 245.047 157.282 245.2 156.696 245.2C156.242 245.2 155.882 245.1 155.616 244.9C155.349 244.7 155.209 244.393 155.196 243.98L155.236 243.64C154.862 244.08 154.409 244.453 153.876 244.76C153.342 245.053 152.756 245.2 152.116 245.2C150.996 245.2 150.156 244.82 149.596 244.06C149.049 243.287 148.776 242.28 148.776 241.04C148.776 239.813 149.029 238.633 149.536 237.5C150.056 236.367 150.809 235.44 151.796 234.72C152.782 234 153.956 233.64 155.316 233.64C155.662 233.64 156.036 233.68 156.436 233.76C156.849 233.84 157.209 233.933 157.516 234.04L158.896 233.64L157.616 242.96ZM156.076 235.06C155.822 234.94 155.496 234.88 155.096 234.88C154.296 234.88 153.629 235.187 153.096 235.8C152.562 236.4 152.169 237.167 151.916 238.1C151.676 239.02 151.556 239.953 151.556 240.9C151.556 241.78 151.689 242.467 151.956 242.96C152.222 243.44 152.616 243.68 153.136 243.68C153.469 243.68 153.802 243.567 154.136 243.34C154.482 243.113 154.789 242.847 155.056 242.54L156.076 235.06ZM169.36 234.96C169.707 234.573 170.127 234.26 170.62 234.02C171.113 233.767 171.653 233.64 172.24 233.64C173.347 233.64 174.187 234.013 174.76 234.76C175.333 235.507 175.62 236.547 175.62 237.88C175.62 239.147 175.353 240.34 174.82 241.46C174.287 242.58 173.527 243.487 172.54 244.18C171.567 244.86 170.44 245.2 169.16 245.2C168.813 245.2 168.42 245.153 167.98 245.06L167.28 250.08H164.72L166.7 235.42L165.64 234.92L165.8 234.12L169.04 233.64L169.5 233.86L169.36 234.96ZM168.16 243.72C168.467 243.88 168.887 243.96 169.42 243.96C170.18 243.96 170.813 243.667 171.32 243.08C171.84 242.493 172.22 241.74 172.46 240.82C172.713 239.9 172.84 238.933 172.84 237.92C172.84 237.093 172.7 236.427 172.42 235.92C172.153 235.413 171.76 235.16 171.24 235.16C170.827 235.16 170.447 235.287 170.1 235.54C169.753 235.78 169.447 236.08 169.18 236.44L168.16 243.72ZM180.819 236.52C181.072 235.76 181.505 235.093 182.119 234.52C182.745 233.933 183.445 233.64 184.219 233.64C184.485 233.64 184.712 233.7 184.899 233.82L184.319 236.7C184.239 236.633 184.105 236.573 183.919 236.52C183.745 236.453 183.532 236.42 183.279 236.42C182.799 236.42 182.339 236.527 181.899 236.74C181.459 236.94 181.119 237.233 180.879 237.62L179.899 245H177.299L178.559 235.5L177.539 234.94L177.679 234.14L180.539 233.66L180.999 233.94L180.899 235.76L180.819 236.52ZM191.341 233.62C192.727 233.62 193.787 234.027 194.521 234.84C195.254 235.64 195.621 236.793 195.621 238.3C195.621 239.54 195.367 240.693 194.861 241.76C194.354 242.827 193.641 243.68 192.721 244.32C191.801 244.947 190.747 245.26 189.561 245.26C188.174 245.26 187.114 244.853 186.381 244.04C185.661 243.213 185.301 242.04 185.301 240.52C185.301 239.267 185.547 238.113 186.041 237.06C186.547 236.007 187.261 235.173 188.181 234.56C189.101 233.933 190.154 233.62 191.341 233.62ZM191.001 234.88C190.387 234.88 189.867 235.16 189.441 235.72C189.014 236.267 188.694 236.967 188.481 237.82C188.281 238.673 188.181 239.547 188.181 240.44C188.181 241.707 188.321 242.633 188.601 243.22C188.894 243.807 189.347 244.1 189.961 244.1C190.561 244.1 191.067 243.82 191.481 243.26C191.894 242.7 192.201 241.987 192.401 241.12C192.601 240.253 192.701 239.367 192.701 238.46C192.701 237.193 192.561 236.28 192.281 235.72C192.014 235.16 191.587 234.88 191.001 234.88ZM201.118 234.96C201.465 234.573 201.885 234.26 202.378 234.02C202.871 233.767 203.411 233.64 203.998 233.64C205.105 233.64 205.945 234.013 206.518 234.76C207.091 235.507 207.378 236.547 207.378 237.88C207.378 239.147 207.111 240.34 206.578 241.46C206.045 242.58 205.285 243.487 204.298 244.18C203.325 244.86 202.198 245.2 200.918 245.2C200.571 245.2 200.178 245.153 199.738 245.06L199.038 250.08H196.478L198.458 235.42L197.398 234.92L197.558 234.12L200.798 233.64L201.258 233.86L201.118 234.96ZM199.918 243.72C200.225 243.88 200.645 243.96 201.178 243.96C201.938 243.96 202.571 243.667 203.078 243.08C203.598 242.493 203.978 241.74 204.218 240.82C204.471 239.9 204.598 238.933 204.598 237.92C204.598 237.093 204.458 236.427 204.178 235.92C203.911 235.413 203.518 235.16 202.998 235.16C202.585 235.16 202.205 235.287 201.858 235.54C201.511 235.78 201.205 236.08 200.938 236.44L199.918 243.72ZM212.577 236.52C212.83 235.76 213.263 235.093 213.877 234.52C214.503 233.933 215.203 233.64 215.977 233.64C216.243 233.64 216.47 233.7 216.657 233.82L216.077 236.7C215.997 236.633 215.863 236.573 215.677 236.52C215.503 236.453 215.29 236.42 215.037 236.42C214.557 236.42 214.097 236.527 213.657 236.74C213.217 236.94 212.877 237.233 212.637 237.62L211.657 245H209.057L210.317 235.5L209.297 234.94L209.437 234.14L212.297 233.66L212.757 233.94L212.657 235.76L212.577 236.52ZM220.338 243C220.325 243.067 220.318 243.147 220.318 243.24C220.318 243.56 220.432 243.72 220.658 243.72C220.778 243.72 220.912 243.68 221.058 243.6C221.205 243.52 221.392 243.387 221.618 243.2L221.878 243.82C221.652 244.127 221.312 244.433 220.858 244.74C220.418 245.047 219.878 245.2 219.238 245.2C218.718 245.2 218.312 245.1 218.018 244.9C217.725 244.687 217.578 244.4 217.578 244.04L217.598 243.84C217.678 243.147 217.952 241.133 218.418 237.8L218.738 235.48L217.558 234.92L217.698 234.14L221.138 233.66L221.618 233.88L220.338 243ZM220.558 231.74C220.198 231.74 219.885 231.607 219.618 231.34C219.365 231.06 219.238 230.74 219.238 230.38C219.238 229.887 219.398 229.473 219.718 229.14C220.052 228.807 220.472 228.64 220.978 228.64C221.392 228.64 221.718 228.773 221.958 229.04C222.198 229.293 222.318 229.6 222.318 229.96C222.318 230.467 222.165 230.893 221.858 231.24C221.552 231.573 221.118 231.74 220.558 231.74ZM232.284 242.96C232.27 243.013 232.264 243.093 232.264 243.2C232.264 243.547 232.397 243.72 232.664 243.72C232.877 243.72 233.177 243.56 233.564 243.24L233.844 243.86C233.67 244.127 233.357 244.42 232.904 244.74C232.464 245.047 231.95 245.2 231.364 245.2C230.91 245.2 230.55 245.1 230.284 244.9C230.017 244.7 229.877 244.393 229.864 243.98L229.904 243.64C229.53 244.08 229.077 244.453 228.544 244.76C228.01 245.053 227.424 245.2 226.784 245.2C225.664 245.2 224.824 244.82 224.264 244.06C223.717 243.287 223.444 242.28 223.444 241.04C223.444 239.813 223.697 238.633 224.204 237.5C224.724 236.367 225.477 235.44 226.464 234.72C227.45 234 228.624 233.64 229.984 233.64C230.33 233.64 230.704 233.68 231.104 233.76C231.517 233.84 231.877 233.933 232.184 234.04L233.564 233.64L232.284 242.96ZM230.744 235.06C230.49 234.94 230.164 234.88 229.764 234.88C228.964 234.88 228.297 235.187 227.764 235.8C227.23 236.4 226.837 237.167 226.584 238.1C226.344 239.02 226.224 239.953 226.224 240.9C226.224 241.78 226.357 242.467 226.624 242.96C226.89 243.44 227.284 243.68 227.804 243.68C228.137 243.68 228.47 243.567 228.804 243.34C229.15 243.113 229.457 242.847 229.724 242.54L230.744 235.06ZM240.628 235.78C240.561 235.42 240.415 235.227 240.188 235.2C240.041 235.2 239.915 235.233 239.808 235.3C239.701 235.367 239.641 235.407 239.628 235.42L239.348 234.74C239.508 234.54 239.801 234.307 240.228 234.04C240.655 233.773 241.128 233.64 241.648 233.64C242.168 233.64 242.555 233.753 242.808 233.98C243.061 234.207 243.221 234.54 243.288 234.98L244.148 240.88L244.428 243L245.248 241.86C245.848 240.953 246.295 240.107 246.588 239.32C246.895 238.52 247.075 237.673 247.128 236.78C247.141 236.527 247.095 236.187 246.988 235.76C246.895 235.413 246.848 235.12 246.848 234.88C246.848 234.52 246.961 234.227 247.188 234C247.415 233.76 247.721 233.64 248.108 233.64C248.628 233.64 249.008 233.84 249.248 234.24C249.501 234.627 249.628 235.12 249.628 235.72C249.628 237.373 248.335 239.84 245.748 243.12L244.228 245.06L242.468 245.2L241.748 241.54L240.628 235.78ZM253.776 243C253.763 243.067 253.756 243.147 253.756 243.24C253.756 243.56 253.869 243.72 254.096 243.72C254.216 243.72 254.349 243.68 254.496 243.6C254.643 243.52 254.829 243.387 255.056 243.2L255.316 243.82C255.089 244.127 254.749 244.433 254.296 244.74C253.856 245.047 253.316 245.2 252.676 245.2C252.156 245.2 251.749 245.1 251.456 244.9C251.163 244.687 251.016 244.4 251.016 244.04L251.036 243.84C251.116 243.147 251.389 241.133 251.856 237.8L252.176 235.48L250.996 234.92L251.136 234.14L254.576 233.66L255.056 233.88L253.776 243ZM253.996 231.74C253.636 231.74 253.323 231.607 253.056 231.34C252.803 231.06 252.676 230.74 252.676 230.38C252.676 229.887 252.836 229.473 253.156 229.14C253.489 228.807 253.909 228.64 254.416 228.64C254.829 228.64 255.156 228.773 255.396 229.04C255.636 229.293 255.756 229.6 255.756 229.96C255.756 230.467 255.603 230.893 255.296 231.24C254.989 231.573 254.556 231.74 253.996 231.74ZM260.221 241.34C260.128 242.113 260.081 242.58 260.081 242.74C260.081 243.047 260.141 243.267 260.261 243.4C260.381 243.52 260.588 243.58 260.881 243.58C261.148 243.58 261.448 243.52 261.781 243.4C262.128 243.267 262.415 243.107 262.641 242.92L262.861 243.66C262.515 244.047 262.021 244.4 261.381 244.72C260.741 245.04 260.021 245.2 259.221 245.2C258.661 245.2 258.215 245.06 257.881 244.78C257.561 244.487 257.401 244.027 257.401 243.4C257.401 243.133 257.468 242.507 257.601 241.52L258.441 235.32H257.241L257.461 234.36L258.661 233.94C259.061 233.567 259.535 232.647 260.081 231.18H261.581L261.241 233.9H263.641L263.441 235.32H261.041L260.221 241.34ZM272.831 242.96C272.817 243.013 272.811 243.093 272.811 243.2C272.811 243.547 272.944 243.72 273.211 243.72C273.424 243.72 273.724 243.56 274.111 243.24L274.391 243.86C274.217 244.127 273.904 244.42 273.451 244.74C273.011 245.047 272.497 245.2 271.911 245.2C271.457 245.2 271.097 245.1 270.831 244.9C270.564 244.7 270.424 244.393 270.411 243.98L270.451 243.64C270.077 244.08 269.624 244.453 269.091 244.76C268.557 245.053 267.971 245.2 267.331 245.2C266.211 245.2 265.371 244.82 264.811 244.06C264.264 243.287 263.991 242.28 263.991 241.04C263.991 239.813 264.244 238.633 264.751 237.5C265.271 236.367 266.024 235.44 267.011 234.72C267.997 234 269.171 233.64 270.531 233.64C270.877 233.64 271.251 233.68 271.651 233.76C272.064 233.84 272.424 233.933 272.731 234.04L274.111 233.64L272.831 242.96ZM271.291 235.06C271.037 234.94 270.711 234.88 270.311 234.88C269.511 234.88 268.844 235.187 268.311 235.8C267.777 236.4 267.384 237.167 267.131 238.1C266.891 239.02 266.771 239.953 266.771 240.9C266.771 241.78 266.904 242.467 267.171 242.96C267.437 243.44 267.831 243.68 268.351 243.68C268.684 243.68 269.017 243.567 269.351 243.34C269.697 243.113 270.004 242.847 270.271 242.54L271.291 235.06ZM99.3923 257.94C99.5256 257.14 99.7856 256.42 100.172 255.78C100.572 255.14 101.079 254.633 101.692 254.26C102.306 253.887 102.992 253.7 103.752 253.7C104.459 253.7 105.019 253.78 105.432 253.94L104.872 255.54C104.486 255.247 104.039 255.1 103.532 255.1C103.039 255.1 102.679 255.287 102.452 255.66C102.239 256.033 102.079 256.607 101.972 257.38L101.772 258.84H103.972L103.712 260.34H101.572L100.472 269.22C100.259 270.86 99.7723 272.233 99.0123 273.34C98.2656 274.447 97.2656 275.007 96.0123 275.02C95.7056 275.033 95.3856 275.02 95.0523 274.98C94.7056 274.94 94.4323 274.893 94.2323 274.84L94.7523 273.16C94.9256 273.24 95.1789 273.327 95.5123 273.42C95.8323 273.527 96.0923 273.58 96.2923 273.58C96.6523 273.58 96.9323 273.4 97.1323 273.04C97.3456 272.693 97.4989 272.167 97.5923 271.46L98.9723 260.34H97.6923L97.8723 259.46L99.2323 258.88L99.3923 257.94ZM112.85 267.96C112.837 268.013 112.83 268.093 112.83 268.2C112.83 268.547 112.963 268.72 113.23 268.72C113.443 268.72 113.743 268.56 114.13 268.24L114.41 268.86C114.237 269.127 113.923 269.42 113.47 269.74C113.03 270.047 112.517 270.2 111.93 270.2C111.477 270.2 111.117 270.1 110.85 269.9C110.583 269.7 110.443 269.393 110.43 268.98L110.47 268.64C110.097 269.08 109.643 269.453 109.11 269.76C108.577 270.053 107.99 270.2 107.35 270.2C106.23 270.2 105.39 269.82 104.83 269.06C104.283 268.287 104.01 267.28 104.01 266.04C104.01 264.813 104.263 263.633 104.77 262.5C105.29 261.367 106.043 260.44 107.03 259.72C108.017 259 109.19 258.64 110.55 258.64C110.897 258.64 111.27 258.68 111.67 258.76C112.083 258.84 112.443 258.933 112.75 259.04L114.13 258.64L112.85 267.96ZM111.31 260.06C111.057 259.94 110.73 259.88 110.33 259.88C109.53 259.88 108.863 260.187 108.33 260.8C107.797 261.4 107.403 262.167 107.15 263.1C106.91 264.02 106.79 264.953 106.79 265.9C106.79 266.78 106.923 267.467 107.19 267.96C107.457 268.44 107.85 268.68 108.37 268.68C108.703 268.68 109.037 268.567 109.37 268.34C109.717 268.113 110.023 267.847 110.29 267.54L111.31 260.06ZM119.848 261.08C120.328 260.36 120.902 259.773 121.568 259.32C122.235 258.867 122.935 258.64 123.668 258.64C124.415 258.64 124.995 258.84 125.408 259.24C125.835 259.627 126.082 260.253 126.148 261.12C126.615 260.347 127.182 259.74 127.848 259.3C128.528 258.86 129.262 258.64 130.048 258.64C131.715 258.64 132.548 259.62 132.548 261.58C132.548 262.007 132.415 262.993 132.148 264.54L132.068 265.06L131.968 265.58C131.742 266.82 131.622 267.673 131.608 268.14C131.608 268.527 131.722 268.72 131.948 268.72C132.068 268.72 132.195 268.687 132.328 268.62C132.475 268.54 132.668 268.4 132.908 268.2L133.168 268.82C132.982 269.1 132.655 269.4 132.188 269.72C131.722 270.04 131.162 270.2 130.508 270.2C129.882 270.2 129.448 270.073 129.208 269.82C128.968 269.567 128.848 269.227 128.848 268.8C128.848 268.533 128.888 268.147 128.968 267.64C129.048 267.12 129.135 266.6 129.228 266.08L129.308 265.62C129.468 264.713 129.582 264 129.648 263.48C129.728 262.96 129.768 262.453 129.768 261.96C129.768 261.347 129.695 260.927 129.548 260.7C129.415 260.473 129.175 260.36 128.828 260.36C128.402 260.36 127.935 260.567 127.428 260.98C126.935 261.393 126.508 261.92 126.148 262.56C126.095 263.347 126.008 264.18 125.888 265.06L125.268 270H122.568L123.148 265.64C123.388 263.987 123.508 262.733 123.508 261.88C123.495 261.267 123.408 260.86 123.248 260.66C123.102 260.46 122.835 260.36 122.448 260.36C122.022 260.36 121.535 260.593 120.988 261.06C120.455 261.527 120.008 262.087 119.648 262.74L118.648 270H116.048L117.328 260.48L116.308 259.94L116.468 259.12L119.588 258.64L120.048 258.86L119.848 261.08ZM138.014 268C138.001 268.067 137.994 268.147 137.994 268.24C137.994 268.56 138.107 268.72 138.334 268.72C138.454 268.72 138.587 268.68 138.734 268.6C138.881 268.52 139.067 268.387 139.294 268.2L139.554 268.82C139.327 269.127 138.987 269.433 138.534 269.74C138.094 270.047 137.554 270.2 136.914 270.2C136.394 270.2 135.987 270.1 135.694 269.9C135.401 269.687 135.254 269.4 135.254 269.04L135.274 268.84C135.354 268.147 135.627 266.133 136.094 262.8L136.414 260.48L135.234 259.92L135.374 259.14L138.814 258.66L139.294 258.88L138.014 268ZM138.234 256.74C137.874 256.74 137.561 256.607 137.294 256.34C137.041 256.06 136.914 255.74 136.914 255.38C136.914 254.887 137.074 254.473 137.394 254.14C137.727 253.807 138.147 253.64 138.654 253.64C139.067 253.64 139.394 253.773 139.634 254.04C139.874 254.293 139.994 254.6 139.994 254.96C139.994 255.467 139.841 255.893 139.534 256.24C139.227 256.573 138.794 256.74 138.234 256.74ZM144.199 268C144.186 268.053 144.179 268.127 144.179 268.22C144.179 268.553 144.299 268.72 144.539 268.72C144.659 268.72 144.786 268.687 144.919 268.62C145.066 268.553 145.259 268.413 145.499 268.2L145.759 268.82C145.546 269.127 145.233 269.433 144.819 269.74C144.406 270.047 143.873 270.2 143.219 270.2C142.713 270.2 142.299 270.1 141.979 269.9C141.659 269.687 141.493 269.36 141.479 268.92C141.479 268.867 141.506 268.627 141.559 268.2L143.299 255.42L142.039 255.02L142.219 254.28L145.619 253.88L146.079 254.14L144.199 268ZM150.553 268C150.54 268.067 150.533 268.147 150.533 268.24C150.533 268.56 150.647 268.72 150.873 268.72C150.993 268.72 151.127 268.68 151.273 268.6C151.42 268.52 151.607 268.387 151.833 268.2L152.093 268.82C151.867 269.127 151.527 269.433 151.073 269.74C150.633 270.047 150.093 270.2 149.453 270.2C148.933 270.2 148.527 270.1 148.233 269.9C147.94 269.687 147.793 269.4 147.793 269.04L147.813 268.84C147.893 268.147 148.167 266.133 148.633 262.8L148.953 260.48L147.773 259.92L147.913 259.14L151.353 258.66L151.833 258.88L150.553 268ZM150.773 256.74C150.413 256.74 150.1 256.607 149.833 256.34C149.58 256.06 149.453 255.74 149.453 255.38C149.453 254.887 149.613 254.473 149.933 254.14C150.267 253.807 150.687 253.64 151.193 253.64C151.607 253.64 151.933 253.773 152.173 254.04C152.413 254.293 152.533 254.6 152.533 254.96C152.533 255.467 152.38 255.893 152.073 256.24C151.767 256.573 151.333 256.74 150.773 256.74ZM162.499 267.96C162.485 268.013 162.479 268.093 162.479 268.2C162.479 268.547 162.612 268.72 162.879 268.72C163.092 268.72 163.392 268.56 163.779 268.24L164.059 268.86C163.885 269.127 163.572 269.42 163.119 269.74C162.679 270.047 162.165 270.2 161.579 270.2C161.125 270.2 160.765 270.1 160.499 269.9C160.232 269.7 160.092 269.393 160.079 268.98L160.119 268.64C159.745 269.08 159.292 269.453 158.759 269.76C158.225 270.053 157.639 270.2 156.999 270.2C155.879 270.2 155.039 269.82 154.479 269.06C153.932 268.287 153.659 267.28 153.659 266.04C153.659 264.813 153.912 263.633 154.419 262.5C154.939 261.367 155.692 260.44 156.679 259.72C157.665 259 158.839 258.64 160.199 258.64C160.545 258.64 160.919 258.68 161.319 258.76C161.732 258.84 162.092 258.933 162.399 259.04L163.779 258.64L162.499 267.96ZM160.959 260.06C160.705 259.94 160.379 259.88 159.979 259.88C159.179 259.88 158.512 260.187 157.979 260.8C157.445 261.4 157.052 262.167 156.799 263.1C156.559 264.02 156.439 264.953 156.439 265.9C156.439 266.78 156.572 267.467 156.839 267.96C157.105 268.44 157.499 268.68 158.019 268.68C158.352 268.68 158.685 268.567 159.019 268.34C159.365 268.113 159.672 267.847 159.939 267.54L160.959 260.06ZM169.237 261.52C169.49 260.76 169.923 260.093 170.537 259.52C171.163 258.933 171.863 258.64 172.637 258.64C172.903 258.64 173.13 258.7 173.317 258.82L172.737 261.7C172.657 261.633 172.523 261.573 172.337 261.52C172.163 261.453 171.95 261.42 171.697 261.42C171.217 261.42 170.757 261.527 170.317 261.74C169.877 261.94 169.537 262.233 169.297 262.62L168.317 270H165.717L166.977 260.5L165.957 259.94L166.097 259.14L168.957 258.66L169.417 258.94L169.317 260.76L169.237 261.52ZM182.219 268C181.872 268.547 181.305 269.06 180.519 269.54C179.745 270.02 178.845 270.26 177.819 270.26C176.859 270.26 176.065 270.053 175.439 269.64C174.825 269.227 174.379 268.687 174.099 268.02C173.819 267.353 173.679 266.627 173.679 265.84C173.679 264.507 173.945 263.293 174.479 262.2C175.025 261.093 175.765 260.22 176.699 259.58C177.632 258.94 178.672 258.62 179.819 258.62C180.845 258.62 181.605 258.86 182.099 259.34C182.605 259.807 182.859 260.42 182.859 261.18C182.859 262.14 182.512 262.94 181.819 263.58C181.125 264.22 180.292 264.7 179.319 265.02C178.345 265.327 177.425 265.493 176.559 265.52C176.532 266.48 176.685 267.253 177.019 267.84C177.365 268.427 177.885 268.72 178.579 268.72C179.725 268.72 180.765 268.187 181.699 267.12L182.219 268ZM179.219 259.86C178.432 259.86 177.812 260.333 177.359 261.28C176.905 262.227 176.639 263.28 176.559 264.44C177.079 264.413 177.625 264.273 178.199 264.02C178.785 263.767 179.272 263.413 179.659 262.96C180.059 262.493 180.259 261.96 180.259 261.36C180.259 260.88 180.165 260.513 179.979 260.26C179.805 259.993 179.552 259.86 179.219 259.86Z" fill="#394454"/>
<path d="M115.248 94L124.955 74.7784V74.6335H113.558V69.2727H131.91V74.6335L122.154 94H115.248ZM144.485 94.3381C142.489 94.3381 140.706 94.0282 139.136 93.4084C137.575 92.7886 136.343 91.9474 135.441 90.8849C134.548 89.8224 134.101 88.6231 134.101 87.2869C134.101 86.2647 134.355 85.331 134.862 84.4858C135.377 83.6406 136.069 82.9403 136.939 82.3849C137.808 81.8215 138.778 81.4593 139.848 81.2983V81.1051C138.44 80.8636 137.281 80.2398 136.371 79.2337C135.47 78.2195 135.019 77.0241 135.019 75.6477C135.019 74.3518 135.429 73.2008 136.25 72.1946C137.071 71.1804 138.194 70.3835 139.619 69.804C141.044 69.2244 142.666 68.9347 144.485 68.9347C146.304 68.9347 147.926 69.2285 149.351 69.8161C150.775 70.3956 151.898 71.1925 152.719 72.2067C153.54 73.2128 153.951 74.3598 153.951 75.6477C153.951 77.0322 153.492 78.2275 152.574 79.2337C151.657 80.2398 150.506 80.8636 149.121 81.1051V81.2983C150.184 81.4593 151.15 81.8215 152.019 82.3849C152.888 82.9403 153.58 83.6406 154.096 84.4858C154.611 85.331 154.868 86.2647 154.868 87.2869C154.868 88.6231 154.418 89.8224 153.516 90.8849C152.623 91.9474 151.391 92.7886 149.821 93.4084C148.26 94.0282 146.481 94.3381 144.485 94.3381ZM144.485 89.7017C145.121 89.7017 145.684 89.5729 146.175 89.3153C146.666 89.0578 147.053 88.7036 147.334 88.2528C147.624 87.794 147.769 87.2789 147.769 86.7074C147.769 86.1359 147.624 85.6288 147.334 85.1861C147.053 84.7434 146.666 84.3973 146.175 84.1477C145.684 83.8902 145.121 83.7614 144.485 83.7614C143.857 83.7614 143.294 83.8902 142.794 84.1477C142.303 84.3973 141.913 84.7434 141.623 85.1861C141.342 85.6288 141.201 86.1359 141.201 86.7074C141.201 87.2789 141.342 87.79 141.623 88.2408C141.913 88.6915 142.303 89.0497 142.794 89.3153C143.294 89.5729 143.857 89.7017 144.485 89.7017ZM144.485 79.125C145.048 79.125 145.547 79.0083 145.982 78.7749C146.417 78.5414 146.759 78.2195 147.008 77.8089C147.258 77.3984 147.383 76.9356 147.383 76.4205C147.383 75.9053 147.258 75.4505 147.008 75.0561C146.759 74.6536 146.417 74.3397 145.982 74.1143C145.547 73.8809 145.048 73.7642 144.485 73.7642C143.929 73.7642 143.43 73.8809 142.988 74.1143C142.553 74.3397 142.211 74.6536 141.961 75.0561C141.712 75.4505 141.587 75.9053 141.587 76.4205C141.587 76.9356 141.712 77.3984 141.961 77.8089C142.211 78.2114 142.553 78.5334 142.988 78.7749C143.43 79.0083 143.929 79.125 144.485 79.125ZM172.016 89.3636V88.0597C172.016 87.0133 172.242 86.0473 172.692 85.1619C173.151 84.2765 173.815 83.5642 174.685 83.0249C175.554 82.4856 176.612 82.2159 177.86 82.2159C179.14 82.2159 180.214 82.4815 181.084 83.0128C181.961 83.544 182.625 84.2524 183.076 85.1378C183.527 86.0232 183.752 86.9972 183.752 88.0597V89.3636C183.752 90.41 183.523 91.3759 183.064 92.2614C182.613 93.1468 181.949 93.8591 181.072 94.3984C180.194 94.9377 179.124 95.2074 177.86 95.2074C176.596 95.2074 175.53 94.9377 174.66 94.3984C173.791 93.8591 173.131 93.1468 172.68 92.2614C172.238 91.3759 172.016 90.41 172.016 89.3636ZM176.218 88.0597V89.3636C176.218 89.8224 176.331 90.2772 176.556 90.728C176.789 91.1707 177.224 91.392 177.86 91.392C178.528 91.392 178.967 91.1747 179.176 90.7401C179.393 90.3054 179.502 89.8466 179.502 89.3636V88.0597C179.502 87.5767 179.401 87.1098 179.2 86.6591C178.999 86.2083 178.552 85.983 177.86 85.983C177.224 85.983 176.789 86.2083 176.556 86.6591C176.331 87.1098 176.218 87.5767 176.218 88.0597ZM159.073 75.2131V73.9091C159.073 72.8466 159.302 71.8726 159.761 70.9872C160.228 70.1018 160.896 69.3935 161.766 68.8622C162.635 68.331 163.685 68.0653 164.917 68.0653C166.197 68.0653 167.271 68.331 168.141 68.8622C169.018 69.3935 169.682 70.1018 170.133 70.9872C170.583 71.8726 170.809 72.8466 170.809 73.9091V75.2131C170.809 76.2756 170.579 77.2455 170.121 78.1229C169.67 79.0002 169.006 79.7005 168.128 80.2237C167.251 80.7469 166.181 81.0085 164.917 81.0085C163.653 81.0085 162.587 80.7429 161.717 80.2116C160.848 79.6804 160.188 78.9761 159.737 78.0987C159.294 77.2214 159.073 76.2595 159.073 75.2131ZM163.323 73.9091V75.2131C163.323 75.696 163.436 76.1548 163.661 76.5895C163.887 77.0241 164.305 77.2415 164.917 77.2415C165.585 77.2415 166.024 77.0241 166.233 76.5895C166.45 76.1548 166.559 75.696 166.559 75.2131V73.9091C166.559 73.4261 166.458 72.9593 166.257 72.5085C166.056 72.0578 165.609 71.8324 164.917 71.8324C164.281 71.8324 163.854 72.0658 163.637 72.5327C163.428 72.9915 163.323 73.4503 163.323 73.9091ZM161.126 94L178.126 69.2727H181.555L164.555 94H161.126Z" fill="#F04E5A"/>
<path d="M141 7C156.436 7 171.496 11.7629 184.125 20.6388C196.754 29.5146 206.337 42.0711 211.566 56.5947C216.795 71.1182 217.415 86.9014 213.342 101.79C209.269 116.68 200.701 129.949 188.807 139.788C176.913 149.628 162.273 155.558 146.884 156.769C131.496 157.98 116.108 154.413 102.822 146.556C89.5354 138.698 78.9969 126.932 72.6448 112.864C66.2926 98.795 64.436 83.1091 67.3285 67.9464L78.556 70.0882C76.1044 82.9401 77.678 96.2355 83.0621 108.16C88.4462 120.084 97.3786 130.057 108.64 136.717C119.902 143.378 132.944 146.401 145.988 145.374C159.031 144.348 171.44 139.321 181.521 130.982C191.602 122.642 198.864 111.394 202.317 98.7744C205.769 86.1545 205.244 72.7766 200.812 60.4664C196.38 48.1563 188.257 37.5134 177.553 29.9902C166.849 22.467 154.084 18.43 141 18.43L141 7Z" fill="#F04E5A"/>
</svg>
