<svg width="323" height="276" viewBox="0 0 323 276" fill="none" xmlns="http://www.w3.org/2000/svg">
<circle cx="162" cy="82" r="82" fill="#E9E9E9"/>
<path d="M13.827 217.98C13.8136 218.033 13.807 218.113 13.807 218.22C13.807 218.553 13.9203 218.72 14.147 218.72C14.3736 218.72 14.6736 218.567 15.047 218.26L15.327 218.88C14.5803 219.76 13.7536 220.2 12.847 220.2C12.3803 220.2 12.027 220.087 11.787 219.86C11.547 219.633 11.407 219.287 11.367 218.82V218.52C11.0336 218.987 10.587 219.387 10.027 219.72C9.46695 220.04 8.82695 220.2 8.10695 220.2C6.98695 220.2 6.15362 219.82 5.60695 219.06C5.06029 218.287 4.78695 217.28 4.78695 216.04C4.78695 214.8 5.03362 213.613 5.52695 212.48C6.02029 211.347 6.75362 210.427 7.72695 209.72C8.71362 209 9.90029 208.64 11.287 208.64C11.6736 208.64 12.0803 208.693 12.507 208.8L13.007 205.42L11.567 205.02L11.747 204.28L15.347 203.88L15.847 204.14L13.827 217.98ZM12.307 210.16C11.9736 209.973 11.5536 209.88 11.047 209.88C10.2336 209.88 9.56695 210.193 9.04695 210.82C8.52695 211.433 8.14695 212.2 7.90695 213.12C7.66695 214.04 7.54695 214.973 7.54695 215.92C7.54695 216.8 7.68029 217.48 7.94695 217.96C8.22695 218.44 8.62029 218.68 9.12695 218.68C9.54029 218.68 9.93362 218.553 10.307 218.3C10.6803 218.033 10.987 217.72 11.227 217.36L12.307 210.16ZM25.3591 218C25.0125 218.547 24.4458 219.06 23.6591 219.54C22.8858 220.02 21.9858 220.26 20.9591 220.26C19.9991 220.26 19.2058 220.053 18.5791 219.64C17.9658 219.227 17.5191 218.687 17.2391 218.02C16.9591 217.353 16.8191 216.627 16.8191 215.84C16.8191 214.507 17.0858 213.293 17.6191 212.2C18.1658 211.093 18.9058 210.22 19.8391 209.58C20.7725 208.94 21.8125 208.62 22.9591 208.62C23.9858 208.62 24.7458 208.86 25.2391 209.34C25.7458 209.807 25.9991 210.42 25.9991 211.18C25.9991 212.14 25.6525 212.94 24.9591 213.58C24.2658 214.22 23.4325 214.7 22.4591 215.02C21.4858 215.327 20.5658 215.493 19.6991 215.52C19.6725 216.48 19.8258 217.253 20.1591 217.84C20.5058 218.427 21.0258 218.72 21.7191 218.72C22.8658 218.72 23.9058 218.187 24.8391 217.12L25.3591 218ZM22.3591 209.86C21.5725 209.86 20.9525 210.333 20.4991 211.28C20.0458 212.227 19.7791 213.28 19.6991 214.44C20.2191 214.413 20.7658 214.273 21.3391 214.02C21.9258 213.767 22.4125 213.413 22.7991 212.96C23.1991 212.493 23.3991 211.96 23.3991 211.36C23.3991 210.88 23.3058 210.513 23.1191 210.26C22.9458 209.993 22.6925 209.86 22.3591 209.86ZM34.1684 210.8C34.0084 210.613 33.7417 210.42 33.3684 210.22C33.0084 210.02 32.5884 209.92 32.1084 209.92C31.575 209.92 31.1417 210.04 30.8084 210.28C30.4884 210.507 30.3284 210.847 30.3284 211.3C30.3284 211.7 30.4617 212.06 30.7284 212.38C31.0084 212.687 31.455 213.06 32.0684 213.5C32.7484 214.007 33.2684 214.5 33.6284 214.98C33.9884 215.447 34.1684 216.047 34.1684 216.78C34.1684 217.513 33.9684 218.14 33.5684 218.66C33.1684 219.167 32.635 219.553 31.9684 219.82C31.3017 220.073 30.5684 220.2 29.7684 220.2C29.1684 220.2 28.555 220.133 27.9284 220C27.3017 219.853 26.895 219.7 26.7084 219.54L27.1084 217.84C27.3884 218.08 27.7684 218.307 28.2484 218.52C28.7284 218.733 29.2284 218.84 29.7484 218.84C30.2417 218.84 30.6617 218.727 31.0084 218.5C31.3684 218.273 31.5484 217.92 31.5484 217.44C31.5484 217.027 31.395 216.653 31.0884 216.32C30.7817 215.987 30.3217 215.607 29.7084 215.18C29.1484 214.793 28.675 214.34 28.2884 213.82C27.915 213.287 27.7284 212.647 27.7284 211.9C27.7284 211.26 27.9084 210.693 28.2684 210.2C28.6417 209.707 29.1484 209.327 29.7884 209.06C30.4417 208.78 31.1884 208.64 32.0284 208.64C32.5217 208.64 33.0217 208.68 33.5284 208.76C34.035 208.84 34.375 208.927 34.5484 209.02L34.1684 210.8ZM42.6696 207.94C42.8029 207.14 43.0629 206.42 43.4496 205.78C43.8496 205.14 44.3563 204.633 44.9696 204.26C45.5829 203.887 46.2696 203.7 47.0296 203.7C47.7363 203.7 48.2963 203.78 48.7096 203.94L48.1496 205.54C47.7629 205.247 47.3163 205.1 46.8096 205.1C46.3163 205.1 45.9563 205.287 45.7296 205.66C45.5163 206.033 45.3563 206.607 45.2496 207.38L45.0496 208.84H47.2496L46.9896 210.34H44.8496L43.7496 219.22C43.5363 220.86 43.0496 222.233 42.2896 223.34C41.5429 224.447 40.5429 225.007 39.2896 225.02C38.9829 225.033 38.6629 225.02 38.3296 224.98C37.9829 224.94 37.7096 224.893 37.5096 224.84L38.0296 223.16C38.2029 223.24 38.4563 223.327 38.7896 223.42C39.1096 223.527 39.3696 223.58 39.5696 223.58C39.9296 223.58 40.2096 223.4 40.4096 223.04C40.6229 222.693 40.7763 222.167 40.8696 221.46L42.2496 210.34H40.9696L41.1496 209.46L42.5096 208.88L42.6696 207.94ZM56.1274 217.96C56.1141 218.013 56.1074 218.093 56.1074 218.2C56.1074 218.547 56.2408 218.72 56.5074 218.72C56.7208 218.72 57.0208 218.56 57.4074 218.24L57.6874 218.86C57.5141 219.127 57.2008 219.42 56.7474 219.74C56.3074 220.047 55.7941 220.2 55.2074 220.2C54.7541 220.2 54.3941 220.1 54.1274 219.9C53.8608 219.7 53.7208 219.393 53.7074 218.98L53.7474 218.64C53.3741 219.08 52.9208 219.453 52.3874 219.76C51.8541 220.053 51.2674 220.2 50.6274 220.2C49.5074 220.2 48.6674 219.82 48.1074 219.06C47.5608 218.287 47.2874 217.28 47.2874 216.04C47.2874 214.813 47.5408 213.633 48.0474 212.5C48.5674 211.367 49.3208 210.44 50.3074 209.72C51.2941 209 52.4674 208.64 53.8274 208.64C54.1741 208.64 54.5474 208.68 54.9474 208.76C55.3608 208.84 55.7208 208.933 56.0274 209.04L57.4074 208.64L56.1274 217.96ZM54.5874 210.06C54.3341 209.94 54.0074 209.88 53.6074 209.88C52.8074 209.88 52.1408 210.187 51.6074 210.8C51.0741 211.4 50.6808 212.167 50.4274 213.1C50.1874 214.02 50.0674 214.953 50.0674 215.9C50.0674 216.78 50.2008 217.467 50.4674 217.96C50.7341 218.44 51.1274 218.68 51.6474 218.68C51.9808 218.68 52.3141 218.567 52.6474 218.34C52.9941 218.113 53.3008 217.847 53.5674 217.54L54.5874 210.06ZM63.1257 211.08C63.6057 210.36 64.179 209.773 64.8457 209.32C65.5124 208.867 66.2124 208.64 66.9457 208.64C67.6924 208.64 68.2724 208.84 68.6857 209.24C69.1124 209.627 69.359 210.253 69.4257 211.12C69.8924 210.347 70.459 209.74 71.1257 209.3C71.8057 208.86 72.539 208.64 73.3257 208.64C74.9924 208.64 75.8257 209.62 75.8257 211.58C75.8257 212.007 75.6924 212.993 75.4257 214.54L75.3457 215.06L75.2457 215.58C75.019 216.82 74.899 217.673 74.8857 218.14C74.8857 218.527 74.999 218.72 75.2257 218.72C75.3457 218.72 75.4724 218.687 75.6057 218.62C75.7524 218.54 75.9457 218.4 76.1857 218.2L76.4457 218.82C76.259 219.1 75.9324 219.4 75.4657 219.72C74.999 220.04 74.439 220.2 73.7857 220.2C73.159 220.2 72.7257 220.073 72.4857 219.82C72.2457 219.567 72.1257 219.227 72.1257 218.8C72.1257 218.533 72.1657 218.147 72.2457 217.64C72.3257 217.12 72.4124 216.6 72.5057 216.08L72.5857 215.62C72.7457 214.713 72.859 214 72.9257 213.48C73.0057 212.96 73.0457 212.453 73.0457 211.96C73.0457 211.347 72.9724 210.927 72.8257 210.7C72.6924 210.473 72.4524 210.36 72.1057 210.36C71.679 210.36 71.2124 210.567 70.7057 210.98C70.2124 211.393 69.7857 211.92 69.4257 212.56C69.3724 213.347 69.2857 214.18 69.1657 215.06L68.5457 220H65.8457L66.4257 215.64C66.6657 213.987 66.7857 212.733 66.7857 211.88C66.7724 211.267 66.6857 210.86 66.5257 210.66C66.379 210.46 66.1124 210.36 65.7257 210.36C65.299 210.36 64.8124 210.593 64.2657 211.06C63.7324 211.527 63.2857 212.087 62.9257 212.74L61.9257 220H59.3257L60.6057 210.48L59.5857 209.94L59.7457 209.12L62.8657 208.64L63.3257 208.86L63.1257 211.08ZM81.2915 218C81.2782 218.067 81.2715 218.147 81.2715 218.24C81.2715 218.56 81.3848 218.72 81.6115 218.72C81.7315 218.72 81.8648 218.68 82.0115 218.6C82.1582 218.52 82.3448 218.387 82.5715 218.2L82.8315 218.82C82.6048 219.127 82.2648 219.433 81.8115 219.74C81.3715 220.047 80.8315 220.2 80.1915 220.2C79.6715 220.2 79.2648 220.1 78.9715 219.9C78.6782 219.687 78.5315 219.4 78.5315 219.04L78.5515 218.84C78.6315 218.147 78.9048 216.133 79.3715 212.8L79.6915 210.48L78.5115 209.92L78.6515 209.14L82.0915 208.66L82.5715 208.88L81.2915 218ZM81.5115 206.74C81.1515 206.74 80.8382 206.607 80.5715 206.34C80.3182 206.06 80.1915 205.74 80.1915 205.38C80.1915 204.887 80.3515 204.473 80.6715 204.14C81.0048 203.807 81.4248 203.64 81.9315 203.64C82.3448 203.64 82.6715 203.773 82.9115 204.04C83.1515 204.293 83.2715 204.6 83.2715 204.96C83.2715 205.467 83.1182 205.893 82.8115 206.24C82.5048 206.573 82.0715 206.74 81.5115 206.74ZM87.4768 218C87.4635 218.053 87.4568 218.127 87.4568 218.22C87.4568 218.553 87.5768 218.72 87.8168 218.72C87.9368 218.72 88.0635 218.687 88.1968 218.62C88.3435 218.553 88.5368 218.413 88.7768 218.2L89.0368 218.82C88.8235 219.127 88.5101 219.433 88.0968 219.74C87.6835 220.047 87.1501 220.2 86.4968 220.2C85.9901 220.2 85.5768 220.1 85.2568 219.9C84.9368 219.687 84.7701 219.36 84.7568 218.92C84.7568 218.867 84.7835 218.627 84.8368 218.2L86.5768 205.42L85.3168 205.02L85.4968 204.28L88.8968 203.88L89.3568 204.14L87.4768 218ZM93.5705 218C93.5572 218.053 93.5505 218.127 93.5505 218.22C93.5505 218.553 93.6705 218.72 93.9105 218.72C94.0305 218.72 94.1572 218.687 94.2905 218.62C94.4372 218.553 94.6305 218.413 94.8705 218.2L95.1305 218.82C94.9172 219.127 94.6039 219.433 94.1905 219.74C93.7772 220.047 93.2439 220.2 92.5905 220.2C92.0839 220.2 91.6705 220.1 91.3505 219.9C91.0305 219.687 90.8639 219.36 90.8505 218.92C90.8505 218.867 90.8772 218.627 90.9305 218.2L92.6705 205.42L91.4105 205.02L91.5905 204.28L94.9905 203.88L95.4505 204.14L93.5705 218ZM105.144 218C104.798 218.547 104.231 219.06 103.444 219.54C102.671 220.02 101.771 220.26 100.744 220.26C99.7843 220.26 98.991 220.053 98.3643 219.64C97.751 219.227 97.3043 218.687 97.0243 218.02C96.7443 217.353 96.6043 216.627 96.6043 215.84C96.6043 214.507 96.871 213.293 97.4043 212.2C97.951 211.093 98.691 210.22 99.6243 209.58C100.558 208.94 101.598 208.62 102.744 208.62C103.771 208.62 104.531 208.86 105.024 209.34C105.531 209.807 105.784 210.42 105.784 211.18C105.784 212.14 105.438 212.94 104.744 213.58C104.051 214.22 103.218 214.7 102.244 215.02C101.271 215.327 100.351 215.493 99.4843 215.52C99.4576 216.48 99.611 217.253 99.9443 217.84C100.291 218.427 100.811 218.72 101.504 218.72C102.651 218.72 103.691 218.187 104.624 217.12L105.144 218ZM102.144 209.86C101.358 209.86 100.738 210.333 100.284 211.28C99.831 212.227 99.5643 213.28 99.4843 214.44C100.004 214.413 100.551 214.273 101.124 214.02C101.711 213.767 102.198 213.413 102.584 212.96C102.984 212.493 103.184 211.96 103.184 211.36C103.184 210.88 103.091 210.513 102.904 210.26C102.731 209.993 102.478 209.86 102.144 209.86ZM113.954 210.8C113.794 210.613 113.527 210.42 113.154 210.22C112.794 210.02 112.374 209.92 111.894 209.92C111.36 209.92 110.927 210.04 110.594 210.28C110.274 210.507 110.114 210.847 110.114 211.3C110.114 211.7 110.247 212.06 110.514 212.38C110.794 212.687 111.24 213.06 111.854 213.5C112.534 214.007 113.054 214.5 113.414 214.98C113.774 215.447 113.954 216.047 113.954 216.78C113.954 217.513 113.754 218.14 113.354 218.66C112.954 219.167 112.42 219.553 111.754 219.82C111.087 220.073 110.354 220.2 109.554 220.2C108.954 220.2 108.34 220.133 107.714 220C107.087 219.853 106.68 219.7 106.494 219.54L106.894 217.84C107.174 218.08 107.554 218.307 108.034 218.52C108.514 218.733 109.014 218.84 109.534 218.84C110.027 218.84 110.447 218.727 110.794 218.5C111.154 218.273 111.334 217.92 111.334 217.44C111.334 217.027 111.18 216.653 110.874 216.32C110.567 215.987 110.107 215.607 109.494 215.18C108.934 214.793 108.46 214.34 108.074 213.82C107.7 213.287 107.514 212.647 107.514 211.9C107.514 211.26 107.694 210.693 108.054 210.2C108.427 209.707 108.934 209.327 109.574 209.06C110.227 208.78 110.974 208.64 111.814 208.64C112.307 208.64 112.807 208.68 113.314 208.76C113.82 208.84 114.16 208.927 114.334 209.02L113.954 210.8ZM127.235 210.8C127.075 210.613 126.808 210.42 126.435 210.22C126.075 210.02 125.655 209.92 125.175 209.92C124.641 209.92 124.208 210.04 123.875 210.28C123.555 210.507 123.395 210.847 123.395 211.3C123.395 211.7 123.528 212.06 123.795 212.38C124.075 212.687 124.521 213.06 125.135 213.5C125.815 214.007 126.335 214.5 126.695 214.98C127.055 215.447 127.235 216.047 127.235 216.78C127.235 217.513 127.035 218.14 126.635 218.66C126.235 219.167 125.701 219.553 125.035 219.82C124.368 220.073 123.635 220.2 122.835 220.2C122.235 220.2 121.621 220.133 120.995 220C120.368 219.853 119.961 219.7 119.775 219.54L120.175 217.84C120.455 218.08 120.835 218.307 121.315 218.52C121.795 218.733 122.295 218.84 122.815 218.84C123.308 218.84 123.728 218.727 124.075 218.5C124.435 218.273 124.615 217.92 124.615 217.44C124.615 217.027 124.461 216.653 124.155 216.32C123.848 215.987 123.388 215.607 122.775 215.18C122.215 214.793 121.741 214.34 121.355 213.82C120.981 213.287 120.795 212.647 120.795 211.9C120.795 211.26 120.975 210.693 121.335 210.2C121.708 209.707 122.215 209.327 122.855 209.06C123.508 208.78 124.255 208.64 125.095 208.64C125.588 208.64 126.088 208.68 126.595 208.76C127.101 208.84 127.441 208.927 127.615 209.02L127.235 210.8ZM133.53 203.52L131.93 210.56H130.27L131.09 203.52H133.53ZM143.256 217.96C143.243 218.013 143.236 218.093 143.236 218.2C143.236 218.547 143.37 218.72 143.636 218.72C143.85 218.72 144.15 218.56 144.536 218.24L144.816 218.86C144.643 219.127 144.33 219.42 143.876 219.74C143.436 220.047 142.923 220.2 142.336 220.2C141.883 220.2 141.523 220.1 141.256 219.9C140.99 219.7 140.85 219.393 140.836 218.98L140.876 218.64C140.503 219.08 140.05 219.453 139.516 219.76C138.983 220.053 138.396 220.2 137.756 220.2C136.636 220.2 135.796 219.82 135.236 219.06C134.69 218.287 134.416 217.28 134.416 216.04C134.416 214.813 134.67 213.633 135.176 212.5C135.696 211.367 136.45 210.44 137.436 209.72C138.423 209 139.596 208.64 140.956 208.64C141.303 208.64 141.676 208.68 142.076 208.76C142.49 208.84 142.85 208.933 143.156 209.04L144.536 208.64L143.256 217.96ZM141.716 210.06C141.463 209.94 141.136 209.88 140.736 209.88C139.936 209.88 139.27 210.187 138.736 210.8C138.203 211.4 137.81 212.167 137.556 213.1C137.316 214.02 137.196 214.953 137.196 215.9C137.196 216.78 137.33 217.467 137.596 217.96C137.863 218.44 138.256 218.68 138.776 218.68C139.11 218.68 139.443 218.567 139.776 218.34C140.123 218.113 140.43 217.847 140.696 217.54L141.716 210.06ZM149.495 216.34C149.401 217.113 149.355 217.58 149.355 217.74C149.355 218.047 149.415 218.267 149.535 218.4C149.655 218.52 149.861 218.58 150.155 218.58C150.421 218.58 150.721 218.52 151.055 218.4C151.401 218.267 151.688 218.107 151.915 217.92L152.135 218.66C151.788 219.047 151.295 219.4 150.655 219.72C150.015 220.04 149.295 220.2 148.495 220.2C147.935 220.2 147.488 220.06 147.155 219.78C146.835 219.487 146.675 219.027 146.675 218.4C146.675 218.133 146.741 217.507 146.875 216.52L147.715 210.32H146.515L146.735 209.36L147.935 208.94C148.335 208.567 148.808 207.647 149.355 206.18H150.855L150.515 208.9H152.915L152.715 210.32H150.315L149.495 216.34ZM156.604 216.34C156.511 217.113 156.464 217.58 156.464 217.74C156.464 218.047 156.524 218.267 156.644 218.4C156.764 218.52 156.971 218.58 157.264 218.58C157.531 218.58 157.831 218.52 158.164 218.4C158.511 218.267 158.797 218.107 159.024 217.92L159.244 218.66C158.897 219.047 158.404 219.4 157.764 219.72C157.124 220.04 156.404 220.2 155.604 220.2C155.044 220.2 154.597 220.06 154.264 219.78C153.944 219.487 153.784 219.027 153.784 218.4C153.784 218.133 153.851 217.507 153.984 216.52L154.824 210.32H153.624L153.844 209.36L155.044 208.94C155.444 208.567 155.917 207.647 156.464 206.18H157.964L157.624 208.9H160.024L159.824 210.32H157.424L156.604 216.34ZM168.933 218C168.587 218.547 168.02 219.06 167.233 219.54C166.46 220.02 165.56 220.26 164.533 220.26C163.573 220.26 162.78 220.053 162.153 219.64C161.54 219.227 161.093 218.687 160.813 218.02C160.533 217.353 160.393 216.627 160.393 215.84C160.393 214.507 160.66 213.293 161.193 212.2C161.74 211.093 162.48 210.22 163.413 209.58C164.347 208.94 165.387 208.62 166.533 208.62C167.56 208.62 168.32 208.86 168.813 209.34C169.32 209.807 169.573 210.42 169.573 211.18C169.573 212.14 169.227 212.94 168.533 213.58C167.84 214.22 167.007 214.7 166.033 215.02C165.06 215.327 164.14 215.493 163.273 215.52C163.247 216.48 163.4 217.253 163.733 217.84C164.08 218.427 164.6 218.72 165.293 218.72C166.44 218.72 167.48 218.187 168.413 217.12L168.933 218ZM165.933 209.86C165.147 209.86 164.527 210.333 164.073 211.28C163.62 212.227 163.353 213.28 163.273 214.44C163.793 214.413 164.34 214.273 164.913 214.02C165.5 213.767 165.987 213.413 166.373 212.96C166.773 212.493 166.973 211.96 166.973 211.36C166.973 210.88 166.88 210.513 166.693 210.26C166.52 209.993 166.267 209.86 165.933 209.86ZM174.923 211.06C175.416 210.327 176.003 209.74 176.683 209.3C177.363 208.86 178.076 208.64 178.823 208.64C180.476 208.64 181.303 209.62 181.303 211.58C181.303 212.1 181.136 213.26 180.803 215.06C180.749 215.407 180.703 215.673 180.663 215.86C180.476 216.913 180.376 217.673 180.363 218.14V218.22C180.363 218.553 180.469 218.72 180.683 218.72C180.803 218.72 180.929 218.687 181.063 218.62C181.196 218.553 181.369 218.433 181.583 218.26L181.863 218.88C181.663 219.16 181.336 219.453 180.883 219.76C180.429 220.053 179.876 220.2 179.223 220.2C178.596 220.2 178.163 220.067 177.923 219.8C177.683 219.52 177.563 219.153 177.563 218.7C177.576 218.3 177.703 217.507 177.943 216.32L178.063 215.64C178.089 215.52 178.143 215.2 178.223 214.68C178.316 214.16 178.389 213.667 178.443 213.2C178.496 212.72 178.523 212.307 178.523 211.96C178.523 211.347 178.449 210.927 178.303 210.7C178.169 210.473 177.923 210.36 177.563 210.36C177.123 210.36 176.629 210.607 176.083 211.1C175.549 211.593 175.089 212.187 174.703 212.88L173.743 220H171.123L172.403 210.48L171.383 209.94L171.543 209.12L174.663 208.64L175.123 208.86L174.923 211.06ZM192.44 217.98C192.427 218.033 192.42 218.113 192.42 218.22C192.42 218.553 192.534 218.72 192.76 218.72C192.987 218.72 193.287 218.567 193.66 218.26L193.94 218.88C193.194 219.76 192.367 220.2 191.46 220.2C190.994 220.2 190.64 220.087 190.4 219.86C190.16 219.633 190.02 219.287 189.98 218.82V218.52C189.647 218.987 189.2 219.387 188.64 219.72C188.08 220.04 187.44 220.2 186.72 220.2C185.6 220.2 184.767 219.82 184.22 219.06C183.674 218.287 183.4 217.28 183.4 216.04C183.4 214.8 183.647 213.613 184.14 212.48C184.634 211.347 185.367 210.427 186.34 209.72C187.327 209 188.514 208.64 189.9 208.64C190.287 208.64 190.694 208.693 191.12 208.8L191.62 205.42L190.18 205.02L190.36 204.28L193.96 203.88L194.46 204.14L192.44 217.98ZM190.92 210.16C190.587 209.973 190.167 209.88 189.66 209.88C188.847 209.88 188.18 210.193 187.66 210.82C187.14 211.433 186.76 212.2 186.52 213.12C186.28 214.04 186.16 214.973 186.16 215.92C186.16 216.8 186.294 217.48 186.56 217.96C186.84 218.44 187.234 218.68 187.74 218.68C188.154 218.68 188.547 218.553 188.92 218.3C189.294 218.033 189.6 217.72 189.84 217.36L190.92 210.16ZM203.972 218C203.626 218.547 203.059 219.06 202.272 219.54C201.499 220.02 200.599 220.26 199.572 220.26C198.612 220.26 197.819 220.053 197.192 219.64C196.579 219.227 196.132 218.687 195.852 218.02C195.572 217.353 195.432 216.627 195.432 215.84C195.432 214.507 195.699 213.293 196.232 212.2C196.779 211.093 197.519 210.22 198.452 209.58C199.386 208.94 200.426 208.62 201.572 208.62C202.599 208.62 203.359 208.86 203.852 209.34C204.359 209.807 204.612 210.42 204.612 211.18C204.612 212.14 204.266 212.94 203.572 213.58C202.879 214.22 202.046 214.7 201.072 215.02C200.099 215.327 199.179 215.493 198.312 215.52C198.286 216.48 198.439 217.253 198.772 217.84C199.119 218.427 199.639 218.72 200.332 218.72C201.479 218.72 202.519 218.187 203.452 217.12L203.972 218ZM200.972 209.86C200.186 209.86 199.566 210.333 199.112 211.28C198.659 212.227 198.392 213.28 198.312 214.44C198.832 214.413 199.379 214.273 199.952 214.02C200.539 213.767 201.026 213.413 201.412 212.96C201.812 212.493 202.012 211.96 202.012 211.36C202.012 210.88 201.919 210.513 201.732 210.26C201.559 209.993 201.306 209.86 200.972 209.86ZM209.962 211.06C210.455 210.327 211.042 209.74 211.722 209.3C212.402 208.86 213.115 208.64 213.862 208.64C215.515 208.64 216.342 209.62 216.342 211.58C216.342 212.1 216.175 213.26 215.842 215.06C215.788 215.407 215.742 215.673 215.702 215.86C215.515 216.913 215.415 217.673 215.402 218.14V218.22C215.402 218.553 215.508 218.72 215.722 218.72C215.842 218.72 215.968 218.687 216.102 218.62C216.235 218.553 216.408 218.433 216.622 218.26L216.902 218.88C216.702 219.16 216.375 219.453 215.922 219.76C215.468 220.053 214.915 220.2 214.262 220.2C213.635 220.2 213.202 220.067 212.962 219.8C212.722 219.52 212.602 219.153 212.602 218.7C212.615 218.3 212.742 217.507 212.982 216.32L213.102 215.64C213.128 215.52 213.182 215.2 213.262 214.68C213.355 214.16 213.428 213.667 213.482 213.2C213.535 212.72 213.562 212.307 213.562 211.96C213.562 211.347 213.488 210.927 213.342 210.7C213.208 210.473 212.962 210.36 212.602 210.36C212.162 210.36 211.668 210.607 211.122 211.1C210.588 211.593 210.128 212.187 209.742 212.88L208.782 220H206.162L207.442 210.48L206.422 209.94L206.582 209.12L209.702 208.64L210.162 208.86L209.962 211.06ZM221.799 216.34C221.706 217.113 221.659 217.58 221.659 217.74C221.659 218.047 221.719 218.267 221.839 218.4C221.959 218.52 222.166 218.58 222.459 218.58C222.726 218.58 223.026 218.52 223.359 218.4C223.706 218.267 223.993 218.107 224.219 217.92L224.439 218.66C224.093 219.047 223.599 219.4 222.959 219.72C222.319 220.04 221.599 220.2 220.799 220.2C220.239 220.2 219.793 220.06 219.459 219.78C219.139 219.487 218.979 219.027 218.979 218.4C218.979 218.133 219.046 217.507 219.179 216.52L220.019 210.32H218.819L219.039 209.36L220.239 208.94C220.639 208.567 221.113 207.647 221.659 206.18H223.159L222.819 208.9H225.219L225.019 210.32H222.619L221.799 216.34ZM239.155 217.96C239.141 218.013 239.135 218.093 239.135 218.2C239.135 218.547 239.268 218.72 239.535 218.72C239.748 218.72 240.048 218.56 240.435 218.24L240.715 218.86C240.541 219.127 240.228 219.42 239.775 219.74C239.335 220.047 238.821 220.2 238.235 220.2C237.781 220.2 237.421 220.1 237.155 219.9C236.888 219.7 236.748 219.393 236.735 218.98L236.775 218.64C236.401 219.08 235.948 219.453 235.415 219.76C234.881 220.053 234.295 220.2 233.655 220.2C232.535 220.2 231.695 219.82 231.135 219.06C230.588 218.287 230.315 217.28 230.315 216.04C230.315 214.813 230.568 213.633 231.075 212.5C231.595 211.367 232.348 210.44 233.335 209.72C234.321 209 235.495 208.64 236.855 208.64C237.201 208.64 237.575 208.68 237.975 208.76C238.388 208.84 238.748 208.933 239.055 209.04L240.435 208.64L239.155 217.96ZM237.615 210.06C237.361 209.94 237.035 209.88 236.635 209.88C235.835 209.88 235.168 210.187 234.635 210.8C234.101 211.4 233.708 212.167 233.455 213.1C233.215 214.02 233.095 214.953 233.095 215.9C233.095 216.78 233.228 217.467 233.495 217.96C233.761 218.44 234.155 218.68 234.675 218.68C235.008 218.68 235.341 218.567 235.675 218.34C236.021 218.113 236.328 217.847 236.595 217.54L237.615 210.06ZM237.395 207.22C236.915 206.98 236.241 206.493 235.375 205.76C234.521 205.027 233.961 204.42 233.695 203.94L235.395 202.42L238.255 206.6L237.395 207.22ZM250.899 209.96C251.246 209.573 251.666 209.26 252.159 209.02C252.652 208.767 253.192 208.64 253.779 208.64C254.886 208.64 255.726 209.013 256.299 209.76C256.872 210.507 257.159 211.547 257.159 212.88C257.159 214.147 256.892 215.34 256.359 216.46C255.826 217.58 255.066 218.487 254.079 219.18C253.106 219.86 251.979 220.2 250.699 220.2C250.352 220.2 249.959 220.153 249.519 220.06L248.819 225.08H246.259L248.239 210.42L247.179 209.92L247.339 209.12L250.579 208.64L251.039 208.86L250.899 209.96ZM249.699 218.72C250.006 218.88 250.426 218.96 250.959 218.96C251.719 218.96 252.352 218.667 252.859 218.08C253.379 217.493 253.759 216.74 253.999 215.82C254.252 214.9 254.379 213.933 254.379 212.92C254.379 212.093 254.239 211.427 253.959 210.92C253.692 210.413 253.299 210.16 252.779 210.16C252.366 210.16 251.986 210.287 251.639 210.54C251.292 210.78 250.986 211.08 250.719 211.44L249.699 218.72ZM264.618 208.62C266.005 208.62 267.065 209.027 267.798 209.84C268.531 210.64 268.898 211.793 268.898 213.3C268.898 214.54 268.645 215.693 268.138 216.76C267.631 217.827 266.918 218.68 265.998 219.32C265.078 219.947 264.025 220.26 262.838 220.26C261.451 220.26 260.391 219.853 259.658 219.04C258.938 218.213 258.578 217.04 258.578 215.52C258.578 214.267 258.825 213.113 259.318 212.06C259.825 211.007 260.538 210.173 261.458 209.56C262.378 208.933 263.431 208.62 264.618 208.62ZM264.278 209.88C263.665 209.88 263.145 210.16 262.718 210.72C262.291 211.267 261.971 211.967 261.758 212.82C261.558 213.673 261.458 214.547 261.458 215.44C261.458 216.707 261.598 217.633 261.878 218.22C262.171 218.807 262.625 219.1 263.238 219.1C263.838 219.1 264.345 218.82 264.758 218.26C265.171 217.7 265.478 216.987 265.678 216.12C265.878 215.253 265.978 214.367 265.978 213.46C265.978 212.193 265.838 211.28 265.558 210.72C265.291 210.16 264.865 209.88 264.278 209.88ZM273.935 214.22C273.882 214.713 273.835 215.06 273.795 215.26C273.662 216.3 273.595 216.967 273.595 217.26C273.595 217.793 273.689 218.173 273.875 218.4C274.062 218.627 274.342 218.74 274.715 218.74C275.142 218.74 275.562 218.607 275.975 218.34C276.402 218.073 276.762 217.753 277.055 217.38L278.215 208.74H280.855L279.575 218C279.549 218.24 279.569 218.42 279.635 218.54C279.702 218.66 279.802 218.72 279.935 218.72C280.055 218.72 280.182 218.687 280.315 218.62C280.449 218.54 280.635 218.4 280.875 218.2L281.155 218.82C280.982 219.1 280.662 219.4 280.195 219.72C279.729 220.04 279.195 220.2 278.595 220.2C278.129 220.2 277.769 220.1 277.515 219.9C277.275 219.7 277.142 219.427 277.115 219.08L277.095 218.84C277.095 218.733 277.109 218.6 277.135 218.44L277.095 218.42C276.109 219.607 274.949 220.2 273.615 220.2C272.869 220.2 272.235 220 271.715 219.6C271.195 219.187 270.929 218.533 270.915 217.64C270.915 217.12 271.009 216.18 271.195 214.82C271.249 214.487 271.282 214.26 271.295 214.14L271.835 210.5L270.675 209.82L270.835 209L274.155 208.66L274.615 208.88L273.935 214.22ZM283.261 210.78C283.194 210.42 283.048 210.227 282.821 210.2C282.674 210.2 282.548 210.233 282.441 210.3C282.334 210.367 282.274 210.407 282.261 210.42L281.981 209.74C282.141 209.54 282.434 209.307 282.861 209.04C283.288 208.773 283.761 208.64 284.281 208.64C284.801 208.64 285.188 208.753 285.441 208.98C285.694 209.207 285.854 209.54 285.921 209.98L286.781 215.88L287.061 218L287.881 216.86C288.481 215.953 288.928 215.107 289.221 214.32C289.528 213.52 289.708 212.673 289.761 211.78C289.774 211.527 289.728 211.187 289.621 210.76C289.528 210.413 289.481 210.12 289.481 209.88C289.481 209.52 289.594 209.227 289.821 209C290.048 208.76 290.354 208.64 290.741 208.64C291.261 208.64 291.641 208.84 291.881 209.24C292.134 209.627 292.261 210.12 292.261 210.72C292.261 212.373 290.968 214.84 288.381 218.12L286.861 220.06L285.101 220.2L284.381 216.54L283.261 210.78ZM299.169 208.62C300.555 208.62 301.615 209.027 302.349 209.84C303.082 210.64 303.449 211.793 303.449 213.3C303.449 214.54 303.195 215.693 302.689 216.76C302.182 217.827 301.469 218.68 300.549 219.32C299.629 219.947 298.575 220.26 297.389 220.26C296.002 220.26 294.942 219.853 294.209 219.04C293.489 218.213 293.129 217.04 293.129 215.52C293.129 214.267 293.375 213.113 293.869 212.06C294.375 211.007 295.089 210.173 296.009 209.56C296.929 208.933 297.982 208.62 299.169 208.62ZM298.829 209.88C298.215 209.88 297.695 210.16 297.269 210.72C296.842 211.267 296.522 211.967 296.309 212.82C296.109 213.673 296.009 214.547 296.009 215.44C296.009 216.707 296.149 217.633 296.429 218.22C296.722 218.807 297.175 219.1 297.789 219.1C298.389 219.1 298.895 218.82 299.309 218.26C299.722 217.7 300.029 216.987 300.229 216.12C300.429 215.253 300.529 214.367 300.529 213.46C300.529 212.193 300.389 211.28 300.109 210.72C299.842 210.16 299.415 209.88 298.829 209.88ZM308.186 218C308.173 218.067 308.166 218.147 308.166 218.24C308.166 218.56 308.279 218.72 308.506 218.72C308.626 218.72 308.759 218.68 308.906 218.6C309.053 218.52 309.239 218.387 309.466 218.2L309.726 218.82C309.499 219.127 309.159 219.433 308.706 219.74C308.266 220.047 307.726 220.2 307.086 220.2C306.566 220.2 306.159 220.1 305.866 219.9C305.573 219.687 305.426 219.4 305.426 219.04L305.446 218.84C305.526 218.147 305.799 216.133 306.266 212.8L306.586 210.48L305.406 209.92L305.546 209.14L308.986 208.66L309.466 208.88L308.186 218ZM308.406 206.74C308.046 206.74 307.733 206.607 307.466 206.34C307.213 206.06 307.086 205.74 307.086 205.38C307.086 204.887 307.246 204.473 307.566 204.14C307.899 203.807 308.319 203.64 308.826 203.64C309.239 203.64 309.566 203.773 309.806 204.04C310.046 204.293 310.166 204.6 310.166 204.96C310.166 205.467 310.013 205.893 309.706 206.24C309.399 206.573 308.966 206.74 308.406 206.74ZM315.131 211.52C315.385 210.76 315.818 210.093 316.431 209.52C317.058 208.933 317.758 208.64 318.531 208.64C318.798 208.64 319.025 208.7 319.211 208.82L318.631 211.7C318.551 211.633 318.418 211.573 318.231 211.52C318.058 211.453 317.845 211.42 317.591 211.42C317.111 211.42 316.651 211.527 316.211 211.74C315.771 211.94 315.431 212.233 315.191 212.62L314.211 220H311.611L312.871 210.5L311.851 209.94L311.991 209.14L314.851 208.66L315.311 208.94L315.211 210.76L315.131 211.52ZM25.9045 243C25.8912 243.053 25.8845 243.127 25.8845 243.22C25.8845 243.553 26.0045 243.72 26.2445 243.72C26.3645 243.72 26.4912 243.687 26.6245 243.62C26.7712 243.553 26.9645 243.413 27.2045 243.2L27.4645 243.82C27.2512 244.127 26.9379 244.433 26.5245 244.74C26.1112 245.047 25.5779 245.2 24.9245 245.2C24.4179 245.2 24.0045 245.1 23.6845 244.9C23.3645 244.687 23.1979 244.36 23.1845 243.92C23.1845 243.867 23.2112 243.627 23.2645 243.2L25.0045 230.42L23.7445 230.02L23.9245 229.28L27.3245 228.88L27.7845 229.14L25.9045 243ZM37.7583 242.96C37.7449 243.013 37.7383 243.093 37.7383 243.2C37.7383 243.547 37.8716 243.72 38.1383 243.72C38.3516 243.72 38.6516 243.56 39.0383 243.24L39.3183 243.86C39.1449 244.127 38.8316 244.42 38.3783 244.74C37.9383 245.047 37.4249 245.2 36.8383 245.2C36.3849 245.2 36.0249 245.1 35.7583 244.9C35.4916 244.7 35.3516 244.393 35.3383 243.98L35.3783 243.64C35.0049 244.08 34.5516 244.453 34.0183 244.76C33.4849 245.053 32.8983 245.2 32.2583 245.2C31.1383 245.2 30.2983 244.82 29.7383 244.06C29.1916 243.287 28.9183 242.28 28.9183 241.04C28.9183 239.813 29.1716 238.633 29.6783 237.5C30.1983 236.367 30.9516 235.44 31.9383 234.72C32.9249 234 34.0983 233.64 35.4583 233.64C35.8049 233.64 36.1783 233.68 36.5783 233.76C36.9916 233.84 37.3516 233.933 37.6583 234.04L39.0383 233.64L37.7583 242.96ZM36.2183 235.06C35.9649 234.94 35.6383 234.88 35.2383 234.88C34.4383 234.88 33.7716 235.187 33.2383 235.8C32.7049 236.4 32.3116 237.167 32.0583 238.1C31.8183 239.02 31.6983 239.953 31.6983 240.9C31.6983 241.78 31.8316 242.467 32.0983 242.96C32.3649 243.44 32.7583 243.68 33.2783 243.68C33.6116 243.68 33.9449 243.567 34.2783 243.34C34.6249 243.113 34.9316 242.847 35.1983 242.54L36.2183 235.06ZM43.9966 243C43.9832 243.067 43.9766 243.147 43.9766 243.24C43.9766 243.56 44.0899 243.72 44.3166 243.72C44.4366 243.72 44.5699 243.68 44.7166 243.6C44.8632 243.52 45.0499 243.387 45.2766 243.2L45.5366 243.82C45.3099 244.127 44.9699 244.433 44.5166 244.74C44.0766 245.047 43.5366 245.2 42.8966 245.2C42.3766 245.2 41.9699 245.1 41.6766 244.9C41.3832 244.687 41.2366 244.4 41.2366 244.04L41.2566 243.84C41.3366 243.147 41.6099 241.133 42.0766 237.8L42.3966 235.48L41.2166 234.92L41.3566 234.14L44.7966 233.66L45.2766 233.88L43.9966 243ZM44.2166 231.74C43.8566 231.74 43.5432 231.607 43.2766 231.34C43.0232 231.06 42.8966 230.74 42.8966 230.38C42.8966 229.887 43.0566 229.473 43.3766 229.14C43.7099 228.807 44.1299 228.64 44.6366 228.64C45.0499 228.64 45.3766 228.773 45.6166 229.04C45.8566 229.293 45.9766 229.6 45.9766 229.96C45.9766 230.467 45.8232 230.893 45.5166 231.24C45.2099 231.573 44.7766 231.74 44.2166 231.74ZM54.0219 235.8C53.8619 235.613 53.5952 235.42 53.2219 235.22C52.8619 235.02 52.4419 234.92 51.9619 234.92C51.4285 234.92 50.9952 235.04 50.6619 235.28C50.3419 235.507 50.1819 235.847 50.1819 236.3C50.1819 236.7 50.3152 237.06 50.5819 237.38C50.8619 237.687 51.3085 238.06 51.9219 238.5C52.6019 239.007 53.1219 239.5 53.4819 239.98C53.8419 240.447 54.0219 241.047 54.0219 241.78C54.0219 242.513 53.8219 243.14 53.4219 243.66C53.0219 244.167 52.4885 244.553 51.8219 244.82C51.1552 245.073 50.4219 245.2 49.6219 245.2C49.0219 245.2 48.4085 245.133 47.7819 245C47.1552 244.853 46.7485 244.7 46.5619 244.54L46.9619 242.84C47.2419 243.08 47.6219 243.307 48.1019 243.52C48.5819 243.733 49.0819 243.84 49.6019 243.84C50.0952 243.84 50.5152 243.727 50.8619 243.5C51.2219 243.273 51.4019 242.92 51.4019 242.44C51.4019 242.027 51.2485 241.653 50.9419 241.32C50.6352 240.987 50.1752 240.607 49.5619 240.18C49.0019 239.793 48.5285 239.34 48.1419 238.82C47.7685 238.287 47.5819 237.647 47.5819 236.9C47.5819 236.26 47.7619 235.693 48.1219 235.2C48.4952 234.707 49.0019 234.327 49.6419 234.06C50.2952 233.78 51.0419 233.64 51.8819 233.64C52.3752 233.64 52.8752 233.68 53.3819 233.76C53.8885 233.84 54.2285 233.927 54.4019 234.02L54.0219 235.8ZM62.557 235.8C62.397 235.613 62.1304 235.42 61.757 235.22C61.397 235.02 60.977 234.92 60.497 234.92C59.9637 234.92 59.5304 235.04 59.197 235.28C58.877 235.507 58.717 235.847 58.717 236.3C58.717 236.7 58.8504 237.06 59.117 237.38C59.397 237.687 59.8437 238.06 60.457 238.5C61.137 239.007 61.657 239.5 62.017 239.98C62.377 240.447 62.557 241.047 62.557 241.78C62.557 242.513 62.357 243.14 61.957 243.66C61.557 244.167 61.0237 244.553 60.357 244.82C59.6904 245.073 58.957 245.2 58.157 245.2C57.557 245.2 56.9437 245.133 56.317 245C55.6904 244.853 55.2837 244.7 55.097 244.54L55.497 242.84C55.777 243.08 56.157 243.307 56.637 243.52C57.117 243.733 57.617 243.84 58.137 243.84C58.6304 243.84 59.0504 243.727 59.397 243.5C59.757 243.273 59.937 242.92 59.937 242.44C59.937 242.027 59.7837 241.653 59.477 241.32C59.1704 240.987 58.7104 240.607 58.097 240.18C57.537 239.793 57.0637 239.34 56.677 238.82C56.3037 238.287 56.117 237.647 56.117 236.9C56.117 236.26 56.297 235.693 56.657 235.2C57.0304 234.707 57.537 234.327 58.177 234.06C58.8304 233.78 59.577 233.64 60.417 233.64C60.9104 233.64 61.4104 233.68 61.917 233.76C62.4237 233.84 62.7637 233.927 62.937 234.02L62.557 235.8ZM72.7322 243C72.3855 243.547 71.8189 244.06 71.0322 244.54C70.2589 245.02 69.3589 245.26 68.3322 245.26C67.3722 245.26 66.5789 245.053 65.9522 244.64C65.3389 244.227 64.8922 243.687 64.6122 243.02C64.3322 242.353 64.1922 241.627 64.1922 240.84C64.1922 239.507 64.4589 238.293 64.9922 237.2C65.5389 236.093 66.2789 235.22 67.2122 234.58C68.1455 233.94 69.1855 233.62 70.3322 233.62C71.3589 233.62 72.1189 233.86 72.6122 234.34C73.1189 234.807 73.3722 235.42 73.3722 236.18C73.3722 237.14 73.0255 237.94 72.3322 238.58C71.6389 239.22 70.8055 239.7 69.8322 240.02C68.8589 240.327 67.9389 240.493 67.0722 240.52C67.0455 241.48 67.1989 242.253 67.5322 242.84C67.8789 243.427 68.3989 243.72 69.0922 243.72C70.2389 243.72 71.2789 243.187 72.2122 242.12L72.7322 243ZM69.7322 234.86C68.9455 234.86 68.3255 235.333 67.8722 236.28C67.4189 237.227 67.1522 238.28 67.0722 239.44C67.5922 239.413 68.1389 239.273 68.7122 239.02C69.2989 238.767 69.7855 238.413 70.1722 237.96C70.5722 237.493 70.7722 236.96 70.7722 236.36C70.7722 235.88 70.6789 235.513 70.4922 235.26C70.3189 234.993 70.0655 234.86 69.7322 234.86ZM78.4614 236.52C78.7147 235.76 79.1481 235.093 79.7614 234.52C80.3881 233.933 81.0881 233.64 81.8614 233.64C82.1281 233.64 82.3547 233.7 82.5414 233.82L81.9614 236.7C81.8814 236.633 81.7481 236.573 81.5614 236.52C81.3881 236.453 81.1747 236.42 80.9214 236.42C80.4414 236.42 79.9814 236.527 79.5414 236.74C79.1014 236.94 78.7614 237.233 78.5214 237.62L77.5414 245H74.9414L76.2014 235.5L75.1814 234.94L75.3214 234.14L78.1814 233.66L78.6414 233.94L78.5414 235.76L78.4614 236.52ZM91.2692 239.22C91.2159 239.713 91.1692 240.06 91.1292 240.26C90.9959 241.3 90.9292 241.967 90.9292 242.26C90.9292 242.793 91.0226 243.173 91.2092 243.4C91.3959 243.627 91.6759 243.74 92.0492 243.74C92.4759 243.74 92.8959 243.607 93.3092 243.34C93.7359 243.073 94.0959 242.753 94.3892 242.38L95.5492 233.74H98.1892L96.9092 243C96.8826 243.24 96.9026 243.42 96.9692 243.54C97.0359 243.66 97.1359 243.72 97.2692 243.72C97.3892 243.72 97.5159 243.687 97.6492 243.62C97.7826 243.54 97.9692 243.4 98.2092 243.2L98.4892 243.82C98.3159 244.1 97.9959 244.4 97.5292 244.72C97.0626 245.04 96.5292 245.2 95.9292 245.2C95.4626 245.2 95.1026 245.1 94.8492 244.9C94.6092 244.7 94.4759 244.427 94.4492 244.08L94.4292 243.84C94.4292 243.733 94.4426 243.6 94.4692 243.44L94.4292 243.42C93.4426 244.607 92.2826 245.2 90.9492 245.2C90.2026 245.2 89.5692 245 89.0492 244.6C88.5292 244.187 88.2626 243.533 88.2492 242.64C88.2492 242.12 88.3426 241.18 88.5292 239.82C88.5826 239.487 88.6159 239.26 88.6292 239.14L89.1692 235.5L88.0092 234.82L88.1692 234L91.4892 233.66L91.9492 233.88L91.2692 239.22ZM103.995 236.06C104.488 235.327 105.075 234.74 105.755 234.3C106.435 233.86 107.148 233.64 107.895 233.64C109.548 233.64 110.375 234.62 110.375 236.58C110.375 237.1 110.208 238.26 109.875 240.06C109.822 240.407 109.775 240.673 109.735 240.86C109.548 241.913 109.448 242.673 109.435 243.14V243.22C109.435 243.553 109.542 243.72 109.755 243.72C109.875 243.72 110.002 243.687 110.135 243.62C110.268 243.553 110.442 243.433 110.655 243.26L110.935 243.88C110.735 244.16 110.408 244.453 109.955 244.76C109.502 245.053 108.948 245.2 108.295 245.2C107.668 245.2 107.235 245.067 106.995 244.8C106.755 244.52 106.635 244.153 106.635 243.7C106.648 243.3 106.775 242.507 107.015 241.32L107.135 240.64C107.162 240.52 107.215 240.2 107.295 239.68C107.388 239.16 107.462 238.667 107.515 238.2C107.568 237.72 107.595 237.307 107.595 236.96C107.595 236.347 107.522 235.927 107.375 235.7C107.242 235.473 106.995 235.36 106.635 235.36C106.195 235.36 105.702 235.607 105.155 236.1C104.622 236.593 104.162 237.187 103.775 237.88L102.815 245H100.195L101.475 235.48L100.455 234.94L100.615 234.12L103.735 233.64L104.195 233.86L103.995 236.06ZM121.179 236.2C121.672 235.427 122.259 234.807 122.939 234.34C123.632 233.873 124.365 233.64 125.139 233.64C125.925 233.64 126.532 233.867 126.959 234.32C127.399 234.773 127.619 235.527 127.619 236.58C127.619 236.993 127.539 237.647 127.379 238.54C127.232 239.433 127.152 239.94 127.139 240.06L127.019 240.7C126.939 241.14 126.859 241.593 126.779 242.06C126.712 242.527 126.679 242.907 126.679 243.2C126.679 243.56 126.792 243.74 127.019 243.74C127.139 243.74 127.265 243.707 127.399 243.64C127.532 243.56 127.719 243.427 127.959 243.24L128.219 243.86C128.045 244.127 127.725 244.42 127.259 244.74C126.792 245.047 126.232 245.2 125.579 245.2C124.925 245.2 124.479 245.073 124.239 244.82C123.999 244.553 123.879 244.18 123.879 243.7C123.892 243.3 124.019 242.507 124.259 241.32L124.379 240.64C124.405 240.52 124.459 240.2 124.539 239.68C124.632 239.16 124.705 238.667 124.759 238.2C124.812 237.72 124.839 237.307 124.839 236.96C124.839 236.347 124.765 235.927 124.619 235.7C124.472 235.473 124.225 235.36 123.879 235.36C123.425 235.36 122.919 235.62 122.359 236.14C121.812 236.647 121.345 237.267 120.959 238L120.079 245H117.419L119.239 230.42L118.039 230.02L118.179 229.28L121.599 228.88L122.079 229.14L121.179 236.2ZM138.279 243C137.932 243.547 137.366 244.06 136.579 244.54C135.806 245.02 134.906 245.26 133.879 245.26C132.919 245.26 132.126 245.053 131.499 244.64C130.886 244.227 130.439 243.687 130.159 243.02C129.879 242.353 129.739 241.627 129.739 240.84C129.739 239.507 130.006 238.293 130.539 237.2C131.086 236.093 131.826 235.22 132.759 234.58C133.692 233.94 134.732 233.62 135.879 233.62C136.906 233.62 137.666 233.86 138.159 234.34C138.666 234.807 138.919 235.42 138.919 236.18C138.919 237.14 138.572 237.94 137.879 238.58C137.186 239.22 136.352 239.7 135.379 240.02C134.406 240.327 133.486 240.493 132.619 240.52C132.592 241.48 132.746 242.253 133.079 242.84C133.426 243.427 133.946 243.72 134.639 243.72C135.786 243.72 136.826 243.187 137.759 242.12L138.279 243ZM135.279 234.86C134.492 234.86 133.872 235.333 133.419 236.28C132.966 237.227 132.699 238.28 132.619 239.44C133.139 239.413 133.686 239.273 134.259 239.02C134.846 238.767 135.332 238.413 135.719 237.96C136.119 237.493 136.319 236.96 136.319 236.36C136.319 235.88 136.226 235.513 136.039 235.26C135.866 234.993 135.612 234.86 135.279 234.86ZM137.739 227.38L139.359 228.96C139.239 229.173 138.926 229.52 138.419 230C137.912 230.467 137.366 230.927 136.779 231.38C136.192 231.833 135.712 232.14 135.339 232.3L134.579 231.56L137.739 227.38ZM144.008 236.52C144.262 235.76 144.695 235.093 145.308 234.52C145.935 233.933 146.635 233.64 147.408 233.64C147.675 233.64 147.902 233.7 148.088 233.82L147.508 236.7C147.428 236.633 147.295 236.573 147.108 236.52C146.935 236.453 146.722 236.42 146.468 236.42C145.988 236.42 145.528 236.527 145.088 236.74C144.648 236.94 144.308 237.233 144.068 237.62L143.088 245H140.488L141.748 235.5L140.728 234.94L140.868 234.14L143.728 233.66L144.188 233.94L144.088 235.76L144.008 236.52ZM151.77 243C151.757 243.067 151.75 243.147 151.75 243.24C151.75 243.56 151.863 243.72 152.09 243.72C152.21 243.72 152.343 243.68 152.49 243.6C152.637 243.52 152.823 243.387 153.05 243.2L153.31 243.82C153.083 244.127 152.743 244.433 152.29 244.74C151.85 245.047 151.31 245.2 150.67 245.2C150.15 245.2 149.743 245.1 149.45 244.9C149.157 244.687 149.01 244.4 149.01 244.04L149.03 243.84C149.11 243.147 149.383 241.133 149.85 237.8L150.17 235.48L148.99 234.92L149.13 234.14L152.57 233.66L153.05 233.88L151.77 243ZM151.99 231.74C151.63 231.74 151.317 231.607 151.05 231.34C150.797 231.06 150.67 230.74 150.67 230.38C150.67 229.887 150.83 229.473 151.15 229.14C151.483 228.807 151.903 228.64 152.41 228.64C152.823 228.64 153.15 228.773 153.39 229.04C153.63 229.293 153.75 229.6 153.75 229.96C153.75 230.467 153.597 230.893 153.29 231.24C152.983 231.573 152.55 231.74 151.99 231.74ZM158.215 241.34C158.122 242.113 158.075 242.58 158.075 242.74C158.075 243.047 158.135 243.267 158.255 243.4C158.375 243.52 158.582 243.58 158.875 243.58C159.142 243.58 159.442 243.52 159.775 243.4C160.122 243.267 160.409 243.107 160.635 242.92L160.855 243.66C160.509 244.047 160.015 244.4 159.375 244.72C158.735 245.04 158.015 245.2 157.215 245.2C156.655 245.2 156.209 245.06 155.875 244.78C155.555 244.487 155.395 244.027 155.395 243.4C155.395 243.133 155.462 242.507 155.595 241.52L156.435 235.32H155.235L155.455 234.36L156.655 233.94C157.055 233.567 157.529 232.647 158.075 231.18H159.575L159.235 233.9H161.635L161.435 235.32H159.035L158.215 241.34ZM170.825 242.96C170.811 243.013 170.805 243.093 170.805 243.2C170.805 243.547 170.938 243.72 171.205 243.72C171.418 243.72 171.718 243.56 172.105 243.24L172.385 243.86C172.211 244.127 171.898 244.42 171.445 244.74C171.005 245.047 170.491 245.2 169.905 245.2C169.451 245.2 169.091 245.1 168.825 244.9C168.558 244.7 168.418 244.393 168.405 243.98L168.445 243.64C168.071 244.08 167.618 244.453 167.085 244.76C166.551 245.053 165.965 245.2 165.325 245.2C164.205 245.2 163.365 244.82 162.805 244.06C162.258 243.287 161.985 242.28 161.985 241.04C161.985 239.813 162.238 238.633 162.745 237.5C163.265 236.367 164.018 235.44 165.005 234.72C165.991 234 167.165 233.64 168.525 233.64C168.871 233.64 169.245 233.68 169.645 233.76C170.058 233.84 170.418 233.933 170.725 234.04L172.105 233.64L170.825 242.96ZM169.285 235.06C169.031 234.94 168.705 234.88 168.305 234.88C167.505 234.88 166.838 235.187 166.305 235.8C165.771 236.4 165.378 237.167 165.125 238.1C164.885 239.02 164.765 239.953 164.765 240.9C164.765 241.78 164.898 242.467 165.165 242.96C165.431 243.44 165.825 243.68 166.345 243.68C166.678 243.68 167.011 243.567 167.345 243.34C167.691 243.113 167.998 242.847 168.265 242.54L169.285 235.06ZM182.303 245.76C182.103 247.28 181.45 248.367 180.343 249.02C179.236 249.687 177.97 250.02 176.543 250.02C176.103 250.02 175.63 249.973 175.123 249.88C174.63 249.8 174.283 249.713 174.083 249.62L174.543 247.74C174.796 247.9 175.183 248.08 175.703 248.28C176.223 248.48 176.723 248.58 177.203 248.58C177.976 248.58 178.543 248.427 178.903 248.12C179.263 247.813 179.496 247.233 179.603 246.38L179.903 244C179.543 244.347 179.123 244.633 178.643 244.86C178.163 245.087 177.643 245.2 177.083 245.2C175.963 245.2 175.116 244.82 174.543 244.06C173.983 243.287 173.703 242.28 173.703 241.04C173.703 239.813 173.956 238.633 174.463 237.5C174.983 236.367 175.736 235.44 176.723 234.72C177.723 234 178.903 233.64 180.263 233.64C180.636 233.64 181.036 233.687 181.463 233.78C181.89 233.86 182.263 233.96 182.583 234.08L184.003 233.64L182.303 245.76ZM181.183 235.12C180.903 234.96 180.516 234.88 180.023 234.88C179.223 234.88 178.556 235.193 178.023 235.82C177.49 236.433 177.096 237.207 176.843 238.14C176.603 239.06 176.483 239.987 176.483 240.92C176.483 241.787 176.623 242.467 176.903 242.96C177.196 243.44 177.596 243.68 178.103 243.68C178.476 243.68 178.836 243.573 179.183 243.36C179.543 243.133 179.85 242.867 180.103 242.56L181.183 235.12ZM193.963 243C193.616 243.547 193.049 244.06 192.263 244.54C191.489 245.02 190.589 245.26 189.563 245.26C188.603 245.26 187.809 245.053 187.183 244.64C186.569 244.227 186.123 243.687 185.843 243.02C185.563 242.353 185.423 241.627 185.423 240.84C185.423 239.507 185.689 238.293 186.223 237.2C186.769 236.093 187.509 235.22 188.443 234.58C189.376 233.94 190.416 233.62 191.563 233.62C192.589 233.62 193.349 233.86 193.843 234.34C194.349 234.807 194.603 235.42 194.603 236.18C194.603 237.14 194.256 237.94 193.563 238.58C192.869 239.22 192.036 239.7 191.063 240.02C190.089 240.327 189.169 240.493 188.303 240.52C188.276 241.48 188.429 242.253 188.763 242.84C189.109 243.427 189.629 243.72 190.323 243.72C191.469 243.72 192.509 243.187 193.443 242.12L193.963 243ZM190.963 234.86C190.176 234.86 189.556 235.333 189.103 236.28C188.649 237.227 188.383 238.28 188.303 239.44C188.823 239.413 189.369 239.273 189.943 239.02C190.529 238.767 191.016 238.413 191.403 237.96C191.803 237.493 192.003 236.96 192.003 236.36C192.003 235.88 191.909 235.513 191.723 235.26C191.549 234.993 191.296 234.86 190.963 234.86ZM202.738 232.94C202.871 232.14 203.131 231.42 203.518 230.78C203.918 230.14 204.425 229.633 205.038 229.26C205.651 228.887 206.338 228.7 207.098 228.7C207.805 228.7 208.365 228.78 208.778 228.94L208.218 230.54C207.831 230.247 207.385 230.1 206.878 230.1C206.385 230.1 206.025 230.287 205.798 230.66C205.585 231.033 205.425 231.607 205.318 232.38L205.118 233.84H207.318L207.058 235.34H204.918L203.818 244.22C203.605 245.86 203.118 247.233 202.358 248.34C201.611 249.447 200.611 250.007 199.358 250.02C199.051 250.033 198.731 250.02 198.398 249.98C198.051 249.94 197.778 249.893 197.578 249.84L198.098 248.16C198.271 248.24 198.525 248.327 198.858 248.42C199.178 248.527 199.438 248.58 199.638 248.58C199.998 248.58 200.278 248.4 200.478 248.04C200.691 247.693 200.845 247.167 200.938 246.46L202.318 235.34H201.038L201.218 234.46L202.578 233.88L202.738 232.94ZM210.698 243C210.685 243.067 210.678 243.147 210.678 243.24C210.678 243.56 210.791 243.72 211.018 243.72C211.138 243.72 211.271 243.68 211.418 243.6C211.565 243.52 211.751 243.387 211.978 243.2L212.238 243.82C212.011 244.127 211.671 244.433 211.218 244.74C210.778 245.047 210.238 245.2 209.598 245.2C209.078 245.2 208.671 245.1 208.378 244.9C208.085 244.687 207.938 244.4 207.938 244.04L207.958 243.84C208.038 243.147 208.311 241.133 208.778 237.8L209.098 235.48L207.918 234.92L208.058 234.14L211.498 233.66L211.978 233.88L210.698 243ZM210.918 231.74C210.558 231.74 210.245 231.607 209.978 231.34C209.725 231.06 209.598 230.74 209.598 230.38C209.598 229.887 209.758 229.473 210.078 229.14C210.411 228.807 210.831 228.64 211.338 228.64C211.751 228.64 212.078 228.773 212.318 229.04C212.558 229.293 212.678 229.6 212.678 229.96C212.678 230.467 212.525 230.893 212.218 231.24C211.911 231.573 211.478 231.74 210.918 231.74ZM217.901 236.06C218.394 235.327 218.981 234.74 219.661 234.3C220.341 233.86 221.054 233.64 221.801 233.64C223.454 233.64 224.281 234.62 224.281 236.58C224.281 237.1 224.114 238.26 223.781 240.06C223.728 240.407 223.681 240.673 223.641 240.86C223.454 241.913 223.354 242.673 223.341 243.14V243.22C223.341 243.553 223.448 243.72 223.661 243.72C223.781 243.72 223.908 243.687 224.041 243.62C224.174 243.553 224.348 243.433 224.561 243.26L224.841 243.88C224.641 244.16 224.314 244.453 223.861 244.76C223.408 245.053 222.854 245.2 222.201 245.2C221.574 245.2 221.141 245.067 220.901 244.8C220.661 244.52 220.541 244.153 220.541 243.7C220.554 243.3 220.681 242.507 220.921 241.32L221.041 240.64C221.068 240.52 221.121 240.2 221.201 239.68C221.294 239.16 221.368 238.667 221.421 238.2C221.474 237.72 221.501 237.307 221.501 236.96C221.501 236.347 221.428 235.927 221.281 235.7C221.148 235.473 220.901 235.36 220.541 235.36C220.101 235.36 219.608 235.607 219.061 236.1C218.528 236.593 218.068 237.187 217.681 237.88L216.721 245H214.101L215.381 235.48L214.361 234.94L214.521 234.12L217.641 233.64L218.101 233.86L217.901 236.06ZM235.239 242.96C235.225 243.013 235.219 243.093 235.219 243.2C235.219 243.547 235.352 243.72 235.619 243.72C235.832 243.72 236.132 243.56 236.519 243.24L236.799 243.86C236.625 244.127 236.312 244.42 235.859 244.74C235.419 245.047 234.905 245.2 234.319 245.2C233.865 245.2 233.505 245.1 233.239 244.9C232.972 244.7 232.832 244.393 232.819 243.98L232.859 243.64C232.485 244.08 232.032 244.453 231.499 244.76C230.965 245.053 230.379 245.2 229.739 245.2C228.619 245.2 227.779 244.82 227.219 244.06C226.672 243.287 226.399 242.28 226.399 241.04C226.399 239.813 226.652 238.633 227.159 237.5C227.679 236.367 228.432 235.44 229.419 234.72C230.405 234 231.579 233.64 232.939 233.64C233.285 233.64 233.659 233.68 234.059 233.76C234.472 233.84 234.832 233.933 235.139 234.04L236.519 233.64L235.239 242.96ZM233.699 235.06C233.445 234.94 233.119 234.88 232.719 234.88C231.919 234.88 231.252 235.187 230.719 235.8C230.185 236.4 229.792 237.167 229.539 238.1C229.299 239.02 229.179 239.953 229.179 240.9C229.179 241.78 229.312 242.467 229.579 242.96C229.845 243.44 230.239 243.68 230.759 243.68C231.092 243.68 231.425 243.567 231.759 243.34C232.105 243.113 232.412 242.847 232.679 242.54L233.699 235.06ZM242.237 236.06C242.73 235.327 243.317 234.74 243.997 234.3C244.677 233.86 245.39 233.64 246.137 233.64C247.79 233.64 248.617 234.62 248.617 236.58C248.617 237.1 248.45 238.26 248.117 240.06C248.064 240.407 248.017 240.673 247.977 240.86C247.79 241.913 247.69 242.673 247.677 243.14V243.22C247.677 243.553 247.784 243.72 247.997 243.72C248.117 243.72 248.244 243.687 248.377 243.62C248.51 243.553 248.684 243.433 248.897 243.26L249.177 243.88C248.977 244.16 248.65 244.453 248.197 244.76C247.744 245.053 247.19 245.2 246.537 245.2C245.91 245.2 245.477 245.067 245.237 244.8C244.997 244.52 244.877 244.153 244.877 243.7C244.89 243.3 245.017 242.507 245.257 241.32L245.377 240.64C245.404 240.52 245.457 240.2 245.537 239.68C245.63 239.16 245.704 238.667 245.757 238.2C245.81 237.72 245.837 237.307 245.837 236.96C245.837 236.347 245.764 235.927 245.617 235.7C245.484 235.473 245.237 235.36 244.877 235.36C244.437 235.36 243.944 235.607 243.397 236.1C242.864 236.593 242.404 237.187 242.017 237.88L241.057 245H238.437L239.717 235.48L238.697 234.94L238.857 234.12L241.977 233.64L242.437 233.86L242.237 236.06ZM257.955 236.62C257.581 236.153 257.248 235.78 256.955 235.5C256.675 235.207 256.428 235.06 256.215 235.06C255.721 235.06 255.261 235.287 254.835 235.74C254.421 236.193 254.081 236.827 253.815 237.64C253.561 238.453 253.435 239.367 253.435 240.38C253.435 241.487 253.595 242.3 253.915 242.82C254.235 243.327 254.721 243.58 255.375 243.58C255.935 243.58 256.408 243.473 256.795 243.26C257.195 243.047 257.581 242.747 257.955 242.36L258.475 243.24C258.141 243.733 257.615 244.187 256.895 244.6C256.188 245 255.348 245.2 254.375 245.2C253.228 245.2 252.328 244.8 251.675 244C251.021 243.187 250.695 242.04 250.695 240.56C250.695 239.44 250.928 238.353 251.395 237.3C251.861 236.233 252.555 235.36 253.475 234.68C254.395 233.987 255.501 233.64 256.795 233.64C257.208 233.64 257.635 233.68 258.075 233.76C258.528 233.827 258.895 233.927 259.175 234.06L258.495 236.66L257.955 236.62ZM263.235 243C263.222 243.067 263.215 243.147 263.215 243.24C263.215 243.56 263.328 243.72 263.555 243.72C263.675 243.72 263.808 243.68 263.955 243.6C264.102 243.52 264.288 243.387 264.515 243.2L264.775 243.82C264.548 244.127 264.208 244.433 263.755 244.74C263.315 245.047 262.775 245.2 262.135 245.2C261.615 245.2 261.208 245.1 260.915 244.9C260.622 244.687 260.475 244.4 260.475 244.04L260.495 243.84C260.575 243.147 260.848 241.133 261.315 237.8L261.635 235.48L260.455 234.92L260.595 234.14L264.035 233.66L264.515 233.88L263.235 243ZM263.455 231.74C263.095 231.74 262.782 231.607 262.515 231.34C262.262 231.06 262.135 230.74 262.135 230.38C262.135 229.887 262.295 229.473 262.615 229.14C262.948 228.807 263.368 228.64 263.875 228.64C264.288 228.64 264.615 228.773 264.855 229.04C265.095 229.293 265.215 229.6 265.215 229.96C265.215 230.467 265.062 230.893 264.755 231.24C264.448 231.573 264.015 231.74 263.455 231.74ZM274.9 243C274.553 243.547 273.987 244.06 273.2 244.54C272.427 245.02 271.527 245.26 270.5 245.26C269.54 245.26 268.747 245.053 268.12 244.64C267.507 244.227 267.06 243.687 266.78 243.02C266.5 242.353 266.36 241.627 266.36 240.84C266.36 239.507 266.627 238.293 267.16 237.2C267.707 236.093 268.447 235.22 269.38 234.58C270.313 233.94 271.353 233.62 272.5 233.62C273.527 233.62 274.287 233.86 274.78 234.34C275.287 234.807 275.54 235.42 275.54 236.18C275.54 237.14 275.193 237.94 274.5 238.58C273.807 239.22 272.973 239.7 272 240.02C271.027 240.327 270.107 240.493 269.24 240.52C269.213 241.48 269.367 242.253 269.7 242.84C270.047 243.427 270.567 243.72 271.26 243.72C272.407 243.72 273.447 243.187 274.38 242.12L274.9 243ZM271.9 234.86C271.113 234.86 270.493 235.333 270.04 236.28C269.587 237.227 269.32 238.28 269.24 239.44C269.76 239.413 270.307 239.273 270.88 239.02C271.467 238.767 271.953 238.413 272.34 237.96C272.74 237.493 272.94 236.96 272.94 236.36C272.94 235.88 272.847 235.513 272.66 235.26C272.487 234.993 272.233 234.86 271.9 234.86ZM280.629 236.52C280.883 235.76 281.316 235.093 281.929 234.52C282.556 233.933 283.256 233.64 284.029 233.64C284.296 233.64 284.523 233.7 284.709 233.82L284.129 236.7C284.049 236.633 283.916 236.573 283.729 236.52C283.556 236.453 283.343 236.42 283.089 236.42C282.609 236.42 282.149 236.527 281.709 236.74C281.269 236.94 280.929 237.233 280.689 237.62L279.709 245H277.109L278.369 235.5L277.349 234.94L277.489 234.14L280.349 233.66L280.809 233.94L280.709 235.76L280.629 236.52ZM298.637 242.96C298.624 243.013 298.617 243.093 298.617 243.2C298.617 243.547 298.751 243.72 299.017 243.72C299.231 243.72 299.531 243.56 299.917 243.24L300.197 243.86C300.024 244.127 299.711 244.42 299.257 244.74C298.817 245.047 298.304 245.2 297.717 245.2C297.264 245.2 296.904 245.1 296.637 244.9C296.371 244.7 296.231 244.393 296.217 243.98L296.257 243.64C295.884 244.08 295.431 244.453 294.897 244.76C294.364 245.053 293.777 245.2 293.137 245.2C292.017 245.2 291.177 244.82 290.617 244.06C290.071 243.287 289.797 242.28 289.797 241.04C289.797 239.813 290.051 238.633 290.557 237.5C291.077 236.367 291.831 235.44 292.817 234.72C293.804 234 294.977 233.64 296.337 233.64C296.684 233.64 297.057 233.68 297.457 233.76C297.871 233.84 298.231 233.933 298.537 234.04L299.917 233.64L298.637 242.96ZM297.097 235.06C296.844 234.94 296.517 234.88 296.117 234.88C295.317 234.88 294.651 235.187 294.117 235.8C293.584 236.4 293.191 237.167 292.937 238.1C292.697 239.02 292.577 239.953 292.577 240.9C292.577 241.78 292.711 242.467 292.977 242.96C293.244 243.44 293.637 243.68 294.157 243.68C294.491 243.68 294.824 243.567 295.157 243.34C295.504 243.113 295.811 242.847 296.077 242.54L297.097 235.06ZM296.877 232.22C296.397 231.98 295.724 231.493 294.857 230.76C294.004 230.027 293.444 229.42 293.177 228.94L294.877 227.42L297.737 231.6L296.877 232.22ZM105.231 268C105.217 268.053 105.211 268.127 105.211 268.22C105.211 268.553 105.331 268.72 105.571 268.72C105.691 268.72 105.817 268.687 105.951 268.62C106.097 268.553 106.291 268.413 106.531 268.2L106.791 268.82C106.577 269.127 106.264 269.433 105.851 269.74C105.437 270.047 104.904 270.2 104.251 270.2C103.744 270.2 103.331 270.1 103.011 269.9C102.691 269.687 102.524 269.36 102.511 268.92C102.511 268.867 102.537 268.627 102.591 268.2L104.331 255.42L103.071 255.02L103.251 254.28L106.651 253.88L107.111 254.14L105.231 268ZM116.804 268C116.458 268.547 115.891 269.06 115.104 269.54C114.331 270.02 113.431 270.26 112.404 270.26C111.444 270.26 110.651 270.053 110.024 269.64C109.411 269.227 108.964 268.687 108.684 268.02C108.404 267.353 108.264 266.627 108.264 265.84C108.264 264.507 108.531 263.293 109.064 262.2C109.611 261.093 110.351 260.22 111.284 259.58C112.218 258.94 113.258 258.62 114.404 258.62C115.431 258.62 116.191 258.86 116.684 259.34C117.191 259.807 117.444 260.42 117.444 261.18C117.444 262.14 117.098 262.94 116.404 263.58C115.711 264.22 114.878 264.7 113.904 265.02C112.931 265.327 112.011 265.493 111.144 265.52C111.118 266.48 111.271 267.253 111.604 267.84C111.951 268.427 112.471 268.72 113.164 268.72C114.311 268.72 115.351 268.187 116.284 267.12L116.804 268ZM113.804 259.86C113.018 259.86 112.398 260.333 111.944 261.28C111.491 262.227 111.224 263.28 111.144 264.44C111.664 264.413 112.211 264.273 112.784 264.02C113.371 263.767 113.858 263.413 114.244 262.96C114.644 262.493 114.844 261.96 114.844 261.36C114.844 260.88 114.751 260.513 114.564 260.26C114.391 259.993 114.138 259.86 113.804 259.86ZM122.334 264.22C122.28 264.713 122.234 265.06 122.194 265.26C122.06 266.3 121.994 266.967 121.994 267.26C121.994 267.793 122.087 268.173 122.274 268.4C122.46 268.627 122.74 268.74 123.114 268.74C123.54 268.74 123.96 268.607 124.374 268.34C124.8 268.073 125.16 267.753 125.454 267.38L126.614 258.74H129.254L127.974 268C127.947 268.24 127.967 268.42 128.034 268.54C128.1 268.66 128.2 268.72 128.334 268.72C128.454 268.72 128.58 268.687 128.714 268.62C128.847 268.54 129.034 268.4 129.274 268.2L129.554 268.82C129.38 269.1 129.06 269.4 128.594 269.72C128.127 270.04 127.594 270.2 126.994 270.2C126.527 270.2 126.167 270.1 125.914 269.9C125.674 269.7 125.54 269.427 125.514 269.08L125.494 268.84C125.494 268.733 125.507 268.6 125.534 268.44L125.494 268.42C124.507 269.607 123.347 270.2 122.014 270.2C121.267 270.2 120.634 270 120.114 269.6C119.594 269.187 119.327 268.533 119.314 267.64C119.314 267.12 119.407 266.18 119.594 264.82C119.647 264.487 119.68 264.26 119.694 264.14L120.234 260.5L119.074 259.82L119.234 259L122.554 258.66L123.014 258.88L122.334 264.22ZM134.721 261.52C134.975 260.76 135.408 260.093 136.021 259.52C136.648 258.933 137.348 258.64 138.121 258.64C138.388 258.64 138.615 258.7 138.801 258.82L138.221 261.7C138.141 261.633 138.008 261.573 137.821 261.52C137.648 261.453 137.435 261.42 137.181 261.42C136.701 261.42 136.241 261.527 135.801 261.74C135.361 261.94 135.021 262.233 134.781 262.62L133.801 270H131.201L132.461 260.5L131.441 259.94L131.581 259.14L134.441 258.66L134.901 258.94L134.801 260.76L134.721 261.52ZM146.063 260.8C145.903 260.613 145.636 260.42 145.263 260.22C144.903 260.02 144.483 259.92 144.003 259.92C143.47 259.92 143.036 260.04 142.703 260.28C142.383 260.507 142.223 260.847 142.223 261.3C142.223 261.7 142.356 262.06 142.623 262.38C142.903 262.687 143.35 263.06 143.963 263.5C144.643 264.007 145.163 264.5 145.523 264.98C145.883 265.447 146.063 266.047 146.063 266.78C146.063 267.513 145.863 268.14 145.463 268.66C145.063 269.167 144.53 269.553 143.863 269.82C143.196 270.073 142.463 270.2 141.663 270.2C141.063 270.2 140.45 270.133 139.823 270C139.196 269.853 138.79 269.7 138.603 269.54L139.003 267.84C139.283 268.08 139.663 268.307 140.143 268.52C140.623 268.733 141.123 268.84 141.643 268.84C142.136 268.84 142.556 268.727 142.903 268.5C143.263 268.273 143.443 267.92 143.443 267.44C143.443 267.027 143.29 266.653 142.983 266.32C142.676 265.987 142.216 265.607 141.603 265.18C141.043 264.793 140.57 264.34 140.183 263.82C139.81 263.287 139.623 262.647 139.623 261.9C139.623 261.26 139.803 260.693 140.163 260.2C140.536 259.707 141.043 259.327 141.683 259.06C142.336 258.78 143.083 258.64 143.923 258.64C144.416 258.64 144.916 258.68 145.423 258.76C145.93 258.84 146.27 258.927 146.443 259.02L146.063 260.8ZM160.984 268C160.637 268.547 160.071 269.06 159.284 269.54C158.511 270.02 157.611 270.26 156.584 270.26C155.624 270.26 154.831 270.053 154.204 269.64C153.591 269.227 153.144 268.687 152.864 268.02C152.584 267.353 152.444 266.627 152.444 265.84C152.444 264.507 152.711 263.293 153.244 262.2C153.791 261.093 154.531 260.22 155.464 259.58C156.397 258.94 157.437 258.62 158.584 258.62C159.611 258.62 160.371 258.86 160.864 259.34C161.371 259.807 161.624 260.42 161.624 261.18C161.624 262.14 161.277 262.94 160.584 263.58C159.891 264.22 159.057 264.7 158.084 265.02C157.111 265.327 156.191 265.493 155.324 265.52C155.297 266.48 155.451 267.253 155.784 267.84C156.131 268.427 156.651 268.72 157.344 268.72C158.491 268.72 159.531 268.187 160.464 267.12L160.984 268ZM157.984 259.86C157.197 259.86 156.577 260.333 156.124 261.28C155.671 262.227 155.404 263.28 155.324 264.44C155.844 264.413 156.391 264.273 156.964 264.02C157.551 263.767 158.037 263.413 158.424 262.96C158.824 262.493 159.024 261.96 159.024 261.36C159.024 260.88 158.931 260.513 158.744 260.26C158.571 259.993 158.317 259.86 157.984 259.86ZM166.973 261.06C167.467 260.327 168.053 259.74 168.733 259.3C169.413 258.86 170.127 258.64 170.873 258.64C172.527 258.64 173.353 259.62 173.353 261.58C173.353 262.1 173.187 263.26 172.853 265.06C172.8 265.407 172.753 265.673 172.713 265.86C172.527 266.913 172.427 267.673 172.413 268.14V268.22C172.413 268.553 172.52 268.72 172.733 268.72C172.853 268.72 172.98 268.687 173.113 268.62C173.247 268.553 173.42 268.433 173.633 268.26L173.913 268.88C173.713 269.16 173.387 269.453 172.933 269.76C172.48 270.053 171.927 270.2 171.273 270.2C170.647 270.2 170.213 270.067 169.973 269.8C169.733 269.52 169.613 269.153 169.613 268.7C169.627 268.3 169.753 267.507 169.993 266.32L170.113 265.64C170.14 265.52 170.193 265.2 170.273 264.68C170.367 264.16 170.44 263.667 170.493 263.2C170.547 262.72 170.573 262.307 170.573 261.96C170.573 261.347 170.5 260.927 170.353 260.7C170.22 260.473 169.973 260.36 169.613 260.36C169.173 260.36 168.68 260.607 168.133 261.1C167.6 261.593 167.14 262.187 166.753 262.88L165.793 270H163.173L164.453 260.48L163.433 259.94L163.593 259.12L166.713 258.64L167.173 258.86L166.973 261.06ZM177.611 257.94C177.744 257.14 178.004 256.42 178.391 255.78C178.791 255.14 179.298 254.633 179.911 254.26C180.524 253.887 181.211 253.7 181.971 253.7C182.678 253.7 183.238 253.78 183.651 253.94L183.091 255.54C182.704 255.247 182.258 255.1 181.751 255.1C181.258 255.1 180.898 255.287 180.671 255.66C180.458 256.033 180.298 256.607 180.191 257.38L179.991 258.84H182.191L181.931 260.34H179.791L178.691 269.22C178.478 270.86 177.991 272.233 177.231 273.34C176.484 274.447 175.484 275.007 174.231 275.02C173.924 275.033 173.604 275.02 173.271 274.98C172.924 274.94 172.651 274.893 172.451 274.84L172.971 273.16C173.144 273.24 173.398 273.327 173.731 273.42C174.051 273.527 174.311 273.58 174.511 273.58C174.871 273.58 175.151 273.4 175.351 273.04C175.564 272.693 175.718 272.167 175.811 271.46L177.191 260.34H175.911L176.091 259.46L177.451 258.88L177.611 257.94ZM191.069 267.96C191.055 268.013 191.049 268.093 191.049 268.2C191.049 268.547 191.182 268.72 191.449 268.72C191.662 268.72 191.962 268.56 192.349 268.24L192.629 268.86C192.455 269.127 192.142 269.42 191.689 269.74C191.249 270.047 190.735 270.2 190.149 270.2C189.695 270.2 189.335 270.1 189.069 269.9C188.802 269.7 188.662 269.393 188.649 268.98L188.689 268.64C188.315 269.08 187.862 269.453 187.329 269.76C186.795 270.053 186.209 270.2 185.569 270.2C184.449 270.2 183.609 269.82 183.049 269.06C182.502 268.287 182.229 267.28 182.229 266.04C182.229 264.813 182.482 263.633 182.989 262.5C183.509 261.367 184.262 260.44 185.249 259.72C186.235 259 187.409 258.64 188.769 258.64C189.115 258.64 189.489 258.68 189.889 258.76C190.302 258.84 190.662 258.933 190.969 259.04L192.349 258.64L191.069 267.96ZM189.529 260.06C189.275 259.94 188.949 259.88 188.549 259.88C187.749 259.88 187.082 260.187 186.549 260.8C186.015 261.4 185.622 262.167 185.369 263.1C185.129 264.02 185.009 264.953 185.009 265.9C185.009 266.78 185.142 267.467 185.409 267.96C185.675 268.44 186.069 268.68 186.589 268.68C186.922 268.68 187.255 268.567 187.589 268.34C187.935 268.113 188.242 267.847 188.509 267.54L189.529 260.06ZM198.067 261.06C198.56 260.327 199.147 259.74 199.827 259.3C200.507 258.86 201.22 258.64 201.967 258.64C203.62 258.64 204.447 259.62 204.447 261.58C204.447 262.1 204.28 263.26 203.947 265.06C203.894 265.407 203.847 265.673 203.807 265.86C203.62 266.913 203.52 267.673 203.507 268.14V268.22C203.507 268.553 203.614 268.72 203.827 268.72C203.947 268.72 204.074 268.687 204.207 268.62C204.34 268.553 204.514 268.433 204.727 268.26L205.007 268.88C204.807 269.16 204.48 269.453 204.027 269.76C203.574 270.053 203.02 270.2 202.367 270.2C201.74 270.2 201.307 270.067 201.067 269.8C200.827 269.52 200.707 269.153 200.707 268.7C200.72 268.3 200.847 267.507 201.087 266.32L201.207 265.64C201.234 265.52 201.287 265.2 201.367 264.68C201.46 264.16 201.534 263.667 201.587 263.2C201.64 262.72 201.667 262.307 201.667 261.96C201.667 261.347 201.594 260.927 201.447 260.7C201.314 260.473 201.067 260.36 200.707 260.36C200.267 260.36 199.774 260.607 199.227 261.1C198.694 261.593 198.234 262.187 197.847 262.88L196.887 270H194.267L195.547 260.48L194.527 259.94L194.687 259.12L197.807 258.64L198.267 258.86L198.067 261.06ZM209.905 266.34C209.811 267.113 209.765 267.58 209.765 267.74C209.765 268.047 209.825 268.267 209.945 268.4C210.065 268.52 210.271 268.58 210.565 268.58C210.831 268.58 211.131 268.52 211.465 268.4C211.811 268.267 212.098 268.107 212.325 267.92L212.545 268.66C212.198 269.047 211.705 269.4 211.065 269.72C210.425 270.04 209.705 270.2 208.905 270.2C208.345 270.2 207.898 270.06 207.565 269.78C207.245 269.487 207.085 269.027 207.085 268.4C207.085 268.133 207.151 267.507 207.285 266.52L208.125 260.32H206.925L207.145 259.36L208.345 258.94C208.745 258.567 209.218 257.647 209.765 256.18H211.265L210.925 258.9H213.325L213.125 260.32H210.725L209.905 266.34ZM220.594 260.8C220.434 260.613 220.167 260.42 219.794 260.22C219.434 260.02 219.014 259.92 218.534 259.92C218.001 259.92 217.567 260.04 217.234 260.28C216.914 260.507 216.754 260.847 216.754 261.3C216.754 261.7 216.887 262.06 217.154 262.38C217.434 262.687 217.881 263.06 218.494 263.5C219.174 264.007 219.694 264.5 220.054 264.98C220.414 265.447 220.594 266.047 220.594 266.78C220.594 267.513 220.394 268.14 219.994 268.66C219.594 269.167 219.061 269.553 218.394 269.82C217.727 270.073 216.994 270.2 216.194 270.2C215.594 270.2 214.981 270.133 214.354 270C213.727 269.853 213.321 269.7 213.134 269.54L213.534 267.84C213.814 268.08 214.194 268.307 214.674 268.52C215.154 268.733 215.654 268.84 216.174 268.84C216.667 268.84 217.087 268.727 217.434 268.5C217.794 268.273 217.974 267.92 217.974 267.44C217.974 267.027 217.821 266.653 217.514 266.32C217.207 265.987 216.747 265.607 216.134 265.18C215.574 264.793 215.101 264.34 214.714 263.82C214.341 263.287 214.154 262.647 214.154 261.9C214.154 261.26 214.334 260.693 214.694 260.2C215.067 259.707 215.574 259.327 216.214 259.06C216.867 258.78 217.614 258.64 218.454 258.64C218.947 258.64 219.447 258.68 219.954 258.76C220.461 258.84 220.801 258.927 220.974 259.02L220.594 260.8Z" fill="#394454"/>
<path d="M132.686 90.1364V84.9205L142.635 69.2727H147.368V76.2273H144.663L139.302 84.7273V84.9205H153.984V90.1364H132.686ZM144.711 94V88.5426L144.856 86.2727V69.2727H151.135V94H144.711ZM166.459 68.9347C167.9 68.9347 169.265 69.1641 170.552 69.6229C171.84 70.0736 172.979 70.786 173.969 71.7599C174.967 72.7339 175.748 74.0057 176.312 75.5753C176.883 77.1368 177.173 79.0284 177.181 81.25C177.189 83.2784 176.935 85.1016 176.42 86.7195C175.913 88.3293 175.185 89.7017 174.235 90.8366C173.293 91.9716 172.158 92.8409 170.83 93.4446C169.51 94.0402 168.037 94.3381 166.411 94.3381C164.584 94.3381 162.978 93.9879 161.594 93.2876C160.209 92.5874 159.106 91.6456 158.285 90.4624C157.464 89.2791 156.985 87.9631 156.849 86.5142H163.465C163.626 87.2628 163.98 87.8061 164.528 88.1442C165.075 88.4742 165.703 88.6392 166.411 88.6392C167.828 88.6392 168.862 88.0275 169.514 86.804C170.174 85.5724 170.508 83.9304 170.516 81.8778H170.371C170.057 82.6345 169.582 83.2824 168.947 83.8217C168.311 84.361 167.57 84.7756 166.725 85.0653C165.88 85.3551 164.986 85.5 164.045 85.5C162.555 85.5 161.251 85.166 160.133 84.4979C159.014 83.8217 158.14 82.9001 157.513 81.733C156.885 80.5578 156.567 79.2216 156.559 77.7244C156.551 75.9697 156.965 74.4323 157.802 73.1122C158.64 71.7921 159.803 70.7659 161.292 70.0334C162.781 69.3009 164.503 68.9347 166.459 68.9347ZM166.508 74.0057C165.84 74.0057 165.244 74.1586 164.721 74.4645C164.206 74.7704 163.799 75.1849 163.501 75.7081C163.211 76.2313 163.071 76.8229 163.079 77.483C163.087 78.143 163.236 78.7346 163.525 79.2578C163.823 79.781 164.226 80.1955 164.733 80.5014C165.248 80.8073 165.84 80.9602 166.508 80.9602C166.999 80.9602 167.453 80.8757 167.872 80.7067C168.291 80.5296 168.653 80.2841 168.959 79.9702C169.273 79.6482 169.514 79.2779 169.683 78.8594C169.86 78.4328 169.945 77.974 169.937 77.483C169.929 76.8229 169.776 76.2313 169.478 75.7081C169.18 75.1849 168.773 74.7704 168.258 74.4645C167.743 74.1586 167.16 74.0057 166.508 74.0057ZM194.226 89.3636V88.0597C194.226 87.0133 194.452 86.0473 194.902 85.1619C195.361 84.2765 196.025 83.5642 196.895 83.0249C197.764 82.4856 198.822 82.2159 200.07 82.2159C201.35 82.2159 202.424 82.4815 203.294 83.0128C204.171 83.544 204.835 84.2524 205.286 85.1378C205.737 86.0232 205.962 86.9972 205.962 88.0597V89.3636C205.962 90.41 205.733 91.3759 205.274 92.2614C204.823 93.1468 204.159 93.8591 203.282 94.3984C202.404 94.9377 201.334 95.2074 200.07 95.2074C198.806 95.2074 197.74 94.9377 196.87 94.3984C196.001 93.8591 195.341 93.1468 194.89 92.2614C194.448 91.3759 194.226 90.41 194.226 89.3636ZM198.428 88.0597V89.3636C198.428 89.8224 198.541 90.2772 198.766 90.728C198.999 91.1707 199.434 91.392 200.07 91.392C200.738 91.392 201.177 91.1747 201.386 90.7401C201.603 90.3054 201.712 89.8466 201.712 89.3636V88.0597C201.712 87.5767 201.611 87.1098 201.41 86.6591C201.209 86.2083 200.762 85.983 200.07 85.983C199.434 85.983 198.999 86.2083 198.766 86.6591C198.541 87.1098 198.428 87.5767 198.428 88.0597ZM181.283 75.2131V73.9091C181.283 72.8466 181.512 71.8726 181.971 70.9872C182.438 70.1018 183.106 69.3935 183.975 68.8622C184.845 68.331 185.895 68.0653 187.127 68.0653C188.407 68.0653 189.481 68.331 190.35 68.8622C191.228 69.3935 191.892 70.1018 192.343 70.9872C192.793 71.8726 193.019 72.8466 193.019 73.9091V75.2131C193.019 76.2756 192.789 77.2455 192.331 78.1229C191.88 79.0002 191.216 79.7005 190.338 80.2237C189.461 80.7469 188.391 81.0085 187.127 81.0085C185.863 81.0085 184.797 80.7429 183.927 80.2116C183.058 79.6804 182.398 78.9761 181.947 78.0987C181.504 77.2214 181.283 76.2595 181.283 75.2131ZM185.533 73.9091V75.2131C185.533 75.696 185.646 76.1548 185.871 76.5895C186.096 77.0241 186.515 77.2415 187.127 77.2415C187.795 77.2415 188.234 77.0241 188.443 76.5895C188.66 76.1548 188.769 75.696 188.769 75.2131V73.9091C188.769 73.4261 188.668 72.9593 188.467 72.5085C188.266 72.0578 187.819 71.8324 187.127 71.8324C186.491 71.8324 186.064 72.0658 185.847 72.5327C185.638 72.9915 185.533 73.4503 185.533 73.9091ZM183.336 94L200.336 69.2727H203.765L186.765 94H183.336Z" fill="#F04E5A"/>
<path d="M162 7C181.483 7 200.202 14.5818 214.193 28.1405C228.185 41.6992 236.351 60.1705 236.963 79.6442C237.575 99.1179 230.585 118.065 217.472 132.476C204.36 146.886 186.154 155.629 166.709 156.852L165.992 145.445C182.473 144.408 197.904 136.998 209.018 124.783C220.133 112.569 226.057 96.5091 225.539 80.0032C225.02 63.4973 218.098 47.8411 206.239 36.3487C194.38 24.8564 178.514 18.43 162 18.43L162 7Z" fill="#F04E5A"/>
</svg>
