<svg width="280" height="275" viewBox="0 0 280 275" fill="none" xmlns="http://www.w3.org/2000/svg">
<circle cx="140" cy="82" r="82" fill="#E9E9E9"/>
<path d="M17.6004 217.98C17.5871 218.033 17.5804 218.113 17.5804 218.22C17.5804 218.553 17.6937 218.72 17.9204 218.72C18.1471 218.72 18.4471 218.567 18.8204 218.26L19.1004 218.88C18.3537 219.76 17.5271 220.2 16.6204 220.2C16.1537 220.2 15.8004 220.087 15.5604 219.86C15.3204 219.633 15.1804 219.287 15.1404 218.82V218.52C14.8071 218.987 14.3604 219.387 13.8004 219.72C13.2404 220.04 12.6004 220.2 11.8804 220.2C10.7604 220.2 9.92706 219.82 9.38039 219.06C8.83372 218.287 8.56039 217.28 8.56039 216.04C8.56039 214.8 8.80706 213.613 9.30039 212.48C9.79372 211.347 10.5271 210.427 11.5004 209.72C12.4871 209 13.6737 208.64 15.0604 208.64C15.4471 208.64 15.8537 208.693 16.2804 208.8L16.7804 205.42L15.3404 205.02L15.5204 204.28L19.1204 203.88L19.6204 204.14L17.6004 217.98ZM16.0804 210.16C15.7471 209.973 15.3271 209.88 14.8204 209.88C14.0071 209.88 13.3404 210.193 12.8204 210.82C12.3004 211.433 11.9204 212.2 11.6804 213.12C11.4404 214.04 11.3204 214.973 11.3204 215.92C11.3204 216.8 11.4537 217.48 11.7204 217.96C12.0004 218.44 12.3937 218.68 12.9004 218.68C13.3137 218.68 13.7071 218.553 14.0804 218.3C14.4537 218.033 14.7604 217.72 15.0004 217.36L16.0804 210.16ZM29.1326 218C28.7859 218.547 28.2192 219.06 27.4326 219.54C26.6592 220.02 25.7592 220.26 24.7326 220.26C23.7726 220.26 22.9792 220.053 22.3526 219.64C21.7392 219.227 21.2926 218.687 21.0126 218.02C20.7326 217.353 20.5926 216.627 20.5926 215.84C20.5926 214.507 20.8592 213.293 21.3926 212.2C21.9392 211.093 22.6792 210.22 23.6126 209.58C24.5459 208.94 25.5859 208.62 26.7326 208.62C27.7592 208.62 28.5192 208.86 29.0126 209.34C29.5192 209.807 29.7726 210.42 29.7726 211.18C29.7726 212.14 29.4259 212.94 28.7326 213.58C28.0392 214.22 27.2059 214.7 26.2326 215.02C25.2592 215.327 24.3392 215.493 23.4726 215.52C23.4459 216.48 23.5992 217.253 23.9326 217.84C24.2792 218.427 24.7992 218.72 25.4926 218.72C26.6392 218.72 27.6792 218.187 28.6126 217.12L29.1326 218ZM26.1326 209.86C25.3459 209.86 24.7259 210.333 24.2726 211.28C23.8192 212.227 23.5526 213.28 23.4726 214.44C23.9926 214.413 24.5392 214.273 25.1126 214.02C25.6992 213.767 26.1859 213.413 26.5726 212.96C26.9726 212.493 27.1726 211.96 27.1726 211.36C27.1726 210.88 27.0792 210.513 26.8926 210.26C26.7192 209.993 26.4659 209.86 26.1326 209.86ZM34.8618 211.52C35.1151 210.76 35.5485 210.093 36.1618 209.52C36.7885 208.933 37.4885 208.64 38.2618 208.64C38.5285 208.64 38.7551 208.7 38.9418 208.82L38.3618 211.7C38.2818 211.633 38.1485 211.573 37.9618 211.52C37.7885 211.453 37.5751 211.42 37.3218 211.42C36.8418 211.42 36.3818 211.527 35.9418 211.74C35.5018 211.94 35.1618 212.233 34.9218 212.62L33.9418 220H31.3418L32.6018 210.5L31.5818 209.94L31.7218 209.14L34.5818 208.66L35.0418 208.94L34.9418 210.76L34.8618 211.52ZM51.8496 206.58C51.4363 206.247 50.8563 206.08 50.1096 206.08C49.3763 206.08 48.7763 206.26 48.3096 206.62C47.8563 206.967 47.6296 207.44 47.6296 208.04C47.6296 208.747 47.8429 209.347 48.2696 209.84C48.7096 210.32 49.4296 210.873 50.4296 211.5C51.3896 212.1 52.1429 212.727 52.6896 213.38C53.2496 214.033 53.5296 214.82 53.5296 215.74C53.5429 216.58 53.3363 217.34 52.9096 218.02C52.4829 218.7 51.8496 219.24 51.0096 219.64C50.1829 220.027 49.1896 220.22 48.0296 220.22C47.0829 220.22 46.1763 220.12 45.3096 219.92C44.4429 219.707 43.8763 219.5 43.6096 219.3L44.1296 216.32H45.7896L45.8896 218.46C46.1296 218.647 46.4296 218.793 46.7896 218.9C47.1629 219.007 47.5629 219.06 47.9896 219.06C48.8963 219.06 49.6029 218.86 50.1096 218.46C50.6296 218.047 50.8896 217.493 50.8896 216.8C50.8896 216.16 50.6896 215.613 50.2896 215.16C49.8896 214.693 49.2363 214.173 48.3296 213.6C47.3296 212.973 46.5363 212.313 45.9496 211.62C45.3763 210.927 45.0829 210.113 45.0696 209.18C45.0696 208.313 45.2963 207.56 45.7496 206.92C46.2029 206.28 46.8229 205.793 47.6096 205.46C48.4096 205.127 49.3096 204.96 50.3096 204.96C52.0029 204.96 53.2696 205.213 54.1096 205.72L53.6096 208.52H52.0896L51.8496 206.58ZM62.3043 211.62C61.931 211.153 61.5976 210.78 61.3043 210.5C61.0243 210.207 60.7776 210.06 60.5643 210.06C60.071 210.06 59.611 210.287 59.1843 210.74C58.771 211.193 58.431 211.827 58.1643 212.64C57.911 213.453 57.7843 214.367 57.7843 215.38C57.7843 216.487 57.9443 217.3 58.2643 217.82C58.5843 218.327 59.071 218.58 59.7243 218.58C60.2843 218.58 60.7576 218.473 61.1443 218.26C61.5443 218.047 61.931 217.747 62.3043 217.36L62.8243 218.24C62.491 218.733 61.9643 219.187 61.2443 219.6C60.5376 220 59.6976 220.2 58.7243 220.2C57.5776 220.2 56.6776 219.8 56.0243 219C55.371 218.187 55.0443 217.04 55.0443 215.56C55.0443 214.44 55.2776 213.353 55.7443 212.3C56.211 211.233 56.9043 210.36 57.8243 209.68C58.7443 208.987 59.851 208.64 61.1443 208.64C61.5576 208.64 61.9843 208.68 62.4243 208.76C62.8776 208.827 63.2443 208.927 63.5243 209.06L62.8443 211.66L62.3043 211.62ZM68.1845 211.2C68.6778 210.427 69.2645 209.807 69.9445 209.34C70.6378 208.873 71.3711 208.64 72.1445 208.64C72.9311 208.64 73.5378 208.867 73.9645 209.32C74.4045 209.773 74.6245 210.527 74.6245 211.58C74.6245 211.993 74.5445 212.647 74.3845 213.54C74.2378 214.433 74.1578 214.94 74.1445 215.06L74.0245 215.7C73.9445 216.14 73.8645 216.593 73.7845 217.06C73.7178 217.527 73.6845 217.907 73.6845 218.2C73.6845 218.56 73.7978 218.74 74.0245 218.74C74.1445 218.74 74.2711 218.707 74.4045 218.64C74.5378 218.56 74.7245 218.427 74.9645 218.24L75.2245 218.86C75.0511 219.127 74.7311 219.42 74.2645 219.74C73.7978 220.047 73.2378 220.2 72.5845 220.2C71.9311 220.2 71.4845 220.073 71.2445 219.82C71.0045 219.553 70.8845 219.18 70.8845 218.7C70.8978 218.3 71.0245 217.507 71.2645 216.32L71.3845 215.64C71.4111 215.52 71.4645 215.2 71.5445 214.68C71.6378 214.16 71.7111 213.667 71.7645 213.2C71.8178 212.72 71.8445 212.307 71.8445 211.96C71.8445 211.347 71.7711 210.927 71.6245 210.7C71.4778 210.473 71.2311 210.36 70.8845 210.36C70.4311 210.36 69.9245 210.62 69.3645 211.14C68.8178 211.647 68.3511 212.267 67.9645 213L67.0845 220H64.4245L66.2445 205.42L65.0445 205.02L65.1845 204.28L68.6045 203.88L69.0845 204.14L68.1845 211.2ZM77.4249 210.78C77.3716 210.567 77.3116 210.42 77.2449 210.34C77.1783 210.247 77.0916 210.2 76.9849 210.2C76.8516 210.2 76.7316 210.233 76.6249 210.3C76.5316 210.353 76.4649 210.393 76.4249 210.42L76.1449 209.74C76.2916 209.54 76.5849 209.307 77.0249 209.04C77.4649 208.773 77.9383 208.64 78.4449 208.64C78.9783 208.64 79.3649 208.753 79.6049 208.98C79.8583 209.193 80.0249 209.527 80.1049 209.98L80.8849 216.12L81.1049 218.12L81.9249 215.7L84.3449 208.72H86.7449L87.6649 216.36L87.8249 218.06L88.5649 216.94C89.1116 216.113 89.5583 215.26 89.9049 214.38C90.2516 213.487 90.4316 212.62 90.4449 211.78C90.4449 211.54 90.3916 211.207 90.2849 210.78C90.1783 210.38 90.1249 210.087 90.1249 209.9C90.1249 209.527 90.2449 209.227 90.4849 209C90.7249 208.76 91.0449 208.64 91.4449 208.64C91.9649 208.64 92.3449 208.833 92.5849 209.22C92.8249 209.593 92.9449 210.087 92.9449 210.7C92.9583 211.567 92.5449 212.747 91.7049 214.24C90.8783 215.72 90.0183 217.013 89.1249 218.12L87.6649 220.08L85.7449 220.18L85.2249 216.64L84.8849 213.34L84.7649 211.92L84.3649 213.36L83.0649 216.36L81.5249 220.06L79.3249 220.2L78.6049 216.64L77.4249 210.78ZM102.297 218C101.95 218.547 101.383 219.06 100.597 219.54C99.8233 220.02 98.9233 220.26 97.8966 220.26C96.9366 220.26 96.1433 220.053 95.5166 219.64C94.9033 219.227 94.4566 218.687 94.1766 218.02C93.8966 217.353 93.7566 216.627 93.7566 215.84C93.7566 214.507 94.0233 213.293 94.5566 212.2C95.1033 211.093 95.8433 210.22 96.7766 209.58C97.71 208.94 98.75 208.62 99.8966 208.62C100.923 208.62 101.683 208.86 102.177 209.34C102.683 209.807 102.937 210.42 102.937 211.18C102.937 212.14 102.59 212.94 101.897 213.58C101.203 214.22 100.37 214.7 99.3966 215.02C98.4233 215.327 97.5033 215.493 96.6366 215.52C96.61 216.48 96.7633 217.253 97.0966 217.84C97.4433 218.427 97.9633 218.72 98.6566 218.72C99.8033 218.72 100.843 218.187 101.777 217.12L102.297 218ZM99.2966 209.86C98.51 209.86 97.89 210.333 97.4366 211.28C96.9833 212.227 96.7166 213.28 96.6366 214.44C97.1566 214.413 97.7033 214.273 98.2766 214.02C98.8633 213.767 99.35 213.413 99.7366 212.96C100.137 212.493 100.337 211.96 100.337 211.36C100.337 210.88 100.243 210.513 100.057 210.26C99.8833 209.993 99.63 209.86 99.2966 209.86ZM107.526 218C107.513 218.067 107.506 218.147 107.506 218.24C107.506 218.56 107.619 218.72 107.846 218.72C107.966 218.72 108.099 218.68 108.246 218.6C108.393 218.52 108.579 218.387 108.806 218.2L109.066 218.82C108.839 219.127 108.499 219.433 108.046 219.74C107.606 220.047 107.066 220.2 106.426 220.2C105.906 220.2 105.499 220.1 105.206 219.9C104.913 219.687 104.766 219.4 104.766 219.04L104.786 218.84C104.866 218.147 105.139 216.133 105.606 212.8L105.926 210.48L104.746 209.92L104.886 209.14L108.326 208.66L108.806 208.88L107.526 218ZM107.746 206.74C107.386 206.74 107.073 206.607 106.806 206.34C106.553 206.06 106.426 205.74 106.426 205.38C106.426 204.887 106.586 204.473 106.906 204.14C107.239 203.807 107.659 203.64 108.166 203.64C108.579 203.64 108.906 203.773 109.146 204.04C109.386 204.293 109.506 204.6 109.506 204.96C109.506 205.467 109.353 205.893 109.046 206.24C108.739 206.573 108.306 206.74 107.746 206.74ZM115.691 210.96C114.611 210.933 113.925 210.927 113.631 210.94C113.191 210.953 112.831 211.12 112.551 211.44C112.285 211.747 112.138 212.127 112.111 212.58H111.311C111.285 212.287 111.271 211.987 111.271 211.68C111.271 211.027 111.325 210.427 111.431 209.88C111.551 209.333 111.745 208.993 112.011 208.86C112.238 208.727 112.551 208.66 112.951 208.66C113.658 208.66 114.698 208.72 116.071 208.84C116.378 208.853 116.811 208.88 117.371 208.92C117.945 208.96 118.365 208.98 118.631 208.98C119.085 208.98 119.438 208.873 119.691 208.66L120.191 209.2L114.371 216.52L112.891 217.9L116.491 217.94C117.011 217.94 117.418 217.787 117.711 217.48C118.005 217.16 118.185 216.74 118.251 216.22H119.031C119.045 216.353 119.051 216.587 119.051 216.92C119.051 217.627 118.991 218.28 118.871 218.88C118.765 219.467 118.571 219.847 118.291 220.02C118.118 220.153 117.785 220.22 117.291 220.22C116.531 220.22 115.431 220.16 113.991 220.04C113.658 220.027 113.191 220 112.591 219.96C112.005 219.92 111.585 219.9 111.331 219.9C111.158 219.9 110.971 219.927 110.771 219.98C110.585 220.033 110.431 220.113 110.311 220.22L109.731 219.66L116.131 211.84L117.211 210.98L115.691 210.96ZM129.152 218C128.805 218.547 128.239 219.06 127.452 219.54C126.679 220.02 125.779 220.26 124.752 220.26C123.792 220.26 122.999 220.053 122.372 219.64C121.759 219.227 121.312 218.687 121.032 218.02C120.752 217.353 120.612 216.627 120.612 215.84C120.612 214.507 120.879 213.293 121.412 212.2C121.959 211.093 122.699 210.22 123.632 209.58C124.565 208.94 125.605 208.62 126.752 208.62C127.779 208.62 128.539 208.86 129.032 209.34C129.539 209.807 129.792 210.42 129.792 211.18C129.792 212.14 129.445 212.94 128.752 213.58C128.059 214.22 127.225 214.7 126.252 215.02C125.279 215.327 124.359 215.493 123.492 215.52C123.465 216.48 123.619 217.253 123.952 217.84C124.299 218.427 124.819 218.72 125.512 218.72C126.659 218.72 127.699 218.187 128.632 217.12L129.152 218ZM126.152 209.86C125.365 209.86 124.745 210.333 124.292 211.28C123.839 212.227 123.572 213.28 123.492 214.44C124.012 214.413 124.559 214.273 125.132 214.02C125.719 213.767 126.205 213.413 126.592 212.96C126.992 212.493 127.192 211.96 127.192 211.36C127.192 210.88 127.099 210.513 126.912 210.26C126.739 209.993 126.485 209.86 126.152 209.86ZM134.881 211.52C135.135 210.76 135.568 210.093 136.181 209.52C136.808 208.933 137.508 208.64 138.281 208.64C138.548 208.64 138.775 208.7 138.961 208.82L138.381 211.7C138.301 211.633 138.168 211.573 137.981 211.52C137.808 211.453 137.595 211.42 137.341 211.42C136.861 211.42 136.401 211.527 135.961 211.74C135.521 211.94 135.181 212.233 134.941 212.62L133.961 220H131.361L132.621 210.5L131.601 209.94L131.741 209.14L134.601 208.66L135.061 208.94L134.961 210.76L134.881 211.52ZM155.709 205.14L155.369 208.64H153.609L153.349 206.42L149.289 206.22L148.569 211.68L153.349 211.46L153.109 213.36L148.409 213.06L147.669 218.8L150.249 219.08L150.169 220H143.369L143.469 219.08L144.849 218.8L146.469 206.36L145.069 206.12L145.189 205.14H155.709ZM164.608 217.96C164.595 218.013 164.588 218.093 164.588 218.2C164.588 218.547 164.721 218.72 164.988 218.72C165.201 218.72 165.501 218.56 165.888 218.24L166.168 218.86C165.995 219.127 165.681 219.42 165.228 219.74C164.788 220.047 164.275 220.2 163.688 220.2C163.235 220.2 162.875 220.1 162.608 219.9C162.341 219.7 162.201 219.393 162.188 218.98L162.228 218.64C161.855 219.08 161.401 219.453 160.868 219.76C160.335 220.053 159.748 220.2 159.108 220.2C157.988 220.2 157.148 219.82 156.588 219.06C156.041 218.287 155.768 217.28 155.768 216.04C155.768 214.813 156.021 213.633 156.528 212.5C157.048 211.367 157.801 210.44 158.788 209.72C159.775 209 160.948 208.64 162.308 208.64C162.655 208.64 163.028 208.68 163.428 208.76C163.841 208.84 164.201 208.933 164.508 209.04L165.888 208.64L164.608 217.96ZM163.068 210.06C162.815 209.94 162.488 209.88 162.088 209.88C161.288 209.88 160.621 210.187 160.088 210.8C159.555 211.4 159.161 212.167 158.908 213.1C158.668 214.02 158.548 214.953 158.548 215.9C158.548 216.78 158.681 217.467 158.948 217.96C159.215 218.44 159.608 218.68 160.128 218.68C160.461 218.68 160.795 218.567 161.128 218.34C161.475 218.113 161.781 217.847 162.048 217.54L163.068 210.06ZM171.606 211.08C172.086 210.36 172.66 209.773 173.326 209.32C173.993 208.867 174.693 208.64 175.426 208.64C176.173 208.64 176.753 208.84 177.166 209.24C177.593 209.627 177.84 210.253 177.906 211.12C178.373 210.347 178.94 209.74 179.606 209.3C180.286 208.86 181.02 208.64 181.806 208.64C183.473 208.64 184.306 209.62 184.306 211.58C184.306 212.007 184.173 212.993 183.906 214.54L183.826 215.06L183.726 215.58C183.5 216.82 183.38 217.673 183.366 218.14C183.366 218.527 183.48 218.72 183.706 218.72C183.826 218.72 183.953 218.687 184.086 218.62C184.233 218.54 184.426 218.4 184.666 218.2L184.926 218.82C184.74 219.1 184.413 219.4 183.946 219.72C183.48 220.04 182.92 220.2 182.266 220.2C181.64 220.2 181.206 220.073 180.966 219.82C180.726 219.567 180.606 219.227 180.606 218.8C180.606 218.533 180.646 218.147 180.726 217.64C180.806 217.12 180.893 216.6 180.986 216.08L181.066 215.62C181.226 214.713 181.34 214 181.406 213.48C181.486 212.96 181.526 212.453 181.526 211.96C181.526 211.347 181.453 210.927 181.306 210.7C181.173 210.473 180.933 210.36 180.586 210.36C180.16 210.36 179.693 210.567 179.186 210.98C178.693 211.393 178.266 211.92 177.906 212.56C177.853 213.347 177.766 214.18 177.646 215.06L177.026 220H174.326L174.906 215.64C175.146 213.987 175.266 212.733 175.266 211.88C175.253 211.267 175.166 210.86 175.006 210.66C174.86 210.46 174.593 210.36 174.206 210.36C173.78 210.36 173.293 210.593 172.746 211.06C172.213 211.527 171.766 212.087 171.406 212.74L170.406 220H167.806L169.086 210.48L168.066 209.94L168.226 209.12L171.346 208.64L171.806 208.86L171.606 211.08ZM189.772 218C189.759 218.067 189.752 218.147 189.752 218.24C189.752 218.56 189.865 218.72 190.092 218.72C190.212 218.72 190.345 218.68 190.492 218.6C190.639 218.52 190.825 218.387 191.052 218.2L191.312 218.82C191.085 219.127 190.745 219.433 190.292 219.74C189.852 220.047 189.312 220.2 188.672 220.2C188.152 220.2 187.745 220.1 187.452 219.9C187.159 219.687 187.012 219.4 187.012 219.04L187.032 218.84C187.112 218.147 187.385 216.133 187.852 212.8L188.172 210.48L186.992 209.92L187.132 209.14L190.572 208.66L191.052 208.88L189.772 218ZM189.992 206.74C189.632 206.74 189.319 206.607 189.052 206.34C188.799 206.06 188.672 205.74 188.672 205.38C188.672 204.887 188.832 204.473 189.152 204.14C189.485 203.807 189.905 203.64 190.412 203.64C190.825 203.64 191.152 203.773 191.392 204.04C191.632 204.293 191.752 204.6 191.752 204.96C191.752 205.467 191.599 205.893 191.292 206.24C190.985 206.573 190.552 206.74 189.992 206.74ZM195.957 218C195.944 218.053 195.937 218.127 195.937 218.22C195.937 218.553 196.057 218.72 196.297 218.72C196.417 218.72 196.544 218.687 196.677 218.62C196.824 218.553 197.017 218.413 197.257 218.2L197.517 218.82C197.304 219.127 196.991 219.433 196.577 219.74C196.164 220.047 195.631 220.2 194.977 220.2C194.471 220.2 194.057 220.1 193.737 219.9C193.417 219.687 193.251 219.36 193.237 218.92C193.237 218.867 193.264 218.627 193.317 218.2L195.057 205.42L193.797 205.02L193.977 204.28L197.377 203.88L197.837 204.14L195.957 218ZM202.311 218C202.298 218.067 202.291 218.147 202.291 218.24C202.291 218.56 202.404 218.72 202.631 218.72C202.751 218.72 202.884 218.68 203.031 218.6C203.178 218.52 203.364 218.387 203.591 218.2L203.851 218.82C203.624 219.127 203.284 219.433 202.831 219.74C202.391 220.047 201.851 220.2 201.211 220.2C200.691 220.2 200.284 220.1 199.991 219.9C199.698 219.687 199.551 219.4 199.551 219.04L199.571 218.84C199.651 218.147 199.924 216.133 200.391 212.8L200.711 210.48L199.531 209.92L199.671 209.14L203.111 208.66L203.591 208.88L202.311 218ZM202.531 206.74C202.171 206.74 201.858 206.607 201.591 206.34C201.338 206.06 201.211 205.74 201.211 205.38C201.211 204.887 201.371 204.473 201.691 204.14C202.024 203.807 202.444 203.64 202.951 203.64C203.364 203.64 203.691 203.773 203.931 204.04C204.171 204.293 204.291 204.6 204.291 204.96C204.291 205.467 204.138 205.893 203.831 206.24C203.524 206.573 203.091 206.74 202.531 206.74ZM213.976 218C213.63 218.547 213.063 219.06 212.276 219.54C211.503 220.02 210.603 220.26 209.576 220.26C208.616 220.26 207.823 220.053 207.196 219.64C206.583 219.227 206.136 218.687 205.856 218.02C205.576 217.353 205.436 216.627 205.436 215.84C205.436 214.507 205.703 213.293 206.236 212.2C206.783 211.093 207.523 210.22 208.456 209.58C209.39 208.94 210.43 208.62 211.576 208.62C212.603 208.62 213.363 208.86 213.856 209.34C214.363 209.807 214.616 210.42 214.616 211.18C214.616 212.14 214.27 212.94 213.576 213.58C212.883 214.22 212.05 214.7 211.076 215.02C210.103 215.327 209.183 215.493 208.316 215.52C208.29 216.48 208.443 217.253 208.776 217.84C209.123 218.427 209.643 218.72 210.336 218.72C211.483 218.72 212.523 218.187 213.456 217.12L213.976 218ZM210.976 209.86C210.19 209.86 209.57 210.333 209.116 211.28C208.663 212.227 208.396 213.28 208.316 214.44C208.836 214.413 209.383 214.273 209.956 214.02C210.543 213.767 211.03 213.413 211.416 212.96C211.816 212.493 212.016 211.96 212.016 211.36C212.016 210.88 211.923 210.513 211.736 210.26C211.563 209.993 211.31 209.86 210.976 209.86ZM219.966 211.06C220.459 210.327 221.046 209.74 221.726 209.3C222.406 208.86 223.119 208.64 223.866 208.64C225.519 208.64 226.346 209.62 226.346 211.58C226.346 212.1 226.179 213.26 225.846 215.06C225.792 215.407 225.746 215.673 225.706 215.86C225.519 216.913 225.419 217.673 225.406 218.14V218.22C225.406 218.553 225.512 218.72 225.726 218.72C225.846 218.72 225.972 218.687 226.106 218.62C226.239 218.553 226.412 218.433 226.626 218.26L226.906 218.88C226.706 219.16 226.379 219.453 225.926 219.76C225.472 220.053 224.919 220.2 224.266 220.2C223.639 220.2 223.206 220.067 222.966 219.8C222.726 219.52 222.606 219.153 222.606 218.7C222.619 218.3 222.746 217.507 222.986 216.32L223.106 215.64C223.132 215.52 223.186 215.2 223.266 214.68C223.359 214.16 223.432 213.667 223.486 213.2C223.539 212.72 223.566 212.307 223.566 211.96C223.566 211.347 223.492 210.927 223.346 210.7C223.212 210.473 222.966 210.36 222.606 210.36C222.166 210.36 221.672 210.607 221.126 211.1C220.592 211.593 220.132 212.187 219.746 212.88L218.786 220H216.166L217.446 210.48L216.426 209.94L216.586 209.12L219.706 208.64L220.166 208.86L219.966 211.06ZM240.129 210.8C239.969 210.613 239.703 210.42 239.329 210.22C238.969 210.02 238.549 209.92 238.069 209.92C237.536 209.92 237.103 210.04 236.769 210.28C236.449 210.507 236.289 210.847 236.289 211.3C236.289 211.7 236.423 212.06 236.689 212.38C236.969 212.687 237.416 213.06 238.029 213.5C238.709 214.007 239.229 214.5 239.589 214.98C239.949 215.447 240.129 216.047 240.129 216.78C240.129 217.513 239.929 218.14 239.529 218.66C239.129 219.167 238.596 219.553 237.929 219.82C237.263 220.073 236.529 220.2 235.729 220.2C235.129 220.2 234.516 220.133 233.889 220C233.263 219.853 232.856 219.7 232.669 219.54L233.069 217.84C233.349 218.08 233.729 218.307 234.209 218.52C234.689 218.733 235.189 218.84 235.709 218.84C236.203 218.84 236.623 218.727 236.969 218.5C237.329 218.273 237.509 217.92 237.509 217.44C237.509 217.027 237.356 216.653 237.049 216.32C236.743 215.987 236.283 215.607 235.669 215.18C235.109 214.793 234.636 214.34 234.249 213.82C233.876 213.287 233.689 212.647 233.689 211.9C233.689 211.26 233.869 210.693 234.229 210.2C234.603 209.707 235.109 209.327 235.749 209.06C236.403 208.78 237.149 208.64 237.989 208.64C238.483 208.64 238.983 208.68 239.489 208.76C239.996 208.84 240.336 208.927 240.509 209.02L240.129 210.8ZM245.084 218C245.071 218.067 245.064 218.147 245.064 218.24C245.064 218.56 245.178 218.72 245.404 218.72C245.524 218.72 245.658 218.68 245.804 218.6C245.951 218.52 246.138 218.387 246.364 218.2L246.624 218.82C246.398 219.127 246.058 219.433 245.604 219.74C245.164 220.047 244.624 220.2 243.984 220.2C243.464 220.2 243.058 220.1 242.764 219.9C242.471 219.687 242.324 219.4 242.324 219.04L242.344 218.84C242.424 218.147 242.698 216.133 243.164 212.8L243.484 210.48L242.304 209.92L242.444 209.14L245.884 208.66L246.364 208.88L245.084 218ZM245.304 206.74C244.944 206.74 244.631 206.607 244.364 206.34C244.111 206.06 243.984 205.74 243.984 205.38C243.984 204.887 244.144 204.473 244.464 204.14C244.798 203.807 245.218 203.64 245.724 203.64C246.138 203.64 246.464 203.773 246.704 204.04C246.944 204.293 247.064 204.6 247.064 204.96C247.064 205.467 246.911 205.893 246.604 206.24C246.298 206.573 245.864 206.74 245.304 206.74ZM252.29 211.06C252.783 210.327 253.37 209.74 254.05 209.3C254.73 208.86 255.443 208.64 256.19 208.64C257.843 208.64 258.67 209.62 258.67 211.58C258.67 212.1 258.503 213.26 258.17 215.06C258.116 215.407 258.07 215.673 258.03 215.86C257.843 216.913 257.743 217.673 257.73 218.14V218.22C257.73 218.553 257.836 218.72 258.05 218.72C258.17 218.72 258.296 218.687 258.43 218.62C258.563 218.553 258.736 218.433 258.95 218.26L259.23 218.88C259.03 219.16 258.703 219.453 258.25 219.76C257.796 220.053 257.243 220.2 256.59 220.2C255.963 220.2 255.53 220.067 255.29 219.8C255.05 219.52 254.93 219.153 254.93 218.7C254.943 218.3 255.07 217.507 255.31 216.32L255.43 215.64C255.456 215.52 255.51 215.2 255.59 214.68C255.683 214.16 255.756 213.667 255.81 213.2C255.863 212.72 255.89 212.307 255.89 211.96C255.89 211.347 255.816 210.927 255.67 210.7C255.536 210.473 255.29 210.36 254.93 210.36C254.49 210.36 253.996 210.607 253.45 211.1C252.916 211.593 252.456 212.187 252.07 212.88L251.11 220H248.49L249.77 210.48L248.75 209.94L248.91 209.12L252.03 208.64L252.49 208.86L252.29 211.06ZM269.807 217.98C269.794 218.033 269.787 218.113 269.787 218.22C269.787 218.553 269.901 218.72 270.127 218.72C270.354 218.72 270.654 218.567 271.027 218.26L271.307 218.88C270.561 219.76 269.734 220.2 268.827 220.2C268.361 220.2 268.007 220.087 267.767 219.86C267.527 219.633 267.387 219.287 267.347 218.82V218.52C267.014 218.987 266.567 219.387 266.007 219.72C265.447 220.04 264.807 220.2 264.087 220.2C262.967 220.2 262.134 219.82 261.587 219.06C261.041 218.287 260.767 217.28 260.767 216.04C260.767 214.8 261.014 213.613 261.507 212.48C262.001 211.347 262.734 210.427 263.707 209.72C264.694 209 265.881 208.64 267.267 208.64C267.654 208.64 268.061 208.693 268.487 208.8L268.987 205.42L267.547 205.02L267.727 204.28L271.327 203.88L271.827 204.14L269.807 217.98ZM268.287 210.16C267.954 209.973 267.534 209.88 267.027 209.88C266.214 209.88 265.547 210.193 265.027 210.82C264.507 211.433 264.127 212.2 263.887 213.12C263.647 214.04 263.527 214.973 263.527 215.92C263.527 216.8 263.661 217.48 263.927 217.96C264.207 218.44 264.601 218.68 265.107 218.68C265.521 218.68 265.914 218.553 266.287 218.3C266.661 218.033 266.967 217.72 267.207 217.36L268.287 210.16ZM51.8826 235.96C50.8026 235.933 50.1159 235.927 49.8226 235.94C49.3826 235.953 49.0226 236.12 48.7426 236.44C48.4759 236.747 48.3292 237.127 48.3026 237.58H47.5026C47.4759 237.287 47.4626 236.987 47.4626 236.68C47.4626 236.027 47.5159 235.427 47.6226 234.88C47.7426 234.333 47.9359 233.993 48.2026 233.86C48.4292 233.727 48.7426 233.66 49.1426 233.66C49.8492 233.66 50.8892 233.72 52.2626 233.84C52.5692 233.853 53.0026 233.88 53.5626 233.92C54.1359 233.96 54.5559 233.98 54.8226 233.98C55.2759 233.98 55.6292 233.873 55.8826 233.66L56.3826 234.2L50.5626 241.52L49.0826 242.9L52.6826 242.94C53.2026 242.94 53.6092 242.787 53.9026 242.48C54.1959 242.16 54.3759 241.74 54.4426 241.22H55.2226C55.2359 241.353 55.2426 241.587 55.2426 241.92C55.2426 242.627 55.1826 243.28 55.0626 243.88C54.9559 244.467 54.7626 244.847 54.4826 245.02C54.3092 245.153 53.9759 245.22 53.4826 245.22C52.7226 245.22 51.6226 245.16 50.1826 245.04C49.8492 245.027 49.3826 245 48.7826 244.96C48.1959 244.92 47.7759 244.9 47.5226 244.9C47.3492 244.9 47.1626 244.927 46.9626 244.98C46.7759 245.033 46.6226 245.113 46.5026 245.22L45.9226 244.66L52.3226 236.84L53.4026 235.98L51.8826 235.96ZM60.4235 239.22C60.3702 239.713 60.3235 240.06 60.2835 240.26C60.1502 241.3 60.0835 241.967 60.0835 242.26C60.0835 242.793 60.1768 243.173 60.3635 243.4C60.5502 243.627 60.8302 243.74 61.2035 243.74C61.6302 243.74 62.0502 243.607 62.4635 243.34C62.8902 243.073 63.2502 242.753 63.5435 242.38L64.7035 233.74H67.3435L66.0635 243C66.0368 243.24 66.0568 243.42 66.1235 243.54C66.1902 243.66 66.2902 243.72 66.4235 243.72C66.5435 243.72 66.6702 243.687 66.8035 243.62C66.9368 243.54 67.1235 243.4 67.3635 243.2L67.6435 243.82C67.4702 244.1 67.1502 244.4 66.6835 244.72C66.2168 245.04 65.6835 245.2 65.0835 245.2C64.6168 245.2 64.2568 245.1 64.0035 244.9C63.7635 244.7 63.6302 244.427 63.6035 244.08L63.5835 243.84C63.5835 243.733 63.5968 243.6 63.6235 243.44L63.5835 243.42C62.5968 244.607 61.4368 245.2 60.1035 245.2C59.3568 245.2 58.7235 245 58.2035 244.6C57.6835 244.187 57.4168 243.533 57.4035 242.64C57.4035 242.12 57.4968 241.18 57.6835 239.82C57.7368 239.487 57.7702 239.26 57.7835 239.14L58.3235 235.5L57.1635 234.82L57.3235 234L60.6435 233.66L61.1035 233.88L60.4235 239.22ZM71.1891 232.94C71.3225 232.14 71.5825 231.42 71.9691 230.78C72.3691 230.14 72.8758 229.633 73.4891 229.26C74.1025 228.887 74.7891 228.7 75.5491 228.7C76.2558 228.7 76.8158 228.78 77.2291 228.94L76.6691 230.54C76.2825 230.247 75.8358 230.1 75.3291 230.1C74.8358 230.1 74.4758 230.287 74.2491 230.66C74.0358 231.033 73.8758 231.607 73.7691 232.38L73.5691 233.84H75.7691L75.5091 235.34H73.3691L72.2691 244.22C72.0558 245.86 71.5691 247.233 70.8091 248.34C70.0625 249.447 69.0625 250.007 67.8091 250.02C67.5025 250.033 67.1825 250.02 66.8491 249.98C66.5025 249.94 66.2291 249.893 66.0291 249.84L66.5491 248.16C66.7225 248.24 66.9758 248.327 67.3091 248.42C67.6291 248.527 67.8891 248.58 68.0891 248.58C68.4491 248.58 68.7291 248.4 68.9291 248.04C69.1425 247.693 69.2958 247.167 69.3891 246.46L70.7691 235.34H69.4891L69.6691 234.46L71.0291 233.88L71.1891 232.94ZM79.647 236.52C79.9003 235.76 80.3336 235.093 80.947 234.52C81.5736 233.933 82.2736 233.64 83.047 233.64C83.3136 233.64 83.5403 233.7 83.727 233.82L83.147 236.7C83.067 236.633 82.9336 236.573 82.747 236.52C82.5736 236.453 82.3603 236.42 82.107 236.42C81.627 236.42 81.167 236.527 80.727 236.74C80.287 236.94 79.947 237.233 79.707 237.62L78.727 245H76.127L77.387 235.5L76.367 234.94L76.507 234.14L79.367 233.66L79.827 233.94L79.727 235.76L79.647 236.52ZM87.4087 243C87.3953 243.067 87.3887 243.147 87.3887 243.24C87.3887 243.56 87.502 243.72 87.7287 243.72C87.8487 243.72 87.982 243.68 88.1287 243.6C88.2753 243.52 88.462 243.387 88.6887 243.2L88.9487 243.82C88.722 244.127 88.382 244.433 87.9287 244.74C87.4887 245.047 86.9487 245.2 86.3087 245.2C85.7887 245.2 85.382 245.1 85.0887 244.9C84.7953 244.687 84.6487 244.4 84.6487 244.04L84.6687 243.84C84.7487 243.147 85.022 241.133 85.4887 237.8L85.8087 235.48L84.6287 234.92L84.7687 234.14L88.2087 233.66L88.6887 233.88L87.4087 243ZM87.6287 231.74C87.2687 231.74 86.9553 231.607 86.6887 231.34C86.4353 231.06 86.3087 230.74 86.3087 230.38C86.3087 229.887 86.4687 229.473 86.7887 229.14C87.122 228.807 87.542 228.64 88.0487 228.64C88.462 228.64 88.7887 228.773 89.0287 229.04C89.2687 229.293 89.3887 229.6 89.3887 229.96C89.3887 230.467 89.2353 230.893 88.9287 231.24C88.622 231.573 88.1887 231.74 87.6287 231.74ZM99.074 243C98.7273 243.547 98.1607 244.06 97.374 244.54C96.6007 245.02 95.7007 245.26 94.674 245.26C93.714 245.26 92.9207 245.053 92.294 244.64C91.6807 244.227 91.234 243.687 90.954 243.02C90.674 242.353 90.534 241.627 90.534 240.84C90.534 239.507 90.8007 238.293 91.334 237.2C91.8807 236.093 92.6207 235.22 93.554 234.58C94.4873 233.94 95.5273 233.62 96.674 233.62C97.7007 233.62 98.4607 233.86 98.954 234.34C99.4607 234.807 99.714 235.42 99.714 236.18C99.714 237.14 99.3673 237.94 98.674 238.58C97.9807 239.22 97.1473 239.7 96.174 240.02C95.2007 240.327 94.2807 240.493 93.414 240.52C93.3873 241.48 93.5407 242.253 93.874 242.84C94.2207 243.427 94.7407 243.72 95.434 243.72C96.5807 243.72 97.6207 243.187 98.554 242.12L99.074 243ZM96.074 234.86C95.2873 234.86 94.6673 235.333 94.214 236.28C93.7607 237.227 93.494 238.28 93.414 239.44C93.934 239.413 94.4807 239.273 95.054 239.02C95.6407 238.767 96.1273 238.413 96.514 237.96C96.914 237.493 97.114 236.96 97.114 236.36C97.114 235.88 97.0207 235.513 96.834 235.26C96.6607 234.993 96.4073 234.86 96.074 234.86ZM109.983 242.98C109.97 243.033 109.963 243.113 109.963 243.22C109.963 243.553 110.077 243.72 110.303 243.72C110.53 243.72 110.83 243.567 111.203 243.26L111.483 243.88C110.737 244.76 109.91 245.2 109.003 245.2C108.537 245.2 108.183 245.087 107.943 244.86C107.703 244.633 107.563 244.287 107.523 243.82V243.52C107.19 243.987 106.743 244.387 106.183 244.72C105.623 245.04 104.983 245.2 104.263 245.2C103.143 245.2 102.31 244.82 101.763 244.06C101.217 243.287 100.943 242.28 100.943 241.04C100.943 239.8 101.19 238.613 101.683 237.48C102.177 236.347 102.91 235.427 103.883 234.72C104.87 234 106.057 233.64 107.443 233.64C107.83 233.64 108.237 233.693 108.663 233.8L109.163 230.42L107.723 230.02L107.903 229.28L111.503 228.88L112.003 229.14L109.983 242.98ZM108.463 235.16C108.13 234.973 107.71 234.88 107.203 234.88C106.39 234.88 105.723 235.193 105.203 235.82C104.683 236.433 104.303 237.2 104.063 238.12C103.823 239.04 103.703 239.973 103.703 240.92C103.703 241.8 103.837 242.48 104.103 242.96C104.383 243.44 104.777 243.68 105.283 243.68C105.697 243.68 106.09 243.553 106.463 243.3C106.837 243.033 107.143 242.72 107.383 242.36L108.463 235.16ZM121.515 243C121.169 243.547 120.602 244.06 119.815 244.54C119.042 245.02 118.142 245.26 117.115 245.26C116.155 245.26 115.362 245.053 114.735 244.64C114.122 244.227 113.675 243.687 113.395 243.02C113.115 242.353 112.975 241.627 112.975 240.84C112.975 239.507 113.242 238.293 113.775 237.2C114.322 236.093 115.062 235.22 115.995 234.58C116.929 233.94 117.969 233.62 119.115 233.62C120.142 233.62 120.902 233.86 121.395 234.34C121.902 234.807 122.155 235.42 122.155 236.18C122.155 237.14 121.809 237.94 121.115 238.58C120.422 239.22 119.589 239.7 118.615 240.02C117.642 240.327 116.722 240.493 115.855 240.52C115.829 241.48 115.982 242.253 116.315 242.84C116.662 243.427 117.182 243.72 117.875 243.72C119.022 243.72 120.062 243.187 120.995 242.12L121.515 243ZM118.515 234.86C117.729 234.86 117.109 235.333 116.655 236.28C116.202 237.227 115.935 238.28 115.855 239.44C116.375 239.413 116.922 239.273 117.495 239.02C118.082 238.767 118.569 238.413 118.955 237.96C119.355 237.493 119.555 236.96 119.555 236.36C119.555 235.88 119.462 235.513 119.275 235.26C119.102 234.993 118.849 234.86 118.515 234.86ZM127.505 236.06C127.998 235.327 128.585 234.74 129.265 234.3C129.945 233.86 130.658 233.64 131.405 233.64C133.058 233.64 133.885 234.62 133.885 236.58C133.885 237.1 133.718 238.26 133.385 240.06C133.331 240.407 133.285 240.673 133.245 240.86C133.058 241.913 132.958 242.673 132.945 243.14V243.22C132.945 243.553 133.051 243.72 133.265 243.72C133.385 243.72 133.511 243.687 133.645 243.62C133.778 243.553 133.951 243.433 134.165 243.26L134.445 243.88C134.245 244.16 133.918 244.453 133.465 244.76C133.011 245.053 132.458 245.2 131.805 245.2C131.178 245.2 130.745 245.067 130.505 244.8C130.265 244.52 130.145 244.153 130.145 243.7C130.158 243.3 130.285 242.507 130.525 241.32L130.645 240.64C130.671 240.52 130.725 240.2 130.805 239.68C130.898 239.16 130.971 238.667 131.025 238.2C131.078 237.72 131.105 237.307 131.105 236.96C131.105 236.347 131.031 235.927 130.885 235.7C130.751 235.473 130.505 235.36 130.145 235.36C129.705 235.36 129.211 235.607 128.665 236.1C128.131 236.593 127.671 237.187 127.285 237.88L126.325 245H123.705L124.985 235.48L123.965 234.94L124.125 234.12L127.245 233.64L127.705 233.86L127.505 236.06ZM144.848 236.08C145.328 235.36 145.902 234.773 146.568 234.32C147.235 233.867 147.935 233.64 148.668 233.64C149.415 233.64 149.995 233.84 150.408 234.24C150.835 234.627 151.082 235.253 151.148 236.12C151.615 235.347 152.182 234.74 152.848 234.3C153.528 233.86 154.262 233.64 155.048 233.64C156.715 233.64 157.548 234.62 157.548 236.58C157.548 237.007 157.415 237.993 157.148 239.54L157.068 240.06L156.968 240.58C156.742 241.82 156.622 242.673 156.608 243.14C156.608 243.527 156.722 243.72 156.948 243.72C157.068 243.72 157.195 243.687 157.328 243.62C157.475 243.54 157.668 243.4 157.908 243.2L158.168 243.82C157.982 244.1 157.655 244.4 157.188 244.72C156.722 245.04 156.162 245.2 155.508 245.2C154.882 245.2 154.448 245.073 154.208 244.82C153.968 244.567 153.848 244.227 153.848 243.8C153.848 243.533 153.888 243.147 153.968 242.64C154.048 242.12 154.135 241.6 154.228 241.08L154.308 240.62C154.468 239.713 154.582 239 154.648 238.48C154.728 237.96 154.768 237.453 154.768 236.96C154.768 236.347 154.695 235.927 154.548 235.7C154.415 235.473 154.175 235.36 153.828 235.36C153.402 235.36 152.935 235.567 152.428 235.98C151.935 236.393 151.508 236.92 151.148 237.56C151.095 238.347 151.008 239.18 150.888 240.06L150.268 245H147.568L148.148 240.64C148.388 238.987 148.508 237.733 148.508 236.88C148.495 236.267 148.408 235.86 148.248 235.66C148.102 235.46 147.835 235.36 147.448 235.36C147.022 235.36 146.535 235.593 145.988 236.06C145.455 236.527 145.008 237.087 144.648 237.74L143.648 245H141.048L142.328 235.48L141.308 234.94L141.468 234.12L144.588 233.64L145.048 233.86L144.848 236.08ZM163.014 243C163.001 243.067 162.994 243.147 162.994 243.24C162.994 243.56 163.107 243.72 163.334 243.72C163.454 243.72 163.587 243.68 163.734 243.6C163.881 243.52 164.067 243.387 164.294 243.2L164.554 243.82C164.327 244.127 163.987 244.433 163.534 244.74C163.094 245.047 162.554 245.2 161.914 245.2C161.394 245.2 160.987 245.1 160.694 244.9C160.401 244.687 160.254 244.4 160.254 244.04L160.274 243.84C160.354 243.147 160.627 241.133 161.094 237.8L161.414 235.48L160.234 234.92L160.374 234.14L163.814 233.66L164.294 233.88L163.014 243ZM163.234 231.74C162.874 231.74 162.561 231.607 162.294 231.34C162.041 231.06 161.914 230.74 161.914 230.38C161.914 229.887 162.074 229.473 162.394 229.14C162.727 228.807 163.147 228.64 163.654 228.64C164.067 228.64 164.394 228.773 164.634 229.04C164.874 229.293 164.994 229.6 164.994 229.96C164.994 230.467 164.841 230.893 164.534 231.24C164.227 231.573 163.794 231.74 163.234 231.74ZM169.459 241.34C169.366 242.113 169.319 242.58 169.319 242.74C169.319 243.047 169.379 243.267 169.499 243.4C169.619 243.52 169.826 243.58 170.119 243.58C170.386 243.58 170.686 243.52 171.019 243.4C171.366 243.267 171.653 243.107 171.879 242.92L172.099 243.66C171.753 244.047 171.259 244.4 170.619 244.72C169.979 245.04 169.259 245.2 168.459 245.2C167.899 245.2 167.453 245.06 167.119 244.78C166.799 244.487 166.639 244.027 166.639 243.4C166.639 243.133 166.706 242.507 166.839 241.52L167.679 235.32H166.479L166.699 234.36L167.899 233.94C168.299 233.567 168.773 232.647 169.319 231.18H170.819L170.479 233.9H172.879L172.679 235.32H170.279L169.459 241.34ZM181.315 243C181.302 243.067 181.295 243.147 181.295 243.24C181.295 243.56 181.408 243.72 181.635 243.72C181.755 243.72 181.888 243.68 182.035 243.6C182.182 243.52 182.368 243.387 182.595 243.2L182.855 243.82C182.628 244.127 182.288 244.433 181.835 244.74C181.395 245.047 180.855 245.2 180.215 245.2C179.695 245.2 179.288 245.1 178.995 244.9C178.702 244.687 178.555 244.4 178.555 244.04L178.575 243.84C178.655 243.147 178.928 241.133 179.395 237.8L179.715 235.48L178.535 234.92L178.675 234.14L182.115 233.66L182.595 233.88L181.315 243ZM181.535 231.74C181.175 231.74 180.862 231.607 180.595 231.34C180.342 231.06 180.215 230.74 180.215 230.38C180.215 229.887 180.375 229.473 180.695 229.14C181.028 228.807 181.448 228.64 181.955 228.64C182.368 228.64 182.695 228.773 182.935 229.04C183.175 229.293 183.295 229.6 183.295 229.96C183.295 230.467 183.142 230.893 182.835 231.24C182.528 231.573 182.095 231.74 181.535 231.74ZM188.36 236.2C188.854 235.427 189.44 234.807 190.12 234.34C190.814 233.873 191.547 233.64 192.32 233.64C193.107 233.64 193.714 233.867 194.14 234.32C194.58 234.773 194.8 235.527 194.8 236.58C194.8 236.993 194.72 237.647 194.56 238.54C194.414 239.433 194.334 239.94 194.32 240.06L194.2 240.7C194.12 241.14 194.04 241.593 193.96 242.06C193.894 242.527 193.86 242.907 193.86 243.2C193.86 243.56 193.974 243.74 194.2 243.74C194.32 243.74 194.447 243.707 194.58 243.64C194.714 243.56 194.9 243.427 195.14 243.24L195.4 243.86C195.227 244.127 194.907 244.42 194.44 244.74C193.974 245.047 193.414 245.2 192.76 245.2C192.107 245.2 191.66 245.073 191.42 244.82C191.18 244.553 191.06 244.18 191.06 243.7C191.074 243.3 191.2 242.507 191.44 241.32L191.56 240.64C191.587 240.52 191.64 240.2 191.72 239.68C191.814 239.16 191.887 238.667 191.94 238.2C191.994 237.72 192.02 237.307 192.02 236.96C192.02 236.347 191.947 235.927 191.8 235.7C191.654 235.473 191.407 235.36 191.06 235.36C190.607 235.36 190.1 235.62 189.54 236.14C188.994 236.647 188.527 237.267 188.14 238L187.26 245H184.6L186.42 230.42L185.22 230.02L185.36 229.28L188.78 228.88L189.26 229.14L188.36 236.2ZM200.741 236.52C200.994 235.76 201.427 235.093 202.041 234.52C202.667 233.933 203.367 233.64 204.141 233.64C204.407 233.64 204.634 233.7 204.821 233.82L204.241 236.7C204.161 236.633 204.027 236.573 203.841 236.52C203.667 236.453 203.454 236.42 203.201 236.42C202.721 236.42 202.261 236.527 201.821 236.74C201.381 236.94 201.041 237.233 200.801 237.62L199.821 245H197.221L198.481 235.5L197.461 234.94L197.601 234.14L200.461 233.66L200.921 233.94L200.821 235.76L200.741 236.52ZM213.722 243C213.376 243.547 212.809 244.06 212.022 244.54C211.249 245.02 210.349 245.26 209.322 245.26C208.362 245.26 207.569 245.053 206.942 244.64C206.329 244.227 205.882 243.687 205.602 243.02C205.322 242.353 205.182 241.627 205.182 240.84C205.182 239.507 205.449 238.293 205.982 237.2C206.529 236.093 207.269 235.22 208.202 234.58C209.136 233.94 210.176 233.62 211.322 233.62C212.349 233.62 213.109 233.86 213.602 234.34C214.109 234.807 214.362 235.42 214.362 236.18C214.362 237.14 214.016 237.94 213.322 238.58C212.629 239.22 211.796 239.7 210.822 240.02C209.849 240.327 208.929 240.493 208.062 240.52C208.036 241.48 208.189 242.253 208.522 242.84C208.869 243.427 209.389 243.72 210.082 243.72C211.229 243.72 212.269 243.187 213.202 242.12L213.722 243ZM210.722 234.86C209.936 234.86 209.316 235.333 208.862 236.28C208.409 237.227 208.142 238.28 208.062 239.44C208.582 239.413 209.129 239.273 209.702 239.02C210.289 238.767 210.776 238.413 211.162 237.96C211.562 237.493 211.762 236.96 211.762 236.36C211.762 235.88 211.669 235.513 211.482 235.26C211.309 234.993 211.056 234.86 210.722 234.86ZM219.712 236.08C220.192 235.36 220.765 234.773 221.432 234.32C222.098 233.867 222.798 233.64 223.532 233.64C224.278 233.64 224.858 233.84 225.272 234.24C225.698 234.627 225.945 235.253 226.012 236.12C226.478 235.347 227.045 234.74 227.712 234.3C228.392 233.86 229.125 233.64 229.912 233.64C231.578 233.64 232.412 234.62 232.412 236.58C232.412 237.007 232.278 237.993 232.012 239.54L231.932 240.06L231.832 240.58C231.605 241.82 231.485 242.673 231.472 243.14C231.472 243.527 231.585 243.72 231.812 243.72C231.932 243.72 232.058 243.687 232.192 243.62C232.338 243.54 232.532 243.4 232.772 243.2L233.032 243.82C232.845 244.1 232.518 244.4 232.052 244.72C231.585 245.04 231.025 245.2 230.372 245.2C229.745 245.2 229.312 245.073 229.072 244.82C228.832 244.567 228.712 244.227 228.712 243.8C228.712 243.533 228.752 243.147 228.832 242.64C228.912 242.12 228.998 241.6 229.092 241.08L229.172 240.62C229.332 239.713 229.445 239 229.512 238.48C229.592 237.96 229.632 237.453 229.632 236.96C229.632 236.347 229.558 235.927 229.412 235.7C229.278 235.473 229.038 235.36 228.692 235.36C228.265 235.36 227.798 235.567 227.292 235.98C226.798 236.393 226.372 236.92 226.012 237.56C225.958 238.347 225.872 239.18 225.752 240.06L225.132 245H222.432L223.012 240.64C223.252 238.987 223.372 237.733 223.372 236.88C223.358 236.267 223.272 235.86 223.112 235.66C222.965 235.46 222.698 235.36 222.312 235.36C221.885 235.36 221.398 235.593 220.852 236.06C220.318 236.527 219.872 237.087 219.512 237.74L218.512 245H215.912L217.192 235.48L216.172 234.94L216.332 234.12L219.452 233.64L219.912 233.86L219.712 236.08ZM84.508 255.14L84.168 258.64H82.408L82.148 256.42L78.088 256.22L77.368 261.68L82.148 261.46L81.908 263.36L77.208 263.06L76.468 268.8L79.048 269.08L78.968 270H72.168L72.268 269.08L73.648 268.8L75.268 256.36L73.868 256.12L73.988 255.14H84.508ZM93.4067 267.96C93.3934 268.013 93.3867 268.093 93.3867 268.2C93.3867 268.547 93.5201 268.72 93.7867 268.72C94.0001 268.72 94.3001 268.56 94.6867 268.24L94.9667 268.86C94.7934 269.127 94.4801 269.42 94.0267 269.74C93.5867 270.047 93.0734 270.2 92.4867 270.2C92.0334 270.2 91.6734 270.1 91.4067 269.9C91.1401 269.7 91.0001 269.393 90.9867 268.98L91.0267 268.64C90.6534 269.08 90.2001 269.453 89.6667 269.76C89.1334 270.053 88.5467 270.2 87.9067 270.2C86.7867 270.2 85.9467 269.82 85.3867 269.06C84.8401 268.287 84.5667 267.28 84.5667 266.04C84.5667 264.813 84.8201 263.633 85.3267 262.5C85.8467 261.367 86.6001 260.44 87.5867 259.72C88.5734 259 89.7467 258.64 91.1067 258.64C91.4534 258.64 91.8267 258.68 92.2267 258.76C92.6401 258.84 93.0001 258.933 93.3067 259.04L94.6867 258.64L93.4067 267.96ZM91.8667 260.06C91.6134 259.94 91.2867 259.88 90.8867 259.88C90.0867 259.88 89.4201 260.187 88.8867 260.8C88.3534 261.4 87.9601 262.167 87.7067 263.1C87.4667 264.02 87.3467 264.953 87.3467 265.9C87.3467 266.78 87.4801 267.467 87.7467 267.96C88.0134 268.44 88.4067 268.68 88.9267 268.68C89.2601 268.68 89.5934 268.567 89.9267 268.34C90.2734 268.113 90.5801 267.847 90.8467 267.54L91.8667 260.06ZM100.405 261.08C100.885 260.36 101.458 259.773 102.125 259.32C102.792 258.867 103.492 258.64 104.225 258.64C104.972 258.64 105.552 258.84 105.965 259.24C106.392 259.627 106.638 260.253 106.705 261.12C107.172 260.347 107.738 259.74 108.405 259.3C109.085 258.86 109.818 258.64 110.605 258.64C112.272 258.64 113.105 259.62 113.105 261.58C113.105 262.007 112.972 262.993 112.705 264.54L112.625 265.06L112.525 265.58C112.298 266.82 112.178 267.673 112.165 268.14C112.165 268.527 112.278 268.72 112.505 268.72C112.625 268.72 112.752 268.687 112.885 268.62C113.032 268.54 113.225 268.4 113.465 268.2L113.725 268.82C113.538 269.1 113.212 269.4 112.745 269.72C112.278 270.04 111.718 270.2 111.065 270.2C110.438 270.2 110.005 270.073 109.765 269.82C109.525 269.567 109.405 269.227 109.405 268.8C109.405 268.533 109.445 268.147 109.525 267.64C109.605 267.12 109.692 266.6 109.785 266.08L109.865 265.62C110.025 264.713 110.138 264 110.205 263.48C110.285 262.96 110.325 262.453 110.325 261.96C110.325 261.347 110.252 260.927 110.105 260.7C109.972 260.473 109.732 260.36 109.385 260.36C108.958 260.36 108.492 260.567 107.985 260.98C107.492 261.393 107.065 261.92 106.705 262.56C106.652 263.347 106.565 264.18 106.445 265.06L105.825 270H103.125L103.705 265.64C103.945 263.987 104.065 262.733 104.065 261.88C104.052 261.267 103.965 260.86 103.805 260.66C103.658 260.46 103.392 260.36 103.005 260.36C102.578 260.36 102.092 260.593 101.545 261.06C101.012 261.527 100.565 262.087 100.205 262.74L99.205 270H96.605L97.885 260.48L96.865 259.94L97.025 259.12L100.145 258.64L100.605 258.86L100.405 261.08ZM118.571 268C118.557 268.067 118.551 268.147 118.551 268.24C118.551 268.56 118.664 268.72 118.891 268.72C119.011 268.72 119.144 268.68 119.291 268.6C119.437 268.52 119.624 268.387 119.851 268.2L120.111 268.82C119.884 269.127 119.544 269.433 119.091 269.74C118.651 270.047 118.111 270.2 117.471 270.2C116.951 270.2 116.544 270.1 116.251 269.9C115.957 269.687 115.811 269.4 115.811 269.04L115.831 268.84C115.911 268.147 116.184 266.133 116.651 262.8L116.971 260.48L115.791 259.92L115.931 259.14L119.371 258.66L119.851 258.88L118.571 268ZM118.791 256.74C118.431 256.74 118.117 256.607 117.851 256.34C117.597 256.06 117.471 255.74 117.471 255.38C117.471 254.887 117.631 254.473 117.951 254.14C118.284 253.807 118.704 253.64 119.211 253.64C119.624 253.64 119.951 253.773 120.191 254.04C120.431 254.293 120.551 254.6 120.551 254.96C120.551 255.467 120.397 255.893 120.091 256.24C119.784 256.573 119.351 256.74 118.791 256.74ZM124.756 268C124.743 268.053 124.736 268.127 124.736 268.22C124.736 268.553 124.856 268.72 125.096 268.72C125.216 268.72 125.343 268.687 125.476 268.62C125.623 268.553 125.816 268.413 126.056 268.2L126.316 268.82C126.103 269.127 125.789 269.433 125.376 269.74C124.963 270.047 124.429 270.2 123.776 270.2C123.269 270.2 122.856 270.1 122.536 269.9C122.216 269.687 122.049 269.36 122.036 268.92C122.036 268.867 122.063 268.627 122.116 268.2L123.856 255.42L122.596 255.02L122.776 254.28L126.176 253.88L126.636 254.14L124.756 268ZM131.11 268C131.097 268.067 131.09 268.147 131.09 268.24C131.09 268.56 131.203 268.72 131.43 268.72C131.55 268.72 131.683 268.68 131.83 268.6C131.977 268.52 132.163 268.387 132.39 268.2L132.65 268.82C132.423 269.127 132.083 269.433 131.63 269.74C131.19 270.047 130.65 270.2 130.01 270.2C129.49 270.2 129.083 270.1 128.79 269.9C128.497 269.687 128.35 269.4 128.35 269.04L128.37 268.84C128.45 268.147 128.723 266.133 129.19 262.8L129.51 260.48L128.33 259.92L128.47 259.14L131.91 258.66L132.39 258.88L131.11 268ZM131.33 256.74C130.97 256.74 130.657 256.607 130.39 256.34C130.137 256.06 130.01 255.74 130.01 255.38C130.01 254.887 130.17 254.473 130.49 254.14C130.823 253.807 131.243 253.64 131.75 253.64C132.163 253.64 132.49 253.773 132.73 254.04C132.97 254.293 133.09 254.6 133.09 254.96C133.09 255.467 132.937 255.893 132.63 256.24C132.323 256.573 131.89 256.74 131.33 256.74ZM142.775 268C142.428 268.547 141.862 269.06 141.075 269.54C140.302 270.02 139.402 270.26 138.375 270.26C137.415 270.26 136.622 270.053 135.995 269.64C135.382 269.227 134.935 268.687 134.655 268.02C134.375 267.353 134.235 266.627 134.235 265.84C134.235 264.507 134.502 263.293 135.035 262.2C135.582 261.093 136.322 260.22 137.255 259.58C138.188 258.94 139.228 258.62 140.375 258.62C141.402 258.62 142.162 258.86 142.655 259.34C143.162 259.807 143.415 260.42 143.415 261.18C143.415 262.14 143.068 262.94 142.375 263.58C141.682 264.22 140.848 264.7 139.875 265.02C138.902 265.327 137.982 265.493 137.115 265.52C137.088 266.48 137.242 267.253 137.575 267.84C137.922 268.427 138.442 268.72 139.135 268.72C140.282 268.72 141.322 268.187 142.255 267.12L142.775 268ZM139.775 259.86C138.988 259.86 138.368 260.333 137.915 261.28C137.462 262.227 137.195 263.28 137.115 264.44C137.635 264.413 138.182 264.273 138.755 264.02C139.342 263.767 139.828 263.413 140.215 262.96C140.615 262.493 140.815 261.96 140.815 261.36C140.815 260.88 140.722 260.513 140.535 260.26C140.362 259.993 140.108 259.86 139.775 259.86ZM148.764 261.06C149.258 260.327 149.844 259.74 150.524 259.3C151.204 258.86 151.918 258.64 152.664 258.64C154.318 258.64 155.144 259.62 155.144 261.58C155.144 262.1 154.978 263.26 154.644 265.06C154.591 265.407 154.544 265.673 154.504 265.86C154.318 266.913 154.218 267.673 154.204 268.14V268.22C154.204 268.553 154.311 268.72 154.524 268.72C154.644 268.72 154.771 268.687 154.904 268.62C155.038 268.553 155.211 268.433 155.424 268.26L155.704 268.88C155.504 269.16 155.178 269.453 154.724 269.76C154.271 270.053 153.718 270.2 153.064 270.2C152.438 270.2 152.004 270.067 151.764 269.8C151.524 269.52 151.404 269.153 151.404 268.7C151.418 268.3 151.544 267.507 151.784 266.32L151.904 265.64C151.931 265.52 151.984 265.2 152.064 264.68C152.158 264.16 152.231 263.667 152.284 263.2C152.338 262.72 152.364 262.307 152.364 261.96C152.364 261.347 152.291 260.927 152.144 260.7C152.011 260.473 151.764 260.36 151.404 260.36C150.964 260.36 150.471 260.607 149.924 261.1C149.391 261.593 148.931 262.187 148.544 262.88L147.584 270H144.964L146.244 260.48L145.224 259.94L145.384 259.12L148.504 258.64L148.964 258.86L148.764 261.06ZM160.342 268C160.329 268.053 160.322 268.127 160.322 268.22C160.322 268.553 160.442 268.72 160.682 268.72C160.802 268.72 160.929 268.687 161.062 268.62C161.209 268.553 161.402 268.413 161.642 268.2L161.902 268.82C161.689 269.127 161.375 269.433 160.962 269.74C160.549 270.047 160.015 270.2 159.362 270.2C158.855 270.2 158.442 270.1 158.122 269.9C157.802 269.687 157.635 269.36 157.622 268.92C157.622 268.867 157.649 268.627 157.702 268.2L159.442 255.42L158.182 255.02L158.362 254.28L161.762 253.88L162.222 254.14L160.342 268ZM171.916 268C171.569 268.547 171.002 269.06 170.216 269.54C169.442 270.02 168.542 270.26 167.516 270.26C166.556 270.26 165.762 270.053 165.136 269.64C164.522 269.227 164.076 268.687 163.796 268.02C163.516 267.353 163.376 266.627 163.376 265.84C163.376 264.507 163.642 263.293 164.176 262.2C164.722 261.093 165.462 260.22 166.396 259.58C167.329 258.94 168.369 258.62 169.516 258.62C170.542 258.62 171.302 258.86 171.796 259.34C172.302 259.807 172.556 260.42 172.556 261.18C172.556 262.14 172.209 262.94 171.516 263.58C170.822 264.22 169.989 264.7 169.016 265.02C168.042 265.327 167.122 265.493 166.256 265.52C166.229 266.48 166.382 267.253 166.716 267.84C167.062 268.427 167.582 268.72 168.276 268.72C169.422 268.72 170.462 268.187 171.396 267.12L171.916 268ZM168.916 259.86C168.129 259.86 167.509 260.333 167.056 261.28C166.602 262.227 166.336 263.28 166.256 264.44C166.776 264.413 167.322 264.273 167.896 264.02C168.482 263.767 168.969 263.413 169.356 262.96C169.756 262.493 169.956 261.96 169.956 261.36C169.956 260.88 169.862 260.513 169.676 260.26C169.502 259.993 169.249 259.86 168.916 259.86ZM177.805 259.94C178.165 259.567 178.592 259.26 179.085 259.02C179.592 258.767 180.138 258.64 180.725 258.64C181.832 258.64 182.665 259.013 183.225 259.76C183.785 260.493 184.065 261.533 184.065 262.88C184.065 264.147 183.798 265.34 183.265 266.46C182.745 267.58 181.992 268.487 181.005 269.18C180.018 269.86 178.872 270.2 177.565 270.2C177.192 270.2 176.785 270.153 176.345 270.06C175.918 269.967 175.532 269.86 175.185 269.74L173.965 270.14L175.865 255.4L174.865 255L175.045 254.24L178.085 253.88L178.565 254.14L177.805 259.94ZM176.645 268.74C176.912 268.887 177.298 268.96 177.805 268.96C178.592 268.96 179.245 268.667 179.765 268.08C180.298 267.493 180.692 266.74 180.945 265.82C181.198 264.887 181.325 263.92 181.325 262.92C181.325 262.107 181.185 261.447 180.905 260.94C180.625 260.42 180.225 260.16 179.705 260.16C179.292 260.16 178.905 260.287 178.545 260.54C178.185 260.78 177.872 261.073 177.605 261.42L176.645 268.74ZM194.025 268C193.678 268.547 193.112 269.06 192.325 269.54C191.552 270.02 190.652 270.26 189.625 270.26C188.665 270.26 187.872 270.053 187.245 269.64C186.632 269.227 186.185 268.687 185.905 268.02C185.625 267.353 185.485 266.627 185.485 265.84C185.485 264.507 185.752 263.293 186.285 262.2C186.832 261.093 187.572 260.22 188.505 259.58C189.438 258.94 190.478 258.62 191.625 258.62C192.652 258.62 193.412 258.86 193.905 259.34C194.412 259.807 194.665 260.42 194.665 261.18C194.665 262.14 194.318 262.94 193.625 263.58C192.932 264.22 192.098 264.7 191.125 265.02C190.152 265.327 189.232 265.493 188.365 265.52C188.338 266.48 188.492 267.253 188.825 267.84C189.172 268.427 189.692 268.72 190.385 268.72C191.532 268.72 192.572 268.187 193.505 267.12L194.025 268ZM191.025 259.86C190.238 259.86 189.618 260.333 189.165 261.28C188.712 262.227 188.445 263.28 188.365 264.44C188.885 264.413 189.432 264.273 190.005 264.02C190.592 263.767 191.078 263.413 191.465 262.96C191.865 262.493 192.065 261.96 192.065 261.36C192.065 260.88 191.972 260.513 191.785 260.26C191.612 259.993 191.358 259.86 191.025 259.86ZM200.014 261.06C200.508 260.327 201.094 259.74 201.774 259.3C202.454 258.86 203.168 258.64 203.914 258.64C205.568 258.64 206.394 259.62 206.394 261.58C206.394 262.1 206.228 263.26 205.894 265.06C205.841 265.407 205.794 265.673 205.754 265.86C205.568 266.913 205.468 267.673 205.454 268.14V268.22C205.454 268.553 205.561 268.72 205.774 268.72C205.894 268.72 206.021 268.687 206.154 268.62C206.288 268.553 206.461 268.433 206.674 268.26L206.954 268.88C206.754 269.16 206.428 269.453 205.974 269.76C205.521 270.053 204.968 270.2 204.314 270.2C203.688 270.2 203.254 270.067 203.014 269.8C202.774 269.52 202.654 269.153 202.654 268.7C202.668 268.3 202.794 267.507 203.034 266.32L203.154 265.64C203.181 265.52 203.234 265.2 203.314 264.68C203.408 264.16 203.481 263.667 203.534 263.2C203.588 262.72 203.614 262.307 203.614 261.96C203.614 261.347 203.541 260.927 203.394 260.7C203.261 260.473 203.014 260.36 202.654 260.36C202.214 260.36 201.721 260.607 201.174 261.1C200.641 261.593 200.181 262.187 199.794 262.88L198.834 270H196.214L197.494 260.48L196.474 259.94L196.634 259.12L199.754 258.64L200.214 258.86L200.014 261.06Z" fill="#394454"/>
<path d="M115.248 94L124.955 74.7784V74.6335H113.558V69.2727H131.91V74.6335L122.154 94H115.248ZM144.485 94.3381C142.489 94.3381 140.706 94.0282 139.136 93.4084C137.575 92.7886 136.343 91.9474 135.441 90.8849C134.548 89.8224 134.101 88.6231 134.101 87.2869C134.101 86.2647 134.355 85.331 134.862 84.4858C135.377 83.6406 136.069 82.9403 136.939 82.3849C137.808 81.8215 138.778 81.4593 139.848 81.2983V81.1051C138.44 80.8636 137.281 80.2398 136.371 79.2337C135.47 78.2195 135.019 77.0241 135.019 75.6477C135.019 74.3518 135.429 73.2008 136.25 72.1946C137.071 71.1804 138.194 70.3835 139.619 69.804C141.044 69.2244 142.666 68.9347 144.485 68.9347C146.304 68.9347 147.926 69.2285 149.351 69.8161C150.775 70.3956 151.898 71.1925 152.719 72.2067C153.54 73.2128 153.951 74.3598 153.951 75.6477C153.951 77.0322 153.492 78.2275 152.574 79.2337C151.657 80.2398 150.506 80.8636 149.121 81.1051V81.2983C150.184 81.4593 151.15 81.8215 152.019 82.3849C152.888 82.9403 153.58 83.6406 154.096 84.4858C154.611 85.331 154.868 86.2647 154.868 87.2869C154.868 88.6231 154.418 89.8224 153.516 90.8849C152.623 91.9474 151.391 92.7886 149.821 93.4084C148.26 94.0282 146.481 94.3381 144.485 94.3381ZM144.485 89.7017C145.121 89.7017 145.684 89.5729 146.175 89.3153C146.666 89.0578 147.053 88.7036 147.334 88.2528C147.624 87.794 147.769 87.2789 147.769 86.7074C147.769 86.1359 147.624 85.6288 147.334 85.1861C147.053 84.7434 146.666 84.3973 146.175 84.1477C145.684 83.8902 145.121 83.7614 144.485 83.7614C143.857 83.7614 143.294 83.8902 142.794 84.1477C142.303 84.3973 141.913 84.7434 141.623 85.1861C141.342 85.6288 141.201 86.1359 141.201 86.7074C141.201 87.2789 141.342 87.79 141.623 88.2408C141.913 88.6915 142.303 89.0497 142.794 89.3153C143.294 89.5729 143.857 89.7017 144.485 89.7017ZM144.485 79.125C145.048 79.125 145.547 79.0083 145.982 78.7749C146.417 78.5414 146.759 78.2195 147.008 77.8089C147.258 77.3984 147.383 76.9356 147.383 76.4205C147.383 75.9053 147.258 75.4505 147.008 75.0561C146.759 74.6536 146.417 74.3397 145.982 74.1143C145.547 73.8809 145.048 73.7642 144.485 73.7642C143.929 73.7642 143.43 73.8809 142.988 74.1143C142.553 74.3397 142.211 74.6536 141.961 75.0561C141.712 75.4505 141.587 75.9053 141.587 76.4205C141.587 76.9356 141.712 77.3984 141.961 77.8089C142.211 78.2114 142.553 78.5334 142.988 78.7749C143.43 79.0083 143.929 79.125 144.485 79.125ZM172.016 89.3636V88.0597C172.016 87.0133 172.242 86.0473 172.692 85.1619C173.151 84.2765 173.815 83.5642 174.685 83.0249C175.554 82.4856 176.612 82.2159 177.86 82.2159C179.14 82.2159 180.214 82.4815 181.084 83.0128C181.961 83.544 182.625 84.2524 183.076 85.1378C183.527 86.0232 183.752 86.9972 183.752 88.0597V89.3636C183.752 90.41 183.523 91.3759 183.064 92.2614C182.613 93.1468 181.949 93.8591 181.072 94.3984C180.194 94.9377 179.124 95.2074 177.86 95.2074C176.596 95.2074 175.53 94.9377 174.66 94.3984C173.791 93.8591 173.131 93.1468 172.68 92.2614C172.238 91.3759 172.016 90.41 172.016 89.3636ZM176.218 88.0597V89.3636C176.218 89.8224 176.331 90.2772 176.556 90.728C176.789 91.1707 177.224 91.392 177.86 91.392C178.528 91.392 178.967 91.1747 179.176 90.7401C179.393 90.3054 179.502 89.8466 179.502 89.3636V88.0597C179.502 87.5767 179.401 87.1098 179.2 86.6591C178.999 86.2083 178.552 85.983 177.86 85.983C177.224 85.983 176.789 86.2083 176.556 86.6591C176.331 87.1098 176.218 87.5767 176.218 88.0597ZM159.073 75.2131V73.9091C159.073 72.8466 159.302 71.8726 159.761 70.9872C160.228 70.1018 160.896 69.3935 161.766 68.8622C162.635 68.331 163.685 68.0653 164.917 68.0653C166.197 68.0653 167.271 68.331 168.141 68.8622C169.018 69.3935 169.682 70.1018 170.133 70.9872C170.583 71.8726 170.809 72.8466 170.809 73.9091V75.2131C170.809 76.2756 170.579 77.2455 170.121 78.1229C169.67 79.0002 169.006 79.7005 168.128 80.2237C167.251 80.7469 166.181 81.0085 164.917 81.0085C163.653 81.0085 162.587 80.7429 161.717 80.2116C160.848 79.6804 160.188 78.9761 159.737 78.0987C159.294 77.2214 159.073 76.2595 159.073 75.2131ZM163.323 73.9091V75.2131C163.323 75.696 163.436 76.1548 163.661 76.5895C163.887 77.0241 164.305 77.2415 164.917 77.2415C165.585 77.2415 166.024 77.0241 166.233 76.5895C166.45 76.1548 166.559 75.696 166.559 75.2131V73.9091C166.559 73.4261 166.458 72.9593 166.257 72.5085C166.056 72.0578 165.609 71.8324 164.917 71.8324C164.281 71.8324 163.854 72.0658 163.637 72.5327C163.428 72.9915 163.323 73.4503 163.323 73.9091ZM161.126 94L178.126 69.2727H181.555L164.555 94H161.126Z" fill="#F04E5A"/>
<path d="M141 7C156.436 7 171.496 11.7629 184.125 20.6388C196.754 29.5146 206.337 42.0711 211.566 56.5947C216.795 71.1182 217.415 86.9014 213.342 101.79C209.269 116.68 200.701 129.949 188.807 139.788C176.913 149.628 162.273 155.558 146.884 156.769C131.496 157.98 116.108 154.413 102.822 146.556C89.5354 138.698 78.9969 126.932 72.6448 112.864C66.2926 98.795 64.436 83.1091 67.3285 67.9464L78.556 70.0882C76.1044 82.9401 77.678 96.2355 83.0621 108.16C88.4462 120.084 97.3786 130.057 108.64 136.717C119.902 143.378 132.944 146.401 145.988 145.374C159.031 144.348 171.44 139.321 181.521 130.982C191.602 122.642 198.864 111.394 202.317 98.7744C205.769 86.1545 205.244 72.7766 200.812 60.4664C196.38 48.1563 188.257 37.5134 177.553 29.9902C166.849 22.467 154.084 18.43 141 18.43L141 7Z" fill="#F04E5A"/>
</svg>
