<svg width="323" height="276" viewBox="0 0 323 276" fill="none" xmlns="http://www.w3.org/2000/svg">
<circle cx="162" cy="82" r="82" fill="#E9E9E9"/>
<path d="M29.1102 217.98C29.0968 218.033 29.0902 218.113 29.0902 218.22C29.0902 218.553 29.2035 218.72 29.4302 218.72C29.6568 218.72 29.9568 218.567 30.3302 218.26L30.6102 218.88C29.8635 219.76 29.0368 220.2 28.1302 220.2C27.6635 220.2 27.3102 220.087 27.0702 219.86C26.8302 219.633 26.6902 219.287 26.6502 218.82V218.52C26.3168 218.987 25.8702 219.387 25.3102 219.72C24.7502 220.04 24.1102 220.2 23.3902 220.2C22.2702 220.2 21.4368 219.82 20.8902 219.06C20.3435 218.287 20.0702 217.28 20.0702 216.04C20.0702 214.8 20.3168 213.613 20.8102 212.48C21.3035 211.347 22.0368 210.427 23.0102 209.72C23.9968 209 25.1835 208.64 26.5702 208.64C26.9568 208.64 27.3635 208.693 27.7902 208.8L28.2902 205.42L26.8502 205.02L27.0302 204.28L30.6302 203.88L31.1302 204.14L29.1102 217.98ZM27.5902 210.16C27.2568 209.973 26.8368 209.88 26.3302 209.88C25.5168 209.88 24.8502 210.193 24.3302 210.82C23.8102 211.433 23.4302 212.2 23.1902 213.12C22.9502 214.04 22.8302 214.973 22.8302 215.92C22.8302 216.8 22.9635 217.48 23.2302 217.96C23.5102 218.44 23.9035 218.68 24.4102 218.68C24.8235 218.68 25.2168 218.553 25.5902 218.3C25.9635 218.033 26.2702 217.72 26.5102 217.36L27.5902 210.16ZM40.6423 218C40.2957 218.547 39.729 219.06 38.9423 219.54C38.169 220.02 37.269 220.26 36.2423 220.26C35.2823 220.26 34.489 220.053 33.8623 219.64C33.249 219.227 32.8023 218.687 32.5223 218.02C32.2423 217.353 32.1023 216.627 32.1023 215.84C32.1023 214.507 32.369 213.293 32.9023 212.2C33.449 211.093 34.189 210.22 35.1223 209.58C36.0557 208.94 37.0957 208.62 38.2423 208.62C39.269 208.62 40.029 208.86 40.5223 209.34C41.029 209.807 41.2823 210.42 41.2823 211.18C41.2823 212.14 40.9357 212.94 40.2423 213.58C39.549 214.22 38.7157 214.7 37.7423 215.02C36.769 215.327 35.849 215.493 34.9823 215.52C34.9557 216.48 35.109 217.253 35.4423 217.84C35.789 218.427 36.309 218.72 37.0023 218.72C38.149 218.72 39.189 218.187 40.1223 217.12L40.6423 218ZM37.6423 209.86C36.8557 209.86 36.2357 210.333 35.7823 211.28C35.329 212.227 35.0623 213.28 34.9823 214.44C35.5023 214.413 36.049 214.273 36.6223 214.02C37.209 213.767 37.6957 213.413 38.0823 212.96C38.4823 212.493 38.6823 211.96 38.6823 211.36C38.6823 210.88 38.589 210.513 38.4023 210.26C38.229 209.993 37.9757 209.86 37.6423 209.86ZM45.6116 218C45.5982 218.053 45.5916 218.127 45.5916 218.22C45.5916 218.553 45.7116 218.72 45.9516 218.72C46.0716 218.72 46.1982 218.687 46.3316 218.62C46.4782 218.553 46.6716 218.413 46.9116 218.2L47.1716 218.82C46.9582 219.127 46.6449 219.433 46.2316 219.74C45.8182 220.047 45.2849 220.2 44.6316 220.2C44.1249 220.2 43.7116 220.1 43.3916 219.9C43.0716 219.687 42.9049 219.36 42.8916 218.92C42.8916 218.867 42.9182 218.627 42.9716 218.2L44.7116 205.42L43.4516 205.02L43.6316 204.28L47.0316 203.88L47.4916 204.14L45.6116 218ZM51.7053 218C51.692 218.053 51.6853 218.127 51.6853 218.22C51.6853 218.553 51.8053 218.72 52.0453 218.72C52.1653 218.72 52.292 218.687 52.4253 218.62C52.572 218.553 52.7653 218.413 53.0053 218.2L53.2653 218.82C53.052 219.127 52.7386 219.433 52.3253 219.74C51.912 220.047 51.3786 220.2 50.7253 220.2C50.2186 220.2 49.8053 220.1 49.4853 219.9C49.1653 219.687 48.9986 219.36 48.9853 218.92C48.9853 218.867 49.012 218.627 49.0653 218.2L50.8053 205.42L49.5453 205.02L49.7253 204.28L53.1253 203.88L53.5853 204.14L51.7053 218ZM63.2791 218C62.9324 218.547 62.3657 219.06 61.5791 219.54C60.8057 220.02 59.9057 220.26 58.8791 220.26C57.9191 220.26 57.1257 220.053 56.4991 219.64C55.8857 219.227 55.4391 218.687 55.1591 218.02C54.8791 217.353 54.7391 216.627 54.7391 215.84C54.7391 214.507 55.0057 213.293 55.5391 212.2C56.0857 211.093 56.8257 210.22 57.7591 209.58C58.6924 208.94 59.7324 208.62 60.8791 208.62C61.9057 208.62 62.6657 208.86 63.1591 209.34C63.6657 209.807 63.9191 210.42 63.9191 211.18C63.9191 212.14 63.5724 212.94 62.8791 213.58C62.1857 214.22 61.3524 214.7 60.3791 215.02C59.4057 215.327 58.4857 215.493 57.6191 215.52C57.5924 216.48 57.7457 217.253 58.0791 217.84C58.4257 218.427 58.9457 218.72 59.6391 218.72C60.7857 218.72 61.8257 218.187 62.7591 217.12L63.2791 218ZM60.2791 209.86C59.4924 209.86 58.8724 210.333 58.4191 211.28C57.9657 212.227 57.6991 213.28 57.6191 214.44C58.1391 214.413 58.6857 214.273 59.2591 214.02C59.8457 213.767 60.3324 213.413 60.7191 212.96C61.1191 212.493 61.3191 211.96 61.3191 211.36C61.3191 210.88 61.2257 210.513 61.0391 210.26C60.8657 209.993 60.6124 209.86 60.2791 209.86ZM72.0544 207.94C72.1877 207.14 72.4477 206.42 72.8344 205.78C73.2344 205.14 73.741 204.633 74.3544 204.26C74.9677 203.887 75.6544 203.7 76.4144 203.7C77.121 203.7 77.681 203.78 78.0944 203.94L77.5344 205.54C77.1477 205.247 76.701 205.1 76.1944 205.1C75.701 205.1 75.341 205.287 75.1144 205.66C74.901 206.033 74.741 206.607 74.6344 207.38L74.4344 208.84H76.6344L76.3744 210.34H74.2344L73.1344 219.22C72.921 220.86 72.4344 222.233 71.6744 223.34C70.9277 224.447 69.9277 225.007 68.6744 225.02C68.3677 225.033 68.0477 225.02 67.7144 224.98C67.3677 224.94 67.0944 224.893 66.8944 224.84L67.4144 223.16C67.5877 223.24 67.841 223.327 68.1744 223.42C68.4944 223.527 68.7544 223.58 68.9544 223.58C69.3144 223.58 69.5944 223.4 69.7944 223.04C70.0077 222.693 70.161 222.167 70.2544 221.46L71.6344 210.34H70.3544L70.5344 209.46L71.8944 208.88L72.0544 207.94ZM85.5122 217.96C85.4989 218.013 85.4922 218.093 85.4922 218.2C85.4922 218.547 85.6255 218.72 85.8922 218.72C86.1055 218.72 86.4055 218.56 86.7922 218.24L87.0722 218.86C86.8989 219.127 86.5855 219.42 86.1322 219.74C85.6922 220.047 85.1789 220.2 84.5922 220.2C84.1389 220.2 83.7789 220.1 83.5122 219.9C83.2455 219.7 83.1055 219.393 83.0922 218.98L83.1322 218.64C82.7589 219.08 82.3055 219.453 81.7722 219.76C81.2389 220.053 80.6522 220.2 80.0122 220.2C78.8922 220.2 78.0522 219.82 77.4922 219.06C76.9455 218.287 76.6722 217.28 76.6722 216.04C76.6722 214.813 76.9255 213.633 77.4322 212.5C77.9522 211.367 78.7055 210.44 79.6922 209.72C80.6789 209 81.8522 208.64 83.2122 208.64C83.5589 208.64 83.9322 208.68 84.3322 208.76C84.7455 208.84 85.1055 208.933 85.4122 209.04L86.7922 208.64L85.5122 217.96ZM83.9722 210.06C83.7189 209.94 83.3922 209.88 82.9922 209.88C82.1922 209.88 81.5255 210.187 80.9922 210.8C80.4589 211.4 80.0655 212.167 79.8122 213.1C79.5722 214.02 79.4522 214.953 79.4522 215.9C79.4522 216.78 79.5855 217.467 79.8522 217.96C80.1189 218.44 80.5122 218.68 81.0322 218.68C81.3655 218.68 81.6989 218.567 82.0322 218.34C82.3789 218.113 82.6855 217.847 82.9522 217.54L83.9722 210.06ZM92.5105 211.08C92.9905 210.36 93.5638 209.773 94.2305 209.32C94.8971 208.867 95.5971 208.64 96.3305 208.64C97.0771 208.64 97.6571 208.84 98.0705 209.24C98.4971 209.627 98.7438 210.253 98.8105 211.12C99.2771 210.347 99.8438 209.74 100.51 209.3C101.19 208.86 101.924 208.64 102.71 208.64C104.377 208.64 105.21 209.62 105.21 211.58C105.21 212.007 105.077 212.993 104.81 214.54L104.73 215.06L104.63 215.58C104.404 216.82 104.284 217.673 104.27 218.14C104.27 218.527 104.384 218.72 104.61 218.72C104.73 218.72 104.857 218.687 104.99 218.62C105.137 218.54 105.33 218.4 105.57 218.2L105.83 218.82C105.644 219.1 105.317 219.4 104.85 219.72C104.384 220.04 103.824 220.2 103.17 220.2C102.544 220.2 102.11 220.073 101.87 219.82C101.63 219.567 101.51 219.227 101.51 218.8C101.51 218.533 101.55 218.147 101.63 217.64C101.71 217.12 101.797 216.6 101.89 216.08L101.97 215.62C102.13 214.713 102.244 214 102.31 213.48C102.39 212.96 102.43 212.453 102.43 211.96C102.43 211.347 102.357 210.927 102.21 210.7C102.077 210.473 101.837 210.36 101.49 210.36C101.064 210.36 100.597 210.567 100.09 210.98C99.5971 211.393 99.1705 211.92 98.8105 212.56C98.7571 213.347 98.6705 214.18 98.5505 215.06L97.9305 220H95.2305L95.8105 215.64C96.0505 213.987 96.1705 212.733 96.1705 211.88C96.1571 211.267 96.0705 210.86 95.9105 210.66C95.7638 210.46 95.4971 210.36 95.1105 210.36C94.6838 210.36 94.1971 210.593 93.6505 211.06C93.1171 211.527 92.6705 212.087 92.3105 212.74L91.3105 220H88.7105L89.9905 210.48L88.9705 209.94L89.1305 209.12L92.2505 208.64L92.7105 208.86L92.5105 211.08ZM110.676 218C110.663 218.067 110.656 218.147 110.656 218.24C110.656 218.56 110.77 218.72 110.996 218.72C111.116 218.72 111.25 218.68 111.396 218.6C111.543 218.52 111.73 218.387 111.956 218.2L112.216 218.82C111.99 219.127 111.65 219.433 111.196 219.74C110.756 220.047 110.216 220.2 109.576 220.2C109.056 220.2 108.65 220.1 108.356 219.9C108.063 219.687 107.916 219.4 107.916 219.04L107.936 218.84C108.016 218.147 108.29 216.133 108.756 212.8L109.076 210.48L107.896 209.92L108.036 209.14L111.476 208.66L111.956 208.88L110.676 218ZM110.896 206.74C110.536 206.74 110.223 206.607 109.956 206.34C109.703 206.06 109.576 205.74 109.576 205.38C109.576 204.887 109.736 204.473 110.056 204.14C110.39 203.807 110.81 203.64 111.316 203.64C111.73 203.64 112.056 203.773 112.296 204.04C112.536 204.293 112.656 204.6 112.656 204.96C112.656 205.467 112.503 205.893 112.196 206.24C111.89 206.573 111.456 206.74 110.896 206.74ZM122.362 220.76C122.162 222.28 121.508 223.367 120.402 224.02C119.295 224.687 118.028 225.02 116.602 225.02C116.162 225.02 115.688 224.973 115.182 224.88C114.688 224.8 114.342 224.713 114.142 224.62L114.602 222.74C114.855 222.9 115.242 223.08 115.762 223.28C116.282 223.48 116.782 223.58 117.262 223.58C118.035 223.58 118.602 223.427 118.962 223.12C119.322 222.813 119.555 222.233 119.662 221.38L119.962 219C119.602 219.347 119.182 219.633 118.702 219.86C118.222 220.087 117.702 220.2 117.142 220.2C116.022 220.2 115.175 219.82 114.602 219.06C114.042 218.287 113.762 217.28 113.762 216.04C113.762 214.813 114.015 213.633 114.522 212.5C115.042 211.367 115.795 210.44 116.782 209.72C117.782 209 118.962 208.64 120.322 208.64C120.695 208.64 121.095 208.687 121.522 208.78C121.948 208.86 122.322 208.96 122.642 209.08L124.062 208.64L122.362 220.76ZM121.242 210.12C120.962 209.96 120.575 209.88 120.082 209.88C119.282 209.88 118.615 210.193 118.082 210.82C117.548 211.433 117.155 212.207 116.902 213.14C116.662 214.06 116.542 214.987 116.542 215.92C116.542 216.787 116.682 217.467 116.962 217.96C117.255 218.44 117.655 218.68 118.162 218.68C118.535 218.68 118.895 218.573 119.242 218.36C119.602 218.133 119.908 217.867 120.162 217.56L121.242 210.12ZM128.541 218C128.528 218.053 128.521 218.127 128.521 218.22C128.521 218.553 128.641 218.72 128.881 218.72C129.001 218.72 129.128 218.687 129.261 218.62C129.408 218.553 129.601 218.413 129.841 218.2L130.101 218.82C129.888 219.127 129.575 219.433 129.161 219.74C128.748 220.047 128.215 220.2 127.561 220.2C127.055 220.2 126.641 220.1 126.321 219.9C126.001 219.687 125.835 219.36 125.821 218.92C125.821 218.867 125.848 218.627 125.901 218.2L127.641 205.42L126.381 205.02L126.561 204.28L129.961 203.88L130.421 204.14L128.541 218ZM134.895 218C134.882 218.067 134.875 218.147 134.875 218.24C134.875 218.56 134.988 218.72 135.215 218.72C135.335 218.72 135.468 218.68 135.615 218.6C135.762 218.52 135.948 218.387 136.175 218.2L136.435 218.82C136.208 219.127 135.868 219.433 135.415 219.74C134.975 220.047 134.435 220.2 133.795 220.2C133.275 220.2 132.868 220.1 132.575 219.9C132.282 219.687 132.135 219.4 132.135 219.04L132.155 218.84C132.235 218.147 132.508 216.133 132.975 212.8L133.295 210.48L132.115 209.92L132.255 209.14L135.695 208.66L136.175 208.88L134.895 218ZM135.115 206.74C134.755 206.74 134.442 206.607 134.175 206.34C133.922 206.06 133.795 205.74 133.795 205.38C133.795 204.887 133.955 204.473 134.275 204.14C134.608 203.807 135.028 203.64 135.535 203.64C135.948 203.64 136.275 203.773 136.515 204.04C136.755 204.293 136.875 204.6 136.875 204.96C136.875 205.467 136.722 205.893 136.415 206.24C136.108 206.573 135.675 206.74 135.115 206.74ZM146.56 218C146.214 218.547 145.647 219.06 144.86 219.54C144.087 220.02 143.187 220.26 142.16 220.26C141.2 220.26 140.407 220.053 139.78 219.64C139.167 219.227 138.72 218.687 138.44 218.02C138.16 217.353 138.02 216.627 138.02 215.84C138.02 214.507 138.287 213.293 138.82 212.2C139.367 211.093 140.107 210.22 141.04 209.58C141.974 208.94 143.014 208.62 144.16 208.62C145.187 208.62 145.947 208.86 146.44 209.34C146.947 209.807 147.2 210.42 147.2 211.18C147.2 212.14 146.854 212.94 146.16 213.58C145.467 214.22 144.634 214.7 143.66 215.02C142.687 215.327 141.767 215.493 140.9 215.52C140.874 216.48 141.027 217.253 141.36 217.84C141.707 218.427 142.227 218.72 142.92 218.72C144.067 218.72 145.107 218.187 146.04 217.12L146.56 218ZM143.56 209.86C142.774 209.86 142.154 210.333 141.7 211.28C141.247 212.227 140.98 213.28 140.9 214.44C141.42 214.413 141.967 214.273 142.54 214.02C143.127 213.767 143.614 213.413 144 212.96C144.4 212.493 144.6 211.96 144.6 211.36C144.6 210.88 144.507 210.513 144.32 210.26C144.147 209.993 143.894 209.86 143.56 209.86ZM157.296 209.96C157.642 209.573 158.062 209.26 158.556 209.02C159.049 208.767 159.589 208.64 160.176 208.64C161.282 208.64 162.122 209.013 162.696 209.76C163.269 210.507 163.556 211.547 163.556 212.88C163.556 214.147 163.289 215.34 162.756 216.46C162.222 217.58 161.462 218.487 160.476 219.18C159.502 219.86 158.376 220.2 157.096 220.2C156.749 220.2 156.356 220.153 155.916 220.06L155.216 225.08H152.656L154.636 210.42L153.576 209.92L153.736 209.12L156.976 208.64L157.436 208.86L157.296 209.96ZM156.096 218.72C156.402 218.88 156.822 218.96 157.356 218.96C158.116 218.96 158.749 218.667 159.256 218.08C159.776 217.493 160.156 216.74 160.396 215.82C160.649 214.9 160.776 213.933 160.776 212.92C160.776 212.093 160.636 211.427 160.356 210.92C160.089 210.413 159.696 210.16 159.176 210.16C158.762 210.16 158.382 210.287 158.036 210.54C157.689 210.78 157.382 211.08 157.116 211.44L156.096 218.72ZM168.754 211.52C169.008 210.76 169.441 210.093 170.054 209.52C170.681 208.933 171.381 208.64 172.154 208.64C172.421 208.64 172.648 208.7 172.834 208.82L172.254 211.7C172.174 211.633 172.041 211.573 171.854 211.52C171.681 211.453 171.468 211.42 171.214 211.42C170.734 211.42 170.274 211.527 169.834 211.74C169.394 211.94 169.054 212.233 168.814 212.62L167.834 220H165.234L166.494 210.5L165.474 209.94L165.614 209.14L168.474 208.66L168.934 208.94L168.834 210.76L168.754 211.52ZM181.736 218C181.389 218.547 180.823 219.06 180.036 219.54C179.263 220.02 178.363 220.26 177.336 220.26C176.376 220.26 175.583 220.053 174.956 219.64C174.343 219.227 173.896 218.687 173.616 218.02C173.336 217.353 173.196 216.627 173.196 215.84C173.196 214.507 173.463 213.293 173.996 212.2C174.543 211.093 175.283 210.22 176.216 209.58C177.149 208.94 178.189 208.62 179.336 208.62C180.363 208.62 181.123 208.86 181.616 209.34C182.123 209.807 182.376 210.42 182.376 211.18C182.376 212.14 182.029 212.94 181.336 213.58C180.643 214.22 179.809 214.7 178.836 215.02C177.863 215.327 176.943 215.493 176.076 215.52C176.049 216.48 176.203 217.253 176.536 217.84C176.883 218.427 177.403 218.72 178.096 218.72C179.243 218.72 180.283 218.187 181.216 217.12L181.736 218ZM178.736 209.86C177.949 209.86 177.329 210.333 176.876 211.28C176.423 212.227 176.156 213.28 176.076 214.44C176.596 214.413 177.143 214.273 177.716 214.02C178.303 213.767 178.789 213.413 179.176 212.96C179.576 212.493 179.776 211.96 179.776 211.36C179.776 210.88 179.683 210.513 179.496 210.26C179.323 209.993 179.069 209.86 178.736 209.86ZM184.325 210.78C184.259 210.42 184.112 210.227 183.885 210.2C183.739 210.2 183.612 210.233 183.505 210.3C183.399 210.367 183.339 210.407 183.325 210.42L183.045 209.74C183.205 209.54 183.499 209.307 183.925 209.04C184.352 208.773 184.825 208.64 185.345 208.64C185.865 208.64 186.252 208.753 186.505 208.98C186.759 209.207 186.919 209.54 186.985 209.98L187.845 215.88L188.125 218L188.945 216.86C189.545 215.953 189.992 215.107 190.285 214.32C190.592 213.52 190.772 212.673 190.825 211.78C190.839 211.527 190.792 211.187 190.685 210.76C190.592 210.413 190.545 210.12 190.545 209.88C190.545 209.52 190.659 209.227 190.885 209C191.112 208.76 191.419 208.64 191.805 208.64C192.325 208.64 192.705 208.84 192.945 209.24C193.199 209.627 193.325 210.12 193.325 210.72C193.325 212.373 192.032 214.84 189.445 218.12L187.925 220.06L186.165 220.2L185.445 216.54L184.325 210.78ZM202.693 218C202.346 218.547 201.78 219.06 200.993 219.54C200.22 220.02 199.32 220.26 198.293 220.26C197.333 220.26 196.54 220.053 195.913 219.64C195.3 219.227 194.853 218.687 194.573 218.02C194.293 217.353 194.153 216.627 194.153 215.84C194.153 214.507 194.42 213.293 194.953 212.2C195.5 211.093 196.24 210.22 197.173 209.58C198.106 208.94 199.146 208.62 200.293 208.62C201.32 208.62 202.08 208.86 202.573 209.34C203.08 209.807 203.333 210.42 203.333 211.18C203.333 212.14 202.986 212.94 202.293 213.58C201.6 214.22 200.766 214.7 199.793 215.02C198.82 215.327 197.9 215.493 197.033 215.52C197.006 216.48 197.16 217.253 197.493 217.84C197.84 218.427 198.36 218.72 199.053 218.72C200.2 218.72 201.24 218.187 202.173 217.12L202.693 218ZM199.693 209.86C198.906 209.86 198.286 210.333 197.833 211.28C197.38 212.227 197.113 213.28 197.033 214.44C197.553 214.413 198.1 214.273 198.673 214.02C199.26 213.767 199.746 213.413 200.133 212.96C200.533 212.493 200.733 211.96 200.733 211.36C200.733 210.88 200.64 210.513 200.453 210.26C200.28 209.993 200.026 209.86 199.693 209.86ZM213.602 217.98C213.589 218.033 213.582 218.113 213.582 218.22C213.582 218.553 213.696 218.72 213.922 218.72C214.149 218.72 214.449 218.567 214.822 218.26L215.102 218.88C214.356 219.76 213.529 220.2 212.622 220.2C212.156 220.2 211.802 220.087 211.562 219.86C211.322 219.633 211.182 219.287 211.142 218.82V218.52C210.809 218.987 210.362 219.387 209.802 219.72C209.242 220.04 208.602 220.2 207.882 220.2C206.762 220.2 205.929 219.82 205.382 219.06C204.836 218.287 204.562 217.28 204.562 216.04C204.562 214.8 204.809 213.613 205.302 212.48C205.796 211.347 206.529 210.427 207.502 209.72C208.489 209 209.676 208.64 211.062 208.64C211.449 208.64 211.856 208.693 212.282 208.8L212.782 205.42L211.342 205.02L211.522 204.28L215.122 203.88L215.622 204.14L213.602 217.98ZM212.082 210.16C211.749 209.973 211.329 209.88 210.822 209.88C210.009 209.88 209.342 210.193 208.822 210.82C208.302 211.433 207.922 212.2 207.682 213.12C207.442 214.04 207.322 214.973 207.322 215.92C207.322 216.8 207.456 217.48 207.722 217.96C208.002 218.44 208.396 218.68 208.902 218.68C209.316 218.68 209.709 218.553 210.082 218.3C210.456 218.033 210.762 217.72 211.002 217.36L212.082 210.16ZM225.135 218C224.788 218.547 224.221 219.06 223.435 219.54C222.661 220.02 221.761 220.26 220.735 220.26C219.775 220.26 218.981 220.053 218.355 219.64C217.741 219.227 217.295 218.687 217.015 218.02C216.735 217.353 216.595 216.627 216.595 215.84C216.595 214.507 216.861 213.293 217.395 212.2C217.941 211.093 218.681 210.22 219.615 209.58C220.548 208.94 221.588 208.62 222.735 208.62C223.761 208.62 224.521 208.86 225.015 209.34C225.521 209.807 225.775 210.42 225.775 211.18C225.775 212.14 225.428 212.94 224.735 213.58C224.041 214.22 223.208 214.7 222.235 215.02C221.261 215.327 220.341 215.493 219.475 215.52C219.448 216.48 219.601 217.253 219.935 217.84C220.281 218.427 220.801 218.72 221.495 218.72C222.641 218.72 223.681 218.187 224.615 217.12L225.135 218ZM222.135 209.86C221.348 209.86 220.728 210.333 220.275 211.28C219.821 212.227 219.555 213.28 219.475 214.44C219.995 214.413 220.541 214.273 221.115 214.02C221.701 213.767 222.188 213.413 222.575 212.96C222.975 212.493 223.175 211.96 223.175 211.36C223.175 210.88 223.081 210.513 222.895 210.26C222.721 209.993 222.468 209.86 222.135 209.86ZM240.79 217.98C240.777 218.033 240.77 218.113 240.77 218.22C240.77 218.553 240.883 218.72 241.11 218.72C241.337 218.72 241.637 218.567 242.01 218.26L242.29 218.88C241.543 219.76 240.717 220.2 239.81 220.2C239.343 220.2 238.99 220.087 238.75 219.86C238.51 219.633 238.37 219.287 238.33 218.82V218.52C237.997 218.987 237.55 219.387 236.99 219.72C236.43 220.04 235.79 220.2 235.07 220.2C233.95 220.2 233.117 219.82 232.57 219.06C232.023 218.287 231.75 217.28 231.75 216.04C231.75 214.8 231.997 213.613 232.49 212.48C232.983 211.347 233.717 210.427 234.69 209.72C235.677 209 236.863 208.64 238.25 208.64C238.637 208.64 239.043 208.693 239.47 208.8L239.97 205.42L238.53 205.02L238.71 204.28L242.31 203.88L242.81 204.14L240.79 217.98ZM239.27 210.16C238.937 209.973 238.517 209.88 238.01 209.88C237.197 209.88 236.53 210.193 236.01 210.82C235.49 211.433 235.11 212.2 234.87 213.12C234.63 214.04 234.51 214.973 234.51 215.92C234.51 216.8 234.643 217.48 234.91 217.96C235.19 218.44 235.583 218.68 236.09 218.68C236.503 218.68 236.897 218.553 237.27 218.3C237.643 218.033 237.95 217.72 238.19 217.36L239.27 210.16ZM247.102 218C247.089 218.067 247.082 218.147 247.082 218.24C247.082 218.56 247.195 218.72 247.422 218.72C247.542 218.72 247.675 218.68 247.822 218.6C247.969 218.52 248.155 218.387 248.382 218.2L248.642 218.82C248.415 219.127 248.075 219.433 247.622 219.74C247.182 220.047 246.642 220.2 246.002 220.2C245.482 220.2 245.075 220.1 244.782 219.9C244.489 219.687 244.342 219.4 244.342 219.04L244.362 218.84C244.442 218.147 244.715 216.133 245.182 212.8L245.502 210.48L244.322 209.92L244.462 209.14L247.902 208.66L248.382 208.88L247.102 218ZM247.322 206.74C246.962 206.74 246.649 206.607 246.382 206.34C246.129 206.06 246.002 205.74 246.002 205.38C246.002 204.887 246.162 204.473 246.482 204.14C246.815 203.807 247.235 203.64 247.742 203.64C248.155 203.64 248.482 203.773 248.722 204.04C248.962 204.293 249.082 204.6 249.082 204.96C249.082 205.467 248.929 205.893 248.622 206.24C248.315 206.573 247.882 206.74 247.322 206.74ZM259.053 209.96C259.4 209.573 259.82 209.26 260.313 209.02C260.807 208.767 261.347 208.64 261.933 208.64C263.04 208.64 263.88 209.013 264.453 209.76C265.027 210.507 265.313 211.547 265.313 212.88C265.313 214.147 265.047 215.34 264.513 216.46C263.98 217.58 263.22 218.487 262.233 219.18C261.26 219.86 260.133 220.2 258.853 220.2C258.507 220.2 258.113 220.153 257.673 220.06L256.973 225.08H254.413L256.393 210.42L255.333 209.92L255.493 209.12L258.733 208.64L259.193 208.86L259.053 209.96ZM257.853 218.72C258.16 218.88 258.58 218.96 259.113 218.96C259.873 218.96 260.507 218.667 261.013 218.08C261.533 217.493 261.913 216.74 262.153 215.82C262.407 214.9 262.533 213.933 262.533 212.92C262.533 212.093 262.393 211.427 262.113 210.92C261.847 210.413 261.453 210.16 260.933 210.16C260.52 210.16 260.14 210.287 259.793 210.54C259.447 210.78 259.14 211.08 258.873 211.44L257.853 218.72ZM272.772 208.62C274.159 208.62 275.219 209.027 275.952 209.84C276.686 210.64 277.052 211.793 277.052 213.3C277.052 214.54 276.799 215.693 276.292 216.76C275.786 217.827 275.072 218.68 274.152 219.32C273.232 219.947 272.179 220.26 270.992 220.26C269.606 220.26 268.546 219.853 267.812 219.04C267.092 218.213 266.732 217.04 266.732 215.52C266.732 214.267 266.979 213.113 267.472 212.06C267.979 211.007 268.692 210.173 269.612 209.56C270.532 208.933 271.586 208.62 272.772 208.62ZM272.432 209.88C271.819 209.88 271.299 210.16 270.872 210.72C270.446 211.267 270.126 211.967 269.912 212.82C269.712 213.673 269.612 214.547 269.612 215.44C269.612 216.707 269.752 217.633 270.032 218.22C270.326 218.807 270.779 219.1 271.392 219.1C271.992 219.1 272.499 218.82 272.912 218.26C273.326 217.7 273.632 216.987 273.832 216.12C274.032 215.253 274.132 214.367 274.132 213.46C274.132 212.193 273.992 211.28 273.712 210.72C273.446 210.16 273.019 209.88 272.432 209.88ZM281.79 216.34C281.696 217.113 281.65 217.58 281.65 217.74C281.65 218.047 281.71 218.267 281.83 218.4C281.95 218.52 282.156 218.58 282.45 218.58C282.716 218.58 283.016 218.52 283.35 218.4C283.696 218.267 283.983 218.107 284.21 217.92L284.43 218.66C284.083 219.047 283.59 219.4 282.95 219.72C282.31 220.04 281.59 220.2 280.79 220.2C280.23 220.2 279.783 220.06 279.45 219.78C279.13 219.487 278.97 219.027 278.97 218.4C278.97 218.133 279.036 217.507 279.17 216.52L280.01 210.32H278.81L279.03 209.36L280.23 208.94C280.63 208.567 281.103 207.647 281.65 206.18H283.15L282.81 208.9H285.21L285.01 210.32H282.61L281.79 216.34ZM294.119 218C293.772 218.547 293.206 219.06 292.419 219.54C291.646 220.02 290.746 220.26 289.719 220.26C288.759 220.26 287.966 220.053 287.339 219.64C286.726 219.227 286.279 218.687 285.999 218.02C285.719 217.353 285.579 216.627 285.579 215.84C285.579 214.507 285.846 213.293 286.379 212.2C286.926 211.093 287.666 210.22 288.599 209.58C289.532 208.94 290.572 208.62 291.719 208.62C292.746 208.62 293.506 208.86 293.999 209.34C294.506 209.807 294.759 210.42 294.759 211.18C294.759 212.14 294.412 212.94 293.719 213.58C293.026 214.22 292.192 214.7 291.219 215.02C290.246 215.327 289.326 215.493 288.459 215.52C288.432 216.48 288.586 217.253 288.919 217.84C289.266 218.427 289.786 218.72 290.479 218.72C291.626 218.72 292.666 218.187 293.599 217.12L294.119 218ZM291.119 209.86C290.332 209.86 289.712 210.333 289.259 211.28C288.806 212.227 288.539 213.28 288.459 214.44C288.979 214.413 289.526 214.273 290.099 214.02C290.686 213.767 291.172 213.413 291.559 212.96C291.959 212.493 292.159 211.96 292.159 211.36C292.159 210.88 292.066 210.513 291.879 210.26C291.706 209.993 291.452 209.86 291.119 209.86ZM299.848 211.52C300.101 210.76 300.535 210.093 301.148 209.52C301.775 208.933 302.475 208.64 303.248 208.64C303.515 208.64 303.741 208.7 303.928 208.82L303.348 211.7C303.268 211.633 303.135 211.573 302.948 211.52C302.775 211.453 302.561 211.42 302.308 211.42C301.828 211.42 301.368 211.527 300.928 211.74C300.488 211.94 300.148 212.233 299.908 212.62L298.928 220H296.328L297.588 210.5L296.568 209.94L296.708 209.14L299.568 208.66L300.028 208.94L299.928 210.76L299.848 211.52ZM12.0373 243C12.024 243.053 12.0173 243.127 12.0173 243.22C12.0173 243.553 12.1373 243.72 12.3773 243.72C12.4973 243.72 12.624 243.687 12.7573 243.62C12.904 243.553 13.0973 243.413 13.3373 243.2L13.5973 243.82C13.384 244.127 13.0707 244.433 12.6573 244.74C12.244 245.047 11.7107 245.2 11.0573 245.2C10.5507 245.2 10.1373 245.1 9.81734 244.9C9.49734 244.687 9.33068 244.36 9.31734 243.92C9.31734 243.867 9.34401 243.627 9.39734 243.2L11.1373 230.42L9.87734 230.02L10.0573 229.28L13.4573 228.88L13.9173 229.14L12.0373 243ZM23.8911 242.96C23.8778 243.013 23.8711 243.093 23.8711 243.2C23.8711 243.547 24.0044 243.72 24.2711 243.72C24.4844 243.72 24.7844 243.56 25.1711 243.24L25.4511 243.86C25.2778 244.127 24.9644 244.42 24.5111 244.74C24.0711 245.047 23.5578 245.2 22.9711 245.2C22.5178 245.2 22.1578 245.1 21.8911 244.9C21.6244 244.7 21.4844 244.393 21.4711 243.98L21.5111 243.64C21.1378 244.08 20.6844 244.453 20.1511 244.76C19.6178 245.053 19.0311 245.2 18.3911 245.2C17.2711 245.2 16.4311 244.82 15.8711 244.06C15.3244 243.287 15.0511 242.28 15.0511 241.04C15.0511 239.813 15.3044 238.633 15.8111 237.5C16.3311 236.367 17.0844 235.44 18.0711 234.72C19.0578 234 20.2311 233.64 21.5911 233.64C21.9378 233.64 22.3111 233.68 22.7111 233.76C23.1244 233.84 23.4844 233.933 23.7911 234.04L25.1711 233.64L23.8911 242.96ZM22.3511 235.06C22.0978 234.94 21.7711 234.88 21.3711 234.88C20.5711 234.88 19.9044 235.187 19.3711 235.8C18.8378 236.4 18.4444 237.167 18.1911 238.1C17.9511 239.02 17.8311 239.953 17.8311 240.9C17.8311 241.78 17.9644 242.467 18.2311 242.96C18.4978 243.44 18.8911 243.68 19.4111 243.68C19.7444 243.68 20.0778 243.567 20.4111 243.34C20.7578 243.113 21.0644 242.847 21.3311 242.54L22.3511 235.06ZM33.7094 235.8C33.5494 235.613 33.2827 235.42 32.9094 235.22C32.5494 235.02 32.1294 234.92 31.6494 234.92C31.116 234.92 30.6827 235.04 30.3494 235.28C30.0294 235.507 29.8694 235.847 29.8694 236.3C29.8694 236.7 30.0027 237.06 30.2694 237.38C30.5494 237.687 30.996 238.06 31.6094 238.5C32.2894 239.007 32.8094 239.5 33.1694 239.98C33.5294 240.447 33.7094 241.047 33.7094 241.78C33.7094 242.513 33.5094 243.14 33.1094 243.66C32.7094 244.167 32.176 244.553 31.5094 244.82C30.8427 245.073 30.1094 245.2 29.3094 245.2C28.7094 245.2 28.096 245.133 27.4694 245C26.8427 244.853 26.436 244.7 26.2494 244.54L26.6494 242.84C26.9294 243.08 27.3094 243.307 27.7894 243.52C28.2694 243.733 28.7694 243.84 29.2894 243.84C29.7827 243.84 30.2027 243.727 30.5494 243.5C30.9094 243.273 31.0894 242.92 31.0894 242.44C31.0894 242.027 30.936 241.653 30.6294 241.32C30.3227 240.987 29.8627 240.607 29.2494 240.18C28.6894 239.793 28.216 239.34 27.8294 238.82C27.456 238.287 27.2694 237.647 27.2694 236.9C27.2694 236.26 27.4494 235.693 27.8094 235.2C28.1827 234.707 28.6894 234.327 29.3294 234.06C29.9827 233.78 30.7294 233.64 31.5694 233.64C32.0627 233.64 32.5627 233.68 33.0694 233.76C33.576 233.84 33.916 233.927 34.0894 234.02L33.7094 235.8ZM42.5445 236.62C42.1712 236.153 41.8379 235.78 41.5445 235.5C41.2645 235.207 41.0179 235.06 40.8045 235.06C40.3112 235.06 39.8512 235.287 39.4245 235.74C39.0112 236.193 38.6712 236.827 38.4045 237.64C38.1512 238.453 38.0245 239.367 38.0245 240.38C38.0245 241.487 38.1845 242.3 38.5045 242.82C38.8245 243.327 39.3112 243.58 39.9645 243.58C40.5245 243.58 40.9979 243.473 41.3845 243.26C41.7845 243.047 42.1712 242.747 42.5445 242.36L43.0645 243.24C42.7312 243.733 42.2045 244.187 41.4845 244.6C40.7779 245 39.9379 245.2 38.9645 245.2C37.8179 245.2 36.9179 244.8 36.2645 244C35.6112 243.187 35.2845 242.04 35.2845 240.56C35.2845 239.44 35.5179 238.353 35.9845 237.3C36.4512 236.233 37.1445 235.36 38.0645 234.68C38.9845 233.987 40.0912 233.64 41.3845 233.64C41.7979 233.64 42.2245 233.68 42.6645 233.76C43.1179 233.827 43.4845 233.927 43.7645 234.06L43.0845 236.66L42.5445 236.62ZM47.8247 243C47.8114 243.067 47.8047 243.147 47.8047 243.24C47.8047 243.56 47.918 243.72 48.1447 243.72C48.2647 243.72 48.398 243.68 48.5447 243.6C48.6914 243.52 48.878 243.387 49.1047 243.2L49.3647 243.82C49.138 244.127 48.798 244.433 48.3447 244.74C47.9047 245.047 47.3647 245.2 46.7247 245.2C46.2047 245.2 45.798 245.1 45.5047 244.9C45.2114 244.687 45.0647 244.4 45.0647 244.04L45.0847 243.84C45.1647 243.147 45.438 241.133 45.9047 237.8L46.2247 235.48L45.0447 234.92L45.1847 234.14L48.6247 233.66L49.1047 233.88L47.8247 243ZM48.0447 231.74C47.6847 231.74 47.3714 231.607 47.1047 231.34C46.8514 231.06 46.7247 230.74 46.7247 230.38C46.7247 229.887 46.8847 229.473 47.2047 229.14C47.538 228.807 47.958 228.64 48.4647 228.64C48.878 228.64 49.2047 228.773 49.4447 229.04C49.6847 229.293 49.8047 229.6 49.8047 229.96C49.8047 230.467 49.6514 230.893 49.3447 231.24C49.038 231.573 48.6047 231.74 48.0447 231.74ZM59.77 242.96C59.7567 243.013 59.75 243.093 59.75 243.2C59.75 243.547 59.8833 243.72 60.15 243.72C60.3633 243.72 60.6633 243.56 61.05 243.24L61.33 243.86C61.1567 244.127 60.8433 244.42 60.39 244.74C59.95 245.047 59.4367 245.2 58.85 245.2C58.3967 245.2 58.0367 245.1 57.77 244.9C57.5033 244.7 57.3633 244.393 57.35 243.98L57.39 243.64C57.0167 244.08 56.5633 244.453 56.03 244.76C55.4967 245.053 54.91 245.2 54.27 245.2C53.15 245.2 52.31 244.82 51.75 244.06C51.2033 243.287 50.93 242.28 50.93 241.04C50.93 239.813 51.1833 238.633 51.69 237.5C52.21 236.367 52.9633 235.44 53.95 234.72C54.9367 234 56.11 233.64 57.47 233.64C57.8167 233.64 58.19 233.68 58.59 233.76C59.0033 233.84 59.3633 233.933 59.67 234.04L61.05 233.64L59.77 242.96ZM58.23 235.06C57.9767 234.94 57.65 234.88 57.25 234.88C56.45 234.88 55.7833 235.187 55.25 235.8C54.7167 236.4 54.3233 237.167 54.07 238.1C53.83 239.02 53.71 239.953 53.71 240.9C53.71 241.78 53.8433 242.467 54.11 242.96C54.3767 243.44 54.77 243.68 55.29 243.68C55.6233 243.68 55.9567 243.567 56.29 243.34C56.6367 243.113 56.9433 242.847 57.21 242.54L58.23 235.06ZM66.5083 236.52C66.7616 235.76 67.1949 235.093 67.8083 234.52C68.4349 233.933 69.1349 233.64 69.9083 233.64C70.1749 233.64 70.4016 233.7 70.5883 233.82L70.0083 236.7C69.9283 236.633 69.7949 236.573 69.6083 236.52C69.4349 236.453 69.2216 236.42 68.9683 236.42C68.4883 236.42 68.0283 236.527 67.5883 236.74C67.1483 236.94 66.8083 237.233 66.5683 237.62L65.5883 245H62.9883L64.2483 235.5L63.2283 234.94L63.3683 234.14L66.2283 233.66L66.6883 233.94L66.5883 235.76L66.5083 236.52ZM79.49 243C79.1433 243.547 78.5767 244.06 77.79 244.54C77.0167 245.02 76.1167 245.26 75.09 245.26C74.13 245.26 73.3367 245.053 72.71 244.64C72.0967 244.227 71.65 243.687 71.37 243.02C71.09 242.353 70.95 241.627 70.95 240.84C70.95 239.507 71.2167 238.293 71.75 237.2C72.2967 236.093 73.0367 235.22 73.97 234.58C74.9033 233.94 75.9433 233.62 77.09 233.62C78.1167 233.62 78.8767 233.86 79.37 234.34C79.8767 234.807 80.13 235.42 80.13 236.18C80.13 237.14 79.7833 237.94 79.09 238.58C78.3967 239.22 77.5633 239.7 76.59 240.02C75.6167 240.327 74.6967 240.493 73.83 240.52C73.8033 241.48 73.9567 242.253 74.29 242.84C74.6367 243.427 75.1567 243.72 75.85 243.72C76.9967 243.72 78.0367 243.187 78.97 242.12L79.49 243ZM76.49 234.86C75.7033 234.86 75.0833 235.333 74.63 236.28C74.1767 237.227 73.91 238.28 73.83 239.44C74.35 239.413 74.8967 239.273 75.47 239.02C76.0567 238.767 76.5433 238.413 76.93 237.96C77.33 237.493 77.53 236.96 77.53 236.36C77.53 235.88 77.4367 235.513 77.25 235.26C77.0767 234.993 76.8233 234.86 76.49 234.86ZM89.7653 239.22C89.712 239.713 89.6653 240.06 89.6253 240.26C89.492 241.3 89.4253 241.967 89.4253 242.26C89.4253 242.793 89.5186 243.173 89.7053 243.4C89.892 243.627 90.172 243.74 90.5453 243.74C90.972 243.74 91.392 243.607 91.8053 243.34C92.232 243.073 92.592 242.753 92.8853 242.38L94.0453 233.74H96.6853L95.4053 243C95.3786 243.24 95.3986 243.42 95.4653 243.54C95.532 243.66 95.632 243.72 95.7653 243.72C95.8853 243.72 96.012 243.687 96.1453 243.62C96.2786 243.54 96.4653 243.4 96.7053 243.2L96.9853 243.82C96.812 244.1 96.492 244.4 96.0253 244.72C95.5586 245.04 95.0253 245.2 94.4253 245.2C93.9586 245.2 93.5986 245.1 93.3453 244.9C93.1053 244.7 92.972 244.427 92.9453 244.08L92.9253 243.84C92.9253 243.733 92.9386 243.6 92.9653 243.44L92.9253 243.42C91.9386 244.607 90.7786 245.2 89.4453 245.2C88.6986 245.2 88.0653 245 87.5453 244.6C87.0253 244.187 86.7586 243.533 86.7453 242.64C86.7453 242.12 86.8386 241.18 87.0253 239.82C87.0786 239.487 87.112 239.26 87.1253 239.14L87.6653 235.5L86.5053 234.82L86.6653 234L89.9853 233.66L90.4453 233.88L89.7653 239.22ZM102.491 236.06C102.984 235.327 103.571 234.74 104.251 234.3C104.931 233.86 105.644 233.64 106.391 233.64C108.044 233.64 108.871 234.62 108.871 236.58C108.871 237.1 108.704 238.26 108.371 240.06C108.318 240.407 108.271 240.673 108.231 240.86C108.044 241.913 107.944 242.673 107.931 243.14V243.22C107.931 243.553 108.038 243.72 108.251 243.72C108.371 243.72 108.498 243.687 108.631 243.62C108.764 243.553 108.938 243.433 109.151 243.26L109.431 243.88C109.231 244.16 108.904 244.453 108.451 244.76C107.998 245.053 107.444 245.2 106.791 245.2C106.164 245.2 105.731 245.067 105.491 244.8C105.251 244.52 105.131 244.153 105.131 243.7C105.144 243.3 105.271 242.507 105.511 241.32L105.631 240.64C105.658 240.52 105.711 240.2 105.791 239.68C105.884 239.16 105.958 238.667 106.011 238.2C106.064 237.72 106.091 237.307 106.091 236.96C106.091 236.347 106.018 235.927 105.871 235.7C105.738 235.473 105.491 235.36 105.131 235.36C104.691 235.36 104.198 235.607 103.651 236.1C103.118 236.593 102.658 237.187 102.271 237.88L101.311 245H98.6909L99.9709 235.48L98.9509 234.94L99.1109 234.12L102.231 233.64L102.691 233.86L102.491 236.06ZM115.669 228.52L114.069 235.56H112.409L113.229 228.52H115.669ZM125.115 243C124.768 243.547 124.202 244.06 123.415 244.54C122.642 245.02 121.742 245.26 120.715 245.26C119.755 245.26 118.962 245.053 118.335 244.64C117.722 244.227 117.275 243.687 116.995 243.02C116.715 242.353 116.575 241.627 116.575 240.84C116.575 239.507 116.842 238.293 117.375 237.2C117.922 236.093 118.662 235.22 119.595 234.58C120.528 233.94 121.568 233.62 122.715 233.62C123.742 233.62 124.502 233.86 124.995 234.34C125.502 234.807 125.755 235.42 125.755 236.18C125.755 237.14 125.408 237.94 124.715 238.58C124.022 239.22 123.188 239.7 122.215 240.02C121.242 240.327 120.322 240.493 119.455 240.52C119.428 241.48 119.582 242.253 119.915 242.84C120.262 243.427 120.782 243.72 121.475 243.72C122.622 243.72 123.662 243.187 124.595 242.12L125.115 243ZM122.115 234.86C121.328 234.86 120.708 235.333 120.255 236.28C119.802 237.227 119.535 238.28 119.455 239.44C119.975 239.413 120.522 239.273 121.095 239.02C121.682 238.767 122.168 238.413 122.555 237.96C122.955 237.493 123.155 236.96 123.155 236.36C123.155 235.88 123.062 235.513 122.875 235.26C122.702 234.993 122.448 234.86 122.115 234.86ZM130.844 236.52C131.098 235.76 131.531 235.093 132.144 234.52C132.771 233.933 133.471 233.64 134.244 233.64C134.511 233.64 134.738 233.7 134.924 233.82L134.344 236.7C134.264 236.633 134.131 236.573 133.944 236.52C133.771 236.453 133.558 236.42 133.304 236.42C132.824 236.42 132.364 236.527 131.924 236.74C131.484 236.94 131.144 237.233 130.904 237.62L129.924 245H127.324L128.584 235.5L127.564 234.94L127.704 234.14L130.564 233.66L131.024 233.94L130.924 235.76L130.844 236.52ZM143.826 243C143.479 243.547 142.913 244.06 142.126 244.54C141.353 245.02 140.453 245.26 139.426 245.26C138.466 245.26 137.673 245.053 137.046 244.64C136.433 244.227 135.986 243.687 135.706 243.02C135.426 242.353 135.286 241.627 135.286 240.84C135.286 239.507 135.553 238.293 136.086 237.2C136.633 236.093 137.373 235.22 138.306 234.58C139.239 233.94 140.279 233.62 141.426 233.62C142.453 233.62 143.213 233.86 143.706 234.34C144.213 234.807 144.466 235.42 144.466 236.18C144.466 237.14 144.119 237.94 143.426 238.58C142.733 239.22 141.899 239.7 140.926 240.02C139.953 240.327 139.033 240.493 138.166 240.52C138.139 241.48 138.293 242.253 138.626 242.84C138.973 243.427 139.493 243.72 140.186 243.72C141.333 243.72 142.373 243.187 143.306 242.12L143.826 243ZM140.826 234.86C140.039 234.86 139.419 235.333 138.966 236.28C138.513 237.227 138.246 238.28 138.166 239.44C138.686 239.413 139.233 239.273 139.806 239.02C140.393 238.767 140.879 238.413 141.266 237.96C141.666 237.493 141.866 236.96 141.866 236.36C141.866 235.88 141.773 235.513 141.586 235.26C141.413 234.993 141.159 234.86 140.826 234.86ZM154.735 242.98C154.722 243.033 154.715 243.113 154.715 243.22C154.715 243.553 154.828 243.72 155.055 243.72C155.282 243.72 155.582 243.567 155.955 243.26L156.235 243.88C155.488 244.76 154.662 245.2 153.755 245.2C153.288 245.2 152.935 245.087 152.695 244.86C152.455 244.633 152.315 244.287 152.275 243.82V243.52C151.942 243.987 151.495 244.387 150.935 244.72C150.375 245.04 149.735 245.2 149.015 245.2C147.895 245.2 147.062 244.82 146.515 244.06C145.968 243.287 145.695 242.28 145.695 241.04C145.695 239.8 145.942 238.613 146.435 237.48C146.928 236.347 147.662 235.427 148.635 234.72C149.622 234 150.808 233.64 152.195 233.64C152.582 233.64 152.988 233.693 153.415 233.8L153.915 230.42L152.475 230.02L152.655 229.28L156.255 228.88L156.755 229.14L154.735 242.98ZM153.215 235.16C152.882 234.973 152.462 234.88 151.955 234.88C151.142 234.88 150.475 235.193 149.955 235.82C149.435 236.433 149.055 237.2 148.815 238.12C148.575 239.04 148.455 239.973 148.455 240.92C148.455 241.8 148.588 242.48 148.855 242.96C149.135 243.44 149.528 243.68 150.035 243.68C150.448 243.68 150.842 243.553 151.215 243.3C151.588 243.033 151.895 242.72 152.135 242.36L153.215 235.16ZM161.047 243C161.034 243.067 161.027 243.147 161.027 243.24C161.027 243.56 161.141 243.72 161.367 243.72C161.487 243.72 161.621 243.68 161.767 243.6C161.914 243.52 162.101 243.387 162.327 243.2L162.587 243.82C162.361 244.127 162.021 244.433 161.567 244.74C161.127 245.047 160.587 245.2 159.947 245.2C159.427 245.2 159.021 245.1 158.727 244.9C158.434 244.687 158.287 244.4 158.287 244.04L158.307 243.84C158.387 243.147 158.661 241.133 159.127 237.8L159.447 235.48L158.267 234.92L158.407 234.14L161.847 233.66L162.327 233.88L161.047 243ZM161.267 231.74C160.907 231.74 160.594 231.607 160.327 231.34C160.074 231.06 159.947 230.74 159.947 230.38C159.947 229.887 160.107 229.473 160.427 229.14C160.761 228.807 161.181 228.64 161.687 228.64C162.101 228.64 162.427 228.773 162.667 229.04C162.907 229.293 163.027 229.6 163.027 229.96C163.027 230.467 162.874 230.893 162.567 231.24C162.261 231.573 161.827 231.74 161.267 231.74ZM167.493 241.34C167.399 242.113 167.353 242.58 167.353 242.74C167.353 243.047 167.413 243.267 167.533 243.4C167.653 243.52 167.859 243.58 168.153 243.58C168.419 243.58 168.719 243.52 169.053 243.4C169.399 243.267 169.686 243.107 169.913 242.92L170.133 243.66C169.786 244.047 169.293 244.4 168.653 244.72C168.013 245.04 167.293 245.2 166.493 245.2C165.933 245.2 165.486 245.06 165.153 244.78C164.833 244.487 164.673 244.027 164.673 243.4C164.673 243.133 164.739 242.507 164.873 241.52L165.713 235.32H164.513L164.733 234.36L165.933 233.94C166.333 233.567 166.806 232.647 167.353 231.18H168.853L168.513 233.9H170.913L170.713 235.32H168.313L167.493 241.34ZM180.102 242.96C180.089 243.013 180.082 243.093 180.082 243.2C180.082 243.547 180.215 243.72 180.482 243.72C180.695 243.72 180.995 243.56 181.382 243.24L181.662 243.86C181.489 244.127 181.175 244.42 180.722 244.74C180.282 245.047 179.769 245.2 179.182 245.2C178.729 245.2 178.369 245.1 178.102 244.9C177.835 244.7 177.695 244.393 177.682 243.98L177.722 243.64C177.349 244.08 176.895 244.453 176.362 244.76C175.829 245.053 175.242 245.2 174.602 245.2C173.482 245.2 172.642 244.82 172.082 244.06C171.535 243.287 171.262 242.28 171.262 241.04C171.262 239.813 171.515 238.633 172.022 237.5C172.542 236.367 173.295 235.44 174.282 234.72C175.269 234 176.442 233.64 177.802 233.64C178.149 233.64 178.522 233.68 178.922 233.76C179.335 233.84 179.695 233.933 180.002 234.04L181.382 233.64L180.102 242.96ZM178.562 235.06C178.309 234.94 177.982 234.88 177.582 234.88C176.782 234.88 176.115 235.187 175.582 235.8C175.049 236.4 174.655 237.167 174.402 238.1C174.162 239.02 174.042 239.953 174.042 240.9C174.042 241.78 174.175 242.467 174.442 242.96C174.709 243.44 175.102 243.68 175.622 243.68C175.955 243.68 176.289 243.567 176.622 243.34C176.969 243.113 177.275 242.847 177.542 242.54L178.562 235.06ZM178.342 232.22C177.862 231.98 177.189 231.493 176.322 230.76C175.469 230.027 174.909 229.42 174.642 228.94L176.342 227.42L179.202 231.6L178.342 232.22ZM189.886 232.94C190.02 232.14 190.28 231.42 190.666 230.78C191.066 230.14 191.573 229.633 192.186 229.26C192.8 228.887 193.486 228.7 194.246 228.7C194.953 228.7 195.513 228.78 195.926 228.94L195.366 230.54C194.98 230.247 194.533 230.1 194.026 230.1C193.533 230.1 193.173 230.287 192.946 230.66C192.733 231.033 192.573 231.607 192.466 232.38L192.266 233.84H194.466L194.206 235.34H192.066L190.966 244.22C190.753 245.86 190.266 247.233 189.506 248.34C188.76 249.447 187.76 250.007 186.506 250.02C186.2 250.033 185.88 250.02 185.546 249.98C185.2 249.94 184.926 249.893 184.726 249.84L185.246 248.16C185.42 248.24 185.673 248.327 186.006 248.42C186.326 248.527 186.586 248.58 186.786 248.58C187.146 248.58 187.426 248.4 187.626 248.04C187.84 247.693 187.993 247.167 188.086 246.46L189.466 235.34H188.186L188.366 234.46L189.726 233.88L189.886 232.94ZM197.846 243C197.833 243.067 197.826 243.147 197.826 243.24C197.826 243.56 197.94 243.72 198.166 243.72C198.286 243.72 198.42 243.68 198.566 243.6C198.713 243.52 198.9 243.387 199.126 243.2L199.386 243.82C199.16 244.127 198.82 244.433 198.366 244.74C197.926 245.047 197.386 245.2 196.746 245.2C196.226 245.2 195.82 245.1 195.526 244.9C195.233 244.687 195.086 244.4 195.086 244.04L195.106 243.84C195.186 243.147 195.46 241.133 195.926 237.8L196.246 235.48L195.066 234.92L195.206 234.14L198.646 233.66L199.126 233.88L197.846 243ZM198.066 231.74C197.706 231.74 197.393 231.607 197.126 231.34C196.873 231.06 196.746 230.74 196.746 230.38C196.746 229.887 196.906 229.473 197.226 229.14C197.56 228.807 197.98 228.64 198.486 228.64C198.9 228.64 199.226 228.773 199.466 229.04C199.706 229.293 199.826 229.6 199.826 229.96C199.826 230.467 199.673 230.893 199.366 231.24C199.06 231.573 198.626 231.74 198.066 231.74ZM205.05 236.06C205.543 235.327 206.13 234.74 206.81 234.3C207.49 233.86 208.203 233.64 208.95 233.64C210.603 233.64 211.43 234.62 211.43 236.58C211.43 237.1 211.263 238.26 210.93 240.06C210.876 240.407 210.83 240.673 210.79 240.86C210.603 241.913 210.503 242.673 210.49 243.14V243.22C210.49 243.553 210.596 243.72 210.81 243.72C210.93 243.72 211.056 243.687 211.19 243.62C211.323 243.553 211.496 243.433 211.71 243.26L211.99 243.88C211.79 244.16 211.463 244.453 211.01 244.76C210.556 245.053 210.003 245.2 209.35 245.2C208.723 245.2 208.29 245.067 208.05 244.8C207.81 244.52 207.69 244.153 207.69 243.7C207.703 243.3 207.83 242.507 208.07 241.32L208.19 240.64C208.216 240.52 208.27 240.2 208.35 239.68C208.443 239.16 208.516 238.667 208.57 238.2C208.623 237.72 208.65 237.307 208.65 236.96C208.65 236.347 208.576 235.927 208.43 235.7C208.296 235.473 208.05 235.36 207.69 235.36C207.25 235.36 206.756 235.607 206.21 236.1C205.676 236.593 205.216 237.187 204.83 237.88L203.87 245H201.25L202.53 235.48L201.51 234.94L201.67 234.12L204.79 233.64L205.25 233.86L205.05 236.06ZM222.387 242.96C222.374 243.013 222.367 243.093 222.367 243.2C222.367 243.547 222.501 243.72 222.767 243.72C222.981 243.72 223.281 243.56 223.667 243.24L223.947 243.86C223.774 244.127 223.461 244.42 223.007 244.74C222.567 245.047 222.054 245.2 221.467 245.2C221.014 245.2 220.654 245.1 220.387 244.9C220.121 244.7 219.981 244.393 219.967 243.98L220.007 243.64C219.634 244.08 219.181 244.453 218.647 244.76C218.114 245.053 217.527 245.2 216.887 245.2C215.767 245.2 214.927 244.82 214.367 244.06C213.821 243.287 213.547 242.28 213.547 241.04C213.547 239.813 213.801 238.633 214.307 237.5C214.827 236.367 215.581 235.44 216.567 234.72C217.554 234 218.727 233.64 220.087 233.64C220.434 233.64 220.807 233.68 221.207 233.76C221.621 233.84 221.981 233.933 222.287 234.04L223.667 233.64L222.387 242.96ZM220.847 235.06C220.594 234.94 220.267 234.88 219.867 234.88C219.067 234.88 218.401 235.187 217.867 235.8C217.334 236.4 216.941 237.167 216.687 238.1C216.447 239.02 216.327 239.953 216.327 240.9C216.327 241.78 216.461 242.467 216.727 242.96C216.994 243.44 217.387 243.68 217.907 243.68C218.241 243.68 218.574 243.567 218.907 243.34C219.254 243.113 219.561 242.847 219.827 242.54L220.847 235.06ZM229.385 236.06C229.879 235.327 230.465 234.74 231.145 234.3C231.825 233.86 232.539 233.64 233.285 233.64C234.939 233.64 235.765 234.62 235.765 236.58C235.765 237.1 235.599 238.26 235.265 240.06C235.212 240.407 235.165 240.673 235.125 240.86C234.939 241.913 234.839 242.673 234.825 243.14V243.22C234.825 243.553 234.932 243.72 235.145 243.72C235.265 243.72 235.392 243.687 235.525 243.62C235.659 243.553 235.832 243.433 236.045 243.26L236.325 243.88C236.125 244.16 235.799 244.453 235.345 244.76C234.892 245.053 234.339 245.2 233.685 245.2C233.059 245.2 232.625 245.067 232.385 244.8C232.145 244.52 232.025 244.153 232.025 243.7C232.039 243.3 232.165 242.507 232.405 241.32L232.525 240.64C232.552 240.52 232.605 240.2 232.685 239.68C232.779 239.16 232.852 238.667 232.905 238.2C232.959 237.72 232.985 237.307 232.985 236.96C232.985 236.347 232.912 235.927 232.765 235.7C232.632 235.473 232.385 235.36 232.025 235.36C231.585 235.36 231.092 235.607 230.545 236.1C230.012 236.593 229.552 237.187 229.165 237.88L228.205 245H225.585L226.865 235.48L225.845 234.94L226.005 234.12L229.125 233.64L229.585 233.86L229.385 236.06ZM242.943 235.96C241.863 235.933 241.176 235.927 240.883 235.94C240.443 235.953 240.083 236.12 239.803 236.44C239.536 236.747 239.39 237.127 239.363 237.58H238.563C238.536 237.287 238.523 236.987 238.523 236.68C238.523 236.027 238.576 235.427 238.683 234.88C238.803 234.333 238.996 233.993 239.263 233.86C239.49 233.727 239.803 233.66 240.203 233.66C240.91 233.66 241.95 233.72 243.323 233.84C243.63 233.853 244.063 233.88 244.623 233.92C245.196 233.96 245.616 233.98 245.883 233.98C246.336 233.98 246.69 233.873 246.943 233.66L247.443 234.2L241.623 241.52L240.143 242.9L243.743 242.94C244.263 242.94 244.67 242.787 244.963 242.48C245.256 242.16 245.436 241.74 245.503 241.22H246.283C246.296 241.353 246.303 241.587 246.303 241.92C246.303 242.627 246.243 243.28 246.123 243.88C246.016 244.467 245.823 244.847 245.543 245.02C245.37 245.153 245.036 245.22 244.543 245.22C243.783 245.22 242.683 245.16 241.243 245.04C240.91 245.027 240.443 245 239.843 244.96C239.256 244.92 238.836 244.9 238.583 244.9C238.41 244.9 238.223 244.927 238.023 244.98C237.836 245.033 237.683 245.113 237.563 245.22L236.983 244.66L243.383 236.84L244.463 235.98L242.943 235.96ZM251.184 243C251.171 243.067 251.164 243.147 251.164 243.24C251.164 243.56 251.277 243.72 251.504 243.72C251.624 243.72 251.757 243.68 251.904 243.6C252.051 243.52 252.237 243.387 252.464 243.2L252.724 243.82C252.497 244.127 252.157 244.433 251.704 244.74C251.264 245.047 250.724 245.2 250.084 245.2C249.564 245.2 249.157 245.1 248.864 244.9C248.571 244.687 248.424 244.4 248.424 244.04L248.444 243.84C248.524 243.147 248.797 241.133 249.264 237.8L249.584 235.48L248.404 234.92L248.544 234.14L251.984 233.66L252.464 233.88L251.184 243ZM251.404 231.74C251.044 231.74 250.731 231.607 250.464 231.34C250.211 231.06 250.084 230.74 250.084 230.38C250.084 229.887 250.244 229.473 250.564 229.14C250.897 228.807 251.317 228.64 251.824 228.64C252.237 228.64 252.564 228.773 252.804 229.04C253.044 229.293 253.164 229.6 253.164 229.96C253.164 230.467 253.011 230.893 252.704 231.24C252.397 231.573 251.964 231.74 251.404 231.74ZM263.129 242.96C263.116 243.013 263.109 243.093 263.109 243.2C263.109 243.547 263.243 243.72 263.509 243.72C263.723 243.72 264.023 243.56 264.409 243.24L264.689 243.86C264.516 244.127 264.203 244.42 263.749 244.74C263.309 245.047 262.796 245.2 262.209 245.2C261.756 245.2 261.396 245.1 261.129 244.9C260.863 244.7 260.723 244.393 260.709 243.98L260.749 243.64C260.376 244.08 259.923 244.453 259.389 244.76C258.856 245.053 258.269 245.2 257.629 245.2C256.509 245.2 255.669 244.82 255.109 244.06C254.563 243.287 254.289 242.28 254.289 241.04C254.289 239.813 254.543 238.633 255.049 237.5C255.569 236.367 256.323 235.44 257.309 234.72C258.296 234 259.469 233.64 260.829 233.64C261.176 233.64 261.549 233.68 261.949 233.76C262.363 233.84 262.723 233.933 263.029 234.04L264.409 233.64L263.129 242.96ZM261.589 235.06C261.336 234.94 261.009 234.88 260.609 234.88C259.809 234.88 259.143 235.187 258.609 235.8C258.076 236.4 257.683 237.167 257.429 238.1C257.189 239.02 257.069 239.953 257.069 240.9C257.069 241.78 257.203 242.467 257.469 242.96C257.736 243.44 258.129 243.68 258.649 243.68C258.983 243.68 259.316 243.567 259.649 243.34C259.996 243.113 260.303 242.847 260.569 242.54L261.589 235.06ZM269.868 236.52C270.121 235.76 270.554 235.093 271.168 234.52C271.794 233.933 272.494 233.64 273.268 233.64C273.534 233.64 273.761 233.7 273.948 233.82L273.368 236.7C273.288 236.633 273.154 236.573 272.968 236.52C272.794 236.453 272.581 236.42 272.328 236.42C271.848 236.42 271.388 236.527 270.948 236.74C270.508 236.94 270.168 237.233 269.928 237.62L268.948 245H266.348L267.608 235.5L266.588 234.94L266.728 234.14L269.588 233.66L270.048 233.94L269.948 235.76L269.868 236.52ZM277.629 243C277.616 243.067 277.609 243.147 277.609 243.24C277.609 243.56 277.723 243.72 277.949 243.72C278.069 243.72 278.203 243.68 278.349 243.6C278.496 243.52 278.683 243.387 278.909 243.2L279.169 243.82C278.943 244.127 278.603 244.433 278.149 244.74C277.709 245.047 277.169 245.2 276.529 245.2C276.009 245.2 275.603 245.1 275.309 244.9C275.016 244.687 274.869 244.4 274.869 244.04L274.889 243.84C274.969 243.147 275.243 241.133 275.709 237.8L276.029 235.48L274.849 234.92L274.989 234.14L278.429 233.66L278.909 233.88L277.629 243ZM277.849 231.74C277.489 231.74 277.176 231.607 276.909 231.34C276.656 231.06 276.529 230.74 276.529 230.38C276.529 229.887 276.689 229.473 277.009 229.14C277.343 228.807 277.763 228.64 278.269 228.64C278.683 228.64 279.009 228.773 279.249 229.04C279.489 229.293 279.609 229.6 279.609 229.96C279.609 230.467 279.456 230.893 279.149 231.24C278.843 231.573 278.409 231.74 277.849 231.74ZM289.575 242.96C289.561 243.013 289.555 243.093 289.555 243.2C289.555 243.547 289.688 243.72 289.955 243.72C290.168 243.72 290.468 243.56 290.855 243.24L291.135 243.86C290.961 244.127 290.648 244.42 290.195 244.74C289.755 245.047 289.241 245.2 288.655 245.2C288.201 245.2 287.841 245.1 287.575 244.9C287.308 244.7 287.168 244.393 287.155 243.98L287.195 243.64C286.821 244.08 286.368 244.453 285.835 244.76C285.301 245.053 284.715 245.2 284.075 245.2C282.955 245.2 282.115 244.82 281.555 244.06C281.008 243.287 280.735 242.28 280.735 241.04C280.735 239.813 280.988 238.633 281.495 237.5C282.015 236.367 282.768 235.44 283.755 234.72C284.741 234 285.915 233.64 287.275 233.64C287.621 233.64 287.995 233.68 288.395 233.76C288.808 233.84 289.168 233.933 289.475 234.04L290.855 233.64L289.575 242.96ZM288.035 235.06C287.781 234.94 287.455 234.88 287.055 234.88C286.255 234.88 285.588 235.187 285.055 235.8C284.521 236.4 284.128 237.167 283.875 238.1C283.635 239.02 283.515 239.953 283.515 240.9C283.515 241.78 283.648 242.467 283.915 242.96C284.181 243.44 284.575 243.68 285.095 243.68C285.428 243.68 285.761 243.567 286.095 243.34C286.441 243.113 286.748 242.847 287.015 242.54L288.035 235.06ZM306.059 242.96C306.046 243.013 306.039 243.093 306.039 243.2C306.039 243.547 306.172 243.72 306.439 243.72C306.652 243.72 306.952 243.56 307.339 243.24L307.619 243.86C307.446 244.127 307.132 244.42 306.679 244.74C306.239 245.047 305.726 245.2 305.139 245.2C304.686 245.2 304.326 245.1 304.059 244.9C303.792 244.7 303.652 244.393 303.639 243.98L303.679 243.64C303.306 244.08 302.852 244.453 302.319 244.76C301.786 245.053 301.199 245.2 300.559 245.2C299.439 245.2 298.599 244.82 298.039 244.06C297.492 243.287 297.219 242.28 297.219 241.04C297.219 239.813 297.472 238.633 297.979 237.5C298.499 236.367 299.252 235.44 300.239 234.72C301.226 234 302.399 233.64 303.759 233.64C304.106 233.64 304.479 233.68 304.879 233.76C305.292 233.84 305.652 233.933 305.959 234.04L307.339 233.64L306.059 242.96ZM304.519 235.06C304.266 234.94 303.939 234.88 303.539 234.88C302.739 234.88 302.072 235.187 301.539 235.8C301.006 236.4 300.612 237.167 300.359 238.1C300.119 239.02 299.999 239.953 299.999 240.9C299.999 241.78 300.132 242.467 300.399 242.96C300.666 243.44 301.059 243.68 301.579 243.68C301.912 243.68 302.246 243.567 302.579 243.34C302.926 243.113 303.232 242.847 303.499 242.54L304.519 235.06ZM312.297 243C312.284 243.067 312.277 243.147 312.277 243.24C312.277 243.56 312.391 243.72 312.617 243.72C312.737 243.72 312.871 243.68 313.017 243.6C313.164 243.52 313.351 243.387 313.577 243.2L313.837 243.82C313.611 244.127 313.271 244.433 312.817 244.74C312.377 245.047 311.837 245.2 311.197 245.2C310.677 245.2 310.271 245.1 309.977 244.9C309.684 244.687 309.537 244.4 309.537 244.04L309.557 243.84C309.637 243.147 309.911 241.133 310.377 237.8L310.697 235.48L309.517 234.92L309.657 234.14L313.097 233.66L313.577 233.88L312.297 243ZM312.517 231.74C312.157 231.74 311.844 231.607 311.577 231.34C311.324 231.06 311.197 230.74 311.197 230.38C311.197 229.887 311.357 229.473 311.677 229.14C312.011 228.807 312.431 228.64 312.937 228.64C313.351 228.64 313.677 228.773 313.917 229.04C314.157 229.293 314.277 229.6 314.277 229.96C314.277 230.467 314.124 230.893 313.817 231.24C313.511 231.573 313.077 231.74 312.517 231.74ZM116.104 259.96C116.451 259.573 116.871 259.26 117.364 259.02C117.858 258.767 118.398 258.64 118.984 258.64C120.091 258.64 120.931 259.013 121.504 259.76C122.078 260.507 122.364 261.547 122.364 262.88C122.364 264.147 122.098 265.34 121.564 266.46C121.031 267.58 120.271 268.487 119.284 269.18C118.311 269.86 117.184 270.2 115.904 270.2C115.558 270.2 115.164 270.153 114.724 270.06L114.024 275.08H111.464L113.444 260.42L112.384 259.92L112.544 259.12L115.784 258.64L116.244 258.86L116.104 259.96ZM114.904 268.72C115.211 268.88 115.631 268.96 116.164 268.96C116.924 268.96 117.558 268.667 118.064 268.08C118.584 267.493 118.964 266.74 119.204 265.82C119.458 264.9 119.584 263.933 119.584 262.92C119.584 262.093 119.444 261.427 119.164 260.92C118.898 260.413 118.504 260.16 117.984 260.16C117.571 260.16 117.191 260.287 116.844 260.54C116.498 260.78 116.191 261.08 115.924 261.44L114.904 268.72ZM127.563 261.52C127.816 260.76 128.25 260.093 128.863 259.52C129.49 258.933 130.19 258.64 130.963 258.64C131.23 258.64 131.456 258.7 131.643 258.82L131.063 261.7C130.983 261.633 130.85 261.573 130.663 261.52C130.49 261.453 130.276 261.42 130.023 261.42C129.543 261.42 129.083 261.527 128.643 261.74C128.203 261.94 127.863 262.233 127.623 262.62L126.643 270H124.043L125.303 260.5L124.283 259.94L124.423 259.14L127.283 258.66L127.743 258.94L127.643 260.76L127.563 261.52ZM138.085 258.62C139.471 258.62 140.531 259.027 141.265 259.84C141.998 260.64 142.365 261.793 142.365 263.3C142.365 264.54 142.111 265.693 141.605 266.76C141.098 267.827 140.385 268.68 139.465 269.32C138.545 269.947 137.491 270.26 136.305 270.26C134.918 270.26 133.858 269.853 133.125 269.04C132.405 268.213 132.045 267.04 132.045 265.52C132.045 264.267 132.291 263.113 132.785 262.06C133.291 261.007 134.005 260.173 134.925 259.56C135.845 258.933 136.898 258.62 138.085 258.62ZM137.745 259.88C137.131 259.88 136.611 260.16 136.185 260.72C135.758 261.267 135.438 261.967 135.225 262.82C135.025 263.673 134.925 264.547 134.925 265.44C134.925 266.707 135.065 267.633 135.345 268.22C135.638 268.807 136.091 269.1 136.705 269.1C137.305 269.1 137.811 268.82 138.225 268.26C138.638 267.7 138.945 266.987 139.145 266.12C139.345 265.253 139.445 264.367 139.445 263.46C139.445 262.193 139.305 261.28 139.025 260.72C138.758 260.16 138.331 259.88 137.745 259.88ZM147.862 259.96C148.209 259.573 148.629 259.26 149.122 259.02C149.615 258.767 150.155 258.64 150.742 258.64C151.849 258.64 152.689 259.013 153.262 259.76C153.835 260.507 154.122 261.547 154.122 262.88C154.122 264.147 153.855 265.34 153.322 266.46C152.789 267.58 152.029 268.487 151.042 269.18C150.069 269.86 148.942 270.2 147.662 270.2C147.315 270.2 146.922 270.153 146.482 270.06L145.782 275.08H143.222L145.202 260.42L144.142 259.92L144.302 259.12L147.542 258.64L148.002 258.86L147.862 259.96ZM146.662 268.72C146.969 268.88 147.389 268.96 147.922 268.96C148.682 268.96 149.315 268.667 149.822 268.08C150.342 267.493 150.722 266.74 150.962 265.82C151.215 264.9 151.342 263.933 151.342 262.92C151.342 262.093 151.202 261.427 150.922 260.92C150.655 260.413 150.262 260.16 149.742 260.16C149.329 260.16 148.949 260.287 148.602 260.54C148.255 260.78 147.949 261.08 147.682 261.44L146.662 268.72ZM159.321 261.52C159.574 260.76 160.007 260.093 160.621 259.52C161.247 258.933 161.947 258.64 162.721 258.64C162.987 258.64 163.214 258.7 163.401 258.82L162.821 261.7C162.741 261.633 162.607 261.573 162.421 261.52C162.247 261.453 162.034 261.42 161.781 261.42C161.301 261.42 160.841 261.527 160.401 261.74C159.961 261.94 159.621 262.233 159.381 262.62L158.401 270H155.801L157.061 260.5L156.041 259.94L156.181 259.14L159.041 258.66L159.501 258.94L159.401 260.76L159.321 261.52ZM167.083 268C167.069 268.067 167.063 268.147 167.063 268.24C167.063 268.56 167.176 268.72 167.403 268.72C167.523 268.72 167.656 268.68 167.803 268.6C167.949 268.52 168.136 268.387 168.363 268.2L168.623 268.82C168.396 269.127 168.056 269.433 167.603 269.74C167.163 270.047 166.623 270.2 165.983 270.2C165.463 270.2 165.056 270.1 164.763 269.9C164.469 269.687 164.323 269.4 164.323 269.04L164.343 268.84C164.423 268.147 164.696 266.133 165.163 262.8L165.483 260.48L164.303 259.92L164.443 259.14L167.883 258.66L168.363 258.88L167.083 268ZM167.303 256.74C166.943 256.74 166.629 256.607 166.363 256.34C166.109 256.06 165.983 255.74 165.983 255.38C165.983 254.887 166.143 254.473 166.463 254.14C166.796 253.807 167.216 253.64 167.723 253.64C168.136 253.64 168.463 253.773 168.703 254.04C168.943 254.293 169.063 254.6 169.063 254.96C169.063 255.467 168.909 255.893 168.603 256.24C168.296 256.573 167.863 256.74 167.303 256.74ZM177.074 257.94C177.207 257.14 177.467 256.42 177.854 255.78C178.254 255.14 178.761 254.633 179.374 254.26C179.987 253.887 180.674 253.7 181.434 253.7C182.141 253.7 182.701 253.78 183.114 253.94L182.554 255.54C182.167 255.247 181.721 255.1 181.214 255.1C180.721 255.1 180.361 255.287 180.134 255.66C179.921 256.033 179.761 256.607 179.654 257.38L179.454 258.84H181.654L181.394 260.34H179.254L178.154 269.22C177.941 270.86 177.454 272.233 176.694 273.34C175.947 274.447 174.947 275.007 173.694 275.02C173.387 275.033 173.067 275.02 172.734 274.98C172.387 274.94 172.114 274.893 171.914 274.84L172.434 273.16C172.607 273.24 172.861 273.327 173.194 273.42C173.514 273.527 173.774 273.58 173.974 273.58C174.334 273.58 174.614 273.4 174.814 273.04C175.027 272.693 175.181 272.167 175.274 271.46L176.654 260.34H175.374L175.554 259.46L176.914 258.88L177.074 257.94ZM185.034 268C185.021 268.067 185.014 268.147 185.014 268.24C185.014 268.56 185.127 268.72 185.354 268.72C185.474 268.72 185.607 268.68 185.754 268.6C185.901 268.52 186.087 268.387 186.314 268.2L186.574 268.82C186.347 269.127 186.007 269.433 185.554 269.74C185.114 270.047 184.574 270.2 183.934 270.2C183.414 270.2 183.007 270.1 182.714 269.9C182.421 269.687 182.274 269.4 182.274 269.04L182.294 268.84C182.374 268.147 182.647 266.133 183.114 262.8L183.434 260.48L182.254 259.92L182.394 259.14L185.834 258.66L186.314 258.88L185.034 268ZM185.254 256.74C184.894 256.74 184.581 256.607 184.314 256.34C184.061 256.06 183.934 255.74 183.934 255.38C183.934 254.887 184.094 254.473 184.414 254.14C184.747 253.807 185.167 253.64 185.674 253.64C186.087 253.64 186.414 253.773 186.654 254.04C186.894 254.293 187.014 254.6 187.014 254.96C187.014 255.467 186.861 255.893 186.554 256.24C186.247 256.573 185.814 256.74 185.254 256.74ZM196.717 270.76C196.517 272.28 195.864 273.367 194.757 274.02C193.65 274.687 192.384 275.02 190.957 275.02C190.517 275.02 190.044 274.973 189.537 274.88C189.044 274.8 188.697 274.713 188.497 274.62L188.957 272.74C189.21 272.9 189.597 273.08 190.117 273.28C190.637 273.48 191.137 273.58 191.617 273.58C192.39 273.58 192.957 273.427 193.317 273.12C193.677 272.813 193.91 272.233 194.017 271.38L194.317 269C193.957 269.347 193.537 269.633 193.057 269.86C192.577 270.087 192.057 270.2 191.497 270.2C190.377 270.2 189.53 269.82 188.957 269.06C188.397 268.287 188.117 267.28 188.117 266.04C188.117 264.813 188.37 263.633 188.877 262.5C189.397 261.367 190.15 260.44 191.137 259.72C192.137 259 193.317 258.64 194.677 258.64C195.05 258.64 195.45 258.687 195.877 258.78C196.304 258.86 196.677 258.96 196.997 259.08L198.417 258.64L196.717 270.76ZM195.597 260.12C195.317 259.96 194.93 259.88 194.437 259.88C193.637 259.88 192.97 260.193 192.437 260.82C191.904 261.433 191.51 262.207 191.257 263.14C191.017 264.06 190.897 264.987 190.897 265.92C190.897 266.787 191.037 267.467 191.317 267.96C191.61 268.44 192.01 268.68 192.517 268.68C192.89 268.68 193.25 268.573 193.597 268.36C193.957 268.133 194.264 267.867 194.517 267.56L195.597 260.12ZM202.897 268C202.883 268.053 202.877 268.127 202.877 268.22C202.877 268.553 202.997 268.72 203.237 268.72C203.357 268.72 203.483 268.687 203.617 268.62C203.763 268.553 203.957 268.413 204.197 268.2L204.457 268.82C204.243 269.127 203.93 269.433 203.517 269.74C203.103 270.047 202.57 270.2 201.917 270.2C201.41 270.2 200.997 270.1 200.677 269.9C200.357 269.687 200.19 269.36 200.177 268.92C200.177 268.867 200.203 268.627 200.257 268.2L201.997 255.42L200.737 255.02L200.917 254.28L204.317 253.88L204.777 254.14L202.897 268ZM209.25 268C209.237 268.067 209.23 268.147 209.23 268.24C209.23 268.56 209.344 268.72 209.57 268.72C209.69 268.72 209.824 268.68 209.97 268.6C210.117 268.52 210.304 268.387 210.53 268.2L210.79 268.82C210.564 269.127 210.224 269.433 209.77 269.74C209.33 270.047 208.79 270.2 208.15 270.2C207.63 270.2 207.224 270.1 206.93 269.9C206.637 269.687 206.49 269.4 206.49 269.04L206.51 268.84C206.59 268.147 206.864 266.133 207.33 262.8L207.65 260.48L206.47 259.92L206.61 259.14L210.05 258.66L210.53 258.88L209.25 268ZM209.47 256.74C209.11 256.74 208.797 256.607 208.53 256.34C208.277 256.06 208.15 255.74 208.15 255.38C208.15 254.887 208.31 254.473 208.63 254.14C208.964 253.807 209.384 253.64 209.89 253.64C210.304 253.64 210.63 253.773 210.87 254.04C211.11 254.293 211.23 254.6 211.23 254.96C211.23 255.467 211.077 255.893 210.77 256.24C210.464 256.573 210.03 256.74 209.47 256.74Z" fill="#394454"/>
<path d="M132.686 90.1364V84.9205L142.635 69.2727H147.368V76.2273H144.663L139.302 84.7273V84.9205H153.984V90.1364H132.686ZM144.711 94V88.5426L144.856 86.2727V69.2727H151.135V94H144.711ZM166.459 68.9347C167.9 68.9347 169.265 69.1641 170.552 69.6229C171.84 70.0736 172.979 70.786 173.969 71.7599C174.967 72.7339 175.748 74.0057 176.312 75.5753C176.883 77.1368 177.173 79.0284 177.181 81.25C177.189 83.2784 176.935 85.1016 176.42 86.7195C175.913 88.3293 175.185 89.7017 174.235 90.8366C173.293 91.9716 172.158 92.8409 170.83 93.4446C169.51 94.0402 168.037 94.3381 166.411 94.3381C164.584 94.3381 162.978 93.9879 161.594 93.2876C160.209 92.5874 159.106 91.6456 158.285 90.4624C157.464 89.2791 156.985 87.9631 156.849 86.5142H163.465C163.626 87.2628 163.98 87.8061 164.528 88.1442C165.075 88.4742 165.703 88.6392 166.411 88.6392C167.828 88.6392 168.862 88.0275 169.514 86.804C170.174 85.5724 170.508 83.9304 170.516 81.8778H170.371C170.057 82.6345 169.582 83.2824 168.947 83.8217C168.311 84.361 167.57 84.7756 166.725 85.0653C165.88 85.3551 164.986 85.5 164.045 85.5C162.555 85.5 161.251 85.166 160.133 84.4979C159.014 83.8217 158.14 82.9001 157.513 81.733C156.885 80.5578 156.567 79.2216 156.559 77.7244C156.551 75.9697 156.965 74.4323 157.802 73.1122C158.64 71.7921 159.803 70.7659 161.292 70.0334C162.781 69.3009 164.503 68.9347 166.459 68.9347ZM166.508 74.0057C165.84 74.0057 165.244 74.1586 164.721 74.4645C164.206 74.7704 163.799 75.1849 163.501 75.7081C163.211 76.2313 163.071 76.8229 163.079 77.483C163.087 78.143 163.236 78.7346 163.525 79.2578C163.823 79.781 164.226 80.1955 164.733 80.5014C165.248 80.8073 165.84 80.9602 166.508 80.9602C166.999 80.9602 167.453 80.8757 167.872 80.7067C168.291 80.5296 168.653 80.2841 168.959 79.9702C169.273 79.6482 169.514 79.2779 169.683 78.8594C169.86 78.4328 169.945 77.974 169.937 77.483C169.929 76.8229 169.776 76.2313 169.478 75.7081C169.18 75.1849 168.773 74.7704 168.258 74.4645C167.743 74.1586 167.16 74.0057 166.508 74.0057ZM194.226 89.3636V88.0597C194.226 87.0133 194.452 86.0473 194.902 85.1619C195.361 84.2765 196.025 83.5642 196.895 83.0249C197.764 82.4856 198.822 82.2159 200.07 82.2159C201.35 82.2159 202.424 82.4815 203.294 83.0128C204.171 83.544 204.835 84.2524 205.286 85.1378C205.737 86.0232 205.962 86.9972 205.962 88.0597V89.3636C205.962 90.41 205.733 91.3759 205.274 92.2614C204.823 93.1468 204.159 93.8591 203.282 94.3984C202.404 94.9377 201.334 95.2074 200.07 95.2074C198.806 95.2074 197.74 94.9377 196.87 94.3984C196.001 93.8591 195.341 93.1468 194.89 92.2614C194.448 91.3759 194.226 90.41 194.226 89.3636ZM198.428 88.0597V89.3636C198.428 89.8224 198.541 90.2772 198.766 90.728C198.999 91.1707 199.434 91.392 200.07 91.392C200.738 91.392 201.177 91.1747 201.386 90.7401C201.603 90.3054 201.712 89.8466 201.712 89.3636V88.0597C201.712 87.5767 201.611 87.1098 201.41 86.6591C201.209 86.2083 200.762 85.983 200.07 85.983C199.434 85.983 198.999 86.2083 198.766 86.6591C198.541 87.1098 198.428 87.5767 198.428 88.0597ZM181.283 75.2131V73.9091C181.283 72.8466 181.512 71.8726 181.971 70.9872C182.438 70.1018 183.106 69.3935 183.975 68.8622C184.845 68.331 185.895 68.0653 187.127 68.0653C188.407 68.0653 189.481 68.331 190.35 68.8622C191.228 69.3935 191.892 70.1018 192.343 70.9872C192.793 71.8726 193.019 72.8466 193.019 73.9091V75.2131C193.019 76.2756 192.789 77.2455 192.331 78.1229C191.88 79.0002 191.216 79.7005 190.338 80.2237C189.461 80.7469 188.391 81.0085 187.127 81.0085C185.863 81.0085 184.797 80.7429 183.927 80.2116C183.058 79.6804 182.398 78.9761 181.947 78.0987C181.504 77.2214 181.283 76.2595 181.283 75.2131ZM185.533 73.9091V75.2131C185.533 75.696 185.646 76.1548 185.871 76.5895C186.096 77.0241 186.515 77.2415 187.127 77.2415C187.795 77.2415 188.234 77.0241 188.443 76.5895C188.66 76.1548 188.769 75.696 188.769 75.2131V73.9091C188.769 73.4261 188.668 72.9593 188.467 72.5085C188.266 72.0578 187.819 71.8324 187.127 71.8324C186.491 71.8324 186.064 72.0658 185.847 72.5327C185.638 72.9915 185.533 73.4503 185.533 73.9091ZM183.336 94L200.336 69.2727H203.765L186.765 94H183.336Z" fill="#F04E5A"/>
<path d="M162 7C181.483 7 200.202 14.5818 214.193 28.1405C228.185 41.6992 236.351 60.1705 236.963 79.6442C237.575 99.1179 230.585 118.065 217.472 132.476C204.36 146.886 186.154 155.629 166.709 156.852L165.992 145.445C182.473 144.408 197.904 136.998 209.018 124.783C220.133 112.569 226.057 96.5091 225.539 80.0032C225.02 63.4973 218.098 47.8411 206.239 36.3487C194.38 24.8564 178.514 18.43 162 18.43L162 7Z" fill="#F04E5A"/>
</svg>
